ISO-10303-21;
HEADER;
/* Generated by software containing ST-Developer
 * from STEP Tools, Inc. (www.steptools.com) 
 */
/* OPTION: using custom renumber hook */

FILE_DESCRIPTION(
/* description */ ('STEP AP214',
'CAx-IF Rec.Pracs.---User Defined Attributes---1.5---2016-08-15'),
/* implementation_level */ '2;1');

FILE_NAME(
/* name */ '6a65b56d65321e5002a5688d',
/* time_stamp */ '2026-07-26T07:21:17Z',
/* author */ (''),
/* organization */ (''),
/* preprocessor_version */ 'ST-DEVELOPER v20',
/* originating_system */ 'ONSHAPE BY PTC INC, 1.218',
/* authorisation */ '  ');

FILE_SCHEMA (('AUTOMOTIVE_DESIGN {1 0 10303 214 3 1 1}'));
ENDSEC;

DATA;
#10=PROPERTY_DEFINITION_REPRESENTATION(#14,#12);
#11=PROPERTY_DEFINITION_REPRESENTATION(#15,#13);
#12=REPRESENTATION('',(#16),#485);
#13=REPRESENTATION('',(#17),#485);
#14=PROPERTY_DEFINITION('pmi validation property','',#490);
#15=PROPERTY_DEFINITION('pmi validation property','',#490);
#16=VALUE_REPRESENTATION_ITEM('number of annotations',COUNT_MEASURE(0.));
#17=VALUE_REPRESENTATION_ITEM('number of views',COUNT_MEASURE(0.));
#18=SHAPE_REPRESENTATION_RELATIONSHIP('','',#296,#19);
#19=ADVANCED_BREP_SHAPE_REPRESENTATION('',(#294),#485);
#20=VERTEX_LOOP('',#207);
#21=LINE('',#421,#45);
#22=LINE('',#424,#46);
#23=LINE('',#426,#47);
#24=LINE('',#428,#48);
#25=LINE('',#430,#49);
#26=LINE('',#432,#50);
#27=LINE('',#435,#51);
#28=LINE('',#438,#52);
#29=LINE('',#439,#53);
#30=LINE('',#441,#54);
#31=LINE('',#443,#55);
#32=LINE('',#446,#56);
#33=LINE('',#447,#57);
#34=LINE('',#451,#58);
#35=LINE('',#455,#59);
#36=LINE('',#457,#60);
#37=LINE('',#459,#61);
#38=LINE('',#462,#62);
#39=LINE('',#463,#63);
#40=LINE('',#474,#64);
#41=LINE('',#476,#65);
#42=LINE('',#478,#66);
#43=LINE('',#480,#67);
#44=LINE('',#481,#68);
#45=VECTOR('',#344,1.);
#46=VECTOR('',#345,1.);
#47=VECTOR('',#346,1.);
#48=VECTOR('',#347,1.);
#49=VECTOR('',#348,1.);
#50=VECTOR('',#349,1.);
#51=VECTOR('',#354,1.);
#52=VECTOR('',#355,1.);
#53=VECTOR('',#356,1.);
#54=VECTOR('',#357,1.);
#55=VECTOR('',#360,1.);
#56=VECTOR('',#361,1.);
#57=VECTOR('',#362,1.);
#58=VECTOR('',#369,1.);
#59=VECTOR('',#374,1.);
#60=VECTOR('',#375,1.);
#61=VECTOR('',#378,1.);
#62=VECTOR('',#379,1.);
#63=VECTOR('',#380,1.);
#64=VECTOR('',#395,1.);
#65=VECTOR('',#398,1.);
#66=VECTOR('',#399,1.);
#67=VECTOR('',#402,1.);
#68=VECTOR('',#403,1.);
#69=PLANE('',#305);
#70=PLANE('',#306);
#71=PLANE('',#307);
#72=PLANE('',#308);
#73=PLANE('',#309);
#74=PLANE('',#311);
#75=PLANE('',#313);
#76=PLANE('',#314);
#77=PLANE('',#315);
#78=PLANE('',#321);
#79=PLANE('',#322);
#80=PLANE('',#323);
#81=PLANE('',#324);
#82=PLANE('',#325);
#83=CONICAL_SURFACE('',#301,0.00158749999997098,0.785398163472547);
#84=CONICAL_SURFACE('',#303,0.00158750000002783,0.785398163349072);
#85=CONICAL_SURFACE('',#317,0.000793999999984862,1.04719755119019);
#86=ORIENTED_EDGE('',*,*,#154,.T.);
#87=ORIENTED_EDGE('',*,*,#155,.T.);
#88=ORIENTED_EDGE('',*,*,#156,.T.);
#89=ORIENTED_EDGE('',*,*,#154,.F.);
#90=ORIENTED_EDGE('',*,*,#155,.F.);
#91=ORIENTED_EDGE('',*,*,#157,.T.);
#92=ORIENTED_EDGE('',*,*,#158,.F.);
#93=ORIENTED_EDGE('',*,*,#159,.F.);
#94=ORIENTED_EDGE('',*,*,#160,.F.);
#95=ORIENTED_EDGE('',*,*,#161,.F.);
#96=ORIENTED_EDGE('',*,*,#162,.F.);
#97=ORIENTED_EDGE('',*,*,#163,.F.);
#98=ORIENTED_EDGE('',*,*,#156,.F.);
#99=ORIENTED_EDGE('',*,*,#157,.F.);
#100=ORIENTED_EDGE('',*,*,#164,.T.);
#101=ORIENTED_EDGE('',*,*,#165,.T.);
#102=ORIENTED_EDGE('',*,*,#163,.T.);
#103=ORIENTED_EDGE('',*,*,#166,.T.);
#104=ORIENTED_EDGE('',*,*,#167,.T.);
#105=ORIENTED_EDGE('',*,*,#168,.T.);
#106=ORIENTED_EDGE('',*,*,#169,.T.);
#107=ORIENTED_EDGE('',*,*,#158,.T.);
#108=ORIENTED_EDGE('',*,*,#165,.F.);
#109=ORIENTED_EDGE('',*,*,#170,.T.);
#110=ORIENTED_EDGE('',*,*,#170,.F.);
#111=ORIENTED_EDGE('',*,*,#164,.F.);
#112=ORIENTED_EDGE('',*,*,#171,.F.);
#113=ORIENTED_EDGE('',*,*,#167,.F.);
#114=ORIENTED_EDGE('',*,*,#172,.F.);
#115=ORIENTED_EDGE('',*,*,#173,.F.);
#116=ORIENTED_EDGE('',*,*,#172,.T.);
#117=ORIENTED_EDGE('',*,*,#166,.F.);
#118=ORIENTED_EDGE('',*,*,#162,.T.);
#119=ORIENTED_EDGE('',*,*,#174,.T.);
#120=ORIENTED_EDGE('',*,*,#175,.T.);
#121=ORIENTED_EDGE('',*,*,#176,.T.);
#122=ORIENTED_EDGE('',*,*,#177,.T.);
#123=ORIENTED_EDGE('',*,*,#159,.T.);
#124=ORIENTED_EDGE('',*,*,#169,.F.);
#125=ORIENTED_EDGE('',*,*,#178,.T.);
#126=ORIENTED_EDGE('',*,*,#178,.F.);
#127=ORIENTED_EDGE('',*,*,#168,.F.);
#128=ORIENTED_EDGE('',*,*,#179,.F.);
#129=ORIENTED_EDGE('',*,*,#173,.T.);
#130=ORIENTED_EDGE('',*,*,#180,.F.);
#131=ORIENTED_EDGE('',*,*,#181,.F.);
#132=ORIENTED_EDGE('',*,*,#182,.F.);
#133=ORIENTED_EDGE('',*,*,#179,.T.);
#134=ORIENTED_EDGE('',*,*,#171,.T.);
#135=ORIENTED_EDGE('',*,*,#175,.F.);
#136=ORIENTED_EDGE('',*,*,#183,.F.);
#137=ORIENTED_EDGE('',*,*,#180,.T.);
#138=ORIENTED_EDGE('',*,*,#183,.T.);
#139=ORIENTED_EDGE('',*,*,#174,.F.);
#140=ORIENTED_EDGE('',*,*,#161,.T.);
#141=ORIENTED_EDGE('',*,*,#184,.T.);
#142=ORIENTED_EDGE('',*,*,#185,.T.);
#143=ORIENTED_EDGE('',*,*,#186,.T.);
#144=ORIENTED_EDGE('',*,*,#184,.F.);
#145=ORIENTED_EDGE('',*,*,#160,.T.);
#146=ORIENTED_EDGE('',*,*,#177,.F.);
#147=ORIENTED_EDGE('',*,*,#187,.T.);
#148=ORIENTED_EDGE('',*,*,#187,.F.);
#149=ORIENTED_EDGE('',*,*,#176,.F.);
#150=ORIENTED_EDGE('',*,*,#182,.T.);
#151=ORIENTED_EDGE('',*,*,#185,.F.);
#152=ORIENTED_EDGE('',*,*,#186,.F.);
#153=ORIENTED_EDGE('',*,*,#181,.T.);
#154=EDGE_CURVE('',#188,#188,#211,.F.);
#155=EDGE_CURVE('',#189,#189,#212,.T.);
#156=EDGE_CURVE('',#190,#190,#213,.T.);
#157=EDGE_CURVE('',#191,#191,#214,.T.);
#158=EDGE_CURVE('',#192,#193,#21,.T.);
#159=EDGE_CURVE('',#194,#192,#22,.T.);
#160=EDGE_CURVE('',#195,#194,#23,.T.);
#161=EDGE_CURVE('',#196,#195,#24,.F.);
#162=EDGE_CURVE('',#197,#196,#25,.T.);
#163=EDGE_CURVE('',#193,#197,#26,.T.);
#164=EDGE_CURVE('',#198,#199,#27,.F.);
#165=EDGE_CURVE('',#199,#193,#28,.F.);
#166=EDGE_CURVE('',#197,#200,#29,.T.);
#167=EDGE_CURVE('',#200,#198,#30,.F.);
#168=EDGE_CURVE('',#201,#202,#31,.F.);
#169=EDGE_CURVE('',#202,#192,#32,.T.);
#170=EDGE_CURVE('',#199,#201,#33,.F.);
#171=EDGE_CURVE('',#201,#198,#215,.T.);
#172=EDGE_CURVE('',#203,#200,#34,.T.);
#173=EDGE_CURVE('',#198,#203,#216,.T.);
#174=EDGE_CURVE('',#196,#204,#35,.T.);
#175=EDGE_CURVE('',#204,#203,#36,.F.);
#176=EDGE_CURVE('',#205,#206,#37,.F.);
#177=EDGE_CURVE('',#206,#194,#38,.F.);
#178=EDGE_CURVE('',#202,#205,#39,.F.);
#179=EDGE_CURVE('',#205,#201,#217,.T.);
#180=EDGE_CURVE('',#208,#203,#218,.F.);
#181=EDGE_CURVE('',#209,#208,#219,.F.);
#182=EDGE_CURVE('',#205,#209,#220,.F.);
#183=EDGE_CURVE('',#208,#204,#40,.T.);
#184=EDGE_CURVE('',#195,#210,#41,.T.);
#185=EDGE_CURVE('',#210,#208,#42,.T.);
#186=EDGE_CURVE('',#209,#210,#43,.F.);
#187=EDGE_CURVE('',#206,#209,#44,.F.);
#188=VERTEX_POINT('',#411);
#189=VERTEX_POINT('',#413);
#190=VERTEX_POINT('',#416);
#191=VERTEX_POINT('',#419);
#192=VERTEX_POINT('',#422);
#193=VERTEX_POINT('',#423);
#194=VERTEX_POINT('',#425);
#195=VERTEX_POINT('',#427);
#196=VERTEX_POINT('',#429);
#197=VERTEX_POINT('',#431);
#198=VERTEX_POINT('',#436);
#199=VERTEX_POINT('',#437);
#200=VERTEX_POINT('',#440);
#201=VERTEX_POINT('',#444);
#202=VERTEX_POINT('',#445);
#203=VERTEX_POINT('',#452);
#204=VERTEX_POINT('',#456);
#205=VERTEX_POINT('',#460);
#206=VERTEX_POINT('',#461);
#207=VERTEX_POINT('',#467);
#208=VERTEX_POINT('',#469);
#209=VERTEX_POINT('',#471);
#210=VERTEX_POINT('',#477);
#211=CIRCLE('',#299,0.0015875);
#212=CIRCLE('',#300,0.0015875);
#213=CIRCLE('',#302,0.00120904000004884);
#214=CIRCLE('',#304,0.000999999999976353);
#215=CIRCLE('',#310,0.000793999999984862);
#216=CIRCLE('',#312,0.000793999999984862);
#217=CIRCLE('',#316,0.000793999999984862);
#218=CIRCLE('',#318,0.000793999999984862);
#219=CIRCLE('',#319,0.000793999999984862);
#220=CIRCLE('',#320,0.000793999999984862);
#221=EDGE_LOOP('',(#86));
#222=EDGE_LOOP('',(#87));
#223=EDGE_LOOP('',(#88));
#224=EDGE_LOOP('',(#89));
#225=EDGE_LOOP('',(#90));
#226=EDGE_LOOP('',(#91));
#227=EDGE_LOOP('',(#92,#93,#94,#95,#96,#97));
#228=EDGE_LOOP('',(#98));
#229=EDGE_LOOP('',(#99));
#230=EDGE_LOOP('',(#100,#101,#102,#103,#104));
#231=EDGE_LOOP('',(#105,#106,#107,#108,#109));
#232=EDGE_LOOP('',(#110,#111,#112));
#233=EDGE_LOOP('',(#113,#114,#115));
#234=EDGE_LOOP('',(#116,#117,#118,#119,#120));
#235=EDGE_LOOP('',(#121,#122,#123,#124,#125));
#236=EDGE_LOOP('',(#126,#127,#128));
#237=EDGE_LOOP('',(#129,#130,#131,#132,#133,#134));
#238=EDGE_LOOP('',(#135,#136,#137));
#239=EDGE_LOOP('',(#138,#139,#140,#141,#142));
#240=EDGE_LOOP('',(#143,#144,#145,#146,#147));
#241=EDGE_LOOP('',(#148,#149,#150));
#242=EDGE_LOOP('',(#151,#152,#153));
#243=FACE_BOUND('',#221,.T.);
#244=FACE_BOUND('',#222,.T.);
#245=FACE_BOUND('',#223,.T.);
#246=FACE_BOUND('',#224,.T.);
#247=FACE_BOUND('',#225,.T.);
#248=FACE_BOUND('',#226,.T.);
#249=FACE_BOUND('',#227,.T.);
#250=FACE_BOUND('',#228,.T.);
#251=FACE_BOUND('',#229,.T.);
#252=FACE_BOUND('',#230,.T.);
#253=FACE_BOUND('',#231,.T.);
#254=FACE_BOUND('',#232,.T.);
#255=FACE_BOUND('',#233,.T.);
#256=FACE_BOUND('',#234,.T.);
#257=FACE_BOUND('',#235,.T.);
#258=FACE_BOUND('',#236,.T.);
#259=FACE_BOUND('',#20,.T.);
#260=FACE_BOUND('',#237,.T.);
#261=FACE_BOUND('',#238,.T.);
#262=FACE_BOUND('',#239,.T.);
#263=FACE_BOUND('',#240,.T.);
#264=FACE_BOUND('',#241,.T.);
#265=FACE_BOUND('',#242,.T.);
#266=CYLINDRICAL_SURFACE('',#298,0.0015875);
#267=ADVANCED_FACE('',(#243,#244),#266,.T.);
#268=ADVANCED_FACE('',(#245,#246),#83,.T.);
#269=ADVANCED_FACE('',(#247,#248),#84,.T.);
#270=ADVANCED_FACE('',(#249,#250),#69,.F.);
#271=ADVANCED_FACE('',(#251),#70,.F.);
#272=ADVANCED_FACE('',(#252),#71,.T.);
#273=ADVANCED_FACE('',(#253),#72,.T.);
#274=ADVANCED_FACE('',(#254),#73,.F.);
#275=ADVANCED_FACE('',(#255),#74,.F.);
#276=ADVANCED_FACE('',(#256),#75,.T.);
#277=ADVANCED_FACE('',(#257),#76,.T.);
#278=ADVANCED_FACE('',(#258),#77,.F.);
#279=ADVANCED_FACE('',(#259,#260),#85,.F.);
#280=ADVANCED_FACE('',(#261),#78,.F.);
#281=ADVANCED_FACE('',(#262),#79,.T.);
#282=ADVANCED_FACE('',(#263),#80,.T.);
#283=ADVANCED_FACE('',(#264),#81,.F.);
#284=ADVANCED_FACE('',(#265),#82,.F.);
#285=CLOSED_SHELL('',(#267,#268,#269,#270,#271,#272,#273,#274,#275,#276,
#277,#278,#279,#280,#281,#282,#283,#284));
#286=STYLED_ITEM('',(#287),#294);
#287=PRESENTATION_STYLE_ASSIGNMENT((#288));
#288=SURFACE_STYLE_USAGE(.BOTH.,#289);
#289=SURFACE_SIDE_STYLE('',(#290));
#290=SURFACE_STYLE_FILL_AREA(#291);
#291=FILL_AREA_STYLE('',(#292));
#292=FILL_AREA_STYLE_COLOUR('',#293);
#293=COLOUR_RGB('',0.792156862745098,0.819607843137255,0.933333333333333);
#294=MANIFOLD_SOLID_BREP('_SET-SCREW#5-40-0.25',#285);
#295=SHAPE_DEFINITION_REPRESENTATION(#490,#296);
#296=SHAPE_REPRESENTATION('_SET-SCREW#5-40-0.25',(#297),#485);
#297=AXIS2_PLACEMENT_3D('',#408,#326,#327);
#298=AXIS2_PLACEMENT_3D('',#409,#328,#329);
#299=AXIS2_PLACEMENT_3D('',#410,#330,#331);
#300=AXIS2_PLACEMENT_3D('',#412,#332,#333);
#301=AXIS2_PLACEMENT_3D('',#414,#334,#335);
#302=AXIS2_PLACEMENT_3D('',#415,#336,#337);
#303=AXIS2_PLACEMENT_3D('',#417,#338,#339);
#304=AXIS2_PLACEMENT_3D('',#418,#340,#341);
#305=AXIS2_PLACEMENT_3D('',#420,#342,#343);
#306=AXIS2_PLACEMENT_3D('',#433,#350,#351);
#307=AXIS2_PLACEMENT_3D('',#434,#352,#353);
#308=AXIS2_PLACEMENT_3D('',#442,#358,#359);
#309=AXIS2_PLACEMENT_3D('',#448,#363,#364);
#310=AXIS2_PLACEMENT_3D('',#449,#365,#366);
#311=AXIS2_PLACEMENT_3D('',#450,#367,#368);
#312=AXIS2_PLACEMENT_3D('',#453,#370,#371);
#313=AXIS2_PLACEMENT_3D('',#454,#372,#373);
#314=AXIS2_PLACEMENT_3D('',#458,#376,#377);
#315=AXIS2_PLACEMENT_3D('',#464,#381,#382);
#316=AXIS2_PLACEMENT_3D('',#465,#383,#384);
#317=AXIS2_PLACEMENT_3D('',#466,#385,#386);
#318=AXIS2_PLACEMENT_3D('',#468,#387,#388);
#319=AXIS2_PLACEMENT_3D('',#470,#389,#390);
#320=AXIS2_PLACEMENT_3D('',#472,#391,#392);
#321=AXIS2_PLACEMENT_3D('',#473,#393,#394);
#322=AXIS2_PLACEMENT_3D('',#475,#396,#397);
#323=AXIS2_PLACEMENT_3D('',#479,#400,#401);
#324=AXIS2_PLACEMENT_3D('',#482,#404,#405);
#325=AXIS2_PLACEMENT_3D('',#483,#406,#407);
#326=DIRECTION('',(0.,0.,1.));
#327=DIRECTION('',(1.,0.,0.));
#328=DIRECTION('',(-1.,0.,0.));
#329=DIRECTION('',(0.,-1.,0.));
#330=DIRECTION('',(-1.,0.,0.));
#331=DIRECTION('',(0.,-1.,0.));
#332=DIRECTION('',(-1.,0.,0.));
#333=DIRECTION('',(0.,-1.,0.));
#334=DIRECTION('',(1.,0.,-2.73184799371419E-16));
#335=DIRECTION('',(2.73184799371419E-16,0.,1.));
#336=DIRECTION('',(1.,0.,-2.73184799371419E-16));
#337=DIRECTION('',(2.73184799371419E-16,0.,1.));
#338=DIRECTION('',(-1.,0.,0.));
#339=DIRECTION('',(0.,-1.,0.));
#340=DIRECTION('',(-1.,0.,0.));
#341=DIRECTION('',(0.,-1.,0.));
#342=DIRECTION('',(1.,0.,0.));
#343=DIRECTION('',(0.,1.,0.));
#344=DIRECTION('',(0.,0.,1.));
#345=DIRECTION('',(0.,-0.866025403784439,0.5));
#346=DIRECTION('',(0.,-0.866025403784439,-0.5));
#347=DIRECTION('',(0.,0.,1.));
#348=DIRECTION('',(0.,0.866025403784439,-0.5));
#349=DIRECTION('',(0.,0.866025403784439,0.5));
#350=DIRECTION('',(-1.,0.,0.));
#351=DIRECTION('',(0.,-1.,0.));
#352=DIRECTION('',(0.,0.5,-0.866025403784439));
#353=DIRECTION('',(0.,0.866025403784439,0.5));
#354=DIRECTION('',(0.,0.866025403784439,0.5));
#355=DIRECTION('',(1.,0.,0.));
#356=DIRECTION('',(1.,0.,0.));
#357=DIRECTION('',(0.,0.866025403784439,0.5));
#358=DIRECTION('',(0.,1.,0.));
#359=DIRECTION('',(-1.,0.,0.));
#360=DIRECTION('',(0.,0.,1.));
#361=DIRECTION('',(-1.,0.,0.));
#362=DIRECTION('',(0.,0.,1.));
#363=DIRECTION('',(1.,0.,0.));
#364=DIRECTION('',(0.,1.,0.));
#365=DIRECTION('',(-1.,0.,0.));
#366=DIRECTION('',(0.,-1.,0.));
#367=DIRECTION('',(1.,0.,0.));
#368=DIRECTION('',(0.,1.,0.));
#369=DIRECTION('',(0.,-0.866025403784438,0.5));
#370=DIRECTION('',(-1.,0.,0.));
#371=DIRECTION('',(0.,-1.,0.));
#372=DIRECTION('',(0.,-0.5,-0.866025403784439));
#373=DIRECTION('',(0.,0.866025403784439,-0.5));
#374=DIRECTION('',(1.,0.,0.));
#375=DIRECTION('',(0.,0.866025403784439,-0.5));
#376=DIRECTION('',(0.,0.5,0.866025403784439));
#377=DIRECTION('',(0.,-0.866025403784439,0.5));
#378=DIRECTION('',(0.,-0.866025403784439,0.5));
#379=DIRECTION('',(1.,0.,0.));
#380=DIRECTION('',(0.,-0.866025403784439,0.5));
#381=DIRECTION('',(1.,0.,0.));
#382=DIRECTION('',(0.,1.,0.));
#383=DIRECTION('',(-1.,0.,0.));
#384=DIRECTION('',(0.,-1.,0.));
#385=DIRECTION('',(-1.,0.,0.));
#386=DIRECTION('',(0.,-1.,0.));
#387=DIRECTION('',(-1.,0.,0.));
#388=DIRECTION('',(0.,-1.,0.));
#389=DIRECTION('',(-1.,0.,0.));
#390=DIRECTION('',(0.,-1.,0.));
#391=DIRECTION('',(-1.,0.,0.));
#392=DIRECTION('',(0.,-1.,0.));
#393=DIRECTION('',(1.,0.,0.));
#394=DIRECTION('',(0.,1.,0.));
#395=DIRECTION('',(0.,0.,1.));
#396=DIRECTION('',(0.,-1.,0.));
#397=DIRECTION('',(1.,0.,0.));
#398=DIRECTION('',(1.,0.,0.));
#399=DIRECTION('',(0.,0.,1.));
#400=DIRECTION('',(0.,-0.5,0.866025403784439));
#401=DIRECTION('',(0.,-0.866025403784439,-0.5));
#402=DIRECTION('',(0.,-0.866025403784439,-0.5));
#403=DIRECTION('',(0.,-0.866025403784439,-0.5));
#404=DIRECTION('',(1.,0.,0.));
#405=DIRECTION('',(0.,1.,0.));
#406=DIRECTION('',(1.,0.,0.));
#407=DIRECTION('',(0.,1.,0.));
#408=CARTESIAN_POINT('',(0.,0.,0.));
#409=CARTESIAN_POINT('',(0.,0.,0.));
#410=CARTESIAN_POINT('',(-0.00597154,0.,0.));
#411=CARTESIAN_POINT('',(-0.00597154,0.0015875,1.94412679364643E-19));
#412=CARTESIAN_POINT('',(-0.0005875,0.,0.));
#413=CARTESIAN_POINT('',(-0.0005875,0.0015875,1.94412679364643E-19));
#414=CARTESIAN_POINT('',(-0.00597154000007549,0.,0.));
#415=CARTESIAN_POINT('',(-0.00634999999994079,0.,1.03389519133309E-19));
#416=CARTESIAN_POINT('',(-0.00634999999994079,0.,0.00120904000004884));
#417=CARTESIAN_POINT('',(-0.000587500000051477,0.,0.));
#418=CARTESIAN_POINT('',(5.6843418860808E-14,0.,0.));
#419=CARTESIAN_POINT('',(5.6843418860808E-14,-0.000999999999976353,0.));
#420=CARTESIAN_POINT('',(-0.00635,0.,0.));
#421=CARTESIAN_POINT('',(-0.00635,-0.000794,0.000458416113736563));
#422=CARTESIAN_POINT('',(-0.00635,-0.000794,-0.000458416113736563));
#423=CARTESIAN_POINT('',(-0.00635,-0.000794,0.000458416113736563));
#424=CARTESIAN_POINT('',(-0.00635,-0.000794,-0.000458416113736563));
#425=CARTESIAN_POINT('',(-0.00635,9.50338376571979E-20,-0.000916832227473126));
#426=CARTESIAN_POINT('',(-0.00635,0.,-0.000916832227473126));
#427=CARTESIAN_POINT('',(-0.00635,0.000794,-0.000458416113736563));
#428=CARTESIAN_POINT('',(-0.00635,0.000794,-0.000458416113736563));
#429=CARTESIAN_POINT('',(-0.00635,0.000794,0.000458416113736563));
#430=CARTESIAN_POINT('',(-0.00635,0.000794,0.000458416113736563));
#431=CARTESIAN_POINT('',(-0.00635,-7.2280144832367E-20,0.000916832227473126));
#432=CARTESIAN_POINT('',(-0.00635,-0.000794,0.000458416113736563));
#433=CARTESIAN_POINT('',(-5.42101086242752E-20,0.,0.001));
#434=CARTESIAN_POINT('',(-0.00444,0.,0.000916832227473126));
#435=CARTESIAN_POINT('',(-0.00444,0.,0.000916832227473126));
#436=CARTESIAN_POINT('',(-0.00443999999999412,-0.000396999999996216,0.00068762417059829));
#437=CARTESIAN_POINT('',(-0.00444,-0.000794,0.000458416113736563));
#438=CARTESIAN_POINT('',(-0.00444,-0.000794,0.000458416113736563));
#439=CARTESIAN_POINT('',(-0.00444,0.,0.000916832227473126));
#440=CARTESIAN_POINT('',(-0.00444,-1.58112816820803E-20,0.000916832227473126));
#441=CARTESIAN_POINT('',(-0.00444,0.,0.000916832227473126));
#442=CARTESIAN_POINT('',(-0.00444,-0.000794,0.000458416113736563));
#443=CARTESIAN_POINT('',(-0.00444,-0.000794,0.000458416113736563));
#444=CARTESIAN_POINT('',(-0.00443999999999412,-0.000793999999992431,-9.7236955850446E-20));
#445=CARTESIAN_POINT('',(-0.00444,-0.000794,-0.000458416113736563));
#446=CARTESIAN_POINT('',(-0.00444,-0.000794,-0.000458416113736563));
#447=CARTESIAN_POINT('',(-0.00444,-0.000794,0.000458416113736563));
#448=CARTESIAN_POINT('',(-0.00444,0.,0.));
#449=CARTESIAN_POINT('',(-0.00443999999998823,0.,0.));
#450=CARTESIAN_POINT('',(-0.00444,0.,0.));
#451=CARTESIAN_POINT('',(-0.00444,0.000397,0.000687624170604844));
#452=CARTESIAN_POINT('',(-0.00443999999999412,0.000396999999996215,0.00068762417059829));
#453=CARTESIAN_POINT('',(-0.00443999999998823,0.,0.));
#454=CARTESIAN_POINT('',(-0.00444,0.000794,0.000458416113736563));
#455=CARTESIAN_POINT('',(-0.00444,0.000794,0.000458416113736563));
#456=CARTESIAN_POINT('',(-0.00444,0.000794,0.000458416113736563));
#457=CARTESIAN_POINT('',(-0.00444,0.000794,0.000458416113736563));
#458=CARTESIAN_POINT('',(-0.00444,-0.000794,-0.000458416113736563));
#459=CARTESIAN_POINT('',(-0.00444,-0.000794,-0.000458416113736563));
#460=CARTESIAN_POINT('',(-0.00443999999999412,-0.000396999999996215,-0.00068762417059829));
#461=CARTESIAN_POINT('',(-0.00444,1.93243685011164E-19,-0.000916832227473126));
#462=CARTESIAN_POINT('',(-0.00444,2.16840434497101E-19,-0.000916832227473126));
#463=CARTESIAN_POINT('',(-0.00444,-0.000794,-0.000458416113736563));
#464=CARTESIAN_POINT('',(-0.00444,0.,0.));
#465=CARTESIAN_POINT('',(-0.00443999999998823,0.,0.));
#466=CARTESIAN_POINT('',(-0.00443999999998823,0.,0.));
#467=CARTESIAN_POINT('',(-0.00398158388628645,-5.6843418860808E-14,0.));
#468=CARTESIAN_POINT('',(-0.00443999999998823,0.,0.));
#469=CARTESIAN_POINT('',(-0.00443999999999412,0.000793999999992431,4.8618477925223E-20));
#470=CARTESIAN_POINT('',(-0.00443999999998823,0.,0.));
#471=CARTESIAN_POINT('',(-0.00443999999999412,0.000396999999996217,-0.000687624170598289));
#472=CARTESIAN_POINT('',(-0.00443999999998823,0.,0.));
#473=CARTESIAN_POINT('',(-0.00444,0.,0.));
#474=CARTESIAN_POINT('',(-0.00444,0.000794,0.));
#475=CARTESIAN_POINT('',(-0.00444,0.000794,-0.000458416113736563));
#476=CARTESIAN_POINT('',(-0.00444,0.000794,-0.000458416113736563));
#477=CARTESIAN_POINT('',(-0.00444,0.000794,-0.000458416113736563));
#478=CARTESIAN_POINT('',(-0.00444,0.000794,-0.000458416113736563));
#479=CARTESIAN_POINT('',(-0.00444,0.,-0.000916832227473126));
#480=CARTESIAN_POINT('',(-0.00444,0.,-0.000916832227473126));
#481=CARTESIAN_POINT('',(-0.00444,0.,-0.000916832227473126));
#482=CARTESIAN_POINT('',(-0.00444,0.,0.));
#483=CARTESIAN_POINT('',(-0.00444,0.,0.));
#484=MECHANICAL_DESIGN_GEOMETRIC_PRESENTATION_REPRESENTATION('',(#286),
#485);
#485=(
GEOMETRIC_REPRESENTATION_CONTEXT(3)
GLOBAL_UNCERTAINTY_ASSIGNED_CONTEXT((#486))
GLOBAL_UNIT_ASSIGNED_CONTEXT((#489,#488,#487))
REPRESENTATION_CONTEXT('_SET-SCREW#5-40-0.25','TOP_LEVEL_ASSEMBLY_PART')
);
#486=UNCERTAINTY_MEASURE_WITH_UNIT(LENGTH_MEASURE(4.12310562595703E-8),
#489,'DISTANCE_ACCURACY_VALUE','Maximum Tolerance applied to model');
#487=(
NAMED_UNIT(*)
SI_UNIT($,.STERADIAN.)
SOLID_ANGLE_UNIT()
);
#488=(
NAMED_UNIT(*)
PLANE_ANGLE_UNIT()
SI_UNIT($,.RADIAN.)
);
#489=(
LENGTH_UNIT()
NAMED_UNIT(*)
SI_UNIT($,.METRE.)
);
#490=PRODUCT_DEFINITION_SHAPE('','',#491);
#491=PRODUCT_DEFINITION('','',#493,#492);
#492=PRODUCT_DEFINITION_CONTEXT('',#499,'design');
#493=PRODUCT_DEFINITION_FORMATION_WITH_SPECIFIED_SOURCE('','',#495,
 .NOT_KNOWN.);
#494=PRODUCT_RELATED_PRODUCT_CATEGORY('','',(#495));
#495=PRODUCT('_SET-SCREW#5-40-0.25','_SET-SCREW#5-40-0.25',
'_SET-SCREW#5-40-0.25',(#497));
#496=PRODUCT_CATEGORY('','');
#497=PRODUCT_CONTEXT('',#499,'mechanical');
#498=APPLICATION_PROTOCOL_DEFINITION('international standard',
'automotive_design',2010,#499);
#499=APPLICATION_CONTEXT(
'core data for automotive mechanical design processes');
ENDSEC;
END-ISO-10303-21;
