ISO-10303-21;
HEADER;
/* Generated by software containing ST-Developer
 * from STEP Tools, Inc. (www.steptools.com) 
 */
/* OPTION: using custom renumber hook */

FILE_DESCRIPTION(
/* description */ ('STEP AP214',
'CAx-IF Rec.Pracs.---User Defined Attributes---1.5---2016-08-15'),
/* implementation_level */ '2;1');

FILE_NAME(
/* name */ '6a65b58f833ca6ec4e163ca0',
/* time_stamp */ '2026-07-26T07:21:51Z',
/* author */ (''),
/* organization */ (''),
/* preprocessor_version */ 'ST-DEVELOPER v20',
/* originating_system */ 'ONSHAPE BY PTC INC, 1.218',
/* authorisation */ '  ');

FILE_SCHEMA (('AUTOMOTIVE_DESIGN {1 0 10303 214 3 1 1}'));
ENDSEC;

DATA;
#10=PROPERTY_DEFINITION_REPRESENTATION(#14,#12);
#11=PROPERTY_DEFINITION_REPRESENTATION(#15,#13);
#12=REPRESENTATION('',(#16),#753);
#13=REPRESENTATION('',(#17),#753);
#14=PROPERTY_DEFINITION('pmi validation property','',#758);
#15=PROPERTY_DEFINITION('pmi validation property','',#758);
#16=VALUE_REPRESENTATION_ITEM('number of annotations',COUNT_MEASURE(0.));
#17=VALUE_REPRESENTATION_ITEM('number of views',COUNT_MEASURE(0.));
#18=SHAPE_REPRESENTATION_RELATIONSHIP('','',#366,#19);
#19=ADVANCED_BREP_SHAPE_REPRESENTATION('',(#364),#753);
#20=CONICAL_SURFACE('',#374,0.01775,0.785398163397452);
#21=CONICAL_SURFACE('',#388,0.00599999999991496,0.785398163454292);
#22=CONICAL_SURFACE('',#415,0.00600000000002865,0.785398163397448);
#23=B_SPLINE_CURVE_WITH_KNOTS('',3,(#536,#537,#538,#539,#540,#541,#542,
#543,#544,#545,#546,#547,#548,#549,#550,#551,#552,#553,#554,#555,#556,#557,
#558,#559,#560,#561,#562,#563,#564,#565,#566,#567,#568,#569,#570),
 .UNSPECIFIED.,.F.,.F.,(4,1,1,1,1,1,1,1,1,1,1,1,1,1,1,1,1,1,1,1,1,1,1,1,
1,1,1,1,1,1,1,1,4),(0.,0.03125,0.0625,0.09375,0.125,0.15625,0.1875,0.21875,
0.25,0.28125,0.3125,0.34375,0.375,0.40625,0.4375,0.46875,0.5,0.53125,0.5625,
0.59375,0.625,0.65625,0.6875,0.71875,0.75,0.78125,0.8125,0.84375,0.875,
0.90625,0.9375,0.96875,1.),.UNSPECIFIED.);
#24=B_SPLINE_CURVE_WITH_KNOTS('',3,(#573,#574,#575,#576,#577,#578,#579,
#580,#581,#582,#583,#584,#585,#586,#587,#588,#589,#590,#591,#592,#593,#594,
#595,#596,#597,#598,#599,#600,#601,#602,#603,#604,#605,#606,#607),
 .UNSPECIFIED.,.F.,.F.,(4,1,1,1,1,1,1,1,1,1,1,1,1,1,1,1,1,1,1,1,1,1,1,1,
1,1,1,1,1,1,1,1,4),(0.,0.03125,0.0625,0.09375,0.125,0.15625,0.1875,0.21875,
0.25,0.28125,0.3125,0.34375,0.375,0.40625,0.4375,0.46875,0.5,0.53125,0.5625,
0.59375,0.625,0.65625,0.6875,0.71875,0.75,0.78125,0.8125,0.84375,0.875,
0.90625,0.9375,0.96875,1.),.UNSPECIFIED.);
#25=B_SPLINE_CURVE_WITH_KNOTS('',3,(#679,#680,#681,#682,#683,#684,#685,
#686,#687,#688,#689,#690,#691,#692,#693,#694,#695,#696,#697,#698,#699,#700,
#701,#702,#703,#704,#705,#706,#707,#708,#709,#710,#711,#712,#713),
 .UNSPECIFIED.,.F.,.F.,(4,1,1,1,1,1,1,1,1,1,1,1,1,1,1,1,1,1,1,1,1,1,1,1,
1,1,1,1,1,1,1,1,4),(0.,0.03125,0.0625,0.09375,0.125,0.15625,0.1875,0.21875,
0.25,0.28125,0.3125,0.34375,0.375,0.40625,0.4375,0.46875,0.5,0.53125,0.5625,
0.59375,0.625,0.65625,0.6875,0.71875,0.75,0.78125,0.8125,0.84375,0.875,
0.90625,0.9375,0.96875,1.),.UNSPECIFIED.);
#26=B_SPLINE_CURVE_WITH_KNOTS('',3,(#716,#717,#718,#719,#720,#721,#722,
#723,#724,#725,#726,#727,#728,#729,#730,#731,#732,#733,#734,#735,#736,#737,
#738,#739,#740,#741,#742,#743,#744,#745,#746,#747,#748,#749,#750),
 .UNSPECIFIED.,.F.,.F.,(4,1,1,1,1,1,1,1,1,1,1,1,1,1,1,1,1,1,1,1,1,1,1,1,
1,1,1,1,1,1,1,1,4),(0.,0.03125,0.0625,0.09375,0.125,0.15625,0.1875,0.21875,
0.25,0.28125,0.3125,0.34375,0.375,0.40625,0.4375,0.46875,0.5,0.53125,0.5625,
0.59375,0.625,0.65625,0.6875,0.71875,0.75,0.78125,0.8125,0.84375,0.875,
0.90625,0.9375,0.96875,1.),.UNSPECIFIED.);
#27=TOROIDAL_SURFACE('',#373,0.01655,0.0004);
#28=TOROIDAL_SURFACE('',#406,0.0429,0.0257);
#29=TOROIDAL_SURFACE('',#418,0.01655,0.00065);
#30=PLANE('',#371);
#31=PLANE('',#376);
#32=PLANE('',#410);
#33=PLANE('',#419);
#34=ORIENTED_EDGE('',*,*,#100,.F.);
#35=ORIENTED_EDGE('',*,*,#101,.F.);
#36=ORIENTED_EDGE('',*,*,#101,.T.);
#37=ORIENTED_EDGE('',*,*,#102,.F.);
#38=ORIENTED_EDGE('',*,*,#103,.F.);
#39=ORIENTED_EDGE('',*,*,#104,.F.);
#40=ORIENTED_EDGE('',*,*,#100,.T.);
#41=ORIENTED_EDGE('',*,*,#105,.T.);
#42=ORIENTED_EDGE('',*,*,#102,.T.);
#43=ORIENTED_EDGE('',*,*,#106,.F.);
#44=ORIENTED_EDGE('',*,*,#104,.T.);
#45=ORIENTED_EDGE('',*,*,#103,.T.);
#46=ORIENTED_EDGE('',*,*,#107,.F.);
#47=ORIENTED_EDGE('',*,*,#108,.F.);
#48=ORIENTED_EDGE('',*,*,#109,.F.);
#49=ORIENTED_EDGE('',*,*,#110,.F.);
#50=ORIENTED_EDGE('',*,*,#111,.F.);
#51=ORIENTED_EDGE('',*,*,#112,.F.);
#52=ORIENTED_EDGE('',*,*,#113,.F.);
#53=ORIENTED_EDGE('',*,*,#114,.F.);
#54=ORIENTED_EDGE('',*,*,#115,.T.);
#55=ORIENTED_EDGE('',*,*,#105,.F.);
#56=ORIENTED_EDGE('',*,*,#106,.T.);
#57=ORIENTED_EDGE('',*,*,#116,.F.);
#58=ORIENTED_EDGE('',*,*,#107,.T.);
#59=ORIENTED_EDGE('',*,*,#117,.F.);
#60=ORIENTED_EDGE('',*,*,#108,.T.);
#61=ORIENTED_EDGE('',*,*,#118,.F.);
#62=ORIENTED_EDGE('',*,*,#109,.T.);
#63=ORIENTED_EDGE('',*,*,#119,.F.);
#64=ORIENTED_EDGE('',*,*,#110,.T.);
#65=ORIENTED_EDGE('',*,*,#120,.F.);
#66=ORIENTED_EDGE('',*,*,#111,.T.);
#67=ORIENTED_EDGE('',*,*,#121,.F.);
#68=ORIENTED_EDGE('',*,*,#112,.T.);
#69=ORIENTED_EDGE('',*,*,#122,.F.);
#70=ORIENTED_EDGE('',*,*,#113,.T.);
#71=ORIENTED_EDGE('',*,*,#123,.F.);
#72=ORIENTED_EDGE('',*,*,#114,.T.);
#73=ORIENTED_EDGE('',*,*,#124,.F.);
#74=ORIENTED_EDGE('',*,*,#125,.F.);
#75=ORIENTED_EDGE('',*,*,#115,.F.);
#76=ORIENTED_EDGE('',*,*,#126,.F.);
#77=ORIENTED_EDGE('',*,*,#116,.T.);
#78=ORIENTED_EDGE('',*,*,#123,.T.);
#79=ORIENTED_EDGE('',*,*,#121,.T.);
#80=ORIENTED_EDGE('',*,*,#119,.T.);
#81=ORIENTED_EDGE('',*,*,#127,.F.);
#82=ORIENTED_EDGE('',*,*,#128,.F.);
#83=ORIENTED_EDGE('',*,*,#117,.T.);
#84=ORIENTED_EDGE('',*,*,#118,.T.);
#85=ORIENTED_EDGE('',*,*,#120,.T.);
#86=ORIENTED_EDGE('',*,*,#122,.T.);
#87=ORIENTED_EDGE('',*,*,#124,.T.);
#88=ORIENTED_EDGE('',*,*,#129,.T.);
#89=ORIENTED_EDGE('',*,*,#125,.T.);
#90=ORIENTED_EDGE('',*,*,#128,.T.);
#91=ORIENTED_EDGE('',*,*,#126,.T.);
#92=ORIENTED_EDGE('',*,*,#127,.T.);
#93=ORIENTED_EDGE('',*,*,#130,.T.);
#94=ORIENTED_EDGE('',*,*,#129,.F.);
#95=ORIENTED_EDGE('',*,*,#131,.T.);
#96=ORIENTED_EDGE('',*,*,#132,.T.);
#97=ORIENTED_EDGE('',*,*,#130,.F.);
#98=ORIENTED_EDGE('',*,*,#131,.F.);
#99=ORIENTED_EDGE('',*,*,#132,.F.);
#100=EDGE_CURVE('',#133,#133,#166,.F.);
#101=EDGE_CURVE('',#134,#134,#167,.T.);
#102=EDGE_CURVE('',#135,#135,#168,.T.);
#103=EDGE_CURVE('',#136,#137,#23,.F.);
#104=EDGE_CURVE('',#137,#136,#24,.F.);
#105=EDGE_CURVE('',#138,#138,#169,.F.);
#106=EDGE_CURVE('',#139,#139,#170,.T.);
#107=EDGE_CURVE('',#140,#140,#171,.F.);
#108=EDGE_CURVE('',#141,#141,#172,.F.);
#109=EDGE_CURVE('',#142,#142,#173,.F.);
#110=EDGE_CURVE('',#143,#143,#174,.F.);
#111=EDGE_CURVE('',#144,#144,#175,.F.);
#112=EDGE_CURVE('',#145,#145,#176,.F.);
#113=EDGE_CURVE('',#146,#146,#177,.F.);
#114=EDGE_CURVE('',#147,#147,#178,.F.);
#115=EDGE_CURVE('',#148,#148,#179,.F.);
#116=EDGE_CURVE('',#149,#149,#180,.T.);
#117=EDGE_CURVE('',#150,#150,#181,.F.);
#118=EDGE_CURVE('',#151,#151,#182,.F.);
#119=EDGE_CURVE('',#152,#152,#183,.F.);
#120=EDGE_CURVE('',#153,#153,#184,.F.);
#121=EDGE_CURVE('',#154,#154,#185,.F.);
#122=EDGE_CURVE('',#155,#155,#186,.F.);
#123=EDGE_CURVE('',#156,#156,#187,.F.);
#124=EDGE_CURVE('',#157,#157,#188,.F.);
#125=EDGE_CURVE('',#158,#158,#189,.T.);
#126=EDGE_CURVE('',#159,#159,#190,.F.);
#127=EDGE_CURVE('',#160,#160,#191,.F.);
#128=EDGE_CURVE('',#161,#161,#192,.T.);
#129=EDGE_CURVE('',#162,#162,#193,.F.);
#130=EDGE_CURVE('',#163,#163,#194,.T.);
#131=EDGE_CURVE('',#164,#165,#25,.T.);
#132=EDGE_CURVE('',#165,#164,#26,.T.);
#133=VERTEX_POINT('',#529);
#134=VERTEX_POINT('',#531);
#135=VERTEX_POINT('',#534);
#136=VERTEX_POINT('',#571);
#137=VERTEX_POINT('',#572);
#138=VERTEX_POINT('',#610);
#139=VERTEX_POINT('',#613);
#140=VERTEX_POINT('',#615);
#141=VERTEX_POINT('',#617);
#142=VERTEX_POINT('',#619);
#143=VERTEX_POINT('',#621);
#144=VERTEX_POINT('',#623);
#145=VERTEX_POINT('',#625);
#146=VERTEX_POINT('',#627);
#147=VERTEX_POINT('',#629);
#148=VERTEX_POINT('',#632);
#149=VERTEX_POINT('',#635);
#150=VERTEX_POINT('',#638);
#151=VERTEX_POINT('',#641);
#152=VERTEX_POINT('',#644);
#153=VERTEX_POINT('',#647);
#154=VERTEX_POINT('',#650);
#155=VERTEX_POINT('',#653);
#156=VERTEX_POINT('',#656);
#157=VERTEX_POINT('',#659);
#158=VERTEX_POINT('',#662);
#159=VERTEX_POINT('',#665);
#160=VERTEX_POINT('',#668);
#161=VERTEX_POINT('',#670);
#162=VERTEX_POINT('',#673);
#163=VERTEX_POINT('',#677);
#164=VERTEX_POINT('',#714);
#165=VERTEX_POINT('',#715);
#166=CIRCLE('',#369,0.01695);
#167=CIRCLE('',#370,0.01695);
#168=CIRCLE('',#372,0.01725);
#169=CIRCLE('',#375,0.01775);
#170=CIRCLE('',#377,0.00599999999997181);
#171=CIRCLE('',#378,0.00225);
#172=CIRCLE('',#379,0.00225);
#173=CIRCLE('',#380,0.00225);
#174=CIRCLE('',#381,0.00225);
#175=CIRCLE('',#382,0.00225);
#176=CIRCLE('',#383,0.00225);
#177=CIRCLE('',#384,0.00125);
#178=CIRCLE('',#385,0.00125);
#179=CIRCLE('',#387,0.01775);
#180=CIRCLE('',#389,0.00549999999998363);
#181=CIRCLE('',#391,0.00225);
#182=CIRCLE('',#393,0.00225);
#183=CIRCLE('',#395,0.00225);
#184=CIRCLE('',#397,0.00225);
#185=CIRCLE('',#399,0.00225);
#186=CIRCLE('',#401,0.00225);
#187=CIRCLE('',#403,0.00125);
#188=CIRCLE('',#405,0.00125);
#189=CIRCLE('',#407,0.0172);
#190=CIRCLE('',#409,0.0055);
#191=CIRCLE('',#411,0.0115);
#192=CIRCLE('',#412,0.00600000000002865);
#193=CIRCLE('',#414,0.0172);
#194=CIRCLE('',#417,0.0115);
#195=EDGE_LOOP('',(#34));
#196=EDGE_LOOP('',(#35));
#197=EDGE_LOOP('',(#36));
#198=EDGE_LOOP('',(#37));
#199=EDGE_LOOP('',(#38,#39));
#200=EDGE_LOOP('',(#40));
#201=EDGE_LOOP('',(#41));
#202=EDGE_LOOP('',(#42));
#203=EDGE_LOOP('',(#43));
#204=EDGE_LOOP('',(#44,#45));
#205=EDGE_LOOP('',(#46));
#206=EDGE_LOOP('',(#47));
#207=EDGE_LOOP('',(#48));
#208=EDGE_LOOP('',(#49));
#209=EDGE_LOOP('',(#50));
#210=EDGE_LOOP('',(#51));
#211=EDGE_LOOP('',(#52));
#212=EDGE_LOOP('',(#53));
#213=EDGE_LOOP('',(#54));
#214=EDGE_LOOP('',(#55));
#215=EDGE_LOOP('',(#56));
#216=EDGE_LOOP('',(#57));
#217=EDGE_LOOP('',(#58));
#218=EDGE_LOOP('',(#59));
#219=EDGE_LOOP('',(#60));
#220=EDGE_LOOP('',(#61));
#221=EDGE_LOOP('',(#62));
#222=EDGE_LOOP('',(#63));
#223=EDGE_LOOP('',(#64));
#224=EDGE_LOOP('',(#65));
#225=EDGE_LOOP('',(#66));
#226=EDGE_LOOP('',(#67));
#227=EDGE_LOOP('',(#68));
#228=EDGE_LOOP('',(#69));
#229=EDGE_LOOP('',(#70));
#230=EDGE_LOOP('',(#71));
#231=EDGE_LOOP('',(#72));
#232=EDGE_LOOP('',(#73));
#233=EDGE_LOOP('',(#74));
#234=EDGE_LOOP('',(#75));
#235=EDGE_LOOP('',(#76));
#236=EDGE_LOOP('',(#77));
#237=EDGE_LOOP('',(#78));
#238=EDGE_LOOP('',(#79));
#239=EDGE_LOOP('',(#80));
#240=EDGE_LOOP('',(#81));
#241=EDGE_LOOP('',(#82));
#242=EDGE_LOOP('',(#83));
#243=EDGE_LOOP('',(#84));
#244=EDGE_LOOP('',(#85));
#245=EDGE_LOOP('',(#86));
#246=EDGE_LOOP('',(#87));
#247=EDGE_LOOP('',(#88));
#248=EDGE_LOOP('',(#89));
#249=EDGE_LOOP('',(#90));
#250=EDGE_LOOP('',(#91));
#251=EDGE_LOOP('',(#92));
#252=EDGE_LOOP('',(#93));
#253=EDGE_LOOP('',(#94));
#254=EDGE_LOOP('',(#95,#96));
#255=EDGE_LOOP('',(#97));
#256=EDGE_LOOP('',(#98,#99));
#257=FACE_BOUND('',#195,.T.);
#258=FACE_BOUND('',#196,.T.);
#259=FACE_BOUND('',#197,.T.);
#260=FACE_BOUND('',#198,.T.);
#261=FACE_BOUND('',#199,.T.);
#262=FACE_BOUND('',#200,.T.);
#263=FACE_BOUND('',#201,.T.);
#264=FACE_BOUND('',#202,.T.);
#265=FACE_BOUND('',#203,.T.);
#266=FACE_BOUND('',#204,.T.);
#267=FACE_BOUND('',#205,.T.);
#268=FACE_BOUND('',#206,.T.);
#269=FACE_BOUND('',#207,.T.);
#270=FACE_BOUND('',#208,.T.);
#271=FACE_BOUND('',#209,.T.);
#272=FACE_BOUND('',#210,.T.);
#273=FACE_BOUND('',#211,.T.);
#274=FACE_BOUND('',#212,.T.);
#275=FACE_BOUND('',#213,.T.);
#276=FACE_BOUND('',#214,.T.);
#277=FACE_BOUND('',#215,.T.);
#278=FACE_BOUND('',#216,.T.);
#279=FACE_BOUND('',#217,.T.);
#280=FACE_BOUND('',#218,.T.);
#281=FACE_BOUND('',#219,.T.);
#282=FACE_BOUND('',#220,.T.);
#283=FACE_BOUND('',#221,.T.);
#284=FACE_BOUND('',#222,.T.);
#285=FACE_BOUND('',#223,.T.);
#286=FACE_BOUND('',#224,.T.);
#287=FACE_BOUND('',#225,.T.);
#288=FACE_BOUND('',#226,.T.);
#289=FACE_BOUND('',#227,.T.);
#290=FACE_BOUND('',#228,.T.);
#291=FACE_BOUND('',#229,.T.);
#292=FACE_BOUND('',#230,.T.);
#293=FACE_BOUND('',#231,.T.);
#294=FACE_BOUND('',#232,.T.);
#295=FACE_BOUND('',#233,.T.);
#296=FACE_BOUND('',#234,.T.);
#297=FACE_BOUND('',#235,.T.);
#298=FACE_BOUND('',#236,.T.);
#299=FACE_BOUND('',#237,.T.);
#300=FACE_BOUND('',#238,.T.);
#301=FACE_BOUND('',#239,.T.);
#302=FACE_BOUND('',#240,.T.);
#303=FACE_BOUND('',#241,.T.);
#304=FACE_BOUND('',#242,.T.);
#305=FACE_BOUND('',#243,.T.);
#306=FACE_BOUND('',#244,.T.);
#307=FACE_BOUND('',#245,.T.);
#308=FACE_BOUND('',#246,.T.);
#309=FACE_BOUND('',#247,.T.);
#310=FACE_BOUND('',#248,.T.);
#311=FACE_BOUND('',#249,.T.);
#312=FACE_BOUND('',#250,.T.);
#313=FACE_BOUND('',#251,.T.);
#314=FACE_BOUND('',#252,.T.);
#315=FACE_BOUND('',#253,.T.);
#316=FACE_BOUND('',#254,.T.);
#317=FACE_BOUND('',#255,.T.);
#318=FACE_BOUND('',#256,.T.);
#319=CYLINDRICAL_SURFACE('',#368,0.01695);
#320=CYLINDRICAL_SURFACE('',#386,0.01775);
#321=CYLINDRICAL_SURFACE('',#390,0.00225);
#322=CYLINDRICAL_SURFACE('',#392,0.00225);
#323=CYLINDRICAL_SURFACE('',#394,0.00225);
#324=CYLINDRICAL_SURFACE('',#396,0.00225);
#325=CYLINDRICAL_SURFACE('',#398,0.00225);
#326=CYLINDRICAL_SURFACE('',#400,0.00225);
#327=CYLINDRICAL_SURFACE('',#402,0.00125);
#328=CYLINDRICAL_SURFACE('',#404,0.00125);
#329=CYLINDRICAL_SURFACE('',#408,0.0055);
#330=CYLINDRICAL_SURFACE('',#413,0.0172);
#331=CYLINDRICAL_SURFACE('',#416,0.0115);
#332=ADVANCED_FACE('',(#257,#258),#319,.F.);
#333=ADVANCED_FACE('',(#259,#260),#30,.F.);
#334=ADVANCED_FACE('',(#261,#262),#27,.F.);
#335=ADVANCED_FACE('',(#263,#264),#20,.T.);
#336=ADVANCED_FACE('',(#265,#266,#267,#268,#269,#270,#271,#272,#273,#274),
#31,.F.);
#337=ADVANCED_FACE('',(#275,#276),#320,.T.);
#338=ADVANCED_FACE('',(#277,#278),#21,.F.);
#339=ADVANCED_FACE('',(#279,#280),#321,.F.);
#340=ADVANCED_FACE('',(#281,#282),#322,.F.);
#341=ADVANCED_FACE('',(#283,#284),#323,.F.);
#342=ADVANCED_FACE('',(#285,#286),#324,.F.);
#343=ADVANCED_FACE('',(#287,#288),#325,.F.);
#344=ADVANCED_FACE('',(#289,#290),#326,.F.);
#345=ADVANCED_FACE('',(#291,#292),#327,.F.);
#346=ADVANCED_FACE('',(#293,#294),#328,.F.);
#347=ADVANCED_FACE('',(#295,#296),#28,.F.);
#348=ADVANCED_FACE('',(#297,#298),#329,.F.);
#349=ADVANCED_FACE('',(#299,#300,#301,#302,#303,#304,#305,#306,#307,#308),
#32,.F.);
#350=ADVANCED_FACE('',(#309,#310),#330,.T.);
#351=ADVANCED_FACE('',(#311,#312),#22,.F.);
#352=ADVANCED_FACE('',(#313,#314),#331,.T.);
#353=ADVANCED_FACE('',(#315,#316),#29,.T.);
#354=ADVANCED_FACE('',(#317,#318),#33,.F.);
#355=CLOSED_SHELL('',(#332,#333,#334,#335,#336,#337,#338,#339,#340,#341,
#342,#343,#344,#345,#346,#347,#348,#349,#350,#351,#352,#353,#354));
#356=STYLED_ITEM('',(#357),#364);
#357=PRESENTATION_STYLE_ASSIGNMENT((#358));
#358=SURFACE_STYLE_USAGE(.BOTH.,#359);
#359=SURFACE_SIDE_STYLE('',(#360));
#360=SURFACE_STYLE_FILL_AREA(#361);
#361=FILL_AREA_STYLE('',(#362));
#362=FILL_AREA_STYLE_COLOUR('',#363);
#363=COLOUR_RGB('',0.752941176470588,0.752941176470588,0.);
#364=MANIFOLD_SOLID_BREP('CSF-14-2A-R FLEXSPLINE-1-solid1',#355);
#365=SHAPE_DEFINITION_REPRESENTATION(#758,#366);
#366=SHAPE_REPRESENTATION('CSF-14-2A-R FLEXSPLINE-1-solid1',(#367),#753);
#367=AXIS2_PLACEMENT_3D('',#526,#420,#421);
#368=AXIS2_PLACEMENT_3D('',#527,#422,#423);
#369=AXIS2_PLACEMENT_3D('',#528,#424,#425);
#370=AXIS2_PLACEMENT_3D('',#530,#426,#427);
#371=AXIS2_PLACEMENT_3D('',#532,#428,#429);
#372=AXIS2_PLACEMENT_3D('',#533,#430,#431);
#373=AXIS2_PLACEMENT_3D('',#535,#432,#433);
#374=AXIS2_PLACEMENT_3D('',#608,#434,#435);
#375=AXIS2_PLACEMENT_3D('',#609,#436,#437);
#376=AXIS2_PLACEMENT_3D('',#611,#438,#439);
#377=AXIS2_PLACEMENT_3D('',#612,#440,#441);
#378=AXIS2_PLACEMENT_3D('',#614,#442,#443);
#379=AXIS2_PLACEMENT_3D('',#616,#444,#445);
#380=AXIS2_PLACEMENT_3D('',#618,#446,#447);
#381=AXIS2_PLACEMENT_3D('',#620,#448,#449);
#382=AXIS2_PLACEMENT_3D('',#622,#450,#451);
#383=AXIS2_PLACEMENT_3D('',#624,#452,#453);
#384=AXIS2_PLACEMENT_3D('',#626,#454,#455);
#385=AXIS2_PLACEMENT_3D('',#628,#456,#457);
#386=AXIS2_PLACEMENT_3D('',#630,#458,#459);
#387=AXIS2_PLACEMENT_3D('',#631,#460,#461);
#388=AXIS2_PLACEMENT_3D('',#633,#462,#463);
#389=AXIS2_PLACEMENT_3D('',#634,#464,#465);
#390=AXIS2_PLACEMENT_3D('',#636,#466,#467);
#391=AXIS2_PLACEMENT_3D('',#637,#468,#469);
#392=AXIS2_PLACEMENT_3D('',#639,#470,#471);
#393=AXIS2_PLACEMENT_3D('',#640,#472,#473);
#394=AXIS2_PLACEMENT_3D('',#642,#474,#475);
#395=AXIS2_PLACEMENT_3D('',#643,#476,#477);
#396=AXIS2_PLACEMENT_3D('',#645,#478,#479);
#397=AXIS2_PLACEMENT_3D('',#646,#480,#481);
#398=AXIS2_PLACEMENT_3D('',#648,#482,#483);
#399=AXIS2_PLACEMENT_3D('',#649,#484,#485);
#400=AXIS2_PLACEMENT_3D('',#651,#486,#487);
#401=AXIS2_PLACEMENT_3D('',#652,#488,#489);
#402=AXIS2_PLACEMENT_3D('',#654,#490,#491);
#403=AXIS2_PLACEMENT_3D('',#655,#492,#493);
#404=AXIS2_PLACEMENT_3D('',#657,#494,#495);
#405=AXIS2_PLACEMENT_3D('',#658,#496,#497);
#406=AXIS2_PLACEMENT_3D('',#660,#498,#499);
#407=AXIS2_PLACEMENT_3D('',#661,#500,#501);
#408=AXIS2_PLACEMENT_3D('',#663,#502,#503);
#409=AXIS2_PLACEMENT_3D('',#664,#504,#505);
#410=AXIS2_PLACEMENT_3D('',#666,#506,#507);
#411=AXIS2_PLACEMENT_3D('',#667,#508,#509);
#412=AXIS2_PLACEMENT_3D('',#669,#510,#511);
#413=AXIS2_PLACEMENT_3D('',#671,#512,#513);
#414=AXIS2_PLACEMENT_3D('',#672,#514,#515);
#415=AXIS2_PLACEMENT_3D('',#674,#516,#517);
#416=AXIS2_PLACEMENT_3D('',#675,#518,#519);
#417=AXIS2_PLACEMENT_3D('',#676,#520,#521);
#418=AXIS2_PLACEMENT_3D('',#678,#522,#523);
#419=AXIS2_PLACEMENT_3D('',#751,#524,#525);
#420=DIRECTION('',(0.,0.,1.));
#421=DIRECTION('',(1.,0.,0.));
#422=DIRECTION('',(-1.,0.,0.));
#423=DIRECTION('',(0.,-1.,0.));
#424=DIRECTION('',(-1.,0.,0.));
#425=DIRECTION('',(0.,-1.,0.));
#426=DIRECTION('',(-1.,0.,0.));
#427=DIRECTION('',(0.,-1.,0.));
#428=DIRECTION('',(-1.,0.,0.));
#429=DIRECTION('',(0.,-1.,0.));
#430=DIRECTION('',(-1.,0.,0.));
#431=DIRECTION('',(0.,-1.,0.));
#432=DIRECTION('',(-1.,0.,0.));
#433=DIRECTION('',(0.,-1.,0.));
#434=DIRECTION('',(-1.,0.,0.));
#435=DIRECTION('',(0.,-1.,0.));
#436=DIRECTION('',(-1.,0.,0.));
#437=DIRECTION('',(9.77309000550314E-17,-1.,0.));
#438=DIRECTION('',(-1.,0.,0.));
#439=DIRECTION('',(0.,-1.,0.));
#440=DIRECTION('',(1.,0.,0.));
#441=DIRECTION('',(0.,1.,0.));
#442=DIRECTION('',(-1.,0.,0.));
#443=DIRECTION('',(0.,-1.,0.));
#444=DIRECTION('',(-1.,0.,0.));
#445=DIRECTION('',(0.,-1.,0.));
#446=DIRECTION('',(-1.,0.,0.));
#447=DIRECTION('',(0.,-1.,0.));
#448=DIRECTION('',(-1.,0.,0.));
#449=DIRECTION('',(0.,-1.,0.));
#450=DIRECTION('',(-1.,0.,0.));
#451=DIRECTION('',(0.,-1.,0.));
#452=DIRECTION('',(-1.,0.,0.));
#453=DIRECTION('',(0.,-1.,0.));
#454=DIRECTION('',(-1.,0.,0.));
#455=DIRECTION('',(0.,-1.,0.));
#456=DIRECTION('',(-1.,0.,0.));
#457=DIRECTION('',(0.,-1.,0.));
#458=DIRECTION('',(-1.,0.,0.));
#459=DIRECTION('',(0.,-1.,0.));
#460=DIRECTION('',(-1.,0.,0.));
#461=DIRECTION('',(0.,-1.,0.));
#462=DIRECTION('',(1.,0.,0.));
#463=DIRECTION('',(0.,1.,0.));
#464=DIRECTION('',(1.,0.,0.));
#465=DIRECTION('',(0.,1.,0.));
#466=DIRECTION('',(-1.,0.,0.));
#467=DIRECTION('',(0.,-1.,0.));
#468=DIRECTION('',(-1.,0.,0.));
#469=DIRECTION('',(0.,-1.,0.));
#470=DIRECTION('',(-1.,0.,0.));
#471=DIRECTION('',(0.,-1.,0.));
#472=DIRECTION('',(-1.,0.,0.));
#473=DIRECTION('',(0.,-1.,0.));
#474=DIRECTION('',(-1.,0.,0.));
#475=DIRECTION('',(0.,-1.,0.));
#476=DIRECTION('',(-1.,0.,0.));
#477=DIRECTION('',(0.,-1.,0.));
#478=DIRECTION('',(-1.,0.,0.));
#479=DIRECTION('',(0.,-1.,0.));
#480=DIRECTION('',(-1.,0.,0.));
#481=DIRECTION('',(0.,-1.,0.));
#482=DIRECTION('',(-1.,0.,0.));
#483=DIRECTION('',(0.,-1.,0.));
#484=DIRECTION('',(-1.,0.,0.));
#485=DIRECTION('',(0.,-1.,0.));
#486=DIRECTION('',(-1.,0.,0.));
#487=DIRECTION('',(0.,-1.,0.));
#488=DIRECTION('',(-1.,0.,0.));
#489=DIRECTION('',(0.,-1.,0.));
#490=DIRECTION('',(-1.,0.,0.));
#491=DIRECTION('',(0.,-1.,0.));
#492=DIRECTION('',(-1.,0.,0.));
#493=DIRECTION('',(0.,-1.,0.));
#494=DIRECTION('',(-1.,0.,0.));
#495=DIRECTION('',(0.,-1.,0.));
#496=DIRECTION('',(-1.,0.,0.));
#497=DIRECTION('',(0.,-1.,0.));
#498=DIRECTION('',(-1.,0.,0.));
#499=DIRECTION('',(0.,-1.,0.));
#500=DIRECTION('',(-1.,0.,0.));
#501=DIRECTION('',(0.,-1.,0.));
#502=DIRECTION('',(-1.,0.,0.));
#503=DIRECTION('',(0.,-1.,0.));
#504=DIRECTION('',(-1.,0.,0.));
#505=DIRECTION('',(0.,-1.,0.));
#506=DIRECTION('',(1.,0.,0.));
#507=DIRECTION('',(0.,1.,0.));
#508=DIRECTION('',(-1.,0.,0.));
#509=DIRECTION('',(0.,-1.,0.));
#510=DIRECTION('',(-1.,0.,0.));
#511=DIRECTION('',(0.,-1.,0.));
#512=DIRECTION('',(-1.,0.,0.));
#513=DIRECTION('',(0.,-1.,0.));
#514=DIRECTION('',(-1.,0.,0.));
#515=DIRECTION('',(0.,-1.,0.));
#516=DIRECTION('',(-1.,0.,0.));
#517=DIRECTION('',(0.,-1.,0.));
#518=DIRECTION('',(-1.,0.,0.));
#519=DIRECTION('',(0.,-1.,0.));
#520=DIRECTION('',(-1.,0.,0.));
#521=DIRECTION('',(0.,-1.,0.));
#522=DIRECTION('',(1.,0.,0.));
#523=DIRECTION('',(0.,1.,0.));
#524=DIRECTION('',(1.,0.,0.));
#525=DIRECTION('',(0.,1.,0.));
#526=CARTESIAN_POINT('',(0.,0.,0.));
#527=CARTESIAN_POINT('',(-0.019116228,0.,0.));
#528=CARTESIAN_POINT('',(-0.0147,0.,0.));
#529=CARTESIAN_POINT('',(-0.0147,-0.01695,0.));
#530=CARTESIAN_POINT('',(0.00600000000853285,0.,0.));
#531=CARTESIAN_POINT('',(0.00600000000853285,-0.01695,0.));
#532=CARTESIAN_POINT('',(0.00600000000853285,0.,0.01725));
#533=CARTESIAN_POINT('',(0.00600000000853285,0.,0.));
#534=CARTESIAN_POINT('',(0.00600000000853285,-0.01725,0.));
#535=CARTESIAN_POINT('',(-0.0147,0.,0.));
#536=CARTESIAN_POINT('',(-0.0151,0.01655,0.));
#537=CARTESIAN_POINT('',(-0.0151,0.01655,-0.000506050760914001));
#538=CARTESIAN_POINT('',(-0.0151,0.016502141475155,-0.00152102951242788));
#539=CARTESIAN_POINT('',(-0.0151,0.0163030606078989,-0.00298901018948893));
#540=CARTESIAN_POINT('',(-0.0151,0.0159278391770151,-0.00459186083414239));
#541=CARTESIAN_POINT('',(-0.0151,0.0154206864068682,-0.00608166143636158));
#542=CARTESIAN_POINT('',(-0.0151,0.0147173934910112,-0.00763329807990528));
#543=CARTESIAN_POINT('',(-0.0151,0.0138820667529123,-0.00906214230803031));
#544=CARTESIAN_POINT('',(-0.0151,0.0128679937613518,-0.0104560611991181));
#545=CARTESIAN_POINT('',(-0.0151,0.0117227042059649,-0.0117230809941085));
#546=CARTESIAN_POINT('',(-0.0151,0.0104568927866126,-0.0128673181962718));
#547=CARTESIAN_POINT('',(-0.0151,0.0090617016389254,-0.0138823564817524));
#548=CARTESIAN_POINT('',(-0.0151,0.00763422916883036,-0.0147169101407307));
#549=CARTESIAN_POINT('',(-0.0151,0.00608118892224755,-0.0154208793740182));
#550=CARTESIAN_POINT('',(-0.0151,0.00459281980167338,-0.0159275506586961));
#551=CARTESIAN_POINT('',(-0.0151,0.00298867352807301,-0.0163031476478733));
#552=CARTESIAN_POINT('',(-0.0151,0.00152141719056056,-0.0165020818335765));
#553=CARTESIAN_POINT('',(-0.0151,-2.63790277299993E-7,-0.0165739347667356));
#554=CARTESIAN_POINT('',(-0.0151,-0.00152036202945136,-0.016502179099481));
#555=CARTESIAN_POINT('',(-0.0151,-0.0029891890410225,-0.0163030505264851));
#556=CARTESIAN_POINT('',(-0.0151,-0.00459181291098461,-0.0159278418783444));
#557=CARTESIAN_POINT('',(-0.0151,-0.00608167427732594,-0.0154206856829974));
#558=CARTESIAN_POINT('',(-0.0151,-0.00763329463920562,-0.0147173936851653));
#559=CARTESIAN_POINT('',(-0.0151,-0.00906214322971467,-0.0138820667002471));
#560=CARTESIAN_POINT('',(-0.0151,-0.0104560609530804,-0.0128679937778584));
#561=CARTESIAN_POINT('',(-0.0151,-0.0117230810565708,-0.0117227041926243));
#562=CARTESIAN_POINT('',(-0.0151,-0.0128673181924605,-0.0104568928234686));
#563=CARTESIAN_POINT('',(-0.0151,-0.0138823564344987,-0.0090617015048622));
#564=CARTESIAN_POINT('',(-0.0151,-0.0147169103335569,-0.00763422966822718));
#565=CARTESIAN_POINT('',(-0.0151,-0.0154208786499411,-0.00608118705879803));
#566=CARTESIAN_POINT('',(-0.0151,-0.015927553362178,-0.0045928267560747));
#567=CARTESIAN_POINT('',(-0.0151,-0.0163031375580474,-0.00298864757384525));
#568=CARTESIAN_POINT('',(-0.0151,-0.0165021194893983,-0.00152151405307029));
#569=CARTESIAN_POINT('',(-0.0151,-0.01655,-0.000506228531127967));
#570=CARTESIAN_POINT('',(-0.0151,-0.01655,0.));
#571=CARTESIAN_POINT('',(-0.0151,-0.01655,0.));
#572=CARTESIAN_POINT('',(-0.0151,0.01655,2.60385305233476E-18));
#573=CARTESIAN_POINT('',(-0.0151,-0.01655,0.));
#574=CARTESIAN_POINT('',(-0.0151,-0.01655,0.000506050760915666));
#575=CARTESIAN_POINT('',(-0.0151,-0.0165021414751545,0.00152102951243365));
#576=CARTESIAN_POINT('',(-0.0151,-0.0163030606079005,0.00298901018948123));
#577=CARTESIAN_POINT('',(-0.0151,-0.0159278391770091,0.00459186083416742));
#578=CARTESIAN_POINT('',(-0.0151,-0.0154206864068721,0.00608166143635197));
#579=CARTESIAN_POINT('',(-0.0151,-0.0147173934910017,0.00763329807991868));
#580=CARTESIAN_POINT('',(-0.0151,-0.0138820667529161,0.00906214230802437));
#581=CARTESIAN_POINT('',(-0.0151,-0.0128679937613461,0.0104560611991285));
#582=CARTESIAN_POINT('',(-0.0151,-0.0117227042059686,0.011723080994105));
#583=CARTESIAN_POINT('',(-0.0151,-0.0104568927866039,0.0128673181962757));
#584=CARTESIAN_POINT('',(-0.0151,-0.00906170163893317,0.0138823564817475));
#585=CARTESIAN_POINT('',(-0.0151,-0.00763422916880806,0.0147169101407465));
#586=CARTESIAN_POINT('',(-0.0151,-0.00608118892225915,0.0154208793740135));
#587=CARTESIAN_POINT('',(-0.0151,-0.00459281980164935,0.0159275506586988));
#588=CARTESIAN_POINT('',(-0.0151,-0.00298867352808252,0.0163031476478716));
#589=CARTESIAN_POINT('',(-0.0151,-0.00152141719054656,0.0165020818335806));
#590=CARTESIAN_POINT('',(-0.0151,2.63790263519135E-7,0.0165739347667359));
#591=CARTESIAN_POINT('',(-0.0151,0.0015203620294925,0.0165021790994759));
#592=CARTESIAN_POINT('',(-0.0151,0.00298918904099621,0.0163030505264903));
#593=CARTESIAN_POINT('',(-0.0151,0.00459181291104865,0.0159278418783286));
#594=CARTESIAN_POINT('',(-0.0151,0.00608167427729411,0.0154206856830101));
#595=CARTESIAN_POINT('',(-0.0151,0.00763329463926893,0.0147173936851305));
#596=CARTESIAN_POINT('',(-0.0151,0.00906214322969551,0.0138820667002592));
#597=CARTESIAN_POINT('',(-0.0151,0.0104560609530937,0.0128679937778449));
#598=CARTESIAN_POINT('',(-0.0151,0.0117230810565649,0.0117227041926299));
#599=CARTESIAN_POINT('',(-0.0151,0.0128673181924707,0.0104568928234597));
#600=CARTESIAN_POINT('',(-0.0151,0.0138823564344919,0.00906170150487243));
#601=CARTESIAN_POINT('',(-0.0151,0.0147169103335739,0.00763422966819521));
#602=CARTESIAN_POINT('',(-0.0151,0.0154208786499385,0.00608118705880371));
#603=CARTESIAN_POINT('',(-0.0151,0.0159275533621716,0.00459282675608394));
#604=CARTESIAN_POINT('',(-0.0151,0.0163031375580491,0.00298864757383606));
#605=CARTESIAN_POINT('',(-0.0151,0.0165021194893978,0.00152151405309784));
#606=CARTESIAN_POINT('',(-0.0151,0.01655,0.0005062285311396));
#607=CARTESIAN_POINT('',(-0.0151,0.01655,0.));
#608=CARTESIAN_POINT('',(0.00550000000853285,0.,0.));
#609=CARTESIAN_POINT('',(0.00550000000853285,0.,0.));
#610=CARTESIAN_POINT('',(0.00550000000853285,-0.01775,0.));
#611=CARTESIAN_POINT('',(-0.0151,0.,0.01695));
#612=CARTESIAN_POINT('',(-0.015100000000075,0.,0.));
#613=CARTESIAN_POINT('',(-0.015100000000075,0.00599999999997181,0.));
#614=CARTESIAN_POINT('',(-0.0151,0.,0.0085));
#615=CARTESIAN_POINT('',(-0.0151,-0.00225,0.0085));
#616=CARTESIAN_POINT('',(-0.0151,0.00736121593216774,0.00425));
#617=CARTESIAN_POINT('',(-0.0151,0.00511121593216774,0.00425));
#618=CARTESIAN_POINT('',(-0.0151,0.00736121593216771,-0.00425));
#619=CARTESIAN_POINT('',(-0.0151,0.00511121593216771,-0.00425));
#620=CARTESIAN_POINT('',(-0.0151,0.,-0.0085));
#621=CARTESIAN_POINT('',(-0.0151,-0.00225,-0.0085));
#622=CARTESIAN_POINT('',(-0.0151,-0.00736121593216777,-0.00424999999999993));
#623=CARTESIAN_POINT('',(-0.0151,-0.00961121593216777,-0.00424999999999993));
#624=CARTESIAN_POINT('',(-0.0151,-0.00736121593216768,0.00425000000000009));
#625=CARTESIAN_POINT('',(-0.0151,-0.00961121593216768,0.00425000000000009));
#626=CARTESIAN_POINT('',(-0.0151,-0.004625,-0.00801073498500605));
#627=CARTESIAN_POINT('',(-0.0151,-0.005875,-0.00801073498500605));
#628=CARTESIAN_POINT('',(-0.0151,0.004625,0.00801073498500605));
#629=CARTESIAN_POINT('',(-0.0151,0.003375,0.00801073498500605));
#630=CARTESIAN_POINT('',(-0.019116228,0.,0.));
#631=CARTESIAN_POINT('',(-0.00100000064004285,0.,0.));
#632=CARTESIAN_POINT('',(-0.00100000064004285,-0.01775,0.));
#633=CARTESIAN_POINT('',(-0.0151000000001318,0.,0.));
#634=CARTESIAN_POINT('',(-0.0156000000000063,0.,0.));
#635=CARTESIAN_POINT('',(-0.0156000000000063,0.00549999999998363,0.));
#636=CARTESIAN_POINT('',(-0.0175,0.,0.0085));
#637=CARTESIAN_POINT('',(-0.0175,0.,0.0085));
#638=CARTESIAN_POINT('',(-0.0175,-0.00225,0.0085));
#639=CARTESIAN_POINT('',(-0.0175,0.00736121593216774,0.00425));
#640=CARTESIAN_POINT('',(-0.0175,0.00736121593216774,0.00425));
#641=CARTESIAN_POINT('',(-0.0175,0.00511121593216774,0.00425));
#642=CARTESIAN_POINT('',(-0.0175,0.00736121593216771,-0.00425));
#643=CARTESIAN_POINT('',(-0.0175,0.00736121593216771,-0.00425));
#644=CARTESIAN_POINT('',(-0.0175,0.00511121593216771,-0.00425));
#645=CARTESIAN_POINT('',(-0.0175,0.,-0.0085));
#646=CARTESIAN_POINT('',(-0.0175,0.,-0.0085));
#647=CARTESIAN_POINT('',(-0.0175,-0.00225,-0.0085));
#648=CARTESIAN_POINT('',(-0.0175,-0.00736121593216777,-0.00424999999999993));
#649=CARTESIAN_POINT('',(-0.0175,-0.00736121593216777,-0.00424999999999993));
#650=CARTESIAN_POINT('',(-0.0175,-0.00961121593216777,-0.00424999999999993));
#651=CARTESIAN_POINT('',(-0.0175,-0.00736121593216768,0.00425000000000009));
#652=CARTESIAN_POINT('',(-0.0175,-0.00736121593216768,0.00425000000000009));
#653=CARTESIAN_POINT('',(-0.0175,-0.00961121593216768,0.00425000000000009));
#654=CARTESIAN_POINT('',(-0.0175,-0.004625,-0.00801073498500605));
#655=CARTESIAN_POINT('',(-0.0175,-0.004625,-0.00801073498500605));
#656=CARTESIAN_POINT('',(-0.0175,-0.005875,-0.00801073498500605));
#657=CARTESIAN_POINT('',(-0.0175,0.004625,0.00801073498500605));
#658=CARTESIAN_POINT('',(-0.0175,0.004625,0.00801073498500605));
#659=CARTESIAN_POINT('',(-0.0175,0.003375,0.00801073498500605));
#660=CARTESIAN_POINT('',(-0.00628843140918412,0.,0.));
#661=CARTESIAN_POINT('',(-0.00628843140918412,0.,0.));
#662=CARTESIAN_POINT('',(-0.00628843140918412,-0.0172,0.));
#663=CARTESIAN_POINT('',(-0.019116228,0.,0.));
#664=CARTESIAN_POINT('',(-0.017,0.,0.));
#665=CARTESIAN_POINT('',(-0.017,-0.0055,0.));
#666=CARTESIAN_POINT('',(-0.0175,0.,0.0055));
#667=CARTESIAN_POINT('',(-0.0175,0.,0.));
#668=CARTESIAN_POINT('',(-0.0175,-0.0115,0.));
#669=CARTESIAN_POINT('',(-0.0174999999999841,0.,0.));
#670=CARTESIAN_POINT('',(-0.0174999999999841,-0.00600000000002865,0.));
#671=CARTESIAN_POINT('',(-0.019116228,0.,0.));
#672=CARTESIAN_POINT('',(-0.0147,0.,0.));
#673=CARTESIAN_POINT('',(-0.0147,-0.0172,0.));
#674=CARTESIAN_POINT('',(-0.0174999999999841,0.,0.));
#675=CARTESIAN_POINT('',(-0.019116228,0.,0.));
#676=CARTESIAN_POINT('',(-0.01535,0.,0.));
#677=CARTESIAN_POINT('',(-0.01535,-0.0115,0.));
#678=CARTESIAN_POINT('',(-0.0147,0.,0.));
#679=CARTESIAN_POINT('',(-0.01535,0.01655,0.));
#680=CARTESIAN_POINT('',(-0.01535,0.01655,0.000506050760905027));
#681=CARTESIAN_POINT('',(-0.01535,0.0165021414751557,0.0015210295124055));
#682=CARTESIAN_POINT('',(-0.01535,0.0163030606078967,0.00298901018949995));
#683=CARTESIAN_POINT('',(-0.01535,0.0159278391770235,0.0045918608341207));
#684=CARTESIAN_POINT('',(-0.01535,0.0154206864068651,0.00608166143636983));
#685=CARTESIAN_POINT('',(-0.01535,0.0147173934910153,0.007633298079894));
#686=CARTESIAN_POINT('',(-0.01535,0.0138820667529112,0.0090621423080322));
#687=CARTESIAN_POINT('',(-0.01535,0.0128679937613519,0.0104560611991218));
#688=CARTESIAN_POINT('',(-0.01535,0.0117227042059659,0.0117230809941079));
#689=CARTESIAN_POINT('',(-0.01535,0.0104568927866086,0.0128673181962709));
#690=CARTESIAN_POINT('',(-0.01535,0.00906170163893279,0.0138823564817481));
#691=CARTESIAN_POINT('',(-0.01535,0.00763422916880489,0.0147169101407488));
#692=CARTESIAN_POINT('',(-0.01535,0.00608118892227316,0.0154208793740083));
#693=CARTESIAN_POINT('',(-0.01535,0.00459281980159646,0.0159275506587171));
#694=CARTESIAN_POINT('',(-0.01535,0.00298867352810815,0.0163031476478667));
#695=CARTESIAN_POINT('',(-0.01535,0.00152141719049689,0.0165020818335819));
#696=CARTESIAN_POINT('',(-0.01535,-2.63790250044794E-7,0.0165739347667355));
#697=CARTESIAN_POINT('',(-0.01535,-0.00152036202949673,0.0165021790994761));
#698=CARTESIAN_POINT('',(-0.01535,-0.00298918904099646,0.0163030505264899));
#699=CARTESIAN_POINT('',(-0.01535,-0.00459181291104343,0.01592784187833));
#700=CARTESIAN_POINT('',(-0.01535,-0.00608167427730295,0.0154206856830062));
#701=CARTESIAN_POINT('',(-0.01535,-0.00763329463923878,0.0147173936851443));
#702=CARTESIAN_POINT('',(-0.01535,-0.00906214322970998,0.0138820667002496));
#703=CARTESIAN_POINT('',(-0.01535,-0.0104560609530659,0.0128679937778692));
#704=CARTESIAN_POINT('',(-0.01535,-0.0117230810565734,0.0117227041926218));
#705=CARTESIAN_POINT('',(-0.01535,-0.0128673181924647,0.0104568928234675));
#706=CARTESIAN_POINT('',(-0.01535,-0.0138823564344919,0.00906170150487319));
#707=CARTESIAN_POINT('',(-0.01535,-0.0147169103335797,0.00763422966818435));
#708=CARTESIAN_POINT('',(-0.01535,-0.0154208786499322,0.00608118705882034));
#709=CARTESIAN_POINT('',(-0.01535,-0.0159275533621907,0.00459282675602823));
#710=CARTESIAN_POINT('',(-0.01535,-0.016303137558044,0.00298864757386141));
#711=CARTESIAN_POINT('',(-0.01535,-0.0165021194893993,0.00152151405305213));
#712=CARTESIAN_POINT('',(-0.01535,-0.01655,0.00050622853112165));
#713=CARTESIAN_POINT('',(-0.01535,-0.01655,0.));
#714=CARTESIAN_POINT('',(-0.01535,0.01655,0.));
#715=CARTESIAN_POINT('',(-0.01535,-0.01655,1.90996366194404E-18));
#716=CARTESIAN_POINT('',(-0.01535,-0.01655,0.));
#717=CARTESIAN_POINT('',(-0.01535,-0.01655,-0.000506050760905854));
#718=CARTESIAN_POINT('',(-0.01535,-0.0165021414751559,-0.0015210295124063));
#719=CARTESIAN_POINT('',(-0.01535,-0.0163030606078959,-0.00298901018950335));
#720=CARTESIAN_POINT('',(-0.01535,-0.0159278391770262,-0.00459186083410629));
#721=CARTESIAN_POINT('',(-0.01535,-0.0154206864068622,-0.00608166143637699));
#722=CARTESIAN_POINT('',(-0.01535,-0.0147173934910241,-0.00763329807987975));
#723=CARTESIAN_POINT('',(-0.01535,-0.013882066752909,-0.00906214230803589));
#724=CARTESIAN_POINT('',(-0.01535,-0.012867993761352,-0.0104560611991213));
#725=CARTESIAN_POINT('',(-0.01535,-0.0117227042059675,-0.0117230809941063));
#726=CARTESIAN_POINT('',(-0.01535,-0.010456892786602,-0.0128673181962774));
#727=CARTESIAN_POINT('',(-0.01535,-0.00906170163893323,-0.0138823564817477));
#728=CARTESIAN_POINT('',(-0.01535,-0.00763422916880964,-0.0147169101407438));
#729=CARTESIAN_POINT('',(-0.01535,-0.00608118892227128,-0.0154208793740091));
#730=CARTESIAN_POINT('',(-0.01535,-0.00459281980159919,-0.0159275506587189));
#731=CARTESIAN_POINT('',(-0.01535,-0.00298867352811108,-0.0163031476478662));
#732=CARTESIAN_POINT('',(-0.01535,-0.00152141719048247,-0.0165020818335822));
#733=CARTESIAN_POINT('',(-0.01535,2.63790244964278E-7,-0.0165739347667353));
#734=CARTESIAN_POINT('',(-0.01535,0.00152036202950261,-0.0165021790994768));
#735=CARTESIAN_POINT('',(-0.01535,0.00298918904100924,-0.0163030505264871));
#736=CARTESIAN_POINT('',(-0.01535,0.00459181291098639,-0.0159278418783405));
#737=CARTESIAN_POINT('',(-0.01535,0.00608167427732845,-0.0154206856829961));
#738=CARTESIAN_POINT('',(-0.01535,0.00763329463919375,-0.0147173936851742));
#739=CARTESIAN_POINT('',(-0.01535,0.00906214322971477,-0.0138820667002472));
#740=CARTESIAN_POINT('',(-0.01535,0.0104560609530918,-0.012867993777849));
#741=CARTESIAN_POINT('',(-0.01535,0.0117230810565647,-0.0117227041926306));
#742=CARTESIAN_POINT('',(-0.01535,0.0128673181924736,-0.0104568928234526));
#743=CARTESIAN_POINT('',(-0.01535,0.0138823564344925,-0.00906170150487174));
#744=CARTESIAN_POINT('',(-0.01535,0.0147169103335684,-0.00763422966820506));
#745=CARTESIAN_POINT('',(-0.01535,0.0154208786499353,-0.00608118705881249));
#746=CARTESIAN_POINT('',(-0.01535,0.0159275533621895,-0.00459282675603901));
#747=CARTESIAN_POINT('',(-0.01535,0.0163031375580443,-0.00298864757386004));
#748=CARTESIAN_POINT('',(-0.01535,0.0165021194893992,-0.00152151405304685));
#749=CARTESIAN_POINT('',(-0.01535,0.01655,-0.000506228531119));
#750=CARTESIAN_POINT('',(-0.01535,0.01655,0.));
#751=CARTESIAN_POINT('',(-0.01535,0.,0.0115));
#752=MECHANICAL_DESIGN_GEOMETRIC_PRESENTATION_REPRESENTATION('',(#356),
#753);
#753=(
GEOMETRIC_REPRESENTATION_CONTEXT(3)
GLOBAL_UNCERTAINTY_ASSIGNED_CONTEXT((#754))
GLOBAL_UNIT_ASSIGNED_CONTEXT((#757,#756,#755))
REPRESENTATION_CONTEXT('CSF-14-2A-R FLEXSPLINE-1-solid1',
'TOP_LEVEL_ASSEMBLY_PART')
);
#754=UNCERTAINTY_MEASURE_WITH_UNIT(LENGTH_MEASURE(2.E-5),#757,
'DISTANCE_ACCURACY_VALUE','Maximum Tolerance applied to model');
#755=(
NAMED_UNIT(*)
SI_UNIT($,.STERADIAN.)
SOLID_ANGLE_UNIT()
);
#756=(
NAMED_UNIT(*)
PLANE_ANGLE_UNIT()
SI_UNIT($,.RADIAN.)
);
#757=(
LENGTH_UNIT()
NAMED_UNIT(*)
SI_UNIT($,.METRE.)
);
#758=PRODUCT_DEFINITION_SHAPE('','',#759);
#759=PRODUCT_DEFINITION('','',#761,#760);
#760=PRODUCT_DEFINITION_CONTEXT('',#767,'design');
#761=PRODUCT_DEFINITION_FORMATION_WITH_SPECIFIED_SOURCE('','',#763,
 .NOT_KNOWN.);
#762=PRODUCT_RELATED_PRODUCT_CATEGORY('','',(#763));
#763=PRODUCT('CSF-14-2A-R FLEXSPLINE-1-solid1',
'CSF-14-2A-R FLEXSPLINE-1-solid1','CSF-14-2A-R FLEXSPLINE-1-solid1',(#765));
#764=PRODUCT_CATEGORY('','');
#765=PRODUCT_CONTEXT('',#767,'mechanical');
#766=APPLICATION_PROTOCOL_DEFINITION('international standard',
'automotive_design',2010,#767);
#767=APPLICATION_CONTEXT(
'core data for automotive mechanical design processes');
ENDSEC;
END-ISO-10303-21;
