ISO-10303-21;
HEADER;
/* Generated by software containing ST-Developer
 * from STEP Tools, Inc. (www.steptools.com) 
 */
/* OPTION: using custom renumber hook */

FILE_DESCRIPTION(
/* description */ ('STEP AP214',
'CAx-IF Rec.Pracs.---User Defined Attributes---1.5---2016-08-15'),
/* implementation_level */ '2;1');

FILE_NAME(
/* name */ '6a65b5443184da9fa51bbeaf',
/* time_stamp */ '2026-07-26T07:20:36Z',
/* author */ (''),
/* organization */ (''),
/* preprocessor_version */ 'ST-DEVELOPER v20',
/* originating_system */ 'ONSHAPE BY PTC INC, 1.218',
/* authorisation */ '  ');

FILE_SCHEMA (('AUTOMOTIVE_DESIGN {1 0 10303 214 3 1 1}'));
ENDSEC;

DATA;
#10=PROPERTY_DEFINITION_REPRESENTATION(#14,#12);
#11=PROPERTY_DEFINITION_REPRESENTATION(#15,#13);
#12=REPRESENTATION('',(#16),#1287);
#13=REPRESENTATION('',(#17),#1287);
#14=PROPERTY_DEFINITION('pmi validation property','',#1292);
#15=PROPERTY_DEFINITION('pmi validation property','',#1292);
#16=VALUE_REPRESENTATION_ITEM('number of annotations',COUNT_MEASURE(0.));
#17=VALUE_REPRESENTATION_ITEM('number of views',COUNT_MEASURE(0.));
#18=SHAPE_REPRESENTATION_RELATIONSHIP('','',#773,#19);
#19=ADVANCED_BREP_SHAPE_REPRESENTATION('',(#771),#1287);
#20=CYLINDRICAL_SURFACE('',#792,0.0006985);
#21=CYLINDRICAL_SURFACE('',#794,0.0006985);
#22=CYLINDRICAL_SURFACE('',#796,0.0006985);
#23=CYLINDRICAL_SURFACE('',#798,0.0006985);
#24=CYLINDRICAL_SURFACE('',#800,0.0006985);
#25=CYLINDRICAL_SURFACE('',#802,0.0006985);
#26=CYLINDRICAL_SURFACE('',#804,0.0006985);
#27=CYLINDRICAL_SURFACE('',#806,0.0006985);
#28=CYLINDRICAL_SURFACE('',#808,0.00485);
#29=CYLINDRICAL_SURFACE('',#813,0.00485);
#30=CYLINDRICAL_SURFACE('',#816,0.00485);
#31=CYLINDRICAL_SURFACE('',#821,0.00485);
#32=CYLINDRICAL_SURFACE('',#824,0.0012);
#33=CYLINDRICAL_SURFACE('',#827,0.0012);
#34=CYLINDRICAL_SURFACE('',#830,0.0012);
#35=CYLINDRICAL_SURFACE('',#833,0.0012);
#36=CYLINDRICAL_SURFACE('',#847,0.00295);
#37=CYLINDRICAL_SURFACE('',#849,0.00295);
#38=CYLINDRICAL_SURFACE('',#851,0.00295);
#39=CYLINDRICAL_SURFACE('',#853,0.00295);
#40=LINE('',#1092,#100);
#41=LINE('',#1095,#101);
#42=LINE('',#1097,#102);
#43=LINE('',#1101,#103);
#44=LINE('',#1105,#104);
#45=LINE('',#1107,#105);
#46=LINE('',#1109,#106);
#47=LINE('',#1113,#107);
#48=LINE('',#1116,#108);
#49=LINE('',#1121,#109);
#50=LINE('',#1125,#110);
#51=LINE('',#1129,#111);
#52=LINE('',#1160,#112);
#53=LINE('',#1161,#113);
#54=LINE('',#1163,#114);
#55=LINE('',#1165,#115);
#56=LINE('',#1167,#116);
#57=LINE('',#1169,#117);
#58=LINE('',#1171,#118);
#59=LINE('',#1173,#119);
#60=LINE('',#1177,#120);
#61=LINE('',#1179,#121);
#62=LINE('',#1181,#122);
#63=LINE('',#1185,#123);
#64=LINE('',#1187,#124);
#65=LINE('',#1189,#125);
#66=LINE('',#1191,#126);
#67=LINE('',#1193,#127);
#68=LINE('',#1195,#128);
#69=LINE('',#1197,#129);
#70=LINE('',#1201,#130);
#71=LINE('',#1203,#131);
#72=LINE('',#1205,#132);
#73=LINE('',#1209,#133);
#74=LINE('',#1211,#134);
#75=LINE('',#1213,#135);
#76=LINE('',#1217,#136);
#77=LINE('',#1219,#137);
#78=LINE('',#1221,#138);
#79=LINE('',#1225,#139);
#80=LINE('',#1227,#140);
#81=LINE('',#1229,#141);
#82=LINE('',#1233,#142);
#83=LINE('',#1235,#143);
#84=LINE('',#1240,#144);
#85=LINE('',#1244,#145);
#86=LINE('',#1248,#146);
#87=LINE('',#1252,#147);
#88=LINE('',#1254,#148);
#89=LINE('',#1259,#149);
#90=LINE('',#1263,#150);
#91=LINE('',#1267,#151);
#92=LINE('',#1271,#152);
#93=LINE('',#1272,#153);
#94=LINE('',#1274,#154);
#95=LINE('',#1276,#155);
#96=LINE('',#1278,#156);
#97=LINE('',#1280,#157);
#98=LINE('',#1282,#158);
#99=LINE('',#1284,#159);
#100=VECTOR('',#874,1.);
#101=VECTOR('',#875,1.);
#102=VECTOR('',#876,1.);
#103=VECTOR('',#879,1.);
#104=VECTOR('',#882,1.);
#105=VECTOR('',#883,1.);
#106=VECTOR('',#884,1.);
#107=VECTOR('',#887,1.);
#108=VECTOR('',#890,1.);
#109=VECTOR('',#893,1.);
#110=VECTOR('',#896,1.);
#111=VECTOR('',#899,1.);
#112=VECTOR('',#938,1.);
#113=VECTOR('',#939,1.);
#114=VECTOR('',#942,1.);
#115=VECTOR('',#943,1.);
#116=VECTOR('',#946,1.);
#117=VECTOR('',#947,1.);
#118=VECTOR('',#950,1.);
#119=VECTOR('',#951,1.);
#120=VECTOR('',#956,1.);
#121=VECTOR('',#959,1.);
#122=VECTOR('',#960,1.);
#123=VECTOR('',#965,1.);
#124=VECTOR('',#968,1.);
#125=VECTOR('',#969,1.);
#126=VECTOR('',#972,1.);
#127=VECTOR('',#973,1.);
#128=VECTOR('',#976,1.);
#129=VECTOR('',#977,1.);
#130=VECTOR('',#982,1.);
#131=VECTOR('',#985,1.);
#132=VECTOR('',#988,1.);
#133=VECTOR('',#991,1.);
#134=VECTOR('',#994,1.);
#135=VECTOR('',#995,1.);
#136=VECTOR('',#1000,1.);
#137=VECTOR('',#1003,1.);
#138=VECTOR('',#1004,1.);
#139=VECTOR('',#1009,1.);
#140=VECTOR('',#1012,1.);
#141=VECTOR('',#1013,1.);
#142=VECTOR('',#1018,1.);
#143=VECTOR('',#1021,1.);
#144=VECTOR('',#1026,1.);
#145=VECTOR('',#1029,1.);
#146=VECTOR('',#1032,1.);
#147=VECTOR('',#1035,1.);
#148=VECTOR('',#1038,1.);
#149=VECTOR('',#1041,1.);
#150=VECTOR('',#1044,1.);
#151=VECTOR('',#1047,1.);
#152=VECTOR('',#1052,1.);
#153=VECTOR('',#1053,1.);
#154=VECTOR('',#1056,1.);
#155=VECTOR('',#1059,1.);
#156=VECTOR('',#1062,1.);
#157=VECTOR('',#1065,1.);
#158=VECTOR('',#1068,1.);
#159=VECTOR('',#1071,1.);
#160=ORIENTED_EDGE('',*,*,#360,.F.);
#161=ORIENTED_EDGE('',*,*,#361,.F.);
#162=ORIENTED_EDGE('',*,*,#362,.F.);
#163=ORIENTED_EDGE('',*,*,#363,.F.);
#164=ORIENTED_EDGE('',*,*,#364,.F.);
#165=ORIENTED_EDGE('',*,*,#365,.F.);
#166=ORIENTED_EDGE('',*,*,#366,.F.);
#167=ORIENTED_EDGE('',*,*,#367,.F.);
#168=ORIENTED_EDGE('',*,*,#368,.F.);
#169=ORIENTED_EDGE('',*,*,#369,.F.);
#170=ORIENTED_EDGE('',*,*,#370,.F.);
#171=ORIENTED_EDGE('',*,*,#371,.F.);
#172=ORIENTED_EDGE('',*,*,#372,.F.);
#173=ORIENTED_EDGE('',*,*,#373,.F.);
#174=ORIENTED_EDGE('',*,*,#374,.F.);
#175=ORIENTED_EDGE('',*,*,#375,.F.);
#176=ORIENTED_EDGE('',*,*,#376,.F.);
#177=ORIENTED_EDGE('',*,*,#377,.F.);
#178=ORIENTED_EDGE('',*,*,#378,.F.);
#179=ORIENTED_EDGE('',*,*,#379,.F.);
#180=ORIENTED_EDGE('',*,*,#380,.F.);
#181=ORIENTED_EDGE('',*,*,#381,.F.);
#182=ORIENTED_EDGE('',*,*,#382,.F.);
#183=ORIENTED_EDGE('',*,*,#383,.F.);
#184=ORIENTED_EDGE('',*,*,#384,.F.);
#185=ORIENTED_EDGE('',*,*,#385,.F.);
#186=ORIENTED_EDGE('',*,*,#386,.F.);
#187=ORIENTED_EDGE('',*,*,#387,.F.);
#188=ORIENTED_EDGE('',*,*,#360,.T.);
#189=ORIENTED_EDGE('',*,*,#388,.F.);
#190=ORIENTED_EDGE('',*,*,#361,.T.);
#191=ORIENTED_EDGE('',*,*,#389,.F.);
#192=ORIENTED_EDGE('',*,*,#362,.T.);
#193=ORIENTED_EDGE('',*,*,#390,.F.);
#194=ORIENTED_EDGE('',*,*,#363,.T.);
#195=ORIENTED_EDGE('',*,*,#391,.F.);
#196=ORIENTED_EDGE('',*,*,#364,.T.);
#197=ORIENTED_EDGE('',*,*,#392,.F.);
#198=ORIENTED_EDGE('',*,*,#365,.T.);
#199=ORIENTED_EDGE('',*,*,#393,.F.);
#200=ORIENTED_EDGE('',*,*,#366,.T.);
#201=ORIENTED_EDGE('',*,*,#394,.F.);
#202=ORIENTED_EDGE('',*,*,#367,.T.);
#203=ORIENTED_EDGE('',*,*,#395,.F.);
#204=ORIENTED_EDGE('',*,*,#396,.T.);
#205=ORIENTED_EDGE('',*,*,#397,.T.);
#206=ORIENTED_EDGE('',*,*,#379,.T.);
#207=ORIENTED_EDGE('',*,*,#398,.T.);
#208=ORIENTED_EDGE('',*,*,#397,.F.);
#209=ORIENTED_EDGE('',*,*,#399,.F.);
#210=ORIENTED_EDGE('',*,*,#400,.F.);
#211=ORIENTED_EDGE('',*,*,#368,.T.);
#212=ORIENTED_EDGE('',*,*,#400,.T.);
#213=ORIENTED_EDGE('',*,*,#401,.F.);
#214=ORIENTED_EDGE('',*,*,#402,.F.);
#215=ORIENTED_EDGE('',*,*,#369,.T.);
#216=ORIENTED_EDGE('',*,*,#402,.T.);
#217=ORIENTED_EDGE('',*,*,#403,.F.);
#218=ORIENTED_EDGE('',*,*,#404,.F.);
#219=ORIENTED_EDGE('',*,*,#370,.T.);
#220=ORIENTED_EDGE('',*,*,#405,.T.);
#221=ORIENTED_EDGE('',*,*,#406,.T.);
#222=ORIENTED_EDGE('',*,*,#371,.T.);
#223=ORIENTED_EDGE('',*,*,#404,.T.);
#224=ORIENTED_EDGE('',*,*,#406,.F.);
#225=ORIENTED_EDGE('',*,*,#407,.F.);
#226=ORIENTED_EDGE('',*,*,#408,.F.);
#227=ORIENTED_EDGE('',*,*,#372,.T.);
#228=ORIENTED_EDGE('',*,*,#409,.T.);
#229=ORIENTED_EDGE('',*,*,#410,.T.);
#230=ORIENTED_EDGE('',*,*,#373,.T.);
#231=ORIENTED_EDGE('',*,*,#408,.T.);
#232=ORIENTED_EDGE('',*,*,#410,.F.);
#233=ORIENTED_EDGE('',*,*,#411,.F.);
#234=ORIENTED_EDGE('',*,*,#412,.F.);
#235=ORIENTED_EDGE('',*,*,#374,.T.);
#236=ORIENTED_EDGE('',*,*,#412,.T.);
#237=ORIENTED_EDGE('',*,*,#413,.F.);
#238=ORIENTED_EDGE('',*,*,#414,.F.);
#239=ORIENTED_EDGE('',*,*,#375,.T.);
#240=ORIENTED_EDGE('',*,*,#414,.T.);
#241=ORIENTED_EDGE('',*,*,#415,.F.);
#242=ORIENTED_EDGE('',*,*,#416,.F.);
#243=ORIENTED_EDGE('',*,*,#376,.T.);
#244=ORIENTED_EDGE('',*,*,#417,.T.);
#245=ORIENTED_EDGE('',*,*,#418,.T.);
#246=ORIENTED_EDGE('',*,*,#377,.T.);
#247=ORIENTED_EDGE('',*,*,#416,.T.);
#248=ORIENTED_EDGE('',*,*,#418,.F.);
#249=ORIENTED_EDGE('',*,*,#419,.F.);
#250=ORIENTED_EDGE('',*,*,#398,.F.);
#251=ORIENTED_EDGE('',*,*,#378,.T.);
#252=ORIENTED_EDGE('',*,*,#387,.T.);
#253=ORIENTED_EDGE('',*,*,#420,.T.);
#254=ORIENTED_EDGE('',*,*,#421,.T.);
#255=ORIENTED_EDGE('',*,*,#422,.T.);
#256=ORIENTED_EDGE('',*,*,#380,.T.);
#257=ORIENTED_EDGE('',*,*,#422,.F.);
#258=ORIENTED_EDGE('',*,*,#423,.T.);
#259=ORIENTED_EDGE('',*,*,#424,.T.);
#260=ORIENTED_EDGE('',*,*,#381,.T.);
#261=ORIENTED_EDGE('',*,*,#424,.F.);
#262=ORIENTED_EDGE('',*,*,#425,.T.);
#263=ORIENTED_EDGE('',*,*,#426,.T.);
#264=ORIENTED_EDGE('',*,*,#382,.T.);
#265=ORIENTED_EDGE('',*,*,#426,.F.);
#266=ORIENTED_EDGE('',*,*,#427,.T.);
#267=ORIENTED_EDGE('',*,*,#428,.T.);
#268=ORIENTED_EDGE('',*,*,#383,.T.);
#269=ORIENTED_EDGE('',*,*,#428,.F.);
#270=ORIENTED_EDGE('',*,*,#429,.T.);
#271=ORIENTED_EDGE('',*,*,#430,.T.);
#272=ORIENTED_EDGE('',*,*,#384,.T.);
#273=ORIENTED_EDGE('',*,*,#430,.F.);
#274=ORIENTED_EDGE('',*,*,#431,.T.);
#275=ORIENTED_EDGE('',*,*,#432,.T.);
#276=ORIENTED_EDGE('',*,*,#385,.T.);
#277=ORIENTED_EDGE('',*,*,#432,.F.);
#278=ORIENTED_EDGE('',*,*,#433,.T.);
#279=ORIENTED_EDGE('',*,*,#434,.T.);
#280=ORIENTED_EDGE('',*,*,#386,.T.);
#281=ORIENTED_EDGE('',*,*,#434,.F.);
#282=ORIENTED_EDGE('',*,*,#435,.T.);
#283=ORIENTED_EDGE('',*,*,#420,.F.);
#284=ORIENTED_EDGE('',*,*,#395,.T.);
#285=ORIENTED_EDGE('',*,*,#394,.T.);
#286=ORIENTED_EDGE('',*,*,#393,.T.);
#287=ORIENTED_EDGE('',*,*,#392,.T.);
#288=ORIENTED_EDGE('',*,*,#391,.T.);
#289=ORIENTED_EDGE('',*,*,#390,.T.);
#290=ORIENTED_EDGE('',*,*,#389,.T.);
#291=ORIENTED_EDGE('',*,*,#388,.T.);
#292=ORIENTED_EDGE('',*,*,#401,.T.);
#293=ORIENTED_EDGE('',*,*,#399,.T.);
#294=ORIENTED_EDGE('',*,*,#396,.F.);
#295=ORIENTED_EDGE('',*,*,#419,.T.);
#296=ORIENTED_EDGE('',*,*,#417,.F.);
#297=ORIENTED_EDGE('',*,*,#415,.T.);
#298=ORIENTED_EDGE('',*,*,#413,.T.);
#299=ORIENTED_EDGE('',*,*,#411,.T.);
#300=ORIENTED_EDGE('',*,*,#409,.F.);
#301=ORIENTED_EDGE('',*,*,#407,.T.);
#302=ORIENTED_EDGE('',*,*,#405,.F.);
#303=ORIENTED_EDGE('',*,*,#403,.T.);
#304=ORIENTED_EDGE('',*,*,#436,.T.);
#305=ORIENTED_EDGE('',*,*,#437,.T.);
#306=ORIENTED_EDGE('',*,*,#438,.T.);
#307=ORIENTED_EDGE('',*,*,#439,.T.);
#308=ORIENTED_EDGE('',*,*,#440,.T.);
#309=ORIENTED_EDGE('',*,*,#441,.T.);
#310=ORIENTED_EDGE('',*,*,#442,.T.);
#311=ORIENTED_EDGE('',*,*,#443,.T.);
#312=ORIENTED_EDGE('',*,*,#444,.T.);
#313=ORIENTED_EDGE('',*,*,#445,.T.);
#314=ORIENTED_EDGE('',*,*,#446,.T.);
#315=ORIENTED_EDGE('',*,*,#447,.T.);
#316=ORIENTED_EDGE('',*,*,#448,.T.);
#317=ORIENTED_EDGE('',*,*,#449,.T.);
#318=ORIENTED_EDGE('',*,*,#450,.T.);
#319=ORIENTED_EDGE('',*,*,#451,.T.);
#320=ORIENTED_EDGE('',*,*,#427,.F.);
#321=ORIENTED_EDGE('',*,*,#425,.F.);
#322=ORIENTED_EDGE('',*,*,#423,.F.);
#323=ORIENTED_EDGE('',*,*,#421,.F.);
#324=ORIENTED_EDGE('',*,*,#435,.F.);
#325=ORIENTED_EDGE('',*,*,#433,.F.);
#326=ORIENTED_EDGE('',*,*,#431,.F.);
#327=ORIENTED_EDGE('',*,*,#429,.F.);
#328=ORIENTED_EDGE('',*,*,#437,.F.);
#329=ORIENTED_EDGE('',*,*,#452,.T.);
#330=ORIENTED_EDGE('',*,*,#444,.F.);
#331=ORIENTED_EDGE('',*,*,#453,.T.);
#332=ORIENTED_EDGE('',*,*,#436,.F.);
#333=ORIENTED_EDGE('',*,*,#454,.T.);
#334=ORIENTED_EDGE('',*,*,#445,.F.);
#335=ORIENTED_EDGE('',*,*,#452,.F.);
#336=ORIENTED_EDGE('',*,*,#443,.F.);
#337=ORIENTED_EDGE('',*,*,#455,.T.);
#338=ORIENTED_EDGE('',*,*,#446,.F.);
#339=ORIENTED_EDGE('',*,*,#454,.F.);
#340=ORIENTED_EDGE('',*,*,#442,.F.);
#341=ORIENTED_EDGE('',*,*,#456,.T.);
#342=ORIENTED_EDGE('',*,*,#447,.F.);
#343=ORIENTED_EDGE('',*,*,#455,.F.);
#344=ORIENTED_EDGE('',*,*,#441,.F.);
#345=ORIENTED_EDGE('',*,*,#457,.T.);
#346=ORIENTED_EDGE('',*,*,#448,.F.);
#347=ORIENTED_EDGE('',*,*,#456,.F.);
#348=ORIENTED_EDGE('',*,*,#440,.F.);
#349=ORIENTED_EDGE('',*,*,#458,.T.);
#350=ORIENTED_EDGE('',*,*,#449,.F.);
#351=ORIENTED_EDGE('',*,*,#457,.F.);
#352=ORIENTED_EDGE('',*,*,#439,.F.);
#353=ORIENTED_EDGE('',*,*,#459,.T.);
#354=ORIENTED_EDGE('',*,*,#450,.F.);
#355=ORIENTED_EDGE('',*,*,#458,.F.);
#356=ORIENTED_EDGE('',*,*,#438,.F.);
#357=ORIENTED_EDGE('',*,*,#453,.F.);
#358=ORIENTED_EDGE('',*,*,#451,.F.);
#359=ORIENTED_EDGE('',*,*,#459,.F.);
#360=EDGE_CURVE('',#460,#460,#532,.F.);
#361=EDGE_CURVE('',#461,#461,#533,.F.);
#362=EDGE_CURVE('',#462,#462,#534,.F.);
#363=EDGE_CURVE('',#463,#463,#535,.F.);
#364=EDGE_CURVE('',#464,#464,#536,.T.);
#365=EDGE_CURVE('',#465,#465,#537,.T.);
#366=EDGE_CURVE('',#466,#466,#538,.T.);
#367=EDGE_CURVE('',#467,#467,#539,.T.);
#368=EDGE_CURVE('',#468,#469,#40,.T.);
#369=EDGE_CURVE('',#470,#468,#41,.T.);
#370=EDGE_CURVE('',#471,#470,#42,.F.);
#371=EDGE_CURVE('',#472,#471,#540,.F.);
#372=EDGE_CURVE('',#473,#472,#43,.F.);
#373=EDGE_CURVE('',#474,#473,#541,.F.);
#374=EDGE_CURVE('',#475,#474,#44,.F.);
#375=EDGE_CURVE('',#476,#475,#45,.F.);
#376=EDGE_CURVE('',#477,#476,#46,.T.);
#377=EDGE_CURVE('',#478,#477,#542,.F.);
#378=EDGE_CURVE('',#479,#478,#47,.T.);
#379=EDGE_CURVE('',#469,#479,#543,.F.);
#380=EDGE_CURVE('',#480,#481,#48,.F.);
#381=EDGE_CURVE('',#482,#480,#544,.T.);
#382=EDGE_CURVE('',#483,#482,#49,.T.);
#383=EDGE_CURVE('',#484,#483,#545,.T.);
#384=EDGE_CURVE('',#485,#484,#50,.T.);
#385=EDGE_CURVE('',#486,#485,#546,.T.);
#386=EDGE_CURVE('',#487,#486,#51,.F.);
#387=EDGE_CURVE('',#481,#487,#547,.T.);
#388=EDGE_CURVE('',#488,#488,#548,.F.);
#389=EDGE_CURVE('',#489,#489,#549,.F.);
#390=EDGE_CURVE('',#490,#490,#550,.F.);
#391=EDGE_CURVE('',#491,#491,#551,.F.);
#392=EDGE_CURVE('',#492,#492,#552,.T.);
#393=EDGE_CURVE('',#493,#493,#553,.T.);
#394=EDGE_CURVE('',#494,#494,#554,.T.);
#395=EDGE_CURVE('',#495,#495,#555,.T.);
#396=EDGE_CURVE('',#496,#497,#556,.T.);
#397=EDGE_CURVE('',#497,#469,#52,.T.);
#398=EDGE_CURVE('',#479,#496,#53,.F.);
#399=EDGE_CURVE('',#498,#497,#54,.F.);
#400=EDGE_CURVE('',#468,#498,#55,.T.);
#401=EDGE_CURVE('',#499,#498,#56,.T.);
#402=EDGE_CURVE('',#470,#499,#57,.T.);
#403=EDGE_CURVE('',#500,#499,#58,.F.);
#404=EDGE_CURVE('',#471,#500,#59,.T.);
#405=EDGE_CURVE('',#500,#501,#557,.T.);
#406=EDGE_CURVE('',#501,#472,#60,.T.);
#407=EDGE_CURVE('',#502,#501,#61,.F.);
#408=EDGE_CURVE('',#473,#502,#62,.F.);
#409=EDGE_CURVE('',#502,#503,#558,.T.);
#410=EDGE_CURVE('',#503,#474,#63,.T.);
#411=EDGE_CURVE('',#504,#503,#64,.F.);
#412=EDGE_CURVE('',#475,#504,#65,.T.);
#413=EDGE_CURVE('',#505,#504,#66,.F.);
#414=EDGE_CURVE('',#476,#505,#67,.F.);
#415=EDGE_CURVE('',#506,#505,#68,.F.);
#416=EDGE_CURVE('',#477,#506,#69,.T.);
#417=EDGE_CURVE('',#506,#507,#559,.T.);
#418=EDGE_CURVE('',#507,#478,#70,.T.);
#419=EDGE_CURVE('',#496,#507,#71,.T.);
#420=EDGE_CURVE('',#487,#508,#72,.T.);
#421=EDGE_CURVE('',#508,#509,#560,.F.);
#422=EDGE_CURVE('',#509,#481,#73,.F.);
#423=EDGE_CURVE('',#509,#510,#74,.T.);
#424=EDGE_CURVE('',#510,#480,#75,.F.);
#425=EDGE_CURVE('',#510,#511,#561,.F.);
#426=EDGE_CURVE('',#511,#482,#76,.F.);
#427=EDGE_CURVE('',#511,#512,#77,.F.);
#428=EDGE_CURVE('',#512,#483,#78,.T.);
#429=EDGE_CURVE('',#512,#513,#562,.F.);
#430=EDGE_CURVE('',#513,#484,#79,.F.);
#431=EDGE_CURVE('',#513,#514,#80,.F.);
#432=EDGE_CURVE('',#514,#485,#81,.T.);
#433=EDGE_CURVE('',#514,#515,#563,.F.);
#434=EDGE_CURVE('',#515,#486,#82,.F.);
#435=EDGE_CURVE('',#515,#508,#83,.T.);
#436=EDGE_CURVE('',#516,#517,#564,.F.);
#437=EDGE_CURVE('',#517,#518,#84,.T.);
#438=EDGE_CURVE('',#518,#519,#565,.F.);
#439=EDGE_CURVE('',#519,#520,#85,.F.);
#440=EDGE_CURVE('',#520,#521,#566,.F.);
#441=EDGE_CURVE('',#521,#522,#86,.F.);
#442=EDGE_CURVE('',#522,#523,#567,.F.);
#443=EDGE_CURVE('',#523,#516,#87,.T.);
#444=EDGE_CURVE('',#524,#525,#88,.F.);
#445=EDGE_CURVE('',#525,#526,#568,.T.);
#446=EDGE_CURVE('',#526,#527,#89,.F.);
#447=EDGE_CURVE('',#527,#528,#569,.T.);
#448=EDGE_CURVE('',#528,#529,#90,.T.);
#449=EDGE_CURVE('',#529,#530,#570,.T.);
#450=EDGE_CURVE('',#530,#531,#91,.T.);
#451=EDGE_CURVE('',#531,#524,#571,.T.);
#452=EDGE_CURVE('',#517,#525,#92,.F.);
#453=EDGE_CURVE('',#524,#518,#93,.T.);
#454=EDGE_CURVE('',#516,#526,#94,.T.);
#455=EDGE_CURVE('',#523,#527,#95,.F.);
#456=EDGE_CURVE('',#522,#528,#96,.T.);
#457=EDGE_CURVE('',#521,#529,#97,.F.);
#458=EDGE_CURVE('',#520,#530,#98,.T.);
#459=EDGE_CURVE('',#519,#531,#99,.F.);
#460=VERTEX_POINT('',#1077);
#461=VERTEX_POINT('',#1079);
#462=VERTEX_POINT('',#1081);
#463=VERTEX_POINT('',#1083);
#464=VERTEX_POINT('',#1085);
#465=VERTEX_POINT('',#1087);
#466=VERTEX_POINT('',#1089);
#467=VERTEX_POINT('',#1091);
#468=VERTEX_POINT('',#1093);
#469=VERTEX_POINT('',#1094);
#470=VERTEX_POINT('',#1096);
#471=VERTEX_POINT('',#1098);
#472=VERTEX_POINT('',#1100);
#473=VERTEX_POINT('',#1102);
#474=VERTEX_POINT('',#1104);
#475=VERTEX_POINT('',#1106);
#476=VERTEX_POINT('',#1108);
#477=VERTEX_POINT('',#1110);
#478=VERTEX_POINT('',#1112);
#479=VERTEX_POINT('',#1114);
#480=VERTEX_POINT('',#1117);
#481=VERTEX_POINT('',#1118);
#482=VERTEX_POINT('',#1120);
#483=VERTEX_POINT('',#1122);
#484=VERTEX_POINT('',#1124);
#485=VERTEX_POINT('',#1126);
#486=VERTEX_POINT('',#1128);
#487=VERTEX_POINT('',#1130);
#488=VERTEX_POINT('',#1134);
#489=VERTEX_POINT('',#1137);
#490=VERTEX_POINT('',#1140);
#491=VERTEX_POINT('',#1143);
#492=VERTEX_POINT('',#1146);
#493=VERTEX_POINT('',#1149);
#494=VERTEX_POINT('',#1152);
#495=VERTEX_POINT('',#1155);
#496=VERTEX_POINT('',#1158);
#497=VERTEX_POINT('',#1159);
#498=VERTEX_POINT('',#1164);
#499=VERTEX_POINT('',#1168);
#500=VERTEX_POINT('',#1172);
#501=VERTEX_POINT('',#1176);
#502=VERTEX_POINT('',#1180);
#503=VERTEX_POINT('',#1184);
#504=VERTEX_POINT('',#1188);
#505=VERTEX_POINT('',#1192);
#506=VERTEX_POINT('',#1196);
#507=VERTEX_POINT('',#1200);
#508=VERTEX_POINT('',#1206);
#509=VERTEX_POINT('',#1208);
#510=VERTEX_POINT('',#1212);
#511=VERTEX_POINT('',#1216);
#512=VERTEX_POINT('',#1220);
#513=VERTEX_POINT('',#1224);
#514=VERTEX_POINT('',#1228);
#515=VERTEX_POINT('',#1232);
#516=VERTEX_POINT('',#1238);
#517=VERTEX_POINT('',#1239);
#518=VERTEX_POINT('',#1241);
#519=VERTEX_POINT('',#1243);
#520=VERTEX_POINT('',#1245);
#521=VERTEX_POINT('',#1247);
#522=VERTEX_POINT('',#1249);
#523=VERTEX_POINT('',#1251);
#524=VERTEX_POINT('',#1255);
#525=VERTEX_POINT('',#1256);
#526=VERTEX_POINT('',#1258);
#527=VERTEX_POINT('',#1260);
#528=VERTEX_POINT('',#1262);
#529=VERTEX_POINT('',#1264);
#530=VERTEX_POINT('',#1266);
#531=VERTEX_POINT('',#1268);
#532=CIRCLE('',#776,0.0006985);
#533=CIRCLE('',#777,0.0006985);
#534=CIRCLE('',#778,0.0006985);
#535=CIRCLE('',#779,0.0006985);
#536=CIRCLE('',#780,0.0006985);
#537=CIRCLE('',#781,0.0006985);
#538=CIRCLE('',#782,0.0006985);
#539=CIRCLE('',#783,0.0006985);
#540=CIRCLE('',#784,0.00485);
#541=CIRCLE('',#785,0.00485);
#542=CIRCLE('',#786,0.00485);
#543=CIRCLE('',#787,0.00485);
#544=CIRCLE('',#788,0.0012);
#545=CIRCLE('',#789,0.0012);
#546=CIRCLE('',#790,0.0012);
#547=CIRCLE('',#791,0.0012);
#548=CIRCLE('',#793,0.0006985);
#549=CIRCLE('',#795,0.0006985);
#550=CIRCLE('',#797,0.0006985);
#551=CIRCLE('',#799,0.0006985);
#552=CIRCLE('',#801,0.0006985);
#553=CIRCLE('',#803,0.0006985);
#554=CIRCLE('',#805,0.0006985);
#555=CIRCLE('',#807,0.0006985);
#556=CIRCLE('',#809,0.00485);
#557=CIRCLE('',#814,0.00485);
#558=CIRCLE('',#817,0.00485);
#559=CIRCLE('',#822,0.00485);
#560=CIRCLE('',#825,0.0012);
#561=CIRCLE('',#828,0.0012);
#562=CIRCLE('',#831,0.0012);
#563=CIRCLE('',#834,0.0012);
#564=CIRCLE('',#837,0.00295);
#565=CIRCLE('',#838,0.00295);
#566=CIRCLE('',#839,0.00295);
#567=CIRCLE('',#840,0.00295);
#568=CIRCLE('',#842,0.00295);
#569=CIRCLE('',#843,0.00295);
#570=CIRCLE('',#844,0.00295);
#571=CIRCLE('',#845,0.00295);
#572=EDGE_LOOP('',(#160));
#573=EDGE_LOOP('',(#161));
#574=EDGE_LOOP('',(#162));
#575=EDGE_LOOP('',(#163));
#576=EDGE_LOOP('',(#164));
#577=EDGE_LOOP('',(#165));
#578=EDGE_LOOP('',(#166));
#579=EDGE_LOOP('',(#167));
#580=EDGE_LOOP('',(#168,#169,#170,#171,#172,#173,#174,#175,#176,#177,#178,
#179));
#581=EDGE_LOOP('',(#180,#181,#182,#183,#184,#185,#186,#187));
#582=EDGE_LOOP('',(#188));
#583=EDGE_LOOP('',(#189));
#584=EDGE_LOOP('',(#190));
#585=EDGE_LOOP('',(#191));
#586=EDGE_LOOP('',(#192));
#587=EDGE_LOOP('',(#193));
#588=EDGE_LOOP('',(#194));
#589=EDGE_LOOP('',(#195));
#590=EDGE_LOOP('',(#196));
#591=EDGE_LOOP('',(#197));
#592=EDGE_LOOP('',(#198));
#593=EDGE_LOOP('',(#199));
#594=EDGE_LOOP('',(#200));
#595=EDGE_LOOP('',(#201));
#596=EDGE_LOOP('',(#202));
#597=EDGE_LOOP('',(#203));
#598=EDGE_LOOP('',(#204,#205,#206,#207));
#599=EDGE_LOOP('',(#208,#209,#210,#211));
#600=EDGE_LOOP('',(#212,#213,#214,#215));
#601=EDGE_LOOP('',(#216,#217,#218,#219));
#602=EDGE_LOOP('',(#220,#221,#222,#223));
#603=EDGE_LOOP('',(#224,#225,#226,#227));
#604=EDGE_LOOP('',(#228,#229,#230,#231));
#605=EDGE_LOOP('',(#232,#233,#234,#235));
#606=EDGE_LOOP('',(#236,#237,#238,#239));
#607=EDGE_LOOP('',(#240,#241,#242,#243));
#608=EDGE_LOOP('',(#244,#245,#246,#247));
#609=EDGE_LOOP('',(#248,#249,#250,#251));
#610=EDGE_LOOP('',(#252,#253,#254,#255));
#611=EDGE_LOOP('',(#256,#257,#258,#259));
#612=EDGE_LOOP('',(#260,#261,#262,#263));
#613=EDGE_LOOP('',(#264,#265,#266,#267));
#614=EDGE_LOOP('',(#268,#269,#270,#271));
#615=EDGE_LOOP('',(#272,#273,#274,#275));
#616=EDGE_LOOP('',(#276,#277,#278,#279));
#617=EDGE_LOOP('',(#280,#281,#282,#283));
#618=EDGE_LOOP('',(#284));
#619=EDGE_LOOP('',(#285));
#620=EDGE_LOOP('',(#286));
#621=EDGE_LOOP('',(#287));
#622=EDGE_LOOP('',(#288));
#623=EDGE_LOOP('',(#289));
#624=EDGE_LOOP('',(#290));
#625=EDGE_LOOP('',(#291));
#626=EDGE_LOOP('',(#292,#293,#294,#295,#296,#297,#298,#299,#300,#301,#302,
#303));
#627=EDGE_LOOP('',(#304,#305,#306,#307,#308,#309,#310,#311));
#628=EDGE_LOOP('',(#312,#313,#314,#315,#316,#317,#318,#319));
#629=EDGE_LOOP('',(#320,#321,#322,#323,#324,#325,#326,#327));
#630=EDGE_LOOP('',(#328,#329,#330,#331));
#631=EDGE_LOOP('',(#332,#333,#334,#335));
#632=EDGE_LOOP('',(#336,#337,#338,#339));
#633=EDGE_LOOP('',(#340,#341,#342,#343));
#634=EDGE_LOOP('',(#344,#345,#346,#347));
#635=EDGE_LOOP('',(#348,#349,#350,#351));
#636=EDGE_LOOP('',(#352,#353,#354,#355));
#637=EDGE_LOOP('',(#356,#357,#358,#359));
#638=FACE_BOUND('',#572,.T.);
#639=FACE_BOUND('',#573,.T.);
#640=FACE_BOUND('',#574,.T.);
#641=FACE_BOUND('',#575,.T.);
#642=FACE_BOUND('',#576,.T.);
#643=FACE_BOUND('',#577,.T.);
#644=FACE_BOUND('',#578,.T.);
#645=FACE_BOUND('',#579,.T.);
#646=FACE_BOUND('',#580,.T.);
#647=FACE_BOUND('',#581,.T.);
#648=FACE_BOUND('',#582,.T.);
#649=FACE_BOUND('',#583,.T.);
#650=FACE_BOUND('',#584,.T.);
#651=FACE_BOUND('',#585,.T.);
#652=FACE_BOUND('',#586,.T.);
#653=FACE_BOUND('',#587,.T.);
#654=FACE_BOUND('',#588,.T.);
#655=FACE_BOUND('',#589,.T.);
#656=FACE_BOUND('',#590,.T.);
#657=FACE_BOUND('',#591,.T.);
#658=FACE_BOUND('',#592,.T.);
#659=FACE_BOUND('',#593,.T.);
#660=FACE_BOUND('',#594,.T.);
#661=FACE_BOUND('',#595,.T.);
#662=FACE_BOUND('',#596,.T.);
#663=FACE_BOUND('',#597,.T.);
#664=FACE_BOUND('',#598,.T.);
#665=FACE_BOUND('',#599,.T.);
#666=FACE_BOUND('',#600,.T.);
#667=FACE_BOUND('',#601,.T.);
#668=FACE_BOUND('',#602,.T.);
#669=FACE_BOUND('',#603,.T.);
#670=FACE_BOUND('',#604,.T.);
#671=FACE_BOUND('',#605,.T.);
#672=FACE_BOUND('',#606,.T.);
#673=FACE_BOUND('',#607,.T.);
#674=FACE_BOUND('',#608,.T.);
#675=FACE_BOUND('',#609,.T.);
#676=FACE_BOUND('',#610,.T.);
#677=FACE_BOUND('',#611,.T.);
#678=FACE_BOUND('',#612,.T.);
#679=FACE_BOUND('',#613,.T.);
#680=FACE_BOUND('',#614,.T.);
#681=FACE_BOUND('',#615,.T.);
#682=FACE_BOUND('',#616,.T.);
#683=FACE_BOUND('',#617,.T.);
#684=FACE_BOUND('',#618,.T.);
#685=FACE_BOUND('',#619,.T.);
#686=FACE_BOUND('',#620,.T.);
#687=FACE_BOUND('',#621,.T.);
#688=FACE_BOUND('',#622,.T.);
#689=FACE_BOUND('',#623,.T.);
#690=FACE_BOUND('',#624,.T.);
#691=FACE_BOUND('',#625,.T.);
#692=FACE_BOUND('',#626,.T.);
#693=FACE_BOUND('',#627,.T.);
#694=FACE_BOUND('',#628,.T.);
#695=FACE_BOUND('',#629,.T.);
#696=FACE_BOUND('',#630,.T.);
#697=FACE_BOUND('',#631,.T.);
#698=FACE_BOUND('',#632,.T.);
#699=FACE_BOUND('',#633,.T.);
#700=FACE_BOUND('',#634,.T.);
#701=FACE_BOUND('',#635,.T.);
#702=FACE_BOUND('',#636,.T.);
#703=FACE_BOUND('',#637,.T.);
#704=PLANE('',#775);
#705=PLANE('',#810);
#706=PLANE('',#811);
#707=PLANE('',#812);
#708=PLANE('',#815);
#709=PLANE('',#818);
#710=PLANE('',#819);
#711=PLANE('',#820);
#712=PLANE('',#823);
#713=PLANE('',#826);
#714=PLANE('',#829);
#715=PLANE('',#832);
#716=PLANE('',#835);
#717=PLANE('',#836);
#718=PLANE('',#841);
#719=PLANE('',#846);
#720=PLANE('',#848);
#721=PLANE('',#850);
#722=PLANE('',#852);
#723=ADVANCED_FACE('',(#638,#639,#640,#641,#642,#643,#644,#645,#646,#647),
#704,.F.);
#724=ADVANCED_FACE('',(#648,#649),#20,.F.);
#725=ADVANCED_FACE('',(#650,#651),#21,.F.);
#726=ADVANCED_FACE('',(#652,#653),#22,.F.);
#727=ADVANCED_FACE('',(#654,#655),#23,.F.);
#728=ADVANCED_FACE('',(#656,#657),#24,.F.);
#729=ADVANCED_FACE('',(#658,#659),#25,.F.);
#730=ADVANCED_FACE('',(#660,#661),#26,.F.);
#731=ADVANCED_FACE('',(#662,#663),#27,.F.);
#732=ADVANCED_FACE('',(#664),#28,.T.);
#733=ADVANCED_FACE('',(#665),#705,.F.);
#734=ADVANCED_FACE('',(#666),#706,.F.);
#735=ADVANCED_FACE('',(#667),#707,.F.);
#736=ADVANCED_FACE('',(#668),#29,.T.);
#737=ADVANCED_FACE('',(#669),#708,.F.);
#738=ADVANCED_FACE('',(#670),#30,.T.);
#739=ADVANCED_FACE('',(#671),#709,.F.);
#740=ADVANCED_FACE('',(#672),#710,.F.);
#741=ADVANCED_FACE('',(#673),#711,.F.);
#742=ADVANCED_FACE('',(#674),#31,.T.);
#743=ADVANCED_FACE('',(#675),#712,.F.);
#744=ADVANCED_FACE('',(#676),#32,.T.);
#745=ADVANCED_FACE('',(#677),#713,.T.);
#746=ADVANCED_FACE('',(#678),#33,.T.);
#747=ADVANCED_FACE('',(#679),#714,.T.);
#748=ADVANCED_FACE('',(#680),#34,.T.);
#749=ADVANCED_FACE('',(#681),#715,.T.);
#750=ADVANCED_FACE('',(#682),#35,.T.);
#751=ADVANCED_FACE('',(#683),#716,.T.);
#752=ADVANCED_FACE('',(#684,#685,#686,#687,#688,#689,#690,#691,#692,#693),
#717,.T.);
#753=ADVANCED_FACE('',(#694,#695),#718,.T.);
#754=ADVANCED_FACE('',(#696),#719,.T.);
#755=ADVANCED_FACE('',(#697),#36,.T.);
#756=ADVANCED_FACE('',(#698),#720,.T.);
#757=ADVANCED_FACE('',(#699),#37,.T.);
#758=ADVANCED_FACE('',(#700),#721,.T.);
#759=ADVANCED_FACE('',(#701),#38,.T.);
#760=ADVANCED_FACE('',(#702),#722,.T.);
#761=ADVANCED_FACE('',(#703),#39,.T.);
#762=CLOSED_SHELL('',(#723,#724,#725,#726,#727,#728,#729,#730,#731,#732,
#733,#734,#735,#736,#737,#738,#739,#740,#741,#742,#743,#744,#745,#746,#747,
#748,#749,#750,#751,#752,#753,#754,#755,#756,#757,#758,#759,#760,#761));
#763=STYLED_ITEM('',(#764),#771);
#764=PRESENTATION_STYLE_ASSIGNMENT((#765));
#765=SURFACE_STYLE_USAGE(.BOTH.,#766);
#766=SURFACE_SIDE_STYLE('',(#767));
#767=SURFACE_STYLE_FILL_AREA(#768);
#768=FILL_AREA_STYLE('',(#769));
#769=FILL_AREA_STYLE_COLOUR('',#770);
#770=COLOUR_RGB('',0.745098039215686,0.745098039215686,0.745098039215686);
#771=MANIFOLD_SOLID_BREP('KP0068-01_EndArmTubeFitting',#762);
#772=SHAPE_DEFINITION_REPRESENTATION(#1292,#773);
#773=SHAPE_REPRESENTATION('KP0068-01_EndArmTubeFitting',(#774),#1287);
#774=AXIS2_PLACEMENT_3D('',#1074,#854,#855);
#775=AXIS2_PLACEMENT_3D('',#1075,#856,#857);
#776=AXIS2_PLACEMENT_3D('',#1076,#858,#859);
#777=AXIS2_PLACEMENT_3D('',#1078,#860,#861);
#778=AXIS2_PLACEMENT_3D('',#1080,#862,#863);
#779=AXIS2_PLACEMENT_3D('',#1082,#864,#865);
#780=AXIS2_PLACEMENT_3D('',#1084,#866,#867);
#781=AXIS2_PLACEMENT_3D('',#1086,#868,#869);
#782=AXIS2_PLACEMENT_3D('',#1088,#870,#871);
#783=AXIS2_PLACEMENT_3D('',#1090,#872,#873);
#784=AXIS2_PLACEMENT_3D('',#1099,#877,#878);
#785=AXIS2_PLACEMENT_3D('',#1103,#880,#881);
#786=AXIS2_PLACEMENT_3D('',#1111,#885,#886);
#787=AXIS2_PLACEMENT_3D('',#1115,#888,#889);
#788=AXIS2_PLACEMENT_3D('',#1119,#891,#892);
#789=AXIS2_PLACEMENT_3D('',#1123,#894,#895);
#790=AXIS2_PLACEMENT_3D('',#1127,#897,#898);
#791=AXIS2_PLACEMENT_3D('',#1131,#900,#901);
#792=AXIS2_PLACEMENT_3D('',#1132,#902,#903);
#793=AXIS2_PLACEMENT_3D('',#1133,#904,#905);
#794=AXIS2_PLACEMENT_3D('',#1135,#906,#907);
#795=AXIS2_PLACEMENT_3D('',#1136,#908,#909);
#796=AXIS2_PLACEMENT_3D('',#1138,#910,#911);
#797=AXIS2_PLACEMENT_3D('',#1139,#912,#913);
#798=AXIS2_PLACEMENT_3D('',#1141,#914,#915);
#799=AXIS2_PLACEMENT_3D('',#1142,#916,#917);
#800=AXIS2_PLACEMENT_3D('',#1144,#918,#919);
#801=AXIS2_PLACEMENT_3D('',#1145,#920,#921);
#802=AXIS2_PLACEMENT_3D('',#1147,#922,#923);
#803=AXIS2_PLACEMENT_3D('',#1148,#924,#925);
#804=AXIS2_PLACEMENT_3D('',#1150,#926,#927);
#805=AXIS2_PLACEMENT_3D('',#1151,#928,#929);
#806=AXIS2_PLACEMENT_3D('',#1153,#930,#931);
#807=AXIS2_PLACEMENT_3D('',#1154,#932,#933);
#808=AXIS2_PLACEMENT_3D('',#1156,#934,#935);
#809=AXIS2_PLACEMENT_3D('',#1157,#936,#937);
#810=AXIS2_PLACEMENT_3D('',#1162,#940,#941);
#811=AXIS2_PLACEMENT_3D('',#1166,#944,#945);
#812=AXIS2_PLACEMENT_3D('',#1170,#948,#949);
#813=AXIS2_PLACEMENT_3D('',#1174,#952,#953);
#814=AXIS2_PLACEMENT_3D('',#1175,#954,#955);
#815=AXIS2_PLACEMENT_3D('',#1178,#957,#958);
#816=AXIS2_PLACEMENT_3D('',#1182,#961,#962);
#817=AXIS2_PLACEMENT_3D('',#1183,#963,#964);
#818=AXIS2_PLACEMENT_3D('',#1186,#966,#967);
#819=AXIS2_PLACEMENT_3D('',#1190,#970,#971);
#820=AXIS2_PLACEMENT_3D('',#1194,#974,#975);
#821=AXIS2_PLACEMENT_3D('',#1198,#978,#979);
#822=AXIS2_PLACEMENT_3D('',#1199,#980,#981);
#823=AXIS2_PLACEMENT_3D('',#1202,#983,#984);
#824=AXIS2_PLACEMENT_3D('',#1204,#986,#987);
#825=AXIS2_PLACEMENT_3D('',#1207,#989,#990);
#826=AXIS2_PLACEMENT_3D('',#1210,#992,#993);
#827=AXIS2_PLACEMENT_3D('',#1214,#996,#997);
#828=AXIS2_PLACEMENT_3D('',#1215,#998,#999);
#829=AXIS2_PLACEMENT_3D('',#1218,#1001,#1002);
#830=AXIS2_PLACEMENT_3D('',#1222,#1005,#1006);
#831=AXIS2_PLACEMENT_3D('',#1223,#1007,#1008);
#832=AXIS2_PLACEMENT_3D('',#1226,#1010,#1011);
#833=AXIS2_PLACEMENT_3D('',#1230,#1014,#1015);
#834=AXIS2_PLACEMENT_3D('',#1231,#1016,#1017);
#835=AXIS2_PLACEMENT_3D('',#1234,#1019,#1020);
#836=AXIS2_PLACEMENT_3D('',#1236,#1022,#1023);
#837=AXIS2_PLACEMENT_3D('',#1237,#1024,#1025);
#838=AXIS2_PLACEMENT_3D('',#1242,#1027,#1028);
#839=AXIS2_PLACEMENT_3D('',#1246,#1030,#1031);
#840=AXIS2_PLACEMENT_3D('',#1250,#1033,#1034);
#841=AXIS2_PLACEMENT_3D('',#1253,#1036,#1037);
#842=AXIS2_PLACEMENT_3D('',#1257,#1039,#1040);
#843=AXIS2_PLACEMENT_3D('',#1261,#1042,#1043);
#844=AXIS2_PLACEMENT_3D('',#1265,#1045,#1046);
#845=AXIS2_PLACEMENT_3D('',#1269,#1048,#1049);
#846=AXIS2_PLACEMENT_3D('',#1270,#1050,#1051);
#847=AXIS2_PLACEMENT_3D('',#1273,#1054,#1055);
#848=AXIS2_PLACEMENT_3D('',#1275,#1057,#1058);
#849=AXIS2_PLACEMENT_3D('',#1277,#1060,#1061);
#850=AXIS2_PLACEMENT_3D('',#1279,#1063,#1064);
#851=AXIS2_PLACEMENT_3D('',#1281,#1066,#1067);
#852=AXIS2_PLACEMENT_3D('',#1283,#1069,#1070);
#853=AXIS2_PLACEMENT_3D('',#1285,#1072,#1073);
#854=DIRECTION('',(0.,0.,1.));
#855=DIRECTION('',(1.,0.,0.));
#856=DIRECTION('',(0.,-1.,0.));
#857=DIRECTION('',(1.,0.,0.));
#858=DIRECTION('',(0.,-1.,0.));
#859=DIRECTION('',(1.,0.,0.));
#860=DIRECTION('',(0.,-1.,0.));
#861=DIRECTION('',(1.,0.,0.));
#862=DIRECTION('',(0.,-1.,0.));
#863=DIRECTION('',(1.,0.,0.));
#864=DIRECTION('',(0.,-1.,0.));
#865=DIRECTION('',(1.,0.,0.));
#866=DIRECTION('',(0.,1.,0.));
#867=DIRECTION('',(-1.,0.,0.));
#868=DIRECTION('',(0.,1.,0.));
#869=DIRECTION('',(-1.,0.,0.));
#870=DIRECTION('',(0.,1.,0.));
#871=DIRECTION('',(-1.,0.,0.));
#872=DIRECTION('',(0.,1.,0.));
#873=DIRECTION('',(-1.,0.,0.));
#874=DIRECTION('',(1.,0.,0.));
#875=DIRECTION('',(0.,0.,1.));
#876=DIRECTION('',(1.,0.,0.));
#877=DIRECTION('',(0.,1.,0.));
#878=DIRECTION('',(-1.,0.,0.));
#879=DIRECTION('',(1.,0.,0.));
#880=DIRECTION('',(0.,1.,0.));
#881=DIRECTION('',(-1.,0.,0.));
#882=DIRECTION('',(1.,0.,0.));
#883=DIRECTION('',(0.,0.,1.));
#884=DIRECTION('',(1.,0.,0.));
#885=DIRECTION('',(0.,1.,0.));
#886=DIRECTION('',(-1.,0.,0.));
#887=DIRECTION('',(1.,0.,0.));
#888=DIRECTION('',(0.,1.,0.));
#889=DIRECTION('',(-1.,0.,0.));
#890=DIRECTION('',(1.,0.,0.));
#891=DIRECTION('',(0.,-1.,0.));
#892=DIRECTION('',(1.,0.,0.));
#893=DIRECTION('',(0.,0.,1.));
#894=DIRECTION('',(0.,-1.,0.));
#895=DIRECTION('',(1.,0.,0.));
#896=DIRECTION('',(1.,0.,0.));
#897=DIRECTION('',(0.,-1.,0.));
#898=DIRECTION('',(1.,0.,0.));
#899=DIRECTION('',(0.,0.,1.));
#900=DIRECTION('',(0.,-1.,0.));
#901=DIRECTION('',(1.,0.,0.));
#902=DIRECTION('',(0.,-1.,0.));
#903=DIRECTION('',(1.,0.,0.));
#904=DIRECTION('',(0.,-1.,0.));
#905=DIRECTION('',(1.,0.,0.));
#906=DIRECTION('',(0.,-1.,0.));
#907=DIRECTION('',(1.,0.,0.));
#908=DIRECTION('',(0.,-1.,0.));
#909=DIRECTION('',(1.,0.,0.));
#910=DIRECTION('',(0.,-1.,0.));
#911=DIRECTION('',(1.,0.,0.));
#912=DIRECTION('',(0.,-1.,0.));
#913=DIRECTION('',(1.,0.,0.));
#914=DIRECTION('',(0.,-1.,0.));
#915=DIRECTION('',(1.,0.,0.));
#916=DIRECTION('',(0.,-1.,0.));
#917=DIRECTION('',(1.,0.,0.));
#918=DIRECTION('',(0.,1.,0.));
#919=DIRECTION('',(-1.,0.,0.));
#920=DIRECTION('',(0.,1.,0.));
#921=DIRECTION('',(-1.,0.,0.));
#922=DIRECTION('',(0.,1.,0.));
#923=DIRECTION('',(-1.,0.,0.));
#924=DIRECTION('',(0.,1.,0.));
#925=DIRECTION('',(-1.,0.,0.));
#926=DIRECTION('',(0.,1.,0.));
#927=DIRECTION('',(-1.,0.,0.));
#928=DIRECTION('',(0.,1.,0.));
#929=DIRECTION('',(-1.,0.,0.));
#930=DIRECTION('',(0.,1.,0.));
#931=DIRECTION('',(-1.,0.,0.));
#932=DIRECTION('',(0.,1.,0.));
#933=DIRECTION('',(-1.,0.,0.));
#934=DIRECTION('',(0.,1.,0.));
#935=DIRECTION('',(-1.,0.,0.));
#936=DIRECTION('',(0.,1.,0.));
#937=DIRECTION('',(-1.,0.,0.));
#938=DIRECTION('',(0.,1.,0.));
#939=DIRECTION('',(0.,1.,0.));
#940=DIRECTION('',(-8.92431739487383E-13,0.,1.));
#941=DIRECTION('',(-1.,0.,-8.92431739487383E-13));
#942=DIRECTION('',(-1.,0.,-8.92431739487383E-13));
#943=DIRECTION('',(0.,-1.,0.));
#944=DIRECTION('',(-1.,0.,0.));
#945=DIRECTION('',(0.,-1.,0.));
#946=DIRECTION('',(0.,0.,1.));
#947=DIRECTION('',(0.,-1.,0.));
#948=DIRECTION('',(4.93940895812126E-12,0.,-1.));
#949=DIRECTION('',(1.,0.,4.93940895812126E-12));
#950=DIRECTION('',(1.,0.,4.93940895812126E-12));
#951=DIRECTION('',(0.,-1.,0.));
#952=DIRECTION('',(0.,1.,0.));
#953=DIRECTION('',(-1.,0.,0.));
#954=DIRECTION('',(0.,1.,0.));
#955=DIRECTION('',(-1.,0.,0.));
#956=DIRECTION('',(0.,1.,0.));
#957=DIRECTION('',(0.,0.,-1.));
#958=DIRECTION('',(0.,1.,0.));
#959=DIRECTION('',(1.,0.,0.));
#960=DIRECTION('',(0.,1.,0.));
#961=DIRECTION('',(0.,1.,0.));
#962=DIRECTION('',(-1.,0.,0.));
#963=DIRECTION('',(0.,1.,0.));
#964=DIRECTION('',(-1.,0.,0.));
#965=DIRECTION('',(0.,1.,0.));
#966=DIRECTION('',(-4.93940895814125E-12,0.,-1.));
#967=DIRECTION('',(1.,0.,-4.93940895814125E-12));
#968=DIRECTION('',(1.,0.,-4.93940895814125E-12));
#969=DIRECTION('',(0.,-1.,0.));
#970=DIRECTION('',(1.,0.,0.));
#971=DIRECTION('',(0.,1.,0.));
#972=DIRECTION('',(0.,0.,1.));
#973=DIRECTION('',(0.,1.,0.));
#974=DIRECTION('',(8.92431739490995E-13,0.,1.));
#975=DIRECTION('',(-1.,0.,8.92431739490995E-13));
#976=DIRECTION('',(-1.,0.,8.92431739490995E-13));
#977=DIRECTION('',(0.,-1.,0.));
#978=DIRECTION('',(0.,1.,0.));
#979=DIRECTION('',(-1.,0.,0.));
#980=DIRECTION('',(0.,1.,0.));
#981=DIRECTION('',(-1.,0.,0.));
#982=DIRECTION('',(0.,1.,0.));
#983=DIRECTION('',(0.,0.,1.));
#984=DIRECTION('',(0.,-1.,0.));
#985=DIRECTION('',(1.,0.,0.));
#986=DIRECTION('',(0.,-1.,0.));
#987=DIRECTION('',(1.,0.,0.));
#988=DIRECTION('',(0.,-1.,0.));
#989=DIRECTION('',(0.,-1.,0.));
#990=DIRECTION('',(1.,0.,0.));
#991=DIRECTION('',(0.,-1.,0.));
#992=DIRECTION('',(0.,0.,1.));
#993=DIRECTION('',(0.,-1.,0.));
#994=DIRECTION('',(1.,0.,0.));
#995=DIRECTION('',(0.,-1.,0.));
#996=DIRECTION('',(0.,-1.,0.));
#997=DIRECTION('',(1.,0.,0.));
#998=DIRECTION('',(0.,-1.,0.));
#999=DIRECTION('',(1.,0.,0.));
#1000=DIRECTION('',(0.,-1.,0.));
#1001=DIRECTION('',(1.,0.,0.));
#1002=DIRECTION('',(0.,1.,0.));
#1003=DIRECTION('',(0.,0.,1.));
#1004=DIRECTION('',(0.,1.,0.));
#1005=DIRECTION('',(0.,-1.,0.));
#1006=DIRECTION('',(1.,0.,0.));
#1007=DIRECTION('',(0.,-1.,0.));
#1008=DIRECTION('',(1.,0.,0.));
#1009=DIRECTION('',(0.,-1.,0.));
#1010=DIRECTION('',(0.,0.,-1.));
#1011=DIRECTION('',(0.,1.,0.));
#1012=DIRECTION('',(1.,0.,0.));
#1013=DIRECTION('',(0.,1.,0.));
#1014=DIRECTION('',(0.,-1.,0.));
#1015=DIRECTION('',(1.,0.,0.));
#1016=DIRECTION('',(0.,-1.,0.));
#1017=DIRECTION('',(1.,0.,0.));
#1018=DIRECTION('',(0.,-1.,0.));
#1019=DIRECTION('',(-1.,0.,0.));
#1020=DIRECTION('',(0.,-1.,0.));
#1021=DIRECTION('',(0.,0.,1.));
#1022=DIRECTION('',(0.,-1.,0.));
#1023=DIRECTION('',(1.,0.,0.));
#1024=DIRECTION('',(0.,1.,0.));
#1025=DIRECTION('',(-1.,0.,0.));
#1026=DIRECTION('',(0.,0.,1.));
#1027=DIRECTION('',(0.,1.,0.));
#1028=DIRECTION('',(-1.,0.,0.));
#1029=DIRECTION('',(1.,0.,0.));
#1030=DIRECTION('',(0.,1.,0.));
#1031=DIRECTION('',(-1.,0.,0.));
#1032=DIRECTION('',(0.,0.,1.));
#1033=DIRECTION('',(0.,1.,0.));
#1034=DIRECTION('',(-1.,0.,0.));
#1035=DIRECTION('',(1.,0.,0.));
#1036=DIRECTION('',(4.74367449482229E-31,-1.,3.9328107525452E-31));
#1037=DIRECTION('',(1.,4.74367449482229E-31,0.));
#1038=DIRECTION('',(-1.86559740598116E-61,3.9328107525452E-31,1.));
#1039=DIRECTION('',(0.,1.,0.));
#1040=DIRECTION('',(-1.,0.,0.));
#1041=DIRECTION('',(1.,4.74367449482229E-31,0.));
#1042=DIRECTION('',(0.,1.,0.));
#1043=DIRECTION('',(-1.,0.,0.));
#1044=DIRECTION('',(-1.86559740598116E-61,3.9328107525452E-31,1.));
#1045=DIRECTION('',(0.,1.,0.));
#1046=DIRECTION('',(-1.,0.,0.));
#1047=DIRECTION('',(1.,4.74367449482229E-31,0.));
#1048=DIRECTION('',(0.,1.,0.));
#1049=DIRECTION('',(-1.,0.,0.));
#1050=DIRECTION('',(1.,0.,1.19473027974585E-16));
#1051=DIRECTION('',(-1.19473027974585E-16,0.,1.));
#1052=DIRECTION('',(0.,-1.,0.));
#1053=DIRECTION('',(0.,-1.,0.));
#1054=DIRECTION('',(0.,1.,0.));
#1055=DIRECTION('',(-1.,0.,0.));
#1056=DIRECTION('',(0.,1.,0.));
#1057=DIRECTION('',(1.19473027974585E-16,0.,-1.));
#1058=DIRECTION('',(1.,0.,1.19473027974585E-16));
#1059=DIRECTION('',(0.,-1.,0.));
#1060=DIRECTION('',(0.,1.,0.));
#1061=DIRECTION('',(-1.,0.,0.));
#1062=DIRECTION('',(0.,1.,0.));
#1063=DIRECTION('',(-1.,0.,0.));
#1064=DIRECTION('',(0.,-1.,0.));
#1065=DIRECTION('',(0.,-1.,0.));
#1066=DIRECTION('',(0.,1.,0.));
#1067=DIRECTION('',(-1.,0.,0.));
#1068=DIRECTION('',(0.,1.,0.));
#1069=DIRECTION('',(-1.59297370632779E-16,0.,1.));
#1070=DIRECTION('',(-1.,0.,-1.59297370632779E-16));
#1071=DIRECTION('',(0.,-1.,0.));
#1072=DIRECTION('',(0.,1.,0.));
#1073=DIRECTION('',(-1.,0.,0.));
#1074=CARTESIAN_POINT('',(0.,0.,0.));
#1075=CARTESIAN_POINT('',(-0.011,0.,0.00995097208685671));
#1076=CARTESIAN_POINT('',(-0.002999,0.,0.00127597208685671));
#1077=CARTESIAN_POINT('',(-0.0023005,0.,0.00127597208685671));
#1078=CARTESIAN_POINT('',(-0.002999,0.,0.0186542570170603));
#1079=CARTESIAN_POINT('',(-0.0023005,0.,0.0186542570170603));
#1080=CARTESIAN_POINT('',(-0.019001,0.,0.0186542570170603));
#1081=CARTESIAN_POINT('',(-0.0183025,0.,0.0186542570170603));
#1082=CARTESIAN_POINT('',(-0.019001,0.,0.00127597208685671));
#1083=CARTESIAN_POINT('',(-0.0183025,0.,0.00127597208685671));
#1084=CARTESIAN_POINT('',(-0.0079272003673896,0.,0.0148100578521336));
#1085=CARTESIAN_POINT('',(-0.0086257003673896,0.,0.0148100578521336));
#1086=CARTESIAN_POINT('',(-0.0140727996326104,0.,0.00514845618198705));
#1087=CARTESIAN_POINT('',(-0.0147712996326104,0.,0.00514845618198705));
#1088=CARTESIAN_POINT('',(-0.0079272003673896,0.,0.00514845618198705));
#1089=CARTESIAN_POINT('',(-0.0086257003673896,0.,0.00514845618198705));
#1090=CARTESIAN_POINT('',(-0.0140727996326104,0.,0.0148100578521336));
#1091=CARTESIAN_POINT('',(-0.0147712996326104,0.,0.0148100578521336));
#1092=CARTESIAN_POINT('',(-0.011,0.,0.0164792570170571));
#1093=CARTESIAN_POINT('',(-0.0208019999999835,0.,0.0164792570170571));
#1094=CARTESIAN_POINT('',(-0.0172067171349864,0.,0.0164792570170586));
#1095=CARTESIAN_POINT('',(-0.0208019999999835,0.,0.00995097208685671));
#1096=CARTESIAN_POINT('',(-0.0208019999999835,0.,0.00347925701705439));
#1097=CARTESIAN_POINT('',(-0.011,0.,0.00347925701706031));
#1098=CARTESIAN_POINT('',(-0.0172067171349818,0.,0.00347925701706031));
#1099=CARTESIAN_POINT('',(-0.012359068323449,0.,0.00332825701706031));
#1100=CARTESIAN_POINT('',(-0.0123590683234352,0.,0.00817825701706031));
#1101=CARTESIAN_POINT('',(-0.011,0.,0.00817825701706031));
#1102=CARTESIAN_POINT('',(-0.00964093167655018,0.,0.00817825701706031));
#1103=CARTESIAN_POINT('',(-0.00964093167655099,0.,0.00332825701706031));
#1104=CARTESIAN_POINT('',(-0.0047932828650133,0.,0.00347925701705112));
#1105=CARTESIAN_POINT('',(-0.011,0.,0.00347925701704255));
#1106=CARTESIAN_POINT('',(-0.00119800000000198,0.,0.00347925701704255));
#1107=CARTESIAN_POINT('',(-0.00119800000000198,0.,0.00995097208685671));
#1108=CARTESIAN_POINT('',(-0.00119800000000198,0.,0.0164792570170593));
#1109=CARTESIAN_POINT('',(-0.011,0.,0.0164792570170603));
#1110=CARTESIAN_POINT('',(-0.00479328286500362,0.,0.0164792570170603));
#1111=CARTESIAN_POINT('',(-0.00964093167655098,0.,0.0166302570170603));
#1112=CARTESIAN_POINT('',(-0.00964093167655018,0.,0.0117802570170603));
#1113=CARTESIAN_POINT('',(-0.011,0.,0.0117802570170603));
#1114=CARTESIAN_POINT('',(-0.0123590683234352,0.,0.0117802570170603));
#1115=CARTESIAN_POINT('',(-0.012359068323449,0.,0.0166302570170603));
#1116=CARTESIAN_POINT('',(-0.011,0.,0.0211792570170603));
#1117=CARTESIAN_POINT('',(-0.0010000000000291,0.,0.0211792570170603));
#1118=CARTESIAN_POINT('',(-0.0210000000000291,0.,0.0211792570170603));
#1119=CARTESIAN_POINT('',(-0.001,0.,0.0199792570170603));
#1120=CARTESIAN_POINT('',(0.0002,0.,0.0199792570170603));
#1121=CARTESIAN_POINT('',(0.0002,0.,0.00995097208685671));
#1122=CARTESIAN_POINT('',(0.0002,0.,-7.73128433485626E-5));
#1123=CARTESIAN_POINT('',(-0.001,0.,-7.73128433468973E-5));
#1124=CARTESIAN_POINT('',(-0.00100000000002911,0.,-0.0012773128433469));
#1125=CARTESIAN_POINT('',(-0.011,0.,-0.0012773128433469));
#1126=CARTESIAN_POINT('',(-0.0210000000000291,0.,-0.0012773128433469));
#1127=CARTESIAN_POINT('',(-0.021,0.,-7.73128433468992E-5));
#1128=CARTESIAN_POINT('',(-0.0222,0.,-7.73128433485634E-5));
#1129=CARTESIAN_POINT('',(-0.0222,0.,0.00995097208685671));
#1130=CARTESIAN_POINT('',(-0.0222,0.,0.0199792570170862));
#1131=CARTESIAN_POINT('',(-0.021,0.,0.0199792570170603));
#1132=CARTESIAN_POINT('',(-0.002999,0.,0.00127597208685671));
#1133=CARTESIAN_POINT('',(-0.002999,-0.014,0.00127597208685671));
#1134=CARTESIAN_POINT('',(-0.0023005,-0.014,0.00127597208685671));
#1135=CARTESIAN_POINT('',(-0.002999,0.,0.0186542570170603));
#1136=CARTESIAN_POINT('',(-0.002999,-0.014,0.0186542570170603));
#1137=CARTESIAN_POINT('',(-0.0023005,-0.014,0.0186542570170603));
#1138=CARTESIAN_POINT('',(-0.019001,0.,0.0186542570170603));
#1139=CARTESIAN_POINT('',(-0.019001,-0.014,0.0186542570170603));
#1140=CARTESIAN_POINT('',(-0.0183025,-0.014,0.0186542570170603));
#1141=CARTESIAN_POINT('',(-0.019001,0.,0.00127597208685671));
#1142=CARTESIAN_POINT('',(-0.019001,-0.014,0.00127597208685671));
#1143=CARTESIAN_POINT('',(-0.0183025,-0.014,0.00127597208685671));
#1144=CARTESIAN_POINT('',(-0.0079272003673896,-0.014,0.0148100578521336));
#1145=CARTESIAN_POINT('',(-0.0079272003673896,-0.014,0.0148100578521336));
#1146=CARTESIAN_POINT('',(-0.0086257003673896,-0.014,0.0148100578521336));
#1147=CARTESIAN_POINT('',(-0.0140727996326104,-0.014,0.00514845618198705));
#1148=CARTESIAN_POINT('',(-0.0140727996326104,-0.014,0.00514845618198705));
#1149=CARTESIAN_POINT('',(-0.0147712996326104,-0.014,0.00514845618198705));
#1150=CARTESIAN_POINT('',(-0.0079272003673896,-0.014,0.00514845618198705));
#1151=CARTESIAN_POINT('',(-0.0079272003673896,-0.014,0.00514845618198705));
#1152=CARTESIAN_POINT('',(-0.0086257003673896,-0.014,0.00514845618198705));
#1153=CARTESIAN_POINT('',(-0.0140727996326104,-0.014,0.0148100578521336));
#1154=CARTESIAN_POINT('',(-0.0140727996326104,-0.014,0.0148100578521336));
#1155=CARTESIAN_POINT('',(-0.0147712996326104,-0.014,0.0148100578521336));
#1156=CARTESIAN_POINT('',(-0.012359068323449,-0.014,0.0166302570170603));
#1157=CARTESIAN_POINT('',(-0.012359068323449,-0.014,0.0166302570170603));
#1158=CARTESIAN_POINT('',(-0.0123590683234352,-0.014,0.0117802570170603));
#1159=CARTESIAN_POINT('',(-0.0172067171349864,-0.014,0.0164792570170602));
#1160=CARTESIAN_POINT('',(-0.0172067171349864,-0.014,0.01647925701706));
#1161=CARTESIAN_POINT('',(-0.0123590683234215,-0.014,0.0117802570170603));
#1162=CARTESIAN_POINT('',(-0.0208019999999835,-0.014,0.0164792570170571));
#1163=CARTESIAN_POINT('',(-0.0208019999999835,-0.014,0.0164792570170571));
#1164=CARTESIAN_POINT('',(-0.0208019999999835,-0.014,0.0164792570170571));
#1165=CARTESIAN_POINT('',(-0.0208019999999835,-0.014,0.0164792570170571));
#1166=CARTESIAN_POINT('',(-0.0208019999999835,-0.014,0.00347925701704255));
#1167=CARTESIAN_POINT('',(-0.0208019999999835,-0.014,0.00347925701704255));
#1168=CARTESIAN_POINT('',(-0.0208019999999835,-0.014,0.00347925701704255));
#1169=CARTESIAN_POINT('',(-0.0208019999999835,-0.014,0.00347925701704255));
#1170=CARTESIAN_POINT('',(-0.0172067171349772,-0.014,0.00347925701706031));
#1171=CARTESIAN_POINT('',(-0.0172067171349772,-0.014,0.00347925701706031));
#1172=CARTESIAN_POINT('',(-0.0172067171349818,-0.014,0.00347925701706031));
#1173=CARTESIAN_POINT('',(-0.0172067171349772,-0.014,0.00347925701706031));
#1174=CARTESIAN_POINT('',(-0.012359068323449,-0.014,0.00332825701706031));
#1175=CARTESIAN_POINT('',(-0.012359068323449,-0.014,0.00332825701706031));
#1176=CARTESIAN_POINT('',(-0.0123590683234352,-0.014,0.00817825701706031));
#1177=CARTESIAN_POINT('',(-0.0123590683234215,-0.014,0.00817825701706031));
#1178=CARTESIAN_POINT('',(-0.00964093167654937,-0.014,0.00817825701706031));
#1179=CARTESIAN_POINT('',(-0.00964093167654937,-0.014,0.00817825701706031));
#1180=CARTESIAN_POINT('',(-0.00964093167655018,-0.014,0.00817825701706031));
#1181=CARTESIAN_POINT('',(-0.00964093167654937,-0.014,0.00817825701706031));
#1182=CARTESIAN_POINT('',(-0.00964093167655099,-0.014,0.00332825701706031));
#1183=CARTESIAN_POINT('',(-0.00964093167655099,-0.014,0.00332825701706031));
#1184=CARTESIAN_POINT('',(-0.00479328286501358,-0.014,0.00347925701706));
#1185=CARTESIAN_POINT('',(-0.00479328286501357,-0.014,0.00347925701705969));
#1186=CARTESIAN_POINT('',(-0.00119800000000198,-0.014,0.00347925701704255));
#1187=CARTESIAN_POINT('',(-0.00119800000000198,-0.014,0.00347925701704255));
#1188=CARTESIAN_POINT('',(-0.00119800000000198,-0.014,0.00347925701704255));
#1189=CARTESIAN_POINT('',(-0.00119800000000198,-0.014,0.00347925701704255));
#1190=CARTESIAN_POINT('',(-0.00119800000000198,-0.014,0.0164792570170571));
#1191=CARTESIAN_POINT('',(-0.00119800000000198,-0.014,0.0164792570170571));
#1192=CARTESIAN_POINT('',(-0.00119800000000198,-0.014,0.0164792570170571));
#1193=CARTESIAN_POINT('',(-0.00119800000000198,-0.014,0.0164792570170571));
#1194=CARTESIAN_POINT('',(-0.00479328286499367,-0.014,0.0164792570170603));
#1195=CARTESIAN_POINT('',(-0.00479328286499367,-0.014,0.0164792570170603));
#1196=CARTESIAN_POINT('',(-0.00479328286500362,-0.014,0.0164792570170603));
#1197=CARTESIAN_POINT('',(-0.00479328286499367,-0.014,0.0164792570170603));
#1198=CARTESIAN_POINT('',(-0.00964093167655098,-0.014,0.0166302570170603));
#1199=CARTESIAN_POINT('',(-0.00964093167655098,-0.014,0.0166302570170603));
#1200=CARTESIAN_POINT('',(-0.00964093167655018,-0.014,0.0117802570170603));
#1201=CARTESIAN_POINT('',(-0.00964093167654937,-0.014,0.0117802570170603));
#1202=CARTESIAN_POINT('',(-0.0123590683234215,-0.014,0.0117802570170603));
#1203=CARTESIAN_POINT('',(-0.0123590683234215,-0.014,0.0117802570170603));
#1204=CARTESIAN_POINT('',(-0.021,0.,0.0199792570170603));
#1205=CARTESIAN_POINT('',(-0.0222,0.,0.0199792570171121));
#1206=CARTESIAN_POINT('',(-0.0222,-0.006,0.0199792570170862));
#1207=CARTESIAN_POINT('',(-0.021,-0.006,0.0199792570170603));
#1208=CARTESIAN_POINT('',(-0.0210000000000291,-0.006,0.0211792570170603));
#1209=CARTESIAN_POINT('',(-0.0210000000000582,0.,0.0211792570170603));
#1210=CARTESIAN_POINT('',(-0.00100000000005821,0.,0.0211792570170603));
#1211=CARTESIAN_POINT('',(-0.00100000000005821,-0.006,0.0211792570170603));
#1212=CARTESIAN_POINT('',(-0.0010000000000291,-0.006,0.0211792570170603));
#1213=CARTESIAN_POINT('',(-0.00100000000005821,0.,0.0211792570170603));
#1214=CARTESIAN_POINT('',(-0.001,0.,0.0199792570170603));
#1215=CARTESIAN_POINT('',(-0.001,-0.006,0.0199792570170603));
#1216=CARTESIAN_POINT('',(0.0002,-0.006,0.0199792570170603));
#1217=CARTESIAN_POINT('',(0.0002,0.,0.0199792570170603));
#1218=CARTESIAN_POINT('',(0.0002,0.,-7.73128433502279E-5));
#1219=CARTESIAN_POINT('',(0.0002,-0.006,-7.73128433502279E-5));
#1220=CARTESIAN_POINT('',(0.0002,-0.006,-7.73128433485626E-5));
#1221=CARTESIAN_POINT('',(0.0002,0.,-7.73128433502279E-5));
#1222=CARTESIAN_POINT('',(-0.001,0.,-7.73128433468973E-5));
#1223=CARTESIAN_POINT('',(-0.001,-0.006,-7.73128433468973E-5));
#1224=CARTESIAN_POINT('',(-0.00100000000002911,-0.006,-0.0012773128433469));
#1225=CARTESIAN_POINT('',(-0.00100000000005821,0.,-0.0012773128433469));
#1226=CARTESIAN_POINT('',(-0.0210000000000582,0.,-0.0012773128433469));
#1227=CARTESIAN_POINT('',(-0.0210000000000582,-0.006,-0.0012773128433469));
#1228=CARTESIAN_POINT('',(-0.0210000000000291,-0.006,-0.0012773128433469));
#1229=CARTESIAN_POINT('',(-0.0210000000000582,0.,-0.0012773128433469));
#1230=CARTESIAN_POINT('',(-0.021,0.,-7.73128433468992E-5));
#1231=CARTESIAN_POINT('',(-0.021,-0.006,-7.73128433468992E-5));
#1232=CARTESIAN_POINT('',(-0.0222,-0.006,-7.73128433485634E-5));
#1233=CARTESIAN_POINT('',(-0.0222,0.,-7.73128433502276E-5));
#1234=CARTESIAN_POINT('',(-0.0222,0.,0.0199792570171121));
#1235=CARTESIAN_POINT('',(-0.0222,-0.006,0.0199792570171121));
#1236=CARTESIAN_POINT('',(-0.011,-0.014,0.00995097208685671));
#1237=CARTESIAN_POINT('',(-0.0040305,-0.014,0.0029815));
#1238=CARTESIAN_POINT('',(-0.0040305,-0.014,3.15E-5));
#1239=CARTESIAN_POINT('',(-0.0010805,-0.014,0.0029815));
#1240=CARTESIAN_POINT('',(-0.0010805,-0.014,0.00995097208685671));
#1241=CARTESIAN_POINT('',(-0.0010805,-0.014,0.0169205));
#1242=CARTESIAN_POINT('',(-0.0040305,-0.014,0.0169205));
#1243=CARTESIAN_POINT('',(-0.0040305,-0.014,0.0198705));
#1244=CARTESIAN_POINT('',(-0.011,-0.014,0.0198705));
#1245=CARTESIAN_POINT('',(-0.0179695,-0.014,0.0198705));
#1246=CARTESIAN_POINT('',(-0.0179695,-0.014,0.0169205));
#1247=CARTESIAN_POINT('',(-0.0209195,-0.014,0.0169205));
#1248=CARTESIAN_POINT('',(-0.0209195,-0.014,0.00995097208685671));
#1249=CARTESIAN_POINT('',(-0.0209195,-0.014,0.0029815));
#1250=CARTESIAN_POINT('',(-0.0179695,-0.014,0.0029815));
#1251=CARTESIAN_POINT('',(-0.0179695,-0.014,3.15E-5));
#1252=CARTESIAN_POINT('',(-0.011,-0.014,3.15E-5));
#1253=CARTESIAN_POINT('',(-0.011,-0.006,0.00995097208685671));
#1254=CARTESIAN_POINT('',(-0.0010805,-0.006,0.00995097208685671));
#1255=CARTESIAN_POINT('',(-0.0010805,-0.006,0.0169205));
#1256=CARTESIAN_POINT('',(-0.0010805,-0.006,0.0029815));
#1257=CARTESIAN_POINT('',(-0.0040305,-0.006,0.0029815));
#1258=CARTESIAN_POINT('',(-0.0040305,-0.006,3.15000000000009E-5));
#1259=CARTESIAN_POINT('',(-0.011,-0.006,3.1500000000002E-5));
#1260=CARTESIAN_POINT('',(-0.0179695,-0.006,3.15000000000009E-5));
#1261=CARTESIAN_POINT('',(-0.0179695,-0.006,0.0029815));
#1262=CARTESIAN_POINT('',(-0.0209195,-0.006,0.0029815));
#1263=CARTESIAN_POINT('',(-0.0209195,-0.006,0.00995097208685671));
#1264=CARTESIAN_POINT('',(-0.0209195,-0.006,0.0169205));
#1265=CARTESIAN_POINT('',(-0.0179695,-0.006,0.0169205));
#1266=CARTESIAN_POINT('',(-0.0179695,-0.006,0.0198705));
#1267=CARTESIAN_POINT('',(-0.011,-0.006,0.0198705));
#1268=CARTESIAN_POINT('',(-0.0040305,-0.006,0.0198705));
#1269=CARTESIAN_POINT('',(-0.0040305,-0.006,0.0169205));
#1270=CARTESIAN_POINT('',(-0.0010805,-0.014,0.0169205));
#1271=CARTESIAN_POINT('',(-0.0010805,-0.014,0.0029815));
#1272=CARTESIAN_POINT('',(-0.0010805,-0.014,0.0169205));
#1273=CARTESIAN_POINT('',(-0.0040305,-0.014,0.0029815));
#1274=CARTESIAN_POINT('',(-0.0040305,-0.014,3.15E-5));
#1275=CARTESIAN_POINT('',(-0.0040305,-0.014,3.15000000000015E-5));
#1276=CARTESIAN_POINT('',(-0.0179695,-0.014,3.15E-5));
#1277=CARTESIAN_POINT('',(-0.0179695,-0.014,0.0029815));
#1278=CARTESIAN_POINT('',(-0.0209195,-0.014,0.0029815));
#1279=CARTESIAN_POINT('',(-0.0209195,-0.014,0.0029815));
#1280=CARTESIAN_POINT('',(-0.0209195,-0.014,0.0169205));
#1281=CARTESIAN_POINT('',(-0.0179695,-0.014,0.0169205));
#1282=CARTESIAN_POINT('',(-0.0179695,-0.014,0.0198705));
#1283=CARTESIAN_POINT('',(-0.0179695,-0.014,0.0198705));
#1284=CARTESIAN_POINT('',(-0.0040305,-0.014,0.0198705));
#1285=CARTESIAN_POINT('',(-0.0040305,-0.014,0.0169205));
#1286=MECHANICAL_DESIGN_GEOMETRIC_PRESENTATION_REPRESENTATION('',(#763),
#1287);
#1287=(
GEOMETRIC_REPRESENTATION_CONTEXT(3)
GLOBAL_UNCERTAINTY_ASSIGNED_CONTEXT((#1288))
GLOBAL_UNIT_ASSIGNED_CONTEXT((#1291,#1290,#1289))
REPRESENTATION_CONTEXT('KP0068-01_EndArmTubeFitting',
'TOP_LEVEL_ASSEMBLY_PART')
);
#1288=UNCERTAINTY_MEASURE_WITH_UNIT(LENGTH_MEASURE(4.12310792289989E-8),
#1291,'DISTANCE_ACCURACY_VALUE','Maximum Tolerance applied to model');
#1289=(
NAMED_UNIT(*)
SI_UNIT($,.STERADIAN.)
SOLID_ANGLE_UNIT()
);
#1290=(
NAMED_UNIT(*)
PLANE_ANGLE_UNIT()
SI_UNIT($,.RADIAN.)
);
#1291=(
LENGTH_UNIT()
NAMED_UNIT(*)
SI_UNIT($,.METRE.)
);
#1292=PRODUCT_DEFINITION_SHAPE('','',#1293);
#1293=PRODUCT_DEFINITION('','',#1295,#1294);
#1294=PRODUCT_DEFINITION_CONTEXT('',#1301,'design');
#1295=PRODUCT_DEFINITION_FORMATION_WITH_SPECIFIED_SOURCE('','',#1297,
 .NOT_KNOWN.);
#1296=PRODUCT_RELATED_PRODUCT_CATEGORY('','',(#1297));
#1297=PRODUCT('KP0068-01_EndArmTubeFitting',
'KP0068-01_EndArmTubeFitting','KP0068-01_EndArmTubeFitting',(#1299));
#1298=PRODUCT_CATEGORY('','');
#1299=PRODUCT_CONTEXT('',#1301,'mechanical');
#1300=APPLICATION_PROTOCOL_DEFINITION('international standard',
'automotive_design',2010,#1301);
#1301=APPLICATION_CONTEXT(
'core data for automotive mechanical design processes');
ENDSEC;
END-ISO-10303-21;
