ISO-10303-21;
HEADER;
/* Generated by software containing ST-Developer
 * from STEP Tools, Inc. (www.steptools.com) 
 */
/* OPTION: using custom renumber hook */

FILE_DESCRIPTION(
/* description */ ('STEP AP214',
'CAx-IF Rec.Pracs.---User Defined Attributes---1.5---2016-08-15'),
/* implementation_level */ '2;1');

FILE_NAME(
/* name */ '6a65b530d6769bec3d82b0eb',
/* time_stamp */ '2026-07-26T07:20:16Z',
/* author */ (''),
/* organization */ (''),
/* preprocessor_version */ 'ST-DEVELOPER v20',
/* originating_system */ 'ONSHAPE BY PTC INC, 1.218',
/* authorisation */ '  ');

FILE_SCHEMA (('AUTOMOTIVE_DESIGN {1 0 10303 214 3 1 1}'));
ENDSEC;

DATA;
#10=PROPERTY_DEFINITION_REPRESENTATION(#14,#12);
#11=PROPERTY_DEFINITION_REPRESENTATION(#15,#13);
#12=REPRESENTATION('',(#16),#529);
#13=REPRESENTATION('',(#17),#529);
#14=PROPERTY_DEFINITION('pmi validation property','',#534);
#15=PROPERTY_DEFINITION('pmi validation property','',#534);
#16=VALUE_REPRESENTATION_ITEM('number of annotations',COUNT_MEASURE(0.));
#17=VALUE_REPRESENTATION_ITEM('number of views',COUNT_MEASURE(0.));
#18=SHAPE_REPRESENTATION_RELATIONSHIP('','',#207,#19);
#19=ADVANCED_BREP_SHAPE_REPRESENTATION('',(#205),#529);
#20=PLANE('',#214);
#21=PLANE('',#216);
#22=PLANE('',#222);
#23=PLANE('',#224);
#24=PLANE('',#230);
#25=PLANE('',#231);
#26=B_SPLINE_CURVE_WITH_KNOTS('',3,(#302,#303,#304,#305,#306,#307,#308,
#309,#310,#311,#312,#313,#314,#315,#316,#317,#318,#319,#320,#321,#322,#323,
#324,#325,#326,#327,#328,#329,#330,#331,#332,#333,#334,#335,#336,#337,#338,
#339,#340,#341,#342,#343,#344,#345,#346,#347,#348,#349,#350,#351,#352,#353,
#354,#355,#356,#357,#358,#359,#360),.UNSPECIFIED.,.T.,.F.,(1,1,1,1,1,1,
1,1,1,1,1,1,1,1,1,1,1,1,1,1,1,1,1,1,1,1,1,1,1,1,1,1,1,1,1,1,1,1,1,1,1,1,
1,1,1,1,1,1,1,1,1,1,1,1,1,1,1,1,1,1,1,1,1),(-0.0485197368421053,-0.0328947368421053,
-0.0164473684210527,0.,0.01484375,0.0296875,0.0452734375,0.060859375,0.076482421875,
0.09210546875,0.1233552734375,0.154605263671875,0.170230263427734,0.185855263183594,
0.201480263171387,0.21710526315918,0.232730263158569,0.248355263157959,
0.263980263157928,0.279605263157898,0.295230263157896,0.310855263157895,
0.326480263157895,0.342105263157895,0.373355263157895,0.404605263157895,
0.420230263157895,0.435855263157895,0.451480263157895,0.467105263157895,
0.482730263157895,0.498355263157895,0.513980263157895,0.529605263157895,
0.545230263157895,0.560855263157895,0.576480263157895,0.592105263157895,
0.623355263157895,0.654605263157895,0.670230263157895,0.685855263157895,
0.701480263157895,0.717105263157895,0.732730263157895,0.748355263157895,
0.763980263157895,0.779605263157895,0.795230263157895,0.810855263157895,
0.826480263157895,0.842105263157895,0.873355263157895,0.904605263157895,
0.920230263157895,0.935855263157895,0.951480263157895,0.967105263157895,
0.983552631578947,1.,1.01484375,1.0296875,1.0452734375),.UNSPECIFIED.);
#27=B_SPLINE_CURVE_WITH_KNOTS('',3,(#363,#364,#365,#366,#367,#368,#369,
#370,#371,#372,#373,#374,#375,#376,#377,#378,#379,#380,#381,#382,#383,#384,
#385,#386,#387,#388,#389,#390,#391,#392,#393,#394,#395,#396,#397,#398,#399,
#400,#401,#402,#403,#404,#405,#406,#407,#408,#409,#410,#411,#412,#413,#414,
#415,#416,#417,#418,#419,#420,#421),.UNSPECIFIED.,.T.,.F.,(1,1,1,1,1,1,
1,1,1,1,1,1,1,1,1,1,1,1,1,1,1,1,1,1,1,1,1,1,1,1,1,1,1,1,1,1,1,1,1,1,1,1,
1,1,1,1,1,1,1,1,1,1,1,1,1,1,1,1,1,1,1,1,1),(-0.0485197368421053,-0.0328947368421053,
-0.0164473684210527,0.,0.01484375,0.0296875,0.0452734375,0.060859375,0.076482421875,
0.09210546875,0.1233552734375,0.154605263671875,0.170230263427734,0.185855263183594,
0.201480263171387,0.21710526315918,0.232730263158569,0.248355263157959,
0.263980263157928,0.279605263157898,0.295230263157896,0.310855263157895,
0.326480263157895,0.342105263157895,0.373355263157895,0.404605263157895,
0.420230263157895,0.435855263157895,0.451480263157895,0.467105263157895,
0.482730263157895,0.498355263157895,0.513980263157895,0.529605263157895,
0.545230263157895,0.560855263157895,0.576480263157895,0.592105263157895,
0.623355263157895,0.654605263157895,0.670230263157895,0.685855263157895,
0.701480263157895,0.717105263157895,0.732730263157895,0.748355263157895,
0.763980263157895,0.779605263157895,0.795230263157895,0.810855263157895,
0.826480263157895,0.842105263157895,0.873355263157895,0.904605263157895,
0.920230263157895,0.935855263157895,0.951480263157895,0.967105263157895,
0.983552631578947,1.,1.01484375,1.0296875,1.0452734375),.UNSPECIFIED.);
#28=B_SPLINE_CURVE_WITH_KNOTS('',3,(#448,#449,#450,#451,#452,#453,#454,
#455,#456,#457,#458,#459,#460,#461,#462,#463,#464,#465,#466,#467,#468,#469,
#470,#471,#472,#473,#474,#475,#476,#477,#478,#479,#480,#481,#482),
 .UNSPECIFIED.,.T.,.F.,(1,1,1,1,1,1,1,1,1,1,1,1,1,1,1,1,1,1,1,1,1,1,1,1,
1,1,1,1,1,1,1,1,1,1,1,1,1,1,1),(-0.0953947368421053,-0.0641447368421053,
-0.0328947368421053,0.,0.0296875,0.060859375,0.09210546875,0.1233552734375,
0.154605263671875,0.185855263183594,0.21710526315918,0.248355263157959,
0.279605263157898,0.310855263157895,0.342105263157895,0.373355263157895,
0.404605263157895,0.435855263157895,0.467105263157895,0.498355263157895,
0.529605263157895,0.560855263157895,0.592105263157895,0.623355263157895,
0.654605263157895,0.685855263157895,0.717105263157895,0.748355263157895,
0.779605263157895,0.810855263157895,0.842105263157895,0.873355263157895,
0.904605263157895,0.935855263157895,0.967105263157895,1.,1.0296875,1.060859375,
1.09210546875),.UNSPECIFIED.);
#29=B_SPLINE_CURVE_WITH_KNOTS('',3,(#485,#486,#487,#488,#489,#490,#491,
#492,#493,#494,#495,#496,#497,#498,#499,#500,#501,#502,#503,#504,#505,#506,
#507,#508,#509,#510,#511,#512,#513,#514,#515,#516,#517,#518,#519),
 .UNSPECIFIED.,.T.,.F.,(1,1,1,1,1,1,1,1,1,1,1,1,1,1,1,1,1,1,1,1,1,1,1,1,
1,1,1,1,1,1,1,1,1,1,1,1,1,1,1),(-0.0953947368421053,-0.0641447368421053,
-0.0328947368421053,0.,0.0296875,0.060859375,0.09210546875,0.1233552734375,
0.154605263671875,0.185855263183594,0.21710526315918,0.248355263157959,
0.279605263157898,0.310855263157895,0.342105263157895,0.373355263157895,
0.404605263157895,0.435855263157895,0.467105263157895,0.498355263157895,
0.529605263157895,0.560855263157895,0.592105263157895,0.623355263157895,
0.654605263157895,0.685855263157895,0.717105263157895,0.748355263157895,
0.779605263157895,0.810855263157895,0.842105263157895,0.873355263157895,
0.904605263157895,0.935855263157895,0.967105263157895,1.,1.0296875,1.060859375,
1.09210546875),.UNSPECIFIED.);
#30=TOROIDAL_SURFACE('',#212,0.0113,0.0002);
#31=TOROIDAL_SURFACE('',#213,0.0113,0.0002);
#32=TOROIDAL_SURFACE('',#232,0.0087,0.0002);
#33=TOROIDAL_SURFACE('',#234,0.0087,0.0002);
#34=ORIENTED_EDGE('',*,*,#66,.T.);
#35=ORIENTED_EDGE('',*,*,#67,.T.);
#36=ORIENTED_EDGE('',*,*,#68,.T.);
#37=ORIENTED_EDGE('',*,*,#66,.F.);
#38=ORIENTED_EDGE('',*,*,#67,.F.);
#39=ORIENTED_EDGE('',*,*,#69,.T.);
#40=ORIENTED_EDGE('',*,*,#70,.T.);
#41=ORIENTED_EDGE('',*,*,#68,.F.);
#42=ORIENTED_EDGE('',*,*,#69,.F.);
#43=ORIENTED_EDGE('',*,*,#71,.T.);
#44=ORIENTED_EDGE('',*,*,#72,.F.);
#45=ORIENTED_EDGE('',*,*,#70,.F.);
#46=ORIENTED_EDGE('',*,*,#71,.F.);
#47=ORIENTED_EDGE('',*,*,#73,.F.);
#48=ORIENTED_EDGE('',*,*,#74,.T.);
#49=ORIENTED_EDGE('',*,*,#72,.T.);
#50=ORIENTED_EDGE('',*,*,#73,.T.);
#51=ORIENTED_EDGE('',*,*,#75,.T.);
#52=ORIENTED_EDGE('',*,*,#76,.T.);
#53=ORIENTED_EDGE('',*,*,#74,.F.);
#54=ORIENTED_EDGE('',*,*,#75,.F.);
#55=ORIENTED_EDGE('',*,*,#77,.T.);
#56=ORIENTED_EDGE('',*,*,#78,.T.);
#57=ORIENTED_EDGE('',*,*,#76,.F.);
#58=ORIENTED_EDGE('',*,*,#77,.F.);
#59=ORIENTED_EDGE('',*,*,#79,.T.);
#60=ORIENTED_EDGE('',*,*,#80,.T.);
#61=ORIENTED_EDGE('',*,*,#78,.F.);
#62=ORIENTED_EDGE('',*,*,#79,.F.);
#63=ORIENTED_EDGE('',*,*,#81,.T.);
#64=ORIENTED_EDGE('',*,*,#81,.F.);
#65=ORIENTED_EDGE('',*,*,#80,.F.);
#66=EDGE_CURVE('',#82,#82,#98,.T.);
#67=EDGE_CURVE('',#83,#83,#99,.F.);
#68=EDGE_CURVE('',#84,#84,#26,.F.);
#69=EDGE_CURVE('',#85,#85,#27,.F.);
#70=EDGE_CURVE('',#86,#86,#100,.T.);
#71=EDGE_CURVE('',#87,#87,#101,.F.);
#72=EDGE_CURVE('',#88,#88,#102,.F.);
#73=EDGE_CURVE('',#89,#89,#103,.T.);
#74=EDGE_CURVE('',#90,#90,#104,.T.);
#75=EDGE_CURVE('',#91,#91,#105,.F.);
#76=EDGE_CURVE('',#92,#92,#106,.T.);
#77=EDGE_CURVE('',#93,#93,#107,.F.);
#78=EDGE_CURVE('',#94,#94,#28,.T.);
#79=EDGE_CURVE('',#95,#95,#29,.T.);
#80=EDGE_CURVE('',#96,#96,#108,.F.);
#81=EDGE_CURVE('',#97,#97,#109,.T.);
#82=VERTEX_POINT('',#298);
#83=VERTEX_POINT('',#300);
#84=VERTEX_POINT('',#361);
#85=VERTEX_POINT('',#422);
#86=VERTEX_POINT('',#425);
#87=VERTEX_POINT('',#428);
#88=VERTEX_POINT('',#431);
#89=VERTEX_POINT('',#434);
#90=VERTEX_POINT('',#437);
#91=VERTEX_POINT('',#440);
#92=VERTEX_POINT('',#443);
#93=VERTEX_POINT('',#446);
#94=VERTEX_POINT('',#483);
#95=VERTEX_POINT('',#520);
#96=VERTEX_POINT('',#523);
#97=VERTEX_POINT('',#526);
#98=CIRCLE('',#210,0.0115);
#99=CIRCLE('',#211,0.0115);
#100=CIRCLE('',#215,0.0108167);
#101=CIRCLE('',#217,0.0108167);
#102=CIRCLE('',#219,0.0108167);
#103=CIRCLE('',#221,0.0108167);
#104=CIRCLE('',#223,0.00946);
#105=CIRCLE('',#225,0.00946);
#106=CIRCLE('',#227,0.00946);
#107=CIRCLE('',#229,0.00946);
#108=CIRCLE('',#233,0.0085);
#109=CIRCLE('',#235,0.0085);
#110=EDGE_LOOP('',(#34));
#111=EDGE_LOOP('',(#35));
#112=EDGE_LOOP('',(#36));
#113=EDGE_LOOP('',(#37));
#114=EDGE_LOOP('',(#38));
#115=EDGE_LOOP('',(#39));
#116=EDGE_LOOP('',(#40));
#117=EDGE_LOOP('',(#41));
#118=EDGE_LOOP('',(#42));
#119=EDGE_LOOP('',(#43));
#120=EDGE_LOOP('',(#44));
#121=EDGE_LOOP('',(#45));
#122=EDGE_LOOP('',(#46));
#123=EDGE_LOOP('',(#47));
#124=EDGE_LOOP('',(#48));
#125=EDGE_LOOP('',(#49));
#126=EDGE_LOOP('',(#50));
#127=EDGE_LOOP('',(#51));
#128=EDGE_LOOP('',(#52));
#129=EDGE_LOOP('',(#53));
#130=EDGE_LOOP('',(#54));
#131=EDGE_LOOP('',(#55));
#132=EDGE_LOOP('',(#56));
#133=EDGE_LOOP('',(#57));
#134=EDGE_LOOP('',(#58));
#135=EDGE_LOOP('',(#59));
#136=EDGE_LOOP('',(#60));
#137=EDGE_LOOP('',(#61));
#138=EDGE_LOOP('',(#62));
#139=EDGE_LOOP('',(#63));
#140=EDGE_LOOP('',(#64));
#141=EDGE_LOOP('',(#65));
#142=FACE_BOUND('',#110,.T.);
#143=FACE_BOUND('',#111,.T.);
#144=FACE_BOUND('',#112,.T.);
#145=FACE_BOUND('',#113,.T.);
#146=FACE_BOUND('',#114,.T.);
#147=FACE_BOUND('',#115,.T.);
#148=FACE_BOUND('',#116,.T.);
#149=FACE_BOUND('',#117,.T.);
#150=FACE_BOUND('',#118,.T.);
#151=FACE_BOUND('',#119,.T.);
#152=FACE_BOUND('',#120,.T.);
#153=FACE_BOUND('',#121,.T.);
#154=FACE_BOUND('',#122,.T.);
#155=FACE_BOUND('',#123,.T.);
#156=FACE_BOUND('',#124,.T.);
#157=FACE_BOUND('',#125,.T.);
#158=FACE_BOUND('',#126,.T.);
#159=FACE_BOUND('',#127,.T.);
#160=FACE_BOUND('',#128,.T.);
#161=FACE_BOUND('',#129,.T.);
#162=FACE_BOUND('',#130,.T.);
#163=FACE_BOUND('',#131,.T.);
#164=FACE_BOUND('',#132,.T.);
#165=FACE_BOUND('',#133,.T.);
#166=FACE_BOUND('',#134,.T.);
#167=FACE_BOUND('',#135,.T.);
#168=FACE_BOUND('',#136,.T.);
#169=FACE_BOUND('',#137,.T.);
#170=FACE_BOUND('',#138,.T.);
#171=FACE_BOUND('',#139,.T.);
#172=FACE_BOUND('',#140,.T.);
#173=FACE_BOUND('',#141,.T.);
#174=CYLINDRICAL_SURFACE('',#209,0.0115);
#175=CYLINDRICAL_SURFACE('',#218,0.0108167);
#176=CYLINDRICAL_SURFACE('',#220,0.0108167);
#177=CYLINDRICAL_SURFACE('',#226,0.00946);
#178=CYLINDRICAL_SURFACE('',#228,0.00946);
#179=CYLINDRICAL_SURFACE('',#236,0.0085);
#180=ADVANCED_FACE('',(#142,#143),#174,.T.);
#181=ADVANCED_FACE('',(#144,#145),#30,.T.);
#182=ADVANCED_FACE('',(#146,#147),#31,.T.);
#183=ADVANCED_FACE('',(#148,#149),#20,.T.);
#184=ADVANCED_FACE('',(#150,#151),#21,.T.);
#185=ADVANCED_FACE('',(#152,#153),#175,.F.);
#186=ADVANCED_FACE('',(#154,#155),#176,.F.);
#187=ADVANCED_FACE('',(#156,#157),#22,.T.);
#188=ADVANCED_FACE('',(#158,#159),#23,.T.);
#189=ADVANCED_FACE('',(#160,#161),#177,.T.);
#190=ADVANCED_FACE('',(#162,#163),#178,.T.);
#191=ADVANCED_FACE('',(#164,#165),#24,.T.);
#192=ADVANCED_FACE('',(#166,#167),#25,.T.);
#193=ADVANCED_FACE('',(#168,#169),#32,.T.);
#194=ADVANCED_FACE('',(#170,#171),#33,.T.);
#195=ADVANCED_FACE('',(#172,#173),#179,.F.);
#196=CLOSED_SHELL('',(#180,#181,#182,#183,#184,#185,#186,#187,#188,#189,
#190,#191,#192,#193,#194,#195));
#197=STYLED_ITEM('',(#198),#205);
#198=PRESENTATION_STYLE_ASSIGNMENT((#199));
#199=SURFACE_STYLE_USAGE(.BOTH.,#200);
#200=SURFACE_SIDE_STYLE('',(#201));
#201=SURFACE_STYLE_FILL_AREA(#202);
#202=FILL_AREA_STYLE('',(#203));
#203=FILL_AREA_STYLE_COLOUR('',#204);
#204=COLOUR_RGB('',0.792156862745098,0.819607843137255,0.933333333333333);
#205=MANIFOLD_SOLID_BREP('KP0056-01_SB6703ZZ_2_03',#196);
#206=SHAPE_DEFINITION_REPRESENTATION(#534,#207);
#207=SHAPE_REPRESENTATION('KP0056-01_SB6703ZZ_2_03',(#208),#529);
#208=AXIS2_PLACEMENT_3D('',#295,#237,#238);
#209=AXIS2_PLACEMENT_3D('',#296,#239,#240);
#210=AXIS2_PLACEMENT_3D('',#297,#241,#242);
#211=AXIS2_PLACEMENT_3D('',#299,#243,#244);
#212=AXIS2_PLACEMENT_3D('',#301,#245,#246);
#213=AXIS2_PLACEMENT_3D('',#362,#247,#248);
#214=AXIS2_PLACEMENT_3D('',#423,#249,#250);
#215=AXIS2_PLACEMENT_3D('',#424,#251,#252);
#216=AXIS2_PLACEMENT_3D('',#426,#253,#254);
#217=AXIS2_PLACEMENT_3D('',#427,#255,#256);
#218=AXIS2_PLACEMENT_3D('',#429,#257,#258);
#219=AXIS2_PLACEMENT_3D('',#430,#259,#260);
#220=AXIS2_PLACEMENT_3D('',#432,#261,#262);
#221=AXIS2_PLACEMENT_3D('',#433,#263,#264);
#222=AXIS2_PLACEMENT_3D('',#435,#265,#266);
#223=AXIS2_PLACEMENT_3D('',#436,#267,#268);
#224=AXIS2_PLACEMENT_3D('',#438,#269,#270);
#225=AXIS2_PLACEMENT_3D('',#439,#271,#272);
#226=AXIS2_PLACEMENT_3D('',#441,#273,#274);
#227=AXIS2_PLACEMENT_3D('',#442,#275,#276);
#228=AXIS2_PLACEMENT_3D('',#444,#277,#278);
#229=AXIS2_PLACEMENT_3D('',#445,#279,#280);
#230=AXIS2_PLACEMENT_3D('',#447,#281,#282);
#231=AXIS2_PLACEMENT_3D('',#484,#283,#284);
#232=AXIS2_PLACEMENT_3D('',#521,#285,#286);
#233=AXIS2_PLACEMENT_3D('',#522,#287,#288);
#234=AXIS2_PLACEMENT_3D('',#524,#289,#290);
#235=AXIS2_PLACEMENT_3D('',#525,#291,#292);
#236=AXIS2_PLACEMENT_3D('',#527,#293,#294);
#237=DIRECTION('',(0.,0.,1.));
#238=DIRECTION('',(1.,0.,0.));
#239=DIRECTION('',(-1.,0.,0.));
#240=DIRECTION('',(0.,-1.,0.));
#241=DIRECTION('',(-1.,0.,0.));
#242=DIRECTION('',(0.,-1.,0.));
#243=DIRECTION('',(-1.,0.,0.));
#244=DIRECTION('',(0.,-1.,0.));
#245=DIRECTION('',(1.,0.,0.));
#246=DIRECTION('',(0.,1.,0.));
#247=DIRECTION('',(1.,0.,0.));
#248=DIRECTION('',(0.,1.,0.));
#249=DIRECTION('',(1.,0.,0.));
#250=DIRECTION('',(0.,1.,0.));
#251=DIRECTION('',(-1.,0.,0.));
#252=DIRECTION('',(0.,-1.,0.));
#253=DIRECTION('',(-1.,0.,0.));
#254=DIRECTION('',(0.,-1.,0.));
#255=DIRECTION('',(-1.,0.,0.));
#256=DIRECTION('',(0.,-1.,0.));
#257=DIRECTION('',(-1.,0.,0.));
#258=DIRECTION('',(0.,-1.,0.));
#259=DIRECTION('',(-1.,0.,0.));
#260=DIRECTION('',(0.,-1.,0.));
#261=DIRECTION('',(-1.,0.,0.));
#262=DIRECTION('',(0.,-1.,0.));
#263=DIRECTION('',(-1.,0.,0.));
#264=DIRECTION('',(0.,-1.,0.));
#265=DIRECTION('',(1.,0.,0.));
#266=DIRECTION('',(0.,1.,0.));
#267=DIRECTION('',(-1.,0.,0.));
#268=DIRECTION('',(0.,-1.,0.));
#269=DIRECTION('',(-1.,0.,0.));
#270=DIRECTION('',(0.,-1.,0.));
#271=DIRECTION('',(-1.,0.,0.));
#272=DIRECTION('',(0.,-1.,0.));
#273=DIRECTION('',(-1.,0.,0.));
#274=DIRECTION('',(0.,-1.,0.));
#275=DIRECTION('',(-1.,0.,0.));
#276=DIRECTION('',(0.,-1.,0.));
#277=DIRECTION('',(-1.,0.,0.));
#278=DIRECTION('',(0.,-1.,0.));
#279=DIRECTION('',(-1.,0.,0.));
#280=DIRECTION('',(0.,-1.,0.));
#281=DIRECTION('',(1.,0.,0.));
#282=DIRECTION('',(0.,1.,0.));
#283=DIRECTION('',(-1.,0.,0.));
#284=DIRECTION('',(0.,-1.,0.));
#285=DIRECTION('',(1.,0.,0.));
#286=DIRECTION('',(0.,1.,0.));
#287=DIRECTION('',(1.,0.,0.));
#288=DIRECTION('',(0.,1.,0.));
#289=DIRECTION('',(1.,0.,0.));
#290=DIRECTION('',(0.,1.,0.));
#291=DIRECTION('',(1.,0.,0.));
#292=DIRECTION('',(0.,1.,0.));
#293=DIRECTION('',(-1.,0.,0.));
#294=DIRECTION('',(0.,-1.,0.));
#295=CARTESIAN_POINT('',(0.,0.,0.));
#296=CARTESIAN_POINT('',(0.004,0.,0.));
#297=CARTESIAN_POINT('',(0.0038,0.,0.));
#298=CARTESIAN_POINT('',(0.0038,0.0115,1.40834381901946E-18));
#299=CARTESIAN_POINT('',(0.0002,0.,0.));
#300=CARTESIAN_POINT('',(0.0002,0.0115,1.40834381901946E-18));
#301=CARTESIAN_POINT('',(0.0038,0.,0.));
#302=CARTESIAN_POINT('',(0.004,0.0112642729705559,-0.00109066827510069));
#303=CARTESIAN_POINT('',(0.004,0.011316182866176,-3.59172509606783E-5));
#304=CARTESIAN_POINT('',(0.004,0.0112706834431745,0.000985998209067007));
#305=CARTESIAN_POINT('',(0.004,0.0111452241422013,0.00195754952197611));
#306=CARTESIAN_POINT('',(0.004,0.0109062612678794,0.00302476861473756));
#307=CARTESIAN_POINT('',(0.004,0.0105696052854813,0.0040474290539016));
#308=CARTESIAN_POINT('',(0.004,0.0101043971819657,0.00510282597448975));
#309=CARTESIAN_POINT('',(0.004,0.00935475733086904,0.00641767788264229));
#310=CARTESIAN_POINT('',(0.004,0.00813686792969404,0.0079608459129643));
#311=CARTESIAN_POINT('',(0.004,0.0066191861108172,0.00921357565720396));
#312=CARTESIAN_POINT('',(0.004,0.00531665114112619,0.00999368093701715));
#313=CARTESIAN_POINT('',(0.004,0.00426689814679255,0.0104831812506531));
#314=CARTESIAN_POINT('',(0.004,0.00324381801114175,0.0108433593663382));
#315=CARTESIAN_POINT('',(0.004,0.00215775908968629,0.0111094062931403));
#316=CARTESIAN_POINT('',(0.004,0.00114434091437464,0.0112572816655434));
#317=CARTESIAN_POINT('',(0.004,0.00010999114998205,0.0113156396902322));
#318=CARTESIAN_POINT('',(0.004,-0.000929489809629015,0.0112769949990839));
#319=CARTESIAN_POINT('',(0.004,-0.0019353618830373,0.0111499886177061));
#320=CARTESIAN_POINT('',(0.004,-0.00302169799081998,0.0109071951109668));
#321=CARTESIAN_POINT('',(0.004,-0.00404639003985701,0.0105700631849472));
#322=CARTESIAN_POINT('',(0.004,-0.00510266758117604,0.0101044783752386));
#323=CARTESIAN_POINT('',(0.004,-0.00641764301866854,0.00935479022927053));
#324=CARTESIAN_POINT('',(0.004,-0.00796083815981688,0.00813687346666259));
#325=CARTESIAN_POINT('',(0.004,-0.00921357604464849,0.00661918617462477));
#326=CARTESIAN_POINT('',(0.004,-0.0099936808289147,0.00531665119009263));
#327=CARTESIAN_POINT('',(0.004,-0.0104831812747715,0.00426689814536629));
#328=CARTESIAN_POINT('',(0.004,-0.0108433593589778,0.00324381801424882));
#329=CARTESIAN_POINT('',(0.004,-0.0111094062949932,0.00215775908944721));
#330=CARTESIAN_POINT('',(0.004,-0.0112572816650298,0.00114434091457391));
#331=CARTESIAN_POINT('',(0.004,-0.0113156396903693,0.000109991149953596));
#332=CARTESIAN_POINT('',(0.004,-0.0112769949990479,-0.000929489809599111));
#333=CARTESIAN_POINT('',(0.004,-0.0111499886177146,-0.00193536188304462));
#334=CARTESIAN_POINT('',(0.004,-0.01090719511097,-0.00302169799080331));
#335=CARTESIAN_POINT('',(0.004,-0.0105700631849482,-0.00404639003985664));
#336=CARTESIAN_POINT('',(0.004,-0.0101044783752362,-0.00510266758118213));
#337=CARTESIAN_POINT('',(0.004,-0.00935479022927182,-0.00641764301866603));
#338=CARTESIAN_POINT('',(0.004,-0.00813687346665868,-0.00796083815982083));
#339=CARTESIAN_POINT('',(0.004,-0.00661918617462989,-0.00921357604464553));
#340=CARTESIAN_POINT('',(0.004,-0.00531665119008204,-0.0099936808289208));
#341=CARTESIAN_POINT('',(0.004,-0.00426689814536955,-0.0104831812747708));
#342=CARTESIAN_POINT('',(0.004,-0.00324381801423878,-0.0108433593589792));
#343=CARTESIAN_POINT('',(0.004,-0.00215775908944671,-0.0111094062949956));
#344=CARTESIAN_POINT('',(0.004,-0.00114434091457841,-0.0112572816650202));
#345=CARTESIAN_POINT('',(0.004,-0.000109991149962053,-0.0113156396904004));
#346=CARTESIAN_POINT('',(0.004,0.000929489809632199,-0.0112769949989324));
#347=CARTESIAN_POINT('',(0.004,0.00193536188289734,-0.0111499886181508));
#348=CARTESIAN_POINT('',(0.004,0.0030216979913546,-0.0109071951093416));
#349=CARTESIAN_POINT('',(0.004,0.0040463900377866,-0.0105700631910269));
#350=CARTESIAN_POINT('',(0.004,0.00510266758890857,-0.0101044783525498));
#351=CARTESIAN_POINT('',(0.004,0.00641764297761624,-0.00935479034973837));
#352=CARTESIAN_POINT('',(0.004,0.00796083849062677,-0.00813687249589759));
#353=CARTESIAN_POINT('',(0.004,0.00921357509327658,-0.0066191889664475));
#354=CARTESIAN_POINT('',(0.004,0.00999368247522706,-0.00531664635895924));
#355=CARTESIAN_POINT('',(0.004,0.0104831749915418,-0.00426691658369106));
#356=CARTESIAN_POINT('',(0.004,0.0108433828455982,-0.0032437490920579));
#357=CARTESIAN_POINT('',(0.004,0.0111139841718573,-0.00213896839679682));
#358=CARTESIAN_POINT('',(0.004,0.0112642729705559,-0.00109066827510069));
#359=CARTESIAN_POINT('',(0.004,0.011316182866176,-3.59172509606783E-5));
#360=CARTESIAN_POINT('',(0.004,0.0112706834431745,0.000985998209067007));
#361=CARTESIAN_POINT('',(0.004,0.0113,-2.76770176607302E-18));
#362=CARTESIAN_POINT('',(0.0002,0.,0.));
#363=CARTESIAN_POINT('',(0.,0.0112642729705559,0.00109066827509763));
#364=CARTESIAN_POINT('',(0.,0.011316182866176,3.59172509606252E-5));
#365=CARTESIAN_POINT('',(0.,0.0112706834431746,-0.00098599820906441));
#366=CARTESIAN_POINT('',(0.,0.0111452241422013,-0.00195754952197636));
#367=CARTESIAN_POINT('',(0.,0.0109062612678797,-0.00302476861473741));
#368=CARTESIAN_POINT('',(0.,0.0105696052854829,-0.00404742905389771));
#369=CARTESIAN_POINT('',(0.,0.0101043971819594,-0.00510282597450459));
#370=CARTESIAN_POINT('',(0.,0.00935475733087183,-0.0064176778826363));
#371=CARTESIAN_POINT('',(0.,0.00813686792968861,-0.00796084591297146));
#372=CARTESIAN_POINT('',(0.,0.0066191861108225,-0.0092135756571977));
#373=CARTESIAN_POINT('',(0.,0.00531665114111994,-0.0099936809370242));
#374=CARTESIAN_POINT('',(0.,0.00426689814679866,-0.0104831812506515));
#375=CARTESIAN_POINT('',(0.,0.00324381801112024,-0.0108433593663424));
#376=CARTESIAN_POINT('',(0.,0.00215775908968589,-0.0111094062931403));
#377=CARTESIAN_POINT('',(0.,0.00114434091438152,-0.0112572816655422));
#378=CARTESIAN_POINT('',(0.,0.000109991149979586,-0.0113156396902319));
#379=CARTESIAN_POINT('',(0.,-0.000929489809621074,-0.0112769949990854));
#380=CARTESIAN_POINT('',(0.,-0.00193536188303939,-0.0111499886177058));
#381=CARTESIAN_POINT('',(0.,-0.00302169799081408,-0.010907195110968));
#382=CARTESIAN_POINT('',(0.,-0.00404639003985767,-0.0105700631849467));
#383=CARTESIAN_POINT('',(0.,-0.00510266758117515,-0.0101044783752401));
#384=CARTESIAN_POINT('',(0.,-0.00641764301866836,-0.00935479022927055));
#385=CARTESIAN_POINT('',(0.,-0.00796083815982133,-0.0081368734666578));
#386=CARTESIAN_POINT('',(0.,-0.00921357604464533,-0.00661918617463201));
#387=CARTESIAN_POINT('',(0.,-0.00999368082892487,-0.00531665119007348));
#388=CARTESIAN_POINT('',(0.,-0.0104831812747709,-0.0042668981453695));
#389=CARTESIAN_POINT('',(0.,-0.0108433593589783,-0.00324381801424039));
#390=CARTESIAN_POINT('',(0.,-0.0111094062949931,-0.0021577590894464));
#391=CARTESIAN_POINT('',(0.,-0.0112572816650298,-0.00114434091457926));
#392=CARTESIAN_POINT('',(0.,-0.0113156396903694,-0.000109991149955243));
#393=CARTESIAN_POINT('',(0.,-0.0112769949990478,0.000929489809606557));
#394=CARTESIAN_POINT('',(0.,-0.0111499886177149,0.00193536188304378));
#395=CARTESIAN_POINT('',(0.,-0.0109071951109687,0.00302169799080473));
#396=CARTESIAN_POINT('',(0.,-0.010570063184946,0.00404639003986149));
#397=CARTESIAN_POINT('',(0.,-0.0101044783752446,0.00510266758116328));
#398=CARTESIAN_POINT('',(0.,-0.00935479022926864,0.00641764301867313));
#399=CARTESIAN_POINT('',(0.,-0.00813687346666105,0.00796083815981607));
#400=CARTESIAN_POINT('',(0.,-0.00661918617463318,0.00921357604464539));
#401=CARTESIAN_POINT('',(0.,-0.00531665119007346,0.00999368082892422));
#402=CARTESIAN_POINT('',(0.,-0.00426689814537049,0.0104831812747706));
#403=CARTESIAN_POINT('',(0.,-0.00324381801423687,0.0108433593589794));
#404=CARTESIAN_POINT('',(0.,-0.00215775908944916,0.0111094062949952));
#405=CARTESIAN_POINT('',(0.,-0.00114434091456966,0.0112572816650215));
#406=CARTESIAN_POINT('',(0.,-0.000109991149968664,0.0113156396904007));
#407=CARTESIAN_POINT('',(0.,0.00092948980965513,0.0112769949989307));
#408=CARTESIAN_POINT('',(0.,0.00193536188289269,0.0111499886181522));
#409=CARTESIAN_POINT('',(0.,0.00302169799136651,0.0109071951093368));
#410=CARTESIAN_POINT('',(0.,0.00404639003778803,0.0105700631910262));
#411=CARTESIAN_POINT('',(0.,0.00510266758889989,0.0101044783525536));
#412=CARTESIAN_POINT('',(0.,0.00641764297761965,0.00935479034973631));
#413=CARTESIAN_POINT('',(0.,0.00796083849062286,0.00813687249590392));
#414=CARTESIAN_POINT('',(0.,0.00921357509328126,0.0066191889664341));
#415=CARTESIAN_POINT('',(0.,0.00999368247521393,0.0053166463589876));
#416=CARTESIAN_POINT('',(0.,0.0104831749915428,0.00426691658368723));
#417=CARTESIAN_POINT('',(0.,0.0108433828455971,0.00324374909206634));
#418=CARTESIAN_POINT('',(0.,0.0111139841718575,0.00213896839679681));
#419=CARTESIAN_POINT('',(0.,0.0112642729705559,0.00109066827509763));
#420=CARTESIAN_POINT('',(0.,0.011316182866176,3.59172509606252E-5));
#421=CARTESIAN_POINT('',(0.,0.0112706834431746,-0.00098599820906441));
#422=CARTESIAN_POINT('',(8.13151629364128E-20,0.0113,0.));
#423=CARTESIAN_POINT('',(0.004,0.,0.0108167));
#424=CARTESIAN_POINT('',(0.004,0.,0.));
#425=CARTESIAN_POINT('',(0.004,-0.0108167,0.));
#426=CARTESIAN_POINT('',(0.,0.,0.0113));
#427=CARTESIAN_POINT('',(0.,0.,0.));
#428=CARTESIAN_POINT('',(0.,-0.0108167,0.));
#429=CARTESIAN_POINT('',(0.004,0.,0.));
#430=CARTESIAN_POINT('',(0.003806,0.,0.));
#431=CARTESIAN_POINT('',(0.003806,-0.0108167,0.));
#432=CARTESIAN_POINT('',(0.004,0.,0.));
#433=CARTESIAN_POINT('',(0.000194,0.,0.));
#434=CARTESIAN_POINT('',(0.000194,-0.0108167,0.));
#435=CARTESIAN_POINT('',(0.003806,0.,0.00946));
#436=CARTESIAN_POINT('',(0.003806,0.,0.));
#437=CARTESIAN_POINT('',(0.003806,-0.00946,0.));
#438=CARTESIAN_POINT('',(0.000194,0.,0.0108167));
#439=CARTESIAN_POINT('',(0.000194,0.,0.));
#440=CARTESIAN_POINT('',(0.000194,-0.00946,0.));
#441=CARTESIAN_POINT('',(0.004,0.,0.));
#442=CARTESIAN_POINT('',(0.004,0.,0.));
#443=CARTESIAN_POINT('',(0.004,-0.00946,0.));
#444=CARTESIAN_POINT('',(0.004,0.,0.));
#445=CARTESIAN_POINT('',(0.,0.,0.));
#446=CARTESIAN_POINT('',(0.,-0.00946,0.));
#447=CARTESIAN_POINT('',(0.004,0.,0.0087));
#448=CARTESIAN_POINT('',(0.004,0.0086009380980525,0.001631651812835));
#449=CARTESIAN_POINT('',(0.004,0.00874580715852956,5.28595318555562E-5));
#450=CARTESIAN_POINT('',(0.004,0.0086153226363128,-0.00151862953397807));
#451=CARTESIAN_POINT('',(0.004,0.00817885342389071,-0.00313106903312366));
#452=CARTESIAN_POINT('',(0.004,0.00738749612887624,-0.00470973792270553));
#453=CARTESIAN_POINT('',(0.004,0.00626373870593307,-0.00612816572278778));
#454=CARTESIAN_POINT('',(0.004,0.00486861001160119,-0.0072841118957643));
#455=CARTESIAN_POINT('',(0.004,0.00330072100458864,-0.00811259658989441));
#456=CARTESIAN_POINT('',(0.004,0.00165990985493595,-0.00859263298370569));
#457=CARTESIAN_POINT('',(0.004,8.33372423687183E-5,-0.00874542804942724));
#458=CARTESIAN_POINT('',(0.004,-0.00148903576952915,-0.00862321166962763));
#459=CARTESIAN_POINT('',(0.004,-0.00312941571409355,-0.00817961318903599));
#460=CARTESIAN_POINT('',(0.004,-0.00470972341926911,-0.00738753776013629));
#461=CARTESIAN_POINT('',(0.004,-0.00612814929315314,-0.00626374456990652));
#462=CARTESIAN_POINT('',(0.004,-0.00728411548099969,-0.00486860948133008));
#463=CARTESIAN_POINT('',(0.004,-0.00811259560049501,-0.00330072120460236));
#464=CARTESIAN_POINT('',(0.004,-0.00859263324801186,-0.00165990980434147));
#465=CARTESIAN_POINT('',(0.004,-0.00874542797859588,-8.33372560708439E-5));
#466=CARTESIAN_POINT('',(0.004,-0.0086232116886084,0.00148903577319975));
#467=CARTESIAN_POINT('',(0.004,-0.00817961318394644,0.00312941571308956));
#468=CARTESIAN_POINT('',(0.004,-0.00738753776151655,0.00470972341960043));
#469=CARTESIAN_POINT('',(0.004,-0.00626374456948302,0.00612814929281872));
#470=CARTESIAN_POINT('',(0.004,-0.00486860948164509,0.00728411548200516));
#471=CARTESIAN_POINT('',(0.004,-0.00330072120376202,0.00811259559681089));
#472=CARTESIAN_POINT('',(0.004,-0.00165990980738774,0.00859263326174205));
#473=CARTESIAN_POINT('',(0.004,-8.33372447306387E-5,0.00874542792735824));
#474=CARTESIAN_POINT('',(0.004,0.00148903573088446,0.00862321187982878));
#475=CARTESIAN_POINT('',(0.004,0.00312941587101177,0.00817961247030255));
#476=CARTESIAN_POINT('',(0.004,0.00470972283023512,0.00738754042487));
#477=CARTESIAN_POINT('',(0.004,0.00612815149235875,0.00626373462971114));
#478=CARTESIAN_POINT('',(0.004,0.00728410727320778,0.00486864657738214));
#479=CARTESIAN_POINT('',(0.004,0.00811262623245576,0.00330058276058989));
#480=CARTESIAN_POINT('',(0.004,0.0086009380980525,0.001631651812835));
#481=CARTESIAN_POINT('',(0.004,0.00874580715852956,5.28595318555562E-5));
#482=CARTESIAN_POINT('',(0.004,0.0086153226363128,-0.00151862953397807));
#483=CARTESIAN_POINT('',(0.004,0.0087,0.));
#484=CARTESIAN_POINT('',(0.,0.,0.00946));
#485=CARTESIAN_POINT('',(0.,0.00860093809805246,-0.00163165181283475));
#486=CARTESIAN_POINT('',(0.,0.00874580715852954,-5.28595318558953E-5));
#487=CARTESIAN_POINT('',(0.,0.0086153226363129,0.00151862953397909));
#488=CARTESIAN_POINT('',(0.,0.0081788534238903,0.00313106903312379));
#489=CARTESIAN_POINT('',(0.,0.00738749612887684,0.00470973792270469));
#490=CARTESIAN_POINT('',(0.,0.00626373870593301,0.00612816572278785));
#491=CARTESIAN_POINT('',(0.,0.00486861001160209,0.00728411189576316));
#492=CARTESIAN_POINT('',(0.,0.0033007210045922,0.00811259658989233));
#493=CARTESIAN_POINT('',(0.,0.00165990985493864,0.00859263298370544));
#494=CARTESIAN_POINT('',(0.,8.33372423676693E-5,0.00874542804942756));
#495=CARTESIAN_POINT('',(0.,-0.00148903576953042,0.00862321166962736));
#496=CARTESIAN_POINT('',(0.,-0.00312941571409252,0.00817961318903598));
#497=CARTESIAN_POINT('',(0.,-0.00470972341926771,0.00738753776013721));
#498=CARTESIAN_POINT('',(0.,-0.00612814929315332,0.00626374456990661));
#499=CARTESIAN_POINT('',(0.,-0.00728411548099991,0.00486860948132963));
#500=CARTESIAN_POINT('',(0.,-0.00811259560049434,0.00330072120460326));
#501=CARTESIAN_POINT('',(0.,-0.00859263324801185,0.00165990980434226));
#502=CARTESIAN_POINT('',(0.,-0.00874542797859585,8.33372560708148E-5));
#503=CARTESIAN_POINT('',(0.,-0.00862321168860854,-0.00148903577320043));
#504=CARTESIAN_POINT('',(0.,-0.00817961318394589,-0.00312941571309146));
#505=CARTESIAN_POINT('',(0.,-0.00738753776151618,-0.00470972341960055));
#506=CARTESIAN_POINT('',(0.,-0.0062637445694835,-0.00612814929281811));
#507=CARTESIAN_POINT('',(0.,-0.0048686094816465,-0.00728411548200364));
#508=CARTESIAN_POINT('',(0.,-0.00330072120376392,-0.00811259559681029));
#509=CARTESIAN_POINT('',(0.,-0.0016599098073872,-0.00859263326174235));
#510=CARTESIAN_POINT('',(0.,-8.33372447310395E-5,-0.00874542792735791));
#511=CARTESIAN_POINT('',(0.,0.00148903573088262,-0.00862321187982906));
#512=CARTESIAN_POINT('',(0.,0.00312941587101443,-0.00817961247030255));
#513=CARTESIAN_POINT('',(0.,0.00470972283023901,-0.00738754042486757));
#514=CARTESIAN_POINT('',(0.,0.00612815149235871,-0.0062637346297106));
#515=CARTESIAN_POINT('',(0.,0.00728410727320789,-0.00486864657738241));
#516=CARTESIAN_POINT('',(0.,0.0081126262324562,-0.00330058276058899));
#517=CARTESIAN_POINT('',(0.,0.00860093809805246,-0.00163165181283475));
#518=CARTESIAN_POINT('',(0.,0.00874580715852954,-5.28595318558953E-5));
#519=CARTESIAN_POINT('',(0.,0.0086153226363129,0.00151862953397909));
#520=CARTESIAN_POINT('',(0.,0.0087,0.));
#521=CARTESIAN_POINT('',(0.0038,0.,0.));
#522=CARTESIAN_POINT('',(0.0038,0.,0.));
#523=CARTESIAN_POINT('',(0.0038,0.0085,0.));
#524=CARTESIAN_POINT('',(0.0002,0.,0.));
#525=CARTESIAN_POINT('',(0.000199999999999997,0.,0.));
#526=CARTESIAN_POINT('',(0.000199999999999997,0.0085,0.));
#527=CARTESIAN_POINT('',(0.004,0.,0.));
#528=MECHANICAL_DESIGN_GEOMETRIC_PRESENTATION_REPRESENTATION('',(#197),
#529);
#529=(
GEOMETRIC_REPRESENTATION_CONTEXT(3)
GLOBAL_UNCERTAINTY_ASSIGNED_CONTEXT((#530))
GLOBAL_UNIT_ASSIGNED_CONTEXT((#533,#532,#531))
REPRESENTATION_CONTEXT('KP0056-01_SB6703ZZ_2_03',
'TOP_LEVEL_ASSEMBLY_PART')
);
#530=UNCERTAINTY_MEASURE_WITH_UNIT(LENGTH_MEASURE(2.E-5),#533,
'DISTANCE_ACCURACY_VALUE','Maximum Tolerance applied to model');
#531=(
NAMED_UNIT(*)
SI_UNIT($,.STERADIAN.)
SOLID_ANGLE_UNIT()
);
#532=(
NAMED_UNIT(*)
PLANE_ANGLE_UNIT()
SI_UNIT($,.RADIAN.)
);
#533=(
LENGTH_UNIT()
NAMED_UNIT(*)
SI_UNIT($,.METRE.)
);
#534=PRODUCT_DEFINITION_SHAPE('','',#535);
#535=PRODUCT_DEFINITION('','',#537,#536);
#536=PRODUCT_DEFINITION_CONTEXT('',#543,'design');
#537=PRODUCT_DEFINITION_FORMATION_WITH_SPECIFIED_SOURCE('','',#539,
 .NOT_KNOWN.);
#538=PRODUCT_RELATED_PRODUCT_CATEGORY('','',(#539));
#539=PRODUCT('KP0056-01_SB6703ZZ_2_03','KP0056-01_SB6703ZZ_2_03',
'KP0056-01_SB6703ZZ_2_03',(#541));
#540=PRODUCT_CATEGORY('','');
#541=PRODUCT_CONTEXT('',#543,'mechanical');
#542=APPLICATION_PROTOCOL_DEFINITION('international standard',
'automotive_design',2010,#543);
#543=APPLICATION_CONTEXT(
'core data for automotive mechanical design processes');
ENDSEC;
END-ISO-10303-21;
