ISO-10303-21;
HEADER;
/* Generated by software containing ST-Developer
 * from STEP Tools, Inc. (www.steptools.com) 
 */
/* OPTION: using custom renumber hook */

FILE_DESCRIPTION(
/* description */ ('STEP AP214',
'CAx-IF Rec.Pracs.---User Defined Attributes---1.5---2016-08-15'),
/* implementation_level */ '2;1');

FILE_NAME(
/* name */ '6a65b594833ca6ec4e163cb0',
/* time_stamp */ '2026-07-26T07:21:57Z',
/* author */ (''),
/* organization */ (''),
/* preprocessor_version */ 'ST-DEVELOPER v20',
/* originating_system */ 'ONSHAPE BY PTC INC, 1.218',
/* authorisation */ '  ');

FILE_SCHEMA (('AUTOMOTIVE_DESIGN {1 0 10303 214 3 1 1}'));
ENDSEC;

DATA;
#10=PROPERTY_DEFINITION_REPRESENTATION(#14,#12);
#11=PROPERTY_DEFINITION_REPRESENTATION(#15,#13);
#12=REPRESENTATION('',(#16),#581);
#13=REPRESENTATION('',(#17),#581);
#14=PROPERTY_DEFINITION('pmi validation property','',#586);
#15=PROPERTY_DEFINITION('pmi validation property','',#586);
#16=VALUE_REPRESENTATION_ITEM('number of annotations',COUNT_MEASURE(0.));
#17=VALUE_REPRESENTATION_ITEM('number of views',COUNT_MEASURE(0.));
#18=SHAPE_REPRESENTATION_RELATIONSHIP('','',#306,#19);
#19=ADVANCED_BREP_SHAPE_REPRESENTATION('',(#304),#581);
#20=TOROIDAL_SURFACE('',#345,0.0193,0.0003);
#21=B_SPLINE_CURVE_WITH_KNOTS('',3,(#492,#493,#494,#495,#496,#497,#498,
#499,#500,#501,#502,#503,#504,#505,#506,#507,#508,#509,#510,#511,#512,#513,
#514,#515,#516,#517,#518,#519,#520,#521,#522,#523,#524,#525,#526),
 .UNSPECIFIED.,.F.,.F.,(4,1,1,1,1,1,1,1,1,1,1,1,1,1,1,1,1,1,1,1,1,1,1,1,
1,1,1,1,1,1,1,1,4),(0.,0.03125,0.0625,0.09375,0.125,0.15625,0.1875,0.21875,
0.25,0.28125,0.3125,0.34375,0.375,0.40625,0.4375,0.46875,0.5,0.53125,0.5625,
0.59375,0.625,0.65625,0.6875,0.71875,0.75,0.78125,0.8125,0.84375,0.875,
0.90625,0.9375,0.96875,1.),.UNSPECIFIED.);
#22=B_SPLINE_CURVE_WITH_KNOTS('',3,(#529,#530,#531,#532,#533,#534,#535,
#536,#537,#538,#539,#540,#541,#542,#543,#544,#545,#546,#547,#548,#549,#550,
#551,#552,#553,#554,#555,#556,#557,#558,#559,#560,#561,#562,#563),
 .UNSPECIFIED.,.F.,.F.,(4,1,1,1,1,1,1,1,1,1,1,1,1,1,1,1,1,1,1,1,1,1,1,1,
1,1,1,1,1,1,1,1,4),(0.,0.03125,0.0625,0.09375,0.125,0.15625,0.1875,0.21875,
0.25,0.28125,0.3125,0.34375,0.375,0.40625,0.4375,0.46875,0.5,0.53125,0.5625,
0.59375,0.625,0.65625,0.6875,0.71875,0.75,0.78125,0.8125,0.84375,0.875,
0.90625,0.9375,0.96875,1.),.UNSPECIFIED.);
#23=CONICAL_SURFACE('',#323,0.025,0.785398163397448);
#24=CONICAL_SURFACE('',#347,0.025,0.785398163397444);
#25=CONICAL_SURFACE('',#348,0.019,0.785398163397456);
#26=CYLINDRICAL_SURFACE('',#319,0.00125);
#27=CYLINDRICAL_SURFACE('',#321,0.017349999);
#28=CYLINDRICAL_SURFACE('',#325,0.00175);
#29=CYLINDRICAL_SURFACE('',#327,0.00175);
#30=CYLINDRICAL_SURFACE('',#329,0.00175);
#31=CYLINDRICAL_SURFACE('',#331,0.00175);
#32=CYLINDRICAL_SURFACE('',#333,0.00175);
#33=CYLINDRICAL_SURFACE('',#335,0.00175);
#34=CYLINDRICAL_SURFACE('',#337,0.00125);
#35=CYLINDRICAL_SURFACE('',#343,0.025);
#36=CYLINDRICAL_SURFACE('',#350,0.019);
#37=ORIENTED_EDGE('',*,*,#91,.F.);
#38=ORIENTED_EDGE('',*,*,#92,.F.);
#39=ORIENTED_EDGE('',*,*,#93,.F.);
#40=ORIENTED_EDGE('',*,*,#94,.F.);
#41=ORIENTED_EDGE('',*,*,#95,.F.);
#42=ORIENTED_EDGE('',*,*,#96,.F.);
#43=ORIENTED_EDGE('',*,*,#97,.F.);
#44=ORIENTED_EDGE('',*,*,#98,.F.);
#45=ORIENTED_EDGE('',*,*,#99,.F.);
#46=ORIENTED_EDGE('',*,*,#100,.F.);
#47=ORIENTED_EDGE('',*,*,#101,.F.);
#48=ORIENTED_EDGE('',*,*,#91,.T.);
#49=ORIENTED_EDGE('',*,*,#92,.T.);
#50=ORIENTED_EDGE('',*,*,#102,.F.);
#51=ORIENTED_EDGE('',*,*,#93,.T.);
#52=ORIENTED_EDGE('',*,*,#103,.T.);
#53=ORIENTED_EDGE('',*,*,#104,.F.);
#54=ORIENTED_EDGE('',*,*,#94,.T.);
#55=ORIENTED_EDGE('',*,*,#105,.F.);
#56=ORIENTED_EDGE('',*,*,#95,.T.);
#57=ORIENTED_EDGE('',*,*,#106,.F.);
#58=ORIENTED_EDGE('',*,*,#96,.T.);
#59=ORIENTED_EDGE('',*,*,#107,.F.);
#60=ORIENTED_EDGE('',*,*,#97,.T.);
#61=ORIENTED_EDGE('',*,*,#108,.F.);
#62=ORIENTED_EDGE('',*,*,#98,.T.);
#63=ORIENTED_EDGE('',*,*,#109,.F.);
#64=ORIENTED_EDGE('',*,*,#99,.T.);
#65=ORIENTED_EDGE('',*,*,#110,.F.);
#66=ORIENTED_EDGE('',*,*,#100,.T.);
#67=ORIENTED_EDGE('',*,*,#111,.F.);
#68=ORIENTED_EDGE('',*,*,#112,.F.);
#69=ORIENTED_EDGE('',*,*,#113,.F.);
#70=ORIENTED_EDGE('',*,*,#104,.T.);
#71=ORIENTED_EDGE('',*,*,#105,.T.);
#72=ORIENTED_EDGE('',*,*,#106,.T.);
#73=ORIENTED_EDGE('',*,*,#107,.T.);
#74=ORIENTED_EDGE('',*,*,#108,.T.);
#75=ORIENTED_EDGE('',*,*,#109,.T.);
#76=ORIENTED_EDGE('',*,*,#110,.T.);
#77=ORIENTED_EDGE('',*,*,#101,.T.);
#78=ORIENTED_EDGE('',*,*,#102,.T.);
#79=ORIENTED_EDGE('',*,*,#114,.F.);
#80=ORIENTED_EDGE('',*,*,#103,.F.);
#81=ORIENTED_EDGE('',*,*,#115,.T.);
#82=ORIENTED_EDGE('',*,*,#112,.T.);
#83=ORIENTED_EDGE('',*,*,#111,.T.);
#84=ORIENTED_EDGE('',*,*,#116,.F.);
#85=ORIENTED_EDGE('',*,*,#113,.T.);
#86=ORIENTED_EDGE('',*,*,#115,.F.);
#87=ORIENTED_EDGE('',*,*,#114,.T.);
#88=ORIENTED_EDGE('',*,*,#117,.T.);
#89=ORIENTED_EDGE('',*,*,#117,.F.);
#90=ORIENTED_EDGE('',*,*,#116,.T.);
#91=EDGE_CURVE('',#118,#118,#145,.T.);
#92=EDGE_CURVE('',#119,#119,#146,.F.);
#93=EDGE_CURVE('',#120,#120,#147,.T.);
#94=EDGE_CURVE('',#121,#121,#148,.T.);
#95=EDGE_CURVE('',#122,#122,#149,.T.);
#96=EDGE_CURVE('',#123,#123,#150,.T.);
#97=EDGE_CURVE('',#124,#124,#151,.T.);
#98=EDGE_CURVE('',#125,#125,#152,.T.);
#99=EDGE_CURVE('',#126,#126,#153,.T.);
#100=EDGE_CURVE('',#127,#127,#154,.T.);
#101=EDGE_CURVE('',#128,#128,#155,.T.);
#102=EDGE_CURVE('',#129,#129,#156,.F.);
#103=EDGE_CURVE('',#130,#130,#157,.F.);
#104=EDGE_CURVE('',#131,#131,#158,.T.);
#105=EDGE_CURVE('',#132,#132,#159,.T.);
#106=EDGE_CURVE('',#133,#133,#160,.T.);
#107=EDGE_CURVE('',#134,#134,#161,.T.);
#108=EDGE_CURVE('',#135,#135,#162,.T.);
#109=EDGE_CURVE('',#136,#136,#163,.T.);
#110=EDGE_CURVE('',#137,#137,#164,.T.);
#111=EDGE_CURVE('',#138,#139,#21,.T.);
#112=EDGE_CURVE('',#139,#138,#22,.T.);
#113=EDGE_CURVE('',#140,#140,#165,.T.);
#114=EDGE_CURVE('',#141,#141,#166,.T.);
#115=EDGE_CURVE('',#142,#142,#167,.F.);
#116=EDGE_CURVE('',#143,#143,#168,.F.);
#117=EDGE_CURVE('',#144,#144,#169,.F.);
#118=VERTEX_POINT('',#442);
#119=VERTEX_POINT('',#444);
#120=VERTEX_POINT('',#446);
#121=VERTEX_POINT('',#448);
#122=VERTEX_POINT('',#450);
#123=VERTEX_POINT('',#452);
#124=VERTEX_POINT('',#454);
#125=VERTEX_POINT('',#456);
#126=VERTEX_POINT('',#458);
#127=VERTEX_POINT('',#460);
#128=VERTEX_POINT('',#463);
#129=VERTEX_POINT('',#466);
#130=VERTEX_POINT('',#469);
#131=VERTEX_POINT('',#472);
#132=VERTEX_POINT('',#475);
#133=VERTEX_POINT('',#478);
#134=VERTEX_POINT('',#481);
#135=VERTEX_POINT('',#484);
#136=VERTEX_POINT('',#487);
#137=VERTEX_POINT('',#490);
#138=VERTEX_POINT('',#527);
#139=VERTEX_POINT('',#528);
#140=VERTEX_POINT('',#565);
#141=VERTEX_POINT('',#568);
#142=VERTEX_POINT('',#571);
#143=VERTEX_POINT('',#574);
#144=VERTEX_POINT('',#578);
#145=CIRCLE('',#309,0.00125);
#146=CIRCLE('',#310,0.017349999);
#147=CIRCLE('',#311,0.0246);
#148=CIRCLE('',#312,0.00175);
#149=CIRCLE('',#313,0.00175);
#150=CIRCLE('',#314,0.00175);
#151=CIRCLE('',#315,0.00175);
#152=CIRCLE('',#316,0.00175);
#153=CIRCLE('',#317,0.00175);
#154=CIRCLE('',#318,0.00125);
#155=CIRCLE('',#320,0.00125);
#156=CIRCLE('',#322,0.017349999);
#157=CIRCLE('',#324,0.025);
#158=CIRCLE('',#326,0.00175);
#159=CIRCLE('',#328,0.00175);
#160=CIRCLE('',#330,0.00175);
#161=CIRCLE('',#332,0.00175);
#162=CIRCLE('',#334,0.00175);
#163=CIRCLE('',#336,0.00175);
#164=CIRCLE('',#338,0.00125);
#165=CIRCLE('',#340,0.0246);
#166=CIRCLE('',#342,0.0187);
#167=CIRCLE('',#344,0.025);
#168=CIRCLE('',#346,0.019);
#169=CIRCLE('',#349,0.019);
#170=EDGE_LOOP('',(#37));
#171=EDGE_LOOP('',(#38));
#172=EDGE_LOOP('',(#39));
#173=EDGE_LOOP('',(#40));
#174=EDGE_LOOP('',(#41));
#175=EDGE_LOOP('',(#42));
#176=EDGE_LOOP('',(#43));
#177=EDGE_LOOP('',(#44));
#178=EDGE_LOOP('',(#45));
#179=EDGE_LOOP('',(#46));
#180=EDGE_LOOP('',(#47));
#181=EDGE_LOOP('',(#48));
#182=EDGE_LOOP('',(#49));
#183=EDGE_LOOP('',(#50));
#184=EDGE_LOOP('',(#51));
#185=EDGE_LOOP('',(#52));
#186=EDGE_LOOP('',(#53));
#187=EDGE_LOOP('',(#54));
#188=EDGE_LOOP('',(#55));
#189=EDGE_LOOP('',(#56));
#190=EDGE_LOOP('',(#57));
#191=EDGE_LOOP('',(#58));
#192=EDGE_LOOP('',(#59));
#193=EDGE_LOOP('',(#60));
#194=EDGE_LOOP('',(#61));
#195=EDGE_LOOP('',(#62));
#196=EDGE_LOOP('',(#63));
#197=EDGE_LOOP('',(#64));
#198=EDGE_LOOP('',(#65));
#199=EDGE_LOOP('',(#66));
#200=EDGE_LOOP('',(#67,#68));
#201=EDGE_LOOP('',(#69));
#202=EDGE_LOOP('',(#70));
#203=EDGE_LOOP('',(#71));
#204=EDGE_LOOP('',(#72));
#205=EDGE_LOOP('',(#73));
#206=EDGE_LOOP('',(#74));
#207=EDGE_LOOP('',(#75));
#208=EDGE_LOOP('',(#76));
#209=EDGE_LOOP('',(#77));
#210=EDGE_LOOP('',(#78));
#211=EDGE_LOOP('',(#79));
#212=EDGE_LOOP('',(#80));
#213=EDGE_LOOP('',(#81));
#214=EDGE_LOOP('',(#82,#83));
#215=EDGE_LOOP('',(#84));
#216=EDGE_LOOP('',(#85));
#217=EDGE_LOOP('',(#86));
#218=EDGE_LOOP('',(#87));
#219=EDGE_LOOP('',(#88));
#220=EDGE_LOOP('',(#89));
#221=EDGE_LOOP('',(#90));
#222=FACE_BOUND('',#170,.T.);
#223=FACE_BOUND('',#171,.T.);
#224=FACE_BOUND('',#172,.T.);
#225=FACE_BOUND('',#173,.T.);
#226=FACE_BOUND('',#174,.T.);
#227=FACE_BOUND('',#175,.T.);
#228=FACE_BOUND('',#176,.T.);
#229=FACE_BOUND('',#177,.T.);
#230=FACE_BOUND('',#178,.T.);
#231=FACE_BOUND('',#179,.T.);
#232=FACE_BOUND('',#180,.T.);
#233=FACE_BOUND('',#181,.T.);
#234=FACE_BOUND('',#182,.T.);
#235=FACE_BOUND('',#183,.T.);
#236=FACE_BOUND('',#184,.T.);
#237=FACE_BOUND('',#185,.T.);
#238=FACE_BOUND('',#186,.T.);
#239=FACE_BOUND('',#187,.T.);
#240=FACE_BOUND('',#188,.T.);
#241=FACE_BOUND('',#189,.T.);
#242=FACE_BOUND('',#190,.T.);
#243=FACE_BOUND('',#191,.T.);
#244=FACE_BOUND('',#192,.T.);
#245=FACE_BOUND('',#193,.T.);
#246=FACE_BOUND('',#194,.T.);
#247=FACE_BOUND('',#195,.T.);
#248=FACE_BOUND('',#196,.T.);
#249=FACE_BOUND('',#197,.T.);
#250=FACE_BOUND('',#198,.T.);
#251=FACE_BOUND('',#199,.T.);
#252=FACE_BOUND('',#200,.T.);
#253=FACE_BOUND('',#201,.T.);
#254=FACE_BOUND('',#202,.T.);
#255=FACE_BOUND('',#203,.T.);
#256=FACE_BOUND('',#204,.T.);
#257=FACE_BOUND('',#205,.T.);
#258=FACE_BOUND('',#206,.T.);
#259=FACE_BOUND('',#207,.T.);
#260=FACE_BOUND('',#208,.T.);
#261=FACE_BOUND('',#209,.T.);
#262=FACE_BOUND('',#210,.T.);
#263=FACE_BOUND('',#211,.T.);
#264=FACE_BOUND('',#212,.T.);
#265=FACE_BOUND('',#213,.T.);
#266=FACE_BOUND('',#214,.T.);
#267=FACE_BOUND('',#215,.T.);
#268=FACE_BOUND('',#216,.T.);
#269=FACE_BOUND('',#217,.T.);
#270=FACE_BOUND('',#218,.T.);
#271=FACE_BOUND('',#219,.T.);
#272=FACE_BOUND('',#220,.T.);
#273=FACE_BOUND('',#221,.T.);
#274=PLANE('',#308);
#275=PLANE('',#339);
#276=PLANE('',#341);
#277=ADVANCED_FACE('',(#222,#223,#224,#225,#226,#227,#228,#229,#230,#231),
#274,.F.);
#278=ADVANCED_FACE('',(#232,#233),#26,.F.);
#279=ADVANCED_FACE('',(#234,#235),#27,.F.);
#280=ADVANCED_FACE('',(#236,#237),#23,.T.);
#281=ADVANCED_FACE('',(#238,#239),#28,.F.);
#282=ADVANCED_FACE('',(#240,#241),#29,.F.);
#283=ADVANCED_FACE('',(#242,#243),#30,.F.);
#284=ADVANCED_FACE('',(#244,#245),#31,.F.);
#285=ADVANCED_FACE('',(#246,#247),#32,.F.);
#286=ADVANCED_FACE('',(#248,#249),#33,.F.);
#287=ADVANCED_FACE('',(#250,#251),#34,.F.);
#288=ADVANCED_FACE('',(#252,#253,#254,#255,#256,#257,#258,#259,#260,#261),
#275,.F.);
#289=ADVANCED_FACE('',(#262,#263),#276,.F.);
#290=ADVANCED_FACE('',(#264,#265),#35,.T.);
#291=ADVANCED_FACE('',(#266,#267),#20,.F.);
#292=ADVANCED_FACE('',(#268,#269),#24,.T.);
#293=ADVANCED_FACE('',(#270,#271),#25,.T.);
#294=ADVANCED_FACE('',(#272,#273),#36,.T.);
#295=CLOSED_SHELL('',(#277,#278,#279,#280,#281,#282,#283,#284,#285,#286,
#287,#288,#289,#290,#291,#292,#293,#294));
#296=STYLED_ITEM('',(#297),#304);
#297=PRESENTATION_STYLE_ASSIGNMENT((#298));
#298=SURFACE_STYLE_USAGE(.BOTH.,#299);
#299=SURFACE_SIDE_STYLE('',(#300));
#300=SURFACE_STYLE_FILL_AREA(#301);
#301=FILL_AREA_STYLE('',(#302));
#302=FILL_AREA_STYLE_COLOUR('',#303);
#303=COLOUR_RGB('',0.752941176470588,0.752941176470588,1.);
#304=MANIFOLD_SOLID_BREP('KP0009-01_GearCSF-14-XXX-2A-R',#295);
#305=SHAPE_DEFINITION_REPRESENTATION(#586,#306);
#306=SHAPE_REPRESENTATION('KP0009-01_GearCSF-14-XXX-2A-R',(#307),#581);
#307=AXIS2_PLACEMENT_3D('',#439,#351,#352);
#308=AXIS2_PLACEMENT_3D('',#440,#353,#354);
#309=AXIS2_PLACEMENT_3D('',#441,#355,#356);
#310=AXIS2_PLACEMENT_3D('',#443,#357,#358);
#311=AXIS2_PLACEMENT_3D('',#445,#359,#360);
#312=AXIS2_PLACEMENT_3D('',#447,#361,#362);
#313=AXIS2_PLACEMENT_3D('',#449,#363,#364);
#314=AXIS2_PLACEMENT_3D('',#451,#365,#366);
#315=AXIS2_PLACEMENT_3D('',#453,#367,#368);
#316=AXIS2_PLACEMENT_3D('',#455,#369,#370);
#317=AXIS2_PLACEMENT_3D('',#457,#371,#372);
#318=AXIS2_PLACEMENT_3D('',#459,#373,#374);
#319=AXIS2_PLACEMENT_3D('',#461,#375,#376);
#320=AXIS2_PLACEMENT_3D('',#462,#377,#378);
#321=AXIS2_PLACEMENT_3D('',#464,#379,#380);
#322=AXIS2_PLACEMENT_3D('',#465,#381,#382);
#323=AXIS2_PLACEMENT_3D('',#467,#383,#384);
#324=AXIS2_PLACEMENT_3D('',#468,#385,#386);
#325=AXIS2_PLACEMENT_3D('',#470,#387,#388);
#326=AXIS2_PLACEMENT_3D('',#471,#389,#390);
#327=AXIS2_PLACEMENT_3D('',#473,#391,#392);
#328=AXIS2_PLACEMENT_3D('',#474,#393,#394);
#329=AXIS2_PLACEMENT_3D('',#476,#395,#396);
#330=AXIS2_PLACEMENT_3D('',#477,#397,#398);
#331=AXIS2_PLACEMENT_3D('',#479,#399,#400);
#332=AXIS2_PLACEMENT_3D('',#480,#401,#402);
#333=AXIS2_PLACEMENT_3D('',#482,#403,#404);
#334=AXIS2_PLACEMENT_3D('',#483,#405,#406);
#335=AXIS2_PLACEMENT_3D('',#485,#407,#408);
#336=AXIS2_PLACEMENT_3D('',#486,#409,#410);
#337=AXIS2_PLACEMENT_3D('',#488,#411,#412);
#338=AXIS2_PLACEMENT_3D('',#489,#413,#414);
#339=AXIS2_PLACEMENT_3D('',#491,#415,#416);
#340=AXIS2_PLACEMENT_3D('',#564,#417,#418);
#341=AXIS2_PLACEMENT_3D('',#566,#419,#420);
#342=AXIS2_PLACEMENT_3D('',#567,#421,#422);
#343=AXIS2_PLACEMENT_3D('',#569,#423,#424);
#344=AXIS2_PLACEMENT_3D('',#570,#425,#426);
#345=AXIS2_PLACEMENT_3D('',#572,#427,#428);
#346=AXIS2_PLACEMENT_3D('',#573,#429,#430);
#347=AXIS2_PLACEMENT_3D('',#575,#431,#432);
#348=AXIS2_PLACEMENT_3D('',#576,#433,#434);
#349=AXIS2_PLACEMENT_3D('',#577,#435,#436);
#350=AXIS2_PLACEMENT_3D('',#579,#437,#438);
#351=DIRECTION('',(0.,0.,1.));
#352=DIRECTION('',(1.,0.,0.));
#353=DIRECTION('',(-1.,0.,0.));
#354=DIRECTION('',(0.,-1.,0.));
#355=DIRECTION('',(1.,0.,0.));
#356=DIRECTION('',(0.,1.,0.));
#357=DIRECTION('',(-1.,0.,0.));
#358=DIRECTION('',(0.,-1.,0.));
#359=DIRECTION('',(-1.,0.,0.));
#360=DIRECTION('',(0.,-1.,0.));
#361=DIRECTION('',(1.,0.,0.));
#362=DIRECTION('',(0.,1.,0.));
#363=DIRECTION('',(1.,0.,0.));
#364=DIRECTION('',(0.,1.,0.));
#365=DIRECTION('',(1.,0.,0.));
#366=DIRECTION('',(0.,1.,0.));
#367=DIRECTION('',(1.,0.,0.));
#368=DIRECTION('',(0.,1.,0.));
#369=DIRECTION('',(1.,0.,0.));
#370=DIRECTION('',(0.,1.,0.));
#371=DIRECTION('',(1.,0.,0.));
#372=DIRECTION('',(0.,1.,0.));
#373=DIRECTION('',(1.,0.,0.));
#374=DIRECTION('',(0.,1.,0.));
#375=DIRECTION('',(1.,0.,0.));
#376=DIRECTION('',(0.,1.,0.));
#377=DIRECTION('',(1.,0.,0.));
#378=DIRECTION('',(0.,1.,0.));
#379=DIRECTION('',(-1.,0.,0.));
#380=DIRECTION('',(0.,-1.,0.));
#381=DIRECTION('',(-1.,0.,0.));
#382=DIRECTION('',(0.,-1.,0.));
#383=DIRECTION('',(-1.,0.,0.));
#384=DIRECTION('',(0.,-1.,0.));
#385=DIRECTION('',(-1.,0.,0.));
#386=DIRECTION('',(0.,-1.,0.));
#387=DIRECTION('',(1.,0.,0.));
#388=DIRECTION('',(0.,1.,0.));
#389=DIRECTION('',(1.,0.,0.));
#390=DIRECTION('',(0.,1.,0.));
#391=DIRECTION('',(1.,0.,0.));
#392=DIRECTION('',(0.,1.,0.));
#393=DIRECTION('',(1.,0.,0.));
#394=DIRECTION('',(0.,1.,0.));
#395=DIRECTION('',(1.,0.,0.));
#396=DIRECTION('',(0.,1.,0.));
#397=DIRECTION('',(1.,0.,0.));
#398=DIRECTION('',(0.,1.,0.));
#399=DIRECTION('',(1.,0.,0.));
#400=DIRECTION('',(0.,1.,0.));
#401=DIRECTION('',(1.,0.,0.));
#402=DIRECTION('',(0.,1.,0.));
#403=DIRECTION('',(1.,0.,0.));
#404=DIRECTION('',(0.,1.,0.));
#405=DIRECTION('',(1.,0.,0.));
#406=DIRECTION('',(0.,1.,0.));
#407=DIRECTION('',(1.,0.,0.));
#408=DIRECTION('',(0.,1.,0.));
#409=DIRECTION('',(1.,0.,0.));
#410=DIRECTION('',(0.,1.,0.));
#411=DIRECTION('',(1.,0.,0.));
#412=DIRECTION('',(0.,1.,0.));
#413=DIRECTION('',(1.,0.,0.));
#414=DIRECTION('',(0.,1.,0.));
#415=DIRECTION('',(1.,0.,0.));
#416=DIRECTION('',(0.,1.,0.));
#417=DIRECTION('',(1.,0.,0.));
#418=DIRECTION('',(0.,1.,0.));
#419=DIRECTION('',(1.,0.,0.));
#420=DIRECTION('',(0.,1.,0.));
#421=DIRECTION('',(1.,0.,0.));
#422=DIRECTION('',(0.,1.,0.));
#423=DIRECTION('',(-1.,0.,0.));
#424=DIRECTION('',(0.,-1.,0.));
#425=DIRECTION('',(-1.,0.,0.));
#426=DIRECTION('',(0.,-1.,0.));
#427=DIRECTION('',(1.,0.,0.));
#428=DIRECTION('',(0.,1.,0.));
#429=DIRECTION('',(1.,0.,0.));
#430=DIRECTION('',(0.,1.,0.));
#431=DIRECTION('',(1.,0.,0.));
#432=DIRECTION('',(0.,1.,0.));
#433=DIRECTION('',(1.,0.,0.));
#434=DIRECTION('',(0.,1.,0.));
#435=DIRECTION('',(1.,0.,0.));
#436=DIRECTION('',(-6.8475926683295E-17,1.,0.));
#437=DIRECTION('',(-1.,0.,0.));
#438=DIRECTION('',(0.,-1.,0.));
#439=CARTESIAN_POINT('',(0.,0.,0.));
#440=CARTESIAN_POINT('',(0.006,0.,0.025));
#441=CARTESIAN_POINT('',(0.006,-0.0109999999999999,0.0190525588832577));
#442=CARTESIAN_POINT('',(0.006,-0.00974999999999988,0.0190525588832577));
#443=CARTESIAN_POINT('',(0.006,0.,0.));
#444=CARTESIAN_POINT('',(0.006,-0.017349999,0.));
#445=CARTESIAN_POINT('',(0.006,0.,0.));
#446=CARTESIAN_POINT('',(0.006,-0.0246,0.));
#447=CARTESIAN_POINT('',(0.006,0.,0.022));
#448=CARTESIAN_POINT('',(0.006,0.00175,0.022));
#449=CARTESIAN_POINT('',(0.006,0.0190525588832577,0.011));
#450=CARTESIAN_POINT('',(0.006,0.0208025588832577,0.011));
#451=CARTESIAN_POINT('',(0.006,0.0190525588832576,-0.011));
#452=CARTESIAN_POINT('',(0.006,0.0208025588832576,-0.011));
#453=CARTESIAN_POINT('',(0.006,0.,-0.022));
#454=CARTESIAN_POINT('',(0.006,0.00175,-0.022));
#455=CARTESIAN_POINT('',(0.006,-0.0190525588832578,-0.0109999999999998));
#456=CARTESIAN_POINT('',(0.006,-0.0173025588832578,-0.0109999999999998));
#457=CARTESIAN_POINT('',(0.006,-0.0190525588832575,0.0110000000000002));
#458=CARTESIAN_POINT('',(0.006,-0.0173025588832575,0.0110000000000002));
#459=CARTESIAN_POINT('',(0.006,0.0109999999999999,-0.0190525588832577));
#460=CARTESIAN_POINT('',(0.006,0.0122499999999999,-0.0190525588832577));
#461=CARTESIAN_POINT('',(0.006,-0.0109999999999999,0.0190525588832577));
#462=CARTESIAN_POINT('',(0.,-0.0109999999999999,0.0190525588832577));
#463=CARTESIAN_POINT('',(0.,-0.00974999999999988,0.0190525588832577));
#464=CARTESIAN_POINT('',(-0.001616228,0.,0.));
#465=CARTESIAN_POINT('',(-0.002,0.,0.));
#466=CARTESIAN_POINT('',(-0.002,-0.017349999,0.));
#467=CARTESIAN_POINT('',(0.0056,0.,0.));
#468=CARTESIAN_POINT('',(0.0056,0.,0.));
#469=CARTESIAN_POINT('',(0.0056,-0.025,0.));
#470=CARTESIAN_POINT('',(0.006,0.,0.022));
#471=CARTESIAN_POINT('',(0.,0.,0.022));
#472=CARTESIAN_POINT('',(0.,0.00175,0.022));
#473=CARTESIAN_POINT('',(0.006,0.0190525588832577,0.011));
#474=CARTESIAN_POINT('',(0.,0.0190525588832577,0.011));
#475=CARTESIAN_POINT('',(0.,0.0208025588832577,0.011));
#476=CARTESIAN_POINT('',(0.006,0.0190525588832576,-0.011));
#477=CARTESIAN_POINT('',(0.,0.0190525588832576,-0.011));
#478=CARTESIAN_POINT('',(0.,0.0208025588832576,-0.011));
#479=CARTESIAN_POINT('',(0.006,0.,-0.022));
#480=CARTESIAN_POINT('',(0.,0.,-0.022));
#481=CARTESIAN_POINT('',(0.,0.00175,-0.022));
#482=CARTESIAN_POINT('',(0.006,-0.0190525588832578,-0.0109999999999998));
#483=CARTESIAN_POINT('',(0.,-0.0190525588832578,-0.0109999999999998));
#484=CARTESIAN_POINT('',(0.,-0.0173025588832578,-0.0109999999999998));
#485=CARTESIAN_POINT('',(0.006,-0.0190525588832575,0.0110000000000002));
#486=CARTESIAN_POINT('',(0.,-0.0190525588832575,0.0110000000000002));
#487=CARTESIAN_POINT('',(0.,-0.0173025588832575,0.0110000000000002));
#488=CARTESIAN_POINT('',(0.006,0.0109999999999999,-0.0190525588832577));
#489=CARTESIAN_POINT('',(0.,0.0109999999999999,-0.0190525588832577));
#490=CARTESIAN_POINT('',(0.,0.0122499999999999,-0.0190525588832577));
#491=CARTESIAN_POINT('',(0.,0.,0.019));
#492=CARTESIAN_POINT('',(0.,0.0193,0.));
#493=CARTESIAN_POINT('',(0.,0.0193,-0.0005901525192384));
#494=CARTESIAN_POINT('',(0.,0.0192441873260745,-0.00177380882199075));
#495=CARTESIAN_POINT('',(0.,0.0190120347743991,-0.00348564338465198));
#496=CARTESIAN_POINT('',(0.,0.0185744352389685,-0.00535493910872775));
#497=CARTESIAN_POINT('',(0.,0.0179830520813753,-0.0070921699964367));
#498=CARTESIAN_POINT('',(0.,0.0171628416985598,-0.00890174827279035));
#499=CARTESIAN_POINT('',(0.,0.0161887786469592,-0.0105678997230761));
#500=CARTESIAN_POINT('',(0.,0.0150061239127231,-0.012193542276905));
#501=CARTESIAN_POINT('',(0.,0.0136706168769573,-0.0136709936587811));
#502=CARTESIAN_POINT('',(0.,0.0121943738408497,-0.0150054483493727));
#503=CARTESIAN_POINT('',(0.,0.0105674591417349,-0.0161890683753199));
#504=CARTESIAN_POINT('',(0.,0.00890267903421012,-0.0171623583484672));
#505=CARTESIAN_POINT('',(0.,0.00709169870424262,-0.0179832450484311));
#506=CARTESIAN_POINT('',(0.,0.0053558935160843,-0.0185741467208379));
#507=CARTESIAN_POINT('',(0.,0.00348532374182653,-0.0190121218137461));
#508=CARTESIAN_POINT('',(0.,0.00177413298593595,-0.0192441276868171));
#509=CARTESIAN_POINT('',(0.,-2.63790040584231E-7,-0.0193279118401532));
#510=CARTESIAN_POINT('',(0.,-0.00177307782577363,-0.01924422495257));
#511=CARTESIAN_POINT('',(0.,-0.00348583925449704,-0.0190120246924044));
#512=CARTESIAN_POINT('',(0.,-0.00535488662556462,-0.0185744379404517));
#513=CARTESIAN_POINT('',(0.,-0.00709218405923609,-0.0179830513574407));
#514=CARTESIAN_POINT('',(0.,-0.00890174450475598,-0.0171628418928151));
#515=CARTESIAN_POINT('',(0.,-0.0105679007324626,-0.0161887785938538));
#516=CARTESIAN_POINT('',(0.,-0.0121935420073929,-0.0150061239308895));
#517=CARTESIAN_POINT('',(0.,-0.0136709937275354,-0.0136706168573237));
#518=CARTESIAN_POINT('',(0.,-0.0150054483438677,-0.0121943739012179));
#519=CARTESIAN_POINT('',(0.,-0.0161890683285279,-0.0105674589199344));
#520=CARTESIAN_POINT('',(0.,-0.0171623585411409,-0.00890267986104398));
#521=CARTESIAN_POINT('',(0.,-0.0179832443244395,-0.00709169561889301));
#522=CARTESIAN_POINT('',(0.,-0.0185741494241304,-0.00535590503064888));
#523=CARTESIAN_POINT('',(0.,-0.0190121117245478,-0.00348528076900616));
#524=CARTESIAN_POINT('',(0.,-0.0192441653403177,-0.00177429336265287));
#525=CARTESIAN_POINT('',(0.,-0.0193,-0.000590330289461284));
#526=CARTESIAN_POINT('',(0.,-0.0193,0.));
#527=CARTESIAN_POINT('',(3.25260651745652E-20,0.0193,0.));
#528=CARTESIAN_POINT('',(3.25260651745652E-20,-0.0193,2.80591977419408E-18));
#529=CARTESIAN_POINT('',(0.,-0.0193,0.));
#530=CARTESIAN_POINT('',(0.,-0.0193,0.000590152519237417));
#531=CARTESIAN_POINT('',(0.,-0.0192441873260745,0.00177380882198901));
#532=CARTESIAN_POINT('',(0.,-0.0190120347743993,0.0034856433846507));
#533=CARTESIAN_POINT('',(0.,-0.0185744352389678,0.00535493910873462));
#534=CARTESIAN_POINT('',(0.,-0.0179830520813746,0.00709216999643801));
#535=CARTESIAN_POINT('',(0.,-0.017162841698563,0.00890174827277819));
#536=CARTESIAN_POINT('',(0.,-0.0161887786469568,0.0105678997230796));
#537=CARTESIAN_POINT('',(0.,-0.0150061239127297,0.012193542276903));
#538=CARTESIAN_POINT('',(0.,-0.0136706168769531,0.013670993658785));
#539=CARTESIAN_POINT('',(0.,-0.0121943738408599,0.0150054483493593));
#540=CARTESIAN_POINT('',(0.,-0.0105674591417185,0.0161890683753303));
#541=CARTESIAN_POINT('',(0.,-0.00890267903426535,0.0171623583484395));
#542=CARTESIAN_POINT('',(0.,-0.00709169870421425,0.0179832450484422));
#543=CARTESIAN_POINT('',(0.,-0.00535589351614248,0.0185741467208211));
#544=CARTESIAN_POINT('',(0.,-0.00348532374179764,0.0190121218137518));
#545=CARTESIAN_POINT('',(0.,-0.00177413298599329,0.0192441276868111));
#546=CARTESIAN_POINT('',(0.,2.63790055256058E-7,0.0193279118401538));
#547=CARTESIAN_POINT('',(0.,0.00177307782577227,0.0192442249525739));
#548=CARTESIAN_POINT('',(0.,0.00348583925449024,0.0190120246924059));
#549=CARTESIAN_POINT('',(0.,0.00535488662559314,0.0185744379404417));
#550=CARTESIAN_POINT('',(0.,0.0070921840592363,0.0179830513574402));
#551=CARTESIAN_POINT('',(0.,0.00890174450472658,0.0171628418928271));
#552=CARTESIAN_POINT('',(0.,0.0105679007324797,0.0161887785938419));
#553=CARTESIAN_POINT('',(0.,0.0121935420073539,0.0150061239309249));
#554=CARTESIAN_POINT('',(0.,0.0136709937275588,0.0136706168572997));
#555=CARTESIAN_POINT('',(0.,0.0150054483438129,0.0121943739012784));
#556=CARTESIAN_POINT('',(0.,0.0161890683285513,0.0105674589198985));
#557=CARTESIAN_POINT('',(0.,0.0171623585411015,0.00890267986112713));
#558=CARTESIAN_POINT('',(0.,0.0179832443244528,0.00709169561886074));
#559=CARTESIAN_POINT('',(0.,0.0185741494241167,0.00535590503069476));
#560=CARTESIAN_POINT('',(0.,0.0190121117245515,0.00348528076898956));
#561=CARTESIAN_POINT('',(0.,0.0192441653403167,0.0017742933626734));
#562=CARTESIAN_POINT('',(0.,0.0193,0.000590330289468649));
#563=CARTESIAN_POINT('',(0.,0.0193,0.));
#564=CARTESIAN_POINT('',(0.,0.,0.));
#565=CARTESIAN_POINT('',(0.,0.0246,0.));
#566=CARTESIAN_POINT('',(-0.002,0.,0.017349999));
#567=CARTESIAN_POINT('',(-0.002,0.,0.));
#568=CARTESIAN_POINT('',(-0.002,0.0187,0.));
#569=CARTESIAN_POINT('',(-0.001616228,0.,0.));
#570=CARTESIAN_POINT('',(0.000400000000000005,0.,0.));
#571=CARTESIAN_POINT('',(0.000400000000000005,-0.025,0.));
#572=CARTESIAN_POINT('',(-0.0003,0.,0.));
#573=CARTESIAN_POINT('',(-0.0003,0.,0.));
#574=CARTESIAN_POINT('',(-0.0003,0.019,0.));
#575=CARTESIAN_POINT('',(0.000400000000000005,0.,0.));
#576=CARTESIAN_POINT('',(-0.0017,0.,0.));
#577=CARTESIAN_POINT('',(-0.0017,0.,0.));
#578=CARTESIAN_POINT('',(-0.0017,0.019,0.));
#579=CARTESIAN_POINT('',(-0.001616228,0.,0.));
#580=MECHANICAL_DESIGN_GEOMETRIC_PRESENTATION_REPRESENTATION('',(#296),
#581);
#581=(
GEOMETRIC_REPRESENTATION_CONTEXT(3)
GLOBAL_UNCERTAINTY_ASSIGNED_CONTEXT((#582))
GLOBAL_UNIT_ASSIGNED_CONTEXT((#585,#584,#583))
REPRESENTATION_CONTEXT('KP0009-01_GearCSF-14-XXX-2A-R',
'TOP_LEVEL_ASSEMBLY_PART')
);
#582=UNCERTAINTY_MEASURE_WITH_UNIT(LENGTH_MEASURE(2.E-5),#585,
'DISTANCE_ACCURACY_VALUE','Maximum Tolerance applied to model');
#583=(
NAMED_UNIT(*)
SI_UNIT($,.STERADIAN.)
SOLID_ANGLE_UNIT()
);
#584=(
NAMED_UNIT(*)
PLANE_ANGLE_UNIT()
SI_UNIT($,.RADIAN.)
);
#585=(
LENGTH_UNIT()
NAMED_UNIT(*)
SI_UNIT($,.METRE.)
);
#586=PRODUCT_DEFINITION_SHAPE('','',#587);
#587=PRODUCT_DEFINITION('','',#589,#588);
#588=PRODUCT_DEFINITION_CONTEXT('',#595,'design');
#589=PRODUCT_DEFINITION_FORMATION_WITH_SPECIFIED_SOURCE('','',#591,
 .NOT_KNOWN.);
#590=PRODUCT_RELATED_PRODUCT_CATEGORY('','',(#591));
#591=PRODUCT('KP0009-01_GearCSF-14-XXX-2A-R',
'KP0009-01_GearCSF-14-XXX-2A-R','KP0009-01_GearCSF-14-XXX-2A-R',(#593));
#592=PRODUCT_CATEGORY('','');
#593=PRODUCT_CONTEXT('',#595,'mechanical');
#594=APPLICATION_PROTOCOL_DEFINITION('international standard',
'automotive_design',2010,#595);
#595=APPLICATION_CONTEXT(
'core data for automotive mechanical design processes');
ENDSEC;
END-ISO-10303-21;
