ISO-10303-21;
HEADER;
/* Generated by software containing ST-Developer
 * from STEP Tools, Inc. (www.steptools.com) 
 */
/* OPTION: using custom renumber hook */

FILE_DESCRIPTION(
/* description */ ('STEP AP214',
'CAx-IF Rec.Pracs.---User Defined Attributes---1.5---2016-08-15'),
/* implementation_level */ '2;1');

FILE_NAME(
/* name */ '6a65b55465321e5002a567df',
/* time_stamp */ '2026-07-26T07:20:52Z',
/* author */ (''),
/* organization */ (''),
/* preprocessor_version */ 'ST-DEVELOPER v20',
/* originating_system */ 'ONSHAPE BY PTC INC, 1.218',
/* authorisation */ '  ');

FILE_SCHEMA (('AUTOMOTIVE_DESIGN {1 0 10303 214 3 1 1}'));
ENDSEC;

DATA;
#10=PROPERTY_DEFINITION_REPRESENTATION(#14,#12);
#11=PROPERTY_DEFINITION_REPRESENTATION(#15,#13);
#12=REPRESENTATION('',(#16),#601);
#13=REPRESENTATION('',(#17),#601);
#14=PROPERTY_DEFINITION('pmi validation property','',#606);
#15=PROPERTY_DEFINITION('pmi validation property','',#606);
#16=VALUE_REPRESENTATION_ITEM('number of annotations',COUNT_MEASURE(0.));
#17=VALUE_REPRESENTATION_ITEM('number of views',COUNT_MEASURE(0.));
#18=SHAPE_REPRESENTATION_RELATIONSHIP('','',#363,#19);
#19=ADVANCED_BREP_SHAPE_REPRESENTATION('',(#361),#601);
#20=CYLINDRICAL_SURFACE('',#387,0.0015);
#21=CYLINDRICAL_SURFACE('',#388,0.0015);
#22=CYLINDRICAL_SURFACE('',#389,0.0015);
#23=CYLINDRICAL_SURFACE('',#390,0.0015);
#24=CYLINDRICAL_SURFACE('',#391,0.0005);
#25=CYLINDRICAL_SURFACE('',#393,0.0005);
#26=CYLINDRICAL_SURFACE('',#395,0.0005);
#27=CYLINDRICAL_SURFACE('',#397,0.0005);
#28=CIRCLE('',#370,0.0005);
#29=CIRCLE('',#371,0.0005);
#30=CIRCLE('',#372,0.0005);
#31=CIRCLE('',#373,0.0005);
#32=CIRCLE('',#374,0.0015);
#33=CIRCLE('',#375,0.0015);
#34=CIRCLE('',#376,0.0015);
#35=CIRCLE('',#377,0.0015);
#36=CIRCLE('',#379,0.0005);
#37=CIRCLE('',#380,0.0005);
#38=CIRCLE('',#381,0.0005);
#39=CIRCLE('',#382,0.0005);
#40=CIRCLE('',#383,0.0015);
#41=CIRCLE('',#384,0.0015);
#42=CIRCLE('',#385,0.0015);
#43=CIRCLE('',#386,0.0015);
#44=ORIENTED_EDGE('',*,*,#140,.F.);
#45=ORIENTED_EDGE('',*,*,#141,.T.);
#46=ORIENTED_EDGE('',*,*,#142,.T.);
#47=ORIENTED_EDGE('',*,*,#143,.T.);
#48=ORIENTED_EDGE('',*,*,#144,.T.);
#49=ORIENTED_EDGE('',*,*,#145,.T.);
#50=ORIENTED_EDGE('',*,*,#146,.F.);
#51=ORIENTED_EDGE('',*,*,#147,.T.);
#52=ORIENTED_EDGE('',*,*,#148,.T.);
#53=ORIENTED_EDGE('',*,*,#149,.T.);
#54=ORIENTED_EDGE('',*,*,#150,.F.);
#55=ORIENTED_EDGE('',*,*,#151,.T.);
#56=ORIENTED_EDGE('',*,*,#152,.T.);
#57=ORIENTED_EDGE('',*,*,#153,.T.);
#58=ORIENTED_EDGE('',*,*,#154,.F.);
#59=ORIENTED_EDGE('',*,*,#155,.T.);
#60=ORIENTED_EDGE('',*,*,#156,.T.);
#61=ORIENTED_EDGE('',*,*,#157,.T.);
#62=ORIENTED_EDGE('',*,*,#158,.T.);
#63=ORIENTED_EDGE('',*,*,#159,.T.);
#64=ORIENTED_EDGE('',*,*,#160,.T.);
#65=ORIENTED_EDGE('',*,*,#161,.T.);
#66=ORIENTED_EDGE('',*,*,#162,.T.);
#67=ORIENTED_EDGE('',*,*,#163,.T.);
#68=ORIENTED_EDGE('',*,*,#154,.T.);
#69=ORIENTED_EDGE('',*,*,#164,.T.);
#70=ORIENTED_EDGE('',*,*,#140,.T.);
#71=ORIENTED_EDGE('',*,*,#165,.T.);
#72=ORIENTED_EDGE('',*,*,#146,.T.);
#73=ORIENTED_EDGE('',*,*,#166,.T.);
#74=ORIENTED_EDGE('',*,*,#150,.T.);
#75=ORIENTED_EDGE('',*,*,#167,.T.);
#76=ORIENTED_EDGE('',*,*,#168,.F.);
#77=ORIENTED_EDGE('',*,*,#169,.F.);
#78=ORIENTED_EDGE('',*,*,#170,.F.);
#79=ORIENTED_EDGE('',*,*,#171,.F.);
#80=ORIENTED_EDGE('',*,*,#172,.F.);
#81=ORIENTED_EDGE('',*,*,#173,.F.);
#82=ORIENTED_EDGE('',*,*,#174,.F.);
#83=ORIENTED_EDGE('',*,*,#175,.F.);
#84=ORIENTED_EDGE('',*,*,#142,.F.);
#85=ORIENTED_EDGE('',*,*,#176,.T.);
#86=ORIENTED_EDGE('',*,*,#152,.F.);
#87=ORIENTED_EDGE('',*,*,#177,.T.);
#88=ORIENTED_EDGE('',*,*,#148,.F.);
#89=ORIENTED_EDGE('',*,*,#178,.T.);
#90=ORIENTED_EDGE('',*,*,#144,.F.);
#91=ORIENTED_EDGE('',*,*,#179,.T.);
#92=ORIENTED_EDGE('',*,*,#164,.F.);
#93=ORIENTED_EDGE('',*,*,#153,.F.);
#94=ORIENTED_EDGE('',*,*,#176,.F.);
#95=ORIENTED_EDGE('',*,*,#141,.F.);
#96=ORIENTED_EDGE('',*,*,#167,.F.);
#97=ORIENTED_EDGE('',*,*,#149,.F.);
#98=ORIENTED_EDGE('',*,*,#177,.F.);
#99=ORIENTED_EDGE('',*,*,#155,.F.);
#100=ORIENTED_EDGE('',*,*,#166,.F.);
#101=ORIENTED_EDGE('',*,*,#145,.F.);
#102=ORIENTED_EDGE('',*,*,#178,.F.);
#103=ORIENTED_EDGE('',*,*,#151,.F.);
#104=ORIENTED_EDGE('',*,*,#165,.F.);
#105=ORIENTED_EDGE('',*,*,#143,.F.);
#106=ORIENTED_EDGE('',*,*,#179,.F.);
#107=ORIENTED_EDGE('',*,*,#147,.F.);
#108=ORIENTED_EDGE('',*,*,#168,.T.);
#109=ORIENTED_EDGE('',*,*,#180,.F.);
#110=ORIENTED_EDGE('',*,*,#157,.F.);
#111=ORIENTED_EDGE('',*,*,#181,.T.);
#112=ORIENTED_EDGE('',*,*,#169,.T.);
#113=ORIENTED_EDGE('',*,*,#181,.F.);
#114=ORIENTED_EDGE('',*,*,#156,.F.);
#115=ORIENTED_EDGE('',*,*,#182,.T.);
#116=ORIENTED_EDGE('',*,*,#170,.T.);
#117=ORIENTED_EDGE('',*,*,#182,.F.);
#118=ORIENTED_EDGE('',*,*,#163,.F.);
#119=ORIENTED_EDGE('',*,*,#183,.T.);
#120=ORIENTED_EDGE('',*,*,#171,.T.);
#121=ORIENTED_EDGE('',*,*,#183,.F.);
#122=ORIENTED_EDGE('',*,*,#162,.F.);
#123=ORIENTED_EDGE('',*,*,#184,.T.);
#124=ORIENTED_EDGE('',*,*,#172,.T.);
#125=ORIENTED_EDGE('',*,*,#184,.F.);
#126=ORIENTED_EDGE('',*,*,#161,.F.);
#127=ORIENTED_EDGE('',*,*,#185,.T.);
#128=ORIENTED_EDGE('',*,*,#173,.T.);
#129=ORIENTED_EDGE('',*,*,#185,.F.);
#130=ORIENTED_EDGE('',*,*,#160,.F.);
#131=ORIENTED_EDGE('',*,*,#186,.T.);
#132=ORIENTED_EDGE('',*,*,#174,.T.);
#133=ORIENTED_EDGE('',*,*,#186,.F.);
#134=ORIENTED_EDGE('',*,*,#159,.F.);
#135=ORIENTED_EDGE('',*,*,#187,.T.);
#136=ORIENTED_EDGE('',*,*,#175,.T.);
#137=ORIENTED_EDGE('',*,*,#187,.F.);
#138=ORIENTED_EDGE('',*,*,#158,.F.);
#139=ORIENTED_EDGE('',*,*,#180,.T.);
#140=EDGE_CURVE('',#188,#189,#220,.T.);
#141=EDGE_CURVE('',#188,#190,#221,.T.);
#142=EDGE_CURVE('',#190,#191,#222,.T.);
#143=EDGE_CURVE('',#191,#189,#223,.F.);
#144=EDGE_CURVE('',#192,#193,#224,.T.);
#145=EDGE_CURVE('',#193,#194,#225,.F.);
#146=EDGE_CURVE('',#195,#194,#226,.T.);
#147=EDGE_CURVE('',#195,#192,#227,.T.);
#148=EDGE_CURVE('',#196,#197,#228,.T.);
#149=EDGE_CURVE('',#197,#198,#229,.F.);
#150=EDGE_CURVE('',#199,#198,#230,.T.);
#151=EDGE_CURVE('',#199,#196,#231,.T.);
#152=EDGE_CURVE('',#200,#201,#232,.T.);
#153=EDGE_CURVE('',#201,#202,#233,.F.);
#154=EDGE_CURVE('',#203,#202,#234,.T.);
#155=EDGE_CURVE('',#203,#200,#235,.T.);
#156=EDGE_CURVE('',#204,#205,#236,.T.);
#157=EDGE_CURVE('',#205,#206,#28,.T.);
#158=EDGE_CURVE('',#206,#207,#237,.T.);
#159=EDGE_CURVE('',#207,#208,#29,.T.);
#160=EDGE_CURVE('',#208,#209,#238,.T.);
#161=EDGE_CURVE('',#209,#210,#30,.T.);
#162=EDGE_CURVE('',#210,#211,#239,.T.);
#163=EDGE_CURVE('',#211,#204,#31,.T.);
#164=EDGE_CURVE('',#202,#188,#32,.F.);
#165=EDGE_CURVE('',#189,#195,#33,.F.);
#166=EDGE_CURVE('',#194,#199,#34,.F.);
#167=EDGE_CURVE('',#198,#203,#35,.F.);
#168=EDGE_CURVE('',#212,#213,#36,.T.);
#169=EDGE_CURVE('',#214,#212,#240,.T.);
#170=EDGE_CURVE('',#215,#214,#37,.T.);
#171=EDGE_CURVE('',#216,#215,#241,.T.);
#172=EDGE_CURVE('',#217,#216,#38,.T.);
#173=EDGE_CURVE('',#218,#217,#242,.T.);
#174=EDGE_CURVE('',#219,#218,#39,.T.);
#175=EDGE_CURVE('',#213,#219,#243,.T.);
#176=EDGE_CURVE('',#190,#201,#40,.T.);
#177=EDGE_CURVE('',#200,#197,#41,.T.);
#178=EDGE_CURVE('',#196,#193,#42,.T.);
#179=EDGE_CURVE('',#192,#191,#43,.T.);
#180=EDGE_CURVE('',#206,#213,#244,.T.);
#181=EDGE_CURVE('',#205,#212,#245,.T.);
#182=EDGE_CURVE('',#204,#214,#246,.T.);
#183=EDGE_CURVE('',#211,#215,#247,.T.);
#184=EDGE_CURVE('',#210,#216,#248,.T.);
#185=EDGE_CURVE('',#209,#217,#249,.T.);
#186=EDGE_CURVE('',#208,#218,#250,.T.);
#187=EDGE_CURVE('',#207,#219,#251,.T.);
#188=VERTEX_POINT('',#504);
#189=VERTEX_POINT('',#505);
#190=VERTEX_POINT('',#507);
#191=VERTEX_POINT('',#509);
#192=VERTEX_POINT('',#513);
#193=VERTEX_POINT('',#514);
#194=VERTEX_POINT('',#516);
#195=VERTEX_POINT('',#518);
#196=VERTEX_POINT('',#522);
#197=VERTEX_POINT('',#523);
#198=VERTEX_POINT('',#525);
#199=VERTEX_POINT('',#527);
#200=VERTEX_POINT('',#531);
#201=VERTEX_POINT('',#532);
#202=VERTEX_POINT('',#534);
#203=VERTEX_POINT('',#536);
#204=VERTEX_POINT('',#540);
#205=VERTEX_POINT('',#541);
#206=VERTEX_POINT('',#543);
#207=VERTEX_POINT('',#545);
#208=VERTEX_POINT('',#547);
#209=VERTEX_POINT('',#549);
#210=VERTEX_POINT('',#551);
#211=VERTEX_POINT('',#553);
#212=VERTEX_POINT('',#561);
#213=VERTEX_POINT('',#562);
#214=VERTEX_POINT('',#564);
#215=VERTEX_POINT('',#566);
#216=VERTEX_POINT('',#568);
#217=VERTEX_POINT('',#570);
#218=VERTEX_POINT('',#572);
#219=VERTEX_POINT('',#574);
#220=LINE('',#503,#252);
#221=LINE('',#506,#253);
#222=LINE('',#508,#254);
#223=LINE('',#510,#255);
#224=LINE('',#512,#256);
#225=LINE('',#515,#257);
#226=LINE('',#517,#258);
#227=LINE('',#519,#259);
#228=LINE('',#521,#260);
#229=LINE('',#524,#261);
#230=LINE('',#526,#262);
#231=LINE('',#528,#263);
#232=LINE('',#530,#264);
#233=LINE('',#533,#265);
#234=LINE('',#535,#266);
#235=LINE('',#537,#267);
#236=LINE('',#539,#268);
#237=LINE('',#544,#269);
#238=LINE('',#548,#270);
#239=LINE('',#552,#271);
#240=LINE('',#563,#272);
#241=LINE('',#567,#273);
#242=LINE('',#571,#274);
#243=LINE('',#575,#275);
#244=LINE('',#585,#276);
#245=LINE('',#586,#277);
#246=LINE('',#588,#278);
#247=LINE('',#590,#279);
#248=LINE('',#592,#280);
#249=LINE('',#594,#281);
#250=LINE('',#596,#282);
#251=LINE('',#598,#283);
#252=VECTOR('',#403,1.);
#253=VECTOR('',#404,1.);
#254=VECTOR('',#405,1.);
#255=VECTOR('',#406,1.);
#256=VECTOR('',#409,1.);
#257=VECTOR('',#410,1.);
#258=VECTOR('',#411,1.);
#259=VECTOR('',#412,1.);
#260=VECTOR('',#415,1.);
#261=VECTOR('',#416,1.);
#262=VECTOR('',#417,1.);
#263=VECTOR('',#418,1.);
#264=VECTOR('',#421,1.);
#265=VECTOR('',#422,1.);
#266=VECTOR('',#423,1.);
#267=VECTOR('',#424,1.);
#268=VECTOR('',#427,1.);
#269=VECTOR('',#430,1.);
#270=VECTOR('',#433,1.);
#271=VECTOR('',#436,1.);
#272=VECTOR('',#451,1.);
#273=VECTOR('',#454,1.);
#274=VECTOR('',#457,1.);
#275=VECTOR('',#460,1.);
#276=VECTOR('',#479,1.);
#277=VECTOR('',#480,1.);
#278=VECTOR('',#483,1.);
#279=VECTOR('',#486,1.);
#280=VECTOR('',#489,1.);
#281=VECTOR('',#492,1.);
#282=VECTOR('',#495,1.);
#283=VECTOR('',#498,1.);
#284=EDGE_LOOP('',(#44,#45,#46,#47));
#285=EDGE_LOOP('',(#48,#49,#50,#51));
#286=EDGE_LOOP('',(#52,#53,#54,#55));
#287=EDGE_LOOP('',(#56,#57,#58,#59));
#288=EDGE_LOOP('',(#60,#61,#62,#63,#64,#65,#66,#67));
#289=EDGE_LOOP('',(#68,#69,#70,#71,#72,#73,#74,#75));
#290=EDGE_LOOP('',(#76,#77,#78,#79,#80,#81,#82,#83));
#291=EDGE_LOOP('',(#84,#85,#86,#87,#88,#89,#90,#91));
#292=EDGE_LOOP('',(#92,#93,#94,#95));
#293=EDGE_LOOP('',(#96,#97,#98,#99));
#294=EDGE_LOOP('',(#100,#101,#102,#103));
#295=EDGE_LOOP('',(#104,#105,#106,#107));
#296=EDGE_LOOP('',(#108,#109,#110,#111));
#297=EDGE_LOOP('',(#112,#113,#114,#115));
#298=EDGE_LOOP('',(#116,#117,#118,#119));
#299=EDGE_LOOP('',(#120,#121,#122,#123));
#300=EDGE_LOOP('',(#124,#125,#126,#127));
#301=EDGE_LOOP('',(#128,#129,#130,#131));
#302=EDGE_LOOP('',(#132,#133,#134,#135));
#303=EDGE_LOOP('',(#136,#137,#138,#139));
#304=FACE_BOUND('',#284,.T.);
#305=FACE_BOUND('',#285,.T.);
#306=FACE_BOUND('',#286,.T.);
#307=FACE_BOUND('',#287,.T.);
#308=FACE_BOUND('',#288,.T.);
#309=FACE_BOUND('',#289,.T.);
#310=FACE_BOUND('',#290,.T.);
#311=FACE_BOUND('',#291,.T.);
#312=FACE_BOUND('',#292,.T.);
#313=FACE_BOUND('',#293,.T.);
#314=FACE_BOUND('',#294,.T.);
#315=FACE_BOUND('',#295,.T.);
#316=FACE_BOUND('',#296,.T.);
#317=FACE_BOUND('',#297,.T.);
#318=FACE_BOUND('',#298,.T.);
#319=FACE_BOUND('',#299,.T.);
#320=FACE_BOUND('',#300,.T.);
#321=FACE_BOUND('',#301,.T.);
#322=FACE_BOUND('',#302,.T.);
#323=FACE_BOUND('',#303,.T.);
#324=PLANE('',#365);
#325=PLANE('',#366);
#326=PLANE('',#367);
#327=PLANE('',#368);
#328=PLANE('',#369);
#329=PLANE('',#378);
#330=PLANE('',#392);
#331=PLANE('',#394);
#332=PLANE('',#396);
#333=PLANE('',#398);
#334=ADVANCED_FACE('',(#304),#324,.F.);
#335=ADVANCED_FACE('',(#305),#325,.F.);
#336=ADVANCED_FACE('',(#306),#326,.F.);
#337=ADVANCED_FACE('',(#307),#327,.F.);
#338=ADVANCED_FACE('',(#308,#309),#328,.F.);
#339=ADVANCED_FACE('',(#310,#311),#329,.T.);
#340=ADVANCED_FACE('',(#312),#20,.T.);
#341=ADVANCED_FACE('',(#313),#21,.T.);
#342=ADVANCED_FACE('',(#314),#22,.T.);
#343=ADVANCED_FACE('',(#315),#23,.T.);
#344=ADVANCED_FACE('',(#316),#24,.F.);
#345=ADVANCED_FACE('',(#317),#330,.F.);
#346=ADVANCED_FACE('',(#318),#25,.F.);
#347=ADVANCED_FACE('',(#319),#331,.F.);
#348=ADVANCED_FACE('',(#320),#26,.F.);
#349=ADVANCED_FACE('',(#321),#332,.F.);
#350=ADVANCED_FACE('',(#322),#27,.F.);
#351=ADVANCED_FACE('',(#323),#333,.F.);
#352=CLOSED_SHELL('',(#334,#335,#336,#337,#338,#339,#340,#341,#342,#343,
#344,#345,#346,#347,#348,#349,#350,#351));
#353=STYLED_ITEM('',(#354),#361);
#354=PRESENTATION_STYLE_ASSIGNMENT((#355));
#355=SURFACE_STYLE_USAGE(.BOTH.,#356);
#356=SURFACE_SIDE_STYLE('',(#357));
#357=SURFACE_STYLE_FILL_AREA(#358);
#358=FILL_AREA_STYLE('',(#359));
#359=FILL_AREA_STYLE_COLOUR('',#360);
#360=COLOUR_RGB('',0.792156862745098,0.819607843137255,0.933333333333333);
#361=MANIFOLD_SOLID_BREP('KP0069-01_ForarmBeam',#352);
#362=SHAPE_DEFINITION_REPRESENTATION(#606,#363);
#363=SHAPE_REPRESENTATION('KP0069-01_ForarmBeam',(#364),#601);
#364=AXIS2_PLACEMENT_3D('',#501,#399,#400);
#365=AXIS2_PLACEMENT_3D('',#502,#401,#402);
#366=AXIS2_PLACEMENT_3D('',#511,#407,#408);
#367=AXIS2_PLACEMENT_3D('',#520,#413,#414);
#368=AXIS2_PLACEMENT_3D('',#529,#419,#420);
#369=AXIS2_PLACEMENT_3D('',#538,#425,#426);
#370=AXIS2_PLACEMENT_3D('',#542,#428,#429);
#371=AXIS2_PLACEMENT_3D('',#546,#431,#432);
#372=AXIS2_PLACEMENT_3D('',#550,#434,#435);
#373=AXIS2_PLACEMENT_3D('',#554,#437,#438);
#374=AXIS2_PLACEMENT_3D('',#555,#439,#440);
#375=AXIS2_PLACEMENT_3D('',#556,#441,#442);
#376=AXIS2_PLACEMENT_3D('',#557,#443,#444);
#377=AXIS2_PLACEMENT_3D('',#558,#445,#446);
#378=AXIS2_PLACEMENT_3D('',#559,#447,#448);
#379=AXIS2_PLACEMENT_3D('',#560,#449,#450);
#380=AXIS2_PLACEMENT_3D('',#565,#452,#453);
#381=AXIS2_PLACEMENT_3D('',#569,#455,#456);
#382=AXIS2_PLACEMENT_3D('',#573,#458,#459);
#383=AXIS2_PLACEMENT_3D('',#576,#461,#462);
#384=AXIS2_PLACEMENT_3D('',#577,#463,#464);
#385=AXIS2_PLACEMENT_3D('',#578,#465,#466);
#386=AXIS2_PLACEMENT_3D('',#579,#467,#468);
#387=AXIS2_PLACEMENT_3D('',#580,#469,#470);
#388=AXIS2_PLACEMENT_3D('',#581,#471,#472);
#389=AXIS2_PLACEMENT_3D('',#582,#473,#474);
#390=AXIS2_PLACEMENT_3D('',#583,#475,#476);
#391=AXIS2_PLACEMENT_3D('',#584,#477,#478);
#392=AXIS2_PLACEMENT_3D('',#587,#481,#482);
#393=AXIS2_PLACEMENT_3D('',#589,#484,#485);
#394=AXIS2_PLACEMENT_3D('',#591,#487,#488);
#395=AXIS2_PLACEMENT_3D('',#593,#490,#491);
#396=AXIS2_PLACEMENT_3D('',#595,#493,#494);
#397=AXIS2_PLACEMENT_3D('',#597,#496,#497);
#398=AXIS2_PLACEMENT_3D('',#599,#499,#500);
#399=DIRECTION('',(0.,0.,1.));
#400=DIRECTION('',(1.,0.,0.));
#401=DIRECTION('',(0.,-1.,0.));
#402=DIRECTION('',(1.,0.,0.));
#403=DIRECTION('',(0.,0.,1.));
#404=DIRECTION('',(-1.,0.,0.));
#405=DIRECTION('',(0.,0.,1.));
#406=DIRECTION('',(-1.,0.,0.));
#407=DIRECTION('',(0.,0.,-1.));
#408=DIRECTION('',(0.,1.,0.));
#409=DIRECTION('',(0.,-1.,0.));
#410=DIRECTION('',(-1.,0.,0.));
#411=DIRECTION('',(0.,-1.,0.));
#412=DIRECTION('',(-1.,0.,0.));
#413=DIRECTION('',(0.,1.,0.));
#414=DIRECTION('',(-1.,0.,0.));
#415=DIRECTION('',(0.,0.,-1.));
#416=DIRECTION('',(-1.,0.,0.));
#417=DIRECTION('',(0.,0.,-1.));
#418=DIRECTION('',(-1.,0.,0.));
#419=DIRECTION('',(0.,0.,1.));
#420=DIRECTION('',(0.,-1.,0.));
#421=DIRECTION('',(0.,1.,0.));
#422=DIRECTION('',(-1.,0.,0.));
#423=DIRECTION('',(0.,1.,0.));
#424=DIRECTION('',(-1.,0.,0.));
#425=DIRECTION('',(-1.,0.,0.));
#426=DIRECTION('',(0.,-1.,0.));
#427=DIRECTION('',(0.,0.,-1.));
#428=DIRECTION('',(-1.,0.,0.));
#429=DIRECTION('',(0.,-1.,0.));
#430=DIRECTION('',(0.,-1.,0.));
#431=DIRECTION('',(-1.,0.,0.));
#432=DIRECTION('',(0.,-1.,0.));
#433=DIRECTION('',(0.,0.,1.));
#434=DIRECTION('',(-1.,0.,0.));
#435=DIRECTION('',(0.,-1.,0.));
#436=DIRECTION('',(0.,1.,0.));
#437=DIRECTION('',(-1.,0.,0.));
#438=DIRECTION('',(0.,-1.,0.));
#439=DIRECTION('',(-1.,0.,0.));
#440=DIRECTION('',(0.,-1.,0.));
#441=DIRECTION('',(-1.,0.,0.));
#442=DIRECTION('',(0.,-1.,0.));
#443=DIRECTION('',(-1.,0.,0.));
#444=DIRECTION('',(0.,-1.,0.));
#445=DIRECTION('',(-1.,0.,0.));
#446=DIRECTION('',(0.,-1.,0.));
#447=DIRECTION('',(-1.,0.,0.));
#448=DIRECTION('',(0.,-1.,0.));
#449=DIRECTION('',(-1.,0.,0.));
#450=DIRECTION('',(0.,-1.,0.));
#451=DIRECTION('',(0.,0.,-1.));
#452=DIRECTION('',(-1.,0.,0.));
#453=DIRECTION('',(0.,-1.,0.));
#454=DIRECTION('',(0.,1.,0.));
#455=DIRECTION('',(-1.,0.,0.));
#456=DIRECTION('',(0.,-1.,0.));
#457=DIRECTION('',(0.,0.,1.));
#458=DIRECTION('',(-1.,0.,0.));
#459=DIRECTION('',(0.,-1.,0.));
#460=DIRECTION('',(0.,-1.,0.));
#461=DIRECTION('',(-1.,0.,0.));
#462=DIRECTION('',(0.,-1.,0.));
#463=DIRECTION('',(-1.,0.,0.));
#464=DIRECTION('',(0.,-1.,0.));
#465=DIRECTION('',(-1.,0.,0.));
#466=DIRECTION('',(0.,-1.,0.));
#467=DIRECTION('',(-1.,0.,0.));
#468=DIRECTION('',(0.,-1.,0.));
#469=DIRECTION('',(-1.,0.,0.));
#470=DIRECTION('',(0.,-1.,0.));
#471=DIRECTION('',(-1.,0.,0.));
#472=DIRECTION('',(0.,-1.,0.));
#473=DIRECTION('',(-1.,0.,0.));
#474=DIRECTION('',(0.,-1.,0.));
#475=DIRECTION('',(-1.,0.,0.));
#476=DIRECTION('',(0.,-1.,0.));
#477=DIRECTION('',(-1.,0.,0.));
#478=DIRECTION('',(0.,-1.,0.));
#479=DIRECTION('',(-1.,0.,0.));
#480=DIRECTION('',(-1.,0.,0.));
#481=DIRECTION('',(0.,1.,0.));
#482=DIRECTION('',(-1.,0.,0.));
#483=DIRECTION('',(-1.,0.,0.));
#484=DIRECTION('',(-1.,0.,0.));
#485=DIRECTION('',(0.,-1.,0.));
#486=DIRECTION('',(-1.,0.,0.));
#487=DIRECTION('',(0.,0.,1.));
#488=DIRECTION('',(0.,-1.,0.));
#489=DIRECTION('',(-1.,0.,0.));
#490=DIRECTION('',(-1.,0.,0.));
#491=DIRECTION('',(0.,-1.,0.));
#492=DIRECTION('',(-1.,0.,0.));
#493=DIRECTION('',(0.,-1.,0.));
#494=DIRECTION('',(1.,0.,0.));
#495=DIRECTION('',(-1.,0.,0.));
#496=DIRECTION('',(-1.,0.,0.));
#497=DIRECTION('',(0.,-1.,0.));
#498=DIRECTION('',(-1.,0.,0.));
#499=DIRECTION('',(0.,0.,-1.));
#500=DIRECTION('',(0.,1.,0.));
#501=CARTESIAN_POINT('',(0.,0.,0.));
#502=CARTESIAN_POINT('',(0.09525,0.011,-0.011));
#503=CARTESIAN_POINT('',(0.09525,0.011,-0.011));
#504=CARTESIAN_POINT('',(0.09525,0.011,-0.0095));
#505=CARTESIAN_POINT('',(0.09525,0.011,0.0095));
#506=CARTESIAN_POINT('',(0.09525,0.011,-0.0095));
#507=CARTESIAN_POINT('',(-0.09525,0.011,-0.0095));
#508=CARTESIAN_POINT('',(-0.09525,0.011,-0.011));
#509=CARTESIAN_POINT('',(-0.09525,0.011,0.0095));
#510=CARTESIAN_POINT('',(0.09525,0.011,0.0095));
#511=CARTESIAN_POINT('',(0.09525,-0.011,0.011));
#512=CARTESIAN_POINT('',(-0.09525,-0.011,0.011));
#513=CARTESIAN_POINT('',(-0.09525,0.0095,0.011));
#514=CARTESIAN_POINT('',(-0.09525,-0.0095,0.011));
#515=CARTESIAN_POINT('',(0.09525,-0.0095,0.011));
#516=CARTESIAN_POINT('',(0.09525,-0.0095,0.011));
#517=CARTESIAN_POINT('',(0.09525,-0.011,0.011));
#518=CARTESIAN_POINT('',(0.09525,0.0095,0.011));
#519=CARTESIAN_POINT('',(0.09525,0.0095,0.011));
#520=CARTESIAN_POINT('',(0.09525,-0.011,-0.011));
#521=CARTESIAN_POINT('',(-0.09525,-0.011,-0.011));
#522=CARTESIAN_POINT('',(-0.09525,-0.011,0.0095));
#523=CARTESIAN_POINT('',(-0.09525,-0.011,-0.0095));
#524=CARTESIAN_POINT('',(0.09525,-0.011,-0.0095));
#525=CARTESIAN_POINT('',(0.09525,-0.011,-0.0095));
#526=CARTESIAN_POINT('',(0.09525,-0.011,-0.011));
#527=CARTESIAN_POINT('',(0.09525,-0.011,0.0095));
#528=CARTESIAN_POINT('',(0.09525,-0.011,0.0095));
#529=CARTESIAN_POINT('',(0.09525,-0.011,-0.011));
#530=CARTESIAN_POINT('',(-0.09525,-0.011,-0.011));
#531=CARTESIAN_POINT('',(-0.09525,-0.0095,-0.011));
#532=CARTESIAN_POINT('',(-0.09525,0.0095,-0.011));
#533=CARTESIAN_POINT('',(0.09525,0.0095,-0.011));
#534=CARTESIAN_POINT('',(0.09525,0.0095,-0.011));
#535=CARTESIAN_POINT('',(0.09525,-0.011,-0.011));
#536=CARTESIAN_POINT('',(0.09525,-0.0095,-0.011));
#537=CARTESIAN_POINT('',(0.09525,-0.0095,-0.011));
#538=CARTESIAN_POINT('',(0.09525,0.,0.));
#539=CARTESIAN_POINT('',(0.09525,0.01,0.0095));
#540=CARTESIAN_POINT('',(0.09525,0.01,0.0095));
#541=CARTESIAN_POINT('',(0.09525,0.01,-0.0095));
#542=CARTESIAN_POINT('',(0.09525,0.0095,-0.0095));
#543=CARTESIAN_POINT('',(0.09525,0.0095,-0.01));
#544=CARTESIAN_POINT('',(0.09525,0.0095,-0.01));
#545=CARTESIAN_POINT('',(0.09525,-0.0095,-0.01));
#546=CARTESIAN_POINT('',(0.09525,-0.0095,-0.0095));
#547=CARTESIAN_POINT('',(0.09525,-0.01,-0.0095));
#548=CARTESIAN_POINT('',(0.09525,-0.01,-0.0095));
#549=CARTESIAN_POINT('',(0.09525,-0.01,0.0095));
#550=CARTESIAN_POINT('',(0.09525,-0.0095,0.0095));
#551=CARTESIAN_POINT('',(0.09525,-0.0095,0.01));
#552=CARTESIAN_POINT('',(0.09525,-0.0095,0.01));
#553=CARTESIAN_POINT('',(0.09525,0.0095,0.01));
#554=CARTESIAN_POINT('',(0.09525,0.0095,0.0095));
#555=CARTESIAN_POINT('',(0.09525,0.0095,-0.0095));
#556=CARTESIAN_POINT('',(0.09525,0.0095,0.0095));
#557=CARTESIAN_POINT('',(0.09525,-0.0095,0.0095));
#558=CARTESIAN_POINT('',(0.09525,-0.0095,-0.0095));
#559=CARTESIAN_POINT('',(-0.09525,0.,0.));
#560=CARTESIAN_POINT('',(-0.09525,0.0095,-0.0095));
#561=CARTESIAN_POINT('',(-0.09525,0.01,-0.0095));
#562=CARTESIAN_POINT('',(-0.09525,0.0095,-0.01));
#563=CARTESIAN_POINT('',(-0.09525,0.01,0.0095));
#564=CARTESIAN_POINT('',(-0.09525,0.01,0.0095));
#565=CARTESIAN_POINT('',(-0.09525,0.0095,0.0095));
#566=CARTESIAN_POINT('',(-0.09525,0.0095,0.01));
#567=CARTESIAN_POINT('',(-0.09525,-0.0095,0.01));
#568=CARTESIAN_POINT('',(-0.09525,-0.0095,0.01));
#569=CARTESIAN_POINT('',(-0.09525,-0.0095,0.0095));
#570=CARTESIAN_POINT('',(-0.09525,-0.01,0.0095));
#571=CARTESIAN_POINT('',(-0.09525,-0.01,-0.0095));
#572=CARTESIAN_POINT('',(-0.09525,-0.01,-0.0095));
#573=CARTESIAN_POINT('',(-0.09525,-0.0095,-0.0095));
#574=CARTESIAN_POINT('',(-0.09525,-0.0095,-0.01));
#575=CARTESIAN_POINT('',(-0.09525,0.0095,-0.01));
#576=CARTESIAN_POINT('',(-0.09525,0.0095,-0.0095));
#577=CARTESIAN_POINT('',(-0.09525,-0.0095,-0.0095));
#578=CARTESIAN_POINT('',(-0.09525,-0.0095,0.0095));
#579=CARTESIAN_POINT('',(-0.09525,0.0095,0.0095));
#580=CARTESIAN_POINT('',(0.09525,0.0095,-0.0095));
#581=CARTESIAN_POINT('',(0.09525,-0.0095,-0.0095));
#582=CARTESIAN_POINT('',(0.09525,-0.0095,0.0095));
#583=CARTESIAN_POINT('',(0.09525,0.0095,0.0095));
#584=CARTESIAN_POINT('',(0.09525,0.0095,-0.0095));
#585=CARTESIAN_POINT('',(0.09525,0.0095,-0.01));
#586=CARTESIAN_POINT('',(0.09525,0.01,-0.0095));
#587=CARTESIAN_POINT('',(0.09525,0.01,0.0095));
#588=CARTESIAN_POINT('',(0.09525,0.01,0.0095));
#589=CARTESIAN_POINT('',(0.09525,0.0095,0.0095));
#590=CARTESIAN_POINT('',(0.09525,0.0095,0.01));
#591=CARTESIAN_POINT('',(0.09525,-0.0095,0.01));
#592=CARTESIAN_POINT('',(0.09525,-0.0095,0.01));
#593=CARTESIAN_POINT('',(0.09525,-0.0095,0.0095));
#594=CARTESIAN_POINT('',(0.09525,-0.01,0.0095));
#595=CARTESIAN_POINT('',(0.09525,-0.01,-0.0095));
#596=CARTESIAN_POINT('',(0.09525,-0.01,-0.0095));
#597=CARTESIAN_POINT('',(0.09525,-0.0095,-0.0095));
#598=CARTESIAN_POINT('',(0.09525,-0.0095,-0.01));
#599=CARTESIAN_POINT('',(0.09525,0.0095,-0.01));
#600=MECHANICAL_DESIGN_GEOMETRIC_PRESENTATION_REPRESENTATION('',(#353),
#601);
#601=(
GEOMETRIC_REPRESENTATION_CONTEXT(3)
GLOBAL_UNCERTAINTY_ASSIGNED_CONTEXT((#602))
GLOBAL_UNIT_ASSIGNED_CONTEXT((#605,#604,#603))
REPRESENTATION_CONTEXT('KP0069-01_ForarmBeam','TOP_LEVEL_ASSEMBLY_PART')
);
#602=UNCERTAINTY_MEASURE_WITH_UNIT(LENGTH_MEASURE(1.E-8),#605,
'DISTANCE_ACCURACY_VALUE','Maximum Tolerance applied to model');
#603=(
NAMED_UNIT(*)
SI_UNIT($,.STERADIAN.)
SOLID_ANGLE_UNIT()
);
#604=(
NAMED_UNIT(*)
PLANE_ANGLE_UNIT()
SI_UNIT($,.RADIAN.)
);
#605=(
LENGTH_UNIT()
NAMED_UNIT(*)
SI_UNIT($,.METRE.)
);
#606=PRODUCT_DEFINITION_SHAPE('','',#607);
#607=PRODUCT_DEFINITION('','',#609,#608);
#608=PRODUCT_DEFINITION_CONTEXT('',#615,'design');
#609=PRODUCT_DEFINITION_FORMATION_WITH_SPECIFIED_SOURCE('','',#611,
 .NOT_KNOWN.);
#610=PRODUCT_RELATED_PRODUCT_CATEGORY('','',(#611));
#611=PRODUCT('KP0069-01_ForarmBeam','KP0069-01_ForarmBeam',
'KP0069-01_ForarmBeam',(#613));
#612=PRODUCT_CATEGORY('','');
#613=PRODUCT_CONTEXT('',#615,'mechanical');
#614=APPLICATION_PROTOCOL_DEFINITION('international standard',
'automotive_design',2010,#615);
#615=APPLICATION_CONTEXT(
'core data for automotive mechanical design processes');
ENDSEC;
END-ISO-10303-21;
