ISO-10303-21;
HEADER;
/* Generated by software containing ST-Developer
 * from STEP Tools, Inc. (www.steptools.com) 
 */
/* OPTION: using custom renumber hook */

FILE_DESCRIPTION(
/* description */ ('STEP AP214',
'CAx-IF Rec.Pracs.---User Defined Attributes---1.5---2016-08-15'),
/* implementation_level */ '2;1');

FILE_NAME(
/* name */ '6a65b559a6a55509c304e6be',
/* time_stamp */ '2026-07-26T07:20:57Z',
/* author */ (''),
/* organization */ (''),
/* preprocessor_version */ 'ST-DEVELOPER v20',
/* originating_system */ 'ONSHAPE BY PTC INC, 1.218',
/* authorisation */ '  ');

FILE_SCHEMA (('AUTOMOTIVE_DESIGN {1 0 10303 214 3 1 1}'));
ENDSEC;

DATA;
#10=PROPERTY_DEFINITION_REPRESENTATION(#14,#12);
#11=PROPERTY_DEFINITION_REPRESENTATION(#15,#13);
#12=REPRESENTATION('',(#16),#441);
#13=REPRESENTATION('',(#17),#441);
#14=PROPERTY_DEFINITION('pmi validation property','',#446);
#15=PROPERTY_DEFINITION('pmi validation property','',#446);
#16=VALUE_REPRESENTATION_ITEM('number of annotations',COUNT_MEASURE(0.));
#17=VALUE_REPRESENTATION_ITEM('number of views',COUNT_MEASURE(0.));
#18=SHAPE_REPRESENTATION_RELATIONSHIP('','',#185,#19);
#19=ADVANCED_BREP_SHAPE_REPRESENTATION('',(#183),#441);
#20=PLANE('',#193);
#21=PLANE('',#195);
#22=PLANE('',#203);
#23=PLANE('',#207);
#24=B_SPLINE_CURVE_WITH_KNOTS('',3,(#271,#272,#273,#274,#275,#276,#277,
#278,#279,#280,#281,#282,#283,#284,#285,#286,#287,#288,#289,#290,#291,#292,
#293,#294,#295,#296,#297,#298,#299,#300,#301,#302,#303,#304,#305),
 .UNSPECIFIED.,.T.,.F.,(1,1,1,1,1,1,1,1,1,1,1,1,1,1,1,1,1,1,1,1,1,1,1,1,
1,1,1,1,1,1,1,1,1,1,1,1,1,1,1),(-0.0953947368421053,-0.0641447368421053,
-0.0328947368421053,0.,0.0296875,0.060859375,0.09210546875,0.1233552734375,
0.154605263671875,0.185855263183594,0.21710526315918,0.248355263157959,
0.279605263157898,0.310855263157895,0.342105263157895,0.373355263157895,
0.404605263157895,0.435855263157895,0.467105263157895,0.498355263157895,
0.529605263157895,0.560855263157895,0.592105263157895,0.623355263157895,
0.654605263157895,0.685855263157895,0.717105263157895,0.748355263157895,
0.779605263157895,0.810855263157895,0.842105263157895,0.873355263157895,
0.904605263157895,0.935855263157895,0.967105263157895,1.,1.0296875,1.060859375,
1.09210546875),.UNSPECIFIED.);
#25=B_SPLINE_CURVE_WITH_KNOTS('',3,(#323,#324,#325,#326,#327,#328,#329,
#330,#331,#332,#333,#334,#335,#336,#337,#338,#339,#340,#341,#342,#343,#344,
#345,#346,#347,#348,#349,#350,#351,#352,#353,#354,#355,#356,#357),
 .UNSPECIFIED.,.T.,.F.,(1,1,1,1,1,1,1,1,1,1,1,1,1,1,1,1,1,1,1,1,1,1,1,1,
1,1,1,1,1,1,1,1,1,1,1,1,1,1,1),(-0.0953947368421053,-0.0641447368421053,
-0.0328947368421053,0.,0.0296875,0.060859375,0.09210546875,0.1233552734375,
0.154605263671875,0.185855263183594,0.21710526315918,0.248355263157959,
0.279605263157898,0.310855263157895,0.342105263157895,0.373355263157895,
0.404605263157895,0.435855263157895,0.467105263157895,0.498355263157895,
0.529605263157895,0.560855263157895,0.592105263157895,0.623355263157895,
0.654605263157895,0.685855263157895,0.717105263157895,0.748355263157895,
0.779605263157895,0.810855263157895,0.842105263157895,0.873355263157895,
0.904605263157895,0.935855263157895,0.967105263157895,1.,1.0296875,1.060859375,
1.09210546875),.UNSPECIFIED.);
#26=B_SPLINE_CURVE_WITH_KNOTS('',3,(#360,#361,#362,#363,#364,#365,#366,
#367,#368,#369,#370,#371,#372,#373,#374,#375,#376,#377,#378,#379,#380,#381,
#382,#383,#384,#385,#386,#387,#388,#389,#390,#391,#392,#393,#394),
 .UNSPECIFIED.,.T.,.F.,(1,1,1,1,1,1,1,1,1,1,1,1,1,1,1,1,1,1,1,1,1,1,1,1,
1,1,1,1,1,1,1,1,1,1,1,1,1,1,1),(-0.0953949419202336,-0.0641447470960117,
-0.0328947373548006,0.,0.0296875,0.059375,0.09203125,0.1233515625,0.154605078125,
0.18585525390625,0.216324008300781,0.246792762695313,0.278003700415039,
0.309214638134766,0.342023231906738,0.373351161595337,0.404605058079767,
0.435855252903988,0.466324007774594,0.496792762645199,0.52800370038873,
0.55921463813226,0.592023231906613,0.623351161595331,0.654605058079767,
0.685855252903988,0.716324007774594,0.746792762645199,0.77800370038873,
0.80921463813226,0.842023231906613,0.873351161595331,0.904605058079766,
0.935855252903988,0.967105262645199,1.,1.0296875,1.059375,1.09203125),
 .UNSPECIFIED.);
#27=B_SPLINE_CURVE_WITH_KNOTS('',3,(#400,#401,#402,#403,#404,#405,#406,
#407,#408,#409,#410,#411,#412,#413,#414,#415,#416,#417,#418,#419,#420,#421,
#422,#423,#424,#425,#426,#427,#428,#429,#430,#431,#432,#433,#434),
 .UNSPECIFIED.,.T.,.F.,(1,1,1,1,1,1,1,1,1,1,1,1,1,1,1,1,1,1,1,1,1,1,1,1,
1,1,1,1,1,1,1,1,1,1,1,1,1,1,1),(-0.0953947368421053,-0.0641447368421053,
-0.0328947368421053,0.,0.0296875,0.060859375,0.09210546875,0.1233552734375,
0.154605263671875,0.185855263183594,0.21710526315918,0.248355263157959,
0.279605263157898,0.310855263157895,0.342105263157895,0.373355263157895,
0.404605263157895,0.435855263157895,0.467105263157895,0.498355263157895,
0.529605263157895,0.560855263157895,0.592105263157895,0.623355263157895,
0.654605263157895,0.685855263157895,0.717105263157895,0.748355263157895,
0.779605263157895,0.810855263157895,0.842105263157895,0.873355263157895,
0.904605263157895,0.935855263157895,0.967105263157895,1.,1.0296875,1.060859375,
1.09210546875),.UNSPECIFIED.);
#28=TOROIDAL_SURFACE('',#192,0.0069,0.0005);
#29=TOROIDAL_SURFACE('',#204,0.005,0.0005);
#30=TOROIDAL_SURFACE('',#205,0.00645,0.0003);
#31=TOROIDAL_SURFACE('',#210,0.00565,0.0005);
#32=CONICAL_SURFACE('',#190,0.00639999999998508,0.785398163397448);
#33=CONICAL_SURFACE('',#197,0.00469999999995707,0.785398163539556);
#34=ORIENTED_EDGE('',*,*,#62,.T.);
#35=ORIENTED_EDGE('',*,*,#63,.T.);
#36=ORIENTED_EDGE('',*,*,#64,.T.);
#37=ORIENTED_EDGE('',*,*,#62,.F.);
#38=ORIENTED_EDGE('',*,*,#63,.F.);
#39=ORIENTED_EDGE('',*,*,#65,.F.);
#40=ORIENTED_EDGE('',*,*,#66,.T.);
#41=ORIENTED_EDGE('',*,*,#64,.F.);
#42=ORIENTED_EDGE('',*,*,#65,.T.);
#43=ORIENTED_EDGE('',*,*,#67,.T.);
#44=ORIENTED_EDGE('',*,*,#66,.F.);
#45=ORIENTED_EDGE('',*,*,#68,.F.);
#46=ORIENTED_EDGE('',*,*,#69,.T.);
#47=ORIENTED_EDGE('',*,*,#67,.F.);
#48=ORIENTED_EDGE('',*,*,#68,.T.);
#49=ORIENTED_EDGE('',*,*,#70,.F.);
#50=ORIENTED_EDGE('',*,*,#71,.F.);
#51=ORIENTED_EDGE('',*,*,#69,.F.);
#52=ORIENTED_EDGE('',*,*,#72,.T.);
#53=ORIENTED_EDGE('',*,*,#70,.T.);
#54=ORIENTED_EDGE('',*,*,#71,.T.);
#55=ORIENTED_EDGE('',*,*,#73,.T.);
#56=ORIENTED_EDGE('',*,*,#72,.F.);
#57=ORIENTED_EDGE('',*,*,#74,.F.);
#58=ORIENTED_EDGE('',*,*,#75,.F.);
#59=ORIENTED_EDGE('',*,*,#73,.F.);
#60=ORIENTED_EDGE('',*,*,#74,.T.);
#61=ORIENTED_EDGE('',*,*,#75,.T.);
#62=EDGE_CURVE('',#76,#76,#90,.T.);
#63=EDGE_CURVE('',#77,#77,#91,.F.);
#64=EDGE_CURVE('',#78,#78,#92,.T.);
#65=EDGE_CURVE('',#79,#79,#24,.T.);
#66=EDGE_CURVE('',#80,#80,#93,.F.);
#67=EDGE_CURVE('',#81,#81,#94,.T.);
#68=EDGE_CURVE('',#82,#82,#95,.T.);
#69=EDGE_CURVE('',#83,#83,#96,.T.);
#70=EDGE_CURVE('',#84,#84,#97,.F.);
#71=EDGE_CURVE('',#85,#85,#25,.T.);
#72=EDGE_CURVE('',#86,#86,#26,.T.);
#73=EDGE_CURVE('',#87,#87,#98,.T.);
#74=EDGE_CURVE('',#88,#88,#27,.T.);
#75=EDGE_CURVE('',#89,#89,#99,.T.);
#76=VERTEX_POINT('',#264);
#77=VERTEX_POINT('',#266);
#78=VERTEX_POINT('',#269);
#79=VERTEX_POINT('',#306);
#80=VERTEX_POINT('',#309);
#81=VERTEX_POINT('',#312);
#82=VERTEX_POINT('',#315);
#83=VERTEX_POINT('',#318);
#84=VERTEX_POINT('',#321);
#85=VERTEX_POINT('',#358);
#86=VERTEX_POINT('',#395);
#87=VERTEX_POINT('',#398);
#88=VERTEX_POINT('',#435);
#89=VERTEX_POINT('',#438);
#90=CIRCLE('',#188,0.0064);
#91=CIRCLE('',#189,0.0064);
#92=CIRCLE('',#191,0.00620000000003529);
#93=CIRCLE('',#194,0.00469999999995707);
#94=CIRCLE('',#196,0.007);
#95=CIRCLE('',#198,0.00449999999989359);
#96=CIRCLE('',#200,0.007);
#97=CIRCLE('',#202,0.0045);
#98=CIRCLE('',#206,0.00615);
#99=CIRCLE('',#209,0.00615);
#100=EDGE_LOOP('',(#34));
#101=EDGE_LOOP('',(#35));
#102=EDGE_LOOP('',(#36));
#103=EDGE_LOOP('',(#37));
#104=EDGE_LOOP('',(#38));
#105=EDGE_LOOP('',(#39));
#106=EDGE_LOOP('',(#40));
#107=EDGE_LOOP('',(#41));
#108=EDGE_LOOP('',(#42));
#109=EDGE_LOOP('',(#43));
#110=EDGE_LOOP('',(#44));
#111=EDGE_LOOP('',(#45));
#112=EDGE_LOOP('',(#46));
#113=EDGE_LOOP('',(#47));
#114=EDGE_LOOP('',(#48));
#115=EDGE_LOOP('',(#49));
#116=EDGE_LOOP('',(#50));
#117=EDGE_LOOP('',(#51));
#118=EDGE_LOOP('',(#52));
#119=EDGE_LOOP('',(#53));
#120=EDGE_LOOP('',(#54));
#121=EDGE_LOOP('',(#55));
#122=EDGE_LOOP('',(#56));
#123=EDGE_LOOP('',(#57));
#124=EDGE_LOOP('',(#58));
#125=EDGE_LOOP('',(#59));
#126=EDGE_LOOP('',(#60));
#127=EDGE_LOOP('',(#61));
#128=FACE_BOUND('',#100,.T.);
#129=FACE_BOUND('',#101,.T.);
#130=FACE_BOUND('',#102,.T.);
#131=FACE_BOUND('',#103,.T.);
#132=FACE_BOUND('',#104,.T.);
#133=FACE_BOUND('',#105,.T.);
#134=FACE_BOUND('',#106,.T.);
#135=FACE_BOUND('',#107,.T.);
#136=FACE_BOUND('',#108,.T.);
#137=FACE_BOUND('',#109,.T.);
#138=FACE_BOUND('',#110,.T.);
#139=FACE_BOUND('',#111,.T.);
#140=FACE_BOUND('',#112,.T.);
#141=FACE_BOUND('',#113,.T.);
#142=FACE_BOUND('',#114,.T.);
#143=FACE_BOUND('',#115,.T.);
#144=FACE_BOUND('',#116,.T.);
#145=FACE_BOUND('',#117,.T.);
#146=FACE_BOUND('',#118,.T.);
#147=FACE_BOUND('',#119,.T.);
#148=FACE_BOUND('',#120,.T.);
#149=FACE_BOUND('',#121,.T.);
#150=FACE_BOUND('',#122,.T.);
#151=FACE_BOUND('',#123,.T.);
#152=FACE_BOUND('',#124,.T.);
#153=FACE_BOUND('',#125,.T.);
#154=FACE_BOUND('',#126,.T.);
#155=FACE_BOUND('',#127,.T.);
#156=CYLINDRICAL_SURFACE('',#187,0.0064);
#157=CYLINDRICAL_SURFACE('',#199,0.007);
#158=CYLINDRICAL_SURFACE('',#201,0.0045);
#159=CYLINDRICAL_SURFACE('',#208,0.00615);
#160=ADVANCED_FACE('',(#128,#129),#156,.T.);
#161=ADVANCED_FACE('',(#130,#131),#32,.T.);
#162=ADVANCED_FACE('',(#132,#133),#28,.F.);
#163=ADVANCED_FACE('',(#134,#135),#20,.T.);
#164=ADVANCED_FACE('',(#136,#137),#21,.T.);
#165=ADVANCED_FACE('',(#138,#139),#33,.F.);
#166=ADVANCED_FACE('',(#140,#141),#157,.T.);
#167=ADVANCED_FACE('',(#142,#143),#158,.F.);
#168=ADVANCED_FACE('',(#144,#145),#22,.F.);
#169=ADVANCED_FACE('',(#146,#147),#29,.T.);
#170=ADVANCED_FACE('',(#148,#149),#30,.T.);
#171=ADVANCED_FACE('',(#150,#151),#23,.F.);
#172=ADVANCED_FACE('',(#152,#153),#159,.F.);
#173=ADVANCED_FACE('',(#154,#155),#31,.F.);
#174=CLOSED_SHELL('',(#160,#161,#162,#163,#164,#165,#166,#167,#168,#169,
#170,#171,#172,#173));
#175=STYLED_ITEM('',(#176),#183);
#176=PRESENTATION_STYLE_ASSIGNMENT((#177));
#177=SURFACE_STYLE_USAGE(.BOTH.,#178);
#178=SURFACE_SIDE_STYLE('',(#179));
#179=SURFACE_STYLE_FILL_AREA(#180);
#180=FILL_AREA_STYLE('',(#181));
#181=FILL_AREA_STYLE_COLOUR('',#182);
#182=COLOUR_RGB('',0.745098039215686,0.745098039215686,0.745098039215686);
#183=MANIFOLD_SOLID_BREP('KP0064-01_16mmShaftEndCap',#174);
#184=SHAPE_DEFINITION_REPRESENTATION(#446,#185);
#185=SHAPE_REPRESENTATION('KP0064-01_16mmShaftEndCap',(#186),#441);
#186=AXIS2_PLACEMENT_3D('',#261,#211,#212);
#187=AXIS2_PLACEMENT_3D('',#262,#213,#214);
#188=AXIS2_PLACEMENT_3D('',#263,#215,#216);
#189=AXIS2_PLACEMENT_3D('',#265,#217,#218);
#190=AXIS2_PLACEMENT_3D('',#267,#219,#220);
#191=AXIS2_PLACEMENT_3D('',#268,#221,#222);
#192=AXIS2_PLACEMENT_3D('',#270,#223,#224);
#193=AXIS2_PLACEMENT_3D('',#307,#225,#226);
#194=AXIS2_PLACEMENT_3D('',#308,#227,#228);
#195=AXIS2_PLACEMENT_3D('',#310,#229,#230);
#196=AXIS2_PLACEMENT_3D('',#311,#231,#232);
#197=AXIS2_PLACEMENT_3D('',#313,#233,#234);
#198=AXIS2_PLACEMENT_3D('',#314,#235,#236);
#199=AXIS2_PLACEMENT_3D('',#316,#237,#238);
#200=AXIS2_PLACEMENT_3D('',#317,#239,#240);
#201=AXIS2_PLACEMENT_3D('',#319,#241,#242);
#202=AXIS2_PLACEMENT_3D('',#320,#243,#244);
#203=AXIS2_PLACEMENT_3D('',#322,#245,#246);
#204=AXIS2_PLACEMENT_3D('',#359,#247,#248);
#205=AXIS2_PLACEMENT_3D('',#396,#249,#250);
#206=AXIS2_PLACEMENT_3D('',#397,#251,#252);
#207=AXIS2_PLACEMENT_3D('',#399,#253,#254);
#208=AXIS2_PLACEMENT_3D('',#436,#255,#256);
#209=AXIS2_PLACEMENT_3D('',#437,#257,#258);
#210=AXIS2_PLACEMENT_3D('',#439,#259,#260);
#211=DIRECTION('',(0.,0.,1.));
#212=DIRECTION('',(1.,0.,0.));
#213=DIRECTION('',(0.,-1.,0.));
#214=DIRECTION('',(1.,0.,0.));
#215=DIRECTION('',(0.,-1.,0.));
#216=DIRECTION('',(1.,0.,0.));
#217=DIRECTION('',(0.,-1.,0.));
#218=DIRECTION('',(1.,0.,0.));
#219=DIRECTION('',(0.,-1.,2.11758236814069E-18));
#220=DIRECTION('',(0.,-2.11758236814069E-18,-1.));
#221=DIRECTION('',(0.,-1.,2.11758236814069E-18));
#222=DIRECTION('',(0.,-2.11758236814069E-18,-1.));
#223=DIRECTION('',(0.,1.,0.));
#224=DIRECTION('',(-1.,0.,0.));
#225=DIRECTION('',(0.,1.,0.));
#226=DIRECTION('',(-1.,0.,0.));
#227=DIRECTION('',(0.,1.,0.));
#228=DIRECTION('',(-1.,0.,0.));
#229=DIRECTION('',(0.,1.,0.));
#230=DIRECTION('',(-1.,0.,0.));
#231=DIRECTION('',(0.,1.,0.));
#232=DIRECTION('',(-1.,0.,0.));
#233=DIRECTION('',(0.,1.,0.));
#234=DIRECTION('',(-1.,0.,0.));
#235=DIRECTION('',(0.,1.,0.));
#236=DIRECTION('',(-1.,0.,0.));
#237=DIRECTION('',(0.,1.,0.));
#238=DIRECTION('',(-1.,0.,0.));
#239=DIRECTION('',(0.,1.,0.));
#240=DIRECTION('',(-1.,0.,0.));
#241=DIRECTION('',(0.,-1.,0.));
#242=DIRECTION('',(1.,0.,0.));
#243=DIRECTION('',(0.,-1.,0.));
#244=DIRECTION('',(1.,0.,0.));
#245=DIRECTION('',(0.,1.,0.));
#246=DIRECTION('',(-1.,0.,0.));
#247=DIRECTION('',(0.,1.,0.));
#248=DIRECTION('',(-1.,0.,0.));
#249=DIRECTION('',(0.,1.,0.));
#250=DIRECTION('',(-1.,0.,0.));
#251=DIRECTION('',(0.,1.,0.));
#252=DIRECTION('',(-1.,0.,0.));
#253=DIRECTION('',(0.,1.,0.));
#254=DIRECTION('',(-1.,0.,0.));
#255=DIRECTION('',(0.,-1.,0.));
#256=DIRECTION('',(1.,0.,0.));
#257=DIRECTION('',(0.,-1.,0.));
#258=DIRECTION('',(1.,0.,0.));
#259=DIRECTION('',(0.,-1.,0.));
#260=DIRECTION('',(1.,0.,0.));
#261=CARTESIAN_POINT('',(0.,0.,0.));
#262=CARTESIAN_POINT('',(0.,0.,0.));
#263=CARTESIAN_POINT('',(0.,-0.0002,0.));
#264=CARTESIAN_POINT('',(-0.0064,-0.0002,7.83773951454306E-19));
#265=CARTESIAN_POINT('',(0.,-0.013,0.));
#266=CARTESIAN_POINT('',(-0.0064,-0.013,7.83773951454306E-19));
#267=CARTESIAN_POINT('',(0.,-0.000199999999949796,0.));
#268=CARTESIAN_POINT('',(0.,0.,-4.23516473521826E-22));
#269=CARTESIAN_POINT('',(0.,-1.3129010682547E-20,-0.00620000000003529));
#270=CARTESIAN_POINT('',(0.,-0.013,0.));
#271=CARTESIAN_POINT('',(-0.00682143013089669,-0.0135,0.00129408337476248));
#272=CARTESIAN_POINT('',(-0.0069363309231025,-0.0135,4.19180009866955E-5));
#273=CARTESIAN_POINT('',(-0.00683284096895005,-0.0135,-0.0012044239628277));
#274=CARTESIAN_POINT('',(-0.0064866804521082,-0.0135,-0.00248324998124459));
#275=CARTESIAN_POINT('',(-0.00585905345593069,-0.0135,-0.00373530001342652));
#276=CARTESIAN_POINT('',(-0.00496779988153993,-0.0135,-0.00486026053012196));
#277=CARTESIAN_POINT('',(-0.00386132012224257,-0.0135,-0.00577704721073898));
#278=CARTESIAN_POINT('',(-0.00261782291929278,-0.0135,-0.0064341233624358));
#279=CARTESIAN_POINT('',(-0.00131649065800027,-0.0135,-0.00681484383109337));
#280=CARTESIAN_POINT('',(-6.61060812382413E-5,-0.0135,-0.00693602813884176));
#281=CARTESIAN_POINT('',(0.00118094837696602,-0.0135,-0.00683909991092481));
#282=CARTESIAN_POINT('',(0.00248193996567926,-0.0135,-0.00648728244215268));
#283=CARTESIAN_POINT('',(0.00373528817672202,-0.0135,-0.00585908663040723));
#284=CARTESIAN_POINT('',(0.00486024758912175,-0.0135,-0.00496780449035506));
#285=CARTESIAN_POINT('',(0.00577705003024336,-0.0135,-0.00386131971291748));
#286=CARTESIAN_POINT('',(0.00643412258415994,-0.0135,-0.00261782307491294));
#287=CARTESIAN_POINT('',(0.0068148440389957,-0.0135,-0.00131649061867876));
#288=CARTESIAN_POINT('',(0.00693602808312577,-0.0135,-6.61060918897735E-5));
#289=CARTESIAN_POINT('',(0.00683909992585534,-0.0135,0.00118094837981846));
#290=CARTESIAN_POINT('',(0.00648728243814891,-0.0135,0.00248193996490085));
#291=CARTESIAN_POINT('',(0.00585908663149154,-0.0135,0.00373528817698356));
#292=CARTESIAN_POINT('',(0.00496780449002111,-0.0135,0.00486024758885527));
#293=CARTESIAN_POINT('',(0.00386131971316864,-0.0135,0.00577705003104774));
#294=CARTESIAN_POINT('',(0.0026178230742426,-0.0135,0.0064341225812089));
#295=CARTESIAN_POINT('',(0.0013164906211081,-0.0135,0.0068148440499958));
#296=CARTESIAN_POINT('',(6.61060828429096E-5,-0.0135,0.00693602804207635));
#297=CARTESIAN_POINT('',(-0.00118094834606018,-0.0135,0.00683910007905291));
#298=CARTESIAN_POINT('',(-0.00248194009088717,-0.0135,0.00648728186640802));
#299=CARTESIAN_POINT('',(-0.00373528770679503,-0.0135,0.00585908876525777));
#300=CARTESIAN_POINT('',(-0.00486024934362172,-0.0135,0.00496779652669798));
#301=CARTESIAN_POINT('',(-0.00577704348217148,-0.0135,0.00386134943269431));
#302=CARTESIAN_POINT('',(-0.00643414702194796,-0.0135,0.00261771215946222));
#303=CARTESIAN_POINT('',(-0.00682143013089669,-0.0135,0.00129408337476248));
#304=CARTESIAN_POINT('',(-0.0069363309231025,-0.0135,4.19180009866955E-5));
#305=CARTESIAN_POINT('',(-0.00683284096895005,-0.0135,-0.0012044239628277));
#306=CARTESIAN_POINT('',(-0.0069,-0.0135,8.45006291411674E-19));
#307=CARTESIAN_POINT('',(0.,0.,0.));
#308=CARTESIAN_POINT('',(0.,5.6843418860808E-14,0.));
#309=CARTESIAN_POINT('',(-0.00469999999995707,5.6843418860808E-14,0.));
#310=CARTESIAN_POINT('',(0.,-0.0135,0.));
#311=CARTESIAN_POINT('',(0.,-0.0135,0.));
#312=CARTESIAN_POINT('',(-0.007,-0.0135,0.));
#313=CARTESIAN_POINT('',(0.,5.6843418860808E-14,0.));
#314=CARTESIAN_POINT('',(0.,-0.000199999999949796,0.));
#315=CARTESIAN_POINT('',(0.00449999999989359,-0.000199999999949796,5.51091059603277E-19));
#316=CARTESIAN_POINT('',(0.,-0.014,0.));
#317=CARTESIAN_POINT('',(0.,-0.014,0.));
#318=CARTESIAN_POINT('',(-0.007,-0.014,0.));
#319=CARTESIAN_POINT('',(0.,0.,0.));
#320=CARTESIAN_POINT('',(0.,-0.0095,0.));
#321=CARTESIAN_POINT('',(0.0045,-0.0095,-1.10218211923262E-18));
#322=CARTESIAN_POINT('',(0.,-0.014,0.));
#323=CARTESIAN_POINT('',(0.00637655313900142,-0.014,-0.00120969126529204));
#324=CARTESIAN_POINT('',(0.00648396186426404,-0.014,-3.91826181716335E-5));
#325=CARTESIAN_POINT('',(0.00638722055212984,-0.014,0.00112587256972584));
#326=CARTESIAN_POINT('',(0.00606363720905517,-0.014,0.00232129521838224));
#327=CARTESIAN_POINT('',(0.00547694278764044,-0.014,0.00349169053604036));
#328=CARTESIAN_POINT('',(0.0046438151753776,-0.014,0.00454328423191693));
#329=CARTESIAN_POINT('',(0.00360949764985816,-0.014,0.00540028103941953));
#330=CARTESIAN_POINT('',(0.00244709839792462,-0.014,0.0060145050555117));
#331=CARTESIAN_POINT('',(0.00123063585877987,-0.014,0.00637039654285953));
#332=CARTESIAN_POINT('',(6.17982909796831E-5,-0.014,0.00648367816111809));
#333=CARTESIAN_POINT('',(-0.00110392652881127,-0.014,0.00639307197118339));
#334=CARTESIAN_POINT('',(-0.0023200710285988,-0.014,0.00606419975534877));
#335=CARTESIAN_POINT('',(-0.0034916793660412,-0.014,0.00547697384791442));
#336=CARTESIAN_POINT('',(-0.00454327216306841,-0.014,0.00464381947040575));
#337=CARTESIAN_POINT('',(-0.00540028366749238,-0.014,0.00360949727076951));
#338=CARTESIAN_POINT('',(-0.00601450433001575,-0.014,0.0024470985424475));
#339=CARTESIAN_POINT('',(-0.00637039673666077,-0.014,0.00123063582227758));
#340=CARTESIAN_POINT('',(-0.00648367810918105,-0.014,6.17983008686212E-5));
#341=CARTESIAN_POINT('',(-0.00639307198510122,-0.014,-0.00110392653145916));
#342=CARTESIAN_POINT('',(-0.00606419975161667,-0.014,-0.00232007102787582));
#343=CARTESIAN_POINT('',(-0.00547697384892532,-0.014,-0.00349167936628415));
#344=CARTESIAN_POINT('',(-0.00464381947009463,-0.014,-0.0045432721628187));
#345=CARTESIAN_POINT('',(-0.00360949727100436,-0.014,-0.00540028366824672));
#346=CARTESIAN_POINT('',(-0.00244709854181986,-0.014,-0.00601450432724781));
#347=CARTESIAN_POINT('',(-0.00123063582455289,-0.014,-0.00637039674697835));
#348=CARTESIAN_POINT('',(-6.17982923950975E-5,-0.014,-0.00648367807067866));
#349=CARTESIAN_POINT('',(0.0011039264998403,-0.014,-0.00639307212879321));
#350=CARTESIAN_POINT('',(0.00232007114588064,-0.014,-0.00606419921535105));
#351=CARTESIAN_POINT('',(0.0034916789258902,-0.014,-0.00547697585029407));
#352=CARTESIAN_POINT('',(0.00454327380639206,-0.014,-0.00464381200088348));
#353=CARTESIAN_POINT('',(0.00540027753434844,-0.014,-0.00360952514647966));
#354=CARTESIAN_POINT('',(0.00601452721926663,-0.014,-0.00244699450913013));
#355=CARTESIAN_POINT('',(0.00637655313900142,-0.014,-0.00120969126529204));
#356=CARTESIAN_POINT('',(0.00648396186426404,-0.014,-3.91826181716335E-5));
#357=CARTESIAN_POINT('',(0.00638722055212984,-0.014,0.00112587256972584));
#358=CARTESIAN_POINT('',(0.00645,-0.014,7.89897185450043E-19));
#359=CARTESIAN_POINT('',(0.,-0.0095,0.));
#360=CARTESIAN_POINT('',(0.00494257607060904,-0.01,-0.000934290308088348));
#361=CARTESIAN_POINT('',(0.0050282012729159,-0.01,-4.35149066822599E-5));
#362=CARTESIAN_POINT('',(0.00494628573098114,-0.01,0.000902163197449023));
#363=CARTESIAN_POINT('',(0.00470652343032358,-0.01,0.00177488410454484));
#364=CARTESIAN_POINT('',(0.00425653380768241,-0.01,0.00269537702578506));
#365=CARTESIAN_POINT('',(0.00359977527157859,-0.01,0.00352089712670656));
#366=CARTESIAN_POINT('',(0.00280098622227206,-0.01,0.00418582476710816));
#367=CARTESIAN_POINT('',(0.00189384854966318,-0.01,0.00466052052267704));
#368=CARTESIAN_POINT('',(0.00101637465836372,-0.01,0.00492446570679564));
#369=CARTESIAN_POINT('',(9.21021542614194E-5,-0.01,0.00502839341487447));
#370=CARTESIAN_POINT('',(-0.000850663596301964,-0.01,0.00495732241392758));
#371=CARTESIAN_POINT('',(-0.00175785370389179,-0.01,0.0047151209657533));
#372=CARTESIAN_POINT('',(-0.00269358176660465,-0.01,0.0042577180586355));
#373=CARTESIAN_POINT('',(-0.00352092201988604,-0.01,0.00359983956749665));
#374=CARTESIAN_POINT('',(-0.00418579977899304,-0.01,0.00280099228544929));
#375=CARTESIAN_POINT('',(-0.00466052639919853,-0.01,0.00189384825060886));
#376=CARTESIAN_POINT('',(-0.00492446413108773,-0.01,0.00101637480759226));
#377=CARTESIAN_POINT('',(-0.00502839384823344,-0.01,9.21021235714569E-5));
#378=CARTESIAN_POINT('',(-0.0049573222970186,-0.01,-0.00085066358519405));
#379=CARTESIAN_POINT('',(-0.00471512099935917,-0.01,-0.0017578537080451));
#380=CARTESIAN_POINT('',(-0.00425771804894437,-0.01,-0.00269358175959092));
#381=CARTESIAN_POINT('',(-0.00359983957358569,-0.01,-0.00352092204220239));
#382=CARTESIAN_POINT('',(-0.00280099227057776,-0.01,-0.00418579969647353));
#383=CARTESIAN_POINT('',(-0.00189384830344855,-0.01,-0.00466052670374885));
#384=CARTESIAN_POINT('',(-0.00101637461640056,-0.01,-0.00492446302611063));
#385=CARTESIAN_POINT('',(-9.21028449168436E-5,-0.01,-0.00502839801802363));
#386=CARTESIAN_POINT('',(0.000850666350527463,-0.01,-0.0049573063115715));
#387=CARTESIAN_POINT('',(0.00175784317277422,-0.01,-0.00471518190022088));
#388=CARTESIAN_POINT('',(0.0026936225258023,-0.01,-0.00425748239315326));
#389=CARTESIAN_POINT('',(0.0035207779000077,-0.01,-0.00360067281125843));
#390=CARTESIAN_POINT('',(0.00418633696170689,-0.01,-0.00279788652049645));
#391=CARTESIAN_POINT('',(0.0046625106613585,-0.01,-0.00189781688754977));
#392=CARTESIAN_POINT('',(0.00494257607060904,-0.01,-0.000934290308088348));
#393=CARTESIAN_POINT('',(0.0050282012729159,-0.01,-4.35149066822599E-5));
#394=CARTESIAN_POINT('',(0.00494628573098114,-0.01,0.000902163197449023));
#395=CARTESIAN_POINT('',(0.005,-0.01,6.12323399573677E-19));
#396=CARTESIAN_POINT('',(0.,-0.0137,0.));
#397=CARTESIAN_POINT('',(0.,-0.0137,0.));
#398=CARTESIAN_POINT('',(0.00615,-0.0137,7.53157781475622E-19));
#399=CARTESIAN_POINT('',(0.,-0.01,0.));
#400=CARTESIAN_POINT('',(0.00558566070880438,-0.01,0.00105966084852704));
#401=CARTESIAN_POINT('',(0.00567975020413454,-0.01,3.43197152395539E-5));
#402=CARTESIAN_POINT('',(0.00559500647781362,-0.01,-0.000986225648173547));
#403=CARTESIAN_POINT('',(0.00531156033235452,-0.01,-0.00203337564012336));
#404=CARTESIAN_POINT('',(0.00479763493281956,-0.01,-0.0030586070205847));
#405=CARTESIAN_POINT('',(0.00406784236432726,-0.01,-0.00397977081282631));
#406=CARTESIAN_POINT('',(0.00316181325443894,-0.01,-0.0047304745125328));
#407=CARTESIAN_POINT('',(0.00214358813765411,-0.01,-0.00526851695421941));
#408=CARTESIAN_POINT('',(0.00107800510463125,-0.01,-0.0055802680303219));
#409=CARTESIAN_POINT('',(5.41399972248775E-5,-0.01,-0.00567950042282401));
#410=CARTESIAN_POINT('',(-0.000966998798736705,-0.01,-0.00560013341154435));
#411=CARTESIAN_POINT('',(-0.0020323040293836,-0.01,-0.00531205275645827));
#412=CARTESIAN_POINT('',(-0.00305859703587334,-0.01,-0.00479766223450229));
#413=CARTESIAN_POINT('',(-0.00397976029446121,-0.01,-0.0040678461015134));
#414=CARTESIAN_POINT('',(-0.00473047680028617,-0.01,-0.00316181292910307));
#415=CARTESIAN_POINT('',(-0.00526851632255462,-0.01,-0.00214358826244649));
#416=CARTESIAN_POINT('',(-0.00558026819905492,-0.01,-0.00107800507314014));
#417=CARTESIAN_POINT('',(-0.00567950037760499,-0.01,-5.41400057576652E-5));
#418=CARTESIAN_POINT('',(-0.00560013342366192,-0.01,0.000966998801021484));
#419=CARTESIAN_POINT('',(-0.0053120527532089,-0.01,0.00203230402875944));
#420=CARTESIAN_POINT('',(-0.00479766223538249,-0.01,0.00305859703608424));
#421=CARTESIAN_POINT('',(-0.00406784610124171,-0.01,0.0039797602942424));
#422=CARTESIAN_POINT('',(-0.00316181292930858,-0.01,0.00473047680095186));
#423=CARTESIAN_POINT('',(-0.00214358826189394,-0.01,0.00526851632011259));
#424=CARTESIAN_POINT('',(-0.00107800507514169,-0.01,0.00558026820815894));
#425=CARTESIAN_POINT('',(-5.41399983038069E-5,-0.01,0.00567950034363073));
#426=CARTESIAN_POINT('',(0.000966998773206153,-0.01,0.00560013355045496));
#427=CARTESIAN_POINT('',(0.00203230413257094,-0.01,0.00531205228001097));
#428=CARTESIAN_POINT('',(0.0030585966486573,-0.01,0.0047976640013797));
#429=CARTESIAN_POINT('',(0.00397976174013973,-0.01,0.0040678395104504));
#430=CARTESIAN_POINT('',(0.00473047140478949,-0.01,0.00316183752647636));
#431=CARTESIAN_POINT('',(0.00526853645886198,-0.01,0.0021434964640172));
#432=CARTESIAN_POINT('',(0.00558566070880438,-0.01,0.00105966084852704));
#433=CARTESIAN_POINT('',(0.00567975020413454,-0.01,3.43197152395539E-5));
#434=CARTESIAN_POINT('',(0.00559500647781362,-0.01,-0.000986225648173547));
#435=CARTESIAN_POINT('',(0.00565,-0.01,-1.38385088303651E-18));
#436=CARTESIAN_POINT('',(0.,-0.01,0.));
#437=CARTESIAN_POINT('',(0.,-0.0105,0.));
#438=CARTESIAN_POINT('',(0.00615,-0.0105,0.));
#439=CARTESIAN_POINT('',(0.,-0.0105,0.));
#440=MECHANICAL_DESIGN_GEOMETRIC_PRESENTATION_REPRESENTATION('',(#175),
#441);
#441=(
GEOMETRIC_REPRESENTATION_CONTEXT(3)
GLOBAL_UNCERTAINTY_ASSIGNED_CONTEXT((#442))
GLOBAL_UNIT_ASSIGNED_CONTEXT((#445,#444,#443))
REPRESENTATION_CONTEXT('KP0064-01_16mmShaftEndCap',
'TOP_LEVEL_ASSEMBLY_PART')
);
#442=UNCERTAINTY_MEASURE_WITH_UNIT(LENGTH_MEASURE(2.E-5),#445,
'DISTANCE_ACCURACY_VALUE','Maximum Tolerance applied to model');
#443=(
NAMED_UNIT(*)
SI_UNIT($,.STERADIAN.)
SOLID_ANGLE_UNIT()
);
#444=(
NAMED_UNIT(*)
PLANE_ANGLE_UNIT()
SI_UNIT($,.RADIAN.)
);
#445=(
LENGTH_UNIT()
NAMED_UNIT(*)
SI_UNIT($,.METRE.)
);
#446=PRODUCT_DEFINITION_SHAPE('','',#447);
#447=PRODUCT_DEFINITION('','',#449,#448);
#448=PRODUCT_DEFINITION_CONTEXT('',#455,'design');
#449=PRODUCT_DEFINITION_FORMATION_WITH_SPECIFIED_SOURCE('','',#451,
 .NOT_KNOWN.);
#450=PRODUCT_RELATED_PRODUCT_CATEGORY('','',(#451));
#451=PRODUCT('KP0064-01_16mmShaftEndCap','KP0064-01_16mmShaftEndCap',
'KP0064-01_16mmShaftEndCap',(#453));
#452=PRODUCT_CATEGORY('','');
#453=PRODUCT_CONTEXT('',#455,'mechanical');
#454=APPLICATION_PROTOCOL_DEFINITION('international standard',
'automotive_design',2010,#455);
#455=APPLICATION_CONTEXT(
'core data for automotive mechanical design processes');
ENDSEC;
END-ISO-10303-21;
