ISO-10303-21;
HEADER;
/* Generated by software containing ST-Developer
 * from STEP Tools, Inc. (www.steptools.com) 
 */
/* OPTION: using custom renumber hook */

FILE_DESCRIPTION(
/* description */ ('STEP AP214',
'CAx-IF Rec.Pracs.---User Defined Attributes---1.5---2016-08-15'),
/* implementation_level */ '2;1');

FILE_NAME(
/* name */ '6a65b5687e652834a1e6d194',
/* time_stamp */ '2026-07-26T07:21:12Z',
/* author */ (''),
/* organization */ (''),
/* preprocessor_version */ 'ST-DEVELOPER v20',
/* originating_system */ 'ONSHAPE BY PTC INC, 1.218',
/* authorisation */ '  ');

FILE_SCHEMA (('AUTOMOTIVE_DESIGN {1 0 10303 214 3 1 1}'));
ENDSEC;

DATA;
#10=PROPERTY_DEFINITION_REPRESENTATION(#14,#12);
#11=PROPERTY_DEFINITION_REPRESENTATION(#15,#13);
#12=REPRESENTATION('',(#16),#1355);
#13=REPRESENTATION('',(#17),#1355);
#14=PROPERTY_DEFINITION('pmi validation property','',#1360);
#15=PROPERTY_DEFINITION('pmi validation property','',#1360);
#16=VALUE_REPRESENTATION_ITEM('number of annotations',COUNT_MEASURE(0.));
#17=VALUE_REPRESENTATION_ITEM('number of views',COUNT_MEASURE(0.));
#18=SHAPE_REPRESENTATION_RELATIONSHIP('','',#805,#19);
#19=ADVANCED_BREP_SHAPE_REPRESENTATION('',(#803),#1355);
#20=CYLINDRICAL_SURFACE('',#831,0.00075);
#21=CYLINDRICAL_SURFACE('',#833,0.00075);
#22=CYLINDRICAL_SURFACE('',#835,0.00075);
#23=CYLINDRICAL_SURFACE('',#837,0.00075);
#24=CYLINDRICAL_SURFACE('',#839,0.00075);
#25=CYLINDRICAL_SURFACE('',#841,0.00075);
#26=CYLINDRICAL_SURFACE('',#843,0.00075);
#27=CYLINDRICAL_SURFACE('',#845,0.00075);
#28=CYLINDRICAL_SURFACE('',#847,0.00075);
#29=CYLINDRICAL_SURFACE('',#849,0.00075);
#30=CYLINDRICAL_SURFACE('',#851,0.00075);
#31=CYLINDRICAL_SURFACE('',#853,0.00075);
#32=CYLINDRICAL_SURFACE('',#855,0.00075);
#33=CYLINDRICAL_SURFACE('',#857,0.00075);
#34=CYLINDRICAL_SURFACE('',#859,0.00075);
#35=CYLINDRICAL_SURFACE('',#861,0.00075);
#36=CYLINDRICAL_SURFACE('',#863,0.00075);
#37=CYLINDRICAL_SURFACE('',#865,0.00075);
#38=CYLINDRICAL_SURFACE('',#868,0.00333160792193377);
#39=CYLINDRICAL_SURFACE('',#870,0.00408160792193377);
#40=CYLINDRICAL_SURFACE('',#872,0.00333160792193377);
#41=CYLINDRICAL_SURFACE('',#875,0.00333160792193377);
#42=CYLINDRICAL_SURFACE('',#878,0.00333160792193377);
#43=CYLINDRICAL_SURFACE('',#894,0.00205631023454533);
#44=CYLINDRICAL_SURFACE('',#896,0.00130631023454533);
#45=CYLINDRICAL_SURFACE('',#898,0.00130631023454533);
#46=CYLINDRICAL_SURFACE('',#900,0.00130631023454533);
#47=CYLINDRICAL_SURFACE('',#902,0.00130631023454533);
#48=LINE('',#1181,#88);
#49=LINE('',#1185,#89);
#50=LINE('',#1189,#90);
#51=LINE('',#1193,#91);
#52=LINE('',#1197,#92);
#53=LINE('',#1253,#93);
#54=LINE('',#1255,#94);
#55=LINE('',#1257,#95);
#56=LINE('',#1261,#96);
#57=LINE('',#1263,#97);
#58=LINE('',#1267,#98);
#59=LINE('',#1269,#99);
#60=LINE('',#1273,#100);
#61=LINE('',#1275,#101);
#62=LINE('',#1277,#102);
#63=LINE('',#1281,#103);
#64=LINE('',#1283,#104);
#65=LINE('',#1285,#105);
#66=LINE('',#1289,#106);
#67=LINE('',#1294,#107);
#68=LINE('',#1298,#108);
#69=LINE('',#1302,#109);
#70=LINE('',#1306,#110);
#71=LINE('',#1310,#111);
#72=LINE('',#1315,#112);
#73=LINE('',#1319,#113);
#74=LINE('',#1323,#114);
#75=LINE('',#1327,#115);
#76=LINE('',#1330,#116);
#77=LINE('',#1331,#117);
#78=LINE('',#1335,#118);
#79=LINE('',#1336,#119);
#80=LINE('',#1338,#120);
#81=LINE('',#1340,#121);
#82=LINE('',#1342,#122);
#83=LINE('',#1344,#123);
#84=LINE('',#1346,#124);
#85=LINE('',#1348,#125);
#86=LINE('',#1350,#126);
#87=LINE('',#1352,#127);
#88=VECTOR('',#946,1.);
#89=VECTOR('',#949,1.);
#90=VECTOR('',#952,1.);
#91=VECTOR('',#955,1.);
#92=VECTOR('',#958,1.);
#93=VECTOR('',#1033,1.);
#94=VECTOR('',#1034,1.);
#95=VECTOR('',#1035,1.);
#96=VECTOR('',#1040,1.);
#97=VECTOR('',#1043,1.);
#98=VECTOR('',#1046,1.);
#99=VECTOR('',#1049,1.);
#100=VECTOR('',#1052,1.);
#101=VECTOR('',#1055,1.);
#102=VECTOR('',#1056,1.);
#103=VECTOR('',#1061,1.);
#104=VECTOR('',#1064,1.);
#105=VECTOR('',#1065,1.);
#106=VECTOR('',#1072,1.);
#107=VECTOR('',#1075,1.);
#108=VECTOR('',#1078,1.);
#109=VECTOR('',#1081,1.);
#110=VECTOR('',#1084,1.);
#111=VECTOR('',#1089,1.);
#112=VECTOR('',#1092,1.);
#113=VECTOR('',#1095,1.);
#114=VECTOR('',#1098,1.);
#115=VECTOR('',#1101,1.);
#116=VECTOR('',#1104,1.);
#117=VECTOR('',#1105,1.);
#118=VECTOR('',#1112,1.);
#119=VECTOR('',#1113,1.);
#120=VECTOR('',#1116,1.);
#121=VECTOR('',#1119,1.);
#122=VECTOR('',#1122,1.);
#123=VECTOR('',#1125,1.);
#124=VECTOR('',#1128,1.);
#125=VECTOR('',#1131,1.);
#126=VECTOR('',#1134,1.);
#127=VECTOR('',#1137,1.);
#128=ORIENTED_EDGE('',*,*,#320,.F.);
#129=ORIENTED_EDGE('',*,*,#321,.F.);
#130=ORIENTED_EDGE('',*,*,#322,.F.);
#131=ORIENTED_EDGE('',*,*,#323,.F.);
#132=ORIENTED_EDGE('',*,*,#324,.F.);
#133=ORIENTED_EDGE('',*,*,#325,.F.);
#134=ORIENTED_EDGE('',*,*,#326,.F.);
#135=ORIENTED_EDGE('',*,*,#327,.F.);
#136=ORIENTED_EDGE('',*,*,#328,.F.);
#137=ORIENTED_EDGE('',*,*,#329,.F.);
#138=ORIENTED_EDGE('',*,*,#330,.F.);
#139=ORIENTED_EDGE('',*,*,#331,.F.);
#140=ORIENTED_EDGE('',*,*,#332,.F.);
#141=ORIENTED_EDGE('',*,*,#333,.F.);
#142=ORIENTED_EDGE('',*,*,#334,.F.);
#143=ORIENTED_EDGE('',*,*,#335,.F.);
#144=ORIENTED_EDGE('',*,*,#336,.F.);
#145=ORIENTED_EDGE('',*,*,#337,.F.);
#146=ORIENTED_EDGE('',*,*,#338,.F.);
#147=ORIENTED_EDGE('',*,*,#339,.F.);
#148=ORIENTED_EDGE('',*,*,#340,.F.);
#149=ORIENTED_EDGE('',*,*,#341,.F.);
#150=ORIENTED_EDGE('',*,*,#342,.F.);
#151=ORIENTED_EDGE('',*,*,#343,.F.);
#152=ORIENTED_EDGE('',*,*,#344,.F.);
#153=ORIENTED_EDGE('',*,*,#345,.F.);
#154=ORIENTED_EDGE('',*,*,#346,.F.);
#155=ORIENTED_EDGE('',*,*,#347,.F.);
#156=ORIENTED_EDGE('',*,*,#320,.T.);
#157=ORIENTED_EDGE('',*,*,#348,.F.);
#158=ORIENTED_EDGE('',*,*,#321,.T.);
#159=ORIENTED_EDGE('',*,*,#349,.F.);
#160=ORIENTED_EDGE('',*,*,#322,.T.);
#161=ORIENTED_EDGE('',*,*,#350,.F.);
#162=ORIENTED_EDGE('',*,*,#323,.T.);
#163=ORIENTED_EDGE('',*,*,#351,.F.);
#164=ORIENTED_EDGE('',*,*,#324,.T.);
#165=ORIENTED_EDGE('',*,*,#352,.F.);
#166=ORIENTED_EDGE('',*,*,#325,.T.);
#167=ORIENTED_EDGE('',*,*,#353,.F.);
#168=ORIENTED_EDGE('',*,*,#326,.T.);
#169=ORIENTED_EDGE('',*,*,#354,.F.);
#170=ORIENTED_EDGE('',*,*,#327,.T.);
#171=ORIENTED_EDGE('',*,*,#355,.F.);
#172=ORIENTED_EDGE('',*,*,#328,.T.);
#173=ORIENTED_EDGE('',*,*,#356,.F.);
#174=ORIENTED_EDGE('',*,*,#329,.T.);
#175=ORIENTED_EDGE('',*,*,#357,.F.);
#176=ORIENTED_EDGE('',*,*,#330,.T.);
#177=ORIENTED_EDGE('',*,*,#358,.F.);
#178=ORIENTED_EDGE('',*,*,#331,.T.);
#179=ORIENTED_EDGE('',*,*,#359,.F.);
#180=ORIENTED_EDGE('',*,*,#332,.T.);
#181=ORIENTED_EDGE('',*,*,#360,.F.);
#182=ORIENTED_EDGE('',*,*,#333,.T.);
#183=ORIENTED_EDGE('',*,*,#361,.F.);
#184=ORIENTED_EDGE('',*,*,#334,.T.);
#185=ORIENTED_EDGE('',*,*,#362,.F.);
#186=ORIENTED_EDGE('',*,*,#335,.T.);
#187=ORIENTED_EDGE('',*,*,#363,.F.);
#188=ORIENTED_EDGE('',*,*,#336,.T.);
#189=ORIENTED_EDGE('',*,*,#364,.F.);
#190=ORIENTED_EDGE('',*,*,#337,.T.);
#191=ORIENTED_EDGE('',*,*,#365,.F.);
#192=ORIENTED_EDGE('',*,*,#347,.T.);
#193=ORIENTED_EDGE('',*,*,#366,.T.);
#194=ORIENTED_EDGE('',*,*,#367,.T.);
#195=ORIENTED_EDGE('',*,*,#368,.T.);
#196=ORIENTED_EDGE('',*,*,#338,.T.);
#197=ORIENTED_EDGE('',*,*,#368,.F.);
#198=ORIENTED_EDGE('',*,*,#369,.T.);
#199=ORIENTED_EDGE('',*,*,#370,.T.);
#200=ORIENTED_EDGE('',*,*,#340,.T.);
#201=ORIENTED_EDGE('',*,*,#371,.T.);
#202=ORIENTED_EDGE('',*,*,#372,.T.);
#203=ORIENTED_EDGE('',*,*,#373,.T.);
#204=ORIENTED_EDGE('',*,*,#342,.T.);
#205=ORIENTED_EDGE('',*,*,#374,.T.);
#206=ORIENTED_EDGE('',*,*,#375,.T.);
#207=ORIENTED_EDGE('',*,*,#376,.T.);
#208=ORIENTED_EDGE('',*,*,#343,.T.);
#209=ORIENTED_EDGE('',*,*,#376,.F.);
#210=ORIENTED_EDGE('',*,*,#377,.T.);
#211=ORIENTED_EDGE('',*,*,#378,.T.);
#212=ORIENTED_EDGE('',*,*,#344,.T.);
#213=ORIENTED_EDGE('',*,*,#378,.F.);
#214=ORIENTED_EDGE('',*,*,#379,.T.);
#215=ORIENTED_EDGE('',*,*,#380,.T.);
#216=ORIENTED_EDGE('',*,*,#345,.T.);
#217=ORIENTED_EDGE('',*,*,#380,.F.);
#218=ORIENTED_EDGE('',*,*,#381,.T.);
#219=ORIENTED_EDGE('',*,*,#382,.T.);
#220=ORIENTED_EDGE('',*,*,#346,.T.);
#221=ORIENTED_EDGE('',*,*,#382,.F.);
#222=ORIENTED_EDGE('',*,*,#383,.T.);
#223=ORIENTED_EDGE('',*,*,#366,.F.);
#224=ORIENTED_EDGE('',*,*,#348,.T.);
#225=ORIENTED_EDGE('',*,*,#349,.T.);
#226=ORIENTED_EDGE('',*,*,#350,.T.);
#227=ORIENTED_EDGE('',*,*,#351,.T.);
#228=ORIENTED_EDGE('',*,*,#352,.T.);
#229=ORIENTED_EDGE('',*,*,#353,.T.);
#230=ORIENTED_EDGE('',*,*,#354,.T.);
#231=ORIENTED_EDGE('',*,*,#355,.T.);
#232=ORIENTED_EDGE('',*,*,#356,.T.);
#233=ORIENTED_EDGE('',*,*,#357,.T.);
#234=ORIENTED_EDGE('',*,*,#358,.T.);
#235=ORIENTED_EDGE('',*,*,#359,.T.);
#236=ORIENTED_EDGE('',*,*,#360,.T.);
#237=ORIENTED_EDGE('',*,*,#361,.T.);
#238=ORIENTED_EDGE('',*,*,#362,.T.);
#239=ORIENTED_EDGE('',*,*,#363,.T.);
#240=ORIENTED_EDGE('',*,*,#364,.T.);
#241=ORIENTED_EDGE('',*,*,#365,.T.);
#242=ORIENTED_EDGE('',*,*,#384,.T.);
#243=ORIENTED_EDGE('',*,*,#385,.T.);
#244=ORIENTED_EDGE('',*,*,#386,.T.);
#245=ORIENTED_EDGE('',*,*,#387,.T.);
#246=ORIENTED_EDGE('',*,*,#388,.T.);
#247=ORIENTED_EDGE('',*,*,#389,.T.);
#248=ORIENTED_EDGE('',*,*,#390,.T.);
#249=ORIENTED_EDGE('',*,*,#391,.T.);
#250=ORIENTED_EDGE('',*,*,#392,.T.);
#251=ORIENTED_EDGE('',*,*,#393,.T.);
#252=ORIENTED_EDGE('',*,*,#394,.T.);
#253=ORIENTED_EDGE('',*,*,#395,.T.);
#254=ORIENTED_EDGE('',*,*,#396,.T.);
#255=ORIENTED_EDGE('',*,*,#397,.T.);
#256=ORIENTED_EDGE('',*,*,#398,.T.);
#257=ORIENTED_EDGE('',*,*,#399,.T.);
#258=ORIENTED_EDGE('',*,*,#400,.T.);
#259=ORIENTED_EDGE('',*,*,#401,.T.);
#260=ORIENTED_EDGE('',*,*,#402,.T.);
#261=ORIENTED_EDGE('',*,*,#403,.T.);
#262=ORIENTED_EDGE('',*,*,#404,.T.);
#263=ORIENTED_EDGE('',*,*,#372,.F.);
#264=ORIENTED_EDGE('',*,*,#405,.T.);
#265=ORIENTED_EDGE('',*,*,#369,.F.);
#266=ORIENTED_EDGE('',*,*,#367,.F.);
#267=ORIENTED_EDGE('',*,*,#383,.F.);
#268=ORIENTED_EDGE('',*,*,#381,.F.);
#269=ORIENTED_EDGE('',*,*,#379,.F.);
#270=ORIENTED_EDGE('',*,*,#377,.F.);
#271=ORIENTED_EDGE('',*,*,#375,.F.);
#272=ORIENTED_EDGE('',*,*,#339,.T.);
#273=ORIENTED_EDGE('',*,*,#370,.F.);
#274=ORIENTED_EDGE('',*,*,#405,.F.);
#275=ORIENTED_EDGE('',*,*,#371,.F.);
#276=ORIENTED_EDGE('',*,*,#341,.T.);
#277=ORIENTED_EDGE('',*,*,#373,.F.);
#278=ORIENTED_EDGE('',*,*,#404,.F.);
#279=ORIENTED_EDGE('',*,*,#374,.F.);
#280=ORIENTED_EDGE('',*,*,#406,.F.);
#281=ORIENTED_EDGE('',*,*,#385,.F.);
#282=ORIENTED_EDGE('',*,*,#407,.F.);
#283=ORIENTED_EDGE('',*,*,#397,.F.);
#284=ORIENTED_EDGE('',*,*,#407,.T.);
#285=ORIENTED_EDGE('',*,*,#384,.F.);
#286=ORIENTED_EDGE('',*,*,#408,.F.);
#287=ORIENTED_EDGE('',*,*,#398,.F.);
#288=ORIENTED_EDGE('',*,*,#408,.T.);
#289=ORIENTED_EDGE('',*,*,#393,.F.);
#290=ORIENTED_EDGE('',*,*,#409,.F.);
#291=ORIENTED_EDGE('',*,*,#399,.F.);
#292=ORIENTED_EDGE('',*,*,#409,.T.);
#293=ORIENTED_EDGE('',*,*,#392,.F.);
#294=ORIENTED_EDGE('',*,*,#410,.F.);
#295=ORIENTED_EDGE('',*,*,#400,.F.);
#296=ORIENTED_EDGE('',*,*,#410,.T.);
#297=ORIENTED_EDGE('',*,*,#391,.F.);
#298=ORIENTED_EDGE('',*,*,#411,.F.);
#299=ORIENTED_EDGE('',*,*,#401,.F.);
#300=ORIENTED_EDGE('',*,*,#411,.T.);
#301=ORIENTED_EDGE('',*,*,#390,.F.);
#302=ORIENTED_EDGE('',*,*,#412,.F.);
#303=ORIENTED_EDGE('',*,*,#402,.F.);
#304=ORIENTED_EDGE('',*,*,#412,.T.);
#305=ORIENTED_EDGE('',*,*,#389,.F.);
#306=ORIENTED_EDGE('',*,*,#413,.F.);
#307=ORIENTED_EDGE('',*,*,#403,.F.);
#308=ORIENTED_EDGE('',*,*,#413,.T.);
#309=ORIENTED_EDGE('',*,*,#388,.F.);
#310=ORIENTED_EDGE('',*,*,#414,.F.);
#311=ORIENTED_EDGE('',*,*,#394,.F.);
#312=ORIENTED_EDGE('',*,*,#414,.T.);
#313=ORIENTED_EDGE('',*,*,#387,.F.);
#314=ORIENTED_EDGE('',*,*,#415,.F.);
#315=ORIENTED_EDGE('',*,*,#395,.F.);
#316=ORIENTED_EDGE('',*,*,#415,.T.);
#317=ORIENTED_EDGE('',*,*,#386,.F.);
#318=ORIENTED_EDGE('',*,*,#406,.T.);
#319=ORIENTED_EDGE('',*,*,#396,.F.);
#320=EDGE_CURVE('',#416,#416,#492,.F.);
#321=EDGE_CURVE('',#417,#417,#493,.F.);
#322=EDGE_CURVE('',#418,#418,#494,.F.);
#323=EDGE_CURVE('',#419,#419,#495,.F.);
#324=EDGE_CURVE('',#420,#420,#496,.F.);
#325=EDGE_CURVE('',#421,#421,#497,.F.);
#326=EDGE_CURVE('',#422,#422,#498,.F.);
#327=EDGE_CURVE('',#423,#423,#499,.F.);
#328=EDGE_CURVE('',#424,#424,#500,.F.);
#329=EDGE_CURVE('',#425,#425,#501,.F.);
#330=EDGE_CURVE('',#426,#426,#502,.F.);
#331=EDGE_CURVE('',#427,#427,#503,.F.);
#332=EDGE_CURVE('',#428,#428,#504,.F.);
#333=EDGE_CURVE('',#429,#429,#505,.F.);
#334=EDGE_CURVE('',#430,#430,#506,.F.);
#335=EDGE_CURVE('',#431,#431,#507,.F.);
#336=EDGE_CURVE('',#432,#432,#508,.F.);
#337=EDGE_CURVE('',#433,#433,#509,.F.);
#338=EDGE_CURVE('',#434,#435,#510,.T.);
#339=EDGE_CURVE('',#436,#434,#48,.T.);
#340=EDGE_CURVE('',#437,#436,#511,.T.);
#341=EDGE_CURVE('',#438,#437,#49,.T.);
#342=EDGE_CURVE('',#439,#438,#512,.T.);
#343=EDGE_CURVE('',#440,#439,#50,.T.);
#344=EDGE_CURVE('',#441,#440,#513,.T.);
#345=EDGE_CURVE('',#442,#441,#51,.F.);
#346=EDGE_CURVE('',#443,#442,#514,.T.);
#347=EDGE_CURVE('',#435,#443,#52,.F.);
#348=EDGE_CURVE('',#444,#444,#515,.F.);
#349=EDGE_CURVE('',#445,#445,#516,.F.);
#350=EDGE_CURVE('',#446,#446,#517,.F.);
#351=EDGE_CURVE('',#447,#447,#518,.F.);
#352=EDGE_CURVE('',#448,#448,#519,.F.);
#353=EDGE_CURVE('',#449,#449,#520,.F.);
#354=EDGE_CURVE('',#450,#450,#521,.F.);
#355=EDGE_CURVE('',#451,#451,#522,.F.);
#356=EDGE_CURVE('',#452,#452,#523,.F.);
#357=EDGE_CURVE('',#453,#453,#524,.F.);
#358=EDGE_CURVE('',#454,#454,#525,.F.);
#359=EDGE_CURVE('',#455,#455,#526,.F.);
#360=EDGE_CURVE('',#456,#456,#527,.F.);
#361=EDGE_CURVE('',#457,#457,#528,.F.);
#362=EDGE_CURVE('',#458,#458,#529,.F.);
#363=EDGE_CURVE('',#459,#459,#530,.F.);
#364=EDGE_CURVE('',#460,#460,#531,.F.);
#365=EDGE_CURVE('',#461,#461,#532,.F.);
#366=EDGE_CURVE('',#443,#462,#53,.T.);
#367=EDGE_CURVE('',#462,#463,#54,.T.);
#368=EDGE_CURVE('',#463,#435,#55,.F.);
#369=EDGE_CURVE('',#463,#464,#533,.F.);
#370=EDGE_CURVE('',#464,#434,#56,.F.);
#371=EDGE_CURVE('',#436,#465,#57,.T.);
#372=EDGE_CURVE('',#465,#466,#534,.F.);
#373=EDGE_CURVE('',#466,#437,#58,.F.);
#374=EDGE_CURVE('',#438,#467,#59,.T.);
#375=EDGE_CURVE('',#467,#468,#535,.F.);
#376=EDGE_CURVE('',#468,#439,#60,.F.);
#377=EDGE_CURVE('',#468,#469,#61,.F.);
#378=EDGE_CURVE('',#469,#440,#62,.T.);
#379=EDGE_CURVE('',#469,#470,#536,.F.);
#380=EDGE_CURVE('',#470,#441,#63,.F.);
#381=EDGE_CURVE('',#470,#471,#64,.T.);
#382=EDGE_CURVE('',#471,#442,#65,.F.);
#383=EDGE_CURVE('',#471,#462,#537,.F.);
#384=EDGE_CURVE('',#472,#473,#66,.T.);
#385=EDGE_CURVE('',#473,#474,#538,.T.);
#386=EDGE_CURVE('',#474,#475,#67,.T.);
#387=EDGE_CURVE('',#475,#476,#539,.T.);
#388=EDGE_CURVE('',#476,#477,#68,.F.);
#389=EDGE_CURVE('',#477,#478,#540,.T.);
#390=EDGE_CURVE('',#478,#479,#69,.F.);
#391=EDGE_CURVE('',#479,#480,#541,.T.);
#392=EDGE_CURVE('',#480,#481,#70,.T.);
#393=EDGE_CURVE('',#481,#472,#542,.T.);
#394=EDGE_CURVE('',#482,#483,#71,.T.);
#395=EDGE_CURVE('',#483,#484,#543,.F.);
#396=EDGE_CURVE('',#484,#485,#72,.F.);
#397=EDGE_CURVE('',#485,#486,#544,.F.);
#398=EDGE_CURVE('',#486,#487,#73,.F.);
#399=EDGE_CURVE('',#487,#488,#545,.F.);
#400=EDGE_CURVE('',#488,#489,#74,.F.);
#401=EDGE_CURVE('',#489,#490,#546,.F.);
#402=EDGE_CURVE('',#490,#491,#75,.T.);
#403=EDGE_CURVE('',#491,#482,#547,.F.);
#404=EDGE_CURVE('',#467,#466,#76,.T.);
#405=EDGE_CURVE('',#465,#464,#77,.T.);
#406=EDGE_CURVE('',#474,#485,#78,.T.);
#407=EDGE_CURVE('',#486,#473,#79,.F.);
#408=EDGE_CURVE('',#487,#472,#80,.T.);
#409=EDGE_CURVE('',#488,#481,#81,.F.);
#410=EDGE_CURVE('',#489,#480,#82,.T.);
#411=EDGE_CURVE('',#490,#479,#83,.F.);
#412=EDGE_CURVE('',#491,#478,#84,.F.);
#413=EDGE_CURVE('',#482,#477,#85,.F.);
#414=EDGE_CURVE('',#483,#476,#86,.F.);
#415=EDGE_CURVE('',#484,#475,#87,.F.);
#416=VERTEX_POINT('',#1143);
#417=VERTEX_POINT('',#1145);
#418=VERTEX_POINT('',#1147);
#419=VERTEX_POINT('',#1149);
#420=VERTEX_POINT('',#1151);
#421=VERTEX_POINT('',#1153);
#422=VERTEX_POINT('',#1155);
#423=VERTEX_POINT('',#1157);
#424=VERTEX_POINT('',#1159);
#425=VERTEX_POINT('',#1161);
#426=VERTEX_POINT('',#1163);
#427=VERTEX_POINT('',#1165);
#428=VERTEX_POINT('',#1167);
#429=VERTEX_POINT('',#1169);
#430=VERTEX_POINT('',#1171);
#431=VERTEX_POINT('',#1173);
#432=VERTEX_POINT('',#1175);
#433=VERTEX_POINT('',#1177);
#434=VERTEX_POINT('',#1179);
#435=VERTEX_POINT('',#1180);
#436=VERTEX_POINT('',#1182);
#437=VERTEX_POINT('',#1184);
#438=VERTEX_POINT('',#1186);
#439=VERTEX_POINT('',#1188);
#440=VERTEX_POINT('',#1190);
#441=VERTEX_POINT('',#1192);
#442=VERTEX_POINT('',#1194);
#443=VERTEX_POINT('',#1196);
#444=VERTEX_POINT('',#1200);
#445=VERTEX_POINT('',#1203);
#446=VERTEX_POINT('',#1206);
#447=VERTEX_POINT('',#1209);
#448=VERTEX_POINT('',#1212);
#449=VERTEX_POINT('',#1215);
#450=VERTEX_POINT('',#1218);
#451=VERTEX_POINT('',#1221);
#452=VERTEX_POINT('',#1224);
#453=VERTEX_POINT('',#1227);
#454=VERTEX_POINT('',#1230);
#455=VERTEX_POINT('',#1233);
#456=VERTEX_POINT('',#1236);
#457=VERTEX_POINT('',#1239);
#458=VERTEX_POINT('',#1242);
#459=VERTEX_POINT('',#1245);
#460=VERTEX_POINT('',#1248);
#461=VERTEX_POINT('',#1251);
#462=VERTEX_POINT('',#1254);
#463=VERTEX_POINT('',#1256);
#464=VERTEX_POINT('',#1260);
#465=VERTEX_POINT('',#1264);
#466=VERTEX_POINT('',#1266);
#467=VERTEX_POINT('',#1270);
#468=VERTEX_POINT('',#1272);
#469=VERTEX_POINT('',#1276);
#470=VERTEX_POINT('',#1280);
#471=VERTEX_POINT('',#1284);
#472=VERTEX_POINT('',#1290);
#473=VERTEX_POINT('',#1291);
#474=VERTEX_POINT('',#1293);
#475=VERTEX_POINT('',#1295);
#476=VERTEX_POINT('',#1297);
#477=VERTEX_POINT('',#1299);
#478=VERTEX_POINT('',#1301);
#479=VERTEX_POINT('',#1303);
#480=VERTEX_POINT('',#1305);
#481=VERTEX_POINT('',#1307);
#482=VERTEX_POINT('',#1311);
#483=VERTEX_POINT('',#1312);
#484=VERTEX_POINT('',#1314);
#485=VERTEX_POINT('',#1316);
#486=VERTEX_POINT('',#1318);
#487=VERTEX_POINT('',#1320);
#488=VERTEX_POINT('',#1322);
#489=VERTEX_POINT('',#1324);
#490=VERTEX_POINT('',#1326);
#491=VERTEX_POINT('',#1328);
#492=CIRCLE('',#808,0.00075);
#493=CIRCLE('',#809,0.00075);
#494=CIRCLE('',#810,0.00075);
#495=CIRCLE('',#811,0.00075);
#496=CIRCLE('',#812,0.00075);
#497=CIRCLE('',#813,0.00075);
#498=CIRCLE('',#814,0.00075);
#499=CIRCLE('',#815,0.00075);
#500=CIRCLE('',#816,0.00075);
#501=CIRCLE('',#817,0.00075);
#502=CIRCLE('',#818,0.00075);
#503=CIRCLE('',#819,0.00075);
#504=CIRCLE('',#820,0.00075);
#505=CIRCLE('',#821,0.00075);
#506=CIRCLE('',#822,0.00075);
#507=CIRCLE('',#823,0.00075);
#508=CIRCLE('',#824,0.00075);
#509=CIRCLE('',#825,0.00075);
#510=CIRCLE('',#826,0.00333160792193377);
#511=CIRCLE('',#827,0.00408160792193377);
#512=CIRCLE('',#828,0.00333160792193377);
#513=CIRCLE('',#829,0.00333160792193377);
#514=CIRCLE('',#830,0.00333160792193377);
#515=CIRCLE('',#832,0.00075);
#516=CIRCLE('',#834,0.00075);
#517=CIRCLE('',#836,0.00075);
#518=CIRCLE('',#838,0.00075);
#519=CIRCLE('',#840,0.00075);
#520=CIRCLE('',#842,0.00075);
#521=CIRCLE('',#844,0.00075);
#522=CIRCLE('',#846,0.00075);
#523=CIRCLE('',#848,0.00075);
#524=CIRCLE('',#850,0.00075);
#525=CIRCLE('',#852,0.00075);
#526=CIRCLE('',#854,0.00075);
#527=CIRCLE('',#856,0.00075);
#528=CIRCLE('',#858,0.00075);
#529=CIRCLE('',#860,0.00075);
#530=CIRCLE('',#862,0.00075);
#531=CIRCLE('',#864,0.00075);
#532=CIRCLE('',#866,0.00075);
#533=CIRCLE('',#869,0.00333160792193377);
#534=CIRCLE('',#871,0.00408160792193377);
#535=CIRCLE('',#873,0.00333160792193377);
#536=CIRCLE('',#876,0.00333160792193377);
#537=CIRCLE('',#879,0.00333160792193377);
#538=CIRCLE('',#881,0.00205631023454533);
#539=CIRCLE('',#882,0.00130631023454533);
#540=CIRCLE('',#883,0.00130631023454533);
#541=CIRCLE('',#884,0.00130631023454533);
#542=CIRCLE('',#885,0.00130631023454533);
#543=CIRCLE('',#887,0.00130631023454533);
#544=CIRCLE('',#888,0.00205631023454533);
#545=CIRCLE('',#889,0.00130631023454533);
#546=CIRCLE('',#890,0.00130631023454533);
#547=CIRCLE('',#891,0.00130631023454533);
#548=EDGE_LOOP('',(#128));
#549=EDGE_LOOP('',(#129));
#550=EDGE_LOOP('',(#130));
#551=EDGE_LOOP('',(#131));
#552=EDGE_LOOP('',(#132));
#553=EDGE_LOOP('',(#133));
#554=EDGE_LOOP('',(#134));
#555=EDGE_LOOP('',(#135));
#556=EDGE_LOOP('',(#136));
#557=EDGE_LOOP('',(#137));
#558=EDGE_LOOP('',(#138));
#559=EDGE_LOOP('',(#139));
#560=EDGE_LOOP('',(#140));
#561=EDGE_LOOP('',(#141));
#562=EDGE_LOOP('',(#142));
#563=EDGE_LOOP('',(#143));
#564=EDGE_LOOP('',(#144));
#565=EDGE_LOOP('',(#145));
#566=EDGE_LOOP('',(#146,#147,#148,#149,#150,#151,#152,#153,#154,#155));
#567=EDGE_LOOP('',(#156));
#568=EDGE_LOOP('',(#157));
#569=EDGE_LOOP('',(#158));
#570=EDGE_LOOP('',(#159));
#571=EDGE_LOOP('',(#160));
#572=EDGE_LOOP('',(#161));
#573=EDGE_LOOP('',(#162));
#574=EDGE_LOOP('',(#163));
#575=EDGE_LOOP('',(#164));
#576=EDGE_LOOP('',(#165));
#577=EDGE_LOOP('',(#166));
#578=EDGE_LOOP('',(#167));
#579=EDGE_LOOP('',(#168));
#580=EDGE_LOOP('',(#169));
#581=EDGE_LOOP('',(#170));
#582=EDGE_LOOP('',(#171));
#583=EDGE_LOOP('',(#172));
#584=EDGE_LOOP('',(#173));
#585=EDGE_LOOP('',(#174));
#586=EDGE_LOOP('',(#175));
#587=EDGE_LOOP('',(#176));
#588=EDGE_LOOP('',(#177));
#589=EDGE_LOOP('',(#178));
#590=EDGE_LOOP('',(#179));
#591=EDGE_LOOP('',(#180));
#592=EDGE_LOOP('',(#181));
#593=EDGE_LOOP('',(#182));
#594=EDGE_LOOP('',(#183));
#595=EDGE_LOOP('',(#184));
#596=EDGE_LOOP('',(#185));
#597=EDGE_LOOP('',(#186));
#598=EDGE_LOOP('',(#187));
#599=EDGE_LOOP('',(#188));
#600=EDGE_LOOP('',(#189));
#601=EDGE_LOOP('',(#190));
#602=EDGE_LOOP('',(#191));
#603=EDGE_LOOP('',(#192,#193,#194,#195));
#604=EDGE_LOOP('',(#196,#197,#198,#199));
#605=EDGE_LOOP('',(#200,#201,#202,#203));
#606=EDGE_LOOP('',(#204,#205,#206,#207));
#607=EDGE_LOOP('',(#208,#209,#210,#211));
#608=EDGE_LOOP('',(#212,#213,#214,#215));
#609=EDGE_LOOP('',(#216,#217,#218,#219));
#610=EDGE_LOOP('',(#220,#221,#222,#223));
#611=EDGE_LOOP('',(#224));
#612=EDGE_LOOP('',(#225));
#613=EDGE_LOOP('',(#226));
#614=EDGE_LOOP('',(#227));
#615=EDGE_LOOP('',(#228));
#616=EDGE_LOOP('',(#229));
#617=EDGE_LOOP('',(#230));
#618=EDGE_LOOP('',(#231));
#619=EDGE_LOOP('',(#232));
#620=EDGE_LOOP('',(#233));
#621=EDGE_LOOP('',(#234));
#622=EDGE_LOOP('',(#235));
#623=EDGE_LOOP('',(#236));
#624=EDGE_LOOP('',(#237));
#625=EDGE_LOOP('',(#238));
#626=EDGE_LOOP('',(#239));
#627=EDGE_LOOP('',(#240));
#628=EDGE_LOOP('',(#241));
#629=EDGE_LOOP('',(#242,#243,#244,#245,#246,#247,#248,#249,#250,#251));
#630=EDGE_LOOP('',(#252,#253,#254,#255,#256,#257,#258,#259,#260,#261));
#631=EDGE_LOOP('',(#262,#263,#264,#265,#266,#267,#268,#269,#270,#271));
#632=EDGE_LOOP('',(#272,#273,#274,#275));
#633=EDGE_LOOP('',(#276,#277,#278,#279));
#634=EDGE_LOOP('',(#280,#281,#282,#283));
#635=EDGE_LOOP('',(#284,#285,#286,#287));
#636=EDGE_LOOP('',(#288,#289,#290,#291));
#637=EDGE_LOOP('',(#292,#293,#294,#295));
#638=EDGE_LOOP('',(#296,#297,#298,#299));
#639=EDGE_LOOP('',(#300,#301,#302,#303));
#640=EDGE_LOOP('',(#304,#305,#306,#307));
#641=EDGE_LOOP('',(#308,#309,#310,#311));
#642=EDGE_LOOP('',(#312,#313,#314,#315));
#643=EDGE_LOOP('',(#316,#317,#318,#319));
#644=FACE_BOUND('',#548,.T.);
#645=FACE_BOUND('',#549,.T.);
#646=FACE_BOUND('',#550,.T.);
#647=FACE_BOUND('',#551,.T.);
#648=FACE_BOUND('',#552,.T.);
#649=FACE_BOUND('',#553,.T.);
#650=FACE_BOUND('',#554,.T.);
#651=FACE_BOUND('',#555,.T.);
#652=FACE_BOUND('',#556,.T.);
#653=FACE_BOUND('',#557,.T.);
#654=FACE_BOUND('',#558,.T.);
#655=FACE_BOUND('',#559,.T.);
#656=FACE_BOUND('',#560,.T.);
#657=FACE_BOUND('',#561,.T.);
#658=FACE_BOUND('',#562,.T.);
#659=FACE_BOUND('',#563,.T.);
#660=FACE_BOUND('',#564,.T.);
#661=FACE_BOUND('',#565,.T.);
#662=FACE_BOUND('',#566,.T.);
#663=FACE_BOUND('',#567,.T.);
#664=FACE_BOUND('',#568,.T.);
#665=FACE_BOUND('',#569,.T.);
#666=FACE_BOUND('',#570,.T.);
#667=FACE_BOUND('',#571,.T.);
#668=FACE_BOUND('',#572,.T.);
#669=FACE_BOUND('',#573,.T.);
#670=FACE_BOUND('',#574,.T.);
#671=FACE_BOUND('',#575,.T.);
#672=FACE_BOUND('',#576,.T.);
#673=FACE_BOUND('',#577,.T.);
#674=FACE_BOUND('',#578,.T.);
#675=FACE_BOUND('',#579,.T.);
#676=FACE_BOUND('',#580,.T.);
#677=FACE_BOUND('',#581,.T.);
#678=FACE_BOUND('',#582,.T.);
#679=FACE_BOUND('',#583,.T.);
#680=FACE_BOUND('',#584,.T.);
#681=FACE_BOUND('',#585,.T.);
#682=FACE_BOUND('',#586,.T.);
#683=FACE_BOUND('',#587,.T.);
#684=FACE_BOUND('',#588,.T.);
#685=FACE_BOUND('',#589,.T.);
#686=FACE_BOUND('',#590,.T.);
#687=FACE_BOUND('',#591,.T.);
#688=FACE_BOUND('',#592,.T.);
#689=FACE_BOUND('',#593,.T.);
#690=FACE_BOUND('',#594,.T.);
#691=FACE_BOUND('',#595,.T.);
#692=FACE_BOUND('',#596,.T.);
#693=FACE_BOUND('',#597,.T.);
#694=FACE_BOUND('',#598,.T.);
#695=FACE_BOUND('',#599,.T.);
#696=FACE_BOUND('',#600,.T.);
#697=FACE_BOUND('',#601,.T.);
#698=FACE_BOUND('',#602,.T.);
#699=FACE_BOUND('',#603,.T.);
#700=FACE_BOUND('',#604,.T.);
#701=FACE_BOUND('',#605,.T.);
#702=FACE_BOUND('',#606,.T.);
#703=FACE_BOUND('',#607,.T.);
#704=FACE_BOUND('',#608,.T.);
#705=FACE_BOUND('',#609,.T.);
#706=FACE_BOUND('',#610,.T.);
#707=FACE_BOUND('',#611,.T.);
#708=FACE_BOUND('',#612,.T.);
#709=FACE_BOUND('',#613,.T.);
#710=FACE_BOUND('',#614,.T.);
#711=FACE_BOUND('',#615,.T.);
#712=FACE_BOUND('',#616,.T.);
#713=FACE_BOUND('',#617,.T.);
#714=FACE_BOUND('',#618,.T.);
#715=FACE_BOUND('',#619,.T.);
#716=FACE_BOUND('',#620,.T.);
#717=FACE_BOUND('',#621,.T.);
#718=FACE_BOUND('',#622,.T.);
#719=FACE_BOUND('',#623,.T.);
#720=FACE_BOUND('',#624,.T.);
#721=FACE_BOUND('',#625,.T.);
#722=FACE_BOUND('',#626,.T.);
#723=FACE_BOUND('',#627,.T.);
#724=FACE_BOUND('',#628,.T.);
#725=FACE_BOUND('',#629,.T.);
#726=FACE_BOUND('',#630,.T.);
#727=FACE_BOUND('',#631,.T.);
#728=FACE_BOUND('',#632,.T.);
#729=FACE_BOUND('',#633,.T.);
#730=FACE_BOUND('',#634,.T.);
#731=FACE_BOUND('',#635,.T.);
#732=FACE_BOUND('',#636,.T.);
#733=FACE_BOUND('',#637,.T.);
#734=FACE_BOUND('',#638,.T.);
#735=FACE_BOUND('',#639,.T.);
#736=FACE_BOUND('',#640,.T.);
#737=FACE_BOUND('',#641,.T.);
#738=FACE_BOUND('',#642,.T.);
#739=FACE_BOUND('',#643,.T.);
#740=PLANE('',#807);
#741=PLANE('',#867);
#742=PLANE('',#874);
#743=PLANE('',#877);
#744=PLANE('',#880);
#745=PLANE('',#886);
#746=PLANE('',#892);
#747=PLANE('',#893);
#748=PLANE('',#895);
#749=PLANE('',#897);
#750=PLANE('',#899);
#751=PLANE('',#901);
#752=PLANE('',#903);
#753=ADVANCED_FACE('',(#644,#645,#646,#647,#648,#649,#650,#651,#652,#653,
#654,#655,#656,#657,#658,#659,#660,#661,#662),#740,.F.);
#754=ADVANCED_FACE('',(#663,#664),#20,.F.);
#755=ADVANCED_FACE('',(#665,#666),#21,.F.);
#756=ADVANCED_FACE('',(#667,#668),#22,.F.);
#757=ADVANCED_FACE('',(#669,#670),#23,.F.);
#758=ADVANCED_FACE('',(#671,#672),#24,.F.);
#759=ADVANCED_FACE('',(#673,#674),#25,.F.);
#760=ADVANCED_FACE('',(#675,#676),#26,.F.);
#761=ADVANCED_FACE('',(#677,#678),#27,.F.);
#762=ADVANCED_FACE('',(#679,#680),#28,.F.);
#763=ADVANCED_FACE('',(#681,#682),#29,.F.);
#764=ADVANCED_FACE('',(#683,#684),#30,.F.);
#765=ADVANCED_FACE('',(#685,#686),#31,.F.);
#766=ADVANCED_FACE('',(#687,#688),#32,.F.);
#767=ADVANCED_FACE('',(#689,#690),#33,.F.);
#768=ADVANCED_FACE('',(#691,#692),#34,.F.);
#769=ADVANCED_FACE('',(#693,#694),#35,.F.);
#770=ADVANCED_FACE('',(#695,#696),#36,.F.);
#771=ADVANCED_FACE('',(#697,#698),#37,.F.);
#772=ADVANCED_FACE('',(#699),#741,.T.);
#773=ADVANCED_FACE('',(#700),#38,.T.);
#774=ADVANCED_FACE('',(#701),#39,.T.);
#775=ADVANCED_FACE('',(#702),#40,.T.);
#776=ADVANCED_FACE('',(#703),#742,.T.);
#777=ADVANCED_FACE('',(#704),#41,.T.);
#778=ADVANCED_FACE('',(#705),#743,.T.);
#779=ADVANCED_FACE('',(#706),#42,.T.);
#780=ADVANCED_FACE('',(#707,#708,#709,#710,#711,#712,#713,#714,#715,#716,
#717,#718,#719,#720,#721,#722,#723,#724,#725),#744,.T.);
#781=ADVANCED_FACE('',(#726,#727),#745,.T.);
#782=ADVANCED_FACE('',(#728),#746,.T.);
#783=ADVANCED_FACE('',(#729),#747,.T.);
#784=ADVANCED_FACE('',(#730),#43,.F.);
#785=ADVANCED_FACE('',(#731),#748,.F.);
#786=ADVANCED_FACE('',(#732),#44,.F.);
#787=ADVANCED_FACE('',(#733),#749,.F.);
#788=ADVANCED_FACE('',(#734),#45,.F.);
#789=ADVANCED_FACE('',(#735),#750,.F.);
#790=ADVANCED_FACE('',(#736),#46,.F.);
#791=ADVANCED_FACE('',(#737),#751,.F.);
#792=ADVANCED_FACE('',(#738),#47,.F.);
#793=ADVANCED_FACE('',(#739),#752,.F.);
#794=CLOSED_SHELL('',(#753,#754,#755,#756,#757,#758,#759,#760,#761,#762,
#763,#764,#765,#766,#767,#768,#769,#770,#771,#772,#773,#774,#775,#776,#777,
#778,#779,#780,#781,#782,#783,#784,#785,#786,#787,#788,#789,#790,#791,#792,
#793));
#795=STYLED_ITEM('',(#796),#803);
#796=PRESENTATION_STYLE_ASSIGNMENT((#797));
#797=SURFACE_STYLE_USAGE(.BOTH.,#798);
#798=SURFACE_SIDE_STYLE('',(#799));
#799=SURFACE_STYLE_FILL_AREA(#800);
#800=FILL_AREA_STYLE('',(#801));
#801=FILL_AREA_STYLE_COLOUR('',#802);
#802=COLOUR_RGB('',0.745098039215686,0.745098039215686,0.745098039215686);
#803=MANIFOLD_SOLID_BREP('KP0045-01_MainESocketMaSM',#794);
#804=SHAPE_DEFINITION_REPRESENTATION(#1360,#805);
#805=SHAPE_REPRESENTATION('KP0045-01_MainESocketMaSM',(#806),#1355);
#806=AXIS2_PLACEMENT_3D('',#1140,#904,#905);
#807=AXIS2_PLACEMENT_3D('',#1141,#906,#907);
#808=AXIS2_PLACEMENT_3D('',#1142,#908,#909);
#809=AXIS2_PLACEMENT_3D('',#1144,#910,#911);
#810=AXIS2_PLACEMENT_3D('',#1146,#912,#913);
#811=AXIS2_PLACEMENT_3D('',#1148,#914,#915);
#812=AXIS2_PLACEMENT_3D('',#1150,#916,#917);
#813=AXIS2_PLACEMENT_3D('',#1152,#918,#919);
#814=AXIS2_PLACEMENT_3D('',#1154,#920,#921);
#815=AXIS2_PLACEMENT_3D('',#1156,#922,#923);
#816=AXIS2_PLACEMENT_3D('',#1158,#924,#925);
#817=AXIS2_PLACEMENT_3D('',#1160,#926,#927);
#818=AXIS2_PLACEMENT_3D('',#1162,#928,#929);
#819=AXIS2_PLACEMENT_3D('',#1164,#930,#931);
#820=AXIS2_PLACEMENT_3D('',#1166,#932,#933);
#821=AXIS2_PLACEMENT_3D('',#1168,#934,#935);
#822=AXIS2_PLACEMENT_3D('',#1170,#936,#937);
#823=AXIS2_PLACEMENT_3D('',#1172,#938,#939);
#824=AXIS2_PLACEMENT_3D('',#1174,#940,#941);
#825=AXIS2_PLACEMENT_3D('',#1176,#942,#943);
#826=AXIS2_PLACEMENT_3D('',#1178,#944,#945);
#827=AXIS2_PLACEMENT_3D('',#1183,#947,#948);
#828=AXIS2_PLACEMENT_3D('',#1187,#950,#951);
#829=AXIS2_PLACEMENT_3D('',#1191,#953,#954);
#830=AXIS2_PLACEMENT_3D('',#1195,#956,#957);
#831=AXIS2_PLACEMENT_3D('',#1198,#959,#960);
#832=AXIS2_PLACEMENT_3D('',#1199,#961,#962);
#833=AXIS2_PLACEMENT_3D('',#1201,#963,#964);
#834=AXIS2_PLACEMENT_3D('',#1202,#965,#966);
#835=AXIS2_PLACEMENT_3D('',#1204,#967,#968);
#836=AXIS2_PLACEMENT_3D('',#1205,#969,#970);
#837=AXIS2_PLACEMENT_3D('',#1207,#971,#972);
#838=AXIS2_PLACEMENT_3D('',#1208,#973,#974);
#839=AXIS2_PLACEMENT_3D('',#1210,#975,#976);
#840=AXIS2_PLACEMENT_3D('',#1211,#977,#978);
#841=AXIS2_PLACEMENT_3D('',#1213,#979,#980);
#842=AXIS2_PLACEMENT_3D('',#1214,#981,#982);
#843=AXIS2_PLACEMENT_3D('',#1216,#983,#984);
#844=AXIS2_PLACEMENT_3D('',#1217,#985,#986);
#845=AXIS2_PLACEMENT_3D('',#1219,#987,#988);
#846=AXIS2_PLACEMENT_3D('',#1220,#989,#990);
#847=AXIS2_PLACEMENT_3D('',#1222,#991,#992);
#848=AXIS2_PLACEMENT_3D('',#1223,#993,#994);
#849=AXIS2_PLACEMENT_3D('',#1225,#995,#996);
#850=AXIS2_PLACEMENT_3D('',#1226,#997,#998);
#851=AXIS2_PLACEMENT_3D('',#1228,#999,#1000);
#852=AXIS2_PLACEMENT_3D('',#1229,#1001,#1002);
#853=AXIS2_PLACEMENT_3D('',#1231,#1003,#1004);
#854=AXIS2_PLACEMENT_3D('',#1232,#1005,#1006);
#855=AXIS2_PLACEMENT_3D('',#1234,#1007,#1008);
#856=AXIS2_PLACEMENT_3D('',#1235,#1009,#1010);
#857=AXIS2_PLACEMENT_3D('',#1237,#1011,#1012);
#858=AXIS2_PLACEMENT_3D('',#1238,#1013,#1014);
#859=AXIS2_PLACEMENT_3D('',#1240,#1015,#1016);
#860=AXIS2_PLACEMENT_3D('',#1241,#1017,#1018);
#861=AXIS2_PLACEMENT_3D('',#1243,#1019,#1020);
#862=AXIS2_PLACEMENT_3D('',#1244,#1021,#1022);
#863=AXIS2_PLACEMENT_3D('',#1246,#1023,#1024);
#864=AXIS2_PLACEMENT_3D('',#1247,#1025,#1026);
#865=AXIS2_PLACEMENT_3D('',#1249,#1027,#1028);
#866=AXIS2_PLACEMENT_3D('',#1250,#1029,#1030);
#867=AXIS2_PLACEMENT_3D('',#1252,#1031,#1032);
#868=AXIS2_PLACEMENT_3D('',#1258,#1036,#1037);
#869=AXIS2_PLACEMENT_3D('',#1259,#1038,#1039);
#870=AXIS2_PLACEMENT_3D('',#1262,#1041,#1042);
#871=AXIS2_PLACEMENT_3D('',#1265,#1044,#1045);
#872=AXIS2_PLACEMENT_3D('',#1268,#1047,#1048);
#873=AXIS2_PLACEMENT_3D('',#1271,#1050,#1051);
#874=AXIS2_PLACEMENT_3D('',#1274,#1053,#1054);
#875=AXIS2_PLACEMENT_3D('',#1278,#1057,#1058);
#876=AXIS2_PLACEMENT_3D('',#1279,#1059,#1060);
#877=AXIS2_PLACEMENT_3D('',#1282,#1062,#1063);
#878=AXIS2_PLACEMENT_3D('',#1286,#1066,#1067);
#879=AXIS2_PLACEMENT_3D('',#1287,#1068,#1069);
#880=AXIS2_PLACEMENT_3D('',#1288,#1070,#1071);
#881=AXIS2_PLACEMENT_3D('',#1292,#1073,#1074);
#882=AXIS2_PLACEMENT_3D('',#1296,#1076,#1077);
#883=AXIS2_PLACEMENT_3D('',#1300,#1079,#1080);
#884=AXIS2_PLACEMENT_3D('',#1304,#1082,#1083);
#885=AXIS2_PLACEMENT_3D('',#1308,#1085,#1086);
#886=AXIS2_PLACEMENT_3D('',#1309,#1087,#1088);
#887=AXIS2_PLACEMENT_3D('',#1313,#1090,#1091);
#888=AXIS2_PLACEMENT_3D('',#1317,#1093,#1094);
#889=AXIS2_PLACEMENT_3D('',#1321,#1096,#1097);
#890=AXIS2_PLACEMENT_3D('',#1325,#1099,#1100);
#891=AXIS2_PLACEMENT_3D('',#1329,#1102,#1103);
#892=AXIS2_PLACEMENT_3D('',#1332,#1106,#1107);
#893=AXIS2_PLACEMENT_3D('',#1333,#1108,#1109);
#894=AXIS2_PLACEMENT_3D('',#1334,#1110,#1111);
#895=AXIS2_PLACEMENT_3D('',#1337,#1114,#1115);
#896=AXIS2_PLACEMENT_3D('',#1339,#1117,#1118);
#897=AXIS2_PLACEMENT_3D('',#1341,#1120,#1121);
#898=AXIS2_PLACEMENT_3D('',#1343,#1123,#1124);
#899=AXIS2_PLACEMENT_3D('',#1345,#1126,#1127);
#900=AXIS2_PLACEMENT_3D('',#1347,#1129,#1130);
#901=AXIS2_PLACEMENT_3D('',#1349,#1132,#1133);
#902=AXIS2_PLACEMENT_3D('',#1351,#1135,#1136);
#903=AXIS2_PLACEMENT_3D('',#1353,#1138,#1139);
#904=DIRECTION('',(0.,0.,1.));
#905=DIRECTION('',(1.,0.,0.));
#906=DIRECTION('',(0.,-1.,0.));
#907=DIRECTION('',(1.,0.,0.));
#908=DIRECTION('',(0.,-1.,0.));
#909=DIRECTION('',(1.,0.,0.));
#910=DIRECTION('',(0.,-1.,0.));
#911=DIRECTION('',(1.,0.,0.));
#912=DIRECTION('',(0.,-1.,0.));
#913=DIRECTION('',(1.,0.,0.));
#914=DIRECTION('',(0.,-1.,0.));
#915=DIRECTION('',(1.,0.,0.));
#916=DIRECTION('',(0.,-1.,0.));
#917=DIRECTION('',(1.,0.,0.));
#918=DIRECTION('',(0.,-1.,0.));
#919=DIRECTION('',(1.,0.,0.));
#920=DIRECTION('',(0.,-1.,0.));
#921=DIRECTION('',(1.,0.,0.));
#922=DIRECTION('',(0.,-1.,0.));
#923=DIRECTION('',(1.,0.,0.));
#924=DIRECTION('',(0.,-1.,0.));
#925=DIRECTION('',(1.,0.,0.));
#926=DIRECTION('',(0.,-1.,0.));
#927=DIRECTION('',(1.,0.,0.));
#928=DIRECTION('',(0.,-1.,0.));
#929=DIRECTION('',(1.,0.,0.));
#930=DIRECTION('',(0.,-1.,0.));
#931=DIRECTION('',(1.,0.,0.));
#932=DIRECTION('',(0.,-1.,0.));
#933=DIRECTION('',(1.,0.,0.));
#934=DIRECTION('',(0.,-1.,0.));
#935=DIRECTION('',(1.,0.,0.));
#936=DIRECTION('',(0.,-1.,0.));
#937=DIRECTION('',(1.,0.,0.));
#938=DIRECTION('',(0.,-1.,0.));
#939=DIRECTION('',(1.,0.,0.));
#940=DIRECTION('',(0.,-1.,0.));
#941=DIRECTION('',(1.,0.,0.));
#942=DIRECTION('',(0.,-1.,0.));
#943=DIRECTION('',(1.,0.,0.));
#944=DIRECTION('',(0.,-1.,0.));
#945=DIRECTION('',(1.,0.,0.));
#946=DIRECTION('',(0.,0.,1.));
#947=DIRECTION('',(0.,-1.,0.));
#948=DIRECTION('',(1.,0.,0.));
#949=DIRECTION('',(0.,0.,1.));
#950=DIRECTION('',(0.,-1.,0.));
#951=DIRECTION('',(1.,0.,0.));
#952=DIRECTION('',(1.,0.,0.));
#953=DIRECTION('',(0.,-1.,0.));
#954=DIRECTION('',(1.,0.,0.));
#955=DIRECTION('',(0.,0.,1.));
#956=DIRECTION('',(0.,-1.,0.));
#957=DIRECTION('',(1.,0.,0.));
#958=DIRECTION('',(1.,0.,0.));
#959=DIRECTION('',(0.,-1.,0.));
#960=DIRECTION('',(1.,0.,0.));
#961=DIRECTION('',(0.,-1.,0.));
#962=DIRECTION('',(1.,0.,0.));
#963=DIRECTION('',(0.,-1.,0.));
#964=DIRECTION('',(1.,0.,0.));
#965=DIRECTION('',(0.,-1.,0.));
#966=DIRECTION('',(1.,0.,0.));
#967=DIRECTION('',(0.,-1.,0.));
#968=DIRECTION('',(1.,0.,0.));
#969=DIRECTION('',(0.,-1.,0.));
#970=DIRECTION('',(1.,0.,0.));
#971=DIRECTION('',(0.,-1.,0.));
#972=DIRECTION('',(1.,0.,0.));
#973=DIRECTION('',(0.,-1.,0.));
#974=DIRECTION('',(1.,0.,0.));
#975=DIRECTION('',(0.,-1.,0.));
#976=DIRECTION('',(1.,0.,0.));
#977=DIRECTION('',(0.,-1.,0.));
#978=DIRECTION('',(1.,0.,0.));
#979=DIRECTION('',(0.,-1.,0.));
#980=DIRECTION('',(1.,0.,0.));
#981=DIRECTION('',(0.,-1.,0.));
#982=DIRECTION('',(1.,0.,0.));
#983=DIRECTION('',(0.,-1.,0.));
#984=DIRECTION('',(1.,0.,0.));
#985=DIRECTION('',(0.,-1.,0.));
#986=DIRECTION('',(1.,0.,0.));
#987=DIRECTION('',(0.,-1.,0.));
#988=DIRECTION('',(1.,0.,0.));
#989=DIRECTION('',(0.,-1.,0.));
#990=DIRECTION('',(1.,0.,0.));
#991=DIRECTION('',(0.,-1.,0.));
#992=DIRECTION('',(1.,0.,0.));
#993=DIRECTION('',(0.,-1.,0.));
#994=DIRECTION('',(1.,0.,0.));
#995=DIRECTION('',(0.,-1.,0.));
#996=DIRECTION('',(1.,0.,0.));
#997=DIRECTION('',(0.,-1.,0.));
#998=DIRECTION('',(1.,0.,0.));
#999=DIRECTION('',(0.,-1.,0.));
#1000=DIRECTION('',(1.,0.,0.));
#1001=DIRECTION('',(0.,-1.,0.));
#1002=DIRECTION('',(1.,0.,0.));
#1003=DIRECTION('',(0.,-1.,0.));
#1004=DIRECTION('',(1.,0.,0.));
#1005=DIRECTION('',(0.,-1.,0.));
#1006=DIRECTION('',(1.,0.,0.));
#1007=DIRECTION('',(0.,-1.,0.));
#1008=DIRECTION('',(1.,0.,0.));
#1009=DIRECTION('',(0.,-1.,0.));
#1010=DIRECTION('',(1.,0.,0.));
#1011=DIRECTION('',(0.,-1.,0.));
#1012=DIRECTION('',(1.,0.,0.));
#1013=DIRECTION('',(0.,-1.,0.));
#1014=DIRECTION('',(1.,0.,0.));
#1015=DIRECTION('',(0.,-1.,0.));
#1016=DIRECTION('',(1.,0.,0.));
#1017=DIRECTION('',(0.,-1.,0.));
#1018=DIRECTION('',(1.,0.,0.));
#1019=DIRECTION('',(0.,-1.,0.));
#1020=DIRECTION('',(1.,0.,0.));
#1021=DIRECTION('',(0.,-1.,0.));
#1022=DIRECTION('',(1.,0.,0.));
#1023=DIRECTION('',(0.,-1.,0.));
#1024=DIRECTION('',(1.,0.,0.));
#1025=DIRECTION('',(0.,-1.,0.));
#1026=DIRECTION('',(1.,0.,0.));
#1027=DIRECTION('',(0.,-1.,0.));
#1028=DIRECTION('',(1.,0.,0.));
#1029=DIRECTION('',(0.,-1.,0.));
#1030=DIRECTION('',(1.,0.,0.));
#1031=DIRECTION('',(0.,0.,1.));
#1032=DIRECTION('',(0.,-1.,0.));
#1033=DIRECTION('',(0.,-1.,0.));
#1034=DIRECTION('',(1.,0.,0.));
#1035=DIRECTION('',(0.,-1.,0.));
#1036=DIRECTION('',(0.,-1.,0.));
#1037=DIRECTION('',(1.,0.,0.));
#1038=DIRECTION('',(0.,-1.,0.));
#1039=DIRECTION('',(1.,0.,0.));
#1040=DIRECTION('',(0.,-1.,0.));
#1041=DIRECTION('',(0.,-1.,0.));
#1042=DIRECTION('',(1.,0.,0.));
#1043=DIRECTION('',(0.,-1.,0.));
#1044=DIRECTION('',(0.,-1.,0.));
#1045=DIRECTION('',(1.,0.,0.));
#1046=DIRECTION('',(0.,-1.,0.));
#1047=DIRECTION('',(0.,-1.,0.));
#1048=DIRECTION('',(1.,0.,0.));
#1049=DIRECTION('',(0.,-1.,0.));
#1050=DIRECTION('',(0.,-1.,0.));
#1051=DIRECTION('',(1.,0.,0.));
#1052=DIRECTION('',(0.,-1.,0.));
#1053=DIRECTION('',(0.,0.,-1.));
#1054=DIRECTION('',(0.,1.,0.));
#1055=DIRECTION('',(1.,0.,0.));
#1056=DIRECTION('',(0.,1.,0.));
#1057=DIRECTION('',(0.,-1.,0.));
#1058=DIRECTION('',(1.,0.,0.));
#1059=DIRECTION('',(0.,-1.,0.));
#1060=DIRECTION('',(1.,0.,0.));
#1061=DIRECTION('',(0.,-1.,0.));
#1062=DIRECTION('',(-1.,0.,0.));
#1063=DIRECTION('',(0.,-1.,0.));
#1064=DIRECTION('',(0.,0.,1.));
#1065=DIRECTION('',(0.,-1.,0.));
#1066=DIRECTION('',(0.,-1.,0.));
#1067=DIRECTION('',(1.,0.,0.));
#1068=DIRECTION('',(0.,-1.,0.));
#1069=DIRECTION('',(1.,0.,0.));
#1070=DIRECTION('',(0.,-1.,0.));
#1071=DIRECTION('',(1.,0.,0.));
#1072=DIRECTION('',(0.,0.,1.));
#1073=DIRECTION('',(0.,-1.,0.));
#1074=DIRECTION('',(1.,0.,0.));
#1075=DIRECTION('',(0.,0.,1.));
#1076=DIRECTION('',(0.,-1.,0.));
#1077=DIRECTION('',(1.,0.,0.));
#1078=DIRECTION('',(1.,0.,0.));
#1079=DIRECTION('',(0.,-1.,0.));
#1080=DIRECTION('',(1.,0.,0.));
#1081=DIRECTION('',(0.,0.,1.));
#1082=DIRECTION('',(0.,-1.,0.));
#1083=DIRECTION('',(1.,0.,0.));
#1084=DIRECTION('',(1.,0.,0.));
#1085=DIRECTION('',(0.,-1.,0.));
#1086=DIRECTION('',(1.,0.,0.));
#1087=DIRECTION('',(6.55295411402515E-32,-1.,5.18129545793418E-32));
#1088=DIRECTION('',(1.,6.55295411402515E-32,0.));
#1089=DIRECTION('',(1.,6.55295411402515E-32,0.));
#1090=DIRECTION('',(0.,-1.,0.));
#1091=DIRECTION('',(1.,0.,0.));
#1092=DIRECTION('',(-3.39527913870496E-63,5.18129545793418E-32,1.));
#1093=DIRECTION('',(0.,-1.,0.));
#1094=DIRECTION('',(1.,0.,0.));
#1095=DIRECTION('',(-3.39527913870496E-63,5.18129545793418E-32,1.));
#1096=DIRECTION('',(0.,-1.,0.));
#1097=DIRECTION('',(1.,0.,0.));
#1098=DIRECTION('',(1.,6.55295411402515E-32,0.));
#1099=DIRECTION('',(0.,-1.,0.));
#1100=DIRECTION('',(1.,0.,0.));
#1101=DIRECTION('',(-3.39527913870496E-63,5.18129545793418E-32,1.));
#1102=DIRECTION('',(0.,-1.,0.));
#1103=DIRECTION('',(1.,0.,0.));
#1104=DIRECTION('',(-3.39527913870496E-63,5.18129545793418E-32,1.));
#1105=DIRECTION('',(-3.39527913870496E-63,5.18129545793418E-32,1.));
#1106=DIRECTION('',(1.,0.,0.));
#1107=DIRECTION('',(0.,1.,0.));
#1108=DIRECTION('',(1.,0.,0.));
#1109=DIRECTION('',(0.,1.,0.));
#1110=DIRECTION('',(0.,-1.,0.));
#1111=DIRECTION('',(1.,0.,0.));
#1112=DIRECTION('',(0.,-1.,0.));
#1113=DIRECTION('',(0.,-1.,0.));
#1114=DIRECTION('',(1.,0.,0.));
#1115=DIRECTION('',(0.,1.,0.));
#1116=DIRECTION('',(0.,1.,0.));
#1117=DIRECTION('',(0.,-1.,0.));
#1118=DIRECTION('',(1.,0.,0.));
#1119=DIRECTION('',(0.,-1.,0.));
#1120=DIRECTION('',(0.,0.,-1.));
#1121=DIRECTION('',(0.,1.,0.));
#1122=DIRECTION('',(0.,1.,0.));
#1123=DIRECTION('',(0.,-1.,0.));
#1124=DIRECTION('',(1.,0.,0.));
#1125=DIRECTION('',(0.,-1.,0.));
#1126=DIRECTION('',(-1.,0.,0.));
#1127=DIRECTION('',(0.,-1.,0.));
#1128=DIRECTION('',(0.,-1.,0.));
#1129=DIRECTION('',(0.,-1.,0.));
#1130=DIRECTION('',(1.,0.,0.));
#1131=DIRECTION('',(0.,-1.,0.));
#1132=DIRECTION('',(0.,0.,1.));
#1133=DIRECTION('',(0.,-1.,0.));
#1134=DIRECTION('',(0.,-1.,0.));
#1135=DIRECTION('',(0.,-1.,0.));
#1136=DIRECTION('',(1.,0.,0.));
#1137=DIRECTION('',(0.,-1.,0.));
#1138=DIRECTION('',(1.,0.,0.));
#1139=DIRECTION('',(0.,1.,0.));
#1140=CARTESIAN_POINT('',(0.,0.,0.));
#1141=CARTESIAN_POINT('',(0.000392795862528464,0.,-5.55E-5));
#1142=CARTESIAN_POINT('',(0.00635,0.,4.44089209850063E-18));
#1143=CARTESIAN_POINT('',(0.0071,0.,4.44089209850063E-18));
#1144=CARTESIAN_POINT('',(0.00635,0.,-0.00254));
#1145=CARTESIAN_POINT('',(0.0071,0.,-0.00254));
#1146=CARTESIAN_POINT('',(0.00381,0.,-0.00254));
#1147=CARTESIAN_POINT('',(0.00456,0.,-0.00254));
#1148=CARTESIAN_POINT('',(0.00381,0.,4.44089209850063E-18));
#1149=CARTESIAN_POINT('',(0.00456,0.,4.44089209850063E-18));
#1150=CARTESIAN_POINT('',(0.00635,0.,0.00254));
#1151=CARTESIAN_POINT('',(0.0071,0.,0.00254));
#1152=CARTESIAN_POINT('',(0.00381,0.,0.00254));
#1153=CARTESIAN_POINT('',(0.00456,0.,0.00254));
#1154=CARTESIAN_POINT('',(-0.00127,0.,4.44089209850063E-18));
#1155=CARTESIAN_POINT('',(-0.00052,0.,4.44089209850063E-18));
#1156=CARTESIAN_POINT('',(-0.00127,0.,0.00254));
#1157=CARTESIAN_POINT('',(-0.00052,0.,0.00254));
#1158=CARTESIAN_POINT('',(0.00127,0.,0.00254));
#1159=CARTESIAN_POINT('',(0.00202,0.,0.00254));
#1160=CARTESIAN_POINT('',(-0.00127,0.,-0.00254));
#1161=CARTESIAN_POINT('',(-0.00052,0.,-0.00254));
#1162=CARTESIAN_POINT('',(-0.00381,0.,4.44089209850063E-18));
#1163=CARTESIAN_POINT('',(-0.00306,0.,4.44089209850063E-18));
#1164=CARTESIAN_POINT('',(0.00127,0.,4.44089209850063E-18));
#1165=CARTESIAN_POINT('',(0.00202,0.,4.44089209850063E-18));
#1166=CARTESIAN_POINT('',(-0.00381,0.,-0.00254));
#1167=CARTESIAN_POINT('',(-0.00306,0.,-0.00254));
#1168=CARTESIAN_POINT('',(-0.00635,0.,4.44089209850063E-18));
#1169=CARTESIAN_POINT('',(-0.0056,0.,4.44089209850063E-18));
#1170=CARTESIAN_POINT('',(-0.00381,0.,0.00254));
#1171=CARTESIAN_POINT('',(-0.00306,0.,0.00254));
#1172=CARTESIAN_POINT('',(-0.00635,0.,0.00254));
#1173=CARTESIAN_POINT('',(-0.0056,0.,0.00254));
#1174=CARTESIAN_POINT('',(-0.00635,0.,-0.00254));
#1175=CARTESIAN_POINT('',(-0.0056,0.,-0.00254));
#1176=CARTESIAN_POINT('',(0.00127,0.,-0.00254));
#1177=CARTESIAN_POINT('',(0.00202,0.,-0.00254));
#1178=CARTESIAN_POINT('',(0.00862,0.,0.005001));
#1179=CARTESIAN_POINT('',(0.0119516079219338,0.,0.005001));
#1180=CARTESIAN_POINT('',(0.00861999999996857,0.,0.00833260792193377));
#1181=CARTESIAN_POINT('',(0.0119516079219338,0.,0.0050010000000475));
#1182=CARTESIAN_POINT('',(0.0119516079219445,0.,0.00329459368924483));
#1183=CARTESIAN_POINT('',(0.00962,0.,-5.55E-5));
#1184=CARTESIAN_POINT('',(0.0119516079219367,0.,-0.0034055936892503));
#1185=CARTESIAN_POINT('',(0.0119516079219338,0.,-0.00340559368924005));
#1186=CARTESIAN_POINT('',(0.0119516079219338,0.,-0.005112));
#1187=CARTESIAN_POINT('',(0.00862,0.,-0.005112));
#1188=CARTESIAN_POINT('',(0.00861999999996857,0.,-0.00844360792193377));
#1189=CARTESIAN_POINT('',(0.000392795862528464,0.,-0.00844360792193377));
#1190=CARTESIAN_POINT('',(-0.00861999999996857,0.,-0.00844360792193377));
#1191=CARTESIAN_POINT('',(-0.00862,0.,-0.005112));
#1192=CARTESIAN_POINT('',(-0.0119516079219338,0.,-0.00511199999996776));
#1193=CARTESIAN_POINT('',(-0.0119516079219338,0.,-5.55E-5));
#1194=CARTESIAN_POINT('',(-0.0119516079219338,0.,0.00500100000002375));
#1195=CARTESIAN_POINT('',(-0.00862,0.,0.005001));
#1196=CARTESIAN_POINT('',(-0.00861999999996857,0.,0.00833260792193377));
#1197=CARTESIAN_POINT('',(0.000392795862528464,0.,0.00833260792193377));
#1198=CARTESIAN_POINT('',(0.00635,0.,4.44089209850063E-18));
#1199=CARTESIAN_POINT('',(0.00635,-0.002,4.44089209850063E-18));
#1200=CARTESIAN_POINT('',(0.0071,-0.002,4.44089209850063E-18));
#1201=CARTESIAN_POINT('',(0.00635,0.,-0.00254));
#1202=CARTESIAN_POINT('',(0.00635,-0.002,-0.00254));
#1203=CARTESIAN_POINT('',(0.0071,-0.002,-0.00254));
#1204=CARTESIAN_POINT('',(0.00381,0.,-0.00254));
#1205=CARTESIAN_POINT('',(0.00381,-0.002,-0.00254));
#1206=CARTESIAN_POINT('',(0.00456,-0.002,-0.00254));
#1207=CARTESIAN_POINT('',(0.00381,0.,4.44089209850063E-18));
#1208=CARTESIAN_POINT('',(0.00381,-0.002,4.44089209850063E-18));
#1209=CARTESIAN_POINT('',(0.00456,-0.002,4.44089209850063E-18));
#1210=CARTESIAN_POINT('',(0.00635,0.,0.00254));
#1211=CARTESIAN_POINT('',(0.00635,-0.002,0.00254));
#1212=CARTESIAN_POINT('',(0.0071,-0.002,0.00254));
#1213=CARTESIAN_POINT('',(0.00381,0.,0.00254));
#1214=CARTESIAN_POINT('',(0.00381,-0.002,0.00254));
#1215=CARTESIAN_POINT('',(0.00456,-0.002,0.00254));
#1216=CARTESIAN_POINT('',(-0.00127,0.,4.44089209850063E-18));
#1217=CARTESIAN_POINT('',(-0.00127,-0.002,4.44089209850063E-18));
#1218=CARTESIAN_POINT('',(-0.00052,-0.002,4.44089209850063E-18));
#1219=CARTESIAN_POINT('',(-0.00127,0.,0.00254));
#1220=CARTESIAN_POINT('',(-0.00127,-0.002,0.00254));
#1221=CARTESIAN_POINT('',(-0.00052,-0.002,0.00254));
#1222=CARTESIAN_POINT('',(0.00127,0.,0.00254));
#1223=CARTESIAN_POINT('',(0.00127,-0.002,0.00254));
#1224=CARTESIAN_POINT('',(0.00202,-0.002,0.00254));
#1225=CARTESIAN_POINT('',(-0.00127,0.,-0.00254));
#1226=CARTESIAN_POINT('',(-0.00127,-0.002,-0.00254));
#1227=CARTESIAN_POINT('',(-0.00052,-0.002,-0.00254));
#1228=CARTESIAN_POINT('',(-0.00381,0.,4.44089209850063E-18));
#1229=CARTESIAN_POINT('',(-0.00381,-0.002,4.44089209850063E-18));
#1230=CARTESIAN_POINT('',(-0.00306,-0.002,4.44089209850063E-18));
#1231=CARTESIAN_POINT('',(0.00127,0.,4.44089209850063E-18));
#1232=CARTESIAN_POINT('',(0.00127,-0.002,4.44089209850063E-18));
#1233=CARTESIAN_POINT('',(0.00202,-0.002,4.44089209850063E-18));
#1234=CARTESIAN_POINT('',(-0.00381,0.,-0.00254));
#1235=CARTESIAN_POINT('',(-0.00381,-0.002,-0.00254));
#1236=CARTESIAN_POINT('',(-0.00306,-0.002,-0.00254));
#1237=CARTESIAN_POINT('',(-0.00635,0.,4.44089209850063E-18));
#1238=CARTESIAN_POINT('',(-0.00635,-0.002,4.44089209850063E-18));
#1239=CARTESIAN_POINT('',(-0.0056,-0.002,4.44089209850063E-18));
#1240=CARTESIAN_POINT('',(-0.00381,0.,0.00254));
#1241=CARTESIAN_POINT('',(-0.00381,-0.002,0.00254));
#1242=CARTESIAN_POINT('',(-0.00306,-0.002,0.00254));
#1243=CARTESIAN_POINT('',(-0.00635,0.,0.00254));
#1244=CARTESIAN_POINT('',(-0.00635,-0.002,0.00254));
#1245=CARTESIAN_POINT('',(-0.0056,-0.002,0.00254));
#1246=CARTESIAN_POINT('',(-0.00635,0.,-0.00254));
#1247=CARTESIAN_POINT('',(-0.00635,-0.002,-0.00254));
#1248=CARTESIAN_POINT('',(-0.0056,-0.002,-0.00254));
#1249=CARTESIAN_POINT('',(0.00127,0.,-0.00254));
#1250=CARTESIAN_POINT('',(0.00127,-0.002,-0.00254));
#1251=CARTESIAN_POINT('',(0.00202,-0.002,-0.00254));
#1252=CARTESIAN_POINT('',(-0.00861999999993714,-0.002,0.00833260792193377));
#1253=CARTESIAN_POINT('',(-0.00861999999993714,-0.002,0.00833260792193377));
#1254=CARTESIAN_POINT('',(-0.00861999999996857,-0.01,0.00833260792193377));
#1255=CARTESIAN_POINT('',(-0.00861999999993714,-0.01,0.00833260792193377));
#1256=CARTESIAN_POINT('',(0.00861999999996857,-0.01,0.00833260792193377));
#1257=CARTESIAN_POINT('',(0.00861999999993714,-0.002,0.00833260792193377));
#1258=CARTESIAN_POINT('',(0.00862,-0.002,0.005001));
#1259=CARTESIAN_POINT('',(0.00862,-0.01,0.005001));
#1260=CARTESIAN_POINT('',(0.0119516079219338,-0.01,0.005001));
#1261=CARTESIAN_POINT('',(0.0119516079219338,-0.002,0.005001));
#1262=CARTESIAN_POINT('',(0.00962,-0.002,-5.55E-5));
#1263=CARTESIAN_POINT('',(0.0119516079219553,-0.002,0.00329459368923736));
#1264=CARTESIAN_POINT('',(0.0119516079219445,-0.01,0.00329459368924483));
#1265=CARTESIAN_POINT('',(0.00962,-0.01,-5.55E-5));
#1266=CARTESIAN_POINT('',(0.0119516079219367,-0.01,-0.0034055936892503));
#1267=CARTESIAN_POINT('',(0.0119516079219395,-0.002,-0.0034055936892483));
#1268=CARTESIAN_POINT('',(0.00862,-0.002,-0.005112));
#1269=CARTESIAN_POINT('',(0.0119516079219338,-0.002,-0.005112));
#1270=CARTESIAN_POINT('',(0.0119516079219338,-0.01,-0.005112));
#1271=CARTESIAN_POINT('',(0.00862,-0.01,-0.005112));
#1272=CARTESIAN_POINT('',(0.00861999999996857,-0.01,-0.00844360792193377));
#1273=CARTESIAN_POINT('',(0.00861999999993714,-0.002,-0.00844360792193377));
#1274=CARTESIAN_POINT('',(0.00861999999993714,-0.002,-0.00844360792193377));
#1275=CARTESIAN_POINT('',(0.00861999999993714,-0.01,-0.00844360792193377));
#1276=CARTESIAN_POINT('',(-0.00861999999996857,-0.01,-0.00844360792193377));
#1277=CARTESIAN_POINT('',(-0.00861999999993714,-0.002,-0.00844360792193377));
#1278=CARTESIAN_POINT('',(-0.00862,-0.002,-0.005112));
#1279=CARTESIAN_POINT('',(-0.00862,-0.01,-0.005112));
#1280=CARTESIAN_POINT('',(-0.0119516079219338,-0.01,-0.00511199999996776));
#1281=CARTESIAN_POINT('',(-0.0119516079219338,-0.002,-0.00511199999993551));
#1282=CARTESIAN_POINT('',(-0.0119516079219338,-0.002,-0.00511199999993551));
#1283=CARTESIAN_POINT('',(-0.0119516079219338,-0.01,-0.00511199999993551));
#1284=CARTESIAN_POINT('',(-0.0119516079219338,-0.01,0.00500100000002375));
#1285=CARTESIAN_POINT('',(-0.0119516079219338,-0.002,0.0050010000000475));
#1286=CARTESIAN_POINT('',(-0.00862,-0.002,0.005001));
#1287=CARTESIAN_POINT('',(-0.00862,-0.01,0.005001));
#1288=CARTESIAN_POINT('',(0.000392795862528464,-0.002,-5.55E-5));
#1289=CARTESIAN_POINT('',(0.00992631023454533,-0.002,-5.55E-5));
#1290=CARTESIAN_POINT('',(0.00992631023454533,-0.002,-0.00511199999996776));
#1291=CARTESIAN_POINT('',(0.00992631023454238,-0.002,-0.00208886809774091));
#1292=CARTESIAN_POINT('',(0.00962,-0.002,-5.55E-5));
#1293=CARTESIAN_POINT('',(0.00992631023454485,-0.002,0.00197786809774053));
#1294=CARTESIAN_POINT('',(0.00992631023454533,-0.002,-5.55E-5));
#1295=CARTESIAN_POINT('',(0.00992631023454533,-0.002,0.005001));
#1296=CARTESIAN_POINT('',(0.00862,-0.002,0.005001));
#1297=CARTESIAN_POINT('',(0.00861999999996857,-0.002,0.00630731023454533));
#1298=CARTESIAN_POINT('',(0.000392795862528464,-0.002,0.00630731023454533));
#1299=CARTESIAN_POINT('',(-0.00861999999996857,-0.002,0.00630731023454533));
#1300=CARTESIAN_POINT('',(-0.00862,-0.002,0.005001));
#1301=CARTESIAN_POINT('',(-0.00992631023454533,-0.002,0.00500100000002375));
#1302=CARTESIAN_POINT('',(-0.00992631023454533,-0.002,-5.55E-5));
#1303=CARTESIAN_POINT('',(-0.00992631023454533,-0.002,-0.00511199999996776));
#1304=CARTESIAN_POINT('',(-0.00862,-0.002,-0.005112));
#1305=CARTESIAN_POINT('',(-0.00861999999996857,-0.002,-0.00641831023454533));
#1306=CARTESIAN_POINT('',(0.000392795862528464,-0.002,-0.00641831023454533));
#1307=CARTESIAN_POINT('',(0.00861999999996857,-0.002,-0.00641831023454533));
#1308=CARTESIAN_POINT('',(0.00862,-0.002,-0.005112));
#1309=CARTESIAN_POINT('',(0.000286191382980797,-0.01,-5.54999999990696E-5));
#1310=CARTESIAN_POINT('',(0.000286191382980797,-0.01,0.00630731023454533));
#1311=CARTESIAN_POINT('',(-0.00861999999996857,-0.01,0.00630731023454533));
#1312=CARTESIAN_POINT('',(0.00861999999996857,-0.01,0.00630731023454533));
#1313=CARTESIAN_POINT('',(0.00862,-0.01,0.005001));
#1314=CARTESIAN_POINT('',(0.00992631023454533,-0.01,0.005001));
#1315=CARTESIAN_POINT('',(0.00992631023454533,-0.01,-5.54999999990696E-5));
#1316=CARTESIAN_POINT('',(0.00992631023454485,-0.01,0.00197786809774053));
#1317=CARTESIAN_POINT('',(0.00962,-0.01,-5.55E-5));
#1318=CARTESIAN_POINT('',(0.00992631023454238,-0.01,-0.00208886809774091));
#1319=CARTESIAN_POINT('',(0.00992631023454533,-0.01,-5.54999999990696E-5));
#1320=CARTESIAN_POINT('',(0.00992631023454533,-0.01,-0.00511199999996776));
#1321=CARTESIAN_POINT('',(0.00862,-0.01,-0.005112));
#1322=CARTESIAN_POINT('',(0.00861999999996857,-0.01,-0.00641831023454533));
#1323=CARTESIAN_POINT('',(0.000286191382980797,-0.01,-0.00641831023454533));
#1324=CARTESIAN_POINT('',(-0.00861999999996857,-0.01,-0.00641831023454533));
#1325=CARTESIAN_POINT('',(-0.00862,-0.01,-0.005112));
#1326=CARTESIAN_POINT('',(-0.00992631023454533,-0.01,-0.00511199999996776));
#1327=CARTESIAN_POINT('',(-0.00992631023454533,-0.01,-5.54999999990696E-5));
#1328=CARTESIAN_POINT('',(-0.00992631023454533,-0.01,0.00500100000002375));
#1329=CARTESIAN_POINT('',(-0.00862,-0.01,0.005001));
#1330=CARTESIAN_POINT('',(0.0119516079219338,-0.01,-5.54999999990696E-5));
#1331=CARTESIAN_POINT('',(0.0119516079219338,-0.01,-5.54999999990696E-5));
#1332=CARTESIAN_POINT('',(0.0119516079219338,-0.002,0.0050010000000475));
#1333=CARTESIAN_POINT('',(0.0119516079219338,-0.002,-0.00340559368924005));
#1334=CARTESIAN_POINT('',(0.00962,-0.002,-5.55E-5));
#1335=CARTESIAN_POINT('',(0.00992631023454437,-0.002,0.0019778680977406));
#1336=CARTESIAN_POINT('',(0.00992631023453943,-0.002,-0.00208886809774135));
#1337=CARTESIAN_POINT('',(0.00992631023454533,-0.002,-0.00208886809778051));
#1338=CARTESIAN_POINT('',(0.00992631023454533,-0.002,-0.00511199999993551));
#1339=CARTESIAN_POINT('',(0.00862,-0.002,-0.005112));
#1340=CARTESIAN_POINT('',(0.00861999999993714,-0.002,-0.00641831023454533));
#1341=CARTESIAN_POINT('',(0.00861999999993714,-0.002,-0.00641831023454533));
#1342=CARTESIAN_POINT('',(-0.00861999999993714,-0.002,-0.00641831023454533));
#1343=CARTESIAN_POINT('',(-0.00862,-0.002,-0.005112));
#1344=CARTESIAN_POINT('',(-0.00992631023454533,-0.002,-0.00511199999993551));
#1345=CARTESIAN_POINT('',(-0.00992631023454533,-0.002,-0.00511199999993551));
#1346=CARTESIAN_POINT('',(-0.00992631023454533,-0.002,0.0050010000000475));
#1347=CARTESIAN_POINT('',(-0.00862,-0.002,0.005001));
#1348=CARTESIAN_POINT('',(-0.00861999999993714,-0.002,0.00630731023454533));
#1349=CARTESIAN_POINT('',(-0.00861999999993714,-0.002,0.00630731023454533));
#1350=CARTESIAN_POINT('',(0.00861999999993714,-0.002,0.00630731023454533));
#1351=CARTESIAN_POINT('',(0.00862,-0.002,0.005001));
#1352=CARTESIAN_POINT('',(0.00992631023454533,-0.002,0.005001));
#1353=CARTESIAN_POINT('',(0.00992631023454533,-0.002,0.0050010000000475));
#1354=MECHANICAL_DESIGN_GEOMETRIC_PRESENTATION_REPRESENTATION('',(#795),
#1355);
#1355=(
GEOMETRIC_REPRESENTATION_CONTEXT(3)
GLOBAL_UNCERTAINTY_ASSIGNED_CONTEXT((#1356))
GLOBAL_UNIT_ASSIGNED_CONTEXT((#1359,#1358,#1357))
REPRESENTATION_CONTEXT('KP0045-01_MainESocketMaSM',
'TOP_LEVEL_ASSEMBLY_PART')
);
#1356=UNCERTAINTY_MEASURE_WITH_UNIT(LENGTH_MEASURE(1.E-8),#1359,
'DISTANCE_ACCURACY_VALUE','Maximum Tolerance applied to model');
#1357=(
NAMED_UNIT(*)
SI_UNIT($,.STERADIAN.)
SOLID_ANGLE_UNIT()
);
#1358=(
NAMED_UNIT(*)
PLANE_ANGLE_UNIT()
SI_UNIT($,.RADIAN.)
);
#1359=(
LENGTH_UNIT()
NAMED_UNIT(*)
SI_UNIT($,.METRE.)
);
#1360=PRODUCT_DEFINITION_SHAPE('','',#1361);
#1361=PRODUCT_DEFINITION('','',#1363,#1362);
#1362=PRODUCT_DEFINITION_CONTEXT('',#1369,'design');
#1363=PRODUCT_DEFINITION_FORMATION_WITH_SPECIFIED_SOURCE('','',#1365,
 .NOT_KNOWN.);
#1364=PRODUCT_RELATED_PRODUCT_CATEGORY('','',(#1365));
#1365=PRODUCT('KP0045-01_MainESocketMaSM','KP0045-01_MainESocketMaSM',
'KP0045-01_MainESocketMaSM',(#1367));
#1366=PRODUCT_CATEGORY('','');
#1367=PRODUCT_CONTEXT('',#1369,'mechanical');
#1368=APPLICATION_PROTOCOL_DEFINITION('international standard',
'automotive_design',2010,#1369);
#1369=APPLICATION_CONTEXT(
'core data for automotive mechanical design processes');
ENDSEC;
END-ISO-10303-21;
