ISO-10303-21;
HEADER;
/* Generated by software containing ST-Developer
 * from STEP Tools, Inc. (www.steptools.com) 
 */
/* OPTION: using custom renumber hook */

FILE_DESCRIPTION(
/* description */ ('STEP AP214',
'CAx-IF Rec.Pracs.---User Defined Attributes---1.5---2016-08-15'),
/* implementation_level */ '2;1');

FILE_NAME(
/* name */ '6a65b59e8ce625604a875488',
/* time_stamp */ '2026-07-26T07:22:07Z',
/* author */ (''),
/* organization */ (''),
/* preprocessor_version */ 'ST-DEVELOPER v20',
/* originating_system */ 'ONSHAPE BY PTC INC, 1.218',
/* authorisation */ '  ');

FILE_SCHEMA (('AUTOMOTIVE_DESIGN {1 0 10303 214 3 1 1}'));
ENDSEC;

DATA;
#10=PROPERTY_DEFINITION_REPRESENTATION(#14,#12);
#11=PROPERTY_DEFINITION_REPRESENTATION(#15,#13);
#12=REPRESENTATION('',(#16),#413);
#13=REPRESENTATION('',(#17),#413);
#14=PROPERTY_DEFINITION('pmi validation property','',#418);
#15=PROPERTY_DEFINITION('pmi validation property','',#418);
#16=VALUE_REPRESENTATION_ITEM('number of annotations',COUNT_MEASURE(0.));
#17=VALUE_REPRESENTATION_ITEM('number of views',COUNT_MEASURE(0.));
#18=SHAPE_REPRESENTATION_RELATIONSHIP('','',#233,#19);
#19=ADVANCED_BREP_SHAPE_REPRESENTATION('',(#231),#413);
#20=PLANE('',#241);
#21=PLANE('',#242);
#22=PLANE('',#244);
#23=PLANE('',#246);
#24=PLANE('',#248);
#25=PLANE('',#253);
#26=PLANE('',#254);
#27=LINE('',#330,#41);
#28=LINE('',#341,#42);
#29=LINE('',#345,#43);
#30=LINE('',#346,#44);
#31=LINE('',#350,#45);
#32=LINE('',#352,#46);
#33=LINE('',#360,#47);
#34=LINE('',#364,#48);
#35=LINE('',#366,#49);
#36=LINE('',#374,#50);
#37=LINE('',#376,#51);
#38=LINE('',#378,#52);
#39=LINE('',#392,#53);
#40=LINE('',#396,#54);
#41=VECTOR('',#265,1.);
#42=VECTOR('',#266,1.);
#43=VECTOR('',#269,1.);
#44=VECTOR('',#270,1.);
#45=VECTOR('',#275,1.);
#46=VECTOR('',#276,1.);
#47=VECTOR('',#277,1.);
#48=VECTOR('',#282,1.);
#49=VECTOR('',#285,1.);
#50=VECTOR('',#286,1.);
#51=VECTOR('',#289,1.);
#52=VECTOR('',#290,1.);
#53=VECTOR('',#293,1.);
#54=VECTOR('',#298,1.);
#55=CYLINDRICAL_SURFACE('',#238,0.0135);
#56=CYLINDRICAL_SURFACE('',#245,0.003);
#57=CYLINDRICAL_SURFACE('',#250,0.005);
#58=CIRCLE('',#236,0.0135000000000102);
#59=CIRCLE('',#237,0.00549999999998979);
#60=CIRCLE('',#239,0.0135);
#61=CIRCLE('',#240,0.0135);
#62=CIRCLE('',#243,0.005);
#63=CIRCLE('',#247,0.0110000000000076);
#64=CIRCLE('',#249,0.0110000000000077);
#65=CIRCLE('',#251,0.005);
#66=ORIENTED_EDGE('',*,*,#126,.T.);
#67=ORIENTED_EDGE('',*,*,#127,.T.);
#68=ORIENTED_EDGE('',*,*,#128,.T.);
#69=ORIENTED_EDGE('',*,*,#129,.T.);
#70=ORIENTED_EDGE('',*,*,#130,.T.);
#71=ORIENTED_EDGE('',*,*,#131,.T.);
#72=ORIENTED_EDGE('',*,*,#132,.T.);
#73=ORIENTED_EDGE('',*,*,#133,.T.);
#74=ORIENTED_EDGE('',*,*,#134,.T.);
#75=ORIENTED_EDGE('',*,*,#127,.F.);
#76=ORIENTED_EDGE('',*,*,#135,.T.);
#77=ORIENTED_EDGE('',*,*,#136,.T.);
#78=ORIENTED_EDGE('',*,*,#137,.T.);
#79=ORIENTED_EDGE('',*,*,#138,.T.);
#80=ORIENTED_EDGE('',*,*,#139,.T.);
#81=ORIENTED_EDGE('',*,*,#140,.T.);
#82=ORIENTED_EDGE('',*,*,#135,.F.);
#83=ORIENTED_EDGE('',*,*,#126,.F.);
#84=ORIENTED_EDGE('',*,*,#141,.T.);
#85=ORIENTED_EDGE('',*,*,#137,.F.);
#86=ORIENTED_EDGE('',*,*,#129,.F.);
#87=ORIENTED_EDGE('',*,*,#142,.T.);
#88=ORIENTED_EDGE('',*,*,#134,.F.);
#89=ORIENTED_EDGE('',*,*,#143,.T.);
#90=ORIENTED_EDGE('',*,*,#144,.T.);
#91=ORIENTED_EDGE('',*,*,#145,.T.);
#92=ORIENTED_EDGE('',*,*,#142,.F.);
#93=ORIENTED_EDGE('',*,*,#128,.F.);
#94=ORIENTED_EDGE('',*,*,#146,.F.);
#95=ORIENTED_EDGE('',*,*,#131,.F.);
#96=ORIENTED_EDGE('',*,*,#147,.F.);
#97=ORIENTED_EDGE('',*,*,#148,.F.);
#98=ORIENTED_EDGE('',*,*,#149,.F.);
#99=ORIENTED_EDGE('',*,*,#136,.F.);
#100=ORIENTED_EDGE('',*,*,#140,.F.);
#101=ORIENTED_EDGE('',*,*,#150,.F.);
#102=ORIENTED_EDGE('',*,*,#143,.F.);
#103=ORIENTED_EDGE('',*,*,#133,.F.);
#104=ORIENTED_EDGE('',*,*,#151,.F.);
#105=ORIENTED_EDGE('',*,*,#152,.F.);
#106=ORIENTED_EDGE('',*,*,#138,.F.);
#107=ORIENTED_EDGE('',*,*,#141,.F.);
#108=ORIENTED_EDGE('',*,*,#145,.F.);
#109=ORIENTED_EDGE('',*,*,#153,.F.);
#110=ORIENTED_EDGE('',*,*,#153,.T.);
#111=ORIENTED_EDGE('',*,*,#144,.F.);
#112=ORIENTED_EDGE('',*,*,#152,.T.);
#113=ORIENTED_EDGE('',*,*,#154,.F.);
#114=ORIENTED_EDGE('',*,*,#148,.T.);
#115=ORIENTED_EDGE('',*,*,#155,.F.);
#116=ORIENTED_EDGE('',*,*,#150,.T.);
#117=ORIENTED_EDGE('',*,*,#139,.F.);
#118=ORIENTED_EDGE('',*,*,#151,.T.);
#119=ORIENTED_EDGE('',*,*,#132,.F.);
#120=ORIENTED_EDGE('',*,*,#146,.T.);
#121=ORIENTED_EDGE('',*,*,#154,.T.);
#122=ORIENTED_EDGE('',*,*,#147,.T.);
#123=ORIENTED_EDGE('',*,*,#130,.F.);
#124=ORIENTED_EDGE('',*,*,#149,.T.);
#125=ORIENTED_EDGE('',*,*,#155,.T.);
#126=EDGE_CURVE('',#156,#157,#176,.T.);
#127=EDGE_CURVE('',#157,#158,#58,.F.);
#128=EDGE_CURVE('',#158,#159,#177,.T.);
#129=EDGE_CURVE('',#159,#156,#59,.T.);
#130=EDGE_CURVE('',#160,#161,#27,.T.);
#131=EDGE_CURVE('',#161,#162,#178,.T.);
#132=EDGE_CURVE('',#162,#163,#28,.T.);
#133=EDGE_CURVE('',#163,#164,#60,.T.);
#134=EDGE_CURVE('',#164,#158,#29,.T.);
#135=EDGE_CURVE('',#157,#165,#30,.F.);
#136=EDGE_CURVE('',#165,#160,#61,.T.);
#137=EDGE_CURVE('',#156,#166,#31,.F.);
#138=EDGE_CURVE('',#166,#167,#32,.T.);
#139=EDGE_CURVE('',#167,#168,#179,.T.);
#140=EDGE_CURVE('',#168,#165,#33,.T.);
#141=EDGE_CURVE('',#169,#166,#62,.F.);
#142=EDGE_CURVE('',#159,#169,#34,.F.);
#143=EDGE_CURVE('',#164,#170,#35,.F.);
#144=EDGE_CURVE('',#170,#171,#180,.T.);
#145=EDGE_CURVE('',#171,#169,#36,.T.);
#146=EDGE_CURVE('',#162,#172,#37,.F.);
#147=EDGE_CURVE('',#173,#161,#38,.T.);
#148=EDGE_CURVE('',#172,#173,#181,.T.);
#149=EDGE_CURVE('',#160,#174,#39,.T.);
#150=EDGE_CURVE('',#174,#168,#63,.T.);
#151=EDGE_CURVE('',#175,#163,#40,.F.);
#152=EDGE_CURVE('',#170,#175,#64,.T.);
#153=EDGE_CURVE('',#167,#171,#65,.T.);
#154=EDGE_CURVE('',#172,#175,#182,.T.);
#155=EDGE_CURVE('',#174,#173,#183,.T.);
#156=VERTEX_POINT('',#318);
#157=VERTEX_POINT('',#319);
#158=VERTEX_POINT('',#321);
#159=VERTEX_POINT('',#327);
#160=VERTEX_POINT('',#331);
#161=VERTEX_POINT('',#332);
#162=VERTEX_POINT('',#340);
#163=VERTEX_POINT('',#342);
#164=VERTEX_POINT('',#344);
#165=VERTEX_POINT('',#347);
#166=VERTEX_POINT('',#351);
#167=VERTEX_POINT('',#353);
#168=VERTEX_POINT('',#359);
#169=VERTEX_POINT('',#363);
#170=VERTEX_POINT('',#367);
#171=VERTEX_POINT('',#373);
#172=VERTEX_POINT('',#377);
#173=VERTEX_POINT('',#379);
#174=VERTEX_POINT('',#393);
#175=VERTEX_POINT('',#397);
#176=B_SPLINE_CURVE_WITH_KNOTS('',3,(#313,#314,#315,#316,#317),
 .UNSPECIFIED.,.F.,.F.,(4,1,4),(1.04605817781448E-14,0.00594490024188547,
0.0118898004837605),.UNSPECIFIED.);
#177=B_SPLINE_CURVE_WITH_KNOTS('',3,(#322,#323,#324,#325,#326),
 .UNSPECIFIED.,.F.,.F.,(4,1,4),(3.20757829275603E-15,0.00594486052217627,
0.0118897210443493),.UNSPECIFIED.);
#178=B_SPLINE_CURVE_WITH_KNOTS('',3,(#333,#334,#335,#336,#337,#338,#339),
 .UNSPECIFIED.,.F.,.F.,(4,1,1,1,4),(-0.00470109755240249,-0.00235052089359568,
5.57652111272088E-8,0.00235063242401794,0.00470120908282474),
 .UNSPECIFIED.);
#179=B_SPLINE_CURVE_WITH_KNOTS('',3,(#354,#355,#356,#357,#358),
 .UNSPECIFIED.,.F.,.F.,(4,1,4),(3.39165058306407E-16,0.00455596941911232,
0.0091119388382243),.UNSPECIFIED.);
#180=B_SPLINE_CURVE_WITH_KNOTS('',3,(#368,#369,#370,#371,#372),
 .UNSPECIFIED.,.F.,.F.,(4,1,4),(3.20387689485863E-16,0.0045559535356521,
0.00911190707130389),.UNSPECIFIED.);
#181=B_SPLINE_CURVE_WITH_KNOTS('',3,(#380,#381,#382,#383,#384,#385,#386,
#387,#388,#389,#390),.UNSPECIFIED.,.F.,.F.,(4,1,1,1,1,1,1,1,4),(3.83635167921152E-15,
0.00137510832622676,0.00275021665244968,0.0041253249786726,0.00550043330489552,
0.00687554163111844,0.00825064995734136,0.00962575828356428,0.0110008666097872),
 .UNSPECIFIED.);
#182=B_SPLINE_CURVE_WITH_KNOTS('',3,(#402,#403,#404,#405),.UNSPECIFIED.,
 .F.,.F.,(4,4),(3.87045503644639E-15,0.00144538180907933),.UNSPECIFIED.);
#183=B_SPLINE_CURVE_WITH_KNOTS('',3,(#406,#407,#408,#409),.UNSPECIFIED.,
 .F.,.F.,(4,4),(5.72019061753178E-15,0.00144538111318212),.UNSPECIFIED.);
#184=EDGE_LOOP('',(#66,#67,#68,#69));
#185=EDGE_LOOP('',(#70,#71,#72,#73,#74,#75,#76,#77));
#186=EDGE_LOOP('',(#78,#79,#80,#81,#82,#83));
#187=EDGE_LOOP('',(#84,#85,#86,#87));
#188=EDGE_LOOP('',(#88,#89,#90,#91,#92,#93));
#189=EDGE_LOOP('',(#94,#95,#96,#97));
#190=EDGE_LOOP('',(#98,#99,#100,#101));
#191=EDGE_LOOP('',(#102,#103,#104,#105));
#192=EDGE_LOOP('',(#106,#107,#108,#109));
#193=EDGE_LOOP('',(#110,#111,#112,#113,#114,#115,#116,#117));
#194=EDGE_LOOP('',(#118,#119,#120,#121));
#195=EDGE_LOOP('',(#122,#123,#124,#125));
#196=FACE_BOUND('',#184,.T.);
#197=FACE_BOUND('',#185,.T.);
#198=FACE_BOUND('',#186,.T.);
#199=FACE_BOUND('',#187,.T.);
#200=FACE_BOUND('',#188,.T.);
#201=FACE_BOUND('',#189,.T.);
#202=FACE_BOUND('',#190,.T.);
#203=FACE_BOUND('',#191,.T.);
#204=FACE_BOUND('',#192,.T.);
#205=FACE_BOUND('',#193,.T.);
#206=FACE_BOUND('',#194,.T.);
#207=FACE_BOUND('',#195,.T.);
#208=CONICAL_SURFACE('',#235,0.0135000000000102,0.7853981634);
#209=CONICAL_SURFACE('',#252,0.0110000000000077,0.7853981634);
#210=ADVANCED_FACE('',(#196),#208,.T.);
#211=ADVANCED_FACE('',(#197),#55,.T.);
#212=ADVANCED_FACE('',(#198),#20,.T.);
#213=ADVANCED_FACE('',(#199),#21,.T.);
#214=ADVANCED_FACE('',(#200),#22,.T.);
#215=ADVANCED_FACE('',(#201),#56,.F.);
#216=ADVANCED_FACE('',(#202),#23,.F.);
#217=ADVANCED_FACE('',(#203),#24,.F.);
#218=ADVANCED_FACE('',(#204),#57,.F.);
#219=ADVANCED_FACE('',(#205),#209,.F.);
#220=ADVANCED_FACE('',(#206),#25,.F.);
#221=ADVANCED_FACE('',(#207),#26,.F.);
#222=CLOSED_SHELL('',(#210,#211,#212,#213,#214,#215,#216,#217,#218,#219,
#220,#221));
#223=STYLED_ITEM('',(#224),#231);
#224=PRESENTATION_STYLE_ASSIGNMENT((#225));
#225=SURFACE_STYLE_USAGE(.BOTH.,#226);
#226=SURFACE_SIDE_STYLE('',(#227));
#227=SURFACE_STYLE_FILL_AREA(#228);
#228=FILL_AREA_STYLE('',(#229));
#229=FILL_AREA_STYLE_COLOUR('',#230);
#230=COLOUR_RGB('',0.745098039215686,0.745098039215686,0.745098039215686);
#231=MANIFOLD_SOLID_BREP('KP0014-01_PivotWireCover',#222);
#232=SHAPE_DEFINITION_REPRESENTATION(#418,#233);
#233=SHAPE_REPRESENTATION('KP0014-01_PivotWireCover',(#234),#413);
#234=AXIS2_PLACEMENT_3D('',#311,#255,#256);
#235=AXIS2_PLACEMENT_3D('',#312,#257,#258);
#236=AXIS2_PLACEMENT_3D('',#320,#259,#260);
#237=AXIS2_PLACEMENT_3D('',#328,#261,#262);
#238=AXIS2_PLACEMENT_3D('',#329,#263,#264);
#239=AXIS2_PLACEMENT_3D('',#343,#267,#268);
#240=AXIS2_PLACEMENT_3D('',#348,#271,#272);
#241=AXIS2_PLACEMENT_3D('',#349,#273,#274);
#242=AXIS2_PLACEMENT_3D('',#361,#278,#279);
#243=AXIS2_PLACEMENT_3D('',#362,#280,#281);
#244=AXIS2_PLACEMENT_3D('',#365,#283,#284);
#245=AXIS2_PLACEMENT_3D('',#375,#287,#288);
#246=AXIS2_PLACEMENT_3D('',#391,#291,#292);
#247=AXIS2_PLACEMENT_3D('',#394,#294,#295);
#248=AXIS2_PLACEMENT_3D('',#395,#296,#297);
#249=AXIS2_PLACEMENT_3D('',#398,#299,#300);
#250=AXIS2_PLACEMENT_3D('',#399,#301,#302);
#251=AXIS2_PLACEMENT_3D('',#400,#303,#304);
#252=AXIS2_PLACEMENT_3D('',#401,#305,#306);
#253=AXIS2_PLACEMENT_3D('',#410,#307,#308);
#254=AXIS2_PLACEMENT_3D('',#411,#309,#310);
#255=DIRECTION('',(0.,0.,1.));
#256=DIRECTION('',(1.,0.,0.));
#257=DIRECTION('',(0.,1.,0.));
#258=DIRECTION('',(-1.,0.,0.));
#259=DIRECTION('',(0.,1.,0.));
#260=DIRECTION('',(0.259259259259259,-6.42490176287221E-17,-0.965807763733726));
#261=DIRECTION('',(0.,1.,0.));
#262=DIRECTION('',(-1.,0.,0.));
#263=DIRECTION('',(0.,-1.,0.));
#264=DIRECTION('',(1.,0.,0.));
#265=DIRECTION('',(0.,-1.,0.));
#266=DIRECTION('',(0.,1.,0.));
#267=DIRECTION('',(0.,-1.,0.));
#268=DIRECTION('',(1.,0.,0.));
#269=DIRECTION('',(0.,-1.,0.));
#270=DIRECTION('',(0.,-1.,0.));
#271=DIRECTION('',(0.,-1.,0.));
#272=DIRECTION('',(1.,0.,0.));
#273=DIRECTION('',(1.,0.,0.));
#274=DIRECTION('',(0.,1.,0.));
#275=DIRECTION('',(0.,0.,1.));
#276=DIRECTION('',(0.,1.,0.));
#277=DIRECTION('',(0.,0.,1.));
#278=DIRECTION('',(0.,-1.,0.));
#279=DIRECTION('',(1.,0.,0.));
#280=DIRECTION('',(0.,-1.,0.));
#281=DIRECTION('',(1.,0.,0.));
#282=DIRECTION('',(0.,0.,1.));
#283=DIRECTION('',(-1.,0.,0.));
#284=DIRECTION('',(0.,-1.,0.));
#285=DIRECTION('',(0.,0.,1.));
#286=DIRECTION('',(0.,-1.,0.));
#287=DIRECTION('',(-1.,0.,0.));
#288=DIRECTION('',(0.,-1.,0.));
#289=DIRECTION('',(-1.,0.,0.));
#290=DIRECTION('',(-1.,0.,0.));
#291=DIRECTION('',(0.,-1.,0.));
#292=DIRECTION('',(1.,0.,0.));
#293=DIRECTION('',(1.,0.,0.));
#294=DIRECTION('',(0.,1.,0.));
#295=DIRECTION('',(-1.,0.,0.));
#296=DIRECTION('',(0.,-1.,0.));
#297=DIRECTION('',(1.,0.,0.));
#298=DIRECTION('',(1.,0.,0.));
#299=DIRECTION('',(0.,1.,0.));
#300=DIRECTION('',(-1.,0.,0.));
#301=DIRECTION('',(0.,-1.,0.));
#302=DIRECTION('',(1.,0.,0.));
#303=DIRECTION('',(0.,-1.,0.));
#304=DIRECTION('',(1.,0.,0.));
#305=DIRECTION('',(0.,1.,0.));
#306=DIRECTION('',(-1.,0.,0.));
#307=DIRECTION('',(0.,0.,-1.));
#308=DIRECTION('',(0.,1.,0.));
#309=DIRECTION('',(0.,0.,1.));
#310=DIRECTION('',(0.,-1.,0.));
#311=CARTESIAN_POINT('',(0.,0.,0.));
#312=CARTESIAN_POINT('',(0.,-0.00700000000001021,0.));
#313=CARTESIAN_POINT('',(-0.0035,-0.0149999999999872,0.00424264068710942));
#314=CARTESIAN_POINT('',(-0.0035,-0.0137873387893911,0.00581468912349194));
#315=CARTESIAN_POINT('',(-0.0035,-0.0111121064610041,0.00874069756362698));
#316=CARTESIAN_POINT('',(-0.0035,-0.00837732355804815,0.0116123202315134));
#317=CARTESIAN_POINT('',(-0.0035,-0.00700000000001118,0.0130384048104149));
#318=CARTESIAN_POINT('',(-0.0035,-0.0149999999999936,0.00424264068710111));
#319=CARTESIAN_POINT('',(-0.0035,-0.00700000000001531,0.0130384048104106));
#320=CARTESIAN_POINT('',(0.,-0.00700000000001021,0.));
#321=CARTESIAN_POINT('',(0.0035,-0.00700000000001069,0.0130384048104101));
#322=CARTESIAN_POINT('',(0.0035,-0.00700000000001118,0.0130384048104149));
#323=CARTESIAN_POINT('',(0.0035,-0.00837725452526396,0.011612391708247));
#324=CARTESIAN_POINT('',(0.0035,-0.0111111151059962,0.00874158512782024));
#325=CARTESIAN_POINT('',(0.0035,-0.0137856764176932,0.00581684415970944));
#326=CARTESIAN_POINT('',(0.0035,-0.0149999999999872,0.00424264068710941));
#327=CARTESIAN_POINT('',(0.0035,-0.0149999999999949,0.00424264068709943));
#328=CARTESIAN_POINT('',(0.,-0.0149999999999898,0.));
#329=CARTESIAN_POINT('',(0.,0.,0.));
#330=CARTESIAN_POINT('',(-0.0131624465810882,0.,0.003));
#331=CARTESIAN_POINT('',(-0.0131624465810882,0.,0.003));
#332=CARTESIAN_POINT('',(-0.0131624465810882,-0.001,0.003));
#333=CARTESIAN_POINT('',(-0.0131624465810882,-0.001,0.003));
#334=CARTESIAN_POINT('',(-0.0131624465810882,-0.00179502174631683,0.003));
#335=CARTESIAN_POINT('',(-0.0133331843047817,-0.00334402709778737,0.00235211754973358));
#336=CARTESIAN_POINT('',(-0.0135833286106782,-0.00432748409304351,-6.79996580806801E-7));
#337=CARTESIAN_POINT('',(-0.0133335012517941,-0.00334603652683715,-0.00234973705108416));
#338=CARTESIAN_POINT('',(-0.0131624465810882,-0.00179498114988926,-0.003));
#339=CARTESIAN_POINT('',(-0.0131624465810882,-0.001,-0.003));
#340=CARTESIAN_POINT('',(-0.0131624465810882,-0.001,-0.003));
#341=CARTESIAN_POINT('',(-0.0131624465810882,0.,-0.003));
#342=CARTESIAN_POINT('',(-0.0131624465810882,0.,-0.003));
#343=CARTESIAN_POINT('',(0.,0.,0.));
#344=CARTESIAN_POINT('',(0.0035,0.,0.0130384048104053));
#345=CARTESIAN_POINT('',(0.0035,0.,0.0130384048104053));
#346=CARTESIAN_POINT('',(-0.0035,0.,0.0130384048104053));
#347=CARTESIAN_POINT('',(-0.0035,0.,0.0130384048104053));
#348=CARTESIAN_POINT('',(0.,0.,0.));
#349=CARTESIAN_POINT('',(-0.0035,0.,0.00357071421427142));
#350=CARTESIAN_POINT('',(-0.0035,-0.015,0.00357071421427142));
#351=CARTESIAN_POINT('',(-0.0035,-0.015,0.00357071421427142));
#352=CARTESIAN_POINT('',(-0.0035,0.,0.00357071421427142));
#353=CARTESIAN_POINT('',(-0.0035,-0.00599999999999493,0.0035707142142678));
#354=CARTESIAN_POINT('',(-0.00350000000000339,-0.00599999999999147,0.00357071421426533));
#355=CARTESIAN_POINT('',(-0.00350000000000339,-0.00511453883910455,0.00481060784304356));
#356=CARTESIAN_POINT('',(-0.0034999999999983,-0.00311732168075334,0.0070996436798846));
#357=CARTESIAN_POINT('',(-0.0035,-0.00104571554781981,0.00932528590357868));
#358=CARTESIAN_POINT('',(-0.0035,-8.06891733345519E-15,0.0104283268073147));
#359=CARTESIAN_POINT('',(-0.0035,-3.82934135789709E-15,0.0104283268073192));
#360=CARTESIAN_POINT('',(-0.0035,5.55111512312578E-19,0.00357071421427142));
#361=CARTESIAN_POINT('',(-7.45190269827348E-19,-0.015,0.000632967421642571));
#362=CARTESIAN_POINT('',(0.,-0.015,0.));
#363=CARTESIAN_POINT('',(0.0035,-0.015,0.00357071421427142));
#364=CARTESIAN_POINT('',(0.0035,-0.015,0.000632967421642571));
#365=CARTESIAN_POINT('',(0.0035,0.,0.0130384048104053));
#366=CARTESIAN_POINT('',(0.0035,0.,0.0130384048104053));
#367=CARTESIAN_POINT('',(0.0035,-7.84959267554318E-15,0.010428326807315));
#368=CARTESIAN_POINT('',(0.0035,-8.06253224926509E-15,0.0104283268073147));
#369=CARTESIAN_POINT('',(0.0035,-0.00104566174013293,0.00932534266096331));
#370=CARTESIAN_POINT('',(0.0035,-0.00311595078764671,0.00710097050034158));
#371=CARTESIAN_POINT('',(0.0035,-0.00511310758305392,0.00481261200238266));
#372=CARTESIAN_POINT('',(0.0035,-0.00599999999999002,0.00357071421426396));
#373=CARTESIAN_POINT('',(0.0035,-0.00599999999999235,0.00357071421427142));
#374=CARTESIAN_POINT('',(0.0035,0.,0.00357071421427142));
#375=CARTESIAN_POINT('',(-0.00634287411355807,-0.001,0.));
#376=CARTESIAN_POINT('',(-0.00634287411355807,-0.001,-0.003));
#377=CARTESIAN_POINT('',(-0.00953939201417736,-0.00100000000000267,-0.003));
#378=CARTESIAN_POINT('',(-0.00634287411355807,-0.001,0.003));
#379=CARTESIAN_POINT('',(-0.00953939251770919,-0.00099999951966392,0.003));
#380=CARTESIAN_POINT('',(-0.00953939201417456,-0.00100000000000534,-0.003));
#381=CARTESIAN_POINT('',(-0.00920479122724583,-0.00131918880748017,-0.00299999999999943));
#382=CARTESIAN_POINT('',(-0.00855607232135385,-0.00196490584341577,-0.0029011567867007));
#383=CARTESIAN_POINT('',(-0.00769578299834796,-0.002946706156638,-0.00238499872624994));
#384=CARTESIAN_POINT('',(-0.00711986380912806,-0.00377606052652502,-0.00138310361342105));
#385=CARTESIAN_POINT('',(-0.00694042546977725,-0.00411141363147861,-5.84738629567956E-6));
#386=CARTESIAN_POINT('',(-0.00711844412850608,-0.00377826776821679,0.00138162438136814));
#387=CARTESIAN_POINT('',(-0.00769577306104286,-0.0029467418798922,0.00238450202641963));
#388=CARTESIAN_POINT('',(-0.00855342508246379,-0.00196772050099274,0.00290031435706588));
#389=CARTESIAN_POINT('',(-0.00920463781981347,-0.00131933513502173,0.00300000005112944));
#390=CARTESIAN_POINT('',(-0.00953939251770919,-0.000999999519663924,0.00299999999999996));
#391=CARTESIAN_POINT('',(-7.45190269827348E-19,0.,0.000632967421642571));
#392=CARTESIAN_POINT('',(-7.45190269827348E-19,0.,0.003));
#393=CARTESIAN_POINT('',(-0.0105830052442701,-3.96833820268617E-15,0.003));
#394=CARTESIAN_POINT('',(0.,-7.65923782730648E-15,0.));
#395=CARTESIAN_POINT('',(-7.45190269827348E-19,0.,0.000632967421642571));
#396=CARTESIAN_POINT('',(-7.45190269827348E-19,0.,-0.003));
#397=CARTESIAN_POINT('',(-0.0105830052442662,-7.78424610023064E-15,-0.003));
#398=CARTESIAN_POINT('',(0.,-7.6366864221189E-15,0.));
#399=CARTESIAN_POINT('',(0.,0.,0.));
#400=CARTESIAN_POINT('',(0.,-0.006,0.));
#401=CARTESIAN_POINT('',(0.,-7.6366864221189E-15,0.));
#402=CARTESIAN_POINT('',(-0.00953939201417456,-0.00100000000000534,-0.003));
#403=CARTESIAN_POINT('',(-0.00988800673905257,-0.000667442747754706,-0.003));
#404=CARTESIAN_POINT('',(-0.010235807463592,-0.000334035993976111,-0.003));
#405=CARTESIAN_POINT('',(-0.010583005244266,-7.93136385838842E-15,-0.003));
#406=CARTESIAN_POINT('',(-0.010583005244266,-7.93608480374937E-15,0.003));
#407=CARTESIAN_POINT('',(-0.0102358076307559,-0.000334035833149143,0.003));
#408=CARTESIAN_POINT('',(-0.00988800707395176,-0.00066744242670138,0.003));
#409=CARTESIAN_POINT('',(-0.00953939251770919,-0.000999999519663917,0.003));
#410=CARTESIAN_POINT('',(-0.0131624465810882,0.,-0.003));
#411=CARTESIAN_POINT('',(-0.004,0.,0.003));
#412=MECHANICAL_DESIGN_GEOMETRIC_PRESENTATION_REPRESENTATION('',(#223),
#413);
#413=(
GEOMETRIC_REPRESENTATION_CONTEXT(3)
GLOBAL_UNCERTAINTY_ASSIGNED_CONTEXT((#414))
GLOBAL_UNIT_ASSIGNED_CONTEXT((#417,#416,#415))
REPRESENTATION_CONTEXT('KP0014-01_PivotWireCover',
'TOP_LEVEL_ASSEMBLY_PART')
);
#414=UNCERTAINTY_MEASURE_WITH_UNIT(LENGTH_MEASURE(2.E-5),#417,
'DISTANCE_ACCURACY_VALUE','Maximum Tolerance applied to model');
#415=(
NAMED_UNIT(*)
SI_UNIT($,.STERADIAN.)
SOLID_ANGLE_UNIT()
);
#416=(
NAMED_UNIT(*)
PLANE_ANGLE_UNIT()
SI_UNIT($,.RADIAN.)
);
#417=(
LENGTH_UNIT()
NAMED_UNIT(*)
SI_UNIT($,.METRE.)
);
#418=PRODUCT_DEFINITION_SHAPE('','',#419);
#419=PRODUCT_DEFINITION('','',#421,#420);
#420=PRODUCT_DEFINITION_CONTEXT('',#427,'design');
#421=PRODUCT_DEFINITION_FORMATION_WITH_SPECIFIED_SOURCE('','',#423,
 .NOT_KNOWN.);
#422=PRODUCT_RELATED_PRODUCT_CATEGORY('','',(#423));
#423=PRODUCT('KP0014-01_PivotWireCover','KP0014-01_PivotWireCover',
'KP0014-01_PivotWireCover',(#425));
#424=PRODUCT_CATEGORY('','');
#425=PRODUCT_CONTEXT('',#427,'mechanical');
#426=APPLICATION_PROTOCOL_DEFINITION('international standard',
'automotive_design',2010,#427);
#427=APPLICATION_CONTEXT(
'core data for automotive mechanical design processes');
ENDSEC;
END-ISO-10303-21;
