ISO-10303-21;
HEADER;
/* Generated by software containing ST-Developer
 * from STEP Tools, Inc. (www.steptools.com) 
 */
/* OPTION: using custom renumber hook */

FILE_DESCRIPTION(
/* description */ ('STEP AP214',
'CAx-IF Rec.Pracs.---User Defined Attributes---1.5---2016-08-15'),
/* implementation_level */ '2;1');

FILE_NAME(
/* name */ '6a65b5443184da9fa51bbeb1',
/* time_stamp */ '2026-07-26T07:20:36Z',
/* author */ (''),
/* organization */ (''),
/* preprocessor_version */ 'ST-DEVELOPER v20',
/* originating_system */ 'ONSHAPE BY PTC INC, 1.218',
/* authorisation */ '  ');

FILE_SCHEMA (('AUTOMOTIVE_DESIGN {1 0 10303 214 3 1 1}'));
ENDSEC;

DATA;
#10=PROPERTY_DEFINITION_REPRESENTATION(#14,#12);
#11=PROPERTY_DEFINITION_REPRESENTATION(#15,#13);
#12=REPRESENTATION('',(#16),#255);
#13=REPRESENTATION('',(#17),#255);
#14=PROPERTY_DEFINITION('pmi validation property','',#260);
#15=PROPERTY_DEFINITION('pmi validation property','',#260);
#16=VALUE_REPRESENTATION_ITEM('number of annotations',COUNT_MEASURE(0.));
#17=VALUE_REPRESENTATION_ITEM('number of views',COUNT_MEASURE(0.));
#18=SHAPE_REPRESENTATION_RELATIONSHIP('','',#130,#19);
#19=ADVANCED_BREP_SHAPE_REPRESENTATION('',(#128),#255);
#20=TOROIDAL_SURFACE('',#144,0.00905,0.0005);
#21=TOROIDAL_SURFACE('',#146,0.00925,0.0005);
#22=B_SPLINE_CURVE_WITH_KNOTS('',3,(#204,#205,#206,#207,#208,#209,#210,
#211,#212,#213,#214,#215,#216,#217,#218,#219,#220,#221,#222,#223,#224,#225,
#226,#227,#228,#229,#230,#231,#232,#233,#234,#235,#236,#237,#238,#239,#240,
#241,#242,#243,#244,#245),.UNSPECIFIED.,.T.,.F.,(1,1,1,1,1,1,1,1,1,1,1,
1,1,1,1,1,1,1,1,1,1,1,1,1,1,1,1,1,1,1,1,1,1,1,1,1,1,1,1,1,1,1,1,1,1,1),
(-0.0485197368421053,-0.0328947368421053,-0.0164473684210527,0.,0.01484375,
0.0296875,0.0452734375,0.060859375,0.09210546875,0.1233552734375,0.154605263671875,
0.185855263183594,0.201480263171387,0.21710526315918,0.248355263157959,
0.279605263157898,0.310855263157895,0.342105263157895,0.373355263157895,
0.404605263157895,0.435855263157895,0.451480263157895,0.467105263157895,
0.498355263157895,0.529605263157895,0.560855263157895,0.592105263157895,
0.623355263157895,0.654605263157895,0.685855263157895,0.701480263157895,
0.717105263157895,0.748355263157895,0.779605263157895,0.810855263157895,
0.842105263157895,0.873355263157895,0.904605263157895,0.935855263157895,
0.951480263157895,0.967105263157895,0.983552631578947,1.,1.01484375,1.0296875,
1.0452734375),.UNSPECIFIED.);
#23=PLANE('',#135);
#24=PLANE('',#137);
#25=PLANE('',#143);
#26=ORIENTED_EDGE('',*,*,#44,.F.);
#27=ORIENTED_EDGE('',*,*,#45,.F.);
#28=ORIENTED_EDGE('',*,*,#44,.T.);
#29=ORIENTED_EDGE('',*,*,#46,.T.);
#30=ORIENTED_EDGE('',*,*,#45,.T.);
#31=ORIENTED_EDGE('',*,*,#47,.F.);
#32=ORIENTED_EDGE('',*,*,#46,.F.);
#33=ORIENTED_EDGE('',*,*,#48,.T.);
#34=ORIENTED_EDGE('',*,*,#49,.T.);
#35=ORIENTED_EDGE('',*,*,#47,.T.);
#36=ORIENTED_EDGE('',*,*,#50,.F.);
#37=ORIENTED_EDGE('',*,*,#48,.F.);
#38=ORIENTED_EDGE('',*,*,#49,.F.);
#39=ORIENTED_EDGE('',*,*,#51,.F.);
#40=ORIENTED_EDGE('',*,*,#50,.T.);
#41=ORIENTED_EDGE('',*,*,#52,.F.);
#42=ORIENTED_EDGE('',*,*,#52,.T.);
#43=ORIENTED_EDGE('',*,*,#51,.T.);
#44=EDGE_CURVE('',#53,#53,#62,.T.);
#45=EDGE_CURVE('',#54,#54,#63,.F.);
#46=EDGE_CURVE('',#55,#55,#64,.F.);
#47=EDGE_CURVE('',#56,#56,#65,.T.);
#48=EDGE_CURVE('',#57,#57,#66,.F.);
#49=EDGE_CURVE('',#58,#58,#67,.F.);
#50=EDGE_CURVE('',#59,#59,#22,.T.);
#51=EDGE_CURVE('',#60,#60,#68,.T.);
#52=EDGE_CURVE('',#61,#61,#69,.F.);
#53=VERTEX_POINT('',#188);
#54=VERTEX_POINT('',#190);
#55=VERTEX_POINT('',#193);
#56=VERTEX_POINT('',#196);
#57=VERTEX_POINT('',#199);
#58=VERTEX_POINT('',#202);
#59=VERTEX_POINT('',#246);
#60=VERTEX_POINT('',#249);
#61=VERTEX_POINT('',#252);
#62=CIRCLE('',#133,0.00815);
#63=CIRCLE('',#134,0.00815);
#64=CIRCLE('',#136,0.0125);
#65=CIRCLE('',#138,0.00855);
#66=CIRCLE('',#140,0.0125);
#67=CIRCLE('',#142,0.00855);
#68=CIRCLE('',#145,0.00875);
#69=CIRCLE('',#147,0.00875);
#70=EDGE_LOOP('',(#26));
#71=EDGE_LOOP('',(#27));
#72=EDGE_LOOP('',(#28));
#73=EDGE_LOOP('',(#29));
#74=EDGE_LOOP('',(#30));
#75=EDGE_LOOP('',(#31));
#76=EDGE_LOOP('',(#32));
#77=EDGE_LOOP('',(#33));
#78=EDGE_LOOP('',(#34));
#79=EDGE_LOOP('',(#35));
#80=EDGE_LOOP('',(#36));
#81=EDGE_LOOP('',(#37));
#82=EDGE_LOOP('',(#38));
#83=EDGE_LOOP('',(#39));
#84=EDGE_LOOP('',(#40));
#85=EDGE_LOOP('',(#41));
#86=EDGE_LOOP('',(#42));
#87=EDGE_LOOP('',(#43));
#88=FACE_BOUND('',#70,.T.);
#89=FACE_BOUND('',#71,.T.);
#90=FACE_BOUND('',#72,.T.);
#91=FACE_BOUND('',#73,.T.);
#92=FACE_BOUND('',#74,.T.);
#93=FACE_BOUND('',#75,.T.);
#94=FACE_BOUND('',#76,.T.);
#95=FACE_BOUND('',#77,.T.);
#96=FACE_BOUND('',#78,.T.);
#97=FACE_BOUND('',#79,.T.);
#98=FACE_BOUND('',#80,.T.);
#99=FACE_BOUND('',#81,.T.);
#100=FACE_BOUND('',#82,.T.);
#101=FACE_BOUND('',#83,.T.);
#102=FACE_BOUND('',#84,.T.);
#103=FACE_BOUND('',#85,.T.);
#104=FACE_BOUND('',#86,.T.);
#105=FACE_BOUND('',#87,.T.);
#106=CYLINDRICAL_SURFACE('',#132,0.00815);
#107=CYLINDRICAL_SURFACE('',#139,0.0125);
#108=CYLINDRICAL_SURFACE('',#141,0.00855);
#109=CYLINDRICAL_SURFACE('',#148,0.00875);
#110=ADVANCED_FACE('',(#88,#89),#106,.F.);
#111=ADVANCED_FACE('',(#90,#91),#23,.T.);
#112=ADVANCED_FACE('',(#92,#93),#24,.F.);
#113=ADVANCED_FACE('',(#94,#95),#107,.T.);
#114=ADVANCED_FACE('',(#96,#97),#108,.T.);
#115=ADVANCED_FACE('',(#98,#99),#25,.F.);
#116=ADVANCED_FACE('',(#100,#101),#20,.F.);
#117=ADVANCED_FACE('',(#102,#103),#21,.F.);
#118=ADVANCED_FACE('',(#104,#105),#109,.T.);
#119=CLOSED_SHELL('',(#110,#111,#112,#113,#114,#115,#116,#117,#118));
#120=STYLED_ITEM('',(#121),#128);
#121=PRESENTATION_STYLE_ASSIGNMENT((#122));
#122=SURFACE_STYLE_USAGE(.BOTH.,#123);
#123=SURFACE_SIDE_STYLE('',(#124));
#124=SURFACE_STYLE_FILL_AREA(#125);
#125=FILL_AREA_STYLE('',(#126));
#126=FILL_AREA_STYLE_COLOUR('',#127);
#127=COLOUR_RGB('',0.745098039215686,0.745098039215686,0.745098039215686);
#128=MANIFOLD_SOLID_BREP('KP0076-01_ToolShaftSpacer',#119);
#129=SHAPE_DEFINITION_REPRESENTATION(#260,#130);
#130=SHAPE_REPRESENTATION('KP0076-01_ToolShaftSpacer',(#131),#255);
#131=AXIS2_PLACEMENT_3D('',#185,#149,#150);
#132=AXIS2_PLACEMENT_3D('',#186,#151,#152);
#133=AXIS2_PLACEMENT_3D('',#187,#153,#154);
#134=AXIS2_PLACEMENT_3D('',#189,#155,#156);
#135=AXIS2_PLACEMENT_3D('',#191,#157,#158);
#136=AXIS2_PLACEMENT_3D('',#192,#159,#160);
#137=AXIS2_PLACEMENT_3D('',#194,#161,#162);
#138=AXIS2_PLACEMENT_3D('',#195,#163,#164);
#139=AXIS2_PLACEMENT_3D('',#197,#165,#166);
#140=AXIS2_PLACEMENT_3D('',#198,#167,#168);
#141=AXIS2_PLACEMENT_3D('',#200,#169,#170);
#142=AXIS2_PLACEMENT_3D('',#201,#171,#172);
#143=AXIS2_PLACEMENT_3D('',#203,#173,#174);
#144=AXIS2_PLACEMENT_3D('',#247,#175,#176);
#145=AXIS2_PLACEMENT_3D('',#248,#177,#178);
#146=AXIS2_PLACEMENT_3D('',#250,#179,#180);
#147=AXIS2_PLACEMENT_3D('',#251,#181,#182);
#148=AXIS2_PLACEMENT_3D('',#253,#183,#184);
#149=DIRECTION('',(0.,0.,1.));
#150=DIRECTION('',(1.,0.,0.));
#151=DIRECTION('',(0.,-1.,0.));
#152=DIRECTION('',(1.,0.,0.));
#153=DIRECTION('',(0.,-1.,0.));
#154=DIRECTION('',(1.,0.,0.));
#155=DIRECTION('',(0.,-1.,0.));
#156=DIRECTION('',(1.,0.,0.));
#157=DIRECTION('',(0.,1.,0.));
#158=DIRECTION('',(-1.,0.,0.));
#159=DIRECTION('',(0.,-1.,0.));
#160=DIRECTION('',(1.,0.,0.));
#161=DIRECTION('',(0.,1.,0.));
#162=DIRECTION('',(-1.,0.,0.));
#163=DIRECTION('',(0.,1.,0.));
#164=DIRECTION('',(-1.,0.,0.));
#165=DIRECTION('',(0.,-1.,0.));
#166=DIRECTION('',(1.,0.,0.));
#167=DIRECTION('',(0.,-1.,0.));
#168=DIRECTION('',(1.,0.,0.));
#169=DIRECTION('',(0.,1.,0.));
#170=DIRECTION('',(-1.,0.,0.));
#171=DIRECTION('',(0.,1.,0.));
#172=DIRECTION('',(-1.,0.,0.));
#173=DIRECTION('',(0.,1.,0.));
#174=DIRECTION('',(-1.,0.,0.));
#175=DIRECTION('',(0.,1.,0.));
#176=DIRECTION('',(1.,0.,0.));
#177=DIRECTION('',(0.,1.,0.));
#178=DIRECTION('',(1.,0.,0.));
#179=DIRECTION('',(0.,1.,0.));
#180=DIRECTION('',(-1.,0.,0.));
#181=DIRECTION('',(0.,1.,0.));
#182=DIRECTION('',(-1.,0.,0.));
#183=DIRECTION('',(0.,1.,0.));
#184=DIRECTION('',(-1.,0.,0.));
#185=CARTESIAN_POINT('',(0.,0.,0.));
#186=CARTESIAN_POINT('',(0.,0.,0.));
#187=CARTESIAN_POINT('',(0.,0.,0.));
#188=CARTESIAN_POINT('',(0.00815,0.,0.));
#189=CARTESIAN_POINT('',(0.,-0.0075,0.));
#190=CARTESIAN_POINT('',(0.00815,-0.0075,0.));
#191=CARTESIAN_POINT('',(0.,0.,0.));
#192=CARTESIAN_POINT('',(0.,0.,0.));
#193=CARTESIAN_POINT('',(0.0125,0.,0.));
#194=CARTESIAN_POINT('',(0.,-0.0075,0.));
#195=CARTESIAN_POINT('',(0.,-0.0075,0.));
#196=CARTESIAN_POINT('',(-0.00855,-0.0075,0.));
#197=CARTESIAN_POINT('',(0.,0.,0.));
#198=CARTESIAN_POINT('',(0.,-0.0005,0.));
#199=CARTESIAN_POINT('',(0.0125,-0.0005,0.));
#200=CARTESIAN_POINT('',(0.,-0.0075,0.));
#201=CARTESIAN_POINT('',(0.,-0.0039,0.));
#202=CARTESIAN_POINT('',(-0.00855,-0.0039,-2.09414602654198E-18));
#203=CARTESIAN_POINT('',(0.,-0.0005,0.));
#204=CARTESIAN_POINT('',(0.00922078680681389,-0.0005,-0.000892779162613746));
#205=CARTESIAN_POINT('',(0.00926323176139777,-0.0005,-2.93756469638226E-5));
#206=CARTESIAN_POINT('',(0.0092260306594806,-0.0005,0.000807012116981712));
#207=CARTESIAN_POINT('',(0.00912319962552398,-0.0005,0.00160270077228465));
#208=CARTESIAN_POINT('',(0.0089280970688434,-0.0005,0.00247492804461233));
#209=CARTESIAN_POINT('',(0.00855805793592422,-0.0005,0.0035981177641265));
#210=CARTESIAN_POINT('',(0.00785401259156436,-0.0005,0.00501089328591174));
#211=CARTESIAN_POINT('',(0.00665906141644664,-0.0005,0.00651485452020849));
#212=CARTESIAN_POINT('',(0.00517953512785323,-0.0005,0.00774409995772679));
#213=CARTESIAN_POINT('',(0.00377781799403949,-0.0005,0.00848085480138507));
#214=CARTESIAN_POINT('',(0.00265340752677161,-0.0005,0.00887679326385819));
#215=CARTESIAN_POINT('',(0.00147606296217323,-0.0005,0.00916515198725138));
#216=CARTESIAN_POINT('',(9.17972845340358E-5,-0.0005,0.00929753828091852));
#217=CARTESIAN_POINT('',(-0.00158402604351349,-0.0005,0.00916857638982246));
#218=CARTESIAN_POINT('',(-0.00332704065286646,-0.0005,0.00869659837125216));
#219=CARTESIAN_POINT('',(-0.00500747455458139,-0.0005,0.00785480855054145));
#220=CARTESIAN_POINT('',(-0.00651575044208943,-0.0005,0.00665886591458475));
#221=CARTESIAN_POINT('',(-0.00774385371090556,-0.0005,0.00517958979466903));
#222=CARTESIAN_POINT('',(-0.0084808852688468,-0.0005,0.00377781126066444));
#223=CARTESIAN_POINT('',(-0.00887678764444046,-0.0005,0.00265340877106658));
#224=CARTESIAN_POINT('',(-0.00916515523148009,-0.0005,0.00147606224448877));
#225=CARTESIAN_POINT('',(-0.00929753717869801,-0.0005,9.17975284764146E-5));
#226=CARTESIAN_POINT('',(-0.00916857668516136,-0.0005,-0.00158402610886437));
#227=CARTESIAN_POINT('',(-0.00869659829212017,-0.0005,-0.00332704063537619));
#228=CARTESIAN_POINT('',(-0.00785480857173106,-0.0005,-0.00500747455918933));
#229=CARTESIAN_POINT('',(-0.00665886590895879,-0.0005,-0.00651575044114717));
#230=CARTESIAN_POINT('',(-0.00517958979598326,-0.0005,-0.00774385371006665));
#231=CARTESIAN_POINT('',(-0.00377781126119216,-0.0005,-0.00848088527228742));
#232=CARTESIAN_POINT('',(-0.00265340876985254,-0.0005,-0.00887678763841618));
#233=CARTESIAN_POINT('',(-0.00147606225118366,-0.0005,-0.00916515526420236));
#234=CARTESIAN_POINT('',(-9.17974742693883E-5,-0.0005,-0.0092975369143255));
#235=CARTESIAN_POINT('',(0.00158402591091603,-0.0005,-0.00916857765051018));
#236=CARTESIAN_POINT('',(0.00332704137295764,-0.0005,-0.00869659469509743));
#237=CARTESIAN_POINT('',(0.00500747180681201,-0.0005,-0.00785482199447416));
#238=CARTESIAN_POINT('',(0.00651576071308077,-0.0005,-0.00665881581500576));
#239=CARTESIAN_POINT('',(0.00774381537471091,-0.0005,-0.00517977674905097));
#240=CARTESIAN_POINT('',(0.00848099810763812,-0.0005,-0.00377726098810306));
#241=CARTESIAN_POINT('',(0.00887659220185678,-0.0005,-0.0026543618707976));
#242=CARTESIAN_POINT('',(0.00909762016353738,-0.0005,-0.00175118895993336));
#243=CARTESIAN_POINT('',(0.00922078680681389,-0.0005,-0.000892779162613746));
#244=CARTESIAN_POINT('',(0.00926323176139777,-0.0005,-2.93756469638226E-5));
#245=CARTESIAN_POINT('',(0.0092260306594806,-0.0005,0.000807012116981712));
#246=CARTESIAN_POINT('',(0.00925,-0.0005,1.1327982892113E-18));
#247=CARTESIAN_POINT('',(0.,-0.0039,0.));
#248=CARTESIAN_POINT('',(0.,-0.0035,0.));
#249=CARTESIAN_POINT('',(0.00875,-0.0035,0.));
#250=CARTESIAN_POINT('',(0.,-0.001,0.));
#251=CARTESIAN_POINT('',(0.,-0.001,0.));
#252=CARTESIAN_POINT('',(0.00875,-0.001,1.07156594925393E-18));
#253=CARTESIAN_POINT('',(0.,-0.0035,0.));
#254=MECHANICAL_DESIGN_GEOMETRIC_PRESENTATION_REPRESENTATION('',(#120),
#255);
#255=(
GEOMETRIC_REPRESENTATION_CONTEXT(3)
GLOBAL_UNCERTAINTY_ASSIGNED_CONTEXT((#256))
GLOBAL_UNIT_ASSIGNED_CONTEXT((#259,#258,#257))
REPRESENTATION_CONTEXT('KP0076-01_ToolShaftSpacer',
'TOP_LEVEL_ASSEMBLY_PART')
);
#256=UNCERTAINTY_MEASURE_WITH_UNIT(LENGTH_MEASURE(2.E-5),#259,
'DISTANCE_ACCURACY_VALUE','Maximum Tolerance applied to model');
#257=(
NAMED_UNIT(*)
SI_UNIT($,.STERADIAN.)
SOLID_ANGLE_UNIT()
);
#258=(
NAMED_UNIT(*)
PLANE_ANGLE_UNIT()
SI_UNIT($,.RADIAN.)
);
#259=(
LENGTH_UNIT()
NAMED_UNIT(*)
SI_UNIT($,.METRE.)
);
#260=PRODUCT_DEFINITION_SHAPE('','',#261);
#261=PRODUCT_DEFINITION('','',#263,#262);
#262=PRODUCT_DEFINITION_CONTEXT('',#269,'design');
#263=PRODUCT_DEFINITION_FORMATION_WITH_SPECIFIED_SOURCE('','',#265,
 .NOT_KNOWN.);
#264=PRODUCT_RELATED_PRODUCT_CATEGORY('','',(#265));
#265=PRODUCT('KP0076-01_ToolShaftSpacer','KP0076-01_ToolShaftSpacer',
'KP0076-01_ToolShaftSpacer',(#267));
#266=PRODUCT_CATEGORY('','');
#267=PRODUCT_CONTEXT('',#269,'mechanical');
#268=APPLICATION_PROTOCOL_DEFINITION('international standard',
'automotive_design',2010,#269);
#269=APPLICATION_CONTEXT(
'core data for automotive mechanical design processes');
ENDSEC;
END-ISO-10303-21;
