ISO-10303-21;
HEADER;
/* Generated by software containing ST-Developer
 * from STEP Tools, Inc. (www.steptools.com) 
 */
/* OPTION: using custom renumber hook */

FILE_DESCRIPTION(
/* description */ ('STEP AP214',
'CAx-IF Rec.Pracs.---User Defined Attributes---1.5---2016-08-15'),
/* implementation_level */ '2;1');

FILE_NAME(
/* name */ '6a65b5687e652834a1e6d191',
/* time_stamp */ '2026-07-26T07:21:12Z',
/* author */ (''),
/* organization */ (''),
/* preprocessor_version */ 'ST-DEVELOPER v20',
/* originating_system */ 'ONSHAPE BY PTC INC, 1.218',
/* authorisation */ '  ');

FILE_SCHEMA (('AUTOMOTIVE_DESIGN {1 0 10303 214 3 1 1}'));
ENDSEC;

DATA;
#10=PROPERTY_DEFINITION_REPRESENTATION(#14,#12);
#11=PROPERTY_DEFINITION_REPRESENTATION(#15,#13);
#12=REPRESENTATION('',(#16),#473);
#13=REPRESENTATION('',(#17),#473);
#14=PROPERTY_DEFINITION('pmi validation property','',#478);
#15=PROPERTY_DEFINITION('pmi validation property','',#478);
#16=VALUE_REPRESENTATION_ITEM('number of annotations',COUNT_MEASURE(0.));
#17=VALUE_REPRESENTATION_ITEM('number of views',COUNT_MEASURE(0.));
#18=SHAPE_REPRESENTATION_RELATIONSHIP('','',#275,#19);
#19=ADVANCED_BREP_SHAPE_REPRESENTATION('',(#273),#473);
#20=PLANE('',#283);
#21=PLANE('',#294);
#22=PLANE('',#304);
#23=PLANE('',#306);
#24=LINE('',#402,#40);
#25=LINE('',#406,#41);
#26=LINE('',#410,#42);
#27=LINE('',#414,#43);
#28=LINE('',#419,#44);
#29=LINE('',#436,#45);
#30=LINE('',#441,#46);
#31=LINE('',#445,#47);
#32=LINE('',#456,#48);
#33=LINE('',#458,#49);
#34=LINE('',#459,#50);
#35=LINE('',#461,#51);
#36=LINE('',#463,#52);
#37=LINE('',#466,#53);
#38=LINE('',#467,#54);
#39=LINE('',#469,#55);
#40=VECTOR('',#317,1.);
#41=VECTOR('',#320,1.);
#42=VECTOR('',#325,1.);
#43=VECTOR('',#330,1.);
#44=VECTOR('',#333,1.);
#45=VECTOR('',#352,1.);
#46=VECTOR('',#357,1.);
#47=VECTOR('',#360,1.);
#48=VECTOR('',#373,1.);
#49=VECTOR('',#376,1.);
#50=VECTOR('',#377,1.);
#51=VECTOR('',#380,1.);
#52=VECTOR('',#383,1.);
#53=VECTOR('',#388,1.);
#54=VECTOR('',#389,1.);
#55=VECTOR('',#392,1.);
#56=ORIENTED_EDGE('',*,*,#128,.T.);
#57=ORIENTED_EDGE('',*,*,#129,.T.);
#58=ORIENTED_EDGE('',*,*,#130,.T.);
#59=ORIENTED_EDGE('',*,*,#131,.T.);
#60=ORIENTED_EDGE('',*,*,#132,.T.);
#61=ORIENTED_EDGE('',*,*,#133,.T.);
#62=ORIENTED_EDGE('',*,*,#134,.T.);
#63=ORIENTED_EDGE('',*,*,#129,.F.);
#64=ORIENTED_EDGE('',*,*,#135,.F.);
#65=ORIENTED_EDGE('',*,*,#136,.F.);
#66=ORIENTED_EDGE('',*,*,#137,.F.);
#67=ORIENTED_EDGE('',*,*,#138,.F.);
#68=ORIENTED_EDGE('',*,*,#139,.F.);
#69=ORIENTED_EDGE('',*,*,#140,.F.);
#70=ORIENTED_EDGE('',*,*,#141,.F.);
#71=ORIENTED_EDGE('',*,*,#132,.F.);
#72=ORIENTED_EDGE('',*,*,#128,.F.);
#73=ORIENTED_EDGE('',*,*,#142,.F.);
#74=ORIENTED_EDGE('',*,*,#143,.F.);
#75=ORIENTED_EDGE('',*,*,#144,.F.);
#76=ORIENTED_EDGE('',*,*,#142,.T.);
#77=ORIENTED_EDGE('',*,*,#131,.F.);
#78=ORIENTED_EDGE('',*,*,#145,.T.);
#79=ORIENTED_EDGE('',*,*,#146,.T.);
#80=ORIENTED_EDGE('',*,*,#147,.T.);
#81=ORIENTED_EDGE('',*,*,#148,.T.);
#82=ORIENTED_EDGE('',*,*,#149,.T.);
#83=ORIENTED_EDGE('',*,*,#150,.T.);
#84=ORIENTED_EDGE('',*,*,#151,.T.);
#85=ORIENTED_EDGE('',*,*,#152,.F.);
#86=ORIENTED_EDGE('',*,*,#153,.T.);
#87=ORIENTED_EDGE('',*,*,#154,.F.);
#88=ORIENTED_EDGE('',*,*,#155,.T.);
#89=ORIENTED_EDGE('',*,*,#145,.F.);
#90=ORIENTED_EDGE('',*,*,#130,.F.);
#91=ORIENTED_EDGE('',*,*,#134,.F.);
#92=ORIENTED_EDGE('',*,*,#141,.T.);
#93=ORIENTED_EDGE('',*,*,#156,.T.);
#94=ORIENTED_EDGE('',*,*,#151,.F.);
#95=ORIENTED_EDGE('',*,*,#133,.F.);
#96=ORIENTED_EDGE('',*,*,#157,.F.);
#97=ORIENTED_EDGE('',*,*,#138,.T.);
#98=ORIENTED_EDGE('',*,*,#158,.F.);
#99=ORIENTED_EDGE('',*,*,#149,.F.);
#100=ORIENTED_EDGE('',*,*,#159,.F.);
#101=ORIENTED_EDGE('',*,*,#135,.T.);
#102=ORIENTED_EDGE('',*,*,#157,.T.);
#103=ORIENTED_EDGE('',*,*,#148,.F.);
#104=ORIENTED_EDGE('',*,*,#160,.F.);
#105=ORIENTED_EDGE('',*,*,#136,.T.);
#106=ORIENTED_EDGE('',*,*,#159,.T.);
#107=ORIENTED_EDGE('',*,*,#147,.F.);
#108=ORIENTED_EDGE('',*,*,#158,.T.);
#109=ORIENTED_EDGE('',*,*,#137,.T.);
#110=ORIENTED_EDGE('',*,*,#160,.T.);
#111=ORIENTED_EDGE('',*,*,#150,.F.);
#112=ORIENTED_EDGE('',*,*,#161,.F.);
#113=ORIENTED_EDGE('',*,*,#139,.T.);
#114=ORIENTED_EDGE('',*,*,#162,.F.);
#115=ORIENTED_EDGE('',*,*,#153,.F.);
#116=ORIENTED_EDGE('',*,*,#143,.T.);
#117=ORIENTED_EDGE('',*,*,#146,.F.);
#118=ORIENTED_EDGE('',*,*,#155,.F.);
#119=ORIENTED_EDGE('',*,*,#163,.T.);
#120=ORIENTED_EDGE('',*,*,#140,.T.);
#121=ORIENTED_EDGE('',*,*,#161,.T.);
#122=ORIENTED_EDGE('',*,*,#152,.T.);
#123=ORIENTED_EDGE('',*,*,#156,.F.);
#124=ORIENTED_EDGE('',*,*,#144,.T.);
#125=ORIENTED_EDGE('',*,*,#163,.F.);
#126=ORIENTED_EDGE('',*,*,#154,.T.);
#127=ORIENTED_EDGE('',*,*,#162,.T.);
#128=EDGE_CURVE('',#164,#165,#188,.T.);
#129=EDGE_CURVE('',#165,#166,#24,.T.);
#130=EDGE_CURVE('',#166,#167,#189,.F.);
#131=EDGE_CURVE('',#167,#164,#25,.F.);
#132=EDGE_CURVE('',#165,#168,#190,.T.);
#133=EDGE_CURVE('',#168,#169,#26,.T.);
#134=EDGE_CURVE('',#169,#166,#191,.F.);
#135=EDGE_CURVE('',#170,#171,#27,.F.);
#136=EDGE_CURVE('',#172,#170,#192,.F.);
#137=EDGE_CURVE('',#173,#172,#28,.T.);
#138=EDGE_CURVE('',#171,#173,#193,.F.);
#139=EDGE_CURVE('',#174,#175,#194,.F.);
#140=EDGE_CURVE('',#176,#174,#195,.T.);
#141=EDGE_CURVE('',#168,#176,#196,.T.);
#142=EDGE_CURVE('',#177,#164,#197,.T.);
#143=EDGE_CURVE('',#178,#177,#198,.T.);
#144=EDGE_CURVE('',#175,#178,#199,.T.);
#145=EDGE_CURVE('',#167,#179,#200,.F.);
#146=EDGE_CURVE('',#179,#177,#29,.F.);
#147=EDGE_CURVE('',#180,#181,#201,.F.);
#148=EDGE_CURVE('',#181,#182,#30,.F.);
#149=EDGE_CURVE('',#182,#183,#202,.F.);
#150=EDGE_CURVE('',#183,#180,#31,.T.);
#151=EDGE_CURVE('',#169,#184,#203,.T.);
#152=EDGE_CURVE('',#185,#184,#204,.F.);
#153=EDGE_CURVE('',#185,#186,#205,.F.);
#154=EDGE_CURVE('',#187,#186,#206,.F.);
#155=EDGE_CURVE('',#187,#179,#207,.T.);
#156=EDGE_CURVE('',#176,#184,#32,.T.);
#157=EDGE_CURVE('',#171,#182,#33,.T.);
#158=EDGE_CURVE('',#183,#173,#34,.F.);
#159=EDGE_CURVE('',#170,#181,#35,.T.);
#160=EDGE_CURVE('',#172,#180,#36,.T.);
#161=EDGE_CURVE('',#174,#185,#37,.T.);
#162=EDGE_CURVE('',#186,#175,#38,.F.);
#163=EDGE_CURVE('',#187,#178,#39,.F.);
#164=VERTEX_POINT('',#400);
#165=VERTEX_POINT('',#401);
#166=VERTEX_POINT('',#403);
#167=VERTEX_POINT('',#405);
#168=VERTEX_POINT('',#409);
#169=VERTEX_POINT('',#411);
#170=VERTEX_POINT('',#415);
#171=VERTEX_POINT('',#416);
#172=VERTEX_POINT('',#418);
#173=VERTEX_POINT('',#420);
#174=VERTEX_POINT('',#423);
#175=VERTEX_POINT('',#424);
#176=VERTEX_POINT('',#426);
#177=VERTEX_POINT('',#429);
#178=VERTEX_POINT('',#431);
#179=VERTEX_POINT('',#435);
#180=VERTEX_POINT('',#439);
#181=VERTEX_POINT('',#440);
#182=VERTEX_POINT('',#442);
#183=VERTEX_POINT('',#444);
#184=VERTEX_POINT('',#447);
#185=VERTEX_POINT('',#449);
#186=VERTEX_POINT('',#451);
#187=VERTEX_POINT('',#453);
#188=CIRCLE('',#278,0.044777226354476);
#189=CIRCLE('',#279,0.044777226354476);
#190=CIRCLE('',#281,0.00100000000000002);
#191=CIRCLE('',#282,0.00100000000000002);
#192=CIRCLE('',#284,0.00282558590103358);
#193=CIRCLE('',#285,0.00282558590103358);
#194=CIRCLE('',#286,0.0305);
#195=CIRCLE('',#287,0.001);
#196=CIRCLE('',#288,0.0185);
#197=CIRCLE('',#289,0.001);
#198=CIRCLE('',#290,0.0185);
#199=CIRCLE('',#291,0.001);
#200=CIRCLE('',#293,0.001);
#201=CIRCLE('',#295,0.00282558590103358);
#202=CIRCLE('',#296,0.00282558590103358);
#203=CIRCLE('',#297,0.0185);
#204=CIRCLE('',#298,0.001);
#205=CIRCLE('',#299,0.0305);
#206=CIRCLE('',#300,0.001);
#207=CIRCLE('',#301,0.0185);
#208=EDGE_LOOP('',(#56,#57,#58,#59));
#209=EDGE_LOOP('',(#60,#61,#62,#63));
#210=EDGE_LOOP('',(#64,#65,#66,#67));
#211=EDGE_LOOP('',(#68,#69,#70,#71,#72,#73,#74,#75));
#212=EDGE_LOOP('',(#76,#77,#78,#79));
#213=EDGE_LOOP('',(#80,#81,#82,#83));
#214=EDGE_LOOP('',(#84,#85,#86,#87,#88,#89,#90,#91));
#215=EDGE_LOOP('',(#92,#93,#94,#95));
#216=EDGE_LOOP('',(#96,#97,#98,#99));
#217=EDGE_LOOP('',(#100,#101,#102,#103));
#218=EDGE_LOOP('',(#104,#105,#106,#107));
#219=EDGE_LOOP('',(#108,#109,#110,#111));
#220=EDGE_LOOP('',(#112,#113,#114,#115));
#221=EDGE_LOOP('',(#116,#117,#118,#119));
#222=EDGE_LOOP('',(#120,#121,#122,#123));
#223=EDGE_LOOP('',(#124,#125,#126,#127));
#224=FACE_BOUND('',#208,.T.);
#225=FACE_BOUND('',#209,.T.);
#226=FACE_BOUND('',#210,.T.);
#227=FACE_BOUND('',#211,.T.);
#228=FACE_BOUND('',#212,.T.);
#229=FACE_BOUND('',#213,.T.);
#230=FACE_BOUND('',#214,.T.);
#231=FACE_BOUND('',#215,.T.);
#232=FACE_BOUND('',#216,.T.);
#233=FACE_BOUND('',#217,.T.);
#234=FACE_BOUND('',#218,.T.);
#235=FACE_BOUND('',#219,.T.);
#236=FACE_BOUND('',#220,.T.);
#237=FACE_BOUND('',#221,.T.);
#238=FACE_BOUND('',#222,.T.);
#239=FACE_BOUND('',#223,.T.);
#240=CYLINDRICAL_SURFACE('',#277,0.044777226354476);
#241=CYLINDRICAL_SURFACE('',#280,0.00100000000000002);
#242=CYLINDRICAL_SURFACE('',#292,0.001);
#243=CYLINDRICAL_SURFACE('',#302,0.0185);
#244=CYLINDRICAL_SURFACE('',#303,0.00282558590103358);
#245=CYLINDRICAL_SURFACE('',#305,0.00282558590103358);
#246=CYLINDRICAL_SURFACE('',#307,0.0305);
#247=CYLINDRICAL_SURFACE('',#308,0.0185);
#248=CYLINDRICAL_SURFACE('',#309,0.001);
#249=CYLINDRICAL_SURFACE('',#310,0.001);
#250=ADVANCED_FACE('',(#224),#240,.T.);
#251=ADVANCED_FACE('',(#225),#241,.T.);
#252=ADVANCED_FACE('',(#226,#227),#20,.F.);
#253=ADVANCED_FACE('',(#228),#242,.T.);
#254=ADVANCED_FACE('',(#229,#230),#21,.T.);
#255=ADVANCED_FACE('',(#231),#243,.T.);
#256=ADVANCED_FACE('',(#232),#244,.F.);
#257=ADVANCED_FACE('',(#233),#22,.F.);
#258=ADVANCED_FACE('',(#234),#245,.F.);
#259=ADVANCED_FACE('',(#235),#23,.F.);
#260=ADVANCED_FACE('',(#236),#246,.F.);
#261=ADVANCED_FACE('',(#237),#247,.T.);
#262=ADVANCED_FACE('',(#238),#248,.T.);
#263=ADVANCED_FACE('',(#239),#249,.T.);
#264=CLOSED_SHELL('',(#250,#251,#252,#253,#254,#255,#256,#257,#258,#259,
#260,#261,#262,#263));
#265=STYLED_ITEM('',(#266),#273);
#266=PRESENTATION_STYLE_ASSIGNMENT((#267));
#267=SURFACE_STYLE_USAGE(.BOTH.,#268);
#268=SURFACE_SIDE_STYLE('',(#269));
#269=SURFACE_STYLE_FILL_AREA(#270);
#270=FILL_AREA_STYLE('',(#271));
#271=FILL_AREA_STYLE_COLOUR('',#272);
#272=COLOUR_RGB('',0.745098039215686,0.745098039215686,0.745098039215686);
#273=MANIFOLD_SOLID_BREP('KP0029-01_ArmBodyBackIntersection',#264);
#274=SHAPE_DEFINITION_REPRESENTATION(#478,#275);
#275=SHAPE_REPRESENTATION('KP0029-01_ArmBodyBackIntersection',(#276),#473);
#276=AXIS2_PLACEMENT_3D('',#397,#311,#312);
#277=AXIS2_PLACEMENT_3D('',#398,#313,#314);
#278=AXIS2_PLACEMENT_3D('',#399,#315,#316);
#279=AXIS2_PLACEMENT_3D('',#404,#318,#319);
#280=AXIS2_PLACEMENT_3D('',#407,#321,#322);
#281=AXIS2_PLACEMENT_3D('',#408,#323,#324);
#282=AXIS2_PLACEMENT_3D('',#412,#326,#327);
#283=AXIS2_PLACEMENT_3D('',#413,#328,#329);
#284=AXIS2_PLACEMENT_3D('',#417,#331,#332);
#285=AXIS2_PLACEMENT_3D('',#421,#334,#335);
#286=AXIS2_PLACEMENT_3D('',#422,#336,#337);
#287=AXIS2_PLACEMENT_3D('',#425,#338,#339);
#288=AXIS2_PLACEMENT_3D('',#427,#340,#341);
#289=AXIS2_PLACEMENT_3D('',#428,#342,#343);
#290=AXIS2_PLACEMENT_3D('',#430,#344,#345);
#291=AXIS2_PLACEMENT_3D('',#432,#346,#347);
#292=AXIS2_PLACEMENT_3D('',#433,#348,#349);
#293=AXIS2_PLACEMENT_3D('',#434,#350,#351);
#294=AXIS2_PLACEMENT_3D('',#437,#353,#354);
#295=AXIS2_PLACEMENT_3D('',#438,#355,#356);
#296=AXIS2_PLACEMENT_3D('',#443,#358,#359);
#297=AXIS2_PLACEMENT_3D('',#446,#361,#362);
#298=AXIS2_PLACEMENT_3D('',#448,#363,#364);
#299=AXIS2_PLACEMENT_3D('',#450,#365,#366);
#300=AXIS2_PLACEMENT_3D('',#452,#367,#368);
#301=AXIS2_PLACEMENT_3D('',#454,#369,#370);
#302=AXIS2_PLACEMENT_3D('',#455,#371,#372);
#303=AXIS2_PLACEMENT_3D('',#457,#374,#375);
#304=AXIS2_PLACEMENT_3D('',#460,#378,#379);
#305=AXIS2_PLACEMENT_3D('',#462,#381,#382);
#306=AXIS2_PLACEMENT_3D('',#464,#384,#385);
#307=AXIS2_PLACEMENT_3D('',#465,#386,#387);
#308=AXIS2_PLACEMENT_3D('',#468,#390,#391);
#309=AXIS2_PLACEMENT_3D('',#470,#393,#394);
#310=AXIS2_PLACEMENT_3D('',#471,#395,#396);
#311=DIRECTION('',(0.,0.,1.));
#312=DIRECTION('',(1.,0.,0.));
#313=DIRECTION('',(0.,-1.,0.));
#314=DIRECTION('',(1.,0.,0.));
#315=DIRECTION('',(0.,-1.,0.));
#316=DIRECTION('',(1.,0.,0.));
#317=DIRECTION('',(0.,-1.,0.));
#318=DIRECTION('',(0.,-1.,0.));
#319=DIRECTION('',(1.,0.,0.));
#320=DIRECTION('',(0.,-1.,0.));
#321=DIRECTION('',(0.,-1.,0.));
#322=DIRECTION('',(1.,0.,0.));
#323=DIRECTION('',(0.,-1.,0.));
#324=DIRECTION('',(1.,0.,0.));
#325=DIRECTION('',(0.,-1.,0.));
#326=DIRECTION('',(0.,-1.,0.));
#327=DIRECTION('',(1.,0.,0.));
#328=DIRECTION('',(0.,-1.,0.));
#329=DIRECTION('',(1.,0.,0.));
#330=DIRECTION('',(0.,0.,1.));
#331=DIRECTION('',(0.,-1.,0.));
#332=DIRECTION('',(1.,0.,0.));
#333=DIRECTION('',(0.,0.,1.));
#334=DIRECTION('',(0.,-1.,0.));
#335=DIRECTION('',(1.,0.,0.));
#336=DIRECTION('',(0.,-1.,0.));
#337=DIRECTION('',(1.,0.,0.));
#338=DIRECTION('',(0.,-1.,0.));
#339=DIRECTION('',(1.,0.,0.));
#340=DIRECTION('',(0.,-1.,0.));
#341=DIRECTION('',(1.,0.,0.));
#342=DIRECTION('',(0.,-1.,0.));
#343=DIRECTION('',(1.,0.,0.));
#344=DIRECTION('',(0.,-1.,0.));
#345=DIRECTION('',(1.,0.,0.));
#346=DIRECTION('',(0.,-1.,0.));
#347=DIRECTION('',(1.,0.,0.));
#348=DIRECTION('',(0.,-1.,0.));
#349=DIRECTION('',(1.,0.,0.));
#350=DIRECTION('',(0.,-1.,0.));
#351=DIRECTION('',(1.,0.,0.));
#352=DIRECTION('',(0.,-1.,0.));
#353=DIRECTION('',(0.,-1.,0.));
#354=DIRECTION('',(1.,0.,0.));
#355=DIRECTION('',(0.,-1.,0.));
#356=DIRECTION('',(1.,0.,0.));
#357=DIRECTION('',(0.,0.,1.));
#358=DIRECTION('',(0.,-1.,0.));
#359=DIRECTION('',(1.,0.,0.));
#360=DIRECTION('',(0.,0.,1.));
#361=DIRECTION('',(0.,-1.,0.));
#362=DIRECTION('',(1.,0.,0.));
#363=DIRECTION('',(0.,-1.,0.));
#364=DIRECTION('',(1.,0.,0.));
#365=DIRECTION('',(0.,-1.,0.));
#366=DIRECTION('',(1.,0.,0.));
#367=DIRECTION('',(0.,-1.,0.));
#368=DIRECTION('',(1.,0.,0.));
#369=DIRECTION('',(0.,-1.,0.));
#370=DIRECTION('',(1.,0.,0.));
#371=DIRECTION('',(0.,-1.,0.));
#372=DIRECTION('',(1.,0.,0.));
#373=DIRECTION('',(0.,-1.,0.));
#374=DIRECTION('',(0.,-1.,0.));
#375=DIRECTION('',(1.,0.,0.));
#376=DIRECTION('',(0.,-1.,0.));
#377=DIRECTION('',(0.,-1.,0.));
#378=DIRECTION('',(1.,0.,-8.60172418507718E-16));
#379=DIRECTION('',(8.60172418507718E-16,0.,1.));
#380=DIRECTION('',(0.,-1.,0.));
#381=DIRECTION('',(0.,-1.,0.));
#382=DIRECTION('',(1.,0.,0.));
#383=DIRECTION('',(0.,-1.,0.));
#384=DIRECTION('',(-1.,0.,8.60172418507718E-16));
#385=DIRECTION('',(-8.60172418507718E-16,0.,-1.));
#386=DIRECTION('',(0.,-1.,0.));
#387=DIRECTION('',(1.,0.,0.));
#388=DIRECTION('',(0.,-1.,0.));
#389=DIRECTION('',(0.,-1.,0.));
#390=DIRECTION('',(0.,-1.,0.));
#391=DIRECTION('',(1.,0.,0.));
#392=DIRECTION('',(0.,-1.,0.));
#393=DIRECTION('',(0.,-1.,0.));
#394=DIRECTION('',(1.,0.,0.));
#395=DIRECTION('',(0.,-1.,0.));
#396=DIRECTION('',(1.,0.,0.));
#397=CARTESIAN_POINT('',(0.,0.,0.));
#398=CARTESIAN_POINT('',(0.053,0.,0.018));
#399=CARTESIAN_POINT('',(0.053,0.,0.018));
#400=CARTESIAN_POINT('',(0.0940605284565465,0.,0.000138505021440174));
#401=CARTESIAN_POINT('',(0.0940605284565465,0.,0.0358614949785598));
#402=CARTESIAN_POINT('',(0.0940605284565465,0.,0.0358614949785598));
#403=CARTESIAN_POINT('',(0.0940605284565465,-0.026604,0.0358614949785598));
#404=CARTESIAN_POINT('',(0.053,-0.026604,0.018));
#405=CARTESIAN_POINT('',(0.0940605284565465,-0.026604,0.000138505021440174));
#406=CARTESIAN_POINT('',(0.0940605284565465,0.,0.00013850502144019));
#407=CARTESIAN_POINT('',(0.0931435326575773,0.,0.0354625981188669));
#408=CARTESIAN_POINT('',(0.0931435326575773,0.,0.0354625981188669));
#409=CARTESIAN_POINT('',(0.0932088773808675,0.,0.0364604608685164));
#410=CARTESIAN_POINT('',(0.0932088773808675,0.,0.0364604608685164));
#411=CARTESIAN_POINT('',(0.0932088773808675,-0.026604,0.0364604608685164));
#412=CARTESIAN_POINT('',(0.0931435326575773,-0.026604,0.0354625981188669));
#413=CARTESIAN_POINT('',(0.0890680328515966,0.,0.018));
#414=CARTESIAN_POINT('',(0.094825585901019,0.,0.018));
#415=CARTESIAN_POINT('',(0.094825585901019,0.,0.0283255859010481));
#416=CARTESIAN_POINT('',(0.094825585901019,0.,0.00767441409898092));
#417=CARTESIAN_POINT('',(0.0919999999999855,0.,0.0283255859010481));
#418=CARTESIAN_POINT('',(0.0891744140989519,0.,0.0283255859010481));
#419=CARTESIAN_POINT('',(0.0891744140989519,0.,0.018));
#420=CARTESIAN_POINT('',(0.0891744140989519,0.,0.00767441409898092));
#421=CARTESIAN_POINT('',(0.0919999999999854,0.,0.00767441409898092));
#422=CARTESIAN_POINT('',(0.053,0.,0.018));
#423=CARTESIAN_POINT('',(0.0803966218966219,0.,0.0314042944108796));
#424=CARTESIAN_POINT('',(0.0803966218966219,0.,0.0045957055891204));
#425=CARTESIAN_POINT('',(0.0812948717948718,0.,0.0318437794735314));
#426=CARTESIAN_POINT('',(0.0806831501831502,0.,0.0326348525863046));
#427=CARTESIAN_POINT('',(0.092,0.,0.018));
#428=CARTESIAN_POINT('',(0.0931435326575773,0.,0.000537401881133082));
#429=CARTESIAN_POINT('',(0.0932088773808675,0.,-0.000460460868516447));
#430=CARTESIAN_POINT('',(0.092,0.,0.018));
#431=CARTESIAN_POINT('',(0.0806831501831502,0.,0.00336514741369538));
#432=CARTESIAN_POINT('',(0.0812948717948718,0.,0.00415622052646861));
#433=CARTESIAN_POINT('',(0.0931435326575773,0.,0.000537401881133082));
#434=CARTESIAN_POINT('',(0.0931435326575773,-0.026604,0.000537401881133082));
#435=CARTESIAN_POINT('',(0.0932088773808675,-0.026604,-0.000460460868516447));
#436=CARTESIAN_POINT('',(0.0932088773808675,0.,-0.000460460868516445));
#437=CARTESIAN_POINT('',(0.0890680328515966,-0.026604,0.018));
#438=CARTESIAN_POINT('',(0.0919999999999855,-0.026604,0.0283255859010481));
#439=CARTESIAN_POINT('',(0.0891744140989519,-0.026604,0.0283255859010481));
#440=CARTESIAN_POINT('',(0.094825585901019,-0.026604,0.0283255859010481));
#441=CARTESIAN_POINT('',(0.094825585901019,-0.026604,0.018));
#442=CARTESIAN_POINT('',(0.094825585901019,-0.026604,0.00767441409898092));
#443=CARTESIAN_POINT('',(0.0919999999999854,-0.026604,0.00767441409898092));
#444=CARTESIAN_POINT('',(0.0891744140989519,-0.026604,0.00767441409898092));
#445=CARTESIAN_POINT('',(0.0891744140989519,-0.026604,0.018));
#446=CARTESIAN_POINT('',(0.092,-0.026604,0.018));
#447=CARTESIAN_POINT('',(0.0806831501831502,-0.026604,0.0326348525863046));
#448=CARTESIAN_POINT('',(0.0812948717948718,-0.026604,0.0318437794735314));
#449=CARTESIAN_POINT('',(0.0803966218966219,-0.026604,0.0314042944108796));
#450=CARTESIAN_POINT('',(0.053,-0.026604,0.018));
#451=CARTESIAN_POINT('',(0.0803966218966219,-0.026604,0.0045957055891204));
#452=CARTESIAN_POINT('',(0.0812948717948718,-0.026604,0.00415622052646861));
#453=CARTESIAN_POINT('',(0.0806831501831502,-0.026604,0.00336514741369538));
#454=CARTESIAN_POINT('',(0.092,-0.026604,0.018));
#455=CARTESIAN_POINT('',(0.092,0.,0.018));
#456=CARTESIAN_POINT('',(0.0806831501831502,0.,0.0326348525863046));
#457=CARTESIAN_POINT('',(0.0919999999999854,0.,0.00767441409898092));
#458=CARTESIAN_POINT('',(0.094825585901019,0.,0.00767441409898092));
#459=CARTESIAN_POINT('',(0.0891744140989518,0.,0.00767441409898092));
#460=CARTESIAN_POINT('',(0.094825585901019,0.,0.0283255859010481));
#461=CARTESIAN_POINT('',(0.094825585901019,0.,0.0283255859010481));
#462=CARTESIAN_POINT('',(0.0919999999999855,0.,0.0283255859010481));
#463=CARTESIAN_POINT('',(0.0891744140989519,0.,0.0283255859010481));
#464=CARTESIAN_POINT('',(0.0891744140989519,0.,0.00767441409898092));
#465=CARTESIAN_POINT('',(0.053,0.,0.018));
#466=CARTESIAN_POINT('',(0.0803966218966219,0.,0.0314042944108796));
#467=CARTESIAN_POINT('',(0.0803966218966219,0.,0.0045957055891204));
#468=CARTESIAN_POINT('',(0.092,0.,0.018));
#469=CARTESIAN_POINT('',(0.0806831501831502,0.,0.00336514741369538));
#470=CARTESIAN_POINT('',(0.0812948717948718,0.,0.0318437794735314));
#471=CARTESIAN_POINT('',(0.0812948717948718,0.,0.00415622052646861));
#472=MECHANICAL_DESIGN_GEOMETRIC_PRESENTATION_REPRESENTATION('',(#265),
#473);
#473=(
GEOMETRIC_REPRESENTATION_CONTEXT(3)
GLOBAL_UNCERTAINTY_ASSIGNED_CONTEXT((#474))
GLOBAL_UNIT_ASSIGNED_CONTEXT((#477,#476,#475))
REPRESENTATION_CONTEXT('KP0029-01_ArmBodyBackIntersection',
'TOP_LEVEL_ASSEMBLY_PART')
);
#474=UNCERTAINTY_MEASURE_WITH_UNIT(LENGTH_MEASURE(1.E-8),#477,
'DISTANCE_ACCURACY_VALUE','Maximum Tolerance applied to model');
#475=(
NAMED_UNIT(*)
SI_UNIT($,.STERADIAN.)
SOLID_ANGLE_UNIT()
);
#476=(
NAMED_UNIT(*)
PLANE_ANGLE_UNIT()
SI_UNIT($,.RADIAN.)
);
#477=(
LENGTH_UNIT()
NAMED_UNIT(*)
SI_UNIT($,.METRE.)
);
#478=PRODUCT_DEFINITION_SHAPE('','',#479);
#479=PRODUCT_DEFINITION('','',#481,#480);
#480=PRODUCT_DEFINITION_CONTEXT('',#487,'design');
#481=PRODUCT_DEFINITION_FORMATION_WITH_SPECIFIED_SOURCE('','',#483,
 .NOT_KNOWN.);
#482=PRODUCT_RELATED_PRODUCT_CATEGORY('','',(#483));
#483=PRODUCT('KP0029-01_ArmBodyBackIntersection',
'KP0029-01_ArmBodyBackIntersection','KP0029-01_ArmBodyBackIntersection',
(#485));
#484=PRODUCT_CATEGORY('','');
#485=PRODUCT_CONTEXT('',#487,'mechanical');
#486=APPLICATION_PROTOCOL_DEFINITION('international standard',
'automotive_design',2010,#487);
#487=APPLICATION_CONTEXT(
'core data for automotive mechanical design processes');
ENDSEC;
END-ISO-10303-21;
