ISO-10303-21;
HEADER;
/* Generated by software containing ST-Developer
 * from STEP Tools, Inc. (www.steptools.com) 
 */
/* OPTION: using custom renumber hook */

FILE_DESCRIPTION(
/* description */ ('STEP AP214',
'CAx-IF Rec.Pracs.---User Defined Attributes---1.5---2016-08-15'),
/* implementation_level */ '2;1');

FILE_NAME(
/* name */ '6a65b52765321e5002a56785',
/* time_stamp */ '2026-07-26T07:20:07Z',
/* author */ (''),
/* organization */ (''),
/* preprocessor_version */ 'ST-DEVELOPER v20',
/* originating_system */ 'ONSHAPE BY PTC INC, 1.218',
/* authorisation */ '  ');

FILE_SCHEMA (('AUTOMOTIVE_DESIGN {1 0 10303 214 3 1 1}'));
ENDSEC;

DATA;
#10=PROPERTY_DEFINITION_REPRESENTATION(#14,#12);
#11=PROPERTY_DEFINITION_REPRESENTATION(#15,#13);
#12=REPRESENTATION('',(#16),#208);
#13=REPRESENTATION('',(#17),#208);
#14=PROPERTY_DEFINITION('pmi validation property','',#213);
#15=PROPERTY_DEFINITION('pmi validation property','',#213);
#16=VALUE_REPRESENTATION_ITEM('number of annotations',COUNT_MEASURE(0.));
#17=VALUE_REPRESENTATION_ITEM('number of views',COUNT_MEASURE(0.));
#18=SHAPE_REPRESENTATION_RELATIONSHIP('','',#108,#19);
#19=ADVANCED_BREP_SHAPE_REPRESENTATION('',(#106),#208);
#20=TOROIDAL_SURFACE('',#118,0.00495,0.0007);
#21=TOROIDAL_SURFACE('',#120,0.0047,0.0007);
#22=B_SPLINE_CURVE_WITH_KNOTS('',3,(#161,#162,#163,#164,#165,#166,#167,
#168,#169,#170,#171,#172,#173,#174,#175,#176,#177,#178,#179,#180,#181,#182,
#183,#184,#185,#186,#187,#188,#189,#190,#191,#192,#193,#194,#195),
 .UNSPECIFIED.,.T.,.F.,(1,1,1,1,1,1,1,1,1,1,1,1,1,1,1,1,1,1,1,1,1,1,1,1,
1,1,1,1,1,1,1,1,1,1,1,1,1,1,1),(-0.0953949419202336,-0.0641447470960117,
-0.0328947373548006,0.,0.0296875,0.059375,0.09203125,0.1233515625,0.154605078125,
0.18585525390625,0.216324008300781,0.246792762695313,0.278003700415039,
0.309214638134766,0.342023231906738,0.373351161595337,0.404605058079767,
0.435855252903988,0.466324007774594,0.496792762645199,0.52800370038873,
0.55921463813226,0.592023231906613,0.623351161595331,0.654605058079767,
0.685855252903988,0.716324007774594,0.746792762645199,0.77800370038873,
0.80921463813226,0.842023231906613,0.873351161595331,0.904605058079766,
0.935855252903988,0.967105262645199,1.,1.0296875,1.059375,1.09203125),
 .UNSPECIFIED.);
#23=PLANE('',#113);
#24=PLANE('',#115);
#25=ORIENTED_EDGE('',*,*,#39,.T.);
#26=ORIENTED_EDGE('',*,*,#40,.T.);
#27=ORIENTED_EDGE('',*,*,#41,.T.);
#28=ORIENTED_EDGE('',*,*,#39,.F.);
#29=ORIENTED_EDGE('',*,*,#42,.F.);
#30=ORIENTED_EDGE('',*,*,#40,.F.);
#31=ORIENTED_EDGE('',*,*,#43,.F.);
#32=ORIENTED_EDGE('',*,*,#41,.F.);
#33=ORIENTED_EDGE('',*,*,#42,.T.);
#34=ORIENTED_EDGE('',*,*,#44,.T.);
#35=ORIENTED_EDGE('',*,*,#43,.T.);
#36=ORIENTED_EDGE('',*,*,#45,.T.);
#37=ORIENTED_EDGE('',*,*,#44,.F.);
#38=ORIENTED_EDGE('',*,*,#45,.F.);
#39=EDGE_CURVE('',#46,#46,#53,.T.);
#40=EDGE_CURVE('',#47,#47,#54,.F.);
#41=EDGE_CURVE('',#48,#48,#55,.T.);
#42=EDGE_CURVE('',#49,#49,#22,.T.);
#43=EDGE_CURVE('',#50,#50,#56,.F.);
#44=EDGE_CURVE('',#51,#51,#57,.T.);
#45=EDGE_CURVE('',#52,#52,#58,.T.);
#46=VERTEX_POINT('',#154);
#47=VERTEX_POINT('',#156);
#48=VERTEX_POINT('',#159);
#49=VERTEX_POINT('',#196);
#50=VERTEX_POINT('',#199);
#51=VERTEX_POINT('',#202);
#52=VERTEX_POINT('',#205);
#53=CIRCLE('',#111,0.0075);
#54=CIRCLE('',#112,0.0075);
#55=CIRCLE('',#114,0.004);
#56=CIRCLE('',#117,0.004);
#57=CIRCLE('',#119,0.00425);
#58=CIRCLE('',#121,0.00425);
#59=EDGE_LOOP('',(#25));
#60=EDGE_LOOP('',(#26));
#61=EDGE_LOOP('',(#27));
#62=EDGE_LOOP('',(#28));
#63=EDGE_LOOP('',(#29));
#64=EDGE_LOOP('',(#30));
#65=EDGE_LOOP('',(#31));
#66=EDGE_LOOP('',(#32));
#67=EDGE_LOOP('',(#33));
#68=EDGE_LOOP('',(#34));
#69=EDGE_LOOP('',(#35));
#70=EDGE_LOOP('',(#36));
#71=EDGE_LOOP('',(#37));
#72=EDGE_LOOP('',(#38));
#73=FACE_BOUND('',#59,.T.);
#74=FACE_BOUND('',#60,.T.);
#75=FACE_BOUND('',#61,.T.);
#76=FACE_BOUND('',#62,.T.);
#77=FACE_BOUND('',#63,.T.);
#78=FACE_BOUND('',#64,.T.);
#79=FACE_BOUND('',#65,.T.);
#80=FACE_BOUND('',#66,.T.);
#81=FACE_BOUND('',#67,.T.);
#82=FACE_BOUND('',#68,.T.);
#83=FACE_BOUND('',#69,.T.);
#84=FACE_BOUND('',#70,.T.);
#85=FACE_BOUND('',#71,.T.);
#86=FACE_BOUND('',#72,.T.);
#87=CYLINDRICAL_SURFACE('',#110,0.0075);
#88=CYLINDRICAL_SURFACE('',#116,0.004);
#89=CYLINDRICAL_SURFACE('',#122,0.00425);
#90=ADVANCED_FACE('',(#73,#74),#87,.T.);
#91=ADVANCED_FACE('',(#75,#76),#23,.T.);
#92=ADVANCED_FACE('',(#77,#78),#24,.F.);
#93=ADVANCED_FACE('',(#79,#80),#88,.F.);
#94=ADVANCED_FACE('',(#81,#82),#20,.T.);
#95=ADVANCED_FACE('',(#83,#84),#21,.T.);
#96=ADVANCED_FACE('',(#85,#86),#89,.F.);
#97=CLOSED_SHELL('',(#90,#91,#92,#93,#94,#95,#96));
#98=STYLED_ITEM('',(#99),#106);
#99=PRESENTATION_STYLE_ASSIGNMENT((#100));
#100=SURFACE_STYLE_USAGE(.BOTH.,#101);
#101=SURFACE_SIDE_STYLE('',(#102));
#102=SURFACE_STYLE_FILL_AREA(#103);
#103=FILL_AREA_STYLE('',(#104));
#104=FILL_AREA_STYLE_COLOUR('',#105);
#105=COLOUR_RGB('',0.745098039215686,0.745098039215686,0.745098039215686);
#106=MANIFOLD_SOLID_BREP('KP0094-01_diffKeeper',#97);
#107=SHAPE_DEFINITION_REPRESENTATION(#213,#108);
#108=SHAPE_REPRESENTATION('KP0094-01_diffKeeper',(#109),#208);
#109=AXIS2_PLACEMENT_3D('',#151,#123,#124);
#110=AXIS2_PLACEMENT_3D('',#152,#125,#126);
#111=AXIS2_PLACEMENT_3D('',#153,#127,#128);
#112=AXIS2_PLACEMENT_3D('',#155,#129,#130);
#113=AXIS2_PLACEMENT_3D('',#157,#131,#132);
#114=AXIS2_PLACEMENT_3D('',#158,#133,#134);
#115=AXIS2_PLACEMENT_3D('',#160,#135,#136);
#116=AXIS2_PLACEMENT_3D('',#197,#137,#138);
#117=AXIS2_PLACEMENT_3D('',#198,#139,#140);
#118=AXIS2_PLACEMENT_3D('',#200,#141,#142);
#119=AXIS2_PLACEMENT_3D('',#201,#143,#144);
#120=AXIS2_PLACEMENT_3D('',#203,#145,#146);
#121=AXIS2_PLACEMENT_3D('',#204,#147,#148);
#122=AXIS2_PLACEMENT_3D('',#206,#149,#150);
#123=DIRECTION('',(0.,0.,1.));
#124=DIRECTION('',(1.,0.,0.));
#125=DIRECTION('',(0.,-1.,0.));
#126=DIRECTION('',(1.,0.,0.));
#127=DIRECTION('',(0.,-1.,0.));
#128=DIRECTION('',(1.,0.,0.));
#129=DIRECTION('',(0.,-1.,0.));
#130=DIRECTION('',(1.,0.,0.));
#131=DIRECTION('',(0.,1.,0.));
#132=DIRECTION('',(-1.,0.,0.));
#133=DIRECTION('',(0.,-1.,0.));
#134=DIRECTION('',(1.,0.,0.));
#135=DIRECTION('',(0.,1.,0.));
#136=DIRECTION('',(-1.,0.,0.));
#137=DIRECTION('',(0.,-1.,0.));
#138=DIRECTION('',(1.,0.,0.));
#139=DIRECTION('',(0.,-1.,0.));
#140=DIRECTION('',(1.,0.,0.));
#141=DIRECTION('',(0.,1.,0.));
#142=DIRECTION('',(-1.,0.,0.));
#143=DIRECTION('',(0.,1.,0.));
#144=DIRECTION('',(-1.,0.,0.));
#145=DIRECTION('',(0.,-1.,0.));
#146=DIRECTION('',(1.,0.,0.));
#147=DIRECTION('',(0.,-1.,0.));
#148=DIRECTION('',(1.,0.,0.));
#149=DIRECTION('',(0.,1.,0.));
#150=DIRECTION('',(-1.,0.,0.));
#151=CARTESIAN_POINT('',(0.,0.,0.));
#152=CARTESIAN_POINT('',(0.,0.,0.));
#153=CARTESIAN_POINT('',(0.,0.,0.));
#154=CARTESIAN_POINT('',(0.0075,0.,0.));
#155=CARTESIAN_POINT('',(0.,-0.004,0.));
#156=CARTESIAN_POINT('',(0.0075,-0.004,0.));
#157=CARTESIAN_POINT('',(0.,0.,0.));
#158=CARTESIAN_POINT('',(0.,0.,0.));
#159=CARTESIAN_POINT('',(0.004,0.,0.));
#160=CARTESIAN_POINT('',(0.,-0.004,0.));
#161=CARTESIAN_POINT('',(0.00489315014244883,-0.004,-0.000924948272318291));
#162=CARTESIAN_POINT('',(0.00497791929514662,-0.004,-4.30789192624363E-5));
#163=CARTESIAN_POINT('',(0.00489682288418948,-0.004,0.000893139296085735));
#164=CARTESIAN_POINT('',(0.00465945811694741,-0.004,0.00175713568706685));
#165=CARTESIAN_POINT('',(0.00421396880410185,-0.004,0.00266842250415629));
#166=CARTESIAN_POINT('',(0.00356377776445381,-0.004,0.00348568781506129));
#167=CARTESIAN_POINT('',(0.00277297707733762,-0.004,0.00414396611800083));
#168=CARTESIAN_POINT('',(0.00187490946205244,-0.004,0.00461391523008369));
#169=CARTESIAN_POINT('',(0.00100621529595813,-0.004,0.00487522036204841));
#170=CARTESIAN_POINT('',(9.11797073687146E-5,-0.004,0.00497810930803216));
#171=CARTESIAN_POINT('',(-0.000842152590636326,-0.004,0.00490775001905611));
#172=CARTESIAN_POINT('',(-0.00174027573317331,-0.004,0.00466796960214554));
#173=CARTESIAN_POINT('',(-0.00266664516261125,-0.004,0.00421514123173422));
#174=CARTESIAN_POINT('',(-0.00348571246812827,-0.004,0.00356384141251631));
#175=CARTESIAN_POINT('',(-0.00414394137739877,-0.004,0.00277298308119554));
#176=CARTESIAN_POINT('',(-0.00461392104845598,-0.004,0.00187490916564755));
#177=CARTESIAN_POINT('',(-0.00487521880193446,-0.004,0.00100621544378748));
#178=CARTESIAN_POINT('',(-0.00497810973710242,-0.004,9.11796769607469E-5));
#179=CARTESIAN_POINT('',(-0.00490774990330409,-0.004,-0.000842152579633035));
#180=CARTESIAN_POINT('',(-0.00466796963541882,-0.004,-0.00174027573728711));
#181=CARTESIAN_POINT('',(-0.004215141222139,-0.004,-0.00266664515566661));
#182=CARTESIAN_POINT('',(-0.00356384141854505,-0.004,-0.00348571249022341));
#183=CARTESIAN_POINT('',(-0.00277298306647131,-0.004,-0.00414394129569774));
#184=CARTESIAN_POINT('',(-0.00187490921796233,-0.004,-0.00461392134998681));
#185=CARTESIAN_POINT('',(-0.00100621525449387,-0.004,-0.00487521770791311));
#186=CARTESIAN_POINT('',(-9.1180391144555E-5,-0.004,-0.00497811386554942));
#187=CARTESIAN_POINT('',(0.000842155317512025,-0.004,-0.00490773407635164));
#188=CARTESIAN_POINT('',(0.00174026530661053,-0.004,-0.00466802993245249));
#189=CARTESIAN_POINT('',(0.00266668551715063,-0.004,-0.00421490790285953));
#190=CARTESIAN_POINT('',(0.00348556977907409,-0.004,-0.00356466639472111));
#191=CARTESIAN_POINT('',(0.00414447322695657,-0.004,-0.00276990810969699));
#192=CARTESIAN_POINT('',(0.00461588532633042,-0.004,-0.00187883909115212));
#193=CARTESIAN_POINT('',(0.00489315014244883,-0.004,-0.000924948272318291));
#194=CARTESIAN_POINT('',(0.00497791929514662,-0.004,-4.30789192624363E-5));
#195=CARTESIAN_POINT('',(0.00489682288418948,-0.004,0.000893139296085735));
#196=CARTESIAN_POINT('',(0.00495,-0.004,6.0620016557794E-19));
#197=CARTESIAN_POINT('',(0.,0.,0.));
#198=CARTESIAN_POINT('',(0.,-0.00246380973526182,0.));
#199=CARTESIAN_POINT('',(-0.004,-0.00246380973526182,4.89858719658941E-19));
#200=CARTESIAN_POINT('',(0.,-0.0033,0.));
#201=CARTESIAN_POINT('',(0.,-0.0033,0.));
#202=CARTESIAN_POINT('',(0.00425,-0.0033,5.20474889637625E-19));
#203=CARTESIAN_POINT('',(0.,-0.00246380973526182,0.));
#204=CARTESIAN_POINT('',(0.,-0.003,0.));
#205=CARTESIAN_POINT('',(0.00425,-0.003,0.));
#206=CARTESIAN_POINT('',(0.,-0.004,0.));
#207=MECHANICAL_DESIGN_GEOMETRIC_PRESENTATION_REPRESENTATION('',(#98),#208);
#208=(
GEOMETRIC_REPRESENTATION_CONTEXT(3)
GLOBAL_UNCERTAINTY_ASSIGNED_CONTEXT((#209))
GLOBAL_UNIT_ASSIGNED_CONTEXT((#212,#211,#210))
REPRESENTATION_CONTEXT('KP0094-01_diffKeeper','TOP_LEVEL_ASSEMBLY_PART')
);
#209=UNCERTAINTY_MEASURE_WITH_UNIT(LENGTH_MEASURE(2.E-5),#212,
'DISTANCE_ACCURACY_VALUE','Maximum Tolerance applied to model');
#210=(
NAMED_UNIT(*)
SI_UNIT($,.STERADIAN.)
SOLID_ANGLE_UNIT()
);
#211=(
NAMED_UNIT(*)
PLANE_ANGLE_UNIT()
SI_UNIT($,.RADIAN.)
);
#212=(
LENGTH_UNIT()
NAMED_UNIT(*)
SI_UNIT($,.METRE.)
);
#213=PRODUCT_DEFINITION_SHAPE('','',#214);
#214=PRODUCT_DEFINITION('','',#216,#215);
#215=PRODUCT_DEFINITION_CONTEXT('',#222,'design');
#216=PRODUCT_DEFINITION_FORMATION_WITH_SPECIFIED_SOURCE('','',#218,
 .NOT_KNOWN.);
#217=PRODUCT_RELATED_PRODUCT_CATEGORY('','',(#218));
#218=PRODUCT('KP0094-01_diffKeeper','KP0094-01_diffKeeper',
'KP0094-01_diffKeeper',(#220));
#219=PRODUCT_CATEGORY('','');
#220=PRODUCT_CONTEXT('',#222,'mechanical');
#221=APPLICATION_PROTOCOL_DEFINITION('international standard',
'automotive_design',2010,#222);
#222=APPLICATION_CONTEXT(
'core data for automotive mechanical design processes');
ENDSEC;
END-ISO-10303-21;
