ISO-10303-21;
HEADER;
/* Generated by software containing ST-Developer
 * from STEP Tools, Inc. (www.steptools.com) 
 */
/* OPTION: using custom renumber hook */

FILE_DESCRIPTION(
/* description */ ('STEP AP214',
'CAx-IF Rec.Pracs.---User Defined Attributes---1.5---2016-08-15'),
/* implementation_level */ '2;1');

FILE_NAME(
/* name */ '6a65b56c1808e5cb69fbe6e6',
/* time_stamp */ '2026-07-26T07:21:17Z',
/* author */ (''),
/* organization */ (''),
/* preprocessor_version */ 'ST-DEVELOPER v20',
/* originating_system */ 'ONSHAPE BY PTC INC, 1.218',
/* authorisation */ '  ');

FILE_SCHEMA (('AUTOMOTIVE_DESIGN {1 0 10303 214 3 1 1}'));
ENDSEC;

DATA;
#10=PROPERTY_DEFINITION_REPRESENTATION(#14,#12);
#11=PROPERTY_DEFINITION_REPRESENTATION(#15,#13);
#12=REPRESENTATION('',(#16),#797);
#13=REPRESENTATION('',(#17),#797);
#14=PROPERTY_DEFINITION('pmi validation property','',#802);
#15=PROPERTY_DEFINITION('pmi validation property','',#802);
#16=VALUE_REPRESENTATION_ITEM('number of annotations',COUNT_MEASURE(0.));
#17=VALUE_REPRESENTATION_ITEM('number of views',COUNT_MEASURE(0.));
#18=SHAPE_REPRESENTATION_RELATIONSHIP('','',#443,#19);
#19=ADVANCED_BREP_SHAPE_REPRESENTATION('',(#441),#797);
#20=CONICAL_SURFACE('',#474,0.00912132034356506,0.7853981634);
#21=TOROIDAL_SURFACE('',#472,0.0112426406871193,0.003);
#22=TOROIDAL_SURFACE('',#478,0.0065,0.0005);
#23=TOROIDAL_SURFACE('',#479,0.0112426406871193,0.003);
#24=TOROIDAL_SURFACE('',#482,0.0112426406871193,0.003);
#25=CYLINDRICAL_SURFACE('',#453,0.006);
#26=CYLINDRICAL_SURFACE('',#457,0.00338160792193377);
#27=CYLINDRICAL_SURFACE('',#460,0.00338160792193377);
#28=CYLINDRICAL_SURFACE('',#463,0.00413160792189466);
#29=CYLINDRICAL_SURFACE('',#466,0.00338160792193377);
#30=CYLINDRICAL_SURFACE('',#469,0.00338160792189465);
#31=B_SPLINE_CURVE_WITH_KNOTS('',3,(#621,#622,#623,#624),.UNSPECIFIED.,
 .F.,.F.,(4,4),(2.16840434497101E-19,0.00200587697895843),.UNSPECIFIED.);
#32=B_SPLINE_CURVE_WITH_KNOTS('',3,(#627,#628,#629,#630),.UNSPECIFIED.,
 .F.,.F.,(4,4),(7.13138048304642E-17,0.0034744387092885),.UNSPECIFIED.);
#33=B_SPLINE_CURVE_WITH_KNOTS('',3,(#632,#633,#634,#635,#636,#637),
 .UNSPECIFIED.,.F.,.F.,(4,1,1,4),(0.,0.000344071018551555,0.000688142037103109,
0.00137628407420622),.UNSPECIFIED.);
#34=B_SPLINE_CURVE_WITH_KNOTS('',3,(#646,#647,#648,#649,#650,#651),
 .UNSPECIFIED.,.F.,.F.,(4,1,1,4),(2.44405239165173E-17,0.000683087571733719,
0.00102463135760057,0.00136617514346741),.UNSPECIFIED.);
#35=B_SPLINE_CURVE_WITH_KNOTS('',3,(#653,#654,#655,#656),.UNSPECIFIED.,
 .F.,.F.,(4,4),(4.28058615863782E-16,0.00347443870928874),.UNSPECIFIED.);
#36=B_SPLINE_CURVE_WITH_KNOTS('',3,(#658,#659,#660,#661),.UNSPECIFIED.,
 .F.,.F.,(4,4),(0.,0.002006066430698),.UNSPECIFIED.);
#37=B_SPLINE_CURVE_WITH_KNOTS('',3,(#667,#668,#669,#670),.UNSPECIFIED.,
 .F.,.F.,(4,4),(0.,0.00100166767807477),.UNSPECIFIED.);
#38=B_SPLINE_CURVE_WITH_KNOTS('',3,(#672,#673,#674,#675),.UNSPECIFIED.,
 .F.,.F.,(4,4),(0.,0.00107227506698781),.UNSPECIFIED.);
#39=B_SPLINE_CURVE_WITH_KNOTS('',3,(#679,#680,#681,#682),.UNSPECIFIED.,
 .F.,.F.,(4,4),(0.,0.000139281406716578),.UNSPECIFIED.);
#40=B_SPLINE_CURVE_WITH_KNOTS('',3,(#690,#691,#692,#693),.UNSPECIFIED.,
 .F.,.F.,(4,4),(0.,0.00313481962707106),.UNSPECIFIED.);
#41=B_SPLINE_CURVE_WITH_KNOTS('',3,(#695,#696,#697,#698,#699,#700),
 .UNSPECIFIED.,.F.,.F.,(4,1,1,4),(4.49805008737277E-15,0.00183515703607929,
0.00367031407215409,0.00734062814430367),.UNSPECIFIED.);
#42=B_SPLINE_CURVE_WITH_KNOTS('',3,(#702,#703,#704,#705),.UNSPECIFIED.,
 .F.,.F.,(4,4),(0.,0.00399389310763243),.UNSPECIFIED.);
#43=B_SPLINE_CURVE_WITH_KNOTS('',3,(#727,#728,#729,#730),.UNSPECIFIED.,
 .F.,.F.,(4,4),(1.43208127633009E-16,0.00340042013481086),.UNSPECIFIED.);
#44=B_SPLINE_CURVE_WITH_KNOTS('',3,(#736,#737,#738,#739),.UNSPECIFIED.,
 .F.,.F.,(4,4),(0.,0.00413710958481831),.UNSPECIFIED.);
#45=B_SPLINE_CURVE_WITH_KNOTS('',3,(#741,#742,#743,#744,#745),
 .UNSPECIFIED.,.F.,.F.,(4,1,4),(5.14378217114587E-15,0.00338374300790762,
0.0067674860158101),.UNSPECIFIED.);
#46=B_SPLINE_CURVE_WITH_KNOTS('',3,(#747,#748,#749,#750),.UNSPECIFIED.,
 .F.,.F.,(4,4),(0.,2.28174113172494E-5),.UNSPECIFIED.);
#47=B_SPLINE_CURVE_WITH_KNOTS('',3,(#754,#755,#756,#757),.UNSPECIFIED.,
 .F.,.F.,(4,4),(0.,0.000885659717814663),.UNSPECIFIED.);
#48=B_SPLINE_CURVE_WITH_KNOTS('',3,(#761,#762,#763,#764),.UNSPECIFIED.,
 .F.,.F.,(4,4),(0.,0.00111262063562613),.UNSPECIFIED.);
#49=B_SPLINE_CURVE_WITH_KNOTS('',3,(#766,#767,#768,#769),.UNSPECIFIED.,
 .F.,.F.,(4,4),(0.,1.),.UNSPECIFIED.);
#50=B_SPLINE_CURVE_WITH_KNOTS('',3,(#777,#778,#779,#780),.UNSPECIFIED.,
 .F.,.F.,(4,4),(0.,1.),.UNSPECIFIED.);
#51=B_SPLINE_CURVE_WITH_KNOTS('',3,(#783,#784,#785,#786,#787,#788,#789,
#790,#791,#792,#793),.UNSPECIFIED.,.F.,.F.,(4,1,1,1,1,1,1,1,4),(0.,0.125,
0.25,0.375,0.5,0.625,0.75,0.875,1.),.UNSPECIFIED.);
#52=LINE('',#595,#78);
#53=LINE('',#597,#79);
#54=LINE('',#601,#80);
#55=LINE('',#605,#81);
#56=LINE('',#609,#82);
#57=LINE('',#613,#83);
#58=LINE('',#617,#84);
#59=LINE('',#619,#85);
#60=LINE('',#639,#86);
#61=LINE('',#640,#87);
#62=LINE('',#644,#88);
#63=LINE('',#663,#89);
#64=LINE('',#665,#90);
#65=LINE('',#678,#91);
#66=LINE('',#686,#92);
#67=LINE('',#689,#93);
#68=LINE('',#709,#94);
#69=LINE('',#711,#95);
#70=LINE('',#713,#96);
#71=LINE('',#717,#97);
#72=LINE('',#719,#98);
#73=LINE('',#721,#99);
#74=LINE('',#725,#100);
#75=LINE('',#733,#101);
#76=LINE('',#734,#102);
#77=LINE('',#753,#103);
#78=VECTOR('',#490,1.);
#79=VECTOR('',#491,1.);
#80=VECTOR('',#494,1.);
#81=VECTOR('',#497,1.);
#82=VECTOR('',#500,1.);
#83=VECTOR('',#503,1.);
#84=VECTOR('',#506,1.);
#85=VECTOR('',#507,1.);
#86=VECTOR('',#510,1.);
#87=VECTOR('',#511,1.);
#88=VECTOR('',#516,1.);
#89=VECTOR('',#519,1.);
#90=VECTOR('',#522,1.);
#91=VECTOR('',#525,1.);
#92=VECTOR('',#530,1.);
#93=VECTOR('',#531,1.);
#94=VECTOR('',#536,1.);
#95=VECTOR('',#539,1.);
#96=VECTOR('',#540,1.);
#97=VECTOR('',#545,1.);
#98=VECTOR('',#548,1.);
#99=VECTOR('',#549,1.);
#100=VECTOR('',#554,1.);
#101=VECTOR('',#557,1.);
#102=VECTOR('',#558,1.);
#103=VECTOR('',#561,1.);
#104=ORIENTED_EDGE('',*,*,#230,.F.);
#105=ORIENTED_EDGE('',*,*,#231,.F.);
#106=ORIENTED_EDGE('',*,*,#232,.F.);
#107=ORIENTED_EDGE('',*,*,#233,.F.);
#108=ORIENTED_EDGE('',*,*,#234,.F.);
#109=ORIENTED_EDGE('',*,*,#235,.F.);
#110=ORIENTED_EDGE('',*,*,#236,.F.);
#111=ORIENTED_EDGE('',*,*,#237,.F.);
#112=ORIENTED_EDGE('',*,*,#238,.F.);
#113=ORIENTED_EDGE('',*,*,#239,.F.);
#114=ORIENTED_EDGE('',*,*,#240,.F.);
#115=ORIENTED_EDGE('',*,*,#241,.F.);
#116=ORIENTED_EDGE('',*,*,#242,.F.);
#117=ORIENTED_EDGE('',*,*,#243,.F.);
#118=ORIENTED_EDGE('',*,*,#244,.F.);
#119=ORIENTED_EDGE('',*,*,#245,.F.);
#120=ORIENTED_EDGE('',*,*,#246,.F.);
#121=ORIENTED_EDGE('',*,*,#247,.F.);
#122=ORIENTED_EDGE('',*,*,#243,.T.);
#123=ORIENTED_EDGE('',*,*,#248,.F.);
#124=ORIENTED_EDGE('',*,*,#249,.F.);
#125=ORIENTED_EDGE('',*,*,#250,.F.);
#126=ORIENTED_EDGE('',*,*,#230,.T.);
#127=ORIENTED_EDGE('',*,*,#247,.T.);
#128=ORIENTED_EDGE('',*,*,#231,.T.);
#129=ORIENTED_EDGE('',*,*,#250,.T.);
#130=ORIENTED_EDGE('',*,*,#251,.F.);
#131=ORIENTED_EDGE('',*,*,#252,.F.);
#132=ORIENTED_EDGE('',*,*,#253,.F.);
#133=ORIENTED_EDGE('',*,*,#254,.F.);
#134=ORIENTED_EDGE('',*,*,#255,.T.);
#135=ORIENTED_EDGE('',*,*,#232,.T.);
#136=ORIENTED_EDGE('',*,*,#254,.T.);
#137=ORIENTED_EDGE('',*,*,#256,.T.);
#138=ORIENTED_EDGE('',*,*,#257,.T.);
#139=ORIENTED_EDGE('',*,*,#258,.T.);
#140=ORIENTED_EDGE('',*,*,#233,.T.);
#141=ORIENTED_EDGE('',*,*,#255,.F.);
#142=ORIENTED_EDGE('',*,*,#259,.T.);
#143=ORIENTED_EDGE('',*,*,#260,.T.);
#144=ORIENTED_EDGE('',*,*,#261,.T.);
#145=ORIENTED_EDGE('',*,*,#262,.T.);
#146=ORIENTED_EDGE('',*,*,#234,.T.);
#147=ORIENTED_EDGE('',*,*,#258,.F.);
#148=ORIENTED_EDGE('',*,*,#263,.T.);
#149=ORIENTED_EDGE('',*,*,#264,.T.);
#150=ORIENTED_EDGE('',*,*,#265,.T.);
#151=ORIENTED_EDGE('',*,*,#266,.T.);
#152=ORIENTED_EDGE('',*,*,#267,.T.);
#153=ORIENTED_EDGE('',*,*,#235,.T.);
#154=ORIENTED_EDGE('',*,*,#262,.F.);
#155=ORIENTED_EDGE('',*,*,#268,.T.);
#156=ORIENTED_EDGE('',*,*,#269,.T.);
#157=ORIENTED_EDGE('',*,*,#236,.T.);
#158=ORIENTED_EDGE('',*,*,#267,.F.);
#159=ORIENTED_EDGE('',*,*,#270,.T.);
#160=ORIENTED_EDGE('',*,*,#271,.T.);
#161=ORIENTED_EDGE('',*,*,#237,.T.);
#162=ORIENTED_EDGE('',*,*,#269,.F.);
#163=ORIENTED_EDGE('',*,*,#272,.T.);
#164=ORIENTED_EDGE('',*,*,#273,.T.);
#165=ORIENTED_EDGE('',*,*,#238,.T.);
#166=ORIENTED_EDGE('',*,*,#271,.F.);
#167=ORIENTED_EDGE('',*,*,#274,.T.);
#168=ORIENTED_EDGE('',*,*,#275,.T.);
#169=ORIENTED_EDGE('',*,*,#239,.T.);
#170=ORIENTED_EDGE('',*,*,#273,.F.);
#171=ORIENTED_EDGE('',*,*,#276,.T.);
#172=ORIENTED_EDGE('',*,*,#277,.T.);
#173=ORIENTED_EDGE('',*,*,#240,.T.);
#174=ORIENTED_EDGE('',*,*,#275,.F.);
#175=ORIENTED_EDGE('',*,*,#278,.T.);
#176=ORIENTED_EDGE('',*,*,#279,.T.);
#177=ORIENTED_EDGE('',*,*,#280,.T.);
#178=ORIENTED_EDGE('',*,*,#281,.T.);
#179=ORIENTED_EDGE('',*,*,#282,.T.);
#180=ORIENTED_EDGE('',*,*,#241,.T.);
#181=ORIENTED_EDGE('',*,*,#277,.F.);
#182=ORIENTED_EDGE('',*,*,#283,.T.);
#183=ORIENTED_EDGE('',*,*,#284,.T.);
#184=ORIENTED_EDGE('',*,*,#282,.F.);
#185=ORIENTED_EDGE('',*,*,#285,.T.);
#186=ORIENTED_EDGE('',*,*,#248,.T.);
#187=ORIENTED_EDGE('',*,*,#242,.T.);
#188=ORIENTED_EDGE('',*,*,#285,.F.);
#189=ORIENTED_EDGE('',*,*,#281,.F.);
#190=ORIENTED_EDGE('',*,*,#286,.F.);
#191=ORIENTED_EDGE('',*,*,#283,.F.);
#192=ORIENTED_EDGE('',*,*,#276,.F.);
#193=ORIENTED_EDGE('',*,*,#287,.F.);
#194=ORIENTED_EDGE('',*,*,#244,.T.);
#195=ORIENTED_EDGE('',*,*,#252,.T.);
#196=ORIENTED_EDGE('',*,*,#288,.T.);
#197=ORIENTED_EDGE('',*,*,#245,.T.);
#198=ORIENTED_EDGE('',*,*,#287,.T.);
#199=ORIENTED_EDGE('',*,*,#280,.F.);
#200=ORIENTED_EDGE('',*,*,#289,.T.);
#201=ORIENTED_EDGE('',*,*,#264,.F.);
#202=ORIENTED_EDGE('',*,*,#290,.T.);
#203=ORIENTED_EDGE('',*,*,#251,.T.);
#204=ORIENTED_EDGE('',*,*,#249,.T.);
#205=ORIENTED_EDGE('',*,*,#246,.T.);
#206=ORIENTED_EDGE('',*,*,#288,.F.);
#207=ORIENTED_EDGE('',*,*,#290,.F.);
#208=ORIENTED_EDGE('',*,*,#263,.F.);
#209=ORIENTED_EDGE('',*,*,#257,.F.);
#210=ORIENTED_EDGE('',*,*,#291,.F.);
#211=ORIENTED_EDGE('',*,*,#259,.F.);
#212=ORIENTED_EDGE('',*,*,#256,.F.);
#213=ORIENTED_EDGE('',*,*,#253,.T.);
#214=ORIENTED_EDGE('',*,*,#291,.T.);
#215=ORIENTED_EDGE('',*,*,#260,.F.);
#216=ORIENTED_EDGE('',*,*,#266,.F.);
#217=ORIENTED_EDGE('',*,*,#261,.F.);
#218=ORIENTED_EDGE('',*,*,#292,.T.);
#219=ORIENTED_EDGE('',*,*,#278,.F.);
#220=ORIENTED_EDGE('',*,*,#274,.F.);
#221=ORIENTED_EDGE('',*,*,#272,.F.);
#222=ORIENTED_EDGE('',*,*,#270,.F.);
#223=ORIENTED_EDGE('',*,*,#268,.F.);
#224=ORIENTED_EDGE('',*,*,#292,.F.);
#225=ORIENTED_EDGE('',*,*,#265,.F.);
#226=ORIENTED_EDGE('',*,*,#289,.F.);
#227=ORIENTED_EDGE('',*,*,#279,.F.);
#228=ORIENTED_EDGE('',*,*,#286,.T.);
#229=ORIENTED_EDGE('',*,*,#284,.F.);
#230=EDGE_CURVE('',#293,#294,#335,.F.);
#231=EDGE_CURVE('',#295,#293,#52,.T.);
#232=EDGE_CURVE('',#296,#295,#53,.F.);
#233=EDGE_CURVE('',#297,#296,#336,.T.);
#234=EDGE_CURVE('',#298,#297,#54,.F.);
#235=EDGE_CURVE('',#299,#298,#337,.T.);
#236=EDGE_CURVE('',#300,#299,#55,.T.);
#237=EDGE_CURVE('',#301,#300,#338,.T.);
#238=EDGE_CURVE('',#302,#301,#56,.T.);
#239=EDGE_CURVE('',#303,#302,#339,.T.);
#240=EDGE_CURVE('',#304,#303,#57,.T.);
#241=EDGE_CURVE('',#305,#304,#340,.T.);
#242=EDGE_CURVE('',#306,#305,#58,.F.);
#243=EDGE_CURVE('',#294,#306,#59,.F.);
#244=EDGE_CURVE('',#307,#308,#31,.T.);
#245=EDGE_CURVE('',#309,#307,#32,.T.);
#246=EDGE_CURVE('',#310,#309,#33,.T.);
#247=EDGE_CURVE('',#294,#310,#60,.F.);
#248=EDGE_CURVE('',#308,#306,#61,.T.);
#249=EDGE_CURVE('',#311,#310,#341,.F.);
#250=EDGE_CURVE('',#293,#311,#62,.T.);
#251=EDGE_CURVE('',#312,#311,#34,.T.);
#252=EDGE_CURVE('',#313,#312,#35,.T.);
#253=EDGE_CURVE('',#314,#313,#36,.T.);
#254=EDGE_CURVE('',#295,#314,#63,.T.);
#255=EDGE_CURVE('',#315,#296,#64,.F.);
#256=EDGE_CURVE('',#314,#315,#37,.T.);
#257=EDGE_CURVE('',#316,#317,#38,.T.);
#258=EDGE_CURVE('',#317,#297,#65,.F.);
#259=EDGE_CURVE('',#315,#318,#39,.T.);
#260=EDGE_CURVE('',#318,#316,#342,.F.);
#261=EDGE_CURVE('',#319,#320,#66,.T.);
#262=EDGE_CURVE('',#320,#298,#67,.F.);
#263=EDGE_CURVE('',#317,#321,#40,.T.);
#264=EDGE_CURVE('',#321,#322,#41,.T.);
#265=EDGE_CURVE('',#322,#319,#42,.T.);
#266=EDGE_CURVE('',#320,#323,#343,.F.);
#267=EDGE_CURVE('',#323,#299,#68,.F.);
#268=EDGE_CURVE('',#323,#324,#69,.F.);
#269=EDGE_CURVE('',#324,#300,#70,.T.);
#270=EDGE_CURVE('',#324,#325,#344,.F.);
#271=EDGE_CURVE('',#325,#301,#71,.F.);
#272=EDGE_CURVE('',#325,#326,#72,.F.);
#273=EDGE_CURVE('',#326,#302,#73,.T.);
#274=EDGE_CURVE('',#326,#327,#345,.F.);
#275=EDGE_CURVE('',#327,#303,#74,.F.);
#276=EDGE_CURVE('',#328,#329,#43,.T.);
#277=EDGE_CURVE('',#329,#304,#75,.T.);
#278=EDGE_CURVE('',#327,#330,#76,.F.);
#279=EDGE_CURVE('',#330,#331,#44,.T.);
#280=EDGE_CURVE('',#331,#328,#45,.T.);
#281=EDGE_CURVE('',#332,#333,#46,.T.);
#282=EDGE_CURVE('',#333,#305,#77,.F.);
#283=EDGE_CURVE('',#329,#334,#47,.T.);
#284=EDGE_CURVE('',#334,#332,#346,.F.);
#285=EDGE_CURVE('',#333,#308,#48,.T.);
#286=EDGE_CURVE('',#334,#332,#49,.T.);
#287=EDGE_CURVE('',#307,#328,#347,.T.);
#288=EDGE_CURVE('',#312,#309,#348,.T.);
#289=EDGE_CURVE('',#331,#322,#349,.F.);
#290=EDGE_CURVE('',#321,#313,#350,.F.);
#291=EDGE_CURVE('',#318,#316,#50,.T.);
#292=EDGE_CURVE('',#319,#330,#51,.T.);
#293=VERTEX_POINT('',#593);
#294=VERTEX_POINT('',#594);
#295=VERTEX_POINT('',#596);
#296=VERTEX_POINT('',#598);
#297=VERTEX_POINT('',#600);
#298=VERTEX_POINT('',#602);
#299=VERTEX_POINT('',#604);
#300=VERTEX_POINT('',#606);
#301=VERTEX_POINT('',#608);
#302=VERTEX_POINT('',#610);
#303=VERTEX_POINT('',#612);
#304=VERTEX_POINT('',#614);
#305=VERTEX_POINT('',#616);
#306=VERTEX_POINT('',#618);
#307=VERTEX_POINT('',#625);
#308=VERTEX_POINT('',#626);
#309=VERTEX_POINT('',#631);
#310=VERTEX_POINT('',#638);
#311=VERTEX_POINT('',#643);
#312=VERTEX_POINT('',#652);
#313=VERTEX_POINT('',#657);
#314=VERTEX_POINT('',#662);
#315=VERTEX_POINT('',#666);
#316=VERTEX_POINT('',#676);
#317=VERTEX_POINT('',#677);
#318=VERTEX_POINT('',#683);
#319=VERTEX_POINT('',#687);
#320=VERTEX_POINT('',#688);
#321=VERTEX_POINT('',#694);
#322=VERTEX_POINT('',#701);
#323=VERTEX_POINT('',#708);
#324=VERTEX_POINT('',#712);
#325=VERTEX_POINT('',#716);
#326=VERTEX_POINT('',#720);
#327=VERTEX_POINT('',#724);
#328=VERTEX_POINT('',#731);
#329=VERTEX_POINT('',#732);
#330=VERTEX_POINT('',#735);
#331=VERTEX_POINT('',#740);
#332=VERTEX_POINT('',#751);
#333=VERTEX_POINT('',#752);
#334=VERTEX_POINT('',#758);
#335=CIRCLE('',#446,0.006);
#336=CIRCLE('',#447,0.00338160792193377);
#337=CIRCLE('',#448,0.00338160792193377);
#338=CIRCLE('',#449,0.00413160792189466);
#339=CIRCLE('',#450,0.00338160792193377);
#340=CIRCLE('',#451,0.00338160792189465);
#341=CIRCLE('',#454,0.006);
#342=CIRCLE('',#458,0.00338160792193377);
#343=CIRCLE('',#461,0.00338160792193377);
#344=CIRCLE('',#464,0.00413160792189466);
#345=CIRCLE('',#467,0.00338160792193377);
#346=CIRCLE('',#470,0.00338160792189465);
#347=CIRCLE('',#473,0.00912132034355965);
#348=CIRCLE('',#475,0.00685355339059291);
#349=CIRCLE('',#476,0.00912132034356506);
#350=CIRCLE('',#477,0.00912132034356506);
#351=EDGE_LOOP('',(#104,#105,#106,#107,#108,#109,#110,#111,#112,#113,#114,
#115,#116,#117));
#352=EDGE_LOOP('',(#118,#119,#120,#121,#122,#123));
#353=EDGE_LOOP('',(#124,#125,#126,#127));
#354=EDGE_LOOP('',(#128,#129,#130,#131,#132,#133));
#355=EDGE_LOOP('',(#134,#135,#136,#137));
#356=EDGE_LOOP('',(#138,#139,#140,#141,#142,#143));
#357=EDGE_LOOP('',(#144,#145,#146,#147,#148,#149,#150));
#358=EDGE_LOOP('',(#151,#152,#153,#154));
#359=EDGE_LOOP('',(#155,#156,#157,#158));
#360=EDGE_LOOP('',(#159,#160,#161,#162));
#361=EDGE_LOOP('',(#163,#164,#165,#166));
#362=EDGE_LOOP('',(#167,#168,#169,#170));
#363=EDGE_LOOP('',(#171,#172,#173,#174,#175,#176,#177));
#364=EDGE_LOOP('',(#178,#179,#180,#181,#182,#183));
#365=EDGE_LOOP('',(#184,#185,#186,#187));
#366=EDGE_LOOP('',(#188,#189,#190,#191,#192,#193,#194));
#367=EDGE_LOOP('',(#195,#196,#197,#198,#199,#200,#201,#202));
#368=EDGE_LOOP('',(#203,#204,#205,#206));
#369=EDGE_LOOP('',(#207,#208,#209,#210,#211,#212,#213));
#370=EDGE_LOOP('',(#214,#215));
#371=EDGE_LOOP('',(#216,#217,#218,#219,#220,#221,#222,#223));
#372=EDGE_LOOP('',(#224,#225,#226,#227));
#373=EDGE_LOOP('',(#228,#229));
#374=FACE_BOUND('',#351,.T.);
#375=FACE_BOUND('',#352,.T.);
#376=FACE_BOUND('',#353,.T.);
#377=FACE_BOUND('',#354,.T.);
#378=FACE_BOUND('',#355,.T.);
#379=FACE_BOUND('',#356,.T.);
#380=FACE_BOUND('',#357,.T.);
#381=FACE_BOUND('',#358,.T.);
#382=FACE_BOUND('',#359,.T.);
#383=FACE_BOUND('',#360,.T.);
#384=FACE_BOUND('',#361,.T.);
#385=FACE_BOUND('',#362,.T.);
#386=FACE_BOUND('',#363,.T.);
#387=FACE_BOUND('',#364,.T.);
#388=FACE_BOUND('',#365,.T.);
#389=FACE_BOUND('',#366,.T.);
#390=FACE_BOUND('',#367,.T.);
#391=FACE_BOUND('',#368,.T.);
#392=FACE_BOUND('',#369,.T.);
#393=FACE_BOUND('',#370,.T.);
#394=FACE_BOUND('',#371,.T.);
#395=FACE_BOUND('',#372,.T.);
#396=FACE_BOUND('',#373,.T.);
#397=PLANE('',#445);
#398=PLANE('',#452);
#399=PLANE('',#455);
#400=PLANE('',#456);
#401=PLANE('',#459);
#402=PLANE('',#462);
#403=PLANE('',#465);
#404=PLANE('',#468);
#405=PLANE('',#471);
#406=PLANE('',#480);
#407=PLANE('',#481);
#408=PLANE('',#483);
#409=ADVANCED_FACE('',(#374),#397,.F.);
#410=ADVANCED_FACE('',(#375),#398,.F.);
#411=ADVANCED_FACE('',(#376),#25,.F.);
#412=ADVANCED_FACE('',(#377),#399,.F.);
#413=ADVANCED_FACE('',(#378),#400,.T.);
#414=ADVANCED_FACE('',(#379),#26,.T.);
#415=ADVANCED_FACE('',(#380),#401,.T.);
#416=ADVANCED_FACE('',(#381),#27,.T.);
#417=ADVANCED_FACE('',(#382),#402,.T.);
#418=ADVANCED_FACE('',(#383),#28,.T.);
#419=ADVANCED_FACE('',(#384),#403,.T.);
#420=ADVANCED_FACE('',(#385),#29,.T.);
#421=ADVANCED_FACE('',(#386),#404,.T.);
#422=ADVANCED_FACE('',(#387),#30,.T.);
#423=ADVANCED_FACE('',(#388),#405,.T.);
#424=ADVANCED_FACE('',(#389),#21,.F.);
#425=ADVANCED_FACE('',(#390),#20,.T.);
#426=ADVANCED_FACE('',(#391),#22,.T.);
#427=ADVANCED_FACE('',(#392),#23,.F.);
#428=ADVANCED_FACE('',(#393),#406,.T.);
#429=ADVANCED_FACE('',(#394),#407,.T.);
#430=ADVANCED_FACE('',(#395),#24,.F.);
#431=ADVANCED_FACE('',(#396),#408,.T.);
#432=CLOSED_SHELL('',(#409,#410,#411,#412,#413,#414,#415,#416,#417,#418,
#419,#420,#421,#422,#423,#424,#425,#426,#427,#428,#429,#430,#431));
#433=STYLED_ITEM('',(#434),#441);
#434=PRESENTATION_STYLE_ASSIGNMENT((#435));
#435=SURFACE_STYLE_USAGE(.BOTH.,#436);
#436=SURFACE_SIDE_STYLE('',(#437));
#437=SURFACE_STYLE_FILL_AREA(#438);
#438=FILL_AREA_STYLE('',(#439));
#439=FILL_AREA_STYLE_COLOUR('',#440);
#440=COLOUR_RGB('',0.745098039215686,0.745098039215686,0.745098039215686);
#441=MANIFOLD_SOLID_BREP('KP0042-01_PConnectCoverCapA',#432);
#442=SHAPE_DEFINITION_REPRESENTATION(#802,#443);
#443=SHAPE_REPRESENTATION('KP0042-01_PConnectCoverCapA',(#444),#797);
#444=AXIS2_PLACEMENT_3D('',#590,#484,#485);
#445=AXIS2_PLACEMENT_3D('',#591,#486,#487);
#446=AXIS2_PLACEMENT_3D('',#592,#488,#489);
#447=AXIS2_PLACEMENT_3D('',#599,#492,#493);
#448=AXIS2_PLACEMENT_3D('',#603,#495,#496);
#449=AXIS2_PLACEMENT_3D('',#607,#498,#499);
#450=AXIS2_PLACEMENT_3D('',#611,#501,#502);
#451=AXIS2_PLACEMENT_3D('',#615,#504,#505);
#452=AXIS2_PLACEMENT_3D('',#620,#508,#509);
#453=AXIS2_PLACEMENT_3D('',#641,#512,#513);
#454=AXIS2_PLACEMENT_3D('',#642,#514,#515);
#455=AXIS2_PLACEMENT_3D('',#645,#517,#518);
#456=AXIS2_PLACEMENT_3D('',#664,#520,#521);
#457=AXIS2_PLACEMENT_3D('',#671,#523,#524);
#458=AXIS2_PLACEMENT_3D('',#684,#526,#527);
#459=AXIS2_PLACEMENT_3D('',#685,#528,#529);
#460=AXIS2_PLACEMENT_3D('',#706,#532,#533);
#461=AXIS2_PLACEMENT_3D('',#707,#534,#535);
#462=AXIS2_PLACEMENT_3D('',#710,#537,#538);
#463=AXIS2_PLACEMENT_3D('',#714,#541,#542);
#464=AXIS2_PLACEMENT_3D('',#715,#543,#544);
#465=AXIS2_PLACEMENT_3D('',#718,#546,#547);
#466=AXIS2_PLACEMENT_3D('',#722,#550,#551);
#467=AXIS2_PLACEMENT_3D('',#723,#552,#553);
#468=AXIS2_PLACEMENT_3D('',#726,#555,#556);
#469=AXIS2_PLACEMENT_3D('',#746,#559,#560);
#470=AXIS2_PLACEMENT_3D('',#759,#562,#563);
#471=AXIS2_PLACEMENT_3D('',#760,#564,#565);
#472=AXIS2_PLACEMENT_3D('',#765,#566,#567);
#473=AXIS2_PLACEMENT_3D('',#770,#568,#569);
#474=AXIS2_PLACEMENT_3D('',#771,#570,#571);
#475=AXIS2_PLACEMENT_3D('',#772,#572,#573);
#476=AXIS2_PLACEMENT_3D('',#773,#574,#575);
#477=AXIS2_PLACEMENT_3D('',#774,#576,#577);
#478=AXIS2_PLACEMENT_3D('',#775,#578,#579);
#479=AXIS2_PLACEMENT_3D('',#776,#580,#581);
#480=AXIS2_PLACEMENT_3D('',#781,#582,#583);
#481=AXIS2_PLACEMENT_3D('',#782,#584,#585);
#482=AXIS2_PLACEMENT_3D('',#794,#586,#587);
#483=AXIS2_PLACEMENT_3D('',#795,#588,#589);
#484=DIRECTION('',(0.,0.,1.));
#485=DIRECTION('',(1.,0.,0.));
#486=DIRECTION('',(0.,-1.,0.));
#487=DIRECTION('',(1.,0.,0.));
#488=DIRECTION('',(0.,-1.,0.));
#489=DIRECTION('',(1.,0.,0.));
#490=DIRECTION('',(1.,0.,0.));
#491=DIRECTION('',(0.,0.,1.));
#492=DIRECTION('',(0.,-1.,0.));
#493=DIRECTION('',(1.,0.,0.));
#494=DIRECTION('',(1.,0.,0.));
#495=DIRECTION('',(0.,-1.,0.));
#496=DIRECTION('',(1.,0.,0.));
#497=DIRECTION('',(0.,0.,1.));
#498=DIRECTION('',(0.,-1.,0.));
#499=DIRECTION('',(1.,0.,0.));
#500=DIRECTION('',(0.,0.,1.));
#501=DIRECTION('',(0.,-1.,0.));
#502=DIRECTION('',(1.,0.,0.));
#503=DIRECTION('',(1.,0.,0.));
#504=DIRECTION('',(0.,-1.,0.));
#505=DIRECTION('',(1.,0.,0.));
#506=DIRECTION('',(0.,0.,1.));
#507=DIRECTION('',(1.,0.,0.));
#508=DIRECTION('',(0.,0.,-1.));
#509=DIRECTION('',(0.,1.,0.));
#510=DIRECTION('',(0.,1.,0.));
#511=DIRECTION('',(0.,1.,0.));
#512=DIRECTION('',(0.,-1.,0.));
#513=DIRECTION('',(1.,0.,0.));
#514=DIRECTION('',(0.,-1.,0.));
#515=DIRECTION('',(1.,0.,0.));
#516=DIRECTION('',(0.,-1.,0.));
#517=DIRECTION('',(4.35862707138659E-17,0.,1.));
#518=DIRECTION('',(-1.,0.,4.35862707138659E-17));
#519=DIRECTION('',(0.,-1.,0.));
#520=DIRECTION('',(-1.,0.,-8.78254147825523E-16));
#521=DIRECTION('',(8.78254147825523E-16,0.,-1.));
#522=DIRECTION('',(0.,-1.,0.));
#523=DIRECTION('',(0.,-1.,0.));
#524=DIRECTION('',(1.,0.,0.));
#525=DIRECTION('',(0.,-1.,0.));
#526=DIRECTION('',(0.,-1.,0.));
#527=DIRECTION('',(1.,0.,0.));
#528=DIRECTION('',(0.,0.,1.));
#529=DIRECTION('',(0.,-1.,0.));
#530=DIRECTION('',(1.,0.,0.));
#531=DIRECTION('',(0.,-1.,0.));
#532=DIRECTION('',(0.,-1.,0.));
#533=DIRECTION('',(1.,0.,0.));
#534=DIRECTION('',(0.,-1.,0.));
#535=DIRECTION('',(1.,0.,0.));
#536=DIRECTION('',(0.,-1.,0.));
#537=DIRECTION('',(1.,0.,0.));
#538=DIRECTION('',(0.,1.,0.));
#539=DIRECTION('',(0.,0.,1.));
#540=DIRECTION('',(0.,1.,0.));
#541=DIRECTION('',(0.,-1.,0.));
#542=DIRECTION('',(1.,0.,0.));
#543=DIRECTION('',(0.,-1.,0.));
#544=DIRECTION('',(1.,0.,0.));
#545=DIRECTION('',(0.,-1.,0.));
#546=DIRECTION('',(1.,0.,0.));
#547=DIRECTION('',(0.,1.,0.));
#548=DIRECTION('',(0.,0.,1.));
#549=DIRECTION('',(0.,1.,0.));
#550=DIRECTION('',(0.,-1.,0.));
#551=DIRECTION('',(1.,0.,0.));
#552=DIRECTION('',(0.,-1.,0.));
#553=DIRECTION('',(1.,0.,0.));
#554=DIRECTION('',(0.,-1.,0.));
#555=DIRECTION('',(0.,0.,-1.));
#556=DIRECTION('',(0.,1.,0.));
#557=DIRECTION('',(0.,1.,0.));
#558=DIRECTION('',(1.,0.,0.));
#559=DIRECTION('',(0.,-1.,0.));
#560=DIRECTION('',(1.,0.,0.));
#561=DIRECTION('',(0.,-1.,0.));
#562=DIRECTION('',(0.,-1.,0.));
#563=DIRECTION('',(1.,0.,0.));
#564=DIRECTION('',(-1.,0.,-8.78254147825523E-16));
#565=DIRECTION('',(8.78254147825523E-16,0.,-1.));
#566=DIRECTION('',(0.,-1.,0.));
#567=DIRECTION('',(1.,0.,0.));
#568=DIRECTION('',(0.,-1.,0.));
#569=DIRECTION('',(1.,0.,0.));
#570=DIRECTION('',(0.,1.,0.));
#571=DIRECTION('',(-1.,0.,0.));
#572=DIRECTION('',(0.,1.,0.));
#573=DIRECTION('',(-1.,0.,0.));
#574=DIRECTION('',(0.,1.,0.));
#575=DIRECTION('',(-1.,0.,0.));
#576=DIRECTION('',(0.,1.,0.));
#577=DIRECTION('',(-1.,-4.75458434370367E-17,0.));
#578=DIRECTION('',(0.,1.,0.));
#579=DIRECTION('',(-1.,0.,0.));
#580=DIRECTION('',(0.,-1.,0.));
#581=DIRECTION('',(1.,0.,0.));
#582=DIRECTION('',(0.,-1.,0.));
#583=DIRECTION('',(1.,0.,0.));
#584=DIRECTION('',(0.,-1.,0.));
#585=DIRECTION('',(1.,0.,0.));
#586=DIRECTION('',(0.,-1.,0.));
#587=DIRECTION('',(1.,0.,0.));
#588=DIRECTION('',(0.,-1.,0.));
#589=DIRECTION('',(1.,0.,0.));
#590=CARTESIAN_POINT('',(0.,0.,0.));
#591=CARTESIAN_POINT('',(-4.42950266267164E-5,0.,-5.54999999815115E-5));
#592=CARTESIAN_POINT('',(-0.002,2.16840434497101E-19,0.));
#593=CARTESIAN_POINT('',(-0.00647213595499958,1.0842021724855E-19,0.004));
#594=CARTESIAN_POINT('',(-0.00647213595499958,1.0842021724855E-19,-0.004));
#595=CARTESIAN_POINT('',(-4.42950266267164E-5,0.,0.004));
#596=CARTESIAN_POINT('',(-0.0120016079219338,4.6259292692715E-20,0.004));
#597=CARTESIAN_POINT('',(-0.0120016079219338,0.,-5.54999999815115E-5));
#598=CARTESIAN_POINT('',(-0.0120016079219338,0.,0.005001));
#599=CARTESIAN_POINT('',(-0.00862,0.,0.005001));
#600=CARTESIAN_POINT('',(-0.0086200000008102,0.,0.00838260792193377));
#601=CARTESIAN_POINT('',(-4.42950266267164E-5,0.,0.00838260792193377));
#602=CARTESIAN_POINT('',(0.00861999999996857,0.,0.00838260792193377));
#603=CARTESIAN_POINT('',(0.00862,0.,0.005001));
#604=CARTESIAN_POINT('',(0.0120016079219338,0.,0.005001));
#605=CARTESIAN_POINT('',(0.0120016079219338,0.,-5.54999999815115E-5));
#606=CARTESIAN_POINT('',(0.0120016079219338,0.,0.00332061133203826));
#607=CARTESIAN_POINT('',(0.00962,0.,-5.55E-5));
#608=CARTESIAN_POINT('',(0.0120016079219021,0.,-0.00343161133207952));
#609=CARTESIAN_POINT('',(0.0120016079218946,0.,-5.54999999815115E-5));
#610=CARTESIAN_POINT('',(0.0120016079218946,0.,-0.00511199999996776));
#611=CARTESIAN_POINT('',(0.00862,0.,-0.005112));
#612=CARTESIAN_POINT('',(0.00861999999996857,0.,-0.00849360792191421));
#613=CARTESIAN_POINT('',(-4.42950266267164E-5,0.,-0.00849360792189465));
#614=CARTESIAN_POINT('',(-0.00862000000253707,0.,-0.00849360792189465));
#615=CARTESIAN_POINT('',(-0.00862,0.,-0.005112));
#616=CARTESIAN_POINT('',(-0.0120016079219142,0.,-0.005112));
#617=CARTESIAN_POINT('',(-0.0120016079219338,0.,-5.54999999815115E-5));
#618=CARTESIAN_POINT('',(-0.0120016079219338,0.,-0.004));
#619=CARTESIAN_POINT('',(-4.42950266267164E-5,0.,-0.004));
#620=CARTESIAN_POINT('',(-0.0147359258596993,0.,-0.004));
#621=CARTESIAN_POINT('',(-0.0101974681951097,-0.00187867965644037,-0.004));
#622=CARTESIAN_POINT('',(-0.0107021838932811,-0.00142508404445703,-0.004));
#623=CARTESIAN_POINT('',(-0.0113306833629717,-0.00113616761808565,-0.004));
#624=CARTESIAN_POINT('',(-0.0120016079219343,-0.00103717528687829,-0.004));
#625=CARTESIAN_POINT('',(-0.0101974681951097,-0.00187867965644037,-0.004));
#626=CARTESIAN_POINT('',(-0.0120016079219338,-0.00103717528687679,-0.00400000000000621));
#627=CARTESIAN_POINT('',(-0.0075651769134241,-0.00414644660940628,-0.004));
#628=CARTESIAN_POINT('',(-0.00846462583313231,-0.00341608207039073,-0.004));
#629=CARTESIAN_POINT('',(-0.00933588546469242,-0.00265299705393225,-0.004));
#630=CARTESIAN_POINT('',(-0.0101974681951151,-0.00187867965644635,-0.004));
#631=CARTESIAN_POINT('',(-0.00756517691342423,-0.00414644660940653,-0.004));
#632=CARTESIAN_POINT('',(-0.00647213595499958,-0.00379289321881345,-0.004));
#633=CARTESIAN_POINT('',(-0.00647213595499958,-0.00390954129791114,-0.004));
#634=CARTESIAN_POINT('',(-0.00658861682094556,-0.00412705301446496,-0.004));
#635=CARTESIAN_POINT('',(-0.00700887073678728,-0.0043410400832451,-0.004));
#636=CARTESIAN_POINT('',(-0.00738478158571591,-0.00429293002550308,-0.004));
#637=CARTESIAN_POINT('',(-0.00756517691342438,-0.00414644660940679,-0.004));
#638=CARTESIAN_POINT('',(-0.00647213595499958,-0.00379289321881345,-0.004));
#639=CARTESIAN_POINT('',(-0.00647213595499958,0.,-0.004));
#640=CARTESIAN_POINT('',(-0.0120016079219338,0.,-0.004));
#641=CARTESIAN_POINT('',(-0.002,-0.001,0.));
#642=CARTESIAN_POINT('',(-0.002,-0.00379289321881345,0.));
#643=CARTESIAN_POINT('',(-0.00647213595499958,-0.00379289321881345,0.004));
#644=CARTESIAN_POINT('',(-0.00647213595499958,-0.001,0.004));
#645=CARTESIAN_POINT('',(-0.002,0.,0.004));
#646=CARTESIAN_POINT('',(-0.0075651769134243,-0.00414644660940663,0.00400000000000005));
#647=CARTESIAN_POINT('',(-0.00738451219062467,-0.00429314877791599,0.00400000000000005));
#648=CARTESIAN_POINT('',(-0.00700969582786423,-0.00434073026289074,0.00399999999999999));
#649=CARTESIAN_POINT('',(-0.00658953385439403,-0.00412809825935274,0.004));
#650=CARTESIAN_POINT('',(-0.00647213595499958,-0.00390971219198298,0.004));
#651=CARTESIAN_POINT('',(-0.00647213595499958,-0.00379289321881345,0.004));
#652=CARTESIAN_POINT('',(-0.00756517691342423,-0.00414644660940653,0.004));
#653=CARTESIAN_POINT('',(-0.0101974681951151,-0.00187867965644635,0.004));
#654=CARTESIAN_POINT('',(-0.00933588546469245,-0.00265299705393223,0.004));
#655=CARTESIAN_POINT('',(-0.00846462583313228,-0.00341608207039076,0.004));
#656=CARTESIAN_POINT('',(-0.0075651769134241,-0.00414644660940628,0.004));
#657=CARTESIAN_POINT('',(-0.0101974681951154,-0.00187867965644606,0.004));
#658=CARTESIAN_POINT('',(-0.0120016079219339,-0.00103717528687815,0.00400000000000166));
#659=CARTESIAN_POINT('',(-0.0113306538796087,-0.00113617196824189,0.00400000000000166));
#660=CARTESIAN_POINT('',(-0.010702074884376,-0.00142518201240496,0.004));
#661=CARTESIAN_POINT('',(-0.0101974681951109,-0.00187867965643933,0.004));
#662=CARTESIAN_POINT('',(-0.0120016079219339,-0.00103717528687815,0.00400000000000331));
#663=CARTESIAN_POINT('',(-0.0120016079219338,0.,0.004));
#664=CARTESIAN_POINT('',(-0.0120016079219338,0.,0.0050010000000475));
#665=CARTESIAN_POINT('',(-0.0120016079219338,0.,0.005001));
#666=CARTESIAN_POINT('',(-0.0120016079219338,-0.00100060839876422,0.005001));
#667=CARTESIAN_POINT('',(-0.0120016079219338,-0.00103717528687815,0.00400000000000331));
#668=CARTESIAN_POINT('',(-0.0120016079219338,-0.00101750209397204,0.00433339326506208));
#669=CARTESIAN_POINT('',(-0.0120016079219338,-0.00100361719175582,0.00466699797845056));
#670=CARTESIAN_POINT('',(-0.0120016079219338,-0.00100060839876422,0.005001));
#671=CARTESIAN_POINT('',(-0.00862,0.,0.005001));
#672=CARTESIAN_POINT('',(-0.00967745359478659,-0.001,0.00821301868496405));
#673=CARTESIAN_POINT('',(-0.0093331951090195,-0.001,0.00832635469232114));
#674=CARTESIAN_POINT('',(-0.0089803047757641,-0.00101043811538585,0.00838260792176112));
#675=CARTESIAN_POINT('',(-0.0086200000016204,-0.00105296421704937,0.00838260792193377));
#676=CARTESIAN_POINT('',(-0.00967745359478659,-0.001,0.00821301868496405));
#677=CARTESIAN_POINT('',(-0.0086200000016204,-0.00105296421704937,0.00838260792193377));
#678=CARTESIAN_POINT('',(-0.0086200000016204,0.,0.00838260792193377));
#679=CARTESIAN_POINT('',(-0.0120016079219338,-0.00100060839876422,0.005001));
#680=CARTESIAN_POINT('',(-0.0120016079219338,-0.00100019009259839,0.0050474355990604));
#681=CARTESIAN_POINT('',(-0.0120006518580209,-0.001,0.00509385250207546));
#682=CARTESIAN_POINT('',(-0.0119987396207357,-0.001,0.0051402505402364));
#683=CARTESIAN_POINT('',(-0.0119987396207357,-0.001,0.0051402505402364));
#684=CARTESIAN_POINT('',(-0.00862,-0.001,0.005001));
#685=CARTESIAN_POINT('',(0.00861999999993714,0.,0.00838260792193377));
#686=CARTESIAN_POINT('',(0.00861999999993714,-0.001,0.00838260792193377));
#687=CARTESIAN_POINT('',(0.00549191924988539,-0.001,0.00838260792193377));
#688=CARTESIAN_POINT('',(0.00861999999996857,-0.001,0.00838260792193377));
#689=CARTESIAN_POINT('',(0.00861999999993714,0.,0.00838260792193377));
#690=CARTESIAN_POINT('',(-0.0086200000016204,-0.00105296421704937,0.00838260792193377));
#691=CARTESIAN_POINT('',(-0.00757062665147083,-0.00117681979988084,0.00838260792193377));
#692=CARTESIAN_POINT('',(-0.00657380821364439,-0.00149315360840064,0.00838260792193377));
#693=CARTESIAN_POINT('',(-0.00559588226128312,-0.00187867965643805,0.00838260792193377));
#694=CARTESIAN_POINT('',(-0.00559588226128409,-0.00187867965644307,0.00838260792193377));
#695=CARTESIAN_POINT('',(-0.00559588226128092,-0.00187867965644973,0.00838260792193377));
#696=CARTESIAN_POINT('',(-0.00501907513027945,-0.00210607332890221,0.00838260792193377));
#697=CARTESIAN_POINT('',(-0.00385251411506814,-0.00247604725061999,0.00838260792193377));
#698=CARTESIAN_POINT('',(-0.00137879933256946,-0.00275889015966816,0.00838260792193377));
#699=CARTESIAN_POINT('',(0.000441079788956212,-0.0023339354274441,0.00838260792193377));
#700=CARTESIAN_POINT('',(0.00159588226128092,-0.00187867965644973,0.00838260792193377));
#701=CARTESIAN_POINT('',(0.00159588226128593,-0.00187867965644775,0.00838260792193377));
#702=CARTESIAN_POINT('',(0.00159588226128487,-0.00187867965644505,0.00838260792193129));
#703=CARTESIAN_POINT('',(0.00284918556074185,-0.00138459207561391,0.00838260792193129));
#704=CARTESIAN_POINT('',(0.00412718356232513,-0.001,0.00838260792193377));
#705=CARTESIAN_POINT('',(0.00549191924988539,-0.000999999999999999,0.00838260792193377));
#706=CARTESIAN_POINT('',(0.00862,0.,0.005001));
#707=CARTESIAN_POINT('',(0.00862,-0.001,0.005001));
#708=CARTESIAN_POINT('',(0.0120016079219338,-0.001,0.005001));
#709=CARTESIAN_POINT('',(0.0120016079219338,0.,0.005001));
#710=CARTESIAN_POINT('',(0.0120016079219338,0.,0.00332061133201933));
#711=CARTESIAN_POINT('',(0.0120016079219338,-0.001,0.00332061133201933));
#712=CARTESIAN_POINT('',(0.0120016079219338,-0.001,0.00332061133203826));
#713=CARTESIAN_POINT('',(0.0120016079219338,0.,0.00332061133201933));
#714=CARTESIAN_POINT('',(0.00962,0.,-5.55E-5));
#715=CARTESIAN_POINT('',(0.00962,-0.001,-5.55E-5));
#716=CARTESIAN_POINT('',(0.0120016079219021,-0.001,-0.00343161133207952));
#717=CARTESIAN_POINT('',(0.0120016079219097,0.,-0.00343161133207421));
#718=CARTESIAN_POINT('',(0.0120016079218946,0.,-0.00511199999993551));
#719=CARTESIAN_POINT('',(0.0120016079218946,-0.001,-0.00511199999993551));
#720=CARTESIAN_POINT('',(0.0120016079218946,-0.001,-0.00511199999996776));
#721=CARTESIAN_POINT('',(0.0120016079218946,0.,-0.00511199999993551));
#722=CARTESIAN_POINT('',(0.00862,0.,-0.005112));
#723=CARTESIAN_POINT('',(0.00862,-0.001,-0.005112));
#724=CARTESIAN_POINT('',(0.00861999999996857,-0.001,-0.00849360792191421));
#725=CARTESIAN_POINT('',(0.00861999999993714,0.,-0.00849360792193377));
#726=CARTESIAN_POINT('',(-0.00861999999993714,0.,-0.00849360792189465));
#727=CARTESIAN_POINT('',(-0.00532522319235444,-0.00187867965644379,-0.00849360792189339));
#728=CARTESIAN_POINT('',(-0.00639545013598772,-0.00148852304314471,-0.00849360792189339));
#729=CARTESIAN_POINT('',(-0.00747882967209032,-0.00114989340655539,-0.00849360792189465));
#730=CARTESIAN_POINT('',(-0.00862000000507415,-0.00103766666748841,-0.00849360792189465));
#731=CARTESIAN_POINT('',(-0.00532522319235493,-0.00187867965644514,-0.00849360792189465));
#732=CARTESIAN_POINT('',(-0.00862000000507415,-0.00103766666748841,-0.00849360792189466));
#733=CARTESIAN_POINT('',(-0.00862000000507415,0.,-0.00849360792189465));
#734=CARTESIAN_POINT('',(-0.00861999999993714,-0.001,-0.00849360792189465));
#735=CARTESIAN_POINT('',(0.00536583967303107,-0.001,-0.00849360792189465));
#736=CARTESIAN_POINT('',(0.00536583967303107,-0.001,-0.00849360792189465));
#737=CARTESIAN_POINT('',(0.00396862694911492,-0.001,-0.00849360792189465));
#738=CARTESIAN_POINT('',(0.00263076189114802,-0.00140273895967377,-0.00849360792189465));
#739=CARTESIAN_POINT('',(0.00132522319235907,-0.00187867965643822,-0.00849360792189465));
#740=CARTESIAN_POINT('',(0.0013252231923606,-0.00187867965644307,-0.00849360792189465));
#741=CARTESIAN_POINT('',(0.00132522319235665,-0.00187867965644992,-0.00849360792189465));
#742=CARTESIAN_POINT('',(0.000251243378727025,-0.00227020439737264,-0.00849360792189465));
#743=CARTESIAN_POINT('',(-0.00199959063772857,-0.00274257391779147,-0.00849360792189465));
#744=CARTESIAN_POINT('',(-0.00425121136306064,-0.0022702160688448,-0.00849360792189465));
#745=CARTESIAN_POINT('',(-0.00532522319235666,-0.00187867965644992,-0.00849360792189465));
#746=CARTESIAN_POINT('',(-0.00862,0.,-0.005112));
#747=CARTESIAN_POINT('',(-0.01200153094166,-0.001,-0.00513481727451785));
#748=CARTESIAN_POINT('',(-0.0120015822618477,-0.001,-0.00512721159828789));
#749=CARTESIAN_POINT('',(-0.0120016079218946,-0.00100000587559618,-0.00511960584007012));
#750=CARTESIAN_POINT('',(-0.0120016079218946,-0.00100001779994736,-0.00511199999999993));
#751=CARTESIAN_POINT('',(-0.01200153094166,-0.001,-0.00513481727451785));
#752=CARTESIAN_POINT('',(-0.0120016079219142,-0.0010000177999473,-0.005112));
#753=CARTESIAN_POINT('',(-0.0120016079218946,0.,-0.005112));
#754=CARTESIAN_POINT('',(-0.00862000000507415,-0.00103766666748841,-0.00849360792189465));
#755=CARTESIAN_POINT('',(-0.00891679596170021,-0.00100847870022923,-0.00849360792144931));
#756=CARTESIAN_POINT('',(-0.00920940693257437,-0.001,-0.00845515792817352));
#757=CARTESIAN_POINT('',(-0.00949725240445769,-0.001,-0.00837783838490117));
#758=CARTESIAN_POINT('',(-0.00949725240445769,-0.001,-0.00837783838490116));
#759=CARTESIAN_POINT('',(-0.00862,-0.001,-0.005112));
#760=CARTESIAN_POINT('',(-0.0120016079219338,0.,0.0050010000000475));
#761=CARTESIAN_POINT('',(-0.012001607921924,-0.0010000177999473,-0.005112));
#762=CARTESIAN_POINT('',(-0.012001607921924,-0.00100059954539799,-0.00474093889981082));
#763=CARTESIAN_POINT('',(-0.0120016079219338,-0.00101532129814103,-0.00437035028805344));
#764=CARTESIAN_POINT('',(-0.0120016079219338,-0.001037175286878,-0.00400000000000625));
#765=CARTESIAN_POINT('',(-0.002,-0.004,0.));
#766=CARTESIAN_POINT('',(-0.00949725240445769,-0.001,-0.00837783838490116));
#767=CARTESIAN_POINT('',(-0.0105233412971208,-0.001,-0.00745960064095398));
#768=CARTESIAN_POINT('',(-0.0113723012352628,-0.001,-0.00636042279103236));
#769=CARTESIAN_POINT('',(-0.01200153094166,-0.001,-0.00513481727451785));
#770=CARTESIAN_POINT('',(-0.002,-0.00187867965644037,0.));
#771=CARTESIAN_POINT('',(-0.002,-0.00187867965644577,0.));
#772=CARTESIAN_POINT('',(-0.002,-0.00414644660940635,0.));
#773=CARTESIAN_POINT('',(-0.002,-0.00187867965644577,0.));
#774=CARTESIAN_POINT('',(-0.002,-0.00187867965644577,0.));
#775=CARTESIAN_POINT('',(-0.002,-0.00379289321881345,0.));
#776=CARTESIAN_POINT('',(-0.002,-0.004,0.));
#777=CARTESIAN_POINT('',(-0.0119987396207357,-0.001,0.0051402505402364));
#778=CARTESIAN_POINT('',(-0.0114076321241435,-0.001,0.00629006413395634));
#779=CARTESIAN_POINT('',(-0.0106224523738636,-0.001,0.00732964260221194));
#780=CARTESIAN_POINT('',(-0.00967745359478659,-0.001,0.00821301868496404));
#781=CARTESIAN_POINT('',(-4.42950266267164E-5,-0.001,-5.54999999815115E-5));
#782=CARTESIAN_POINT('',(-4.42950266267164E-5,-0.001,-5.54999999815115E-5));
#783=CARTESIAN_POINT('',(0.00549191924988539,-0.001,0.00838260792193377));
#784=CARTESIAN_POINT('',(0.00608020810460809,-0.001,0.00785682732522262));
#785=CARTESIAN_POINT('',(0.00713126181908337,-0.001,0.00670177362422619));
#786=CARTESIAN_POINT('',(0.00836140675343537,-0.001,0.00458886259962472));
#787=CARTESIAN_POINT('',(0.00909885438075765,-0.001,0.00226298105264658));
#788=CARTESIAN_POINT('',(0.00932282771818953,-0.001,-8.45890183021758E-5));
#789=CARTESIAN_POINT('',(0.00906379647425015,-0.001,-0.00242856300858406));
#790=CARTESIAN_POINT('',(0.00829172134147486,-0.001,-0.00474313003270064));
#791=CARTESIAN_POINT('',(0.00702998987700564,-0.001,-0.00683756072095256));
#792=CARTESIAN_POINT('',(0.00596218248633028,-0.001,-0.0079764465938325));
#793=CARTESIAN_POINT('',(0.00536583967303107,-0.001,-0.00849360792189465));
#794=CARTESIAN_POINT('',(-0.002,-0.004,0.));
#795=CARTESIAN_POINT('',(-4.42950266267164E-5,-0.001,-5.54999999815115E-5));
#796=MECHANICAL_DESIGN_GEOMETRIC_PRESENTATION_REPRESENTATION('',(#433),
#797);
#797=(
GEOMETRIC_REPRESENTATION_CONTEXT(3)
GLOBAL_UNCERTAINTY_ASSIGNED_CONTEXT((#798))
GLOBAL_UNIT_ASSIGNED_CONTEXT((#801,#800,#799))
REPRESENTATION_CONTEXT('KP0042-01_PConnectCoverCapA',
'TOP_LEVEL_ASSEMBLY_PART')
);
#798=UNCERTAINTY_MEASURE_WITH_UNIT(LENGTH_MEASURE(2.E-5),#801,
'DISTANCE_ACCURACY_VALUE','Maximum Tolerance applied to model');
#799=(
NAMED_UNIT(*)
SI_UNIT($,.STERADIAN.)
SOLID_ANGLE_UNIT()
);
#800=(
NAMED_UNIT(*)
PLANE_ANGLE_UNIT()
SI_UNIT($,.RADIAN.)
);
#801=(
LENGTH_UNIT()
NAMED_UNIT(*)
SI_UNIT($,.METRE.)
);
#802=PRODUCT_DEFINITION_SHAPE('','',#803);
#803=PRODUCT_DEFINITION('','',#805,#804);
#804=PRODUCT_DEFINITION_CONTEXT('',#811,'design');
#805=PRODUCT_DEFINITION_FORMATION_WITH_SPECIFIED_SOURCE('','',#807,
 .NOT_KNOWN.);
#806=PRODUCT_RELATED_PRODUCT_CATEGORY('','',(#807));
#807=PRODUCT('KP0042-01_PConnectCoverCapA',
'KP0042-01_PConnectCoverCapA','KP0042-01_PConnectCoverCapA',(#809));
#808=PRODUCT_CATEGORY('','');
#809=PRODUCT_CONTEXT('',#811,'mechanical');
#810=APPLICATION_PROTOCOL_DEFINITION('international standard',
'automotive_design',2010,#811);
#811=APPLICATION_CONTEXT(
'core data for automotive mechanical design processes');
ENDSEC;
END-ISO-10303-21;
