ISO-10303-21;
HEADER;
/* Generated by software containing ST-Developer
 * from STEP Tools, Inc. (www.steptools.com) 
 */
/* OPTION: using custom renumber hook */

FILE_DESCRIPTION(
/* description */ ('STEP AP214',
'CAx-IF Rec.Pracs.---User Defined Attributes---1.5---2016-08-15'),
/* implementation_level */ '2;1');

FILE_NAME(
/* name */ '6a65b55465321e5002a567de',
/* time_stamp */ '2026-07-26T07:20:52Z',
/* author */ (''),
/* organization */ (''),
/* preprocessor_version */ 'ST-DEVELOPER v20',
/* originating_system */ 'ONSHAPE BY PTC INC, 1.218',
/* authorisation */ '  ');

FILE_SCHEMA (('AUTOMOTIVE_DESIGN {1 0 10303 214 3 1 1}'));
ENDSEC;

DATA;
#10=PROPERTY_DEFINITION_REPRESENTATION(#14,#12);
#11=PROPERTY_DEFINITION_REPRESENTATION(#15,#13);
#12=REPRESENTATION('',(#16),#412);
#13=REPRESENTATION('',(#17),#412);
#14=PROPERTY_DEFINITION('pmi validation property','',#417);
#15=PROPERTY_DEFINITION('pmi validation property','',#417);
#16=VALUE_REPRESENTATION_ITEM('number of annotations',COUNT_MEASURE(0.));
#17=VALUE_REPRESENTATION_ITEM('number of views',COUNT_MEASURE(0.));
#18=SHAPE_REPRESENTATION_RELATIONSHIP('','',#152,#19);
#19=ADVANCED_BREP_SHAPE_REPRESENTATION('',(#150),#412);
#20=B_SPLINE_CURVE_WITH_KNOTS('',3,(#220,#221,#222,#223,#224,#225,#226,
#227,#228,#229,#230,#231,#232,#233,#234,#235,#236,#237,#238,#239,#240,#241,
#242,#243,#244,#245,#246,#247,#248,#249,#250,#251,#252,#253,#254),
 .UNSPECIFIED.,.T.,.F.,(1,1,1,1,1,1,1,1,1,1,1,1,1,1,1,1,1,1,1,1,1,1,1,1,
1,1,1,1,1,1,1,1,1,1,1,1,1,1,1),(-0.0953949419202336,-0.0641447470960117,
-0.0320723735480059,0.,0.0296875,0.059375,0.09203125,0.1233515625,0.154605078125,
0.18585525390625,0.216324008300781,0.246792762695313,0.278003700415039,
0.309214638134766,0.342023231906738,0.373351161595337,0.404605058079767,
0.435855252903988,0.466324007774594,0.496792762645199,0.52800370038873,
0.55921463813226,0.592023231906613,0.623351161595331,0.654605058079767,
0.685855252903988,0.716324007774594,0.746792762645199,0.77800370038873,
0.80921463813226,0.842023231906613,0.873351161595331,0.904605058079766,
0.935855252903988,0.967927626451994,1.,1.0296875,1.059375,1.09203125),
 .UNSPECIFIED.);
#21=B_SPLINE_CURVE_WITH_KNOTS('',3,(#257,#258,#259,#260,#261,#262,#263,
#264,#265,#266,#267,#268,#269,#270,#271,#272,#273,#274,#275,#276,#277,#278,
#279,#280,#281,#282,#283,#284,#285,#286,#287,#288,#289,#290,#291),
 .UNSPECIFIED.,.T.,.F.,(1,1,1,1,1,1,1,1,1,1,1,1,1,1,1,1,1,1,1,1,1,1,1,1,
1,1,1,1,1,1,1,1,1,1,1,1,1,1,1),(-0.0953947368421053,-0.0641447368421053,
-0.0328947368421053,0.,0.0296875,0.060859375,0.09210546875,0.1233552734375,
0.154605263671875,0.185855263183594,0.21710526315918,0.248355263157959,
0.279605263157898,0.310855263157895,0.342105263157895,0.373355263157895,
0.404605263157895,0.435855263157895,0.467105263157895,0.498355263157895,
0.529605263157895,0.560855263157895,0.592105263157895,0.623355263157895,
0.654605263157895,0.685855263157895,0.717105263157895,0.748355263157895,
0.779605263157895,0.810855263157895,0.842105263157895,0.873355263157895,
0.904605263157895,0.935855263157895,0.967105263157895,1.,1.0296875,1.060859375,
1.09210546875),.UNSPECIFIED.);
#22=B_SPLINE_CURVE_WITH_KNOTS('',3,(#294,#295,#296,#297,#298,#299,#300,
#301,#302,#303,#304,#305,#306,#307,#308,#309,#310,#311,#312,#313,#314,#315,
#316,#317,#318,#319,#320,#321,#322,#323,#324,#325,#326,#327,#328),
 .UNSPECIFIED.,.T.,.F.,(1,1,1,1,1,1,1,1,1,1,1,1,1,1,1,1,1,1,1,1,1,1,1,1,
1,1,1,1,1,1,1,1,1,1,1,1,1,1,1),(-0.0953949419202336,-0.0641447470960117,
-0.0320723735480059,0.,0.0296875,0.059375,0.09203125,0.1233515625,0.154605078125,
0.18585525390625,0.216324008300781,0.246792762695313,0.278003700415039,
0.309214638134766,0.342023231906738,0.373351161595337,0.404605058079767,
0.435855252903988,0.466324007774594,0.496792762645199,0.52800370038873,
0.55921463813226,0.592023231906613,0.623351161595331,0.654605058079767,
0.685855252903988,0.716324007774594,0.746792762645199,0.77800370038873,
0.80921463813226,0.842023231906613,0.873351161595331,0.904605058079766,
0.935855252903988,0.967927626451994,1.,1.0296875,1.059375,1.09203125),
 .UNSPECIFIED.);
#23=B_SPLINE_CURVE_WITH_KNOTS('',3,(#337,#338,#339,#340,#341,#342,#343,
#344,#345,#346,#347,#348,#349,#350,#351,#352,#353,#354,#355,#356,#357,#358,
#359,#360,#361,#362,#363,#364,#365,#366,#367,#368,#369,#370,#371),
 .UNSPECIFIED.,.T.,.F.,(1,1,1,1,1,1,1,1,1,1,1,1,1,1,1,1,1,1,1,1,1,1,1,1,
1,1,1,1,1,1,1,1,1,1,1,1,1,1,1),(-0.0953947368421053,-0.0641447368421053,
-0.0328947368421053,0.,0.0296875,0.060859375,0.09210546875,0.1233552734375,
0.154605263671875,0.185855263183594,0.21710526315918,0.248355263157959,
0.279605263157898,0.310855263157895,0.342105263157895,0.373355263157895,
0.404605263157895,0.435855263157895,0.467105263157895,0.498355263157895,
0.529605263157895,0.560855263157895,0.592105263157895,0.623355263157895,
0.654605263157895,0.685855263157895,0.717105263157895,0.748355263157895,
0.779605263157895,0.810855263157895,0.842105263157895,0.873355263157895,
0.904605263157895,0.935855263157895,0.967105263157895,1.,1.0296875,1.060859375,
1.09210546875),.UNSPECIFIED.);
#24=B_SPLINE_CURVE_WITH_KNOTS('',3,(#374,#375,#376,#377,#378,#379,#380,
#381,#382,#383,#384,#385,#386,#387,#388,#389,#390,#391,#392,#393,#394,#395,
#396,#397,#398,#399,#400,#401,#402,#403,#404,#405,#406,#407,#408),
 .UNSPECIFIED.,.T.,.F.,(1,1,1,1,1,1,1,1,1,1,1,1,1,1,1,1,1,1,1,1,1,1,1,1,
1,1,1,1,1,1,1,1,1,1,1,1,1,1,1),(-0.0953947368421053,-0.0641447368421053,
-0.0328947368421053,0.,0.0296875,0.060859375,0.09210546875,0.1233552734375,
0.154605263671875,0.185855263183594,0.21710526315918,0.248355263157959,
0.279605263157898,0.310855263157895,0.342105263157895,0.373355263157895,
0.404605263157895,0.435855263157895,0.467105263157895,0.498355263157895,
0.529605263157895,0.560855263157895,0.592105263157895,0.623355263157895,
0.654605263157895,0.685855263157895,0.717105263157895,0.748355263157895,
0.779605263157895,0.810855263157895,0.842105263157895,0.873355263157895,
0.904605263157895,0.935855263157895,0.967105263157895,1.,1.0296875,1.060859375,
1.09210546875),.UNSPECIFIED.);
#25=TOROIDAL_SURFACE('',#161,0.0044,0.0003);
#26=TOROIDAL_SURFACE('',#164,0.00629160797830996,0.0003);
#27=TOROIDAL_SURFACE('',#166,0.0048,0.0003);
#28=TOROIDAL_SURFACE('',#168,0.0057,0.0003);
#29=TOROIDAL_SURFACE('',#169,0.00539160797830996,0.0003);
#30=CYLINDRICAL_SURFACE('',#157,0.0041);
#31=CYLINDRICAL_SURFACE('',#159,0.0075);
#32=ORIENTED_EDGE('',*,*,#54,.F.);
#33=ORIENTED_EDGE('',*,*,#55,.F.);
#34=ORIENTED_EDGE('',*,*,#56,.F.);
#35=ORIENTED_EDGE('',*,*,#54,.T.);
#36=ORIENTED_EDGE('',*,*,#57,.T.);
#37=ORIENTED_EDGE('',*,*,#55,.T.);
#38=ORIENTED_EDGE('',*,*,#58,.T.);
#39=ORIENTED_EDGE('',*,*,#56,.T.);
#40=ORIENTED_EDGE('',*,*,#59,.T.);
#41=ORIENTED_EDGE('',*,*,#57,.F.);
#42=ORIENTED_EDGE('',*,*,#58,.F.);
#43=ORIENTED_EDGE('',*,*,#60,.F.);
#44=ORIENTED_EDGE('',*,*,#61,.F.);
#45=ORIENTED_EDGE('',*,*,#59,.F.);
#46=ORIENTED_EDGE('',*,*,#62,.T.);
#47=ORIENTED_EDGE('',*,*,#60,.T.);
#48=ORIENTED_EDGE('',*,*,#61,.T.);
#49=ORIENTED_EDGE('',*,*,#63,.T.);
#50=ORIENTED_EDGE('',*,*,#62,.F.);
#51=ORIENTED_EDGE('',*,*,#64,.F.);
#52=ORIENTED_EDGE('',*,*,#64,.T.);
#53=ORIENTED_EDGE('',*,*,#63,.F.);
#54=EDGE_CURVE('',#65,#65,#76,.F.);
#55=EDGE_CURVE('',#66,#66,#77,.F.);
#56=EDGE_CURVE('',#67,#67,#78,.F.);
#57=EDGE_CURVE('',#68,#68,#79,.T.);
#58=EDGE_CURVE('',#69,#69,#20,.T.);
#59=EDGE_CURVE('',#70,#70,#21,.T.);
#60=EDGE_CURVE('',#71,#71,#22,.T.);
#61=EDGE_CURVE('',#72,#72,#80,.T.);
#62=EDGE_CURVE('',#73,#73,#81,.F.);
#63=EDGE_CURVE('',#74,#74,#23,.T.);
#64=EDGE_CURVE('',#75,#75,#24,.F.);
#65=VERTEX_POINT('',#210);
#66=VERTEX_POINT('',#212);
#67=VERTEX_POINT('',#215);
#68=VERTEX_POINT('',#218);
#69=VERTEX_POINT('',#255);
#70=VERTEX_POINT('',#292);
#71=VERTEX_POINT('',#329);
#72=VERTEX_POINT('',#332);
#73=VERTEX_POINT('',#335);
#74=VERTEX_POINT('',#372);
#75=VERTEX_POINT('',#409);
#76=CIRCLE('',#155,0.0041);
#77=CIRCLE('',#156,0.0075);
#78=CIRCLE('',#158,0.0041);
#79=CIRCLE('',#160,0.0075);
#80=CIRCLE('',#165,0.00599580398915498);
#81=CIRCLE('',#167,0.00509580398915498);
#82=EDGE_LOOP('',(#32));
#83=EDGE_LOOP('',(#33));
#84=EDGE_LOOP('',(#34));
#85=EDGE_LOOP('',(#35));
#86=EDGE_LOOP('',(#36));
#87=EDGE_LOOP('',(#37));
#88=EDGE_LOOP('',(#38));
#89=EDGE_LOOP('',(#39));
#90=EDGE_LOOP('',(#40));
#91=EDGE_LOOP('',(#41));
#92=EDGE_LOOP('',(#42));
#93=EDGE_LOOP('',(#43));
#94=EDGE_LOOP('',(#44));
#95=EDGE_LOOP('',(#45));
#96=EDGE_LOOP('',(#46));
#97=EDGE_LOOP('',(#47));
#98=EDGE_LOOP('',(#48));
#99=EDGE_LOOP('',(#49));
#100=EDGE_LOOP('',(#50));
#101=EDGE_LOOP('',(#51));
#102=EDGE_LOOP('',(#52));
#103=EDGE_LOOP('',(#53));
#104=FACE_BOUND('',#82,.T.);
#105=FACE_BOUND('',#83,.T.);
#106=FACE_BOUND('',#84,.T.);
#107=FACE_BOUND('',#85,.T.);
#108=FACE_BOUND('',#86,.T.);
#109=FACE_BOUND('',#87,.T.);
#110=FACE_BOUND('',#88,.T.);
#111=FACE_BOUND('',#89,.T.);
#112=FACE_BOUND('',#90,.T.);
#113=FACE_BOUND('',#91,.T.);
#114=FACE_BOUND('',#92,.T.);
#115=FACE_BOUND('',#93,.T.);
#116=FACE_BOUND('',#94,.T.);
#117=FACE_BOUND('',#95,.T.);
#118=FACE_BOUND('',#96,.T.);
#119=FACE_BOUND('',#97,.T.);
#120=FACE_BOUND('',#98,.T.);
#121=FACE_BOUND('',#99,.T.);
#122=FACE_BOUND('',#100,.T.);
#123=FACE_BOUND('',#101,.T.);
#124=FACE_BOUND('',#102,.T.);
#125=FACE_BOUND('',#103,.T.);
#126=PLANE('',#154);
#127=PLANE('',#162);
#128=PLANE('',#163);
#129=PLANE('',#170);
#130=ADVANCED_FACE('',(#104,#105),#126,.F.);
#131=ADVANCED_FACE('',(#106,#107),#30,.F.);
#132=ADVANCED_FACE('',(#108,#109),#31,.T.);
#133=ADVANCED_FACE('',(#110,#111),#25,.T.);
#134=ADVANCED_FACE('',(#112,#113),#127,.T.);
#135=ADVANCED_FACE('',(#114,#115),#128,.F.);
#136=ADVANCED_FACE('',(#116,#117),#26,.F.);
#137=ADVANCED_FACE('',(#118,#119),#27,.T.);
#138=ADVANCED_FACE('',(#120,#121),#28,.T.);
#139=ADVANCED_FACE('',(#122,#123),#29,.F.);
#140=ADVANCED_FACE('',(#124,#125),#129,.F.);
#141=CLOSED_SHELL('',(#130,#131,#132,#133,#134,#135,#136,#137,#138,#139,
#140));
#142=STYLED_ITEM('',(#143),#150);
#143=PRESENTATION_STYLE_ASSIGNMENT((#144));
#144=SURFACE_STYLE_USAGE(.BOTH.,#145);
#145=SURFACE_SIDE_STYLE('',(#146));
#146=SURFACE_STYLE_FILL_AREA(#147);
#147=FILL_AREA_STYLE('',(#148));
#148=FILL_AREA_STYLE_COLOUR('',#149);
#149=COLOUR_RGB('',0.745098039215686,0.745098039215686,0.745098039215686);
#150=MANIFOLD_SOLID_BREP('KP0057-01_BigThreadPullySpacer',#141);
#151=SHAPE_DEFINITION_REPRESENTATION(#417,#152);
#152=SHAPE_REPRESENTATION('KP0057-01_BigThreadPullySpacer',(#153),#412);
#153=AXIS2_PLACEMENT_3D('',#207,#171,#172);
#154=AXIS2_PLACEMENT_3D('',#208,#173,#174);
#155=AXIS2_PLACEMENT_3D('',#209,#175,#176);
#156=AXIS2_PLACEMENT_3D('',#211,#177,#178);
#157=AXIS2_PLACEMENT_3D('',#213,#179,#180);
#158=AXIS2_PLACEMENT_3D('',#214,#181,#182);
#159=AXIS2_PLACEMENT_3D('',#216,#183,#184);
#160=AXIS2_PLACEMENT_3D('',#217,#185,#186);
#161=AXIS2_PLACEMENT_3D('',#219,#187,#188);
#162=AXIS2_PLACEMENT_3D('',#256,#189,#190);
#163=AXIS2_PLACEMENT_3D('',#293,#191,#192);
#164=AXIS2_PLACEMENT_3D('',#330,#193,#194);
#165=AXIS2_PLACEMENT_3D('',#331,#195,#196);
#166=AXIS2_PLACEMENT_3D('',#333,#197,#198);
#167=AXIS2_PLACEMENT_3D('',#334,#199,#200);
#168=AXIS2_PLACEMENT_3D('',#336,#201,#202);
#169=AXIS2_PLACEMENT_3D('',#373,#203,#204);
#170=AXIS2_PLACEMENT_3D('',#410,#205,#206);
#171=DIRECTION('',(0.,0.,1.));
#172=DIRECTION('',(1.,0.,0.));
#173=DIRECTION('',(0.,-1.,0.));
#174=DIRECTION('',(1.,0.,0.));
#175=DIRECTION('',(0.,-1.,0.));
#176=DIRECTION('',(1.,0.,0.));
#177=DIRECTION('',(0.,1.,0.));
#178=DIRECTION('',(-1.,0.,0.));
#179=DIRECTION('',(0.,-1.,0.));
#180=DIRECTION('',(1.,0.,0.));
#181=DIRECTION('',(0.,-1.,0.));
#182=DIRECTION('',(1.,0.,0.));
#183=DIRECTION('',(0.,1.,0.));
#184=DIRECTION('',(-1.,0.,0.));
#185=DIRECTION('',(0.,1.,0.));
#186=DIRECTION('',(-1.,0.,0.));
#187=DIRECTION('',(0.,1.,0.));
#188=DIRECTION('',(-1.,0.,0.));
#189=DIRECTION('',(0.,-1.,0.));
#190=DIRECTION('',(1.,0.,0.));
#191=DIRECTION('',(0.,1.,0.));
#192=DIRECTION('',(-1.,0.,0.));
#193=DIRECTION('',(-1.82355019697668E-18,-1.,-1.08670378809251E-16));
#194=DIRECTION('',(1.,0.,0.));
#195=DIRECTION('',(-1.82355019697668E-18,-1.,-1.08670378809251E-16));
#196=DIRECTION('',(1.,0.,0.));
#197=DIRECTION('',(0.,1.,0.));
#198=DIRECTION('',(-1.,0.,0.));
#199=DIRECTION('',(0.,1.,0.));
#200=DIRECTION('',(-1.,0.,0.));
#201=DIRECTION('',(0.,1.,0.));
#202=DIRECTION('',(-1.,0.,0.));
#203=DIRECTION('',(1.15560946996609E-16,-1.,8.80129698675209E-17));
#204=DIRECTION('',(1.,1.0646952564928E-16,-1.89127870074799E-32));
#205=DIRECTION('',(0.,1.,0.));
#206=DIRECTION('',(-1.,0.,0.));
#207=CARTESIAN_POINT('',(0.,0.,0.));
#208=CARTESIAN_POINT('',(0.,0.0005,0.));
#209=CARTESIAN_POINT('',(0.,0.0005,0.));
#210=CARTESIAN_POINT('',(0.0041,0.0005,0.));
#211=CARTESIAN_POINT('',(0.,0.0005,0.));
#212=CARTESIAN_POINT('',(-0.0075,0.0005,0.));
#213=CARTESIAN_POINT('',(0.,0.,0.));
#214=CARTESIAN_POINT('',(0.,-0.0007,0.));
#215=CARTESIAN_POINT('',(0.0041,-0.0007,-1.00421037530083E-18));
#216=CARTESIAN_POINT('',(0.,0.,0.));
#217=CARTESIAN_POINT('',(0.,0.,0.));
#218=CARTESIAN_POINT('',(-0.0075,0.,0.));
#219=CARTESIAN_POINT('',(0.,-0.0007,0.));
#220=CARTESIAN_POINT('',(0.00434445098532469,-0.001,-0.000853940629572903));
#221=CARTESIAN_POINT('',(0.00442572976142288,-0.001,-2.14392253258763E-5));
#222=CARTESIAN_POINT('',(0.00435232989950451,-0.001,0.00079144079594986));
#223=CARTESIAN_POINT('',(0.0041418594970564,-0.001,0.00156262968470717));
#224=CARTESIAN_POINT('',(0.00374572188354676,-0.001,0.00237172945069791));
#225=CARTESIAN_POINT('',(0.00316781355782575,-0.001,0.00309843615063445));
#226=CARTESIAN_POINT('',(0.00246487424020412,-0.001,0.00368350737809107));
#227=CARTESIAN_POINT('',(0.00166658008243746,-0.001,0.00410126055400507));
#228=CARTESIAN_POINT('',(0.000894462154926167,-0.001,0.00433352063084122));
#229=CARTESIAN_POINT('',(8.10328340675807E-5,-0.001,0.00442498439118129));
#230=CARTESIAN_POINT('',(-0.000748531539635343,-0.001,0.00436245360504717));
#231=CARTESIAN_POINT('',(-0.00154691805203621,-0.001,0.00414930462233991));
#232=CARTESIAN_POINT('',(-0.00237034251947364,-0.001,0.00374679613055432));
#233=CARTESIAN_POINT('',(-0.00309840739853554,-0.001,0.00316786170901748));
#234=CARTESIAN_POINT('',(-0.00368349895979877,-0.001,0.0024648818339952));
#235=CARTESIAN_POINT('',(-0.00410126219038849,-0.001,0.00166657923108976));
#236=CARTESIAN_POINT('',(-0.00433352018049675,-0.001,0.000894462442009348));
#237=CARTESIAN_POINT('',(-0.00442498451486382,-0.001,8.10327642855826E-5));
#238=CARTESIAN_POINT('',(-0.00436245357185843,-0.001,-0.000748531518643958));
#239=CARTESIAN_POINT('',(-0.00414930463193294,-0.001,-0.0015469180575696));
#240=CARTESIAN_POINT('',(-0.00374679612803824,-0.001,-0.00237034251789635));
#241=CARTESIAN_POINT('',(-0.00316786170992648,-0.001,-0.00309840739913067));
#242=CARTESIAN_POINT('',(-0.0024648818328382,-0.001,-0.00368349895893681));
#243=CARTESIAN_POINT('',(-0.00166657923477068,-0.001,-0.00410126219321003));
#244=CARTESIAN_POINT('',(-0.000894462428804651,-0.001,-0.00433352017035145));
#245=CARTESIAN_POINT('',(-8.10328140728206E-5,-0.001,-0.0044249845531233));
#246=CARTESIAN_POINT('',(0.000748531709498246,-0.001,-0.0043624534251927));
#247=CARTESIAN_POINT('',(0.00154691733047253,-0.001,-0.0041493051906936));
#248=CARTESIAN_POINT('',(0.00237034533139554,-0.001,-0.00374679396591527));
#249=CARTESIAN_POINT('',(0.00309839745109274,-0.001,-0.00316786935481359));
#250=CARTESIAN_POINT('',(0.00368353603853672,-0.001,-0.00246485333783631));
#251=CARTESIAN_POINT('',(0.00410832794845049,-0.001,-0.00165291744635947));
#252=CARTESIAN_POINT('',(0.00434445098532469,-0.001,-0.000853940629572903));
#253=CARTESIAN_POINT('',(0.00442572976142288,-0.001,-2.14392253258763E-5));
#254=CARTESIAN_POINT('',(0.00435232989950451,-0.001,0.00079144079594986));
#255=CARTESIAN_POINT('',(0.0044,-0.001,5.38844591624835E-19));
#256=CARTESIAN_POINT('',(0.,0.,0.));
#257=CARTESIAN_POINT('',(0.00622092022298582,0.,0.00117493680329426));
#258=CARTESIAN_POINT('',(0.00632476491960585,0.,3.30851957928538E-5));
#259=CARTESIAN_POINT('',(0.00622947644307052,0.,-0.00110328150463733));
#260=CARTESIAN_POINT('',(0.00591289332266897,0.,-0.00226909101874444));
#261=CARTESIAN_POINT('',(0.00533967980247635,0.,-0.00341028034932189));
#262=CARTESIAN_POINT('',(0.00452617901649345,0.,-0.00443539013938796));
#263=CARTESIAN_POINT('',(0.00351658300046611,0.,-0.00527052262757009));
#264=CARTESIAN_POINT('',(0.002382242763259,0.,-0.0058687427586145));
#265=CARTESIAN_POINT('',(0.00119537142450036,0.,-0.00621493146236076));
#266=CARTESIAN_POINT('',(5.51476266719697E-5,0.,-0.00632450584349493));
#267=CARTESIAN_POINT('',(-0.00108187847742202,0.,-0.00623520179875301));
#268=CARTESIAN_POINT('',(-0.00226789748391765,0.,-0.00591344295459152));
#269=CARTESIAN_POINT('',(-0.00341026943860852,0.,-0.00533971012745576));
#270=CARTESIAN_POINT('',(-0.0044353783809212,0.,-0.00452618321062191));
#271=CARTESIAN_POINT('',(-0.0052705251879626,0.,-0.00351658262994168));
#272=CARTESIAN_POINT('',(-0.00586874205181036,0.,-0.00238224290444976));
#273=CARTESIAN_POINT('',(-0.00621493165116983,0.,-0.00119537138883723));
#274=CARTESIAN_POINT('',(-0.00632450579289581,0.,-5.51476363335027E-5));
#275=CARTESIAN_POINT('',(-0.00623520181231235,0.,0.00108187848000939));
#276=CARTESIAN_POINT('',(-0.00591344295095544,0.,0.00226789748321141));
#277=CARTESIAN_POINT('',(-0.00533971012844049,0.,0.00341026943884654));
#278=CARTESIAN_POINT('',(-0.00452618321031803,0.,0.00443537838067816));
#279=CARTESIAN_POINT('',(-0.00351658263016975,0.,0.0052705251886998));
#280=CARTESIAN_POINT('',(-0.00238224290383952,0.,0.00586874204910615));
#281=CARTESIAN_POINT('',(-0.00119537139105017,0.,0.00621493166124912));
#282=CARTESIAN_POINT('',(-5.51476280921599E-5,0.,0.00632450575528311));
#283=CARTESIAN_POINT('',(0.00108187844925689,0.,0.00623520195268359));
#284=CARTESIAN_POINT('',(0.00226789759797992,0.,0.00591344242708347));
#285=CARTESIAN_POINT('',(0.00341026901052659,0.,0.00533971208355657));
#286=CARTESIAN_POINT('',(0.00443537997919003,0.,0.00452617591372533));
#287=CARTESIAN_POINT('',(0.00527051922297162,0.,0.00351660986142479));
#288=CARTESIAN_POINT('',(0.00586876431350698,0.,0.00238214127541236));
#289=CARTESIAN_POINT('',(0.00622092022298582,0.,0.00117493680329426));
#290=CARTESIAN_POINT('',(0.00632476491960585,0.,3.30851957928538E-5));
#291=CARTESIAN_POINT('',(0.00622947644307052,0.,-0.00110328150463733));
#292=CARTESIAN_POINT('',(0.0062916059050166,0.,-5.10770925109824E-6));
#293=CARTESIAN_POINT('',(0.,-0.001,0.));
#294=CARTESIAN_POINT('',(0.00473940034004215,-0.001,0.000931550433406285));
#295=CARTESIAN_POINT('',(0.00482806906343926,-0.001,2.33989603623953E-5));
#296=CARTESIAN_POINT('',(0.00474799601664724,-0.001,-0.000863411454978224));
#297=CARTESIAN_POINT('',(0.00451839293971124,-0.001,-0.00170468282026228));
#298=CARTESIAN_POINT('',(0.00408623900275993,-0.001,-0.00258734811825296));
#299=CARTESIAN_POINT('',(0.00345579437891344,-0.001,-0.00338011524069637));
#300=CARTESIAN_POINT('',(0.0026889471950369,-0.001,-0.00401837533955949));
#301=CARTESIAN_POINT('',(0.00181809283671896,-0.001,-0.00447410321542201));
#302=CARTESIAN_POINT('',(0.000975737039901538,-0.001,-0.00472748330455373));
#303=CARTESIAN_POINT('',(8.84124131514488E-5,-0.001,-0.00482725726909973));
#304=CARTESIAN_POINT('',(-0.00081661958617763,-0.001,-0.00475903275829262));
#305=CARTESIAN_POINT('',(-0.00168754181745839,-0.001,-0.00452651553291627));
#306=CARTESIAN_POINT('',(-0.00258583535155197,-0.001,-0.00408741074540957));
#307=CARTESIAN_POINT('',(-0.00338008381261011,-0.001,-0.00345584694904011));
#308=CARTESIAN_POINT('',(-0.00401836617267085,-0.001,-0.00268895546803424));
#309=CARTESIAN_POINT('',(-0.00447410499622106,-0.001,-0.00181809191086723));
#310=CARTESIAN_POINT('',(-0.00472748281441975,-0.001,-0.000975737352321335));
#311=CARTESIAN_POINT('',(-0.00482725740370947,-0.001,-8.84123372355825E-5));
#312=CARTESIAN_POINT('',(-0.00475903272217238,-0.001,0.000816619563335088));
#313=CARTESIAN_POINT('',(-0.00452651554335686,-0.001,0.00168754182347791));
#314=CARTESIAN_POINT('',(-0.00408741074267203,-0.001,0.00258583534983865));
#315=CARTESIAN_POINT('',(-0.00345584695002647,-0.001,0.00338008381324751));
#316=CARTESIAN_POINT('',(-0.00268895546678631,-0.001,0.00401836617177022));
#317=CARTESIAN_POINT('',(-0.00181809191483282,-0.001,0.00447410499915268));
#318=CARTESIAN_POINT('',(-0.00097573733809855,-0.001,0.00472748280388241));
#319=CARTESIAN_POINT('',(-8.84123908669663E-5,-0.001,0.00482725744344631));
#320=CARTESIAN_POINT('',(0.000816619768925789,-0.001,0.00475903256984354));
#321=CARTESIAN_POINT('',(0.00168754104022813,-0.001,0.00452651612369253));
#322=CARTESIAN_POINT('',(0.00258583838062154,-0.001,0.00408740849706466));
#323=CARTESIAN_POINT('',(0.00338007309692934,-0.001,0.00345585489010133));
#324=CARTESIAN_POINT('',(0.00401840611500362,-0.001,0.0026889258715226));
#325=CARTESIAN_POINT('',(0.00448181496024273,-0.001,0.00180318272921017));
#326=CARTESIAN_POINT('',(0.00473940034004215,-0.001,0.000931550433406285));
#327=CARTESIAN_POINT('',(0.00482806906343926,-0.001,2.33989603623953E-5));
#328=CARTESIAN_POINT('',(0.00474799601664724,-0.001,-0.000863411454978224));
#329=CARTESIAN_POINT('',(0.0048,-0.001,5.87830463590729E-19));
#330=CARTESIAN_POINT('',(-2.4980018054066E-18,-0.0003,7.11236625150491E-19));
#331=CARTESIAN_POINT('',(-2.49791062789675E-18,-0.00025,7.16670144090954E-19));
#332=CARTESIAN_POINT('',(0.00599580398915498,-0.00025,7.16670144090954E-19));
#333=CARTESIAN_POINT('',(0.,-0.0007,0.));
#334=CARTESIAN_POINT('',(0.,-0.00075,0.));
#335=CARTESIAN_POINT('',(-0.00509580398915498,-0.00075,0.));
#336=CARTESIAN_POINT('',(0.,-0.0002,0.));
#337=CARTESIAN_POINT('',(0.00563509148569931,-0.0005,0.00106903774957111));
#338=CARTESIAN_POINT('',(0.0057300134328913,-0.0005,3.46236466797212E-5));
#339=CARTESIAN_POINT('',(0.00564451985745699,-0.0005,-0.000994953580792463));
#340=CARTESIAN_POINT('',(0.00535856513715565,-0.0005,-0.00205137061375737));
#341=CARTESIAN_POINT('',(0.00484009167374941,-0.0005,-0.00308567474030561));
#342=CARTESIAN_POINT('',(0.00410384066502243,-0.0005,-0.00401499040152181));
#343=CARTESIAN_POINT('',(0.00318979352915566,-0.0005,-0.00477233742046797));
#344=CARTESIAN_POINT('',(0.00216255752892284,-0.0005,-0.00531514121055483));
#345=CARTESIAN_POINT('',(0.00108754452676446,-0.0005,-0.00562965106236098));
#346=CARTESIAN_POINT('',(5.46186405830665E-5,-0.0005,-0.00572976153147279));
#347=CARTESIAN_POINT('',(-0.000975556781867971,-0.0005,-0.0056496920715263));
#348=CARTESIAN_POINT('',(-0.0020502894668327,-0.0005,-0.00535906194389456));
#349=CARTESIAN_POINT('',(-0.0030856646815117,-0.0005,-0.00484011921034499));
#350=CARTESIAN_POINT('',(-0.00401497978625241,-0.0005,-0.00410384443707321));
#351=CARTESIAN_POINT('',(-0.00477233972949072,-0.0005,-0.00318979320046054));
#352=CARTESIAN_POINT('',(-0.0053151405730255,-0.0005,-0.00216255765494897));
#353=CARTESIAN_POINT('',(-0.0056296512326608,-0.0005,-0.00108754449495992));
#354=CARTESIAN_POINT('',(-0.00572976148583388,-0.0005,-5.46186492006593E-5));
#355=CARTESIAN_POINT('',(-0.0056496920837564,-0.0005,0.000975556784175456));
#356=CARTESIAN_POINT('',(-0.00535906194061499,-0.0005,0.00205028946620238));
#357=CARTESIAN_POINT('',(-0.00484011921123347,-0.0005,0.00308566468172432));
#358=CARTESIAN_POINT('',(-0.00410384443679917,-0.0005,0.00401497978603163));
#359=CARTESIAN_POINT('',(-0.00318979320066796,-0.0005,0.00477233973016175));
#360=CARTESIAN_POINT('',(-0.00216255765439252,-0.0005,0.00531514057056267));
#361=CARTESIAN_POINT('',(-0.00108754449697873,-0.0005,0.00562965124184081));
#362=CARTESIAN_POINT('',(-5.46186416823794E-5,-0.0005,0.0057297614515766));
#363=CARTESIAN_POINT('',(0.000975556756121144,-0.0005,0.0056496922116055));
#364=CARTESIAN_POINT('',(0.00205028957090046,-0.0005,0.00535906146347584));
#365=CARTESIAN_POINT('',(0.00308566429098744,-0.0005,0.00484012099194098));
#366=CARTESIAN_POINT('',(0.00401498124428326,-0.0005,0.00410383779110701));
#367=CARTESIAN_POINT('',(0.00477233428789164,-0.0005,0.00318981800272928));
#368=CARTESIAN_POINT('',(0.00531516088139082,-0.0005,0.00216246509184037));
#369=CARTESIAN_POINT('',(0.00563509148569931,-0.0005,0.00106903774957111));
#370=CARTESIAN_POINT('',(0.0057300134328913,-0.0005,3.46236466797212E-5));
#371=CARTESIAN_POINT('',(0.00564451985745699,-0.0005,-0.000994953580792463));
#372=CARTESIAN_POINT('',(0.0057,-0.0005,6.98048675513991E-19));
#373=CARTESIAN_POINT('',(-5.55111512312578E-19,-0.000800000000000001,8.06646416329215E-19));
#374=CARTESIAN_POINT('',(0.00532938766135455,-0.0005,-0.00101552940580288));
#375=CARTESIAN_POINT('',(0.0054199694855434,-0.0005,-3.71491462025191E-5));
#376=CARTESIAN_POINT('',(0.00533989150236733,-0.0005,0.000936786315428062));
#377=CARTESIAN_POINT('',(0.00507022058819173,-0.0005,0.00193626497419938));
#378=CARTESIAN_POINT('',(0.00458059326730015,-0.0005,0.00291500766669941));
#379=CARTESIAN_POINT('',(0.00388489074391325,-0.0005,0.00379460898212368));
#380=CARTESIAN_POINT('',(0.00302087936935864,-0.0005,0.00451168273376216));
#381=CARTESIAN_POINT('',(0.00204963820322674,-0.0005,0.00502590793777888));
#382=CARTESIAN_POINT('',(0.00103302959545707,-0.0005,0.00532422751181015));
#383=CARTESIAN_POINT('',(5.60663447765665E-5,-0.0005,0.00541971530298414));
#384=CARTESIAN_POINT('',(-0.00091843377170364,-0.0005,0.00534476953700011));
#385=CARTESIAN_POINT('',(-0.00193524226388349,-0.0005,0.0050706895334289));
#386=CARTESIAN_POINT('',(-0.00291499804366105,-0.0005,0.0045806193471885));
#387=CARTESIAN_POINT('',(-0.0037945989616629,-0.0005,0.00388489429278795));
#388=CARTESIAN_POINT('',(-0.004511684911845,-0.0005,0.0030208790631529));
#389=CARTESIAN_POINT('',(-0.0050259073363246,-0.0005,0.00204963832115873));
#390=CARTESIAN_POINT('',(-0.00532422767247099,-0.0005,0.00103302956571352));
#391=CARTESIAN_POINT('',(-0.0054197152599282,-0.0005,5.60663528365509E-5));
#392=CARTESIAN_POINT('',(-0.00534476954853821,-0.0005,-0.000918433773862033));
#393=CARTESIAN_POINT('',(-0.00507068953033444,-0.0005,-0.00193524226329547));
#394=CARTESIAN_POINT('',(-0.00458061934802653,-0.0005,-0.0029149980438604));
#395=CARTESIAN_POINT('',(-0.00388489429252954,-0.0005,-0.00379459896145367));
#396=CARTESIAN_POINT('',(-0.00302087906335005,-0.0005,-0.00451168491248114));
#397=CARTESIAN_POINT('',(-0.00204963832063017,-0.0005,-0.00502590733398751));
#398=CARTESIAN_POINT('',(-0.00103302956763441,-0.0005,-0.00532422768118143));
#399=CARTESIAN_POINT('',(-5.60663456853104E-5,-0.0005,-0.00541971522742232));
#400=CARTESIAN_POINT('',(0.00091843374717533,-0.0005,-0.00534476966985129));
#401=CARTESIAN_POINT('',(0.00193524236288987,-0.0005,-0.00507068907758798));
#402=CARTESIAN_POINT('',(0.00291499767216962,-0.0005,-0.00458062103769953));
#403=CARTESIAN_POINT('',(0.00379460034862307,-0.0005,-0.00388488798658351));
#404=CARTESIAN_POINT('',(0.00451167973549327,-0.0005,-0.00302090259746195));
#405=CARTESIAN_POINT('',(0.00502592665477164,-0.0005,-0.00204955049012679));
#406=CARTESIAN_POINT('',(0.00532938766135455,-0.0005,-0.00101552940580288));
#407=CARTESIAN_POINT('',(0.0054199694855434,-0.0005,-3.71491462025191E-5));
#408=CARTESIAN_POINT('',(0.00533989150236733,-0.0005,0.000936786315428062));
#409=CARTESIAN_POINT('',(0.00539160620159643,-0.0005,-4.37706323153689E-6));
#410=CARTESIAN_POINT('',(0.,-0.0005,0.));
#411=MECHANICAL_DESIGN_GEOMETRIC_PRESENTATION_REPRESENTATION('',(#142),
#412);
#412=(
GEOMETRIC_REPRESENTATION_CONTEXT(3)
GLOBAL_UNCERTAINTY_ASSIGNED_CONTEXT((#413))
GLOBAL_UNIT_ASSIGNED_CONTEXT((#416,#415,#414))
REPRESENTATION_CONTEXT('KP0057-01_BigThreadPullySpacer',
'TOP_LEVEL_ASSEMBLY_PART')
);
#413=UNCERTAINTY_MEASURE_WITH_UNIT(LENGTH_MEASURE(2.E-5),#416,
'DISTANCE_ACCURACY_VALUE','Maximum Tolerance applied to model');
#414=(
NAMED_UNIT(*)
SI_UNIT($,.STERADIAN.)
SOLID_ANGLE_UNIT()
);
#415=(
NAMED_UNIT(*)
PLANE_ANGLE_UNIT()
SI_UNIT($,.RADIAN.)
);
#416=(
LENGTH_UNIT()
NAMED_UNIT(*)
SI_UNIT($,.METRE.)
);
#417=PRODUCT_DEFINITION_SHAPE('','',#418);
#418=PRODUCT_DEFINITION('','',#420,#419);
#419=PRODUCT_DEFINITION_CONTEXT('',#426,'design');
#420=PRODUCT_DEFINITION_FORMATION_WITH_SPECIFIED_SOURCE('','',#422,
 .NOT_KNOWN.);
#421=PRODUCT_RELATED_PRODUCT_CATEGORY('','',(#422));
#422=PRODUCT('KP0057-01_BigThreadPullySpacer',
'KP0057-01_BigThreadPullySpacer','KP0057-01_BigThreadPullySpacer',(#424));
#423=PRODUCT_CATEGORY('','');
#424=PRODUCT_CONTEXT('',#426,'mechanical');
#425=APPLICATION_PROTOCOL_DEFINITION('international standard',
'automotive_design',2010,#426);
#426=APPLICATION_CONTEXT(
'core data for automotive mechanical design processes');
ENDSEC;
END-ISO-10303-21;
