ISO-10303-21;
HEADER;
/* Generated by software containing ST-Developer
 * from STEP Tools, Inc. (www.steptools.com) 
 */
/* OPTION: using custom renumber hook */

FILE_DESCRIPTION(
/* description */ ('STEP AP214',
'CAx-IF Rec.Pracs.---User Defined Attributes---1.5---2016-08-15'),
/* implementation_level */ '2;1');

FILE_NAME(
/* name */ '6a65b5633184da9fa51bbef8',
/* time_stamp */ '2026-07-26T07:21:08Z',
/* author */ (''),
/* organization */ (''),
/* preprocessor_version */ 'ST-DEVELOPER v20',
/* originating_system */ 'ONSHAPE BY PTC INC, 1.218',
/* authorisation */ '  ');

FILE_SCHEMA (('AUTOMOTIVE_DESIGN {1 0 10303 214 3 1 1}'));
ENDSEC;

DATA;
#10=PROPERTY_DEFINITION_REPRESENTATION(#14,#12);
#11=PROPERTY_DEFINITION_REPRESENTATION(#15,#13);
#12=REPRESENTATION('',(#16),#1141);
#13=REPRESENTATION('',(#17),#1141);
#14=PROPERTY_DEFINITION('pmi validation property','',#1146);
#15=PROPERTY_DEFINITION('pmi validation property','',#1146);
#16=VALUE_REPRESENTATION_ITEM('number of annotations',COUNT_MEASURE(0.));
#17=VALUE_REPRESENTATION_ITEM('number of views',COUNT_MEASURE(0.));
#18=SHAPE_REPRESENTATION_RELATIONSHIP('','',#679,#19);
#19=ADVANCED_BREP_SHAPE_REPRESENTATION('',(#677),#1141);
#20=CYLINDRICAL_SURFACE('',#699,0.005);
#21=CYLINDRICAL_SURFACE('',#702,0.002);
#22=CYLINDRICAL_SURFACE('',#705,0.002);
#23=CYLINDRICAL_SURFACE('',#708,0.004);
#24=CYLINDRICAL_SURFACE('',#715,0.004);
#25=CYLINDRICAL_SURFACE('',#718,0.002);
#26=CYLINDRICAL_SURFACE('',#721,0.002);
#27=CYLINDRICAL_SURFACE('',#724,0.005);
#28=CYLINDRICAL_SURFACE('',#730,0.0015);
#29=CYLINDRICAL_SURFACE('',#739,0.001);
#30=CYLINDRICAL_SURFACE('',#740,0.0015);
#31=CYLINDRICAL_SURFACE('',#741,0.001);
#32=CYLINDRICAL_SURFACE('',#742,0.001);
#33=CYLINDRICAL_SURFACE('',#743,0.001);
#34=CYLINDRICAL_SURFACE('',#746,0.001);
#35=CYLINDRICAL_SURFACE('',#747,0.001);
#36=CYLINDRICAL_SURFACE('',#748,0.001);
#37=CIRCLE('',#682,0.005);
#38=CIRCLE('',#683,0.002);
#39=CIRCLE('',#684,0.002);
#40=CIRCLE('',#685,0.004);
#41=CIRCLE('',#686,0.001);
#42=CIRCLE('',#687,0.001);
#43=CIRCLE('',#688,0.001);
#44=CIRCLE('',#689,0.004);
#45=CIRCLE('',#690,0.002);
#46=CIRCLE('',#691,0.002);
#47=CIRCLE('',#692,0.005);
#48=CIRCLE('',#693,0.001);
#49=CIRCLE('',#694,0.001);
#50=CIRCLE('',#695,0.001);
#51=CIRCLE('',#696,0.001);
#52=CIRCLE('',#698,0.0015);
#53=CIRCLE('',#700,0.005);
#54=CIRCLE('',#703,0.002);
#55=CIRCLE('',#706,0.002);
#56=CIRCLE('',#709,0.004);
#57=CIRCLE('',#711,0.0015);
#58=CIRCLE('',#714,0.0015);
#59=CIRCLE('',#716,0.004);
#60=CIRCLE('',#719,0.002);
#61=CIRCLE('',#722,0.002);
#62=CIRCLE('',#725,0.005);
#63=CIRCLE('',#728,0.0015);
#64=CIRCLE('',#732,0.001);
#65=CIRCLE('',#733,0.001);
#66=CIRCLE('',#734,0.001);
#67=CIRCLE('',#735,0.001);
#68=CIRCLE('',#736,0.001);
#69=CIRCLE('',#737,0.001);
#70=CIRCLE('',#738,0.001);
#71=ORIENTED_EDGE('',*,*,#259,.F.);
#72=ORIENTED_EDGE('',*,*,#260,.F.);
#73=ORIENTED_EDGE('',*,*,#261,.F.);
#74=ORIENTED_EDGE('',*,*,#262,.F.);
#75=ORIENTED_EDGE('',*,*,#263,.F.);
#76=ORIENTED_EDGE('',*,*,#264,.F.);
#77=ORIENTED_EDGE('',*,*,#265,.F.);
#78=ORIENTED_EDGE('',*,*,#266,.F.);
#79=ORIENTED_EDGE('',*,*,#267,.F.);
#80=ORIENTED_EDGE('',*,*,#268,.F.);
#81=ORIENTED_EDGE('',*,*,#269,.F.);
#82=ORIENTED_EDGE('',*,*,#270,.F.);
#83=ORIENTED_EDGE('',*,*,#271,.F.);
#84=ORIENTED_EDGE('',*,*,#272,.T.);
#85=ORIENTED_EDGE('',*,*,#273,.F.);
#86=ORIENTED_EDGE('',*,*,#274,.F.);
#87=ORIENTED_EDGE('',*,*,#275,.F.);
#88=ORIENTED_EDGE('',*,*,#276,.F.);
#89=ORIENTED_EDGE('',*,*,#277,.F.);
#90=ORIENTED_EDGE('',*,*,#278,.F.);
#91=ORIENTED_EDGE('',*,*,#279,.F.);
#92=ORIENTED_EDGE('',*,*,#280,.F.);
#93=ORIENTED_EDGE('',*,*,#281,.T.);
#94=ORIENTED_EDGE('',*,*,#282,.T.);
#95=ORIENTED_EDGE('',*,*,#283,.F.);
#96=ORIENTED_EDGE('',*,*,#284,.F.);
#97=ORIENTED_EDGE('',*,*,#285,.F.);
#98=ORIENTED_EDGE('',*,*,#286,.F.);
#99=ORIENTED_EDGE('',*,*,#287,.F.);
#100=ORIENTED_EDGE('',*,*,#288,.F.);
#101=ORIENTED_EDGE('',*,*,#289,.T.);
#102=ORIENTED_EDGE('',*,*,#290,.T.);
#103=ORIENTED_EDGE('',*,*,#259,.T.);
#104=ORIENTED_EDGE('',*,*,#291,.T.);
#105=ORIENTED_EDGE('',*,*,#292,.T.);
#106=ORIENTED_EDGE('',*,*,#290,.F.);
#107=ORIENTED_EDGE('',*,*,#293,.F.);
#108=ORIENTED_EDGE('',*,*,#294,.F.);
#109=ORIENTED_EDGE('',*,*,#260,.T.);
#110=ORIENTED_EDGE('',*,*,#295,.T.);
#111=ORIENTED_EDGE('',*,*,#261,.T.);
#112=ORIENTED_EDGE('',*,*,#294,.T.);
#113=ORIENTED_EDGE('',*,*,#296,.T.);
#114=ORIENTED_EDGE('',*,*,#262,.T.);
#115=ORIENTED_EDGE('',*,*,#295,.F.);
#116=ORIENTED_EDGE('',*,*,#297,.T.);
#117=ORIENTED_EDGE('',*,*,#298,.T.);
#118=ORIENTED_EDGE('',*,*,#298,.F.);
#119=ORIENTED_EDGE('',*,*,#299,.T.);
#120=ORIENTED_EDGE('',*,*,#300,.T.);
#121=ORIENTED_EDGE('',*,*,#263,.T.);
#122=ORIENTED_EDGE('',*,*,#264,.T.);
#123=ORIENTED_EDGE('',*,*,#300,.F.);
#124=ORIENTED_EDGE('',*,*,#301,.T.);
#125=ORIENTED_EDGE('',*,*,#302,.T.);
#126=ORIENTED_EDGE('',*,*,#303,.T.);
#127=ORIENTED_EDGE('',*,*,#265,.T.);
#128=ORIENTED_EDGE('',*,*,#302,.F.);
#129=ORIENTED_EDGE('',*,*,#304,.T.);
#130=ORIENTED_EDGE('',*,*,#303,.F.);
#131=ORIENTED_EDGE('',*,*,#305,.F.);
#132=ORIENTED_EDGE('',*,*,#306,.F.);
#133=ORIENTED_EDGE('',*,*,#266,.T.);
#134=ORIENTED_EDGE('',*,*,#307,.T.);
#135=ORIENTED_EDGE('',*,*,#306,.T.);
#136=ORIENTED_EDGE('',*,*,#308,.T.);
#137=ORIENTED_EDGE('',*,*,#309,.T.);
#138=ORIENTED_EDGE('',*,*,#267,.T.);
#139=ORIENTED_EDGE('',*,*,#310,.T.);
#140=ORIENTED_EDGE('',*,*,#269,.T.);
#141=ORIENTED_EDGE('',*,*,#311,.T.);
#142=ORIENTED_EDGE('',*,*,#312,.T.);
#143=ORIENTED_EDGE('',*,*,#313,.T.);
#144=ORIENTED_EDGE('',*,*,#314,.T.);
#145=ORIENTED_EDGE('',*,*,#271,.T.);
#146=ORIENTED_EDGE('',*,*,#315,.T.);
#147=ORIENTED_EDGE('',*,*,#316,.T.);
#148=ORIENTED_EDGE('',*,*,#274,.T.);
#149=ORIENTED_EDGE('',*,*,#317,.T.);
#150=ORIENTED_EDGE('',*,*,#318,.T.);
#151=ORIENTED_EDGE('',*,*,#319,.T.);
#152=ORIENTED_EDGE('',*,*,#319,.F.);
#153=ORIENTED_EDGE('',*,*,#320,.T.);
#154=ORIENTED_EDGE('',*,*,#321,.T.);
#155=ORIENTED_EDGE('',*,*,#275,.T.);
#156=ORIENTED_EDGE('',*,*,#321,.F.);
#157=ORIENTED_EDGE('',*,*,#322,.F.);
#158=ORIENTED_EDGE('',*,*,#323,.F.);
#159=ORIENTED_EDGE('',*,*,#276,.T.);
#160=ORIENTED_EDGE('',*,*,#323,.T.);
#161=ORIENTED_EDGE('',*,*,#324,.T.);
#162=ORIENTED_EDGE('',*,*,#325,.T.);
#163=ORIENTED_EDGE('',*,*,#277,.T.);
#164=ORIENTED_EDGE('',*,*,#325,.F.);
#165=ORIENTED_EDGE('',*,*,#326,.F.);
#166=ORIENTED_EDGE('',*,*,#327,.F.);
#167=ORIENTED_EDGE('',*,*,#278,.T.);
#168=ORIENTED_EDGE('',*,*,#327,.T.);
#169=ORIENTED_EDGE('',*,*,#328,.T.);
#170=ORIENTED_EDGE('',*,*,#329,.T.);
#171=ORIENTED_EDGE('',*,*,#279,.T.);
#172=ORIENTED_EDGE('',*,*,#280,.T.);
#173=ORIENTED_EDGE('',*,*,#329,.F.);
#174=ORIENTED_EDGE('',*,*,#330,.T.);
#175=ORIENTED_EDGE('',*,*,#331,.T.);
#176=ORIENTED_EDGE('',*,*,#332,.F.);
#177=ORIENTED_EDGE('',*,*,#333,.F.);
#178=ORIENTED_EDGE('',*,*,#283,.T.);
#179=ORIENTED_EDGE('',*,*,#334,.F.);
#180=ORIENTED_EDGE('',*,*,#335,.T.);
#181=ORIENTED_EDGE('',*,*,#336,.T.);
#182=ORIENTED_EDGE('',*,*,#285,.T.);
#183=ORIENTED_EDGE('',*,*,#337,.T.);
#184=ORIENTED_EDGE('',*,*,#338,.T.);
#185=ORIENTED_EDGE('',*,*,#339,.T.);
#186=ORIENTED_EDGE('',*,*,#340,.T.);
#187=ORIENTED_EDGE('',*,*,#341,.T.);
#188=ORIENTED_EDGE('',*,*,#287,.T.);
#189=ORIENTED_EDGE('',*,*,#335,.F.);
#190=ORIENTED_EDGE('',*,*,#289,.F.);
#191=ORIENTED_EDGE('',*,*,#293,.T.);
#192=ORIENTED_EDGE('',*,*,#292,.F.);
#193=ORIENTED_EDGE('',*,*,#342,.T.);
#194=ORIENTED_EDGE('',*,*,#340,.F.);
#195=ORIENTED_EDGE('',*,*,#343,.T.);
#196=ORIENTED_EDGE('',*,*,#338,.F.);
#197=ORIENTED_EDGE('',*,*,#344,.T.);
#198=ORIENTED_EDGE('',*,*,#332,.T.);
#199=ORIENTED_EDGE('',*,*,#345,.T.);
#200=ORIENTED_EDGE('',*,*,#346,.T.);
#201=ORIENTED_EDGE('',*,*,#330,.F.);
#202=ORIENTED_EDGE('',*,*,#328,.F.);
#203=ORIENTED_EDGE('',*,*,#326,.T.);
#204=ORIENTED_EDGE('',*,*,#324,.F.);
#205=ORIENTED_EDGE('',*,*,#322,.T.);
#206=ORIENTED_EDGE('',*,*,#320,.F.);
#207=ORIENTED_EDGE('',*,*,#318,.F.);
#208=ORIENTED_EDGE('',*,*,#347,.T.);
#209=ORIENTED_EDGE('',*,*,#348,.T.);
#210=ORIENTED_EDGE('',*,*,#316,.F.);
#211=ORIENTED_EDGE('',*,*,#349,.T.);
#212=ORIENTED_EDGE('',*,*,#312,.F.);
#213=ORIENTED_EDGE('',*,*,#350,.T.);
#214=ORIENTED_EDGE('',*,*,#308,.F.);
#215=ORIENTED_EDGE('',*,*,#305,.T.);
#216=ORIENTED_EDGE('',*,*,#304,.F.);
#217=ORIENTED_EDGE('',*,*,#301,.F.);
#218=ORIENTED_EDGE('',*,*,#299,.F.);
#219=ORIENTED_EDGE('',*,*,#297,.F.);
#220=ORIENTED_EDGE('',*,*,#296,.F.);
#221=ORIENTED_EDGE('',*,*,#288,.T.);
#222=ORIENTED_EDGE('',*,*,#341,.F.);
#223=ORIENTED_EDGE('',*,*,#342,.F.);
#224=ORIENTED_EDGE('',*,*,#291,.F.);
#225=ORIENTED_EDGE('',*,*,#313,.F.);
#226=ORIENTED_EDGE('',*,*,#307,.F.);
#227=ORIENTED_EDGE('',*,*,#268,.T.);
#228=ORIENTED_EDGE('',*,*,#309,.F.);
#229=ORIENTED_EDGE('',*,*,#350,.F.);
#230=ORIENTED_EDGE('',*,*,#311,.F.);
#231=ORIENTED_EDGE('',*,*,#349,.F.);
#232=ORIENTED_EDGE('',*,*,#315,.F.);
#233=ORIENTED_EDGE('',*,*,#270,.T.);
#234=ORIENTED_EDGE('',*,*,#310,.F.);
#235=ORIENTED_EDGE('',*,*,#314,.F.);
#236=ORIENTED_EDGE('',*,*,#348,.F.);
#237=ORIENTED_EDGE('',*,*,#351,.F.);
#238=ORIENTED_EDGE('',*,*,#272,.F.);
#239=ORIENTED_EDGE('',*,*,#317,.F.);
#240=ORIENTED_EDGE('',*,*,#273,.T.);
#241=ORIENTED_EDGE('',*,*,#351,.T.);
#242=ORIENTED_EDGE('',*,*,#347,.F.);
#243=ORIENTED_EDGE('',*,*,#281,.F.);
#244=ORIENTED_EDGE('',*,*,#331,.F.);
#245=ORIENTED_EDGE('',*,*,#346,.F.);
#246=ORIENTED_EDGE('',*,*,#352,.F.);
#247=ORIENTED_EDGE('',*,*,#352,.T.);
#248=ORIENTED_EDGE('',*,*,#345,.F.);
#249=ORIENTED_EDGE('',*,*,#334,.T.);
#250=ORIENTED_EDGE('',*,*,#282,.F.);
#251=ORIENTED_EDGE('',*,*,#344,.F.);
#252=ORIENTED_EDGE('',*,*,#337,.F.);
#253=ORIENTED_EDGE('',*,*,#284,.T.);
#254=ORIENTED_EDGE('',*,*,#333,.T.);
#255=ORIENTED_EDGE('',*,*,#286,.T.);
#256=ORIENTED_EDGE('',*,*,#336,.F.);
#257=ORIENTED_EDGE('',*,*,#343,.F.);
#258=ORIENTED_EDGE('',*,*,#339,.F.);
#259=EDGE_CURVE('',#353,#354,#417,.F.);
#260=EDGE_CURVE('',#355,#353,#37,.F.);
#261=EDGE_CURVE('',#356,#355,#418,.T.);
#262=EDGE_CURVE('',#357,#356,#38,.T.);
#263=EDGE_CURVE('',#358,#357,#419,.F.);
#264=EDGE_CURVE('',#359,#358,#39,.T.);
#265=EDGE_CURVE('',#360,#359,#420,.F.);
#266=EDGE_CURVE('',#361,#360,#40,.F.);
#267=EDGE_CURVE('',#362,#361,#421,.F.);
#268=EDGE_CURVE('',#363,#362,#41,.T.);
#269=EDGE_CURVE('',#364,#363,#422,.F.);
#270=EDGE_CURVE('',#365,#364,#42,.F.);
#271=EDGE_CURVE('',#366,#365,#423,.T.);
#272=EDGE_CURVE('',#366,#367,#43,.T.);
#273=EDGE_CURVE('',#368,#367,#424,.T.);
#274=EDGE_CURVE('',#369,#368,#44,.T.);
#275=EDGE_CURVE('',#370,#369,#425,.T.);
#276=EDGE_CURVE('',#371,#370,#45,.F.);
#277=EDGE_CURVE('',#372,#371,#426,.T.);
#278=EDGE_CURVE('',#373,#372,#46,.F.);
#279=EDGE_CURVE('',#374,#373,#427,.F.);
#280=EDGE_CURVE('',#375,#374,#47,.F.);
#281=EDGE_CURVE('',#375,#376,#428,.F.);
#282=EDGE_CURVE('',#376,#377,#48,.T.);
#283=EDGE_CURVE('',#378,#377,#429,.F.);
#284=EDGE_CURVE('',#379,#378,#49,.F.);
#285=EDGE_CURVE('',#380,#379,#430,.T.);
#286=EDGE_CURVE('',#381,#380,#50,.T.);
#287=EDGE_CURVE('',#382,#381,#431,.T.);
#288=EDGE_CURVE('',#354,#382,#51,.T.);
#289=EDGE_CURVE('',#383,#383,#52,.F.);
#290=EDGE_CURVE('',#384,#353,#432,.F.);
#291=EDGE_CURVE('',#354,#385,#433,.T.);
#292=EDGE_CURVE('',#385,#384,#434,.T.);
#293=EDGE_CURVE('',#386,#384,#53,.F.);
#294=EDGE_CURVE('',#355,#386,#435,.T.);
#295=EDGE_CURVE('',#387,#356,#436,.T.);
#296=EDGE_CURVE('',#386,#387,#437,.F.);
#297=EDGE_CURVE('',#387,#388,#54,.F.);
#298=EDGE_CURVE('',#388,#357,#438,.F.);
#299=EDGE_CURVE('',#388,#389,#439,.T.);
#300=EDGE_CURVE('',#389,#358,#440,.F.);
#301=EDGE_CURVE('',#389,#390,#55,.F.);
#302=EDGE_CURVE('',#390,#359,#441,.F.);
#303=EDGE_CURVE('',#391,#360,#442,.F.);
#304=EDGE_CURVE('',#390,#391,#443,.T.);
#305=EDGE_CURVE('',#392,#391,#56,.F.);
#306=EDGE_CURVE('',#361,#392,#444,.T.);
#307=EDGE_CURVE('',#393,#393,#57,.F.);
#308=EDGE_CURVE('',#392,#394,#445,.T.);
#309=EDGE_CURVE('',#394,#362,#446,.F.);
#310=EDGE_CURVE('',#395,#364,#447,.F.);
#311=EDGE_CURVE('',#363,#396,#448,.T.);
#312=EDGE_CURVE('',#396,#395,#449,.T.);
#313=EDGE_CURVE('',#397,#397,#58,.T.);
#314=EDGE_CURVE('',#398,#366,#450,.F.);
#315=EDGE_CURVE('',#365,#399,#451,.T.);
#316=EDGE_CURVE('',#399,#398,#452,.F.);
#317=EDGE_CURVE('',#368,#400,#453,.T.);
#318=EDGE_CURVE('',#400,#401,#59,.F.);
#319=EDGE_CURVE('',#401,#369,#454,.F.);
#320=EDGE_CURVE('',#401,#402,#455,.F.);
#321=EDGE_CURVE('',#402,#370,#456,.T.);
#322=EDGE_CURVE('',#403,#402,#60,.F.);
#323=EDGE_CURVE('',#371,#403,#457,.T.);
#324=EDGE_CURVE('',#403,#404,#458,.F.);
#325=EDGE_CURVE('',#404,#372,#459,.T.);
#326=EDGE_CURVE('',#405,#404,#61,.F.);
#327=EDGE_CURVE('',#373,#405,#460,.T.);
#328=EDGE_CURVE('',#405,#406,#461,.T.);
#329=EDGE_CURVE('',#406,#374,#462,.F.);
#330=EDGE_CURVE('',#406,#407,#62,.T.);
#331=EDGE_CURVE('',#407,#375,#463,.T.);
#332=EDGE_CURVE('',#408,#409,#464,.F.);
#333=EDGE_CURVE('',#378,#408,#465,.F.);
#334=EDGE_CURVE('',#409,#377,#466,.T.);
#335=EDGE_CURVE('',#410,#410,#63,.T.);
#336=EDGE_CURVE('',#411,#380,#467,.T.);
#337=EDGE_CURVE('',#379,#412,#468,.F.);
#338=EDGE_CURVE('',#412,#411,#469,.F.);
#339=EDGE_CURVE('',#381,#413,#470,.F.);
#340=EDGE_CURVE('',#413,#414,#471,.F.);
#341=EDGE_CURVE('',#414,#382,#472,.T.);
#342=EDGE_CURVE('',#385,#414,#64,.T.);
#343=EDGE_CURVE('',#413,#411,#65,.T.);
#344=EDGE_CURVE('',#412,#408,#66,.F.);
#345=EDGE_CURVE('',#409,#415,#67,.F.);
#346=EDGE_CURVE('',#415,#407,#473,.T.);
#347=EDGE_CURVE('',#400,#416,#474,.T.);
#348=EDGE_CURVE('',#416,#398,#68,.F.);
#349=EDGE_CURVE('',#399,#395,#69,.F.);
#350=EDGE_CURVE('',#396,#394,#70,.T.);
#351=EDGE_CURVE('',#367,#416,#475,.T.);
#352=EDGE_CURVE('',#376,#415,#476,.T.);
#353=VERTEX_POINT('',#950);
#354=VERTEX_POINT('',#951);
#355=VERTEX_POINT('',#953);
#356=VERTEX_POINT('',#955);
#357=VERTEX_POINT('',#957);
#358=VERTEX_POINT('',#959);
#359=VERTEX_POINT('',#961);
#360=VERTEX_POINT('',#963);
#361=VERTEX_POINT('',#965);
#362=VERTEX_POINT('',#967);
#363=VERTEX_POINT('',#969);
#364=VERTEX_POINT('',#971);
#365=VERTEX_POINT('',#973);
#366=VERTEX_POINT('',#975);
#367=VERTEX_POINT('',#977);
#368=VERTEX_POINT('',#979);
#369=VERTEX_POINT('',#981);
#370=VERTEX_POINT('',#983);
#371=VERTEX_POINT('',#985);
#372=VERTEX_POINT('',#987);
#373=VERTEX_POINT('',#989);
#374=VERTEX_POINT('',#991);
#375=VERTEX_POINT('',#993);
#376=VERTEX_POINT('',#995);
#377=VERTEX_POINT('',#997);
#378=VERTEX_POINT('',#999);
#379=VERTEX_POINT('',#1001);
#380=VERTEX_POINT('',#1003);
#381=VERTEX_POINT('',#1005);
#382=VERTEX_POINT('',#1007);
#383=VERTEX_POINT('',#1011);
#384=VERTEX_POINT('',#1013);
#385=VERTEX_POINT('',#1015);
#386=VERTEX_POINT('',#1019);
#387=VERTEX_POINT('',#1023);
#388=VERTEX_POINT('',#1027);
#389=VERTEX_POINT('',#1031);
#390=VERTEX_POINT('',#1035);
#391=VERTEX_POINT('',#1039);
#392=VERTEX_POINT('',#1043);
#393=VERTEX_POINT('',#1047);
#394=VERTEX_POINT('',#1049);
#395=VERTEX_POINT('',#1053);
#396=VERTEX_POINT('',#1055);
#397=VERTEX_POINT('',#1059);
#398=VERTEX_POINT('',#1061);
#399=VERTEX_POINT('',#1063);
#400=VERTEX_POINT('',#1067);
#401=VERTEX_POINT('',#1069);
#402=VERTEX_POINT('',#1073);
#403=VERTEX_POINT('',#1077);
#404=VERTEX_POINT('',#1081);
#405=VERTEX_POINT('',#1085);
#406=VERTEX_POINT('',#1089);
#407=VERTEX_POINT('',#1093);
#408=VERTEX_POINT('',#1097);
#409=VERTEX_POINT('',#1098);
#410=VERTEX_POINT('',#1103);
#411=VERTEX_POINT('',#1105);
#412=VERTEX_POINT('',#1107);
#413=VERTEX_POINT('',#1111);
#414=VERTEX_POINT('',#1113);
#415=VERTEX_POINT('',#1121);
#416=VERTEX_POINT('',#1124);
#417=LINE('',#949,#477);
#418=LINE('',#954,#478);
#419=LINE('',#958,#479);
#420=LINE('',#962,#480);
#421=LINE('',#966,#481);
#422=LINE('',#970,#482);
#423=LINE('',#974,#483);
#424=LINE('',#978,#484);
#425=LINE('',#982,#485);
#426=LINE('',#986,#486);
#427=LINE('',#990,#487);
#428=LINE('',#994,#488);
#429=LINE('',#998,#489);
#430=LINE('',#1002,#490);
#431=LINE('',#1006,#491);
#432=LINE('',#1012,#492);
#433=LINE('',#1014,#493);
#434=LINE('',#1016,#494);
#435=LINE('',#1020,#495);
#436=LINE('',#1022,#496);
#437=LINE('',#1024,#497);
#438=LINE('',#1028,#498);
#439=LINE('',#1030,#499);
#440=LINE('',#1032,#500);
#441=LINE('',#1036,#501);
#442=LINE('',#1038,#502);
#443=LINE('',#1040,#503);
#444=LINE('',#1044,#504);
#445=LINE('',#1048,#505);
#446=LINE('',#1050,#506);
#447=LINE('',#1052,#507);
#448=LINE('',#1054,#508);
#449=LINE('',#1056,#509);
#450=LINE('',#1060,#510);
#451=LINE('',#1062,#511);
#452=LINE('',#1064,#512);
#453=LINE('',#1066,#513);
#454=LINE('',#1070,#514);
#455=LINE('',#1072,#515);
#456=LINE('',#1074,#516);
#457=LINE('',#1078,#517);
#458=LINE('',#1080,#518);
#459=LINE('',#1082,#519);
#460=LINE('',#1086,#520);
#461=LINE('',#1088,#521);
#462=LINE('',#1090,#522);
#463=LINE('',#1094,#523);
#464=LINE('',#1096,#524);
#465=LINE('',#1099,#525);
#466=LINE('',#1100,#526);
#467=LINE('',#1104,#527);
#468=LINE('',#1106,#528);
#469=LINE('',#1108,#529);
#470=LINE('',#1110,#530);
#471=LINE('',#1112,#531);
#472=LINE('',#1114,#532);
#473=LINE('',#1122,#533);
#474=LINE('',#1123,#534);
#475=LINE('',#1133,#535);
#476=LINE('',#1136,#536);
#477=VECTOR('',#753,1.);
#478=VECTOR('',#756,1.);
#479=VECTOR('',#759,1.);
#480=VECTOR('',#762,1.);
#481=VECTOR('',#765,1.);
#482=VECTOR('',#768,1.);
#483=VECTOR('',#771,1.);
#484=VECTOR('',#774,1.);
#485=VECTOR('',#777,1.);
#486=VECTOR('',#780,1.);
#487=VECTOR('',#783,1.);
#488=VECTOR('',#786,1.);
#489=VECTOR('',#789,1.);
#490=VECTOR('',#792,1.);
#491=VECTOR('',#795,1.);
#492=VECTOR('',#802,1.);
#493=VECTOR('',#803,1.);
#494=VECTOR('',#804,1.);
#495=VECTOR('',#809,1.);
#496=VECTOR('',#812,1.);
#497=VECTOR('',#813,1.);
#498=VECTOR('',#818,1.);
#499=VECTOR('',#821,1.);
#500=VECTOR('',#822,1.);
#501=VECTOR('',#827,1.);
#502=VECTOR('',#830,1.);
#503=VECTOR('',#831,1.);
#504=VECTOR('',#836,1.);
#505=VECTOR('',#841,1.);
#506=VECTOR('',#842,1.);
#507=VECTOR('',#845,1.);
#508=VECTOR('',#846,1.);
#509=VECTOR('',#847,1.);
#510=VECTOR('',#852,1.);
#511=VECTOR('',#853,1.);
#512=VECTOR('',#854,1.);
#513=VECTOR('',#857,1.);
#514=VECTOR('',#860,1.);
#515=VECTOR('',#863,1.);
#516=VECTOR('',#864,1.);
#517=VECTOR('',#869,1.);
#518=VECTOR('',#872,1.);
#519=VECTOR('',#873,1.);
#520=VECTOR('',#878,1.);
#521=VECTOR('',#881,1.);
#522=VECTOR('',#882,1.);
#523=VECTOR('',#887,1.);
#524=VECTOR('',#890,1.);
#525=VECTOR('',#891,1.);
#526=VECTOR('',#892,1.);
#527=VECTOR('',#897,1.);
#528=VECTOR('',#898,1.);
#529=VECTOR('',#899,1.);
#530=VECTOR('',#902,1.);
#531=VECTOR('',#903,1.);
#532=VECTOR('',#904,1.);
#533=VECTOR('',#917,1.);
#534=VECTOR('',#918,1.);
#535=VECTOR('',#935,1.);
#536=VECTOR('',#940,1.);
#537=EDGE_LOOP('',(#71,#72,#73,#74,#75,#76,#77,#78,#79,#80,#81,#82,#83,
#84,#85,#86,#87,#88,#89,#90,#91,#92,#93,#94,#95,#96,#97,#98,#99,#100));
#538=EDGE_LOOP('',(#101));
#539=EDGE_LOOP('',(#102,#103,#104,#105));
#540=EDGE_LOOP('',(#106,#107,#108,#109));
#541=EDGE_LOOP('',(#110,#111,#112,#113));
#542=EDGE_LOOP('',(#114,#115,#116,#117));
#543=EDGE_LOOP('',(#118,#119,#120,#121));
#544=EDGE_LOOP('',(#122,#123,#124,#125));
#545=EDGE_LOOP('',(#126,#127,#128,#129));
#546=EDGE_LOOP('',(#130,#131,#132,#133));
#547=EDGE_LOOP('',(#134));
#548=EDGE_LOOP('',(#135,#136,#137,#138));
#549=EDGE_LOOP('',(#139,#140,#141,#142));
#550=EDGE_LOOP('',(#143));
#551=EDGE_LOOP('',(#144,#145,#146,#147));
#552=EDGE_LOOP('',(#148,#149,#150,#151));
#553=EDGE_LOOP('',(#152,#153,#154,#155));
#554=EDGE_LOOP('',(#156,#157,#158,#159));
#555=EDGE_LOOP('',(#160,#161,#162,#163));
#556=EDGE_LOOP('',(#164,#165,#166,#167));
#557=EDGE_LOOP('',(#168,#169,#170,#171));
#558=EDGE_LOOP('',(#172,#173,#174,#175));
#559=EDGE_LOOP('',(#176,#177,#178,#179));
#560=EDGE_LOOP('',(#180));
#561=EDGE_LOOP('',(#181,#182,#183,#184));
#562=EDGE_LOOP('',(#185,#186,#187,#188));
#563=EDGE_LOOP('',(#189));
#564=EDGE_LOOP('',(#190));
#565=EDGE_LOOP('',(#191,#192,#193,#194,#195,#196,#197,#198,#199,#200,#201,
#202,#203,#204,#205,#206,#207,#208,#209,#210,#211,#212,#213,#214,#215,#216,
#217,#218,#219,#220));
#566=EDGE_LOOP('',(#221,#222,#223,#224));
#567=EDGE_LOOP('',(#225));
#568=EDGE_LOOP('',(#226));
#569=EDGE_LOOP('',(#227,#228,#229,#230));
#570=EDGE_LOOP('',(#231,#232,#233,#234));
#571=EDGE_LOOP('',(#235,#236,#237,#238));
#572=EDGE_LOOP('',(#239,#240,#241,#242));
#573=EDGE_LOOP('',(#243,#244,#245,#246));
#574=EDGE_LOOP('',(#247,#248,#249,#250));
#575=EDGE_LOOP('',(#251,#252,#253,#254));
#576=EDGE_LOOP('',(#255,#256,#257,#258));
#577=FACE_BOUND('',#537,.T.);
#578=FACE_BOUND('',#538,.T.);
#579=FACE_BOUND('',#539,.T.);
#580=FACE_BOUND('',#540,.T.);
#581=FACE_BOUND('',#541,.T.);
#582=FACE_BOUND('',#542,.T.);
#583=FACE_BOUND('',#543,.T.);
#584=FACE_BOUND('',#544,.T.);
#585=FACE_BOUND('',#545,.T.);
#586=FACE_BOUND('',#546,.T.);
#587=FACE_BOUND('',#547,.T.);
#588=FACE_BOUND('',#548,.T.);
#589=FACE_BOUND('',#549,.T.);
#590=FACE_BOUND('',#550,.T.);
#591=FACE_BOUND('',#551,.T.);
#592=FACE_BOUND('',#552,.T.);
#593=FACE_BOUND('',#553,.T.);
#594=FACE_BOUND('',#554,.T.);
#595=FACE_BOUND('',#555,.T.);
#596=FACE_BOUND('',#556,.T.);
#597=FACE_BOUND('',#557,.T.);
#598=FACE_BOUND('',#558,.T.);
#599=FACE_BOUND('',#559,.T.);
#600=FACE_BOUND('',#560,.T.);
#601=FACE_BOUND('',#561,.T.);
#602=FACE_BOUND('',#562,.T.);
#603=FACE_BOUND('',#563,.T.);
#604=FACE_BOUND('',#564,.T.);
#605=FACE_BOUND('',#565,.T.);
#606=FACE_BOUND('',#566,.T.);
#607=FACE_BOUND('',#567,.T.);
#608=FACE_BOUND('',#568,.T.);
#609=FACE_BOUND('',#569,.T.);
#610=FACE_BOUND('',#570,.T.);
#611=FACE_BOUND('',#571,.T.);
#612=FACE_BOUND('',#572,.T.);
#613=FACE_BOUND('',#573,.T.);
#614=FACE_BOUND('',#574,.T.);
#615=FACE_BOUND('',#575,.T.);
#616=FACE_BOUND('',#576,.T.);
#617=PLANE('',#681);
#618=PLANE('',#697);
#619=PLANE('',#701);
#620=PLANE('',#704);
#621=PLANE('',#707);
#622=PLANE('',#710);
#623=PLANE('',#712);
#624=PLANE('',#713);
#625=PLANE('',#717);
#626=PLANE('',#720);
#627=PLANE('',#723);
#628=PLANE('',#726);
#629=PLANE('',#727);
#630=PLANE('',#729);
#631=PLANE('',#731);
#632=PLANE('',#744);
#633=PLANE('',#745);
#634=ADVANCED_FACE('',(#577),#617,.F.);
#635=ADVANCED_FACE('',(#578,#579),#618,.T.);
#636=ADVANCED_FACE('',(#580),#20,.F.);
#637=ADVANCED_FACE('',(#581),#619,.T.);
#638=ADVANCED_FACE('',(#582),#21,.T.);
#639=ADVANCED_FACE('',(#583),#620,.T.);
#640=ADVANCED_FACE('',(#584),#22,.T.);
#641=ADVANCED_FACE('',(#585),#621,.T.);
#642=ADVANCED_FACE('',(#586),#23,.F.);
#643=ADVANCED_FACE('',(#587,#588),#622,.T.);
#644=ADVANCED_FACE('',(#589),#623,.T.);
#645=ADVANCED_FACE('',(#590,#591),#624,.T.);
#646=ADVANCED_FACE('',(#592),#24,.T.);
#647=ADVANCED_FACE('',(#593),#625,.T.);
#648=ADVANCED_FACE('',(#594),#25,.F.);
#649=ADVANCED_FACE('',(#595),#626,.T.);
#650=ADVANCED_FACE('',(#596),#26,.F.);
#651=ADVANCED_FACE('',(#597),#627,.T.);
#652=ADVANCED_FACE('',(#598),#27,.T.);
#653=ADVANCED_FACE('',(#599),#628,.F.);
#654=ADVANCED_FACE('',(#600,#601),#629,.T.);
#655=ADVANCED_FACE('',(#602),#630,.T.);
#656=ADVANCED_FACE('',(#603,#604),#28,.F.);
#657=ADVANCED_FACE('',(#605),#631,.T.);
#658=ADVANCED_FACE('',(#606),#29,.T.);
#659=ADVANCED_FACE('',(#607,#608),#30,.F.);
#660=ADVANCED_FACE('',(#609),#31,.T.);
#661=ADVANCED_FACE('',(#610),#32,.T.);
#662=ADVANCED_FACE('',(#611),#33,.F.);
#663=ADVANCED_FACE('',(#612),#632,.T.);
#664=ADVANCED_FACE('',(#613),#633,.F.);
#665=ADVANCED_FACE('',(#614),#34,.F.);
#666=ADVANCED_FACE('',(#615),#35,.T.);
#667=ADVANCED_FACE('',(#616),#36,.T.);
#668=CLOSED_SHELL('',(#634,#635,#636,#637,#638,#639,#640,#641,#642,#643,
#644,#645,#646,#647,#648,#649,#650,#651,#652,#653,#654,#655,#656,#657,#658,
#659,#660,#661,#662,#663,#664,#665,#666,#667));
#669=STYLED_ITEM('',(#670),#677);
#670=PRESENTATION_STYLE_ASSIGNMENT((#671));
#671=SURFACE_STYLE_USAGE(.BOTH.,#672);
#672=SURFACE_SIDE_STYLE('',(#673));
#673=SURFACE_STYLE_FILL_AREA(#674);
#674=FILL_AREA_STYLE('',(#675));
#675=FILL_AREA_STYLE_COLOUR('',#676);
#676=COLOUR_RGB('',0.745098039215686,0.745098039215686,0.745098039215686);
#677=MANIFOLD_SOLID_BREP('KP0058-01_PCBBracket',#668);
#678=SHAPE_DEFINITION_REPRESENTATION(#1146,#679);
#679=SHAPE_REPRESENTATION('KP0058-01_PCBBracket',(#680),#1141);
#680=AXIS2_PLACEMENT_3D('',#947,#749,#750);
#681=AXIS2_PLACEMENT_3D('',#948,#751,#752);
#682=AXIS2_PLACEMENT_3D('',#952,#754,#755);
#683=AXIS2_PLACEMENT_3D('',#956,#757,#758);
#684=AXIS2_PLACEMENT_3D('',#960,#760,#761);
#685=AXIS2_PLACEMENT_3D('',#964,#763,#764);
#686=AXIS2_PLACEMENT_3D('',#968,#766,#767);
#687=AXIS2_PLACEMENT_3D('',#972,#769,#770);
#688=AXIS2_PLACEMENT_3D('',#976,#772,#773);
#689=AXIS2_PLACEMENT_3D('',#980,#775,#776);
#690=AXIS2_PLACEMENT_3D('',#984,#778,#779);
#691=AXIS2_PLACEMENT_3D('',#988,#781,#782);
#692=AXIS2_PLACEMENT_3D('',#992,#784,#785);
#693=AXIS2_PLACEMENT_3D('',#996,#787,#788);
#694=AXIS2_PLACEMENT_3D('',#1000,#790,#791);
#695=AXIS2_PLACEMENT_3D('',#1004,#793,#794);
#696=AXIS2_PLACEMENT_3D('',#1008,#796,#797);
#697=AXIS2_PLACEMENT_3D('',#1009,#798,#799);
#698=AXIS2_PLACEMENT_3D('',#1010,#800,#801);
#699=AXIS2_PLACEMENT_3D('',#1017,#805,#806);
#700=AXIS2_PLACEMENT_3D('',#1018,#807,#808);
#701=AXIS2_PLACEMENT_3D('',#1021,#810,#811);
#702=AXIS2_PLACEMENT_3D('',#1025,#814,#815);
#703=AXIS2_PLACEMENT_3D('',#1026,#816,#817);
#704=AXIS2_PLACEMENT_3D('',#1029,#819,#820);
#705=AXIS2_PLACEMENT_3D('',#1033,#823,#824);
#706=AXIS2_PLACEMENT_3D('',#1034,#825,#826);
#707=AXIS2_PLACEMENT_3D('',#1037,#828,#829);
#708=AXIS2_PLACEMENT_3D('',#1041,#832,#833);
#709=AXIS2_PLACEMENT_3D('',#1042,#834,#835);
#710=AXIS2_PLACEMENT_3D('',#1045,#837,#838);
#711=AXIS2_PLACEMENT_3D('',#1046,#839,#840);
#712=AXIS2_PLACEMENT_3D('',#1051,#843,#844);
#713=AXIS2_PLACEMENT_3D('',#1057,#848,#849);
#714=AXIS2_PLACEMENT_3D('',#1058,#850,#851);
#715=AXIS2_PLACEMENT_3D('',#1065,#855,#856);
#716=AXIS2_PLACEMENT_3D('',#1068,#858,#859);
#717=AXIS2_PLACEMENT_3D('',#1071,#861,#862);
#718=AXIS2_PLACEMENT_3D('',#1075,#865,#866);
#719=AXIS2_PLACEMENT_3D('',#1076,#867,#868);
#720=AXIS2_PLACEMENT_3D('',#1079,#870,#871);
#721=AXIS2_PLACEMENT_3D('',#1083,#874,#875);
#722=AXIS2_PLACEMENT_3D('',#1084,#876,#877);
#723=AXIS2_PLACEMENT_3D('',#1087,#879,#880);
#724=AXIS2_PLACEMENT_3D('',#1091,#883,#884);
#725=AXIS2_PLACEMENT_3D('',#1092,#885,#886);
#726=AXIS2_PLACEMENT_3D('',#1095,#888,#889);
#727=AXIS2_PLACEMENT_3D('',#1101,#893,#894);
#728=AXIS2_PLACEMENT_3D('',#1102,#895,#896);
#729=AXIS2_PLACEMENT_3D('',#1109,#900,#901);
#730=AXIS2_PLACEMENT_3D('',#1115,#905,#906);
#731=AXIS2_PLACEMENT_3D('',#1116,#907,#908);
#732=AXIS2_PLACEMENT_3D('',#1117,#909,#910);
#733=AXIS2_PLACEMENT_3D('',#1118,#911,#912);
#734=AXIS2_PLACEMENT_3D('',#1119,#913,#914);
#735=AXIS2_PLACEMENT_3D('',#1120,#915,#916);
#736=AXIS2_PLACEMENT_3D('',#1125,#919,#920);
#737=AXIS2_PLACEMENT_3D('',#1126,#921,#922);
#738=AXIS2_PLACEMENT_3D('',#1127,#923,#924);
#739=AXIS2_PLACEMENT_3D('',#1128,#925,#926);
#740=AXIS2_PLACEMENT_3D('',#1129,#927,#928);
#741=AXIS2_PLACEMENT_3D('',#1130,#929,#930);
#742=AXIS2_PLACEMENT_3D('',#1131,#931,#932);
#743=AXIS2_PLACEMENT_3D('',#1132,#933,#934);
#744=AXIS2_PLACEMENT_3D('',#1134,#936,#937);
#745=AXIS2_PLACEMENT_3D('',#1135,#938,#939);
#746=AXIS2_PLACEMENT_3D('',#1137,#941,#942);
#747=AXIS2_PLACEMENT_3D('',#1138,#943,#944);
#748=AXIS2_PLACEMENT_3D('',#1139,#945,#946);
#749=DIRECTION('',(0.,0.,1.));
#750=DIRECTION('',(1.,0.,0.));
#751=DIRECTION('',(0.,-1.,0.));
#752=DIRECTION('',(1.,0.,0.));
#753=DIRECTION('',(0.,0.,1.));
#754=DIRECTION('',(0.,-1.,0.));
#755=DIRECTION('',(1.,0.,0.));
#756=DIRECTION('',(1.,0.,0.));
#757=DIRECTION('',(0.,-1.,0.));
#758=DIRECTION('',(1.,0.,0.));
#759=DIRECTION('',(0.,0.,1.));
#760=DIRECTION('',(0.,-1.,0.));
#761=DIRECTION('',(1.,0.,0.));
#762=DIRECTION('',(1.,0.,0.));
#763=DIRECTION('',(0.,-1.,0.));
#764=DIRECTION('',(1.,0.,0.));
#765=DIRECTION('',(0.,0.,1.));
#766=DIRECTION('',(0.,-1.,0.));
#767=DIRECTION('',(1.,0.,0.));
#768=DIRECTION('',(1.,0.,0.));
#769=DIRECTION('',(2.43759491468713E-30,1.,0.));
#770=DIRECTION('',(-1.,2.43759491468713E-30,0.));
#771=DIRECTION('',(0.,0.,1.));
#772=DIRECTION('',(0.,-1.,0.));
#773=DIRECTION('',(1.,0.,0.));
#774=DIRECTION('',(0.,0.,1.));
#775=DIRECTION('',(0.,-1.,0.));
#776=DIRECTION('',(1.,0.,0.));
#777=DIRECTION('',(1.,0.,0.));
#778=DIRECTION('',(0.,-1.,0.));
#779=DIRECTION('',(1.,0.,0.));
#780=DIRECTION('',(0.,0.,1.));
#781=DIRECTION('',(0.,-1.,0.));
#782=DIRECTION('',(1.,0.,0.));
#783=DIRECTION('',(1.,0.,0.));
#784=DIRECTION('',(0.,1.,0.));
#785=DIRECTION('',(-1.,0.,0.));
#786=DIRECTION('',(0.,0.,1.));
#787=DIRECTION('',(0.,-1.,0.));
#788=DIRECTION('',(1.,0.,0.));
#789=DIRECTION('',(1.,0.,0.));
#790=DIRECTION('',(2.62156434221069E-30,1.,0.));
#791=DIRECTION('',(-1.,2.62156434221069E-30,0.));
#792=DIRECTION('',(0.,0.,1.));
#793=DIRECTION('',(-2.62156434221069E-30,-1.,0.));
#794=DIRECTION('',(1.,-2.62156434221069E-30,0.));
#795=DIRECTION('',(1.,0.,0.));
#796=DIRECTION('',(0.,-1.,0.));
#797=DIRECTION('',(1.,0.,0.));
#798=DIRECTION('',(-1.,0.,0.));
#799=DIRECTION('',(0.,-1.,0.));
#800=DIRECTION('',(-1.,0.,0.));
#801=DIRECTION('',(0.,-1.,0.));
#802=DIRECTION('',(0.,-1.,0.));
#803=DIRECTION('',(0.,-1.,0.));
#804=DIRECTION('',(0.,0.,1.));
#805=DIRECTION('',(0.,-1.,0.));
#806=DIRECTION('',(1.,0.,0.));
#807=DIRECTION('',(0.,-1.,0.));
#808=DIRECTION('',(1.,0.,0.));
#809=DIRECTION('',(0.,-1.,0.));
#810=DIRECTION('',(0.,0.,-1.));
#811=DIRECTION('',(0.,1.,0.));
#812=DIRECTION('',(0.,1.,0.));
#813=DIRECTION('',(1.,0.,0.));
#814=DIRECTION('',(0.,-1.,0.));
#815=DIRECTION('',(1.,0.,0.));
#816=DIRECTION('',(0.,-1.,0.));
#817=DIRECTION('',(1.,0.,0.));
#818=DIRECTION('',(0.,-1.,0.));
#819=DIRECTION('',(-1.,0.,0.));
#820=DIRECTION('',(0.,-1.,0.));
#821=DIRECTION('',(0.,0.,1.));
#822=DIRECTION('',(0.,-1.,0.));
#823=DIRECTION('',(0.,-1.,0.));
#824=DIRECTION('',(1.,0.,0.));
#825=DIRECTION('',(0.,-1.,0.));
#826=DIRECTION('',(1.,0.,0.));
#827=DIRECTION('',(0.,-1.,0.));
#828=DIRECTION('',(0.,0.,1.));
#829=DIRECTION('',(0.,-1.,0.));
#830=DIRECTION('',(0.,-1.,0.));
#831=DIRECTION('',(1.,0.,0.));
#832=DIRECTION('',(0.,-1.,0.));
#833=DIRECTION('',(1.,0.,0.));
#834=DIRECTION('',(0.,-1.,0.));
#835=DIRECTION('',(1.,0.,0.));
#836=DIRECTION('',(0.,-1.,0.));
#837=DIRECTION('',(-1.,0.,0.));
#838=DIRECTION('',(0.,-1.,0.));
#839=DIRECTION('',(-1.,0.,0.));
#840=DIRECTION('',(0.,-1.,0.));
#841=DIRECTION('',(0.,0.,1.));
#842=DIRECTION('',(0.,-1.,0.));
#843=DIRECTION('',(0.,0.,1.));
#844=DIRECTION('',(0.,-1.,0.));
#845=DIRECTION('',(0.,-1.,0.));
#846=DIRECTION('',(0.,-1.,0.));
#847=DIRECTION('',(1.,0.,0.));
#848=DIRECTION('',(1.,-2.43759491468713E-30,-6.25496053580093E-30));
#849=DIRECTION('',(6.25496053580093E-30,0.,1.));
#850=DIRECTION('',(-1.,0.,0.));
#851=DIRECTION('',(0.,-1.,0.));
#852=DIRECTION('',(-2.43759491468713E-30,-1.,1.5247059993637E-59));
#853=DIRECTION('',(-2.43759491468713E-30,-1.,1.5247059993637E-59));
#854=DIRECTION('',(6.25496053580093E-30,0.,1.));
#855=DIRECTION('',(0.,-1.,0.));
#856=DIRECTION('',(1.,0.,0.));
#857=DIRECTION('',(0.,-1.,0.));
#858=DIRECTION('',(0.,-1.,0.));
#859=DIRECTION('',(1.,0.,0.));
#860=DIRECTION('',(0.,-1.,0.));
#861=DIRECTION('',(0.,0.,-1.));
#862=DIRECTION('',(0.,1.,0.));
#863=DIRECTION('',(1.,0.,0.));
#864=DIRECTION('',(0.,1.,0.));
#865=DIRECTION('',(0.,-1.,0.));
#866=DIRECTION('',(1.,0.,0.));
#867=DIRECTION('',(0.,-1.,0.));
#868=DIRECTION('',(1.,0.,0.));
#869=DIRECTION('',(0.,-1.,0.));
#870=DIRECTION('',(1.,0.,0.));
#871=DIRECTION('',(0.,1.,0.));
#872=DIRECTION('',(0.,0.,1.));
#873=DIRECTION('',(0.,1.,0.));
#874=DIRECTION('',(0.,-1.,0.));
#875=DIRECTION('',(1.,0.,0.));
#876=DIRECTION('',(0.,-1.,0.));
#877=DIRECTION('',(1.,0.,0.));
#878=DIRECTION('',(0.,-1.,0.));
#879=DIRECTION('',(0.,0.,1.));
#880=DIRECTION('',(0.,-1.,0.));
#881=DIRECTION('',(1.,0.,0.));
#882=DIRECTION('',(0.,-1.,0.));
#883=DIRECTION('',(0.,1.,0.));
#884=DIRECTION('',(-1.,0.,0.));
#885=DIRECTION('',(0.,1.,0.));
#886=DIRECTION('',(-1.,0.,0.));
#887=DIRECTION('',(0.,1.,0.));
#888=DIRECTION('',(0.,0.,-1.));
#889=DIRECTION('',(0.,1.,0.));
#890=DIRECTION('',(1.,0.,0.));
#891=DIRECTION('',(0.,1.,0.));
#892=DIRECTION('',(0.,1.,0.));
#893=DIRECTION('',(1.,-2.62156434221069E-30,1.83969427523557E-30));
#894=DIRECTION('',(2.62156434221069E-30,1.,0.));
#895=DIRECTION('',(-1.,0.,0.));
#896=DIRECTION('',(0.,-1.,0.));
#897=DIRECTION('',(2.62156434221069E-30,1.,0.));
#898=DIRECTION('',(2.62156434221069E-30,1.,0.));
#899=DIRECTION('',(-1.83969427523557E-30,4.82287691252671E-60,1.));
#900=DIRECTION('',(0.,0.,-1.));
#901=DIRECTION('',(0.,1.,0.));
#902=DIRECTION('',(0.,1.,0.));
#903=DIRECTION('',(1.,0.,0.));
#904=DIRECTION('',(0.,1.,0.));
#905=DIRECTION('',(-1.,0.,0.));
#906=DIRECTION('',(0.,-1.,0.));
#907=DIRECTION('',(0.,-1.,0.));
#908=DIRECTION('',(1.,0.,0.));
#909=DIRECTION('',(0.,-1.,0.));
#910=DIRECTION('',(1.,0.,0.));
#911=DIRECTION('',(-2.62156434221069E-30,-1.,0.));
#912=DIRECTION('',(1.,-2.62156434221069E-30,0.));
#913=DIRECTION('',(2.62156434221069E-30,1.,0.));
#914=DIRECTION('',(-1.,2.62156434221069E-30,0.));
#915=DIRECTION('',(0.,-1.,0.));
#916=DIRECTION('',(1.,0.,0.));
#917=DIRECTION('',(0.,0.,1.));
#918=DIRECTION('',(0.,0.,1.));
#919=DIRECTION('',(0.,-1.,0.));
#920=DIRECTION('',(1.,0.,0.));
#921=DIRECTION('',(2.43759491468713E-30,1.,0.));
#922=DIRECTION('',(-1.,2.43759491468713E-30,0.));
#923=DIRECTION('',(0.,-1.,0.));
#924=DIRECTION('',(1.,0.,0.));
#925=DIRECTION('',(0.,-1.,0.));
#926=DIRECTION('',(1.,0.,0.));
#927=DIRECTION('',(-1.,0.,0.));
#928=DIRECTION('',(0.,-1.,0.));
#929=DIRECTION('',(0.,-1.,0.));
#930=DIRECTION('',(1.,0.,0.));
#931=DIRECTION('',(2.43759491468713E-30,1.,0.));
#932=DIRECTION('',(-1.,2.43759491468713E-30,0.));
#933=DIRECTION('',(0.,-1.,0.));
#934=DIRECTION('',(1.,0.,0.));
#935=DIRECTION('',(0.,-1.,0.));
#936=DIRECTION('',(1.,0.,0.));
#937=DIRECTION('',(0.,1.,0.));
#938=DIRECTION('',(-1.,0.,0.));
#939=DIRECTION('',(0.,-1.,0.));
#940=DIRECTION('',(0.,-1.,0.));
#941=DIRECTION('',(0.,-1.,0.));
#942=DIRECTION('',(1.,0.,0.));
#943=DIRECTION('',(2.62156434221069E-30,1.,0.));
#944=DIRECTION('',(-1.,2.62156434221069E-30,0.));
#945=DIRECTION('',(-2.62156434221069E-30,-1.,0.));
#946=DIRECTION('',(1.,-2.62156434221069E-30,0.));
#947=CARTESIAN_POINT('',(0.,0.,0.));
#948=CARTESIAN_POINT('',(-0.000384,0.,5.20417042793042E-19));
#949=CARTESIAN_POINT('',(0.011,0.,5.20417042793042E-19));
#950=CARTESIAN_POINT('',(0.011,0.,-0.023));
#951=CARTESIAN_POINT('',(0.011,0.,-0.0275));
#952=CARTESIAN_POINT('',(0.006,0.,-0.023));
#953=CARTESIAN_POINT('',(0.006,0.,-0.018));
#954=CARTESIAN_POINT('',(-0.000384,0.,-0.018));
#955=CARTESIAN_POINT('',(-0.016,0.,-0.018));
#956=CARTESIAN_POINT('',(-0.016,0.,-0.016));
#957=CARTESIAN_POINT('',(-0.018,0.,-0.016));
#958=CARTESIAN_POINT('',(-0.018,0.,5.20417042793042E-19));
#959=CARTESIAN_POINT('',(-0.018,0.,0.016));
#960=CARTESIAN_POINT('',(-0.016,0.,0.016));
#961=CARTESIAN_POINT('',(-0.016,0.,0.018));
#962=CARTESIAN_POINT('',(-0.000384,0.,0.018));
#963=CARTESIAN_POINT('',(0.01,0.,0.018));
#964=CARTESIAN_POINT('',(0.01,0.,0.022));
#965=CARTESIAN_POINT('',(0.014,0.,0.022));
#966=CARTESIAN_POINT('',(0.014,0.,5.20417042793042E-19));
#967=CARTESIAN_POINT('',(0.014,0.,0.0275));
#968=CARTESIAN_POINT('',(0.015,0.,0.0275));
#969=CARTESIAN_POINT('',(0.015,0.,0.0285));
#970=CARTESIAN_POINT('',(-0.000384,0.,0.0285));
#971=CARTESIAN_POINT('',(0.018,0.,0.0285));
#972=CARTESIAN_POINT('',(0.018,0.,0.0275));
#973=CARTESIAN_POINT('',(0.019,-1.21879745734356E-33,0.0275));
#974=CARTESIAN_POINT('',(0.019,0.,5.20417042793042E-19));
#975=CARTESIAN_POINT('',(0.019,0.,0.0205));
#976=CARTESIAN_POINT('',(0.019,0.,0.0195));
#977=CARTESIAN_POINT('',(0.018,0.,0.0195));
#978=CARTESIAN_POINT('',(0.018,0.,0.0285));
#979=CARTESIAN_POINT('',(0.018,0.,0.018));
#980=CARTESIAN_POINT('',(0.014,0.,0.018));
#981=CARTESIAN_POINT('',(0.014,0.,0.014));
#982=CARTESIAN_POINT('',(-0.000384,0.,0.014));
#983=CARTESIAN_POINT('',(-0.012,0.,0.014));
#984=CARTESIAN_POINT('',(-0.012,0.,0.012));
#985=CARTESIAN_POINT('',(-0.014,0.,0.012));
#986=CARTESIAN_POINT('',(-0.014,0.,5.20417042793042E-19));
#987=CARTESIAN_POINT('',(-0.014,0.,-0.012));
#988=CARTESIAN_POINT('',(-0.012,0.,-0.012));
#989=CARTESIAN_POINT('',(-0.012,0.,-0.014));
#990=CARTESIAN_POINT('',(-0.000384,0.,-0.014));
#991=CARTESIAN_POINT('',(0.01,0.,-0.014));
#992=CARTESIAN_POINT('',(0.01,0.,-0.019));
#993=CARTESIAN_POINT('',(0.015,0.,-0.019));
#994=CARTESIAN_POINT('',(0.015,0.,-0.016));
#995=CARTESIAN_POINT('',(0.015,0.,-0.0195));
#996=CARTESIAN_POINT('',(0.016,0.,-0.0195));
#997=CARTESIAN_POINT('',(0.016,0.,-0.0205));
#998=CARTESIAN_POINT('',(-0.000384,0.,-0.0205));
#999=CARTESIAN_POINT('',(0.018,0.,-0.0205));
#1000=CARTESIAN_POINT('',(0.018,0.,-0.0215));
#1001=CARTESIAN_POINT('',(0.019,-1.31078217110534E-33,-0.0215));
#1002=CARTESIAN_POINT('',(0.019,0.,5.20417042793042E-19));
#1003=CARTESIAN_POINT('',(0.019,-1.31078217110534E-33,-0.0275));
#1004=CARTESIAN_POINT('',(0.018,0.,-0.0275));
#1005=CARTESIAN_POINT('',(0.018,0.,-0.0285));
#1006=CARTESIAN_POINT('',(-0.000384,0.,-0.0285));
#1007=CARTESIAN_POINT('',(0.012,0.,-0.0285));
#1008=CARTESIAN_POINT('',(0.012,0.,-0.0275));
#1009=CARTESIAN_POINT('',(0.011,-0.004,-0.02325));
#1010=CARTESIAN_POINT('',(0.011,-0.004,-0.02475));
#1011=CARTESIAN_POINT('',(0.011,-0.0055,-0.02475));
#1012=CARTESIAN_POINT('',(0.011,-0.004,-0.023));
#1013=CARTESIAN_POINT('',(0.011,-0.008,-0.023));
#1014=CARTESIAN_POINT('',(0.011,-0.004,-0.0275));
#1015=CARTESIAN_POINT('',(0.011,-0.008,-0.0275));
#1016=CARTESIAN_POINT('',(0.011,-0.008,-0.02325));
#1017=CARTESIAN_POINT('',(0.006,-0.002,-0.023));
#1018=CARTESIAN_POINT('',(0.006,-0.008,-0.023));
#1019=CARTESIAN_POINT('',(0.006,-0.008,-0.018));
#1020=CARTESIAN_POINT('',(0.006,-0.002,-0.018));
#1021=CARTESIAN_POINT('',(-0.016,0.,-0.018));
#1022=CARTESIAN_POINT('',(-0.016,0.,-0.018));
#1023=CARTESIAN_POINT('',(-0.016,-0.008,-0.018));
#1024=CARTESIAN_POINT('',(-0.016,-0.008,-0.018));
#1025=CARTESIAN_POINT('',(-0.016,0.,-0.016));
#1026=CARTESIAN_POINT('',(-0.016,-0.008,-0.016));
#1027=CARTESIAN_POINT('',(-0.018,-0.008,-0.016));
#1028=CARTESIAN_POINT('',(-0.018,0.,-0.016));
#1029=CARTESIAN_POINT('',(-0.018,0.,-0.018));
#1030=CARTESIAN_POINT('',(-0.018,-0.008,-0.018));
#1031=CARTESIAN_POINT('',(-0.018,-0.008,0.016));
#1032=CARTESIAN_POINT('',(-0.018,0.,0.016));
#1033=CARTESIAN_POINT('',(-0.016,0.,0.016));
#1034=CARTESIAN_POINT('',(-0.016,-0.008,0.016));
#1035=CARTESIAN_POINT('',(-0.016,-0.008,0.018));
#1036=CARTESIAN_POINT('',(-0.016,0.,0.018));
#1037=CARTESIAN_POINT('',(-0.016,0.,0.018));
#1038=CARTESIAN_POINT('',(0.01,0.,0.018));
#1039=CARTESIAN_POINT('',(0.01,-0.008,0.018));
#1040=CARTESIAN_POINT('',(-0.016,-0.008,0.018));
#1041=CARTESIAN_POINT('',(0.01,0.,0.022));
#1042=CARTESIAN_POINT('',(0.01,-0.008,0.022));
#1043=CARTESIAN_POINT('',(0.014,-0.008,0.022));
#1044=CARTESIAN_POINT('',(0.014,0.,0.022));
#1045=CARTESIAN_POINT('',(0.014,0.,0.018));
#1046=CARTESIAN_POINT('',(0.014,-0.004,0.02475));
#1047=CARTESIAN_POINT('',(0.014,-0.0055,0.02475));
#1048=CARTESIAN_POINT('',(0.014,-0.008,0.018));
#1049=CARTESIAN_POINT('',(0.014,-0.008,0.0275));
#1050=CARTESIAN_POINT('',(0.014,0.,0.0275));
#1051=CARTESIAN_POINT('',(0.014,0.,0.0285));
#1052=CARTESIAN_POINT('',(0.018,0.,0.0285));
#1053=CARTESIAN_POINT('',(0.018,-0.008,0.0285));
#1054=CARTESIAN_POINT('',(0.015,0.,0.0285));
#1055=CARTESIAN_POINT('',(0.015,-0.008,0.0285));
#1056=CARTESIAN_POINT('',(0.014,-0.008,0.0285));
#1057=CARTESIAN_POINT('',(0.019,-0.004,0.0245));
#1058=CARTESIAN_POINT('',(0.019,-0.004,0.02475));
#1059=CARTESIAN_POINT('',(0.019,-0.0055,0.02475));
#1060=CARTESIAN_POINT('',(0.019,-0.004,0.0205));
#1061=CARTESIAN_POINT('',(0.019,-0.008,0.0205));
#1062=CARTESIAN_POINT('',(0.019,-0.004,0.0275));
#1063=CARTESIAN_POINT('',(0.019,-0.008,0.0275));
#1064=CARTESIAN_POINT('',(0.019,-0.008,0.0245));
#1065=CARTESIAN_POINT('',(0.014,0.,0.018));
#1066=CARTESIAN_POINT('',(0.018,0.,0.018));
#1067=CARTESIAN_POINT('',(0.018,-0.008,0.018));
#1068=CARTESIAN_POINT('',(0.014,-0.008,0.018));
#1069=CARTESIAN_POINT('',(0.014,-0.008,0.014));
#1070=CARTESIAN_POINT('',(0.014,0.,0.014));
#1071=CARTESIAN_POINT('',(0.014,0.,0.014));
#1072=CARTESIAN_POINT('',(0.014,-0.008,0.014));
#1073=CARTESIAN_POINT('',(-0.012,-0.008,0.014));
#1074=CARTESIAN_POINT('',(-0.012,0.,0.014));
#1075=CARTESIAN_POINT('',(-0.012,0.,0.012));
#1076=CARTESIAN_POINT('',(-0.012,-0.008,0.012));
#1077=CARTESIAN_POINT('',(-0.014,-0.008,0.012));
#1078=CARTESIAN_POINT('',(-0.014,0.,0.012));
#1079=CARTESIAN_POINT('',(-0.014,0.,0.014));
#1080=CARTESIAN_POINT('',(-0.014,-0.008,0.014));
#1081=CARTESIAN_POINT('',(-0.014,-0.008,-0.012));
#1082=CARTESIAN_POINT('',(-0.014,0.,-0.012));
#1083=CARTESIAN_POINT('',(-0.012,0.,-0.012));
#1084=CARTESIAN_POINT('',(-0.012,-0.008,-0.012));
#1085=CARTESIAN_POINT('',(-0.012,-0.008,-0.014));
#1086=CARTESIAN_POINT('',(-0.012,0.,-0.014));
#1087=CARTESIAN_POINT('',(0.014,0.,-0.014));
#1088=CARTESIAN_POINT('',(0.014,-0.008,-0.014));
#1089=CARTESIAN_POINT('',(0.01,-0.008,-0.014));
#1090=CARTESIAN_POINT('',(0.01,0.,-0.014));
#1091=CARTESIAN_POINT('',(0.01,0.,-0.019));
#1092=CARTESIAN_POINT('',(0.01,-0.008,-0.019));
#1093=CARTESIAN_POINT('',(0.015,-0.008,-0.019));
#1094=CARTESIAN_POINT('',(0.015,0.,-0.019));
#1095=CARTESIAN_POINT('',(0.018,0.000934800208382374,-0.0205));
#1096=CARTESIAN_POINT('',(0.018,-0.008,-0.0205));
#1097=CARTESIAN_POINT('',(0.018,-0.008,-0.0205));
#1098=CARTESIAN_POINT('',(0.016,-0.008,-0.0205));
#1099=CARTESIAN_POINT('',(0.018,0.000934800208382374,-0.0205));
#1100=CARTESIAN_POINT('',(0.016,0.000934800208382374,-0.0205));
#1101=CARTESIAN_POINT('',(0.019,-0.004,-0.0245));
#1102=CARTESIAN_POINT('',(0.019,-0.004,-0.02475));
#1103=CARTESIAN_POINT('',(0.019,-0.0055,-0.02475));
#1104=CARTESIAN_POINT('',(0.019,-0.004,-0.0275));
#1105=CARTESIAN_POINT('',(0.019,-0.008,-0.0275));
#1106=CARTESIAN_POINT('',(0.019,-0.004,-0.0215));
#1107=CARTESIAN_POINT('',(0.019,-0.008,-0.0215));
#1108=CARTESIAN_POINT('',(0.019,-0.008,-0.0245));
#1109=CARTESIAN_POINT('',(0.018,0.,-0.0285));
#1110=CARTESIAN_POINT('',(0.018,0.,-0.0285));
#1111=CARTESIAN_POINT('',(0.018,-0.008,-0.0285));
#1112=CARTESIAN_POINT('',(0.018,-0.008,-0.0285));
#1113=CARTESIAN_POINT('',(0.012,-0.008,-0.0285));
#1114=CARTESIAN_POINT('',(0.012,0.,-0.0285));
#1115=CARTESIAN_POINT('',(0.019,-0.004,-0.02475));
#1116=CARTESIAN_POINT('',(-0.000384,-0.008,-9.04327118240128E-20));
#1117=CARTESIAN_POINT('',(0.012,-0.008,-0.0275));
#1118=CARTESIAN_POINT('',(0.018,-0.008,-0.0275));
#1119=CARTESIAN_POINT('',(0.018,-0.008,-0.0215));
#1120=CARTESIAN_POINT('',(0.016,-0.008,-0.0195));
#1121=CARTESIAN_POINT('',(0.015,-0.008,-0.0195));
#1122=CARTESIAN_POINT('',(0.015,-0.008,-9.04327118240128E-20));
#1123=CARTESIAN_POINT('',(0.018,-0.008,-9.04327118240128E-20));
#1124=CARTESIAN_POINT('',(0.018,-0.008,0.0195));
#1125=CARTESIAN_POINT('',(0.019,-0.008,0.0195));
#1126=CARTESIAN_POINT('',(0.018,-0.008,0.0275));
#1127=CARTESIAN_POINT('',(0.015,-0.008,0.0275));
#1128=CARTESIAN_POINT('',(0.012,-0.002,-0.0275));
#1129=CARTESIAN_POINT('',(0.019,-0.004,0.02475));
#1130=CARTESIAN_POINT('',(0.015,0.,0.0275));
#1131=CARTESIAN_POINT('',(0.018,-0.002,0.0275));
#1132=CARTESIAN_POINT('',(0.019,0.,0.0195));
#1133=CARTESIAN_POINT('',(0.018,0.,0.0195));
#1134=CARTESIAN_POINT('',(0.018,0.,0.0285));
#1135=CARTESIAN_POINT('',(0.015,-0.00353259989580881,-0.016));
#1136=CARTESIAN_POINT('',(0.015,-0.00353259989580881,-0.0195));
#1137=CARTESIAN_POINT('',(0.016,-0.00129889984371322,-0.0195));
#1138=CARTESIAN_POINT('',(0.018,-0.00153259989580881,-0.0215));
#1139=CARTESIAN_POINT('',(0.018,-0.002,-0.0275));
#1140=MECHANICAL_DESIGN_GEOMETRIC_PRESENTATION_REPRESENTATION('',(#669),
#1141);
#1141=(
GEOMETRIC_REPRESENTATION_CONTEXT(3)
GLOBAL_UNCERTAINTY_ASSIGNED_CONTEXT((#1142))
GLOBAL_UNIT_ASSIGNED_CONTEXT((#1145,#1144,#1143))
REPRESENTATION_CONTEXT('KP0058-01_PCBBracket','TOP_LEVEL_ASSEMBLY_PART')
);
#1142=UNCERTAINTY_MEASURE_WITH_UNIT(LENGTH_MEASURE(1.E-8),#1145,
'DISTANCE_ACCURACY_VALUE','Maximum Tolerance applied to model');
#1143=(
NAMED_UNIT(*)
SI_UNIT($,.STERADIAN.)
SOLID_ANGLE_UNIT()
);
#1144=(
NAMED_UNIT(*)
PLANE_ANGLE_UNIT()
SI_UNIT($,.RADIAN.)
);
#1145=(
LENGTH_UNIT()
NAMED_UNIT(*)
SI_UNIT($,.METRE.)
);
#1146=PRODUCT_DEFINITION_SHAPE('','',#1147);
#1147=PRODUCT_DEFINITION('','',#1149,#1148);
#1148=PRODUCT_DEFINITION_CONTEXT('',#1155,'design');
#1149=PRODUCT_DEFINITION_FORMATION_WITH_SPECIFIED_SOURCE('','',#1151,
 .NOT_KNOWN.);
#1150=PRODUCT_RELATED_PRODUCT_CATEGORY('','',(#1151));
#1151=PRODUCT('KP0058-01_PCBBracket','KP0058-01_PCBBracket',
'KP0058-01_PCBBracket',(#1153));
#1152=PRODUCT_CATEGORY('','');
#1153=PRODUCT_CONTEXT('',#1155,'mechanical');
#1154=APPLICATION_PROTOCOL_DEFINITION('international standard',
'automotive_design',2010,#1155);
#1155=APPLICATION_CONTEXT(
'core data for automotive mechanical design processes');
ENDSEC;
END-ISO-10303-21;
