ISO-10303-21;
HEADER;
/* Generated by software containing ST-Developer
 * from STEP Tools, Inc. (www.steptools.com) 
 */
/* OPTION: using custom renumber hook */

FILE_DESCRIPTION(
/* description */ ('STEP AP214',
'CAx-IF Rec.Pracs.---User Defined Attributes---1.5---2016-08-15'),
/* implementation_level */ '2;1');

FILE_NAME(
/* name */ '6a65b5aa52ede2b56cfc473e',
/* time_stamp */ '2026-07-26T07:22:18Z',
/* author */ (''),
/* organization */ (''),
/* preprocessor_version */ 'ST-DEVELOPER v20',
/* originating_system */ 'ONSHAPE BY PTC INC, 1.218',
/* authorisation */ '  ');

FILE_SCHEMA (('AUTOMOTIVE_DESIGN {1 0 10303 214 3 1 1}'));
ENDSEC;

DATA;
#10=PROPERTY_DEFINITION_REPRESENTATION(#14,#12);
#11=PROPERTY_DEFINITION_REPRESENTATION(#15,#13);
#12=REPRESENTATION('',(#16),#943);
#13=REPRESENTATION('',(#17),#943);
#14=PROPERTY_DEFINITION('pmi validation property','',#948);
#15=PROPERTY_DEFINITION('pmi validation property','',#948);
#16=VALUE_REPRESENTATION_ITEM('number of annotations',COUNT_MEASURE(0.));
#17=VALUE_REPRESENTATION_ITEM('number of views',COUNT_MEASURE(0.));
#18=SHAPE_REPRESENTATION_RELATIONSHIP('','',#561,#19);
#19=ADVANCED_BREP_SHAPE_REPRESENTATION('',(#559),#943);
#20=CYLINDRICAL_SURFACE('',#578,0.0101);
#21=CYLINDRICAL_SURFACE('',#581,0.0101);
#22=CYLINDRICAL_SURFACE('',#584,0.0101);
#23=CYLINDRICAL_SURFACE('',#587,0.0101);
#24=CYLINDRICAL_SURFACE('',#590,0.0101);
#25=CYLINDRICAL_SURFACE('',#593,0.0101);
#26=CYLINDRICAL_SURFACE('',#596,0.0101);
#27=CYLINDRICAL_SURFACE('',#599,0.0101);
#28=CYLINDRICAL_SURFACE('',#602,0.0101);
#29=CYLINDRICAL_SURFACE('',#605,0.0101);
#30=CYLINDRICAL_SURFACE('',#608,0.0101);
#31=CYLINDRICAL_SURFACE('',#611,0.0101);
#32=CYLINDRICAL_SURFACE('',#613,0.0433835653261252);
#33=CYLINDRICAL_SURFACE('',#619,0.0425);
#34=LINE('',#789,#82);
#35=LINE('',#793,#83);
#36=LINE('',#797,#84);
#37=LINE('',#801,#85);
#38=LINE('',#805,#86);
#39=LINE('',#809,#87);
#40=LINE('',#813,#88);
#41=LINE('',#817,#89);
#42=LINE('',#821,#90);
#43=LINE('',#825,#91);
#44=LINE('',#829,#92);
#45=LINE('',#833,#93);
#46=LINE('',#837,#94);
#47=LINE('',#839,#95);
#48=LINE('',#841,#96);
#49=LINE('',#843,#97);
#50=LINE('',#847,#98);
#51=LINE('',#849,#99);
#52=LINE('',#851,#100);
#53=LINE('',#855,#101);
#54=LINE('',#857,#102);
#55=LINE('',#859,#103);
#56=LINE('',#863,#104);
#57=LINE('',#865,#105);
#58=LINE('',#867,#106);
#59=LINE('',#871,#107);
#60=LINE('',#873,#108);
#61=LINE('',#875,#109);
#62=LINE('',#879,#110);
#63=LINE('',#881,#111);
#64=LINE('',#883,#112);
#65=LINE('',#887,#113);
#66=LINE('',#889,#114);
#67=LINE('',#891,#115);
#68=LINE('',#895,#116);
#69=LINE('',#897,#117);
#70=LINE('',#899,#118);
#71=LINE('',#903,#119);
#72=LINE('',#905,#120);
#73=LINE('',#907,#121);
#74=LINE('',#911,#122);
#75=LINE('',#913,#123);
#76=LINE('',#915,#124);
#77=LINE('',#919,#125);
#78=LINE('',#921,#126);
#79=LINE('',#923,#127);
#80=LINE('',#927,#128);
#81=LINE('',#929,#129);
#82=VECTOR('',#626,1.);
#83=VECTOR('',#629,1.);
#84=VECTOR('',#632,1.);
#85=VECTOR('',#635,1.);
#86=VECTOR('',#638,1.);
#87=VECTOR('',#641,1.);
#88=VECTOR('',#644,1.);
#89=VECTOR('',#647,1.);
#90=VECTOR('',#650,1.);
#91=VECTOR('',#653,1.);
#92=VECTOR('',#656,1.);
#93=VECTOR('',#659,1.);
#94=VECTOR('',#664,1.);
#95=VECTOR('',#665,1.);
#96=VECTOR('',#666,1.);
#97=VECTOR('',#669,1.);
#98=VECTOR('',#674,1.);
#99=VECTOR('',#675,1.);
#100=VECTOR('',#678,1.);
#101=VECTOR('',#683,1.);
#102=VECTOR('',#684,1.);
#103=VECTOR('',#687,1.);
#104=VECTOR('',#692,1.);
#105=VECTOR('',#693,1.);
#106=VECTOR('',#696,1.);
#107=VECTOR('',#701,1.);
#108=VECTOR('',#702,1.);
#109=VECTOR('',#705,1.);
#110=VECTOR('',#710,1.);
#111=VECTOR('',#711,1.);
#112=VECTOR('',#714,1.);
#113=VECTOR('',#719,1.);
#114=VECTOR('',#720,1.);
#115=VECTOR('',#723,1.);
#116=VECTOR('',#728,1.);
#117=VECTOR('',#729,1.);
#118=VECTOR('',#732,1.);
#119=VECTOR('',#737,1.);
#120=VECTOR('',#738,1.);
#121=VECTOR('',#741,1.);
#122=VECTOR('',#746,1.);
#123=VECTOR('',#747,1.);
#124=VECTOR('',#750,1.);
#125=VECTOR('',#755,1.);
#126=VECTOR('',#756,1.);
#127=VECTOR('',#759,1.);
#128=VECTOR('',#764,1.);
#129=VECTOR('',#765,1.);
#130=ORIENTED_EDGE('',*,*,#282,.T.);
#131=ORIENTED_EDGE('',*,*,#283,.T.);
#132=ORIENTED_EDGE('',*,*,#284,.T.);
#133=ORIENTED_EDGE('',*,*,#285,.T.);
#134=ORIENTED_EDGE('',*,*,#286,.T.);
#135=ORIENTED_EDGE('',*,*,#287,.T.);
#136=ORIENTED_EDGE('',*,*,#288,.T.);
#137=ORIENTED_EDGE('',*,*,#289,.T.);
#138=ORIENTED_EDGE('',*,*,#290,.T.);
#139=ORIENTED_EDGE('',*,*,#291,.T.);
#140=ORIENTED_EDGE('',*,*,#292,.T.);
#141=ORIENTED_EDGE('',*,*,#293,.T.);
#142=ORIENTED_EDGE('',*,*,#294,.T.);
#143=ORIENTED_EDGE('',*,*,#295,.T.);
#144=ORIENTED_EDGE('',*,*,#296,.T.);
#145=ORIENTED_EDGE('',*,*,#297,.T.);
#146=ORIENTED_EDGE('',*,*,#298,.T.);
#147=ORIENTED_EDGE('',*,*,#299,.T.);
#148=ORIENTED_EDGE('',*,*,#300,.T.);
#149=ORIENTED_EDGE('',*,*,#301,.T.);
#150=ORIENTED_EDGE('',*,*,#302,.T.);
#151=ORIENTED_EDGE('',*,*,#303,.T.);
#152=ORIENTED_EDGE('',*,*,#304,.T.);
#153=ORIENTED_EDGE('',*,*,#305,.T.);
#154=ORIENTED_EDGE('',*,*,#306,.T.);
#155=ORIENTED_EDGE('',*,*,#307,.F.);
#156=ORIENTED_EDGE('',*,*,#308,.F.);
#157=ORIENTED_EDGE('',*,*,#309,.F.);
#158=ORIENTED_EDGE('',*,*,#283,.F.);
#159=ORIENTED_EDGE('',*,*,#310,.F.);
#160=ORIENTED_EDGE('',*,*,#311,.F.);
#161=ORIENTED_EDGE('',*,*,#307,.T.);
#162=ORIENTED_EDGE('',*,*,#282,.F.);
#163=ORIENTED_EDGE('',*,*,#312,.F.);
#164=ORIENTED_EDGE('',*,*,#313,.F.);
#165=ORIENTED_EDGE('',*,*,#310,.T.);
#166=ORIENTED_EDGE('',*,*,#305,.F.);
#167=ORIENTED_EDGE('',*,*,#314,.F.);
#168=ORIENTED_EDGE('',*,*,#315,.F.);
#169=ORIENTED_EDGE('',*,*,#312,.T.);
#170=ORIENTED_EDGE('',*,*,#304,.F.);
#171=ORIENTED_EDGE('',*,*,#316,.F.);
#172=ORIENTED_EDGE('',*,*,#317,.F.);
#173=ORIENTED_EDGE('',*,*,#314,.T.);
#174=ORIENTED_EDGE('',*,*,#303,.F.);
#175=ORIENTED_EDGE('',*,*,#318,.F.);
#176=ORIENTED_EDGE('',*,*,#319,.F.);
#177=ORIENTED_EDGE('',*,*,#316,.T.);
#178=ORIENTED_EDGE('',*,*,#302,.F.);
#179=ORIENTED_EDGE('',*,*,#320,.F.);
#180=ORIENTED_EDGE('',*,*,#321,.F.);
#181=ORIENTED_EDGE('',*,*,#318,.T.);
#182=ORIENTED_EDGE('',*,*,#301,.F.);
#183=ORIENTED_EDGE('',*,*,#322,.F.);
#184=ORIENTED_EDGE('',*,*,#323,.F.);
#185=ORIENTED_EDGE('',*,*,#320,.T.);
#186=ORIENTED_EDGE('',*,*,#300,.F.);
#187=ORIENTED_EDGE('',*,*,#324,.F.);
#188=ORIENTED_EDGE('',*,*,#325,.F.);
#189=ORIENTED_EDGE('',*,*,#322,.T.);
#190=ORIENTED_EDGE('',*,*,#299,.F.);
#191=ORIENTED_EDGE('',*,*,#326,.F.);
#192=ORIENTED_EDGE('',*,*,#327,.F.);
#193=ORIENTED_EDGE('',*,*,#324,.T.);
#194=ORIENTED_EDGE('',*,*,#298,.F.);
#195=ORIENTED_EDGE('',*,*,#328,.F.);
#196=ORIENTED_EDGE('',*,*,#329,.F.);
#197=ORIENTED_EDGE('',*,*,#326,.T.);
#198=ORIENTED_EDGE('',*,*,#297,.F.);
#199=ORIENTED_EDGE('',*,*,#330,.F.);
#200=ORIENTED_EDGE('',*,*,#331,.F.);
#201=ORIENTED_EDGE('',*,*,#328,.T.);
#202=ORIENTED_EDGE('',*,*,#296,.F.);
#203=ORIENTED_EDGE('',*,*,#332,.F.);
#204=ORIENTED_EDGE('',*,*,#333,.F.);
#205=ORIENTED_EDGE('',*,*,#330,.T.);
#206=ORIENTED_EDGE('',*,*,#295,.F.);
#207=ORIENTED_EDGE('',*,*,#334,.F.);
#208=ORIENTED_EDGE('',*,*,#335,.F.);
#209=ORIENTED_EDGE('',*,*,#332,.T.);
#210=ORIENTED_EDGE('',*,*,#294,.F.);
#211=ORIENTED_EDGE('',*,*,#336,.F.);
#212=ORIENTED_EDGE('',*,*,#337,.F.);
#213=ORIENTED_EDGE('',*,*,#334,.T.);
#214=ORIENTED_EDGE('',*,*,#293,.F.);
#215=ORIENTED_EDGE('',*,*,#338,.F.);
#216=ORIENTED_EDGE('',*,*,#339,.F.);
#217=ORIENTED_EDGE('',*,*,#336,.T.);
#218=ORIENTED_EDGE('',*,*,#292,.F.);
#219=ORIENTED_EDGE('',*,*,#340,.F.);
#220=ORIENTED_EDGE('',*,*,#341,.F.);
#221=ORIENTED_EDGE('',*,*,#338,.T.);
#222=ORIENTED_EDGE('',*,*,#291,.F.);
#223=ORIENTED_EDGE('',*,*,#342,.F.);
#224=ORIENTED_EDGE('',*,*,#343,.F.);
#225=ORIENTED_EDGE('',*,*,#340,.T.);
#226=ORIENTED_EDGE('',*,*,#290,.F.);
#227=ORIENTED_EDGE('',*,*,#344,.F.);
#228=ORIENTED_EDGE('',*,*,#345,.F.);
#229=ORIENTED_EDGE('',*,*,#342,.T.);
#230=ORIENTED_EDGE('',*,*,#289,.F.);
#231=ORIENTED_EDGE('',*,*,#346,.F.);
#232=ORIENTED_EDGE('',*,*,#347,.F.);
#233=ORIENTED_EDGE('',*,*,#344,.T.);
#234=ORIENTED_EDGE('',*,*,#288,.F.);
#235=ORIENTED_EDGE('',*,*,#348,.F.);
#236=ORIENTED_EDGE('',*,*,#349,.F.);
#237=ORIENTED_EDGE('',*,*,#346,.T.);
#238=ORIENTED_EDGE('',*,*,#287,.F.);
#239=ORIENTED_EDGE('',*,*,#350,.F.);
#240=ORIENTED_EDGE('',*,*,#351,.F.);
#241=ORIENTED_EDGE('',*,*,#348,.T.);
#242=ORIENTED_EDGE('',*,*,#286,.F.);
#243=ORIENTED_EDGE('',*,*,#352,.F.);
#244=ORIENTED_EDGE('',*,*,#353,.F.);
#245=ORIENTED_EDGE('',*,*,#350,.T.);
#246=ORIENTED_EDGE('',*,*,#285,.F.);
#247=ORIENTED_EDGE('',*,*,#309,.T.);
#248=ORIENTED_EDGE('',*,*,#354,.F.);
#249=ORIENTED_EDGE('',*,*,#352,.T.);
#250=ORIENTED_EDGE('',*,*,#284,.F.);
#251=ORIENTED_EDGE('',*,*,#355,.T.);
#252=ORIENTED_EDGE('',*,*,#306,.F.);
#253=ORIENTED_EDGE('',*,*,#308,.T.);
#254=ORIENTED_EDGE('',*,*,#311,.T.);
#255=ORIENTED_EDGE('',*,*,#313,.T.);
#256=ORIENTED_EDGE('',*,*,#315,.T.);
#257=ORIENTED_EDGE('',*,*,#317,.T.);
#258=ORIENTED_EDGE('',*,*,#319,.T.);
#259=ORIENTED_EDGE('',*,*,#321,.T.);
#260=ORIENTED_EDGE('',*,*,#323,.T.);
#261=ORIENTED_EDGE('',*,*,#325,.T.);
#262=ORIENTED_EDGE('',*,*,#327,.T.);
#263=ORIENTED_EDGE('',*,*,#329,.T.);
#264=ORIENTED_EDGE('',*,*,#331,.T.);
#265=ORIENTED_EDGE('',*,*,#333,.T.);
#266=ORIENTED_EDGE('',*,*,#335,.T.);
#267=ORIENTED_EDGE('',*,*,#337,.T.);
#268=ORIENTED_EDGE('',*,*,#339,.T.);
#269=ORIENTED_EDGE('',*,*,#341,.T.);
#270=ORIENTED_EDGE('',*,*,#343,.T.);
#271=ORIENTED_EDGE('',*,*,#345,.T.);
#272=ORIENTED_EDGE('',*,*,#347,.T.);
#273=ORIENTED_EDGE('',*,*,#349,.T.);
#274=ORIENTED_EDGE('',*,*,#351,.T.);
#275=ORIENTED_EDGE('',*,*,#353,.T.);
#276=ORIENTED_EDGE('',*,*,#354,.T.);
#277=ORIENTED_EDGE('',*,*,#356,.F.);
#278=ORIENTED_EDGE('',*,*,#357,.F.);
#279=ORIENTED_EDGE('',*,*,#355,.F.);
#280=ORIENTED_EDGE('',*,*,#356,.T.);
#281=ORIENTED_EDGE('',*,*,#357,.T.);
#282=EDGE_CURVE('',#358,#359,#410,.F.);
#283=EDGE_CURVE('',#359,#360,#34,.T.);
#284=EDGE_CURVE('',#360,#361,#411,.F.);
#285=EDGE_CURVE('',#361,#362,#35,.T.);
#286=EDGE_CURVE('',#362,#363,#412,.F.);
#287=EDGE_CURVE('',#363,#364,#36,.T.);
#288=EDGE_CURVE('',#364,#365,#413,.F.);
#289=EDGE_CURVE('',#365,#366,#37,.T.);
#290=EDGE_CURVE('',#366,#367,#414,.F.);
#291=EDGE_CURVE('',#367,#368,#38,.T.);
#292=EDGE_CURVE('',#368,#369,#415,.F.);
#293=EDGE_CURVE('',#369,#370,#39,.T.);
#294=EDGE_CURVE('',#370,#371,#416,.F.);
#295=EDGE_CURVE('',#371,#372,#40,.T.);
#296=EDGE_CURVE('',#372,#373,#417,.F.);
#297=EDGE_CURVE('',#373,#374,#41,.T.);
#298=EDGE_CURVE('',#374,#375,#418,.F.);
#299=EDGE_CURVE('',#375,#376,#42,.T.);
#300=EDGE_CURVE('',#376,#377,#419,.F.);
#301=EDGE_CURVE('',#377,#378,#43,.T.);
#302=EDGE_CURVE('',#378,#379,#420,.F.);
#303=EDGE_CURVE('',#379,#380,#44,.T.);
#304=EDGE_CURVE('',#380,#381,#421,.F.);
#305=EDGE_CURVE('',#381,#358,#45,.T.);
#306=EDGE_CURVE('',#382,#382,#422,.T.);
#307=EDGE_CURVE('',#383,#359,#46,.F.);
#308=EDGE_CURVE('',#384,#383,#47,.F.);
#309=EDGE_CURVE('',#360,#384,#48,.T.);
#310=EDGE_CURVE('',#385,#358,#49,.T.);
#311=EDGE_CURVE('',#383,#385,#423,.T.);
#312=EDGE_CURVE('',#386,#381,#50,.F.);
#313=EDGE_CURVE('',#385,#386,#51,.F.);
#314=EDGE_CURVE('',#387,#380,#52,.T.);
#315=EDGE_CURVE('',#386,#387,#424,.T.);
#316=EDGE_CURVE('',#388,#379,#53,.F.);
#317=EDGE_CURVE('',#387,#388,#54,.F.);
#318=EDGE_CURVE('',#389,#378,#55,.T.);
#319=EDGE_CURVE('',#388,#389,#425,.T.);
#320=EDGE_CURVE('',#390,#377,#56,.F.);
#321=EDGE_CURVE('',#389,#390,#57,.F.);
#322=EDGE_CURVE('',#391,#376,#58,.T.);
#323=EDGE_CURVE('',#390,#391,#426,.T.);
#324=EDGE_CURVE('',#392,#375,#59,.F.);
#325=EDGE_CURVE('',#391,#392,#60,.F.);
#326=EDGE_CURVE('',#393,#374,#61,.T.);
#327=EDGE_CURVE('',#392,#393,#427,.T.);
#328=EDGE_CURVE('',#394,#373,#62,.F.);
#329=EDGE_CURVE('',#393,#394,#63,.F.);
#330=EDGE_CURVE('',#395,#372,#64,.T.);
#331=EDGE_CURVE('',#394,#395,#428,.T.);
#332=EDGE_CURVE('',#396,#371,#65,.F.);
#333=EDGE_CURVE('',#395,#396,#66,.F.);
#334=EDGE_CURVE('',#397,#370,#67,.T.);
#335=EDGE_CURVE('',#396,#397,#429,.T.);
#336=EDGE_CURVE('',#398,#369,#68,.F.);
#337=EDGE_CURVE('',#397,#398,#69,.F.);
#338=EDGE_CURVE('',#399,#368,#70,.T.);
#339=EDGE_CURVE('',#398,#399,#430,.T.);
#340=EDGE_CURVE('',#400,#367,#71,.F.);
#341=EDGE_CURVE('',#399,#400,#72,.F.);
#342=EDGE_CURVE('',#401,#366,#73,.T.);
#343=EDGE_CURVE('',#400,#401,#431,.T.);
#344=EDGE_CURVE('',#402,#365,#74,.F.);
#345=EDGE_CURVE('',#401,#402,#75,.F.);
#346=EDGE_CURVE('',#403,#364,#76,.T.);
#347=EDGE_CURVE('',#402,#403,#432,.T.);
#348=EDGE_CURVE('',#404,#363,#77,.F.);
#349=EDGE_CURVE('',#403,#404,#78,.F.);
#350=EDGE_CURVE('',#405,#362,#79,.T.);
#351=EDGE_CURVE('',#404,#405,#433,.T.);
#352=EDGE_CURVE('',#406,#361,#80,.F.);
#353=EDGE_CURVE('',#405,#406,#81,.F.);
#354=EDGE_CURVE('',#406,#384,#434,.T.);
#355=EDGE_CURVE('',#407,#407,#435,.T.);
#356=EDGE_CURVE('',#408,#408,#436,.F.);
#357=EDGE_CURVE('',#409,#409,#437,.T.);
#358=VERTEX_POINT('',#787);
#359=VERTEX_POINT('',#788);
#360=VERTEX_POINT('',#790);
#361=VERTEX_POINT('',#792);
#362=VERTEX_POINT('',#794);
#363=VERTEX_POINT('',#796);
#364=VERTEX_POINT('',#798);
#365=VERTEX_POINT('',#800);
#366=VERTEX_POINT('',#802);
#367=VERTEX_POINT('',#804);
#368=VERTEX_POINT('',#806);
#369=VERTEX_POINT('',#808);
#370=VERTEX_POINT('',#810);
#371=VERTEX_POINT('',#812);
#372=VERTEX_POINT('',#814);
#373=VERTEX_POINT('',#816);
#374=VERTEX_POINT('',#818);
#375=VERTEX_POINT('',#820);
#376=VERTEX_POINT('',#822);
#377=VERTEX_POINT('',#824);
#378=VERTEX_POINT('',#826);
#379=VERTEX_POINT('',#828);
#380=VERTEX_POINT('',#830);
#381=VERTEX_POINT('',#832);
#382=VERTEX_POINT('',#835);
#383=VERTEX_POINT('',#838);
#384=VERTEX_POINT('',#840);
#385=VERTEX_POINT('',#844);
#386=VERTEX_POINT('',#848);
#387=VERTEX_POINT('',#852);
#388=VERTEX_POINT('',#856);
#389=VERTEX_POINT('',#860);
#390=VERTEX_POINT('',#864);
#391=VERTEX_POINT('',#868);
#392=VERTEX_POINT('',#872);
#393=VERTEX_POINT('',#876);
#394=VERTEX_POINT('',#880);
#395=VERTEX_POINT('',#884);
#396=VERTEX_POINT('',#888);
#397=VERTEX_POINT('',#892);
#398=VERTEX_POINT('',#896);
#399=VERTEX_POINT('',#900);
#400=VERTEX_POINT('',#904);
#401=VERTEX_POINT('',#908);
#402=VERTEX_POINT('',#912);
#403=VERTEX_POINT('',#916);
#404=VERTEX_POINT('',#920);
#405=VERTEX_POINT('',#924);
#406=VERTEX_POINT('',#928);
#407=VERTEX_POINT('',#934);
#408=VERTEX_POINT('',#937);
#409=VERTEX_POINT('',#940);
#410=CIRCLE('',#564,0.0101);
#411=CIRCLE('',#565,0.0101);
#412=CIRCLE('',#566,0.0101);
#413=CIRCLE('',#567,0.0101);
#414=CIRCLE('',#568,0.0101);
#415=CIRCLE('',#569,0.0101);
#416=CIRCLE('',#570,0.0101);
#417=CIRCLE('',#571,0.0101);
#418=CIRCLE('',#572,0.0101);
#419=CIRCLE('',#573,0.0101);
#420=CIRCLE('',#574,0.0101);
#421=CIRCLE('',#575,0.0101);
#422=CIRCLE('',#576,0.0433835653261252);
#423=CIRCLE('',#579,0.0101);
#424=CIRCLE('',#582,0.0101);
#425=CIRCLE('',#585,0.0101);
#426=CIRCLE('',#588,0.0101);
#427=CIRCLE('',#591,0.0101);
#428=CIRCLE('',#594,0.0101);
#429=CIRCLE('',#597,0.0101);
#430=CIRCLE('',#600,0.0101);
#431=CIRCLE('',#603,0.0101);
#432=CIRCLE('',#606,0.0101);
#433=CIRCLE('',#609,0.0101);
#434=CIRCLE('',#612,0.0101);
#435=CIRCLE('',#614,0.0433835653261252);
#436=CIRCLE('',#616,0.0425);
#437=CIRCLE('',#618,0.0425);
#438=EDGE_LOOP('',(#130,#131,#132,#133,#134,#135,#136,#137,#138,#139,#140,
#141,#142,#143,#144,#145,#146,#147,#148,#149,#150,#151,#152,#153));
#439=EDGE_LOOP('',(#154));
#440=EDGE_LOOP('',(#155,#156,#157,#158));
#441=EDGE_LOOP('',(#159,#160,#161,#162));
#442=EDGE_LOOP('',(#163,#164,#165,#166));
#443=EDGE_LOOP('',(#167,#168,#169,#170));
#444=EDGE_LOOP('',(#171,#172,#173,#174));
#445=EDGE_LOOP('',(#175,#176,#177,#178));
#446=EDGE_LOOP('',(#179,#180,#181,#182));
#447=EDGE_LOOP('',(#183,#184,#185,#186));
#448=EDGE_LOOP('',(#187,#188,#189,#190));
#449=EDGE_LOOP('',(#191,#192,#193,#194));
#450=EDGE_LOOP('',(#195,#196,#197,#198));
#451=EDGE_LOOP('',(#199,#200,#201,#202));
#452=EDGE_LOOP('',(#203,#204,#205,#206));
#453=EDGE_LOOP('',(#207,#208,#209,#210));
#454=EDGE_LOOP('',(#211,#212,#213,#214));
#455=EDGE_LOOP('',(#215,#216,#217,#218));
#456=EDGE_LOOP('',(#219,#220,#221,#222));
#457=EDGE_LOOP('',(#223,#224,#225,#226));
#458=EDGE_LOOP('',(#227,#228,#229,#230));
#459=EDGE_LOOP('',(#231,#232,#233,#234));
#460=EDGE_LOOP('',(#235,#236,#237,#238));
#461=EDGE_LOOP('',(#239,#240,#241,#242));
#462=EDGE_LOOP('',(#243,#244,#245,#246));
#463=EDGE_LOOP('',(#247,#248,#249,#250));
#464=EDGE_LOOP('',(#251));
#465=EDGE_LOOP('',(#252));
#466=EDGE_LOOP('',(#253,#254,#255,#256,#257,#258,#259,#260,#261,#262,#263,
#264,#265,#266,#267,#268,#269,#270,#271,#272,#273,#274,#275,#276));
#467=EDGE_LOOP('',(#277));
#468=EDGE_LOOP('',(#278));
#469=EDGE_LOOP('',(#279));
#470=EDGE_LOOP('',(#280));
#471=EDGE_LOOP('',(#281));
#472=FACE_BOUND('',#438,.T.);
#473=FACE_BOUND('',#439,.T.);
#474=FACE_BOUND('',#440,.T.);
#475=FACE_BOUND('',#441,.T.);
#476=FACE_BOUND('',#442,.T.);
#477=FACE_BOUND('',#443,.T.);
#478=FACE_BOUND('',#444,.T.);
#479=FACE_BOUND('',#445,.T.);
#480=FACE_BOUND('',#446,.T.);
#481=FACE_BOUND('',#447,.T.);
#482=FACE_BOUND('',#448,.T.);
#483=FACE_BOUND('',#449,.T.);
#484=FACE_BOUND('',#450,.T.);
#485=FACE_BOUND('',#451,.T.);
#486=FACE_BOUND('',#452,.T.);
#487=FACE_BOUND('',#453,.T.);
#488=FACE_BOUND('',#454,.T.);
#489=FACE_BOUND('',#455,.T.);
#490=FACE_BOUND('',#456,.T.);
#491=FACE_BOUND('',#457,.T.);
#492=FACE_BOUND('',#458,.T.);
#493=FACE_BOUND('',#459,.T.);
#494=FACE_BOUND('',#460,.T.);
#495=FACE_BOUND('',#461,.T.);
#496=FACE_BOUND('',#462,.T.);
#497=FACE_BOUND('',#463,.T.);
#498=FACE_BOUND('',#464,.T.);
#499=FACE_BOUND('',#465,.T.);
#500=FACE_BOUND('',#466,.T.);
#501=FACE_BOUND('',#467,.T.);
#502=FACE_BOUND('',#468,.T.);
#503=FACE_BOUND('',#469,.T.);
#504=FACE_BOUND('',#470,.T.);
#505=FACE_BOUND('',#471,.T.);
#506=PLANE('',#563);
#507=PLANE('',#577);
#508=PLANE('',#580);
#509=PLANE('',#583);
#510=PLANE('',#586);
#511=PLANE('',#589);
#512=PLANE('',#592);
#513=PLANE('',#595);
#514=PLANE('',#598);
#515=PLANE('',#601);
#516=PLANE('',#604);
#517=PLANE('',#607);
#518=PLANE('',#610);
#519=PLANE('',#615);
#520=PLANE('',#617);
#521=ADVANCED_FACE('',(#472,#473),#506,.T.);
#522=ADVANCED_FACE('',(#474),#507,.F.);
#523=ADVANCED_FACE('',(#475),#20,.F.);
#524=ADVANCED_FACE('',(#476),#508,.F.);
#525=ADVANCED_FACE('',(#477),#21,.F.);
#526=ADVANCED_FACE('',(#478),#509,.F.);
#527=ADVANCED_FACE('',(#479),#22,.F.);
#528=ADVANCED_FACE('',(#480),#510,.F.);
#529=ADVANCED_FACE('',(#481),#23,.F.);
#530=ADVANCED_FACE('',(#482),#511,.F.);
#531=ADVANCED_FACE('',(#483),#24,.F.);
#532=ADVANCED_FACE('',(#484),#512,.F.);
#533=ADVANCED_FACE('',(#485),#25,.F.);
#534=ADVANCED_FACE('',(#486),#513,.F.);
#535=ADVANCED_FACE('',(#487),#26,.F.);
#536=ADVANCED_FACE('',(#488),#514,.F.);
#537=ADVANCED_FACE('',(#489),#27,.F.);
#538=ADVANCED_FACE('',(#490),#515,.F.);
#539=ADVANCED_FACE('',(#491),#28,.F.);
#540=ADVANCED_FACE('',(#492),#516,.F.);
#541=ADVANCED_FACE('',(#493),#29,.F.);
#542=ADVANCED_FACE('',(#494),#517,.F.);
#543=ADVANCED_FACE('',(#495),#30,.F.);
#544=ADVANCED_FACE('',(#496),#518,.F.);
#545=ADVANCED_FACE('',(#497),#31,.F.);
#546=ADVANCED_FACE('',(#498,#499),#32,.T.);
#547=ADVANCED_FACE('',(#500,#501),#519,.F.);
#548=ADVANCED_FACE('',(#502,#503),#520,.F.);
#549=ADVANCED_FACE('',(#504,#505),#33,.T.);
#550=CLOSED_SHELL('',(#521,#522,#523,#524,#525,#526,#527,#528,#529,#530,
#531,#532,#533,#534,#535,#536,#537,#538,#539,#540,#541,#542,#543,#544,#545,
#546,#547,#548,#549));
#551=STYLED_ITEM('',(#552),#559);
#552=PRESENTATION_STYLE_ASSIGNMENT((#553));
#553=SURFACE_STYLE_USAGE(.BOTH.,#554);
#554=SURFACE_SIDE_STYLE('',(#555));
#555=SURFACE_STYLE_FILL_AREA(#556);
#556=FILL_AREA_STYLE('',(#557));
#557=FILL_AREA_STYLE_COLOUR('',#558);
#558=COLOUR_RGB('',0.745098039215686,0.745098039215686,0.745098039215686);
#559=MANIFOLD_SOLID_BREP('KP0019-01_SlipRingBracketV2',#550);
#560=SHAPE_DEFINITION_REPRESENTATION(#948,#561);
#561=SHAPE_REPRESENTATION('KP0019-01_SlipRingBracketV2',(#562),#943);
#562=AXIS2_PLACEMENT_3D('',#784,#620,#621);
#563=AXIS2_PLACEMENT_3D('',#785,#622,#623);
#564=AXIS2_PLACEMENT_3D('',#786,#624,#625);
#565=AXIS2_PLACEMENT_3D('',#791,#627,#628);
#566=AXIS2_PLACEMENT_3D('',#795,#630,#631);
#567=AXIS2_PLACEMENT_3D('',#799,#633,#634);
#568=AXIS2_PLACEMENT_3D('',#803,#636,#637);
#569=AXIS2_PLACEMENT_3D('',#807,#639,#640);
#570=AXIS2_PLACEMENT_3D('',#811,#642,#643);
#571=AXIS2_PLACEMENT_3D('',#815,#645,#646);
#572=AXIS2_PLACEMENT_3D('',#819,#648,#649);
#573=AXIS2_PLACEMENT_3D('',#823,#651,#652);
#574=AXIS2_PLACEMENT_3D('',#827,#654,#655);
#575=AXIS2_PLACEMENT_3D('',#831,#657,#658);
#576=AXIS2_PLACEMENT_3D('',#834,#660,#661);
#577=AXIS2_PLACEMENT_3D('',#836,#662,#663);
#578=AXIS2_PLACEMENT_3D('',#842,#667,#668);
#579=AXIS2_PLACEMENT_3D('',#845,#670,#671);
#580=AXIS2_PLACEMENT_3D('',#846,#672,#673);
#581=AXIS2_PLACEMENT_3D('',#850,#676,#677);
#582=AXIS2_PLACEMENT_3D('',#853,#679,#680);
#583=AXIS2_PLACEMENT_3D('',#854,#681,#682);
#584=AXIS2_PLACEMENT_3D('',#858,#685,#686);
#585=AXIS2_PLACEMENT_3D('',#861,#688,#689);
#586=AXIS2_PLACEMENT_3D('',#862,#690,#691);
#587=AXIS2_PLACEMENT_3D('',#866,#694,#695);
#588=AXIS2_PLACEMENT_3D('',#869,#697,#698);
#589=AXIS2_PLACEMENT_3D('',#870,#699,#700);
#590=AXIS2_PLACEMENT_3D('',#874,#703,#704);
#591=AXIS2_PLACEMENT_3D('',#877,#706,#707);
#592=AXIS2_PLACEMENT_3D('',#878,#708,#709);
#593=AXIS2_PLACEMENT_3D('',#882,#712,#713);
#594=AXIS2_PLACEMENT_3D('',#885,#715,#716);
#595=AXIS2_PLACEMENT_3D('',#886,#717,#718);
#596=AXIS2_PLACEMENT_3D('',#890,#721,#722);
#597=AXIS2_PLACEMENT_3D('',#893,#724,#725);
#598=AXIS2_PLACEMENT_3D('',#894,#726,#727);
#599=AXIS2_PLACEMENT_3D('',#898,#730,#731);
#600=AXIS2_PLACEMENT_3D('',#901,#733,#734);
#601=AXIS2_PLACEMENT_3D('',#902,#735,#736);
#602=AXIS2_PLACEMENT_3D('',#906,#739,#740);
#603=AXIS2_PLACEMENT_3D('',#909,#742,#743);
#604=AXIS2_PLACEMENT_3D('',#910,#744,#745);
#605=AXIS2_PLACEMENT_3D('',#914,#748,#749);
#606=AXIS2_PLACEMENT_3D('',#917,#751,#752);
#607=AXIS2_PLACEMENT_3D('',#918,#753,#754);
#608=AXIS2_PLACEMENT_3D('',#922,#757,#758);
#609=AXIS2_PLACEMENT_3D('',#925,#760,#761);
#610=AXIS2_PLACEMENT_3D('',#926,#762,#763);
#611=AXIS2_PLACEMENT_3D('',#930,#766,#767);
#612=AXIS2_PLACEMENT_3D('',#931,#768,#769);
#613=AXIS2_PLACEMENT_3D('',#932,#770,#771);
#614=AXIS2_PLACEMENT_3D('',#933,#772,#773);
#615=AXIS2_PLACEMENT_3D('',#935,#774,#775);
#616=AXIS2_PLACEMENT_3D('',#936,#776,#777);
#617=AXIS2_PLACEMENT_3D('',#938,#778,#779);
#618=AXIS2_PLACEMENT_3D('',#939,#780,#781);
#619=AXIS2_PLACEMENT_3D('',#941,#782,#783);
#620=DIRECTION('',(0.,0.,1.));
#621=DIRECTION('',(1.,0.,0.));
#622=DIRECTION('',(1.43625182080162E-32,1.,4.08588880055632E-32));
#623=DIRECTION('',(0.,-4.08588880055632E-32,1.));
#624=DIRECTION('',(0.,1.,0.));
#625=DIRECTION('',(-1.,0.,0.));
#626=DIRECTION('',(-0.965151256929218,0.,-0.261692665636525));
#627=DIRECTION('',(0.,1.,0.));
#628=DIRECTION('',(-1.,0.,0.));
#629=DIRECTION('',(-0.704999174181666,0.,-0.709208124885191));
#630=DIRECTION('',(0.,1.,0.));
#631=DIRECTION('',(-1.,0.,0.));
#632=DIRECTION('',(-0.255943132041002,0.,-0.966691839813));
#633=DIRECTION('',(0.,1.,0.));
#634=DIRECTION('',(-1.,0.,0.));
#635=DIRECTION('',(0.261692665634317,0.,-0.965151256929817));
#636=DIRECTION('',(0.,1.,0.));
#637=DIRECTION('',(-1.,0.,0.));
#638=DIRECTION('',(0.709208124889592,0.,-0.704999174177239));
#639=DIRECTION('',(0.,1.,0.));
#640=DIRECTION('',(-1.,0.,0.));
#641=DIRECTION('',(0.966691839813033,0.,-0.255943132040877));
#642=DIRECTION('',(0.,1.,0.));
#643=DIRECTION('',(-1.,0.,0.));
#644=DIRECTION('',(0.965151256929817,0.,0.261692665634317));
#645=DIRECTION('',(0.,1.,0.));
#646=DIRECTION('',(-1.,0.,0.));
#647=DIRECTION('',(0.704999174181637,0.,0.70920812488522));
#648=DIRECTION('',(0.,1.,0.));
#649=DIRECTION('',(-1.,0.,0.));
#650=DIRECTION('',(0.255943132043286,0.,0.966691839812395));
#651=DIRECTION('',(0.,1.,0.));
#652=DIRECTION('',(-1.,0.,0.));
#653=DIRECTION('',(-0.261692665634317,0.,0.965151256929817));
#654=DIRECTION('',(0.,1.,0.));
#655=DIRECTION('',(-1.,0.,0.));
#656=DIRECTION('',(-0.709208124889592,0.,0.704999174177239));
#657=DIRECTION('',(0.,1.,0.));
#658=DIRECTION('',(-1.,0.,0.));
#659=DIRECTION('',(-0.966691839812395,0.,0.255943132043286));
#660=DIRECTION('',(0.,1.,0.));
#661=DIRECTION('',(-1.,0.,0.));
#662=DIRECTION('',(-0.261692665636525,0.,0.965151256929218));
#663=DIRECTION('',(-0.965151256929218,0.,-0.261692665636525));
#664=DIRECTION('',(0.,-1.,0.));
#665=DIRECTION('',(-0.965151256929218,0.,-0.261692665636525));
#666=DIRECTION('',(0.,-1.,0.));
#667=DIRECTION('',(0.,1.,0.));
#668=DIRECTION('',(-1.,0.,0.));
#669=DIRECTION('',(0.,1.,0.));
#670=DIRECTION('',(0.,1.,0.));
#671=DIRECTION('',(-1.,0.,0.));
#672=DIRECTION('',(0.255943132043285,0.,0.966691839812395));
#673=DIRECTION('',(-0.966691839812395,0.,0.255943132043285));
#674=DIRECTION('',(0.,-1.,0.));
#675=DIRECTION('',(-0.966691839812395,0.,0.255943132043285));
#676=DIRECTION('',(0.,1.,0.));
#677=DIRECTION('',(-1.,0.,0.));
#678=DIRECTION('',(0.,1.,0.));
#679=DIRECTION('',(0.,1.,0.));
#680=DIRECTION('',(-1.,0.,0.));
#681=DIRECTION('',(0.704999174177238,0.,0.709208124889593));
#682=DIRECTION('',(-0.709208124889593,0.,0.704999174177238));
#683=DIRECTION('',(0.,-1.,0.));
#684=DIRECTION('',(-0.709208124889593,0.,0.704999174177238));
#685=DIRECTION('',(0.,1.,0.));
#686=DIRECTION('',(-1.,0.,0.));
#687=DIRECTION('',(0.,1.,0.));
#688=DIRECTION('',(0.,1.,0.));
#689=DIRECTION('',(-1.,0.,0.));
#690=DIRECTION('',(0.965151256929817,0.,0.261692665634316));
#691=DIRECTION('',(-0.261692665634316,0.,0.965151256929817));
#692=DIRECTION('',(0.,-1.,0.));
#693=DIRECTION('',(-0.261692665634316,0.,0.965151256929817));
#694=DIRECTION('',(0.,1.,0.));
#695=DIRECTION('',(-1.,0.,0.));
#696=DIRECTION('',(0.,1.,0.));
#697=DIRECTION('',(0.,1.,0.));
#698=DIRECTION('',(-1.,0.,0.));
#699=DIRECTION('',(0.966691839812395,0.,-0.255943132043285));
#700=DIRECTION('',(0.255943132043285,0.,0.966691839812395));
#701=DIRECTION('',(0.,-1.,0.));
#702=DIRECTION('',(0.255943132043285,0.,0.966691839812395));
#703=DIRECTION('',(0.,1.,0.));
#704=DIRECTION('',(-1.,0.,0.));
#705=DIRECTION('',(0.,1.,0.));
#706=DIRECTION('',(0.,1.,0.));
#707=DIRECTION('',(-1.,0.,0.));
#708=DIRECTION('',(0.70920812488522,0.,-0.704999174181637));
#709=DIRECTION('',(0.704999174181637,0.,0.70920812488522));
#710=DIRECTION('',(0.,-1.,0.));
#711=DIRECTION('',(0.704999174181637,0.,0.70920812488522));
#712=DIRECTION('',(0.,1.,0.));
#713=DIRECTION('',(-1.,0.,0.));
#714=DIRECTION('',(0.,1.,0.));
#715=DIRECTION('',(0.,1.,0.));
#716=DIRECTION('',(-1.,0.,0.));
#717=DIRECTION('',(0.261692665634316,0.,-0.965151256929817));
#718=DIRECTION('',(0.965151256929817,0.,0.261692665634316));
#719=DIRECTION('',(0.,-1.,0.));
#720=DIRECTION('',(0.965151256929817,0.,0.261692665634316));
#721=DIRECTION('',(0.,1.,0.));
#722=DIRECTION('',(-1.,0.,0.));
#723=DIRECTION('',(0.,1.,0.));
#724=DIRECTION('',(0.,1.,0.));
#725=DIRECTION('',(-1.,0.,0.));
#726=DIRECTION('',(-0.255943132040881,0.,-0.966691839813032));
#727=DIRECTION('',(0.966691839813032,0.,-0.255943132040881));
#728=DIRECTION('',(0.,-1.,0.));
#729=DIRECTION('',(0.966691839813032,0.,-0.255943132040881));
#730=DIRECTION('',(0.,1.,0.));
#731=DIRECTION('',(-1.,0.,0.));
#732=DIRECTION('',(0.,1.,0.));
#733=DIRECTION('',(0.,1.,0.));
#734=DIRECTION('',(-1.,0.,0.));
#735=DIRECTION('',(-0.704999174177238,0.,-0.709208124889593));
#736=DIRECTION('',(0.709208124889593,0.,-0.704999174177238));
#737=DIRECTION('',(0.,-1.,0.));
#738=DIRECTION('',(0.709208124889593,0.,-0.704999174177238));
#739=DIRECTION('',(0.,1.,0.));
#740=DIRECTION('',(-1.,0.,0.));
#741=DIRECTION('',(0.,1.,0.));
#742=DIRECTION('',(0.,1.,0.));
#743=DIRECTION('',(-1.,0.,0.));
#744=DIRECTION('',(-0.965151256929817,0.,-0.261692665634316));
#745=DIRECTION('',(0.261692665634316,0.,-0.965151256929817));
#746=DIRECTION('',(0.,-1.,0.));
#747=DIRECTION('',(0.261692665634316,0.,-0.965151256929817));
#748=DIRECTION('',(0.,1.,0.));
#749=DIRECTION('',(-1.,0.,0.));
#750=DIRECTION('',(0.,1.,0.));
#751=DIRECTION('',(0.,1.,0.));
#752=DIRECTION('',(-1.,0.,0.));
#753=DIRECTION('',(-0.966691839813,0.,0.255943132041001));
#754=DIRECTION('',(-0.255943132041001,0.,-0.966691839813));
#755=DIRECTION('',(0.,-1.,0.));
#756=DIRECTION('',(-0.255943132041001,0.,-0.966691839813));
#757=DIRECTION('',(0.,1.,0.));
#758=DIRECTION('',(-1.,0.,0.));
#759=DIRECTION('',(0.,1.,0.));
#760=DIRECTION('',(0.,1.,0.));
#761=DIRECTION('',(-1.,0.,0.));
#762=DIRECTION('',(-0.709208124885194,0.,0.704999174181663));
#763=DIRECTION('',(-0.704999174181663,0.,-0.709208124885194));
#764=DIRECTION('',(0.,-1.,0.));
#765=DIRECTION('',(-0.704999174181663,0.,-0.709208124885194));
#766=DIRECTION('',(0.,1.,0.));
#767=DIRECTION('',(-1.,0.,0.));
#768=DIRECTION('',(0.,1.,0.));
#769=DIRECTION('',(-1.,0.,0.));
#770=DIRECTION('',(0.,1.,0.));
#771=DIRECTION('',(-1.,0.,0.));
#772=DIRECTION('',(0.,1.,0.));
#773=DIRECTION('',(-1.,0.,0.));
#774=DIRECTION('',(1.43625182080162E-32,1.,4.08588880055632E-32));
#775=DIRECTION('',(0.,-4.08588880055632E-32,1.));
#776=DIRECTION('',(0.,-1.,0.));
#777=DIRECTION('',(1.,0.,0.));
#778=DIRECTION('',(1.43625182080162E-32,1.,4.08588880055633E-32));
#779=DIRECTION('',(0.,-4.08588880055633E-32,1.));
#780=DIRECTION('',(0.,-1.,0.));
#781=DIRECTION('',(1.,0.,0.));
#782=DIRECTION('',(0.,-1.,0.));
#783=DIRECTION('',(1.,0.,0.));
#784=CARTESIAN_POINT('',(0.,0.,0.));
#785=CARTESIAN_POINT('',(1.80759241193766E-18,-0.052,-6.82423104251164E-19));
#786=CARTESIAN_POINT('',(-9.56758898706034E-5,-0.052,0.0321470958213643));
#787=CARTESIAN_POINT('',(0.00248934974373359,-0.052,0.0419106834035089));
#788=CARTESIAN_POINT('',(-0.00273877181284178,-0.052,0.0418951235163782));
#789=CARTESIAN_POINT('',(-0.00273877181287389,-0.052,0.0418951235163695));
#790=CARTESIAN_POINT('',(-0.0187995015847489,-0.052,0.0375403913892599));
#791=CARTESIAN_POINT('',(-0.0161564056618398,-0.052,0.0277923636942587));
#792=CARTESIAN_POINT('',(-0.0233194077230603,-0.052,0.0349128553534369));
#793=CARTESIAN_POINT('',(-0.0233194077230291,-0.052,0.0349128553534683));
#794=CARTESIAN_POINT('',(-0.0350510416454812,-0.052,0.0231111818187178));
#795=CARTESIAN_POINT('',(-0.0278880395841293,-0.052,0.0159906901595245));
#796=CARTESIAN_POINT('',(-0.0376516271662313,-0.052,0.0185757157931289));
#797=CARTESIAN_POINT('',(-0.0376516271662331,-0.052,0.0185757157931221));
#798=CARTESIAN_POINT('',(-0.0419106834034756,-0.052,0.00248934974372206));
#799=CARTESIAN_POINT('',(-0.0321470958213643,-0.052,-9.56758898705967E-5));
#800=CARTESIAN_POINT('',(-0.041895123516398,-0.052,-0.00273877181275748));
#801=CARTESIAN_POINT('',(-0.0418951235164059,-0.052,-0.00273877181272837));
#802=CARTESIAN_POINT('',(-0.0375403913892762,-0.052,-0.0187995015847363));
#803=CARTESIAN_POINT('',(-0.0277923636942587,-0.052,-0.0161564056618397));
#804=CARTESIAN_POINT('',(-0.0349128553533058,-0.052,-0.0233194077233379));
#805=CARTESIAN_POINT('',(-0.0349128553531773,-0.052,-0.0233194077234657));
#806=CARTESIAN_POINT('',(-0.0231111818186227,-0.052,-0.0350510416455762));
#807=CARTESIAN_POINT('',(-0.0159906901595245,-0.052,-0.0278880395841293));
#808=CARTESIAN_POINT('',(-0.0185757157931283,-0.052,-0.0376516271662315));
#809=CARTESIAN_POINT('',(-0.0185757157931221,-0.052,-0.0376516271662331));
#810=CARTESIAN_POINT('',(-0.00248934974364867,-0.052,-0.0419106834034939));
#811=CARTESIAN_POINT('',(9.56758898705856E-5,-0.052,-0.0321470958213643));
#812=CARTESIAN_POINT('',(0.00273877181289917,-0.052,-0.0418951235163293));
#813=CARTESIAN_POINT('',(0.00273877181301941,-0.052,-0.0418951235162967));
#814=CARTESIAN_POINT('',(0.0187995015848819,-0.052,-0.0375403913892215));
#815=CARTESIAN_POINT('',(0.0161564056618398,-0.052,-0.0277923636942587));
#816=CARTESIAN_POINT('',(0.0233194077231699,-0.052,-0.0349128553534731));
#817=CARTESIAN_POINT('',(0.0233194077231747,-0.052,-0.0349128553534683));
#818=CARTESIAN_POINT('',(0.0350510416454813,-0.052,-0.0231111818187904));
#819=CARTESIAN_POINT('',(0.0278880395841293,-0.052,-0.0159906901595245));
#820=CARTESIAN_POINT('',(0.0376516271662626,-0.052,-0.0185757157929944));
#821=CARTESIAN_POINT('',(0.0376516271663058,-0.052,-0.018575715792831));
#822=CARTESIAN_POINT('',(0.0419106834034907,-0.052,-0.00248934974373359));
#823=CARTESIAN_POINT('',(0.0321470958213643,-0.052,9.56758898705967E-5));
#824=CARTESIAN_POINT('',(0.041895123516398,-0.052,0.00273877181275748));
#825=CARTESIAN_POINT('',(0.0418951235164059,-0.052,0.00273877181272837));
#826=CARTESIAN_POINT('',(0.0375403913892762,-0.052,0.0187995015847364));
#827=CARTESIAN_POINT('',(0.0277923636942587,-0.052,0.0161564056618398));
#828=CARTESIAN_POINT('',(0.0349128553533784,-0.052,0.0233194077232649));
#829=CARTESIAN_POINT('',(0.0349128553533228,-0.052,0.0233194077233202));
#830=CARTESIAN_POINT('',(0.0231111818186955,-0.052,0.0350510416455034));
#831=CARTESIAN_POINT('',(0.0159906901595245,-0.052,0.0278880395841293));
#832=CARTESIAN_POINT('',(0.0185757157929989,-0.052,0.0376516271662978));
#833=CARTESIAN_POINT('',(0.018575715792831,-0.052,0.0376516271663422));
#834=CARTESIAN_POINT('',(-7.61213465024857E-34,-0.052,-2.16552106429485E-33));
#835=CARTESIAN_POINT('',(-0.0433835653261252,-0.052,-2.16552106429485E-33));
#836=CARTESIAN_POINT('',(-0.0187995015847264,-0.0551,0.037540391389266));
#837=CARTESIAN_POINT('',(-0.00273877181287389,-0.0551,0.0418951235163695));
#838=CARTESIAN_POINT('',(-0.00273877181284178,-0.0551,0.0418951235163782));
#839=CARTESIAN_POINT('',(-0.0187995015847264,-0.0551,0.037540391389266));
#840=CARTESIAN_POINT('',(-0.0187995015847489,-0.0551,0.0375403913892599));
#841=CARTESIAN_POINT('',(-0.0187995015847264,-0.0551,0.037540391389266));
#842=CARTESIAN_POINT('',(-9.56758898706034E-5,-0.0551,0.0321470958213643));
#843=CARTESIAN_POINT('',(0.00248934974368541,-0.0551,0.041910683403491));
#844=CARTESIAN_POINT('',(0.00248934974373359,-0.0551,0.0419106834035089));
#845=CARTESIAN_POINT('',(-9.56758898706034E-5,-0.0551,0.0321470958213643));
#846=CARTESIAN_POINT('',(0.00248934974370058,-0.0551,0.0419106834035483));
#847=CARTESIAN_POINT('',(0.018575715792831,-0.0551,0.0376516271663422));
#848=CARTESIAN_POINT('',(0.0185757157929989,-0.0551,0.0376516271662978));
#849=CARTESIAN_POINT('',(0.00248934974370058,-0.0551,0.0419106834035483));
#850=CARTESIAN_POINT('',(0.0159906901595245,-0.0551,0.0278880395841293));
#851=CARTESIAN_POINT('',(0.0231111818187061,-0.0551,0.0350510416455226));
#852=CARTESIAN_POINT('',(0.0231111818186955,-0.0551,0.0350510416455034));
#853=CARTESIAN_POINT('',(0.0159906901595245,-0.0551,0.0278880395841293));
#854=CARTESIAN_POINT('',(0.0231111818186764,-0.0551,0.0350510416454927));
#855=CARTESIAN_POINT('',(0.0349128553533228,-0.0551,0.0233194077233202));
#856=CARTESIAN_POINT('',(0.0349128553533784,-0.0551,0.023319407723265));
#857=CARTESIAN_POINT('',(0.0231111818186764,-0.0551,0.0350510416454927));
#858=CARTESIAN_POINT('',(0.0277923636942587,-0.0551,0.0161564056618398));
#859=CARTESIAN_POINT('',(0.0375403913892585,-0.0551,0.0187995015847145));
#860=CARTESIAN_POINT('',(0.0375403913892762,-0.0551,0.0187995015847364));
#861=CARTESIAN_POINT('',(0.0277923636942587,-0.0551,0.0161564056618398));
#862=CARTESIAN_POINT('',(0.0375403913893024,-0.0551,0.0187995015847264));
#863=CARTESIAN_POINT('',(0.0418951235164059,-0.0551,0.00273877181272836));
#864=CARTESIAN_POINT('',(0.041895123516398,-0.0551,0.00273877181275747));
#865=CARTESIAN_POINT('',(0.0375403913893024,-0.0551,0.0187995015847264));
#866=CARTESIAN_POINT('',(0.0321470958213643,-0.0551,9.56758898705967E-5));
#867=CARTESIAN_POINT('',(0.0419106834034886,-0.0551,-0.00248934974369442));
#868=CARTESIAN_POINT('',(0.0419106834034907,-0.0551,-0.00248934974373359));
#869=CARTESIAN_POINT('',(0.0321470958213643,-0.0551,9.56758898705967E-5));
#870=CARTESIAN_POINT('',(0.0419106834035119,-0.0551,-0.00248934974370058));
#871=CARTESIAN_POINT('',(0.0376516271663058,-0.0551,-0.018575715792831));
#872=CARTESIAN_POINT('',(0.0376516271662626,-0.0551,-0.0185757157929944));
#873=CARTESIAN_POINT('',(0.0419106834035119,-0.0551,-0.00248934974370058));
#874=CARTESIAN_POINT('',(0.0278880395841293,-0.0551,-0.0159906901595245));
#875=CARTESIAN_POINT('',(0.0350510416454499,-0.0551,-0.0231111818187793));
#876=CARTESIAN_POINT('',(0.0350510416454813,-0.0551,-0.0231111818187904));
#877=CARTESIAN_POINT('',(0.0278880395841293,-0.0551,-0.0159906901595245));
#878=CARTESIAN_POINT('',(0.0350510416454927,-0.0551,-0.0231111818188219));
#879=CARTESIAN_POINT('',(0.0233194077231747,-0.0551,-0.0349128553534683));
#880=CARTESIAN_POINT('',(0.0233194077231699,-0.0551,-0.0349128553534731));
#881=CARTESIAN_POINT('',(0.0350510416454927,-0.0551,-0.0231111818188219));
#882=CARTESIAN_POINT('',(0.0161564056618398,-0.0551,-0.0277923636942587));
#883=CARTESIAN_POINT('',(0.0187995015850131,-0.0551,-0.0375403913891776));
#884=CARTESIAN_POINT('',(0.0187995015848819,-0.0551,-0.0375403913892215));
#885=CARTESIAN_POINT('',(0.0161564056618398,-0.0551,-0.0277923636942587));
#886=CARTESIAN_POINT('',(0.0187995015850174,-0.0551,-0.0375403913891932));
#887=CARTESIAN_POINT('',(0.0027387718130194,-0.0551,-0.0418951235162967));
#888=CARTESIAN_POINT('',(0.00273877181289916,-0.0551,-0.0418951235163293));
#889=CARTESIAN_POINT('',(0.0187995015850174,-0.0551,-0.0375403913891932));
#890=CARTESIAN_POINT('',(9.56758898705856E-5,-0.0551,-0.0321470958213643));
#891=CARTESIAN_POINT('',(-0.00248934974355843,-0.0551,-0.0419106834035246));
#892=CARTESIAN_POINT('',(-0.00248934974364869,-0.0551,-0.0419106834034939));
#893=CARTESIAN_POINT('',(9.56758898705856E-5,-0.0551,-0.0321470958213643));
#894=CARTESIAN_POINT('',(-0.00248934974355506,-0.0551,-0.0419106834035119));
#895=CARTESIAN_POINT('',(-0.0185757157931221,-0.0551,-0.037651627166233));
#896=CARTESIAN_POINT('',(-0.0185757157931283,-0.0551,-0.0376516271662314));
#897=CARTESIAN_POINT('',(-0.00248934974355506,-0.0551,-0.0419106834035119));
#898=CARTESIAN_POINT('',(-0.0159906901595245,-0.0551,-0.0278880395841293));
#899=CARTESIAN_POINT('',(-0.0231111818185602,-0.0551,-0.0350510416456677));
#900=CARTESIAN_POINT('',(-0.0231111818186227,-0.0551,-0.0350510416455762));
#901=CARTESIAN_POINT('',(-0.0159906901595245,-0.0551,-0.0278880395841293));
#902=CARTESIAN_POINT('',(-0.0231111818185309,-0.0551,-0.0350510416456382));
#903=CARTESIAN_POINT('',(-0.0349128553531773,-0.0551,-0.0233194077234657));
#904=CARTESIAN_POINT('',(-0.0349128553533058,-0.0551,-0.0233194077233379));
#905=CARTESIAN_POINT('',(-0.0231111818185309,-0.0551,-0.0350510416456382));
#906=CARTESIAN_POINT('',(-0.0277923636942587,-0.0551,-0.0161564056618397));
#907=CARTESIAN_POINT('',(-0.0375403913892585,-0.0551,-0.0187995015847145));
#908=CARTESIAN_POINT('',(-0.0375403913892762,-0.0551,-0.0187995015847363));
#909=CARTESIAN_POINT('',(-0.0277923636942587,-0.0551,-0.0161564056618397));
#910=CARTESIAN_POINT('',(-0.0375403913893024,-0.0551,-0.0187995015847264));
#911=CARTESIAN_POINT('',(-0.0418951235164059,-0.0551,-0.00273877181272836));
#912=CARTESIAN_POINT('',(-0.041895123516398,-0.0551,-0.00273877181275747));
#913=CARTESIAN_POINT('',(-0.0375403913893024,-0.0551,-0.0187995015847264));
#914=CARTESIAN_POINT('',(-0.0321470958213643,-0.0551,-9.56758898705967E-5));
#915=CARTESIAN_POINT('',(-0.0419106834034862,-0.0551,0.00248934974370341));
#916=CARTESIAN_POINT('',(-0.0419106834034756,-0.0551,0.00248934974372206));
#917=CARTESIAN_POINT('',(-0.0321470958213643,-0.0551,-9.56758898705967E-5));
#918=CARTESIAN_POINT('',(-0.0419106834034756,-0.0551,0.00248934974370059));
#919=CARTESIAN_POINT('',(-0.0376516271662332,-0.0551,0.0185757157931221));
#920=CARTESIAN_POINT('',(-0.0376516271662313,-0.0551,0.0185757157931289));
#921=CARTESIAN_POINT('',(-0.0419106834034756,-0.0551,0.00248934974370059));
#922=CARTESIAN_POINT('',(-0.0278880395841293,-0.0551,0.0159906901595245));
#923=CARTESIAN_POINT('',(-0.0350510416455226,-0.0551,0.0231111818187061));
#924=CARTESIAN_POINT('',(-0.0350510416454812,-0.0551,0.0231111818187178));
#925=CARTESIAN_POINT('',(-0.0278880395841293,-0.0551,0.0159906901595245));
#926=CARTESIAN_POINT('',(-0.0350510416454927,-0.0551,0.0231111818186764));
#927=CARTESIAN_POINT('',(-0.0233194077230292,-0.0551,0.0349128553534683));
#928=CARTESIAN_POINT('',(-0.0233194077230604,-0.0551,0.0349128553534369));
#929=CARTESIAN_POINT('',(-0.0350510416454927,-0.0551,0.0231111818186764));
#930=CARTESIAN_POINT('',(-0.0161564056618398,-0.0551,0.0277923636942587));
#931=CARTESIAN_POINT('',(-0.0161564056618398,-0.0551,0.0277923636942587));
#932=CARTESIAN_POINT('',(-7.61213465024857E-34,-0.0535,-2.16552106429485E-33));
#933=CARTESIAN_POINT('',(-7.61213465024857E-34,-0.0535,-2.16552106429485E-33));
#934=CARTESIAN_POINT('',(-0.0433835653261252,-0.0535,-2.16552106429485E-33));
#935=CARTESIAN_POINT('',(-1.82695012520802E-18,-0.0551,6.96610525255E-19));
#936=CARTESIAN_POINT('',(2.15437773120243E-34,-0.0551,6.12883320083449E-34));
#937=CARTESIAN_POINT('',(0.0425,-0.0551,6.12883320083449E-34));
#938=CARTESIAN_POINT('',(-3.0670658884866E-18,-0.0535,-3.61060112780297E-34));
#939=CARTESIAN_POINT('',(2.15437773120243E-34,-0.0535,6.12883320083449E-34));
#940=CARTESIAN_POINT('',(0.0425,-0.0535,6.12883320083449E-34));
#941=CARTESIAN_POINT('',(2.15437773120243E-34,-0.053,6.12883320083449E-34));
#942=MECHANICAL_DESIGN_GEOMETRIC_PRESENTATION_REPRESENTATION('',(#551),
#943);
#943=(
GEOMETRIC_REPRESENTATION_CONTEXT(3)
GLOBAL_UNCERTAINTY_ASSIGNED_CONTEXT((#944))
GLOBAL_UNIT_ASSIGNED_CONTEXT((#947,#946,#945))
REPRESENTATION_CONTEXT('KP0019-01_SlipRingBracketV2',
'TOP_LEVEL_ASSEMBLY_PART')
);
#944=UNCERTAINTY_MEASURE_WITH_UNIT(LENGTH_MEASURE(1.E-8),#947,
'DISTANCE_ACCURACY_VALUE','Maximum Tolerance applied to model');
#945=(
NAMED_UNIT(*)
SI_UNIT($,.STERADIAN.)
SOLID_ANGLE_UNIT()
);
#946=(
NAMED_UNIT(*)
PLANE_ANGLE_UNIT()
SI_UNIT($,.RADIAN.)
);
#947=(
LENGTH_UNIT()
NAMED_UNIT(*)
SI_UNIT($,.METRE.)
);
#948=PRODUCT_DEFINITION_SHAPE('','',#949);
#949=PRODUCT_DEFINITION('','',#951,#950);
#950=PRODUCT_DEFINITION_CONTEXT('',#957,'design');
#951=PRODUCT_DEFINITION_FORMATION_WITH_SPECIFIED_SOURCE('','',#953,
 .NOT_KNOWN.);
#952=PRODUCT_RELATED_PRODUCT_CATEGORY('','',(#953));
#953=PRODUCT('KP0019-01_SlipRingBracketV2',
'KP0019-01_SlipRingBracketV2','KP0019-01_SlipRingBracketV2',(#955));
#954=PRODUCT_CATEGORY('','');
#955=PRODUCT_CONTEXT('',#957,'mechanical');
#956=APPLICATION_PROTOCOL_DEFINITION('international standard',
'automotive_design',2010,#957);
#957=APPLICATION_CONTEXT(
'core data for automotive mechanical design processes');
ENDSEC;
END-ISO-10303-21;
