ISO-10303-21;
HEADER;
/* Generated by software containing ST-Developer
 * from STEP Tools, Inc. (www.steptools.com) 
 */
/* OPTION: using custom renumber hook */

FILE_DESCRIPTION(
/* description */ ('STEP AP214',
'CAx-IF Rec.Pracs.---User Defined Attributes---1.5---2016-08-15'),
/* implementation_level */ '2;1');

FILE_NAME(
/* name */ '6a65b5b052ede2b56cfc4748',
/* time_stamp */ '2026-07-26T07:22:24Z',
/* author */ (''),
/* organization */ (''),
/* preprocessor_version */ 'ST-DEVELOPER v20',
/* originating_system */ 'ONSHAPE BY PTC INC, 1.218',
/* authorisation */ '  ');

FILE_SCHEMA (('AUTOMOTIVE_DESIGN {1 0 10303 214 3 1 1}'));
ENDSEC;

DATA;
#10=PROPERTY_DEFINITION_REPRESENTATION(#14,#12);
#11=PROPERTY_DEFINITION_REPRESENTATION(#15,#13);
#12=REPRESENTATION('',(#16),#325);
#13=REPRESENTATION('',(#17),#325);
#14=PROPERTY_DEFINITION('pmi validation property','',#330);
#15=PROPERTY_DEFINITION('pmi validation property','',#330);
#16=VALUE_REPRESENTATION_ITEM('number of annotations',COUNT_MEASURE(0.));
#17=VALUE_REPRESENTATION_ITEM('number of views',COUNT_MEASURE(0.));
#18=SHAPE_REPRESENTATION_RELATIONSHIP('','',#199,#19);
#19=ADVANCED_BREP_SHAPE_REPRESENTATION('',(#197),#325);
#20=CYLINDRICAL_SURFACE('',#215,0.0015);
#21=CYLINDRICAL_SURFACE('',#216,0.0015);
#22=CYLINDRICAL_SURFACE('',#217,0.0015);
#23=CYLINDRICAL_SURFACE('',#218,0.0015);
#24=CIRCLE('',#203,0.0015);
#25=CIRCLE('',#204,0.0015);
#26=CIRCLE('',#205,0.0015);
#27=CIRCLE('',#206,0.0015);
#28=CIRCLE('',#209,0.0015);
#29=CIRCLE('',#210,0.0015);
#30=CIRCLE('',#211,0.0015);
#31=CIRCLE('',#212,0.0015);
#32=ORIENTED_EDGE('',*,*,#80,.T.);
#33=ORIENTED_EDGE('',*,*,#81,.T.);
#34=ORIENTED_EDGE('',*,*,#82,.F.);
#35=ORIENTED_EDGE('',*,*,#83,.T.);
#36=ORIENTED_EDGE('',*,*,#82,.T.);
#37=ORIENTED_EDGE('',*,*,#84,.T.);
#38=ORIENTED_EDGE('',*,*,#85,.T.);
#39=ORIENTED_EDGE('',*,*,#86,.T.);
#40=ORIENTED_EDGE('',*,*,#87,.F.);
#41=ORIENTED_EDGE('',*,*,#88,.T.);
#42=ORIENTED_EDGE('',*,*,#89,.F.);
#43=ORIENTED_EDGE('',*,*,#90,.T.);
#44=ORIENTED_EDGE('',*,*,#87,.T.);
#45=ORIENTED_EDGE('',*,*,#91,.T.);
#46=ORIENTED_EDGE('',*,*,#92,.F.);
#47=ORIENTED_EDGE('',*,*,#93,.T.);
#48=ORIENTED_EDGE('',*,*,#94,.T.);
#49=ORIENTED_EDGE('',*,*,#95,.T.);
#50=ORIENTED_EDGE('',*,*,#80,.F.);
#51=ORIENTED_EDGE('',*,*,#96,.T.);
#52=ORIENTED_EDGE('',*,*,#97,.F.);
#53=ORIENTED_EDGE('',*,*,#98,.T.);
#54=ORIENTED_EDGE('',*,*,#92,.T.);
#55=ORIENTED_EDGE('',*,*,#99,.T.);
#56=ORIENTED_EDGE('',*,*,#97,.T.);
#57=ORIENTED_EDGE('',*,*,#100,.T.);
#58=ORIENTED_EDGE('',*,*,#89,.T.);
#59=ORIENTED_EDGE('',*,*,#101,.T.);
#60=ORIENTED_EDGE('',*,*,#85,.F.);
#61=ORIENTED_EDGE('',*,*,#102,.T.);
#62=ORIENTED_EDGE('',*,*,#94,.F.);
#63=ORIENTED_EDGE('',*,*,#103,.T.);
#64=ORIENTED_EDGE('',*,*,#95,.F.);
#65=ORIENTED_EDGE('',*,*,#102,.F.);
#66=ORIENTED_EDGE('',*,*,#84,.F.);
#67=ORIENTED_EDGE('',*,*,#81,.F.);
#68=ORIENTED_EDGE('',*,*,#86,.F.);
#69=ORIENTED_EDGE('',*,*,#103,.F.);
#70=ORIENTED_EDGE('',*,*,#99,.F.);
#71=ORIENTED_EDGE('',*,*,#91,.F.);
#72=ORIENTED_EDGE('',*,*,#96,.F.);
#73=ORIENTED_EDGE('',*,*,#83,.F.);
#74=ORIENTED_EDGE('',*,*,#90,.F.);
#75=ORIENTED_EDGE('',*,*,#100,.F.);
#76=ORIENTED_EDGE('',*,*,#88,.F.);
#77=ORIENTED_EDGE('',*,*,#93,.F.);
#78=ORIENTED_EDGE('',*,*,#98,.F.);
#79=ORIENTED_EDGE('',*,*,#101,.F.);
#80=EDGE_CURVE('',#104,#105,#120,.T.);
#81=EDGE_CURVE('',#105,#106,#121,.T.);
#82=EDGE_CURVE('',#107,#106,#122,.T.);
#83=EDGE_CURVE('',#107,#104,#123,.F.);
#84=EDGE_CURVE('',#106,#108,#24,.F.);
#85=EDGE_CURVE('',#108,#109,#124,.T.);
#86=EDGE_CURVE('',#109,#110,#25,.F.);
#87=EDGE_CURVE('',#111,#110,#125,.T.);
#88=EDGE_CURVE('',#111,#112,#26,.F.);
#89=EDGE_CURVE('',#113,#112,#126,.T.);
#90=EDGE_CURVE('',#113,#107,#27,.F.);
#91=EDGE_CURVE('',#110,#114,#127,.T.);
#92=EDGE_CURVE('',#115,#114,#128,.T.);
#93=EDGE_CURVE('',#115,#111,#129,.F.);
#94=EDGE_CURVE('',#116,#117,#130,.T.);
#95=EDGE_CURVE('',#117,#105,#28,.F.);
#96=EDGE_CURVE('',#104,#118,#29,.F.);
#97=EDGE_CURVE('',#119,#118,#131,.T.);
#98=EDGE_CURVE('',#119,#115,#30,.F.);
#99=EDGE_CURVE('',#114,#116,#31,.F.);
#100=EDGE_CURVE('',#118,#113,#132,.T.);
#101=EDGE_CURVE('',#112,#119,#133,.T.);
#102=EDGE_CURVE('',#108,#117,#134,.F.);
#103=EDGE_CURVE('',#116,#109,#135,.F.);
#104=VERTEX_POINT('',#276);
#105=VERTEX_POINT('',#277);
#106=VERTEX_POINT('',#279);
#107=VERTEX_POINT('',#281);
#108=VERTEX_POINT('',#285);
#109=VERTEX_POINT('',#287);
#110=VERTEX_POINT('',#289);
#111=VERTEX_POINT('',#291);
#112=VERTEX_POINT('',#293);
#113=VERTEX_POINT('',#295);
#114=VERTEX_POINT('',#299);
#115=VERTEX_POINT('',#301);
#116=VERTEX_POINT('',#305);
#117=VERTEX_POINT('',#306);
#118=VERTEX_POINT('',#309);
#119=VERTEX_POINT('',#311);
#120=LINE('',#275,#136);
#121=LINE('',#278,#137);
#122=LINE('',#280,#138);
#123=LINE('',#282,#139);
#124=LINE('',#286,#140);
#125=LINE('',#290,#141);
#126=LINE('',#294,#142);
#127=LINE('',#298,#143);
#128=LINE('',#300,#144);
#129=LINE('',#302,#145);
#130=LINE('',#304,#146);
#131=LINE('',#310,#147);
#132=LINE('',#315,#148);
#133=LINE('',#316,#149);
#134=LINE('',#318,#150);
#135=LINE('',#319,#151);
#136=VECTOR('',#223,1.);
#137=VECTOR('',#224,1.);
#138=VECTOR('',#225,1.);
#139=VECTOR('',#226,1.);
#140=VECTOR('',#231,1.);
#141=VECTOR('',#234,1.);
#142=VECTOR('',#237,1.);
#143=VECTOR('',#242,1.);
#144=VECTOR('',#243,1.);
#145=VECTOR('',#244,1.);
#146=VECTOR('',#247,1.);
#147=VECTOR('',#252,1.);
#148=VECTOR('',#259,1.);
#149=VECTOR('',#260,1.);
#150=VECTOR('',#263,1.);
#151=VECTOR('',#264,1.);
#152=EDGE_LOOP('',(#32,#33,#34,#35));
#153=EDGE_LOOP('',(#36,#37,#38,#39,#40,#41,#42,#43));
#154=EDGE_LOOP('',(#44,#45,#46,#47));
#155=EDGE_LOOP('',(#48,#49,#50,#51,#52,#53,#54,#55));
#156=EDGE_LOOP('',(#56,#57,#58,#59));
#157=EDGE_LOOP('',(#60,#61,#62,#63));
#158=EDGE_LOOP('',(#64,#65,#66,#67));
#159=EDGE_LOOP('',(#68,#69,#70,#71));
#160=EDGE_LOOP('',(#72,#73,#74,#75));
#161=EDGE_LOOP('',(#76,#77,#78,#79));
#162=FACE_BOUND('',#152,.T.);
#163=FACE_BOUND('',#153,.T.);
#164=FACE_BOUND('',#154,.T.);
#165=FACE_BOUND('',#155,.T.);
#166=FACE_BOUND('',#156,.T.);
#167=FACE_BOUND('',#157,.T.);
#168=FACE_BOUND('',#158,.T.);
#169=FACE_BOUND('',#159,.T.);
#170=FACE_BOUND('',#160,.T.);
#171=FACE_BOUND('',#161,.T.);
#172=PLANE('',#201);
#173=PLANE('',#202);
#174=PLANE('',#207);
#175=PLANE('',#208);
#176=PLANE('',#213);
#177=PLANE('',#214);
#178=ADVANCED_FACE('',(#162),#172,.F.);
#179=ADVANCED_FACE('',(#163),#173,.F.);
#180=ADVANCED_FACE('',(#164),#174,.F.);
#181=ADVANCED_FACE('',(#165),#175,.F.);
#182=ADVANCED_FACE('',(#166),#176,.T.);
#183=ADVANCED_FACE('',(#167),#177,.F.);
#184=ADVANCED_FACE('',(#168),#20,.T.);
#185=ADVANCED_FACE('',(#169),#21,.T.);
#186=ADVANCED_FACE('',(#170),#22,.T.);
#187=ADVANCED_FACE('',(#171),#23,.T.);
#188=CLOSED_SHELL('',(#178,#179,#180,#181,#182,#183,#184,#185,#186,#187));
#189=STYLED_ITEM('',(#190),#197);
#190=PRESENTATION_STYLE_ASSIGNMENT((#191));
#191=SURFACE_STYLE_USAGE(.BOTH.,#192);
#192=SURFACE_SIDE_STYLE('',(#193));
#193=SURFACE_STYLE_FILL_AREA(#194);
#194=FILL_AREA_STYLE('',(#195));
#195=FILL_AREA_STYLE_COLOUR('',#196);
#196=COLOUR_RGB('',0.792156862745098,0.819607843137255,0.933333333333333);
#197=MANIFOLD_SOLID_BREP('KP0004-01_FootBar',#188);
#198=SHAPE_DEFINITION_REPRESENTATION(#330,#199);
#199=SHAPE_REPRESENTATION('KP0004-01_FootBar',(#200),#325);
#200=AXIS2_PLACEMENT_3D('',#273,#219,#220);
#201=AXIS2_PLACEMENT_3D('',#274,#221,#222);
#202=AXIS2_PLACEMENT_3D('',#283,#227,#228);
#203=AXIS2_PLACEMENT_3D('',#284,#229,#230);
#204=AXIS2_PLACEMENT_3D('',#288,#232,#233);
#205=AXIS2_PLACEMENT_3D('',#292,#235,#236);
#206=AXIS2_PLACEMENT_3D('',#296,#238,#239);
#207=AXIS2_PLACEMENT_3D('',#297,#240,#241);
#208=AXIS2_PLACEMENT_3D('',#303,#245,#246);
#209=AXIS2_PLACEMENT_3D('',#307,#248,#249);
#210=AXIS2_PLACEMENT_3D('',#308,#250,#251);
#211=AXIS2_PLACEMENT_3D('',#312,#253,#254);
#212=AXIS2_PLACEMENT_3D('',#313,#255,#256);
#213=AXIS2_PLACEMENT_3D('',#314,#257,#258);
#214=AXIS2_PLACEMENT_3D('',#317,#261,#262);
#215=AXIS2_PLACEMENT_3D('',#320,#265,#266);
#216=AXIS2_PLACEMENT_3D('',#321,#267,#268);
#217=AXIS2_PLACEMENT_3D('',#322,#269,#270);
#218=AXIS2_PLACEMENT_3D('',#323,#271,#272);
#219=DIRECTION('',(0.,0.,1.));
#220=DIRECTION('',(1.,0.,0.));
#221=DIRECTION('',(0.,1.,0.));
#222=DIRECTION('',(-1.,0.,0.));
#223=DIRECTION('',(-1.,0.,0.));
#224=DIRECTION('',(0.,0.,-1.));
#225=DIRECTION('',(-1.,0.,0.));
#226=DIRECTION('',(0.,0.,-1.));
#227=DIRECTION('',(0.,0.,1.));
#228=DIRECTION('',(0.,-1.,0.));
#229=DIRECTION('',(0.,0.,1.));
#230=DIRECTION('',(0.,-1.,0.));
#231=DIRECTION('',(0.,1.,0.));
#232=DIRECTION('',(0.,0.,1.));
#233=DIRECTION('',(0.,-1.,0.));
#234=DIRECTION('',(-1.,0.,0.));
#235=DIRECTION('',(0.,0.,1.));
#236=DIRECTION('',(0.,-1.,0.));
#237=DIRECTION('',(0.,1.,0.));
#238=DIRECTION('',(0.,0.,1.));
#239=DIRECTION('',(0.,-1.,0.));
#240=DIRECTION('',(0.,-1.,0.));
#241=DIRECTION('',(1.,0.,0.));
#242=DIRECTION('',(0.,0.,1.));
#243=DIRECTION('',(-1.,0.,0.));
#244=DIRECTION('',(0.,0.,1.));
#245=DIRECTION('',(0.,0.,-1.));
#246=DIRECTION('',(0.,1.,0.));
#247=DIRECTION('',(0.,-1.,0.));
#248=DIRECTION('',(0.,0.,-1.));
#249=DIRECTION('',(0.,1.,0.));
#250=DIRECTION('',(0.,0.,-1.));
#251=DIRECTION('',(0.,1.,0.));
#252=DIRECTION('',(0.,-1.,0.));
#253=DIRECTION('',(0.,0.,-1.));
#254=DIRECTION('',(0.,1.,0.));
#255=DIRECTION('',(0.,0.,-1.));
#256=DIRECTION('',(0.,1.,0.));
#257=DIRECTION('',(1.,0.,0.));
#258=DIRECTION('',(0.,1.,0.));
#259=DIRECTION('',(0.,0.,-1.));
#260=DIRECTION('',(0.,0.,1.));
#261=DIRECTION('',(1.,0.,0.));
#262=DIRECTION('',(0.,1.,0.));
#263=DIRECTION('',(0.,0.,-1.));
#264=DIRECTION('',(0.,0.,1.));
#265=DIRECTION('',(0.,0.,-1.));
#266=DIRECTION('',(0.,1.,0.));
#267=DIRECTION('',(0.,0.,1.));
#268=DIRECTION('',(0.,-1.,0.));
#269=DIRECTION('',(0.,0.,1.));
#270=DIRECTION('',(0.,-1.,0.));
#271=DIRECTION('',(0.,0.,-1.));
#272=DIRECTION('',(0.,1.,0.));
#273=CARTESIAN_POINT('',(0.,0.,0.));
#274=CARTESIAN_POINT('',(0.01,-0.0025,-0.084));
#275=CARTESIAN_POINT('',(0.01,-0.0025,0.084));
#276=CARTESIAN_POINT('',(0.0085,-0.0025,0.084));
#277=CARTESIAN_POINT('',(-0.0085,-0.0025,0.084));
#278=CARTESIAN_POINT('',(-0.0085,-0.0025,-0.084));
#279=CARTESIAN_POINT('',(-0.0085,-0.0025,-0.084));
#280=CARTESIAN_POINT('',(0.01,-0.0025,-0.084));
#281=CARTESIAN_POINT('',(0.0085,-0.0025,-0.084));
#282=CARTESIAN_POINT('',(0.0085,-0.0025,0.084));
#283=CARTESIAN_POINT('',(0.01,0.0025,-0.084));
#284=CARTESIAN_POINT('',(-0.0085,-0.001,-0.084));
#285=CARTESIAN_POINT('',(-0.01,-0.001,-0.084));
#286=CARTESIAN_POINT('',(-0.01,0.0025,-0.084));
#287=CARTESIAN_POINT('',(-0.01,0.001,-0.084));
#288=CARTESIAN_POINT('',(-0.0085,0.001,-0.084));
#289=CARTESIAN_POINT('',(-0.0085,0.0025,-0.084));
#290=CARTESIAN_POINT('',(0.01,0.0025,-0.084));
#291=CARTESIAN_POINT('',(0.0085,0.0025,-0.084));
#292=CARTESIAN_POINT('',(0.0085,0.001,-0.084));
#293=CARTESIAN_POINT('',(0.01,0.001,-0.084));
#294=CARTESIAN_POINT('',(0.01,0.0025,-0.084));
#295=CARTESIAN_POINT('',(0.01,-0.001,-0.084));
#296=CARTESIAN_POINT('',(0.0085,-0.001,-0.084));
#297=CARTESIAN_POINT('',(0.01,0.0025,-0.084));
#298=CARTESIAN_POINT('',(-0.0085,0.0025,-0.084));
#299=CARTESIAN_POINT('',(-0.0085,0.0025,0.084));
#300=CARTESIAN_POINT('',(0.01,0.0025,0.084));
#301=CARTESIAN_POINT('',(0.0085,0.0025,0.084));
#302=CARTESIAN_POINT('',(0.0085,0.0025,-0.084));
#303=CARTESIAN_POINT('',(0.01,0.0025,0.084));
#304=CARTESIAN_POINT('',(-0.01,0.0025,0.084));
#305=CARTESIAN_POINT('',(-0.01,0.001,0.084));
#306=CARTESIAN_POINT('',(-0.01,-0.001,0.084));
#307=CARTESIAN_POINT('',(-0.0085,-0.001,0.084));
#308=CARTESIAN_POINT('',(0.0085,-0.001,0.084));
#309=CARTESIAN_POINT('',(0.01,-0.001,0.084));
#310=CARTESIAN_POINT('',(0.01,0.0025,0.084));
#311=CARTESIAN_POINT('',(0.01,0.001,0.084));
#312=CARTESIAN_POINT('',(0.0085,0.001,0.084));
#313=CARTESIAN_POINT('',(-0.0085,0.001,0.084));
#314=CARTESIAN_POINT('',(0.01,0.,0.));
#315=CARTESIAN_POINT('',(0.01,-0.001,-0.084));
#316=CARTESIAN_POINT('',(0.01,0.001,0.084));
#317=CARTESIAN_POINT('',(-0.01,0.,0.));
#318=CARTESIAN_POINT('',(-0.01,-0.001,0.));
#319=CARTESIAN_POINT('',(-0.01,0.001,0.));
#320=CARTESIAN_POINT('',(-0.0085,-0.001,-0.084));
#321=CARTESIAN_POINT('',(-0.0085,0.001,-0.084));
#322=CARTESIAN_POINT('',(0.0085,-0.001,0.));
#323=CARTESIAN_POINT('',(0.0085,0.001,0.));
#324=MECHANICAL_DESIGN_GEOMETRIC_PRESENTATION_REPRESENTATION('',(#189),
#325);
#325=(
GEOMETRIC_REPRESENTATION_CONTEXT(3)
GLOBAL_UNCERTAINTY_ASSIGNED_CONTEXT((#326))
GLOBAL_UNIT_ASSIGNED_CONTEXT((#329,#328,#327))
REPRESENTATION_CONTEXT('KP0004-01_FootBar','TOP_LEVEL_ASSEMBLY_PART')
);
#326=UNCERTAINTY_MEASURE_WITH_UNIT(LENGTH_MEASURE(1.E-8),#329,
'DISTANCE_ACCURACY_VALUE','Maximum Tolerance applied to model');
#327=(
NAMED_UNIT(*)
SI_UNIT($,.STERADIAN.)
SOLID_ANGLE_UNIT()
);
#328=(
NAMED_UNIT(*)
PLANE_ANGLE_UNIT()
SI_UNIT($,.RADIAN.)
);
#329=(
LENGTH_UNIT()
NAMED_UNIT(*)
SI_UNIT($,.METRE.)
);
#330=PRODUCT_DEFINITION_SHAPE('','',#331);
#331=PRODUCT_DEFINITION('','',#333,#332);
#332=PRODUCT_DEFINITION_CONTEXT('',#339,'design');
#333=PRODUCT_DEFINITION_FORMATION_WITH_SPECIFIED_SOURCE('','',#335,
 .NOT_KNOWN.);
#334=PRODUCT_RELATED_PRODUCT_CATEGORY('','',(#335));
#335=PRODUCT('KP0004-01_FootBar','KP0004-01_FootBar',
'KP0004-01_FootBar',(#337));
#336=PRODUCT_CATEGORY('','');
#337=PRODUCT_CONTEXT('',#339,'mechanical');
#338=APPLICATION_PROTOCOL_DEFINITION('international standard',
'automotive_design',2010,#339);
#339=APPLICATION_CONTEXT(
'core data for automotive mechanical design processes');
ENDSEC;
END-ISO-10303-21;
