ISO-10303-21;
HEADER;
/* Generated by software containing ST-Developer
 * from STEP Tools, Inc. (www.steptools.com) 
 */
/* OPTION: using custom renumber hook */

FILE_DESCRIPTION(
/* description */ ('STEP AP214',
'CAx-IF Rec.Pracs.---User Defined Attributes---1.5---2016-08-15'),
/* implementation_level */ '2;1');

FILE_NAME(
/* name */ '6a65b59f8ce625604a87548f',
/* time_stamp */ '2026-07-26T07:22:07Z',
/* author */ (''),
/* organization */ (''),
/* preprocessor_version */ 'ST-DEVELOPER v20',
/* originating_system */ 'ONSHAPE BY PTC INC, 1.218',
/* authorisation */ '  ');

FILE_SCHEMA (('AUTOMOTIVE_DESIGN {1 0 10303 214 3 1 1}'));
ENDSEC;

DATA;
#10=PROPERTY_DEFINITION_REPRESENTATION(#14,#12);
#11=PROPERTY_DEFINITION_REPRESENTATION(#15,#13);
#12=REPRESENTATION('',(#16),#855);
#13=REPRESENTATION('',(#17),#855);
#14=PROPERTY_DEFINITION('pmi validation property','',#860);
#15=PROPERTY_DEFINITION('pmi validation property','',#860);
#16=VALUE_REPRESENTATION_ITEM('number of annotations',COUNT_MEASURE(0.));
#17=VALUE_REPRESENTATION_ITEM('number of views',COUNT_MEASURE(0.));
#18=SHAPE_REPRESENTATION_RELATIONSHIP('','',#491,#19);
#19=ADVANCED_BREP_SHAPE_REPRESENTATION('',(#489),#855);
#20=B_SPLINE_CURVE_WITH_KNOTS('',3,(#724,#725,#726,#727),.UNSPECIFIED.,
 .F.,.F.,(4,4),(0.,0.00156153494524509),.UNSPECIFIED.);
#21=B_SPLINE_CURVE_WITH_KNOTS('',3,(#731,#732,#733,#734,#735,#736,#737),
 .UNSPECIFIED.,.F.,.F.,(4,1,1,1,4),(8.53279071378673E-21,0.00156246891891893,
0.00312493783783786,0.00468740675675679,0.00624987567567572),
 .UNSPECIFIED.);
#22=B_SPLINE_CURVE_WITH_KNOTS('',3,(#751,#752,#753,#754,#755,#756,#757),
 .UNSPECIFIED.,.F.,.F.,(4,1,1,1,4),(-0.00416472026432241,-0.00260186987363092,
-0.00103901948293944,0.000523830907752049,0.00208668129844353),
 .UNSPECIFIED.);
#23=B_SPLINE_CURVE_WITH_KNOTS('',3,(#761,#762,#763,#764),.UNSPECIFIED.,
 .F.,.F.,(4,4),(4.24918736097037E-18,0.00156154717941181),.UNSPECIFIED.);
#24=B_SPLINE_CURVE_WITH_KNOTS('',3,(#770,#771,#772,#773,#774,#775,#776),
 .UNSPECIFIED.,.F.,.F.,(4,1,1,1,4),(5.00788709897718E-18,0.00156244337288844,
0.00312488674577687,0.00468733011866531,0.00624977349155374),
 .UNSPECIFIED.);
#25=B_SPLINE_CURVE_WITH_KNOTS('',3,(#788,#789,#790,#791),.UNSPECIFIED.,
 .F.,.F.,(4,4),(4.98261384108449E-18,0.00156153101040014),.UNSPECIFIED.);
#26=B_SPLINE_CURVE_WITH_KNOTS('',3,(#821,#822,#823,#824,#825,#826,#827),
 .UNSPECIFIED.,.F.,.F.,(4,1,1,1,4),(-0.00312487259670452,-0.00156243507941397,
2.43787657183865E-9,0.00156243995516712,0.00312487747245766),
 .UNSPECIFIED.);
#27=B_SPLINE_CURVE_WITH_KNOTS('',3,(#831,#832,#833,#834),.UNSPECIFIED.,
 .F.,.F.,(4,4),(5.55382496713543E-18,0.00156154223880993),.UNSPECIFIED.);
#28=ELLIPSE('',#506,0.0643467170879759,0.0455);
#29=ELLIPSE('',#514,0.0643467170948826,0.0455000000048838);
#30=ELLIPSE('',#520,0.067175144212722,0.0475);
#31=ELLIPSE('',#532,0.0671751442127221,0.0475);
#32=CYLINDRICAL_SURFACE('',#502,0.00125);
#33=CYLINDRICAL_SURFACE('',#504,0.0455);
#34=CYLINDRICAL_SURFACE('',#509,0.0415);
#35=CYLINDRICAL_SURFACE('',#512,0.0455);
#36=CYLINDRICAL_SURFACE('',#516,0.002);
#37=CYLINDRICAL_SURFACE('',#517,0.0475);
#38=CYLINDRICAL_SURFACE('',#522,0.048);
#39=CYLINDRICAL_SURFACE('',#527,0.048);
#40=CYLINDRICAL_SURFACE('',#530,0.0475);
#41=CYLINDRICAL_SURFACE('',#534,0.002);
#42=CYLINDRICAL_SURFACE('',#540,0.002);
#43=CYLINDRICAL_SURFACE('',#541,0.002);
#44=LINE('',#682,#80);
#45=LINE('',#687,#81);
#46=LINE('',#691,#82);
#47=LINE('',#695,#83);
#48=LINE('',#697,#84);
#49=LINE('',#699,#85);
#50=LINE('',#703,#86);
#51=LINE('',#707,#87);
#52=LINE('',#711,#88);
#53=LINE('',#718,#89);
#54=LINE('',#739,#90);
#55=LINE('',#741,#91);
#56=LINE('',#743,#92);
#57=LINE('',#747,#93);
#58=LINE('',#749,#94);
#59=LINE('',#778,#95);
#60=LINE('',#782,#96);
#61=LINE('',#793,#97);
#62=LINE('',#795,#98);
#63=LINE('',#799,#99);
#64=LINE('',#801,#100);
#65=LINE('',#803,#101);
#66=LINE('',#805,#102);
#67=LINE('',#807,#103);
#68=LINE('',#809,#104);
#69=LINE('',#811,#105);
#70=LINE('',#815,#106);
#71=LINE('',#817,#107);
#72=LINE('',#819,#108);
#73=LINE('',#840,#109);
#74=LINE('',#842,#110);
#75=LINE('',#843,#111);
#76=LINE('',#845,#112);
#77=LINE('',#847,#113);
#78=LINE('',#849,#114);
#79=LINE('',#851,#115);
#80=VECTOR('',#548,1.);
#81=VECTOR('',#551,1.);
#82=VECTOR('',#554,1.);
#83=VECTOR('',#557,1.);
#84=VECTOR('',#558,1.);
#85=VECTOR('',#559,1.);
#86=VECTOR('',#562,1.);
#87=VECTOR('',#565,1.);
#88=VECTOR('',#568,1.);
#89=VECTOR('',#577,1.);
#90=VECTOR('',#586,1.);
#91=VECTOR('',#587,1.);
#92=VECTOR('',#590,1.);
#93=VECTOR('',#595,1.);
#94=VECTOR('',#596,1.);
#95=VECTOR('',#607,1.);
#96=VECTOR('',#612,1.);
#97=VECTOR('',#619,1.);
#98=VECTOR('',#620,1.);
#99=VECTOR('',#625,1.);
#100=VECTOR('',#628,1.);
#101=VECTOR('',#629,1.);
#102=VECTOR('',#632,1.);
#103=VECTOR('',#633,1.);
#104=VECTOR('',#636,1.);
#105=VECTOR('',#637,1.);
#106=VECTOR('',#642,1.);
#107=VECTOR('',#645,1.);
#108=VECTOR('',#646,1.);
#109=VECTOR('',#657,1.);
#110=VECTOR('',#660,1.);
#111=VECTOR('',#661,1.);
#112=VECTOR('',#664,1.);
#113=VECTOR('',#667,1.);
#114=VECTOR('',#670,1.);
#115=VECTOR('',#673,1.);
#116=ORIENTED_EDGE('',*,*,#252,.T.);
#117=ORIENTED_EDGE('',*,*,#253,.T.);
#118=ORIENTED_EDGE('',*,*,#254,.T.);
#119=ORIENTED_EDGE('',*,*,#255,.T.);
#120=ORIENTED_EDGE('',*,*,#256,.T.);
#121=ORIENTED_EDGE('',*,*,#257,.T.);
#122=ORIENTED_EDGE('',*,*,#258,.T.);
#123=ORIENTED_EDGE('',*,*,#259,.T.);
#124=ORIENTED_EDGE('',*,*,#260,.T.);
#125=ORIENTED_EDGE('',*,*,#261,.T.);
#126=ORIENTED_EDGE('',*,*,#262,.T.);
#127=ORIENTED_EDGE('',*,*,#263,.T.);
#128=ORIENTED_EDGE('',*,*,#264,.T.);
#129=ORIENTED_EDGE('',*,*,#265,.T.);
#130=ORIENTED_EDGE('',*,*,#266,.T.);
#131=ORIENTED_EDGE('',*,*,#267,.T.);
#132=ORIENTED_EDGE('',*,*,#268,.T.);
#133=ORIENTED_EDGE('',*,*,#269,.F.);
#134=ORIENTED_EDGE('',*,*,#252,.F.);
#135=ORIENTED_EDGE('',*,*,#254,.F.);
#136=ORIENTED_EDGE('',*,*,#270,.F.);
#137=ORIENTED_EDGE('',*,*,#271,.F.);
#138=ORIENTED_EDGE('',*,*,#272,.F.);
#139=ORIENTED_EDGE('',*,*,#273,.F.);
#140=ORIENTED_EDGE('',*,*,#274,.T.);
#141=ORIENTED_EDGE('',*,*,#275,.F.);
#142=ORIENTED_EDGE('',*,*,#276,.T.);
#143=ORIENTED_EDGE('',*,*,#270,.T.);
#144=ORIENTED_EDGE('',*,*,#253,.F.);
#145=ORIENTED_EDGE('',*,*,#277,.T.);
#146=ORIENTED_EDGE('',*,*,#278,.F.);
#147=ORIENTED_EDGE('',*,*,#279,.F.);
#148=ORIENTED_EDGE('',*,*,#277,.F.);
#149=ORIENTED_EDGE('',*,*,#268,.F.);
#150=ORIENTED_EDGE('',*,*,#280,.T.);
#151=ORIENTED_EDGE('',*,*,#278,.T.);
#152=ORIENTED_EDGE('',*,*,#267,.F.);
#153=ORIENTED_EDGE('',*,*,#281,.T.);
#154=ORIENTED_EDGE('',*,*,#282,.F.);
#155=ORIENTED_EDGE('',*,*,#283,.F.);
#156=ORIENTED_EDGE('',*,*,#284,.F.);
#157=ORIENTED_EDGE('',*,*,#285,.F.);
#158=ORIENTED_EDGE('',*,*,#286,.F.);
#159=ORIENTED_EDGE('',*,*,#281,.F.);
#160=ORIENTED_EDGE('',*,*,#266,.F.);
#161=ORIENTED_EDGE('',*,*,#265,.F.);
#162=ORIENTED_EDGE('',*,*,#287,.T.);
#163=ORIENTED_EDGE('',*,*,#288,.T.);
#164=ORIENTED_EDGE('',*,*,#282,.T.);
#165=ORIENTED_EDGE('',*,*,#289,.T.);
#166=ORIENTED_EDGE('',*,*,#287,.F.);
#167=ORIENTED_EDGE('',*,*,#264,.F.);
#168=ORIENTED_EDGE('',*,*,#290,.T.);
#169=ORIENTED_EDGE('',*,*,#291,.T.);
#170=ORIENTED_EDGE('',*,*,#292,.T.);
#171=ORIENTED_EDGE('',*,*,#293,.F.);
#172=ORIENTED_EDGE('',*,*,#294,.T.);
#173=ORIENTED_EDGE('',*,*,#290,.F.);
#174=ORIENTED_EDGE('',*,*,#263,.F.);
#175=ORIENTED_EDGE('',*,*,#295,.T.);
#176=ORIENTED_EDGE('',*,*,#296,.T.);
#177=ORIENTED_EDGE('',*,*,#295,.F.);
#178=ORIENTED_EDGE('',*,*,#262,.F.);
#179=ORIENTED_EDGE('',*,*,#297,.T.);
#180=ORIENTED_EDGE('',*,*,#298,.T.);
#181=ORIENTED_EDGE('',*,*,#297,.F.);
#182=ORIENTED_EDGE('',*,*,#261,.F.);
#183=ORIENTED_EDGE('',*,*,#299,.T.);
#184=ORIENTED_EDGE('',*,*,#300,.T.);
#185=ORIENTED_EDGE('',*,*,#299,.F.);
#186=ORIENTED_EDGE('',*,*,#260,.F.);
#187=ORIENTED_EDGE('',*,*,#301,.T.);
#188=ORIENTED_EDGE('',*,*,#302,.T.);
#189=ORIENTED_EDGE('',*,*,#301,.F.);
#190=ORIENTED_EDGE('',*,*,#259,.F.);
#191=ORIENTED_EDGE('',*,*,#303,.T.);
#192=ORIENTED_EDGE('',*,*,#304,.T.);
#193=ORIENTED_EDGE('',*,*,#303,.F.);
#194=ORIENTED_EDGE('',*,*,#258,.F.);
#195=ORIENTED_EDGE('',*,*,#305,.T.);
#196=ORIENTED_EDGE('',*,*,#306,.T.);
#197=ORIENTED_EDGE('',*,*,#305,.F.);
#198=ORIENTED_EDGE('',*,*,#257,.F.);
#199=ORIENTED_EDGE('',*,*,#307,.T.);
#200=ORIENTED_EDGE('',*,*,#307,.F.);
#201=ORIENTED_EDGE('',*,*,#256,.F.);
#202=ORIENTED_EDGE('',*,*,#308,.T.);
#203=ORIENTED_EDGE('',*,*,#309,.T.);
#204=ORIENTED_EDGE('',*,*,#310,.F.);
#205=ORIENTED_EDGE('',*,*,#311,.T.);
#206=ORIENTED_EDGE('',*,*,#312,.T.);
#207=ORIENTED_EDGE('',*,*,#255,.F.);
#208=ORIENTED_EDGE('',*,*,#275,.T.);
#209=ORIENTED_EDGE('',*,*,#313,.T.);
#210=ORIENTED_EDGE('',*,*,#308,.F.);
#211=ORIENTED_EDGE('',*,*,#269,.T.);
#212=ORIENTED_EDGE('',*,*,#291,.F.);
#213=ORIENTED_EDGE('',*,*,#294,.F.);
#214=ORIENTED_EDGE('',*,*,#296,.F.);
#215=ORIENTED_EDGE('',*,*,#298,.F.);
#216=ORIENTED_EDGE('',*,*,#300,.F.);
#217=ORIENTED_EDGE('',*,*,#302,.F.);
#218=ORIENTED_EDGE('',*,*,#304,.F.);
#219=ORIENTED_EDGE('',*,*,#306,.F.);
#220=ORIENTED_EDGE('',*,*,#312,.F.);
#221=ORIENTED_EDGE('',*,*,#314,.F.);
#222=ORIENTED_EDGE('',*,*,#271,.T.);
#223=ORIENTED_EDGE('',*,*,#276,.F.);
#224=ORIENTED_EDGE('',*,*,#279,.T.);
#225=ORIENTED_EDGE('',*,*,#280,.F.);
#226=ORIENTED_EDGE('',*,*,#286,.T.);
#227=ORIENTED_EDGE('',*,*,#315,.F.);
#228=ORIENTED_EDGE('',*,*,#314,.T.);
#229=ORIENTED_EDGE('',*,*,#311,.F.);
#230=ORIENTED_EDGE('',*,*,#316,.T.);
#231=ORIENTED_EDGE('',*,*,#272,.T.);
#232=ORIENTED_EDGE('',*,*,#288,.F.);
#233=ORIENTED_EDGE('',*,*,#289,.F.);
#234=ORIENTED_EDGE('',*,*,#317,.T.);
#235=ORIENTED_EDGE('',*,*,#283,.T.);
#236=ORIENTED_EDGE('',*,*,#315,.T.);
#237=ORIENTED_EDGE('',*,*,#285,.T.);
#238=ORIENTED_EDGE('',*,*,#318,.T.);
#239=ORIENTED_EDGE('',*,*,#292,.F.);
#240=ORIENTED_EDGE('',*,*,#309,.F.);
#241=ORIENTED_EDGE('',*,*,#313,.F.);
#242=ORIENTED_EDGE('',*,*,#274,.F.);
#243=ORIENTED_EDGE('',*,*,#319,.F.);
#244=ORIENTED_EDGE('',*,*,#273,.T.);
#245=ORIENTED_EDGE('',*,*,#316,.F.);
#246=ORIENTED_EDGE('',*,*,#310,.T.);
#247=ORIENTED_EDGE('',*,*,#319,.T.);
#248=ORIENTED_EDGE('',*,*,#293,.T.);
#249=ORIENTED_EDGE('',*,*,#318,.F.);
#250=ORIENTED_EDGE('',*,*,#284,.T.);
#251=ORIENTED_EDGE('',*,*,#317,.F.);
#252=EDGE_CURVE('',#320,#320,#366,.F.);
#253=EDGE_CURVE('',#321,#322,#44,.T.);
#254=EDGE_CURVE('',#322,#323,#367,.T.);
#255=EDGE_CURVE('',#323,#324,#45,.T.);
#256=EDGE_CURVE('',#324,#325,#368,.F.);
#257=EDGE_CURVE('',#325,#326,#46,.T.);
#258=EDGE_CURVE('',#326,#327,#369,.F.);
#259=EDGE_CURVE('',#327,#328,#47,.F.);
#260=EDGE_CURVE('',#328,#329,#48,.T.);
#261=EDGE_CURVE('',#329,#330,#49,.T.);
#262=EDGE_CURVE('',#330,#331,#370,.F.);
#263=EDGE_CURVE('',#331,#332,#50,.T.);
#264=EDGE_CURVE('',#332,#333,#371,.F.);
#265=EDGE_CURVE('',#333,#334,#51,.T.);
#266=EDGE_CURVE('',#334,#335,#372,.T.);
#267=EDGE_CURVE('',#335,#336,#52,.T.);
#268=EDGE_CURVE('',#336,#321,#373,.T.);
#269=EDGE_CURVE('',#337,#337,#374,.T.);
#270=EDGE_CURVE('',#338,#322,#53,.F.);
#271=EDGE_CURVE('',#339,#338,#375,.F.);
#272=EDGE_CURVE('',#340,#339,#28,.F.);
#273=EDGE_CURVE('',#341,#340,#20,.T.);
#274=EDGE_CURVE('',#341,#342,#376,.T.);
#275=EDGE_CURVE('',#323,#342,#21,.T.);
#276=EDGE_CURVE('',#343,#338,#54,.F.);
#277=EDGE_CURVE('',#321,#343,#55,.T.);
#278=EDGE_CURVE('',#344,#336,#56,.F.);
#279=EDGE_CURVE('',#343,#344,#377,.F.);
#280=EDGE_CURVE('',#345,#344,#57,.F.);
#281=EDGE_CURVE('',#335,#345,#58,.T.);
#282=EDGE_CURVE('',#346,#334,#22,.T.);
#283=EDGE_CURVE('',#347,#346,#378,.F.);
#284=EDGE_CURVE('',#348,#347,#23,.T.);
#285=EDGE_CURVE('',#349,#348,#29,.F.);
#286=EDGE_CURVE('',#345,#349,#379,.F.);
#287=EDGE_CURVE('',#333,#350,#24,.T.);
#288=EDGE_CURVE('',#350,#346,#59,.F.);
#289=EDGE_CURVE('',#351,#350,#380,.F.);
#290=EDGE_CURVE('',#332,#352,#60,.T.);
#291=EDGE_CURVE('',#352,#353,#381,.F.);
#292=EDGE_CURVE('',#353,#354,#30,.F.);
#293=EDGE_CURVE('',#351,#354,#25,.T.);
#294=EDGE_CURVE('',#355,#352,#61,.F.);
#295=EDGE_CURVE('',#331,#355,#62,.T.);
#296=EDGE_CURVE('',#356,#355,#382,.F.);
#297=EDGE_CURVE('',#330,#356,#63,.T.);
#298=EDGE_CURVE('',#357,#356,#64,.F.);
#299=EDGE_CURVE('',#329,#357,#65,.T.);
#300=EDGE_CURVE('',#358,#357,#66,.F.);
#301=EDGE_CURVE('',#328,#358,#67,.T.);
#302=EDGE_CURVE('',#359,#358,#68,.F.);
#303=EDGE_CURVE('',#327,#359,#69,.T.);
#304=EDGE_CURVE('',#360,#359,#383,.F.);
#305=EDGE_CURVE('',#326,#360,#70,.T.);
#306=EDGE_CURVE('',#361,#360,#71,.F.);
#307=EDGE_CURVE('',#325,#361,#72,.T.);
#308=EDGE_CURVE('',#324,#362,#26,.T.);
#309=EDGE_CURVE('',#362,#363,#384,.F.);
#310=EDGE_CURVE('',#364,#363,#27,.T.);
#311=EDGE_CURVE('',#364,#365,#31,.F.);
#312=EDGE_CURVE('',#365,#361,#385,.F.);
#313=EDGE_CURVE('',#342,#362,#73,.F.);
#314=EDGE_CURVE('',#339,#365,#74,.T.);
#315=EDGE_CURVE('',#353,#349,#75,.T.);
#316=EDGE_CURVE('',#364,#340,#76,.T.);
#317=EDGE_CURVE('',#351,#347,#77,.T.);
#318=EDGE_CURVE('',#348,#354,#78,.T.);
#319=EDGE_CURVE('',#363,#341,#79,.T.);
#320=VERTEX_POINT('',#681);
#321=VERTEX_POINT('',#683);
#322=VERTEX_POINT('',#684);
#323=VERTEX_POINT('',#686);
#324=VERTEX_POINT('',#688);
#325=VERTEX_POINT('',#690);
#326=VERTEX_POINT('',#692);
#327=VERTEX_POINT('',#694);
#328=VERTEX_POINT('',#696);
#329=VERTEX_POINT('',#698);
#330=VERTEX_POINT('',#700);
#331=VERTEX_POINT('',#702);
#332=VERTEX_POINT('',#704);
#333=VERTEX_POINT('',#706);
#334=VERTEX_POINT('',#708);
#335=VERTEX_POINT('',#710);
#336=VERTEX_POINT('',#712);
#337=VERTEX_POINT('',#716);
#338=VERTEX_POINT('',#719);
#339=VERTEX_POINT('',#721);
#340=VERTEX_POINT('',#723);
#341=VERTEX_POINT('',#728);
#342=VERTEX_POINT('',#730);
#343=VERTEX_POINT('',#740);
#344=VERTEX_POINT('',#744);
#345=VERTEX_POINT('',#748);
#346=VERTEX_POINT('',#758);
#347=VERTEX_POINT('',#760);
#348=VERTEX_POINT('',#765);
#349=VERTEX_POINT('',#767);
#350=VERTEX_POINT('',#777);
#351=VERTEX_POINT('',#781);
#352=VERTEX_POINT('',#783);
#353=VERTEX_POINT('',#785);
#354=VERTEX_POINT('',#787);
#355=VERTEX_POINT('',#794);
#356=VERTEX_POINT('',#798);
#357=VERTEX_POINT('',#802);
#358=VERTEX_POINT('',#806);
#359=VERTEX_POINT('',#810);
#360=VERTEX_POINT('',#814);
#361=VERTEX_POINT('',#818);
#362=VERTEX_POINT('',#828);
#363=VERTEX_POINT('',#830);
#364=VERTEX_POINT('',#835);
#365=VERTEX_POINT('',#837);
#366=CIRCLE('',#494,0.00125);
#367=CIRCLE('',#495,0.0455);
#368=CIRCLE('',#496,0.0475);
#369=CIRCLE('',#497,0.048);
#370=CIRCLE('',#498,0.048);
#371=CIRCLE('',#499,0.0475);
#372=CIRCLE('',#500,0.0455);
#373=CIRCLE('',#501,0.0415);
#374=CIRCLE('',#503,0.00125);
#375=CIRCLE('',#505,0.0455);
#376=CIRCLE('',#507,0.0455);
#377=CIRCLE('',#510,0.0415);
#378=CIRCLE('',#513,0.0455000000048838);
#379=CIRCLE('',#515,0.0455);
#380=CIRCLE('',#518,0.0475);
#381=CIRCLE('',#519,0.0475);
#382=CIRCLE('',#523,0.048);
#383=CIRCLE('',#528,0.048);
#384=CIRCLE('',#531,0.0475);
#385=CIRCLE('',#533,0.0475);
#386=EDGE_LOOP('',(#116));
#387=EDGE_LOOP('',(#117,#118,#119,#120,#121,#122,#123,#124,#125,#126,#127,
#128,#129,#130,#131,#132));
#388=EDGE_LOOP('',(#133));
#389=EDGE_LOOP('',(#134));
#390=EDGE_LOOP('',(#135,#136,#137,#138,#139,#140,#141));
#391=EDGE_LOOP('',(#142,#143,#144,#145));
#392=EDGE_LOOP('',(#146,#147,#148,#149));
#393=EDGE_LOOP('',(#150,#151,#152,#153));
#394=EDGE_LOOP('',(#154,#155,#156,#157,#158,#159,#160));
#395=EDGE_LOOP('',(#161,#162,#163,#164));
#396=EDGE_LOOP('',(#165,#166,#167,#168,#169,#170,#171));
#397=EDGE_LOOP('',(#172,#173,#174,#175));
#398=EDGE_LOOP('',(#176,#177,#178,#179));
#399=EDGE_LOOP('',(#180,#181,#182,#183));
#400=EDGE_LOOP('',(#184,#185,#186,#187));
#401=EDGE_LOOP('',(#188,#189,#190,#191));
#402=EDGE_LOOP('',(#192,#193,#194,#195));
#403=EDGE_LOOP('',(#196,#197,#198,#199));
#404=EDGE_LOOP('',(#200,#201,#202,#203,#204,#205,#206));
#405=EDGE_LOOP('',(#207,#208,#209,#210));
#406=EDGE_LOOP('',(#211));
#407=EDGE_LOOP('',(#212,#213,#214,#215,#216,#217,#218,#219,#220,#221,#222,
#223,#224,#225,#226,#227));
#408=EDGE_LOOP('',(#228,#229,#230,#231));
#409=EDGE_LOOP('',(#232,#233,#234,#235));
#410=EDGE_LOOP('',(#236,#237,#238,#239));
#411=EDGE_LOOP('',(#240,#241,#242,#243));
#412=EDGE_LOOP('',(#244,#245,#246,#247));
#413=EDGE_LOOP('',(#248,#249,#250,#251));
#414=FACE_BOUND('',#386,.T.);
#415=FACE_BOUND('',#387,.T.);
#416=FACE_BOUND('',#388,.T.);
#417=FACE_BOUND('',#389,.T.);
#418=FACE_BOUND('',#390,.T.);
#419=FACE_BOUND('',#391,.T.);
#420=FACE_BOUND('',#392,.T.);
#421=FACE_BOUND('',#393,.T.);
#422=FACE_BOUND('',#394,.T.);
#423=FACE_BOUND('',#395,.T.);
#424=FACE_BOUND('',#396,.T.);
#425=FACE_BOUND('',#397,.T.);
#426=FACE_BOUND('',#398,.T.);
#427=FACE_BOUND('',#399,.T.);
#428=FACE_BOUND('',#400,.T.);
#429=FACE_BOUND('',#401,.T.);
#430=FACE_BOUND('',#402,.T.);
#431=FACE_BOUND('',#403,.T.);
#432=FACE_BOUND('',#404,.T.);
#433=FACE_BOUND('',#405,.T.);
#434=FACE_BOUND('',#406,.T.);
#435=FACE_BOUND('',#407,.T.);
#436=FACE_BOUND('',#408,.T.);
#437=FACE_BOUND('',#409,.T.);
#438=FACE_BOUND('',#410,.T.);
#439=FACE_BOUND('',#411,.T.);
#440=FACE_BOUND('',#412,.T.);
#441=FACE_BOUND('',#413,.T.);
#442=PLANE('',#493);
#443=PLANE('',#508);
#444=PLANE('',#511);
#445=PLANE('',#521);
#446=PLANE('',#524);
#447=PLANE('',#525);
#448=PLANE('',#526);
#449=PLANE('',#529);
#450=PLANE('',#535);
#451=PLANE('',#536);
#452=PLANE('',#537);
#453=PLANE('',#538);
#454=PLANE('',#539);
#455=ADVANCED_FACE('',(#414,#415),#442,.T.);
#456=ADVANCED_FACE('',(#416,#417),#32,.F.);
#457=ADVANCED_FACE('',(#418),#33,.F.);
#458=ADVANCED_FACE('',(#419),#443,.T.);
#459=ADVANCED_FACE('',(#420),#34,.F.);
#460=ADVANCED_FACE('',(#421),#444,.T.);
#461=ADVANCED_FACE('',(#422),#35,.F.);
#462=ADVANCED_FACE('',(#423),#36,.T.);
#463=ADVANCED_FACE('',(#424),#37,.T.);
#464=ADVANCED_FACE('',(#425),#445,.T.);
#465=ADVANCED_FACE('',(#426),#38,.T.);
#466=ADVANCED_FACE('',(#427),#446,.T.);
#467=ADVANCED_FACE('',(#428),#447,.T.);
#468=ADVANCED_FACE('',(#429),#448,.T.);
#469=ADVANCED_FACE('',(#430),#39,.T.);
#470=ADVANCED_FACE('',(#431),#449,.T.);
#471=ADVANCED_FACE('',(#432),#40,.T.);
#472=ADVANCED_FACE('',(#433),#41,.T.);
#473=ADVANCED_FACE('',(#434,#435),#450,.F.);
#474=ADVANCED_FACE('',(#436),#451,.T.);
#475=ADVANCED_FACE('',(#437),#452,.T.);
#476=ADVANCED_FACE('',(#438),#453,.T.);
#477=ADVANCED_FACE('',(#439),#454,.F.);
#478=ADVANCED_FACE('',(#440),#42,.T.);
#479=ADVANCED_FACE('',(#441),#43,.T.);
#480=CLOSED_SHELL('',(#455,#456,#457,#458,#459,#460,#461,#462,#463,#464,
#465,#466,#467,#468,#469,#470,#471,#472,#473,#474,#475,#476,#477,#478,#479));
#481=STYLED_ITEM('',(#482),#489);
#482=PRESENTATION_STYLE_ASSIGNMENT((#483));
#483=SURFACE_STYLE_USAGE(.BOTH.,#484);
#484=SURFACE_SIDE_STYLE('',(#485));
#485=SURFACE_STYLE_FILL_AREA(#486);
#486=FILL_AREA_STYLE('',(#487));
#487=FILL_AREA_STYLE_COLOUR('',#488);
#488=COLOUR_RGB('',0.745098039215686,0.745098039215686,0.745098039215686);
#489=MANIFOLD_SOLID_BREP('KP0017-01_SlipRingBrushA',#480);
#490=SHAPE_DEFINITION_REPRESENTATION(#860,#491);
#491=SHAPE_REPRESENTATION('KP0017-01_SlipRingBrushA',(#492),#855);
#492=AXIS2_PLACEMENT_3D('',#678,#542,#543);
#493=AXIS2_PLACEMENT_3D('',#679,#544,#545);
#494=AXIS2_PLACEMENT_3D('',#680,#546,#547);
#495=AXIS2_PLACEMENT_3D('',#685,#549,#550);
#496=AXIS2_PLACEMENT_3D('',#689,#552,#553);
#497=AXIS2_PLACEMENT_3D('',#693,#555,#556);
#498=AXIS2_PLACEMENT_3D('',#701,#560,#561);
#499=AXIS2_PLACEMENT_3D('',#705,#563,#564);
#500=AXIS2_PLACEMENT_3D('',#709,#566,#567);
#501=AXIS2_PLACEMENT_3D('',#713,#569,#570);
#502=AXIS2_PLACEMENT_3D('',#714,#571,#572);
#503=AXIS2_PLACEMENT_3D('',#715,#573,#574);
#504=AXIS2_PLACEMENT_3D('',#717,#575,#576);
#505=AXIS2_PLACEMENT_3D('',#720,#578,#579);
#506=AXIS2_PLACEMENT_3D('',#722,#580,#581);
#507=AXIS2_PLACEMENT_3D('',#729,#582,#583);
#508=AXIS2_PLACEMENT_3D('',#738,#584,#585);
#509=AXIS2_PLACEMENT_3D('',#742,#588,#589);
#510=AXIS2_PLACEMENT_3D('',#745,#591,#592);
#511=AXIS2_PLACEMENT_3D('',#746,#593,#594);
#512=AXIS2_PLACEMENT_3D('',#750,#597,#598);
#513=AXIS2_PLACEMENT_3D('',#759,#599,#600);
#514=AXIS2_PLACEMENT_3D('',#766,#601,#602);
#515=AXIS2_PLACEMENT_3D('',#768,#603,#604);
#516=AXIS2_PLACEMENT_3D('',#769,#605,#606);
#517=AXIS2_PLACEMENT_3D('',#779,#608,#609);
#518=AXIS2_PLACEMENT_3D('',#780,#610,#611);
#519=AXIS2_PLACEMENT_3D('',#784,#613,#614);
#520=AXIS2_PLACEMENT_3D('',#786,#615,#616);
#521=AXIS2_PLACEMENT_3D('',#792,#617,#618);
#522=AXIS2_PLACEMENT_3D('',#796,#621,#622);
#523=AXIS2_PLACEMENT_3D('',#797,#623,#624);
#524=AXIS2_PLACEMENT_3D('',#800,#626,#627);
#525=AXIS2_PLACEMENT_3D('',#804,#630,#631);
#526=AXIS2_PLACEMENT_3D('',#808,#634,#635);
#527=AXIS2_PLACEMENT_3D('',#812,#638,#639);
#528=AXIS2_PLACEMENT_3D('',#813,#640,#641);
#529=AXIS2_PLACEMENT_3D('',#816,#643,#644);
#530=AXIS2_PLACEMENT_3D('',#820,#647,#648);
#531=AXIS2_PLACEMENT_3D('',#829,#649,#650);
#532=AXIS2_PLACEMENT_3D('',#836,#651,#652);
#533=AXIS2_PLACEMENT_3D('',#838,#653,#654);
#534=AXIS2_PLACEMENT_3D('',#839,#655,#656);
#535=AXIS2_PLACEMENT_3D('',#841,#658,#659);
#536=AXIS2_PLACEMENT_3D('',#844,#662,#663);
#537=AXIS2_PLACEMENT_3D('',#846,#665,#666);
#538=AXIS2_PLACEMENT_3D('',#848,#668,#669);
#539=AXIS2_PLACEMENT_3D('',#850,#671,#672);
#540=AXIS2_PLACEMENT_3D('',#852,#674,#675);
#541=AXIS2_PLACEMENT_3D('',#853,#676,#677);
#542=DIRECTION('',(0.,0.,1.));
#543=DIRECTION('',(1.,0.,0.));
#544=DIRECTION('',(0.,0.,-1.));
#545=DIRECTION('',(0.,1.,0.));
#546=DIRECTION('',(0.,0.,-1.));
#547=DIRECTION('',(0.,1.,0.));
#548=DIRECTION('',(-0.994521895368274,-0.104528463267653,0.));
#549=DIRECTION('',(0.,0.,1.));
#550=DIRECTION('',(0.,-1.,0.));
#551=DIRECTION('',(-0.788010753606728,-0.615661475325651,0.));
#552=DIRECTION('',(0.,0.,1.));
#553=DIRECTION('',(0.,-1.,0.));
#554=DIRECTION('',(-0.994521895368273,-0.104528463267657,0.));
#555=DIRECTION('',(0.,0.,1.));
#556=DIRECTION('',(0.,-1.,0.));
#557=DIRECTION('',(1.,0.,0.));
#558=DIRECTION('',(0.,1.,0.));
#559=DIRECTION('',(1.,0.,0.));
#560=DIRECTION('',(0.,0.,1.));
#561=DIRECTION('',(0.,-1.,0.));
#562=DIRECTION('',(0.994521895368273,-0.104528463267657,0.));
#563=DIRECTION('',(0.,0.,1.));
#564=DIRECTION('',(0.,-1.,0.));
#565=DIRECTION('',(0.788010753606727,-0.615661475325652,0.));
#566=DIRECTION('',(0.,0.,1.));
#567=DIRECTION('',(0.,-1.,0.));
#568=DIRECTION('',(0.994521895368273,-0.104528463267653,0.));
#569=DIRECTION('',(0.,0.,1.));
#570=DIRECTION('',(0.,-1.,0.));
#571=DIRECTION('',(0.,0.,-1.));
#572=DIRECTION('',(0.,1.,0.));
#573=DIRECTION('',(0.,0.,-1.));
#574=DIRECTION('',(0.,1.,0.));
#575=DIRECTION('',(0.,0.,1.));
#576=DIRECTION('',(0.,-1.,0.));
#577=DIRECTION('',(0.,0.,1.));
#578=DIRECTION('',(0.,0.,1.));
#579=DIRECTION('',(0.,-1.,0.));
#580=DIRECTION('',(-0.385117954958024,0.593029645775782,0.707106781186547));
#581=DIRECTION('',(0.385117954958024,-0.593029645775782,0.707106781186548));
#582=DIRECTION('',(0.,0.,1.));
#583=DIRECTION('',(0.,-1.,0.));
#584=DIRECTION('',(0.104528463267653,-0.994521895368273,0.));
#585=DIRECTION('',(0.994521895368273,0.104528463267653,0.));
#586=DIRECTION('',(0.994521895368273,0.104528463267653,0.));
#587=DIRECTION('',(0.,0.,1.));
#588=DIRECTION('',(0.,0.,1.));
#589=DIRECTION('',(0.,-1.,0.));
#590=DIRECTION('',(0.,0.,1.));
#591=DIRECTION('',(0.,0.,1.));
#592=DIRECTION('',(0.,-1.,0.));
#593=DIRECTION('',(0.104528463267653,0.994521895368273,0.));
#594=DIRECTION('',(-0.994521895368273,0.104528463267653,0.));
#595=DIRECTION('',(-0.994521895368273,0.104528463267653,0.));
#596=DIRECTION('',(0.,0.,1.));
#597=DIRECTION('',(0.,0.,1.));
#598=DIRECTION('',(0.,-1.,0.));
#599=DIRECTION('',(0.,0.,1.));
#600=DIRECTION('',(0.,-1.,0.));
#601=DIRECTION('',(-0.385117954958024,-0.593029645775782,0.707106781186547));
#602=DIRECTION('',(0.385117954958024,0.593029645775782,0.707106781186548));
#603=DIRECTION('',(0.,0.,1.));
#604=DIRECTION('',(0.,-1.,0.));
#605=DIRECTION('',(-0.788010753606722,0.615661475325658,0.));
#606=DIRECTION('',(-0.615661475325658,-0.788010753606722,0.));
#607=DIRECTION('',(-0.788010753606722,0.615661475325658,0.));
#608=DIRECTION('',(0.,0.,1.));
#609=DIRECTION('',(0.,-1.,0.));
#610=DIRECTION('',(0.,0.,1.));
#611=DIRECTION('',(0.,-1.,0.));
#612=DIRECTION('',(0.,0.,1.));
#613=DIRECTION('',(0.,0.,1.));
#614=DIRECTION('',(0.,-1.,0.));
#615=DIRECTION('',(-0.385117954958024,-0.593029645775782,0.707106781186547));
#616=DIRECTION('',(0.385117954958024,0.593029645775782,0.707106781186548));
#617=DIRECTION('',(0.104528463267654,0.994521895368273,0.));
#618=DIRECTION('',(-0.994521895368273,0.104528463267654,0.));
#619=DIRECTION('',(-0.994521895368273,0.104528463267654,0.));
#620=DIRECTION('',(0.,0.,1.));
#621=DIRECTION('',(0.,0.,1.));
#622=DIRECTION('',(0.,-1.,0.));
#623=DIRECTION('',(0.,0.,1.));
#624=DIRECTION('',(0.,-1.,0.));
#625=DIRECTION('',(0.,0.,1.));
#626=DIRECTION('',(0.,1.,0.));
#627=DIRECTION('',(-1.,0.,0.));
#628=DIRECTION('',(-1.,0.,0.));
#629=DIRECTION('',(0.,0.,1.));
#630=DIRECTION('',(-1.,0.,0.));
#631=DIRECTION('',(0.,-1.,0.));
#632=DIRECTION('',(0.,-1.,0.));
#633=DIRECTION('',(0.,0.,1.));
#634=DIRECTION('',(-5.1393103498901E-16,-1.,0.));
#635=DIRECTION('',(1.,-5.1393103498901E-16,0.));
#636=DIRECTION('',(1.,-5.1393103498901E-16,0.));
#637=DIRECTION('',(0.,0.,1.));
#638=DIRECTION('',(0.,0.,1.));
#639=DIRECTION('',(0.,-1.,0.));
#640=DIRECTION('',(0.,0.,1.));
#641=DIRECTION('',(0.,-1.,0.));
#642=DIRECTION('',(0.,0.,1.));
#643=DIRECTION('',(0.104528463267654,-0.994521895368273,0.));
#644=DIRECTION('',(0.994521895368273,0.104528463267654,0.));
#645=DIRECTION('',(0.994521895368273,0.104528463267654,0.));
#646=DIRECTION('',(0.,0.,1.));
#647=DIRECTION('',(0.,0.,1.));
#648=DIRECTION('',(0.,-1.,0.));
#649=DIRECTION('',(0.,0.,1.));
#650=DIRECTION('',(0.,-1.,0.));
#651=DIRECTION('',(-0.385117954958024,0.593029645775782,0.707106781186547));
#652=DIRECTION('',(0.385117954958024,-0.593029645775782,0.707106781186548));
#653=DIRECTION('',(0.,0.,1.));
#654=DIRECTION('',(0.,-1.,0.));
#655=DIRECTION('',(0.788010753606722,0.615661475325658,0.));
#656=DIRECTION('',(-0.615661475325658,0.788010753606722,0.));
#657=DIRECTION('',(0.788010753606722,0.615661475325658,0.));
#658=DIRECTION('',(0.,0.,-1.));
#659=DIRECTION('',(0.,1.,0.));
#660=DIRECTION('',(-0.838670567945423,-0.544639035015029,0.));
#661=DIRECTION('',(0.838670567945425,-0.544639035015026,0.));
#662=DIRECTION('',(-0.385117954958024,0.593029645775782,0.707106781186547));
#663=DIRECTION('',(0.,-0.766206297069057,0.642594670326267));
#664=DIRECTION('',(0.838670567945423,0.544639035015028,-4.3364643945907E-16));
#665=DIRECTION('',(0.,0.,1.));
#666=DIRECTION('',(0.,-1.,0.));
#667=DIRECTION('',(0.838670567945409,-0.544639035015051,0.));
#668=DIRECTION('',(-0.385117954958024,-0.593029645775782,0.707106781186547));
#669=DIRECTION('',(0.,-0.766206297069057,-0.642594670326267));
#670=DIRECTION('',(-0.838670567945421,0.544639035015032,4.55328761432741E-15));
#671=DIRECTION('',(0.,0.,-1.));
#672=DIRECTION('',(0.,1.,0.));
#673=DIRECTION('',(0.838670567945419,0.544639035015035,0.));
#674=DIRECTION('',(-0.838670567945423,-0.544639035015028,0.));
#675=DIRECTION('',(0.544639035015028,-0.838670567945423,0.));
#676=DIRECTION('',(0.838670567945423,-0.544639035015028,0.));
#677=DIRECTION('',(0.544639035015028,0.838670567945423,0.));
#678=CARTESIAN_POINT('',(0.,0.,0.));
#679=CARTESIAN_POINT('',(0.00349920696316716,-0.004,0.));
#680=CARTESIAN_POINT('',(-0.0035834785137972,-0.004,0.));
#681=CARTESIAN_POINT('',(-0.0035834785137972,-0.00275,0.));
#682=CARTESIAN_POINT('',(0.00656038431462225,-0.00833793122560766,0.));
#683=CARTESIAN_POINT('',(0.00656038431462225,-0.00833793122560766,0.));
#684=CARTESIAN_POINT('',(0.00258229673314917,-0.00875604507867828,0.));
#685=CARTESIAN_POINT('',(0.0478330429724056,-0.004,0.));
#686=CARTESIAN_POINT('',(0.010781885315388,-0.0304095004927171,-3.03576608295936E-19));
#687=CARTESIAN_POINT('',(0.010781885315388,-0.0304095004927171,0.));
#688=CARTESIAN_POINT('',(0.00920440334418804,-0.0316419644828891,-3.03576608295922E-19));
#689=CARTESIAN_POINT('',(0.0478330429724056,-0.004,0.));
#690=CARTESIAN_POINT('',(0.000593252942412623,-0.00896510200521358,0.));
#691=CARTESIAN_POINT('',(0.000593252942412628,-0.00896510200521358,0.));
#692=CARTESIAN_POINT('',(9.59919947284872E-5,-0.00901736623684741,0.));
#693=CARTESIAN_POINT('',(0.0478330429724056,-0.004,0.));
#694=CARTESIAN_POINT('',(3.46944695195361E-18,-0.008,0.));
#695=CARTESIAN_POINT('',(0.00349920696316716,-0.008,0.));
#696=CARTESIAN_POINT('',(-0.00716695702759441,-0.008,0.));
#697=CARTESIAN_POINT('',(-0.00716695702759441,-0.004,0.));
#698=CARTESIAN_POINT('',(-0.00716695702759441,2.31296463463574E-18,0.));
#699=CARTESIAN_POINT('',(0.00349920696316716,3.46944695195361E-18,0.));
#700=CARTESIAN_POINT('',(1.04083408558608E-17,1.7347234759768E-18,0.));
#701=CARTESIAN_POINT('',(0.0478330429724056,-0.004,0.));
#702=CARTESIAN_POINT('',(9.59919947284837E-5,0.00101736623684734,0.));
#703=CARTESIAN_POINT('',(9.59919947284772E-5,0.00101736623684734,0.));
#704=CARTESIAN_POINT('',(0.000593252942412619,0.000965102005213528,0.));
#705=CARTESIAN_POINT('',(0.0478330429724056,-0.004,0.));
#706=CARTESIAN_POINT('',(0.00920440334418803,0.023641964482889,-3.03576608295947E-19));
#707=CARTESIAN_POINT('',(0.00920440334418803,0.023641964482889,0.));
#708=CARTESIAN_POINT('',(0.0107818853153879,0.0224095004927171,-3.1438365966793E-19));
#709=CARTESIAN_POINT('',(0.0478330429724056,-0.004,0.));
#710=CARTESIAN_POINT('',(0.00258229673314917,0.000756045078678204,0.));
#711=CARTESIAN_POINT('',(0.00258229673314918,0.000756045078678202,0.));
#712=CARTESIAN_POINT('',(0.00656038431462225,0.000337931225607606,0.));
#713=CARTESIAN_POINT('',(0.0478330429724056,-0.004,0.));
#714=CARTESIAN_POINT('',(-0.0035834785137972,-0.004,0.001));
#715=CARTESIAN_POINT('',(-0.0035834785137972,-0.004,0.001));
#716=CARTESIAN_POINT('',(-0.0035834785137972,-0.00275,0.001));
#717=CARTESIAN_POINT('',(0.0478330429724056,-0.004,0.));
#718=CARTESIAN_POINT('',(0.00258229673314917,-0.00875604507867828,0.));
#719=CARTESIAN_POINT('',(0.00258229673314917,-0.00875604507867828,0.001));
#720=CARTESIAN_POINT('',(0.0478330429724056,-0.004,0.001));
#721=CARTESIAN_POINT('',(0.00812265081031255,-0.0262111403204064,0.001));
#722=CARTESIAN_POINT('',(0.0478330429724056,-0.004,0.00400000000000005));
#723=CARTESIAN_POINT('',(0.00935765258800184,-0.0282877404212029,0.0034142135623731));
#724=CARTESIAN_POINT('',(0.0101310513773025,-0.0294717457148657,0.004));
#725=CARTESIAN_POINT('',(0.00983546350840112,-0.0290342314795367,0.004));
#726=CARTESIAN_POINT('',(0.00955695650768583,-0.0286034674498189,0.00378755322326959));
#727=CARTESIAN_POINT('',(0.00935765258800185,-0.0282877404212029,0.0034142135623731));
#728=CARTESIAN_POINT('',(0.0101310513773025,-0.0294717457148657,0.004));
#729=CARTESIAN_POINT('',(0.0478330429724056,-0.004,0.004));
#730=CARTESIAN_POINT('',(0.0107818853153879,-0.0304095004927171,0.004));
#731=CARTESIAN_POINT('',(0.010781885315388,-0.0304095004927171,-6.07153216591867E-19));
#732=CARTESIAN_POINT('',(0.0110885341419788,-0.0308397128711181,1.37026293632245E-18));
#733=CARTESIAN_POINT('',(0.0117074348496085,-0.031670159293938,0.000431404034387103));
#734=CARTESIAN_POINT('',(0.0121138504555736,-0.0321834708169827,0.00200051098741788));
#735=CARTESIAN_POINT('',(0.0117084854278892,-0.0316715402020274,0.0035665681768263));
#736=CARTESIAN_POINT('',(0.0110885359573646,-0.0308397154180103,0.004));
#737=CARTESIAN_POINT('',(0.0107818853153879,-0.0304095004927171,0.004));
#738=CARTESIAN_POINT('',(0.00258229673314918,-0.00875604507867827,0.));
#739=CARTESIAN_POINT('',(0.00258229673314918,-0.00875604507867827,0.001));
#740=CARTESIAN_POINT('',(0.00656038431462225,-0.00833793122560766,0.001));
#741=CARTESIAN_POINT('',(0.00656038431462225,-0.00833793122560766,0.));
#742=CARTESIAN_POINT('',(0.0478330429724056,-0.004,0.));
#743=CARTESIAN_POINT('',(0.00656038431462225,0.000337931225607621,0.));
#744=CARTESIAN_POINT('',(0.00656038431462225,0.000337931225607606,0.001));
#745=CARTESIAN_POINT('',(0.0478330429724056,-0.004,0.001));
#746=CARTESIAN_POINT('',(0.00656038431462225,0.000337931225607591,0.));
#747=CARTESIAN_POINT('',(0.00656038431462225,0.000337931225607591,0.001));
#748=CARTESIAN_POINT('',(0.00258229673314917,0.000756045078678202,0.001));
#749=CARTESIAN_POINT('',(0.00258229673314918,0.000756045078678201,0.));
#750=CARTESIAN_POINT('',(0.0478330429724056,-0.004,0.));
#751=CARTESIAN_POINT('',(0.0107818853153916,0.0224095004927142,0.004));
#752=CARTESIAN_POINT('',(0.0110886090596387,0.0228398179766963,0.00399999999999999));
#753=CARTESIAN_POINT('',(0.0117075476000656,0.0236703042010948,0.00356822698607554));
#754=CARTESIAN_POINT('',(0.012114326110311,0.0241840977014432,0.00199915890076098));
#755=CARTESIAN_POINT('',(0.011706469500788,0.0236688870432123,0.000430474733916629));
#756=CARTESIAN_POINT('',(0.0110886078983063,0.0228398163474152,6.94690046146809E-18));
#757=CARTESIAN_POINT('',(0.0107818853153879,0.0224095004927171,-6.28767319335862E-19));
#758=CARTESIAN_POINT('',(0.0107818853153916,0.0224095004927142,0.004));
#759=CARTESIAN_POINT('',(0.0478330429763854,-0.00400000000283866,0.004));
#760=CARTESIAN_POINT('',(0.010131051377305,0.0214717457148639,0.004));
#761=CARTESIAN_POINT('',(0.00935765258799917,0.0202877404212045,0.00341421356237306));
#762=CARTESIAN_POINT('',(0.00955695732172998,0.0206034687393875,0.00378755474815307));
#763=CARTESIAN_POINT('',(0.00983546135210863,0.0210342282878985,0.00399999999999998));
#764=CARTESIAN_POINT('',(0.010131051377305,0.0214717457148639,0.004));
#765=CARTESIAN_POINT('',(0.00935765258799917,0.0202877404212045,0.00341421356237306));
#766=CARTESIAN_POINT('',(0.0478330429763854,-0.00400000000283866,0.00399999999978688));
#767=CARTESIAN_POINT('',(0.00812265081030219,0.0182111403204131,0.001));
#768=CARTESIAN_POINT('',(0.0478330429724056,-0.004,0.001));
#769=CARTESIAN_POINT('',(0.010375969427416,0.0227266367415602,0.002));
#770=CARTESIAN_POINT('',(0.00920440334418804,0.023641964482889,-6.07153216591884E-19));
#771=CARTESIAN_POINT('',(0.00951184393151609,0.024071601517635,4.35351216729662E-18));
#772=CARTESIAN_POINT('',(0.0101315179041494,0.024901422947885,0.000431433872753518));
#773=CARTESIAN_POINT('',(0.0105377765021809,0.0254148235853872,0.00200051054481792));
#774=CARTESIAN_POINT('',(0.0101325691436391,0.0249028031783714,0.00356653878582783));
#775=CARTESIAN_POINT('',(0.00951184560190222,0.0240716038519389,0.00400000000000003));
#776=CARTESIAN_POINT('',(0.00920440334418795,0.0236419644828889,0.004));
#777=CARTESIAN_POINT('',(0.00920440334418801,0.023641964482889,0.004));
#778=CARTESIAN_POINT('',(0.010375969427416,0.0227266367415602,0.004));
#779=CARTESIAN_POINT('',(0.0478330429724056,-0.004,0.));
#780=CARTESIAN_POINT('',(0.0478330429724056,-0.004,0.004));
#781=CARTESIAN_POINT('',(0.00845344386330599,0.0225611967728602,0.004));
#782=CARTESIAN_POINT('',(0.000593252942412616,0.000965102005213546,0.));
#783=CARTESIAN_POINT('',(0.000593252942412616,0.000965102005213529,0.001));
#784=CARTESIAN_POINT('',(0.0478330429724056,-0.004,0.001));
#785=CARTESIAN_POINT('',(0.00644180628245837,0.0193026935197793,0.001));
#786=CARTESIAN_POINT('',(0.0478330429724056,-0.004,0.004));
#787=CARTESIAN_POINT('',(0.00768017827893047,0.0213771049749075,0.00341421356237307));
#788=CARTESIAN_POINT('',(0.008453443863306,0.0225611967728602,0.004));
#789=CARTESIAN_POINT('',(0.00815819231323639,0.0221234571718358,0.004));
#790=CARTESIAN_POINT('',(0.00787965221128338,0.0216927221354765,0.00378755367570818));
#791=CARTESIAN_POINT('',(0.00768017827893046,0.0213771049749075,0.00341421356237308));
#792=CARTESIAN_POINT('',(0.000593252942412628,0.00096510200521351,0.));
#793=CARTESIAN_POINT('',(0.000593252942412628,0.00096510200521351,0.001));
#794=CARTESIAN_POINT('',(9.59919947284768E-5,0.00101736623684734,0.001));
#795=CARTESIAN_POINT('',(9.59919947284768E-5,0.00101736623684734,0.));
#796=CARTESIAN_POINT('',(0.0478330429724056,-0.004,0.));
#797=CARTESIAN_POINT('',(0.0478330429724056,-0.004,0.001));
#798=CARTESIAN_POINT('',(1.04083408558608E-17,0.,0.001));
#799=CARTESIAN_POINT('',(6.93889390390723E-18,0.,0.));
#800=CARTESIAN_POINT('',(0.,0.,0.));
#801=CARTESIAN_POINT('',(0.,0.,0.001));
#802=CARTESIAN_POINT('',(-0.00716695702759441,1.29526019539602E-18,0.001));
#803=CARTESIAN_POINT('',(-0.00716695702759441,0.,0.));
#804=CARTESIAN_POINT('',(-0.00716695702759441,3.88578058618805E-18,0.));
#805=CARTESIAN_POINT('',(-0.00716695702759441,3.88578058618805E-18,0.001));
#806=CARTESIAN_POINT('',(-0.00716695702759441,-0.008,0.001));
#807=CARTESIAN_POINT('',(-0.00716695702759441,-0.008,0.));
#808=CARTESIAN_POINT('',(-0.00716695702759441,-0.008,0.));
#809=CARTESIAN_POINT('',(-0.00716695702759441,-0.008,0.001));
#810=CARTESIAN_POINT('',(3.46944695195361E-18,-0.008,0.001));
#811=CARTESIAN_POINT('',(0.,-0.008,0.));
#812=CARTESIAN_POINT('',(0.0478330429724056,-0.004,0.));
#813=CARTESIAN_POINT('',(0.0478330429724056,-0.004,0.001));
#814=CARTESIAN_POINT('',(9.59919947284803E-5,-0.00901736623684741,0.001));
#815=CARTESIAN_POINT('',(9.59919947284837E-5,-0.00901736623684742,0.));
#816=CARTESIAN_POINT('',(9.59919947284774E-5,-0.00901736623684741,0.));
#817=CARTESIAN_POINT('',(9.59919947284774E-5,-0.00901736623684741,0.001));
#818=CARTESIAN_POINT('',(0.000593252942412619,-0.00896510200521358,0.001));
#819=CARTESIAN_POINT('',(0.000593252942412628,-0.00896510200521358,0.));
#820=CARTESIAN_POINT('',(0.0478330429724056,-0.004,0.));
#821=CARTESIAN_POINT('',(0.00920440334418804,-0.0316419644828891,-6.07153216591876E-19));
#822=CARTESIAN_POINT('',(0.00951184393151609,-0.0320716015176351,5.04613639885884E-18));
#823=CARTESIAN_POINT('',(0.0101315179041495,-0.0329014229478851,0.000431433872753519));
#824=CARTESIAN_POINT('',(0.010537776502181,-0.0334148235853873,0.00200051054481791));
#825=CARTESIAN_POINT('',(0.0101325691436391,-0.0329028031783714,0.00356653878582785));
#826=CARTESIAN_POINT('',(0.00951184560190236,-0.0320716038519392,0.00399999999999996));
#827=CARTESIAN_POINT('',(0.00920440334418809,-0.0316419644828892,0.004));
#828=CARTESIAN_POINT('',(0.00920440334418801,-0.0316419644828891,0.004));
#829=CARTESIAN_POINT('',(0.0478330429724056,-0.004,0.004));
#830=CARTESIAN_POINT('',(0.00845344386330597,-0.0305611967728603,0.004));
#831=CARTESIAN_POINT('',(0.00768017827893046,-0.0293771049749076,0.00341421356237309));
#832=CARTESIAN_POINT('',(0.00787965295933295,-0.0296927233190763,0.00378755507577538));
#833=CARTESIAN_POINT('',(0.00815819033644747,-0.030123454241051,0.00399999999999999));
#834=CARTESIAN_POINT('',(0.00845344386330596,-0.0305611967728603,0.004));
#835=CARTESIAN_POINT('',(0.00768017827893046,-0.0293771049749076,0.0034142135623731));
#836=CARTESIAN_POINT('',(0.0478330429724056,-0.004,0.00400000000000005));
#837=CARTESIAN_POINT('',(0.00644180628245834,-0.0273026935197793,0.001));
#838=CARTESIAN_POINT('',(0.0478330429724056,-0.004,0.001));
#839=CARTESIAN_POINT('',(0.00958795867380832,-0.0313422982168867,0.002));
#840=CARTESIAN_POINT('',(0.0095879586738083,-0.0313422982168867,0.004));
#841=CARTESIAN_POINT('',(0.00349920696316716,-0.004,0.001));
#842=CARTESIAN_POINT('',(0.00812265081031255,-0.0262111403204063,0.001));
#843=CARTESIAN_POINT('',(0.00644180628245836,0.0193026935197793,0.001));
#844=CARTESIAN_POINT('',(0.0123448210885474,-0.0252577758212017,0.0025));
#845=CARTESIAN_POINT('',(0.00768017827893046,-0.0293771049749076,0.00341421356237311));
#846=CARTESIAN_POINT('',(0.0099876459848121,0.0229948593230606,0.004));
#847=CARTESIAN_POINT('',(0.00845344386330767,0.0225611967728591,0.004));
#848=CARTESIAN_POINT('',(0.011506150520602,0.0178024148562167,0.0025));
#849=CARTESIAN_POINT('',(0.00935765258799921,0.0202877404212045,0.00341421356237305));
#850=CARTESIAN_POINT('',(0.00998764598481019,-0.0309948593230621,0.004));
#851=CARTESIAN_POINT('',(0.00845344386330392,-0.0305611967728616,0.004));
#852=CARTESIAN_POINT('',(0.0114737205994185,-0.028599806126871,0.002));
#853=CARTESIAN_POINT('',(0.0110543853154468,0.0208721256443778,0.002));
#854=MECHANICAL_DESIGN_GEOMETRIC_PRESENTATION_REPRESENTATION('',(#481),
#855);
#855=(
GEOMETRIC_REPRESENTATION_CONTEXT(3)
GLOBAL_UNCERTAINTY_ASSIGNED_CONTEXT((#856))
GLOBAL_UNIT_ASSIGNED_CONTEXT((#859,#858,#857))
REPRESENTATION_CONTEXT('KP0017-01_SlipRingBrushA',
'TOP_LEVEL_ASSEMBLY_PART')
);
#856=UNCERTAINTY_MEASURE_WITH_UNIT(LENGTH_MEASURE(2.E-5),#859,
'DISTANCE_ACCURACY_VALUE','Maximum Tolerance applied to model');
#857=(
NAMED_UNIT(*)
SI_UNIT($,.STERADIAN.)
SOLID_ANGLE_UNIT()
);
#858=(
NAMED_UNIT(*)
PLANE_ANGLE_UNIT()
SI_UNIT($,.RADIAN.)
);
#859=(
LENGTH_UNIT()
NAMED_UNIT(*)
SI_UNIT($,.METRE.)
);
#860=PRODUCT_DEFINITION_SHAPE('','',#861);
#861=PRODUCT_DEFINITION('','',#863,#862);
#862=PRODUCT_DEFINITION_CONTEXT('',#869,'design');
#863=PRODUCT_DEFINITION_FORMATION_WITH_SPECIFIED_SOURCE('','',#865,
 .NOT_KNOWN.);
#864=PRODUCT_RELATED_PRODUCT_CATEGORY('','',(#865));
#865=PRODUCT('KP0017-01_SlipRingBrushA','KP0017-01_SlipRingBrushA',
'KP0017-01_SlipRingBrushA',(#867));
#866=PRODUCT_CATEGORY('','');
#867=PRODUCT_CONTEXT('',#869,'mechanical');
#868=APPLICATION_PROTOCOL_DEFINITION('international standard',
'automotive_design',2010,#869);
#869=APPLICATION_CONTEXT(
'core data for automotive mechanical design processes');
ENDSEC;
END-ISO-10303-21;
