ISO-10303-21;
HEADER;
/* Generated by software containing ST-Developer
 * from STEP Tools, Inc. (www.steptools.com) 
 */
/* OPTION: using custom renumber hook */

FILE_DESCRIPTION(
/* description */ ('STEP AP214',
'CAx-IF Rec.Pracs.---User Defined Attributes---1.5---2016-08-15'),
/* implementation_level */ '2;1');

FILE_NAME(
/* name */ '6a65b5633184da9fa51bbef6',
/* time_stamp */ '2026-07-26T07:21:08Z',
/* author */ (''),
/* organization */ (''),
/* preprocessor_version */ 'ST-DEVELOPER v20',
/* originating_system */ 'ONSHAPE BY PTC INC, 1.218',
/* authorisation */ '  ');

FILE_SCHEMA (('AUTOMOTIVE_DESIGN {1 0 10303 214 3 1 1}'));
ENDSEC;

DATA;
#10=PROPERTY_DEFINITION_REPRESENTATION(#14,#12);
#11=PROPERTY_DEFINITION_REPRESENTATION(#15,#13);
#12=REPRESENTATION('',(#16),#593);
#13=REPRESENTATION('',(#17),#593);
#14=PROPERTY_DEFINITION('pmi validation property','',#598);
#15=PROPERTY_DEFINITION('pmi validation property','',#598);
#16=VALUE_REPRESENTATION_ITEM('number of annotations',COUNT_MEASURE(0.));
#17=VALUE_REPRESENTATION_ITEM('number of views',COUNT_MEASURE(0.));
#18=SHAPE_REPRESENTATION_RELATIONSHIP('','',#207,#19);
#19=ADVANCED_BREP_SHAPE_REPRESENTATION('',(#205),#593);
#20=PLANE('',#214);
#21=PLANE('',#216);
#22=PLANE('',#222);
#23=PLANE('',#224);
#24=PLANE('',#230);
#25=PLANE('',#231);
#26=B_SPLINE_CURVE_WITH_KNOTS('',3,(#302,#303,#304,#305,#306,#307,#308,
#309,#310,#311,#312,#313,#314,#315,#316,#317,#318,#319,#320,#321,#322,#323,
#324,#325,#326,#327,#328,#329,#330,#331,#332,#333,#334,#335,#336,#337,#338,
#339,#340,#341,#342,#343,#344,#345,#346,#347,#348,#349,#350,#351,#352,#353,
#354,#355,#356,#357,#358,#359,#360,#361,#362,#363,#364,#365,#366,#367,#368),
 .UNSPECIFIED.,.T.,.F.,(1,1,1,1,1,1,1,1,1,1,1,1,1,1,1,1,1,1,1,1,1,1,1,1,
1,1,1,1,1,1,1,1,1,1,1,1,1,1,1,1,1,1,1,1,1,1,1,1,1,1,1,1,1,1,1,1,1,1,1,1,
1,1,1,1,1,1,1,1,1,1,1),(-0.0485197368421053,-0.0328947368421053,-0.0164473684210527,
0.,0.01484375,0.0296875,0.0452734375,0.060859375,0.076482421875,0.09210546875,
0.10773037109375,0.1233552734375,0.138980268554687,0.154605263671875,0.170230263427734,
0.185855263183594,0.201480263171387,0.21710526315918,0.232730263158569,
0.248355263157959,0.263980263157928,0.279605263157898,0.295230263157896,
0.310855263157895,0.326480263157895,0.342105263157895,0.357730263157895,
0.373355263157895,0.388980263157895,0.404605263157895,0.420230263157895,
0.435855263157895,0.451480263157895,0.467105263157895,0.482730263157895,
0.498355263157895,0.513980263157895,0.529605263157895,0.545230263157895,
0.560855263157895,0.576480263157895,0.592105263157895,0.607730263157895,
0.623355263157895,0.638980263157895,0.654605263157895,0.670230263157895,
0.685855263157895,0.701480263157895,0.717105263157895,0.732730263157895,
0.748355263157895,0.763980263157895,0.779605263157895,0.795230263157895,
0.810855263157895,0.826480263157895,0.842105263157895,0.857730263157895,
0.873355263157895,0.888980263157895,0.904605263157895,0.920230263157895,
0.935855263157895,0.951480263157895,0.967105263157895,0.983552631578947,
1.,1.01484375,1.0296875,1.0452734375),.UNSPECIFIED.);
#27=B_SPLINE_CURVE_WITH_KNOTS('',3,(#371,#372,#373,#374,#375,#376,#377,
#378,#379,#380,#381,#382,#383,#384,#385,#386,#387,#388,#389,#390,#391,#392,
#393,#394,#395,#396,#397,#398,#399,#400,#401,#402,#403,#404,#405,#406,#407,
#408,#409,#410,#411,#412,#413,#414,#415,#416,#417,#418,#419,#420,#421,#422,
#423,#424,#425,#426,#427,#428,#429,#430,#431,#432,#433,#434,#435,#436,#437),
 .UNSPECIFIED.,.T.,.F.,(1,1,1,1,1,1,1,1,1,1,1,1,1,1,1,1,1,1,1,1,1,1,1,1,
1,1,1,1,1,1,1,1,1,1,1,1,1,1,1,1,1,1,1,1,1,1,1,1,1,1,1,1,1,1,1,1,1,1,1,1,
1,1,1,1,1,1,1,1,1,1,1),(-0.0485197368421053,-0.0328947368421053,-0.0164473684210527,
0.,0.01484375,0.0296875,0.0452734375,0.060859375,0.076482421875,0.09210546875,
0.10773037109375,0.1233552734375,0.138980268554687,0.154605263671875,0.170230263427734,
0.185855263183594,0.201480263171387,0.21710526315918,0.232730263158569,
0.248355263157959,0.263980263157928,0.279605263157898,0.295230263157896,
0.310855263157895,0.326480263157895,0.342105263157895,0.357730263157895,
0.373355263157895,0.388980263157895,0.404605263157895,0.420230263157895,
0.435855263157895,0.451480263157895,0.467105263157895,0.482730263157895,
0.498355263157895,0.513980263157895,0.529605263157895,0.545230263157895,
0.560855263157895,0.576480263157895,0.592105263157895,0.607730263157895,
0.623355263157895,0.638980263157895,0.654605263157895,0.670230263157895,
0.685855263157895,0.701480263157895,0.717105263157895,0.732730263157895,
0.748355263157895,0.763980263157895,0.779605263157895,0.795230263157895,
0.810855263157895,0.826480263157895,0.842105263157895,0.857730263157895,
0.873355263157895,0.888980263157895,0.904605263157895,0.920230263157895,
0.935855263157895,0.951480263157895,0.967105263157895,0.983552631578947,
1.,1.01484375,1.0296875,1.0452734375),.UNSPECIFIED.);
#28=B_SPLINE_CURVE_WITH_KNOTS('',3,(#464,#465,#466,#467,#468,#469,#470,
#471,#472,#473,#474,#475,#476,#477,#478,#479,#480,#481,#482,#483,#484,#485,
#486,#487,#488,#489,#490,#491,#492,#493,#494,#495,#496,#497,#498,#499,#500,
#501,#502,#503,#504,#505,#506,#507,#508,#509,#510,#511,#512,#513,#514,#515,
#516,#517,#518,#519,#520,#521,#522),.UNSPECIFIED.,.T.,.F.,(1,1,1,1,1,1,
1,1,1,1,1,1,1,1,1,1,1,1,1,1,1,1,1,1,1,1,1,1,1,1,1,1,1,1,1,1,1,1,1,1,1,1,
1,1,1,1,1,1,1,1,1,1,1,1,1,1,1,1,1,1,1,1,1),(-0.0485197368421053,-0.0328947368421053,
-0.0164473684210527,0.,0.01484375,0.0296875,0.0452734375,0.060859375,0.076482421875,
0.09210546875,0.1233552734375,0.154605263671875,0.170230263427734,0.185855263183594,
0.201480263171387,0.21710526315918,0.232730263158569,0.248355263157959,
0.263980263157928,0.279605263157898,0.295230263157896,0.310855263157895,
0.326480263157895,0.342105263157895,0.373355263157895,0.404605263157895,
0.420230263157895,0.435855263157895,0.451480263157895,0.467105263157895,
0.482730263157895,0.498355263157895,0.513980263157895,0.529605263157895,
0.545230263157895,0.560855263157895,0.576480263157895,0.592105263157895,
0.623355263157895,0.654605263157895,0.670230263157895,0.685855263157895,
0.701480263157895,0.717105263157895,0.732730263157895,0.748355263157895,
0.763980263157895,0.779605263157895,0.795230263157895,0.810855263157895,
0.826480263157895,0.842105263157895,0.873355263157895,0.904605263157895,
0.920230263157895,0.935855263157895,0.951480263157895,0.967105263157895,
0.983552631578947,1.,1.01484375,1.0296875,1.0452734375),.UNSPECIFIED.);
#29=B_SPLINE_CURVE_WITH_KNOTS('',3,(#525,#526,#527,#528,#529,#530,#531,
#532,#533,#534,#535,#536,#537,#538,#539,#540,#541,#542,#543,#544,#545,#546,
#547,#548,#549,#550,#551,#552,#553,#554,#555,#556,#557,#558,#559,#560,#561,
#562,#563,#564,#565,#566,#567,#568,#569,#570,#571,#572,#573,#574,#575,#576,
#577,#578,#579,#580,#581,#582,#583),.UNSPECIFIED.,.T.,.F.,(1,1,1,1,1,1,
1,1,1,1,1,1,1,1,1,1,1,1,1,1,1,1,1,1,1,1,1,1,1,1,1,1,1,1,1,1,1,1,1,1,1,1,
1,1,1,1,1,1,1,1,1,1,1,1,1,1,1,1,1,1,1,1,1),(-0.0485197368421053,-0.0328947368421053,
-0.0164473684210527,0.,0.01484375,0.0296875,0.0452734375,0.060859375,0.076482421875,
0.09210546875,0.1233552734375,0.154605263671875,0.170230263427734,0.185855263183594,
0.201480263171387,0.21710526315918,0.232730263158569,0.248355263157959,
0.263980263157928,0.279605263157898,0.295230263157896,0.310855263157895,
0.326480263157895,0.342105263157895,0.373355263157895,0.404605263157895,
0.420230263157895,0.435855263157895,0.451480263157895,0.467105263157895,
0.482730263157895,0.498355263157895,0.513980263157895,0.529605263157895,
0.545230263157895,0.560855263157895,0.576480263157895,0.592105263157895,
0.623355263157895,0.654605263157895,0.670230263157895,0.685855263157895,
0.701480263157895,0.717105263157895,0.732730263157895,0.748355263157895,
0.763980263157895,0.779605263157895,0.795230263157895,0.810855263157895,
0.826480263157895,0.842105263157895,0.873355263157895,0.904605263157895,
0.920230263157895,0.935855263157895,0.951480263157895,0.967105263157895,
0.983552631578947,1.,1.01484375,1.0296875,1.0452734375),.UNSPECIFIED.);
#30=TOROIDAL_SURFACE('',#212,0.0232,0.000299999999999996);
#31=TOROIDAL_SURFACE('',#213,0.0232,0.0003);
#32=TOROIDAL_SURFACE('',#232,0.0178,0.0003);
#33=TOROIDAL_SURFACE('',#234,0.0178,0.000299999999999995);
#34=ORIENTED_EDGE('',*,*,#66,.T.);
#35=ORIENTED_EDGE('',*,*,#67,.T.);
#36=ORIENTED_EDGE('',*,*,#68,.T.);
#37=ORIENTED_EDGE('',*,*,#66,.F.);
#38=ORIENTED_EDGE('',*,*,#67,.F.);
#39=ORIENTED_EDGE('',*,*,#69,.T.);
#40=ORIENTED_EDGE('',*,*,#70,.T.);
#41=ORIENTED_EDGE('',*,*,#68,.F.);
#42=ORIENTED_EDGE('',*,*,#69,.F.);
#43=ORIENTED_EDGE('',*,*,#71,.T.);
#44=ORIENTED_EDGE('',*,*,#72,.F.);
#45=ORIENTED_EDGE('',*,*,#70,.F.);
#46=ORIENTED_EDGE('',*,*,#71,.F.);
#47=ORIENTED_EDGE('',*,*,#73,.F.);
#48=ORIENTED_EDGE('',*,*,#74,.T.);
#49=ORIENTED_EDGE('',*,*,#72,.T.);
#50=ORIENTED_EDGE('',*,*,#73,.T.);
#51=ORIENTED_EDGE('',*,*,#75,.T.);
#52=ORIENTED_EDGE('',*,*,#76,.T.);
#53=ORIENTED_EDGE('',*,*,#74,.F.);
#54=ORIENTED_EDGE('',*,*,#75,.F.);
#55=ORIENTED_EDGE('',*,*,#77,.T.);
#56=ORIENTED_EDGE('',*,*,#78,.T.);
#57=ORIENTED_EDGE('',*,*,#76,.F.);
#58=ORIENTED_EDGE('',*,*,#77,.F.);
#59=ORIENTED_EDGE('',*,*,#79,.T.);
#60=ORIENTED_EDGE('',*,*,#80,.T.);
#61=ORIENTED_EDGE('',*,*,#78,.F.);
#62=ORIENTED_EDGE('',*,*,#79,.F.);
#63=ORIENTED_EDGE('',*,*,#81,.T.);
#64=ORIENTED_EDGE('',*,*,#81,.F.);
#65=ORIENTED_EDGE('',*,*,#80,.F.);
#66=EDGE_CURVE('',#82,#82,#98,.T.);
#67=EDGE_CURVE('',#83,#83,#99,.F.);
#68=EDGE_CURVE('',#84,#84,#26,.F.);
#69=EDGE_CURVE('',#85,#85,#27,.F.);
#70=EDGE_CURVE('',#86,#86,#100,.T.);
#71=EDGE_CURVE('',#87,#87,#101,.F.);
#72=EDGE_CURVE('',#88,#88,#102,.F.);
#73=EDGE_CURVE('',#89,#89,#103,.T.);
#74=EDGE_CURVE('',#90,#90,#104,.T.);
#75=EDGE_CURVE('',#91,#91,#105,.F.);
#76=EDGE_CURVE('',#92,#92,#106,.T.);
#77=EDGE_CURVE('',#93,#93,#107,.F.);
#78=EDGE_CURVE('',#94,#94,#28,.T.);
#79=EDGE_CURVE('',#95,#95,#29,.T.);
#80=EDGE_CURVE('',#96,#96,#108,.F.);
#81=EDGE_CURVE('',#97,#97,#109,.T.);
#82=VERTEX_POINT('',#298);
#83=VERTEX_POINT('',#300);
#84=VERTEX_POINT('',#369);
#85=VERTEX_POINT('',#438);
#86=VERTEX_POINT('',#441);
#87=VERTEX_POINT('',#444);
#88=VERTEX_POINT('',#447);
#89=VERTEX_POINT('',#450);
#90=VERTEX_POINT('',#453);
#91=VERTEX_POINT('',#456);
#92=VERTEX_POINT('',#459);
#93=VERTEX_POINT('',#462);
#94=VERTEX_POINT('',#523);
#95=VERTEX_POINT('',#584);
#96=VERTEX_POINT('',#587);
#97=VERTEX_POINT('',#590);
#98=CIRCLE('',#210,0.0235);
#99=CIRCLE('',#211,0.0235);
#100=CIRCLE('',#215,0.02211);
#101=CIRCLE('',#217,0.02211);
#102=CIRCLE('',#219,0.02211);
#103=CIRCLE('',#221,0.02211);
#104=CIRCLE('',#223,0.019);
#105=CIRCLE('',#225,0.019);
#106=CIRCLE('',#227,0.019);
#107=CIRCLE('',#229,0.019);
#108=CIRCLE('',#233,0.0175);
#109=CIRCLE('',#235,0.0175);
#110=EDGE_LOOP('',(#34));
#111=EDGE_LOOP('',(#35));
#112=EDGE_LOOP('',(#36));
#113=EDGE_LOOP('',(#37));
#114=EDGE_LOOP('',(#38));
#115=EDGE_LOOP('',(#39));
#116=EDGE_LOOP('',(#40));
#117=EDGE_LOOP('',(#41));
#118=EDGE_LOOP('',(#42));
#119=EDGE_LOOP('',(#43));
#120=EDGE_LOOP('',(#44));
#121=EDGE_LOOP('',(#45));
#122=EDGE_LOOP('',(#46));
#123=EDGE_LOOP('',(#47));
#124=EDGE_LOOP('',(#48));
#125=EDGE_LOOP('',(#49));
#126=EDGE_LOOP('',(#50));
#127=EDGE_LOOP('',(#51));
#128=EDGE_LOOP('',(#52));
#129=EDGE_LOOP('',(#53));
#130=EDGE_LOOP('',(#54));
#131=EDGE_LOOP('',(#55));
#132=EDGE_LOOP('',(#56));
#133=EDGE_LOOP('',(#57));
#134=EDGE_LOOP('',(#58));
#135=EDGE_LOOP('',(#59));
#136=EDGE_LOOP('',(#60));
#137=EDGE_LOOP('',(#61));
#138=EDGE_LOOP('',(#62));
#139=EDGE_LOOP('',(#63));
#140=EDGE_LOOP('',(#64));
#141=EDGE_LOOP('',(#65));
#142=FACE_BOUND('',#110,.T.);
#143=FACE_BOUND('',#111,.T.);
#144=FACE_BOUND('',#112,.T.);
#145=FACE_BOUND('',#113,.T.);
#146=FACE_BOUND('',#114,.T.);
#147=FACE_BOUND('',#115,.T.);
#148=FACE_BOUND('',#116,.T.);
#149=FACE_BOUND('',#117,.T.);
#150=FACE_BOUND('',#118,.T.);
#151=FACE_BOUND('',#119,.T.);
#152=FACE_BOUND('',#120,.T.);
#153=FACE_BOUND('',#121,.T.);
#154=FACE_BOUND('',#122,.T.);
#155=FACE_BOUND('',#123,.T.);
#156=FACE_BOUND('',#124,.T.);
#157=FACE_BOUND('',#125,.T.);
#158=FACE_BOUND('',#126,.T.);
#159=FACE_BOUND('',#127,.T.);
#160=FACE_BOUND('',#128,.T.);
#161=FACE_BOUND('',#129,.T.);
#162=FACE_BOUND('',#130,.T.);
#163=FACE_BOUND('',#131,.T.);
#164=FACE_BOUND('',#132,.T.);
#165=FACE_BOUND('',#133,.T.);
#166=FACE_BOUND('',#134,.T.);
#167=FACE_BOUND('',#135,.T.);
#168=FACE_BOUND('',#136,.T.);
#169=FACE_BOUND('',#137,.T.);
#170=FACE_BOUND('',#138,.T.);
#171=FACE_BOUND('',#139,.T.);
#172=FACE_BOUND('',#140,.T.);
#173=FACE_BOUND('',#141,.T.);
#174=CYLINDRICAL_SURFACE('',#209,0.0235);
#175=CYLINDRICAL_SURFACE('',#218,0.02211);
#176=CYLINDRICAL_SURFACE('',#220,0.02211);
#177=CYLINDRICAL_SURFACE('',#226,0.019);
#178=CYLINDRICAL_SURFACE('',#228,0.019);
#179=CYLINDRICAL_SURFACE('',#236,0.0175);
#180=ADVANCED_FACE('',(#142,#143),#174,.T.);
#181=ADVANCED_FACE('',(#144,#145),#30,.T.);
#182=ADVANCED_FACE('',(#146,#147),#31,.T.);
#183=ADVANCED_FACE('',(#148,#149),#20,.T.);
#184=ADVANCED_FACE('',(#150,#151),#21,.T.);
#185=ADVANCED_FACE('',(#152,#153),#175,.F.);
#186=ADVANCED_FACE('',(#154,#155),#176,.F.);
#187=ADVANCED_FACE('',(#156,#157),#22,.T.);
#188=ADVANCED_FACE('',(#158,#159),#23,.T.);
#189=ADVANCED_FACE('',(#160,#161),#177,.T.);
#190=ADVANCED_FACE('',(#162,#163),#178,.T.);
#191=ADVANCED_FACE('',(#164,#165),#24,.T.);
#192=ADVANCED_FACE('',(#166,#167),#25,.T.);
#193=ADVANCED_FACE('',(#168,#169),#32,.T.);
#194=ADVANCED_FACE('',(#170,#171),#33,.T.);
#195=ADVANCED_FACE('',(#172,#173),#179,.F.);
#196=CLOSED_SHELL('',(#180,#181,#182,#183,#184,#185,#186,#187,#188,#189,
#190,#191,#192,#193,#194,#195));
#197=STYLED_ITEM('',(#198),#205);
#198=PRESENTATION_STYLE_ASSIGNMENT((#199));
#199=SURFACE_STYLE_USAGE(.BOTH.,#200);
#200=SURFACE_SIDE_STYLE('',(#201));
#201=SURFACE_STYLE_FILL_AREA(#202);
#202=FILL_AREA_STYLE('',(#203));
#203=FILL_AREA_STYLE_COLOUR('',#204);
#204=COLOUR_RGB('',0.792156862745098,0.819607843137255,0.933333333333333);
#205=MANIFOLD_SOLID_BREP('KP0052-01_B6807ZZ_2_03',#196);
#206=SHAPE_DEFINITION_REPRESENTATION(#598,#207);
#207=SHAPE_REPRESENTATION('KP0052-01_B6807ZZ_2_03',(#208),#593);
#208=AXIS2_PLACEMENT_3D('',#295,#237,#238);
#209=AXIS2_PLACEMENT_3D('',#296,#239,#240);
#210=AXIS2_PLACEMENT_3D('',#297,#241,#242);
#211=AXIS2_PLACEMENT_3D('',#299,#243,#244);
#212=AXIS2_PLACEMENT_3D('',#301,#245,#246);
#213=AXIS2_PLACEMENT_3D('',#370,#247,#248);
#214=AXIS2_PLACEMENT_3D('',#439,#249,#250);
#215=AXIS2_PLACEMENT_3D('',#440,#251,#252);
#216=AXIS2_PLACEMENT_3D('',#442,#253,#254);
#217=AXIS2_PLACEMENT_3D('',#443,#255,#256);
#218=AXIS2_PLACEMENT_3D('',#445,#257,#258);
#219=AXIS2_PLACEMENT_3D('',#446,#259,#260);
#220=AXIS2_PLACEMENT_3D('',#448,#261,#262);
#221=AXIS2_PLACEMENT_3D('',#449,#263,#264);
#222=AXIS2_PLACEMENT_3D('',#451,#265,#266);
#223=AXIS2_PLACEMENT_3D('',#452,#267,#268);
#224=AXIS2_PLACEMENT_3D('',#454,#269,#270);
#225=AXIS2_PLACEMENT_3D('',#455,#271,#272);
#226=AXIS2_PLACEMENT_3D('',#457,#273,#274);
#227=AXIS2_PLACEMENT_3D('',#458,#275,#276);
#228=AXIS2_PLACEMENT_3D('',#460,#277,#278);
#229=AXIS2_PLACEMENT_3D('',#461,#279,#280);
#230=AXIS2_PLACEMENT_3D('',#463,#281,#282);
#231=AXIS2_PLACEMENT_3D('',#524,#283,#284);
#232=AXIS2_PLACEMENT_3D('',#585,#285,#286);
#233=AXIS2_PLACEMENT_3D('',#586,#287,#288);
#234=AXIS2_PLACEMENT_3D('',#588,#289,#290);
#235=AXIS2_PLACEMENT_3D('',#589,#291,#292);
#236=AXIS2_PLACEMENT_3D('',#591,#293,#294);
#237=DIRECTION('',(0.,0.,1.));
#238=DIRECTION('',(1.,0.,0.));
#239=DIRECTION('',(-1.,0.,0.));
#240=DIRECTION('',(0.,-1.,0.));
#241=DIRECTION('',(-1.,0.,0.));
#242=DIRECTION('',(0.,-1.,0.));
#243=DIRECTION('',(-1.,0.,0.));
#244=DIRECTION('',(0.,-1.,0.));
#245=DIRECTION('',(1.,0.,0.));
#246=DIRECTION('',(0.,1.,0.));
#247=DIRECTION('',(1.,0.,0.));
#248=DIRECTION('',(0.,1.,0.));
#249=DIRECTION('',(1.,0.,0.));
#250=DIRECTION('',(0.,1.,0.));
#251=DIRECTION('',(-1.,0.,0.));
#252=DIRECTION('',(0.,-1.,0.));
#253=DIRECTION('',(-1.,0.,0.));
#254=DIRECTION('',(0.,-1.,0.));
#255=DIRECTION('',(-1.,0.,0.));
#256=DIRECTION('',(0.,-1.,0.));
#257=DIRECTION('',(-1.,0.,0.));
#258=DIRECTION('',(0.,-1.,0.));
#259=DIRECTION('',(-1.,0.,0.));
#260=DIRECTION('',(0.,-1.,0.));
#261=DIRECTION('',(-1.,0.,0.));
#262=DIRECTION('',(0.,-1.,0.));
#263=DIRECTION('',(-1.,0.,0.));
#264=DIRECTION('',(0.,-1.,0.));
#265=DIRECTION('',(1.,0.,0.));
#266=DIRECTION('',(0.,1.,0.));
#267=DIRECTION('',(-1.,0.,0.));
#268=DIRECTION('',(0.,-1.,0.));
#269=DIRECTION('',(-1.,0.,0.));
#270=DIRECTION('',(0.,-1.,0.));
#271=DIRECTION('',(-1.,0.,0.));
#272=DIRECTION('',(0.,-1.,0.));
#273=DIRECTION('',(-1.,0.,0.));
#274=DIRECTION('',(0.,-1.,0.));
#275=DIRECTION('',(-1.,0.,0.));
#276=DIRECTION('',(0.,-1.,0.));
#277=DIRECTION('',(-1.,0.,0.));
#278=DIRECTION('',(0.,-1.,0.));
#279=DIRECTION('',(-1.,0.,0.));
#280=DIRECTION('',(0.,-1.,0.));
#281=DIRECTION('',(1.,0.,0.));
#282=DIRECTION('',(0.,1.,0.));
#283=DIRECTION('',(-1.,0.,0.));
#284=DIRECTION('',(0.,-1.,0.));
#285=DIRECTION('',(1.,0.,0.));
#286=DIRECTION('',(0.,1.,0.));
#287=DIRECTION('',(1.,0.,0.));
#288=DIRECTION('',(0.,1.,0.));
#289=DIRECTION('',(1.,0.,0.));
#290=DIRECTION('',(0.,1.,0.));
#291=DIRECTION('',(1.,0.,0.));
#292=DIRECTION('',(0.,1.,0.));
#293=DIRECTION('',(-1.,0.,0.));
#294=DIRECTION('',(0.,-1.,0.));
#295=CARTESIAN_POINT('',(0.,0.,0.));
#296=CARTESIAN_POINT('',(0.007,0.,0.));
#297=CARTESIAN_POINT('',(0.0067,0.,0.));
#298=CARTESIAN_POINT('',(0.0067,0.0235,2.87791997799628E-18));
#299=CARTESIAN_POINT('',(0.0003,0.,0.));
#300=CARTESIAN_POINT('',(0.0003,0.0235,2.87791997799628E-18));
#301=CARTESIAN_POINT('',(0.0067,0.,0.));
#302=CARTESIAN_POINT('',(0.007,0.0231266474466153,-0.00223897762305662));
#303=CARTESIAN_POINT('',(0.007,0.0232332288541345,-7.38806997416929E-5));
#304=CARTESIAN_POINT('',(0.007,0.0231397977419841,0.00202463104043219));
#305=CARTESIAN_POINT('',(0.007,0.0228822778517462,0.00401887460530774));
#306=CARTESIAN_POINT('',(0.007,0.0223914278633428,0.00621069861638004));
#307=CARTESIAN_POINT('',(0.007,0.0217006748175143,0.00830930189369255));
#308=CARTESIAN_POINT('',(0.007,0.0207444206565347,0.0104782201216593));
#309=CARTESIAN_POINT('',(0.007,0.0195935803177745,0.0124966402385466));
#310=CARTESIAN_POINT('',(0.007,0.0181965875847256,0.0144602840748062));
#311=CARTESIAN_POINT('',(0.007,0.016611910824172,0.0162530045521519));
#312=CARTESIAN_POINT('',(0.007,0.0148517357290489,0.017878641381552));
#313=CARTESIAN_POINT('',(0.007,0.0129171543622788,0.0193191730787051));
#314=CARTESIAN_POINT('',(0.007,0.0109163046362962,0.0205175573810307));
#315=CARTESIAN_POINT('',(0.007,0.00876020571443563,0.021523119376455));
#316=CARTESIAN_POINT('',(0.007,0.00665948281091212,0.0222625559880885));
#317=CARTESIAN_POINT('',(0.007,0.0044302302911776,0.0228086854010429));
#318=CARTESIAN_POINT('',(0.007,0.00234895343874744,0.0231123319189088));
#319=CARTESIAN_POINT('',(0.007,0.000225986505004664,0.0232321218363592));
#320=CARTESIAN_POINT('',(0.007,-0.00190883277846649,0.0231527142392247));
#321=CARTESIAN_POINT('',(0.007,-0.00397330603860092,0.0228920651119038));
#322=CARTESIAN_POINT('',(0.007,-0.00620439532685907,0.0223933446127366));
#323=CARTESIAN_POINT('',(0.007,-0.00830716816997655,0.0217016154122742));
#324=CARTESIAN_POINT('',(0.007,-0.0104778938281694,0.020744587672811));
#325=CARTESIAN_POINT('',(0.007,-0.01249654879065,0.0195936488320476));
#326=CARTESIAN_POINT('',(0.007,-0.0144602680850778,0.0181965993887907));
#327=CARTESIAN_POINT('',(0.007,-0.0162530011241114,0.0166119151397844));
#328=CARTESIAN_POINT('',(0.007,-0.0178786406321095,0.014851736459765));
#329=CARTESIAN_POINT('',(0.007,-0.0193191729803331,0.0129171546085803));
#330=CARTESIAN_POINT('',(0.007,-0.0205175573464564,0.0109163046771208));
#331=CARTESIAN_POINT('',(0.007,-0.0215231193757636,0.00876020572751446));
#332=CARTESIAN_POINT('',(0.007,-0.0222625559864513,0.00665948281294486));
#333=CARTESIAN_POINT('',(0.007,-0.0228086854012411,0.00443023029185817));
#334=CARTESIAN_POINT('',(0.007,-0.0231123319188202,0.00234895343877501));
#335=CARTESIAN_POINT('',(0.007,-0.023232121836383,0.000225986505077227));
#336=CARTESIAN_POINT('',(0.007,-0.0231527142392159,-0.00190883277859265));
#337=CARTESIAN_POINT('',(0.007,-0.0228920651119186,-0.00397330603855642));
#338=CARTESIAN_POINT('',(0.007,-0.0223933446126881,-0.00620439532698824));
#339=CARTESIAN_POINT('',(0.007,-0.0217016154122832,-0.00830716816995561));
#340=CARTESIAN_POINT('',(0.007,-0.0207445876727895,-0.010477893828215));
#341=CARTESIAN_POINT('',(0.007,-0.0195936488320558,-0.0124965487906397));
#342=CARTESIAN_POINT('',(0.007,-0.0181965993887654,-0.0144602680851038));
#343=CARTESIAN_POINT('',(0.007,-0.0166119151397901,-0.0162530011241053));
#344=CARTESIAN_POINT('',(0.007,-0.0148517364597499,-0.0178786406321257));
#345=CARTESIAN_POINT('',(0.007,-0.0129171546085679,-0.0193191729803416));
#346=CARTESIAN_POINT('',(0.007,-0.0109163046771719,-0.0205175573464197));
#347=CARTESIAN_POINT('',(0.007,-0.00876020572748925,-0.0215231193757701));
#348=CARTESIAN_POINT('',(0.007,-0.00665948281302824,-0.0222625559864356));
#349=CARTESIAN_POINT('',(0.007,-0.00443023029184406,-0.022808685401244));
#350=CARTESIAN_POINT('',(0.007,-0.00234895343880748,-0.0231123319188135));
#351=CARTESIAN_POINT('',(0.007,-0.000225986505068051,-0.0232321218363864));
#352=CARTESIAN_POINT('',(0.007,0.00190883277856691,-0.023152714239205));
#353=CARTESIAN_POINT('',(0.007,0.00397330603854378,-0.0228920651119799));
#354=CARTESIAN_POINT('',(0.007,0.00620439532704315,-0.0223933446124582));
#355=CARTESIAN_POINT('',(0.007,0.00830716816964663,-0.0217016154131592));
#356=CARTESIAN_POINT('',(0.007,0.0104778938293754,-0.0207445876695189));
#357=CARTESIAN_POINT('',(0.007,0.0124965487861313,-0.0195936488443551));
#358=CARTESIAN_POINT('',(0.007,0.0144602681019417,-0.0181965993428576));
#359=CARTESIAN_POINT('',(0.007,0.0162530010613304,-0.0166119153110994));
#360=CARTESIAN_POINT('',(0.007,0.0178786408664013,-0.014851735820416));
#361=CARTESIAN_POINT('',(0.007,0.0193191721060558,-0.0129171569945066));
#362=CARTESIAN_POINT('',(0.007,0.0205175606092957,-0.0109162957727335));
#363=CARTESIAN_POINT('',(0.007,0.0215231071988015,-0.00876023895894569));
#364=CARTESIAN_POINT('',(0.007,0.0222626014314841,-0.00665935879156847));
#365=CARTESIAN_POINT('',(0.007,0.0228180932430937,-0.004391593748552));
#366=CARTESIAN_POINT('',(0.007,0.0231266474466153,-0.00223897762305662));
#367=CARTESIAN_POINT('',(0.007,0.0232332288541345,-7.38806997416929E-5));
#368=CARTESIAN_POINT('',(0.007,0.0231397977419841,0.00202463104043219));
#369=CARTESIAN_POINT('',(0.007,0.0232,-5.68236114804372E-18));
#370=CARTESIAN_POINT('',(0.0003,0.,0.));
#371=CARTESIAN_POINT('',(0.,0.0231266474466146,0.00223897762307988));
#372=CARTESIAN_POINT('',(0.,0.0232332288541352,7.38806997471318E-5));
#373=CARTESIAN_POINT('',(0.,0.0231397977419824,-0.0020246310404698));
#374=CARTESIAN_POINT('',(0.,0.0228822778517526,-0.00401887460528147));
#375=CARTESIAN_POINT('',(0.,0.0223914278633175,-0.00621069861647359));
#376=CARTESIAN_POINT('',(0.,0.0217006748175241,-0.00830930189367419));
#377=CARTESIAN_POINT('',(0.,0.0207444206565037,-0.0104782201217051));
#378=CARTESIAN_POINT('',(0.,0.0195935803177796,-0.0124966402385388));
#379=CARTESIAN_POINT('',(0.,0.0181965875847144,-0.0144602840748233));
#380=CARTESIAN_POINT('',(0.,0.0166119108241888,-0.0162530045521371));
#381=CARTESIAN_POINT('',(0.,0.014851735728988,-0.0178786413816034));
#382=CARTESIAN_POINT('',(0.,0.0129171543623064,-0.0193191730786904));
#383=CARTESIAN_POINT('',(0.,0.0109163046362066,-0.0205175573810736));
#384=CARTESIAN_POINT('',(0.,0.00876020571448317,-0.0215231193764383));
#385=CARTESIAN_POINT('',(0.,0.00665948281075444,-0.0222625559881404));
#386=CARTESIAN_POINT('',(0.,0.00443023029121625,-0.0228086854010406));
#387=CARTESIAN_POINT('',(0.,0.0023489534386407,-0.0231123319189042));
#388=CARTESIAN_POINT('',(0.,0.000225986505056804,-0.0232321218363593));
#389=CARTESIAN_POINT('',(0.,-0.00190883277863613,-0.023152714239225));
#390=CARTESIAN_POINT('',(0.,-0.00397330603853447,-0.0228920651119234));
#391=CARTESIAN_POINT('',(0.,-0.00620439532706821,-0.0223933446126619));
#392=CARTESIAN_POINT('',(0.,-0.00830716816995942,-0.0217016154122822));
#393=CARTESIAN_POINT('',(0.,-0.0104778938281808,-0.020744587672799));
#394=CARTESIAN_POINT('',(0.,-0.0124965487906428,-0.0195936488320513));
#395=CARTESIAN_POINT('',(0.,-0.0144602680850996,-0.0181965993887806));
#396=CARTESIAN_POINT('',(0.,-0.016253001124097,-0.0166119151398017));
#397=CARTESIAN_POINT('',(0.,-0.0178786406321588,-0.0148517364597021));
#398=CARTESIAN_POINT('',(0.,-0.0193191729803263,-0.0129171546085931));
#399=CARTESIAN_POINT('',(0.,-0.0205175573464699,-0.0109163046770877));
#400=CARTESIAN_POINT('',(0.,-0.0215231193757625,-0.00876020572751699));
#401=CARTESIAN_POINT('',(0.,-0.0222625559864516,-0.00665948281294418));
#402=CARTESIAN_POINT('',(0.,-0.022808685401241,-0.00443023029185834));
#403=CARTESIAN_POINT('',(0.,-0.0231123319188203,-0.00234895343877501));
#404=CARTESIAN_POINT('',(0.,-0.0232321218363829,-0.000225986505077047));
#405=CARTESIAN_POINT('',(0.,-0.0231527142392162,0.00190883277859192));
#406=CARTESIAN_POINT('',(0.,-0.0228920651119178,0.00397330603855918));
#407=CARTESIAN_POINT('',(0.,-0.0223933446126912,0.0062043953269779));
#408=CARTESIAN_POINT('',(0.,-0.0217016154122755,0.00830716816997302));
#409=CARTESIAN_POINT('',(0.,-0.0207445876728176,0.0104778938281515));
#410=CARTESIAN_POINT('',(0.,-0.0195936488320429,0.0124965487906551));
#411=CARTESIAN_POINT('',(0.,-0.0181965993888072,0.0144602680850611));
#412=CARTESIAN_POINT('',(0.,-0.0166119151397901,0.0162530011241061));
#413=CARTESIAN_POINT('',(0.,-0.0148517364597392,0.0178786406321342));
#414=CARTESIAN_POINT('',(0.,-0.0129171546085887,0.0193191729803288));
#415=CARTESIAN_POINT('',(0.,-0.010916304677095,0.020517557346467));
#416=CARTESIAN_POINT('',(0.,-0.00876020572749242,0.0215231193757715));
#417=CARTESIAN_POINT('',(0.,-0.00665948281303521,0.0222625559864182));
#418=CARTESIAN_POINT('',(0.,-0.00443023029182651,0.0228086854012437));
#419=CARTESIAN_POINT('',(0.,-0.00234895343887338,0.0231123319188186));
#420=CARTESIAN_POINT('',(0.,-0.00022598650504617,0.023232121836387));
#421=CARTESIAN_POINT('',(0.,0.00190883277850009,0.0231527142392015));
#422=CARTESIAN_POINT('',(0.,0.00397330603856501,0.0228920651119724));
#423=CARTESIAN_POINT('',(0.,0.00620439532697984,0.0223933446124874));
#424=CARTESIAN_POINT('',(0.,0.00830716816965169,0.0217016154131578));
#425=CARTESIAN_POINT('',(0.,0.0104778938293728,0.0207445876695167));
#426=CARTESIAN_POINT('',(0.,0.0124965487861506,0.0195936488443408));
#427=CARTESIAN_POINT('',(0.,0.0144602681018699,0.018196599342912));
#428=CARTESIAN_POINT('',(0.,0.0162530010613538,0.0166119153110713));
#429=CARTESIAN_POINT('',(0.,0.0178786408663302,0.0148517358205091));
#430=CARTESIAN_POINT('',(0.,0.0193191721060757,0.0129171569944722));
#431=CARTESIAN_POINT('',(0.,0.0205175606092386,0.0109162957728405));
#432=CARTESIAN_POINT('',(0.,0.0215231071988113,0.0087602389589138));
#433=CARTESIAN_POINT('',(0.,0.0222626014314619,0.00665935879166206));
#434=CARTESIAN_POINT('',(0.,0.022818093243096,0.00439159374853836));
#435=CARTESIAN_POINT('',(0.,0.0231266474466146,0.00223897762307988));
#436=CARTESIAN_POINT('',(0.,0.0232332288541352,7.38806997471318E-5));
#437=CARTESIAN_POINT('',(0.,0.0231397977419824,-0.0020246310404698));
#438=CARTESIAN_POINT('',(-4.87890977618477E-19,0.0232,0.));
#439=CARTESIAN_POINT('',(0.007,0.,0.02211));
#440=CARTESIAN_POINT('',(0.007,0.,0.));
#441=CARTESIAN_POINT('',(0.007,-0.02211,0.));
#442=CARTESIAN_POINT('',(0.,0.,0.0232));
#443=CARTESIAN_POINT('',(0.,0.,0.));
#444=CARTESIAN_POINT('',(0.,-0.02211,0.));
#445=CARTESIAN_POINT('',(0.007,0.,0.));
#446=CARTESIAN_POINT('',(0.0069195,0.,0.));
#447=CARTESIAN_POINT('',(0.0069195,-0.02211,0.));
#448=CARTESIAN_POINT('',(0.007,0.,0.));
#449=CARTESIAN_POINT('',(8.05E-5,0.,0.));
#450=CARTESIAN_POINT('',(8.05E-5,-0.02211,0.));
#451=CARTESIAN_POINT('',(0.0069195,0.,0.019));
#452=CARTESIAN_POINT('',(0.0069195,0.,0.));
#453=CARTESIAN_POINT('',(0.0069195,-0.019,0.));
#454=CARTESIAN_POINT('',(8.05E-5,0.,0.02211));
#455=CARTESIAN_POINT('',(8.05E-5,0.,0.));
#456=CARTESIAN_POINT('',(8.05E-5,-0.019,0.));
#457=CARTESIAN_POINT('',(0.007,0.,0.));
#458=CARTESIAN_POINT('',(0.007,0.,0.));
#459=CARTESIAN_POINT('',(0.007,-0.019,0.));
#460=CARTESIAN_POINT('',(0.007,0.,0.));
#461=CARTESIAN_POINT('',(0.,0.,0.));
#462=CARTESIAN_POINT('',(0.,-0.019,0.));
#463=CARTESIAN_POINT('',(0.007,0.,0.0178));
#464=CARTESIAN_POINT('',(0.007,0.0177437233273034,0.00171789295135523));
#465=CARTESIAN_POINT('',(0.007,0.0178254927041138,5.66534499601156E-5));
#466=CARTESIAN_POINT('',(0.007,0.0177538149969295,-0.00155331571635122));
#467=CARTESIAN_POINT('',(0.007,0.017556213066478,-0.00308349541092194));
#468=CARTESIAN_POINT('',(0.007,0.0171796982895772,-0.00476493489412809));
#469=CARTESIAN_POINT('',(0.007,0.0166495017345448,-0.00637552034214537));
#470=CARTESIAN_POINT('',(0.007,0.0159165470527278,-0.00803830131397792));
#471=CARTESIAN_POINT('',(0.007,0.0147358615310817,-0.0101091751901794));
#472=CARTESIAN_POINT('',(0.007,0.012817287399177,-0.0125401751203963));
#473=CARTESIAN_POINT('',(0.007,0.010426775504056,-0.014513382659603));
#474=CARTESIAN_POINT('',(0.007,0.00837467848340006,-0.0157423678840756));
#475=CARTESIAN_POINT('',(0.007,0.00672138843151625,-0.016513305487161));
#476=CARTESIAN_POINT('',(0.007,0.00510947371511577,-0.0170807608940106));
#477=CARTESIAN_POINT('',(0.007,0.00339903648311184,-0.0174997620441076));
#478=CARTESIAN_POINT('',(0.007,0.00180231966240183,-0.0177327312367448));
#479=CARTESIAN_POINT('',(0.007,0.000173349878936754,-0.0178246415480576));
#480=CARTESIAN_POINT('',(0.007,-0.00146442184822736,-0.0177637344538843));
#481=CARTESIAN_POINT('',(0.007,-0.00304853736775328,-0.0175637206882001));
#482=CARTESIAN_POINT('',(0.007,-0.00476009847417353,-0.0171811690548968));
#483=CARTESIAN_POINT('',(0.007,-0.0063738836868521,-0.0166502230799912));
#484=CARTESIAN_POINT('',(0.007,-0.00803805173559446,-0.0159166749704434));
#485=CARTESIAN_POINT('',(0.007,-0.0101091203342575,-0.0147359133319593));
#486=CARTESIAN_POINT('',(0.007,-0.0125401628844588,-0.0128172961293272));
#487=CARTESIAN_POINT('',(0.007,-0.0145133832727955,-0.0104267756035353));
#488=CARTESIAN_POINT('',(0.007,-0.0157423677132625,-0.00837467856070006));
#489=CARTESIAN_POINT('',(0.007,-0.0165133055252993,-0.0067213884292194));
#490=CARTESIAN_POINT('',(0.007,-0.017080760882377,-0.00510947372001151));
#491=CARTESIAN_POINT('',(0.007,-0.0174997620470368,-0.00339903648272842));
#492=CARTESIAN_POINT('',(0.007,-0.017732731235933,-0.0018023196627309));
#493=CARTESIAN_POINT('',(0.007,-0.0178246415482742,-0.000173349878887765));
#494=CARTESIAN_POINT('',(0.007,-0.0177637344538277,0.00146442184816872));
#495=CARTESIAN_POINT('',(0.007,-0.0175637206882124,0.00304853736776808));
#496=CARTESIAN_POINT('',(0.007,-0.0171811690549059,0.00476009847413796));
#497=CARTESIAN_POINT('',(0.007,-0.0166502230799908,0.00637388368685659));
#498=CARTESIAN_POINT('',(0.007,-0.0159166749704461,0.00803805173558729));
#499=CARTESIAN_POINT('',(0.007,-0.0147359133319575,0.0101091203342608));
#500=CARTESIAN_POINT('',(0.007,-0.0128172961293346,0.0125401628844533));
#501=CARTESIAN_POINT('',(0.007,-0.0104267756035149,0.0145133832728101));
#502=CARTESIAN_POINT('',(0.007,-0.00837467856073004,0.0157423677132416));
#503=CARTESIAN_POINT('',(0.007,-0.00672138842920969,0.0165133055253015));
#504=CARTESIAN_POINT('',(0.007,-0.00510947372004109,0.0170807608823736));
#505=CARTESIAN_POINT('',(0.007,-0.00339903648271935,0.0174997620470424));
#506=CARTESIAN_POINT('',(0.007,-0.00180231966275752,0.0177327312359128));
#507=CARTESIAN_POINT('',(0.007,-0.000173349878896885,0.0178246415483176));
#508=CARTESIAN_POINT('',(0.007,0.00146442184821035,0.0177637344536682));
#509=CARTESIAN_POINT('',(0.007,0.00304853736754867,0.0175637206888389));
#510=CARTESIAN_POINT('',(0.007,0.0047600984749614,0.0171811690525655));
#511=CARTESIAN_POINT('',(0.007,0.00637388368374126,0.0166502230887117));
#512=CARTESIAN_POINT('',(0.007,0.00803805174721683,0.0159166749378998));
#513=CARTESIAN_POINT('',(0.007,0.0101091202723435,0.0147359135048673));
#514=CARTESIAN_POINT('',(0.007,0.0125401633834973,0.0128172947359186));
#515=CARTESIAN_POINT('',(0.007,0.0145133818375861,0.0104267796108596));
#516=CARTESIAN_POINT('',(0.007,0.0157423701968262,0.00837467162620448));
#517=CARTESIAN_POINT('',(0.007,0.0165132960465022,0.00672141489544193));
#518=CARTESIAN_POINT('',(0.007,0.0170807963139898,0.00510937478963918));
#519=CARTESIAN_POINT('',(0.007,0.0175069777552783,0.00336940628095733));
#520=CARTESIAN_POINT('',(0.007,0.0177437233273034,0.00171789295135523));
#521=CARTESIAN_POINT('',(0.007,0.0178254927041138,5.66534499601156E-5));
#522=CARTESIAN_POINT('',(0.007,0.0177538149969295,-0.00155331571635122));
#523=CARTESIAN_POINT('',(0.007,0.0178000000044704,0.));
#524=CARTESIAN_POINT('',(0.,0.,0.019));
#525=CARTESIAN_POINT('',(0.,0.0177437233228472,-0.00171789295092578));
#526=CARTESIAN_POINT('',(0.,0.0178254926996367,-5.6653449937148E-5));
#527=CARTESIAN_POINT('',(0.,0.0177538149924716,0.00155331571593165));
#528=CARTESIAN_POINT('',(0.,0.0175562130620652,0.00308349541016212));
#529=CARTESIAN_POINT('',(0.,0.0171796982852767,0.00476493489288312));
#530=CARTESIAN_POINT('',(0.,0.0166495017303621,0.00637552034054466));
#531=CARTESIAN_POINT('',(0.,0.0159165470487313,0.0080383013119699));
#532=CARTESIAN_POINT('',(0.,0.0147358615273805,0.0101091751876365));
#533=CARTESIAN_POINT('',(0.,0.0128172873959579,0.0125401751172507));
#534=CARTESIAN_POINT('',(0.,0.0104267755014254,0.0145133826559613));
#535=CARTESIAN_POINT('',(0.,0.00837467848132657,0.0157423678801079));
#536=CARTESIAN_POINT('',(0.,0.00672138842982938,0.0165133054830125));
#537=CARTESIAN_POINT('',(0.,0.00510947371382198,0.0170807608897281));
#538=CARTESIAN_POINT('',(0.,0.00339903648225221,0.0174997620397142));
#539=CARTESIAN_POINT('',(0.,0.00180231966197416,0.0177327312322835));
#540=CARTESIAN_POINT('',(0.,0.000173349878863619,0.0178246415435787));
#541=CARTESIAN_POINT('',(0.,-0.00146442184775316,0.0177637344494336));
#542=CARTESIAN_POINT('',(0.,-0.00304853736701935,0.0175637206837808));
#543=CARTESIAN_POINT('',(0.,-0.00476009847288418,0.0171811690506107));
#544=CARTESIAN_POINT('',(0.,-0.00637388368527177,0.0166502230757999));
#545=CARTESIAN_POINT('',(0.,-0.00803805173352257,0.0159166749664754));
#546=CARTESIAN_POINT('',(0.,-0.0101091203317391,0.0147359133282467));
#547=CARTESIAN_POINT('',(0.,-0.0125401628812951,0.0128172961261203));
#548=CARTESIAN_POINT('',(0.,-0.0145133832691642,0.0104267756009008));
#549=CARTESIAN_POINT('',(0.,-0.0157423677092915,0.00837467855861859));
#550=CARTESIAN_POINT('',(0.,-0.0165133055211533,0.00672138842752398));
#551=CARTESIAN_POINT('',(0.,-0.0170807608780869,0.00510947371875084));
#552=CARTESIAN_POINT('',(0.,-0.017499762042644,0.00339903648186685));
#553=CARTESIAN_POINT('',(0.,-0.0177327312314713,0.00180231966230242));
#554=CARTESIAN_POINT('',(0.,-0.0178246415437962,0.000173349878844099));
#555=CARTESIAN_POINT('',(0.,-0.0177637344493741,-0.00146442184780673));
#556=CARTESIAN_POINT('',(0.,-0.0175637206838038,-0.00304853736699913));
#557=CARTESIAN_POINT('',(0.,-0.0171811690505797,-0.00476009847295407));
#558=CARTESIAN_POINT('',(0.,-0.0166502230758042,-0.00637388368526428));
#559=CARTESIAN_POINT('',(0.,-0.0159166749664698,-0.0080380517335335));
#560=CARTESIAN_POINT('',(0.,-0.0147359133282495,-0.0101091203317349));
#561=CARTESIAN_POINT('',(0.,-0.0128172961261147,-0.0125401628812972));
#562=CARTESIAN_POINT('',(0.,-0.0104267756009203,-0.0145133832691523));
#563=CARTESIAN_POINT('',(0.,-0.0083746785585922,-0.0157423677093074));
#564=CARTESIAN_POINT('',(0.,-0.006721388427538,-0.0165133055211492));
#565=CARTESIAN_POINT('',(0.,-0.00510947371870435,-0.0170807608780984));
#566=CARTESIAN_POINT('',(0.,-0.00339903648187552,-0.0174997620426463));
#567=CARTESIAN_POINT('',(0.,-0.00180231966228126,-0.0177327312314595));
#568=CARTESIAN_POINT('',(0.,-0.000173349878850127,-0.0178246415438411));
#569=CARTESIAN_POINT('',(0.,0.00146442184782377,-0.0177637344492063));
#570=CARTESIAN_POINT('',(0.,0.00304853736676912,-0.0175637206844302));
#571=CARTESIAN_POINT('',(0.,0.00476009847382306,-0.0171811690482422));
#572=CARTESIAN_POINT('',(0.,0.00637388368211584,-0.0166502230845431));
#573=CARTESIAN_POINT('',(0.,0.00803805174527788,-0.015916674933855));
#574=CARTESIAN_POINT('',(0.,0.0101091202697752,-0.0147359135011844));
#575=CARTESIAN_POINT('',(0.,0.0125401633803612,-0.0128172947326873));
#576=CARTESIAN_POINT('',(0.,0.0145133818339385,-0.0104267796082518));
#577=CARTESIAN_POINT('',(0.,0.0157423701928819,-0.00837467162407681));
#578=CARTESIAN_POINT('',(0.,0.0165132960423544,-0.00672141489375533));
#579=CARTESIAN_POINT('',(0.,0.0170807963097003,-0.00510937478835556));
#580=CARTESIAN_POINT('',(0.,0.0175069777508813,-0.00336940628011076));
#581=CARTESIAN_POINT('',(0.,0.0177437233228472,-0.00171789295092578));
#582=CARTESIAN_POINT('',(0.,0.0178254926996367,-5.6653449937148E-5));
#583=CARTESIAN_POINT('',(0.,0.0177538149924716,0.00155331571593165));
#584=CARTESIAN_POINT('',(0.,0.0178,0.));
#585=CARTESIAN_POINT('',(0.0067,0.,0.));
#586=CARTESIAN_POINT('',(0.0067,0.,0.));
#587=CARTESIAN_POINT('',(0.0067,0.0175,0.));
#588=CARTESIAN_POINT('',(0.000299999999999995,0.,0.));
#589=CARTESIAN_POINT('',(0.000299999999999995,0.,0.));
#590=CARTESIAN_POINT('',(0.000299999999999995,0.0175,0.));
#591=CARTESIAN_POINT('',(0.007,0.,0.));
#592=MECHANICAL_DESIGN_GEOMETRIC_PRESENTATION_REPRESENTATION('',(#197),
#593);
#593=(
GEOMETRIC_REPRESENTATION_CONTEXT(3)
GLOBAL_UNCERTAINTY_ASSIGNED_CONTEXT((#594))
GLOBAL_UNIT_ASSIGNED_CONTEXT((#597,#596,#595))
REPRESENTATION_CONTEXT('KP0052-01_B6807ZZ_2_03',
'TOP_LEVEL_ASSEMBLY_PART')
);
#594=UNCERTAINTY_MEASURE_WITH_UNIT(LENGTH_MEASURE(2.E-5),#597,
'DISTANCE_ACCURACY_VALUE','Maximum Tolerance applied to model');
#595=(
NAMED_UNIT(*)
SI_UNIT($,.STERADIAN.)
SOLID_ANGLE_UNIT()
);
#596=(
NAMED_UNIT(*)
PLANE_ANGLE_UNIT()
SI_UNIT($,.RADIAN.)
);
#597=(
LENGTH_UNIT()
NAMED_UNIT(*)
SI_UNIT($,.METRE.)
);
#598=PRODUCT_DEFINITION_SHAPE('','',#599);
#599=PRODUCT_DEFINITION('','',#601,#600);
#600=PRODUCT_DEFINITION_CONTEXT('',#607,'design');
#601=PRODUCT_DEFINITION_FORMATION_WITH_SPECIFIED_SOURCE('','',#603,
 .NOT_KNOWN.);
#602=PRODUCT_RELATED_PRODUCT_CATEGORY('','',(#603));
#603=PRODUCT('KP0052-01_B6807ZZ_2_03','KP0052-01_B6807ZZ_2_03',
'KP0052-01_B6807ZZ_2_03',(#605));
#604=PRODUCT_CATEGORY('','');
#605=PRODUCT_CONTEXT('',#607,'mechanical');
#606=APPLICATION_PROTOCOL_DEFINITION('international standard',
'automotive_design',2010,#607);
#607=APPLICATION_CONTEXT(
'core data for automotive mechanical design processes');
ENDSEC;
END-ISO-10303-21;
