ISO-10303-21;
HEADER;
/* Generated by software containing ST-Developer
 * from STEP Tools, Inc. (www.steptools.com) 
 */
/* OPTION: using custom renumber hook */

FILE_DESCRIPTION(
/* description */ ('STEP AP214',
'CAx-IF Rec.Pracs.---User Defined Attributes---1.5---2016-08-15'),
/* implementation_level */ '2;1');

FILE_NAME(
/* name */ '6a65b5687e652834a1e6d197',
/* time_stamp */ '2026-07-26T07:21:13Z',
/* author */ (''),
/* organization */ (''),
/* preprocessor_version */ 'ST-DEVELOPER v20',
/* originating_system */ 'ONSHAPE BY PTC INC, 1.218',
/* authorisation */ '  ');

FILE_SCHEMA (('AUTOMOTIVE_DESIGN {1 0 10303 214 3 1 1}'));
ENDSEC;

DATA;
#10=PROPERTY_DEFINITION_REPRESENTATION(#14,#12);
#11=PROPERTY_DEFINITION_REPRESENTATION(#15,#13);
#12=REPRESENTATION('',(#16),#267);
#13=REPRESENTATION('',(#17),#267);
#14=PROPERTY_DEFINITION('pmi validation property','',#272);
#15=PROPERTY_DEFINITION('pmi validation property','',#272);
#16=VALUE_REPRESENTATION_ITEM('number of annotations',COUNT_MEASURE(0.));
#17=VALUE_REPRESENTATION_ITEM('number of views',COUNT_MEASURE(0.));
#18=SHAPE_REPRESENTATION_RELATIONSHIP('','',#154,#19);
#19=ADVANCED_BREP_SHAPE_REPRESENTATION('',(#152),#267);
#20=CONICAL_SURFACE('',#165,0.00912132034356506,0.7853981634);
#21=TOROIDAL_SURFACE('',#163,0.0112426406871193,0.003);
#22=TOROIDAL_SURFACE('',#167,0.0065,0.0005);
#23=CYLINDRICAL_SURFACE('',#161,0.006);
#24=B_SPLINE_CURVE_WITH_KNOTS('',3,(#214,#215,#216,#217,#218,#219),
 .UNSPECIFIED.,.F.,.F.,(4,1,1,4),(2.44405239165173E-17,0.000683087571733719,
0.00102463135760057,0.00136617514346741),.UNSPECIFIED.);
#25=B_SPLINE_CURVE_WITH_KNOTS('',3,(#221,#222,#223,#224),.UNSPECIFIED.,
 .F.,.F.,(4,4),(7.13138048304642E-17,0.00347443870928859),.UNSPECIFIED.);
#26=B_SPLINE_CURVE_WITH_KNOTS('',3,(#226,#227,#228,#229),.UNSPECIFIED.,
 .F.,.F.,(4,4),(3.11171690013622E-16,0.00200587697895762),.UNSPECIFIED.);
#27=B_SPLINE_CURVE_WITH_KNOTS('',3,(#235,#236,#237,#238,#239),
 .UNSPECIFIED.,.F.,.F.,(4,1,4),(0.,0.003998977010174,0.007997954020348),
 .UNSPECIFIED.);
#28=B_SPLINE_CURVE_WITH_KNOTS('',3,(#241,#242,#243,#244),.UNSPECIFIED.,
 .F.,.F.,(4,4),(0.,0.00200606643069948),.UNSPECIFIED.);
#29=B_SPLINE_CURVE_WITH_KNOTS('',3,(#246,#247,#248,#249),.UNSPECIFIED.,
 .F.,.F.,(4,4),(1.72024451765191E-16,0.00347443870928874),.UNSPECIFIED.);
#30=B_SPLINE_CURVE_WITH_KNOTS('',3,(#251,#252,#253,#254,#255,#256),
 .UNSPECIFIED.,.F.,.F.,(4,1,1,4),(0.,0.000344071018551554,0.000688142037103109,
0.00137628407420622),.UNSPECIFIED.);
#31=CIRCLE('',#157,0.006);
#32=CIRCLE('',#162,0.006);
#33=CIRCLE('',#164,0.00912132034355965);
#34=CIRCLE('',#166,0.00685355339059291);
#35=ORIENTED_EDGE('',*,*,#71,.F.);
#36=ORIENTED_EDGE('',*,*,#72,.F.);
#37=ORIENTED_EDGE('',*,*,#73,.F.);
#38=ORIENTED_EDGE('',*,*,#74,.F.);
#39=ORIENTED_EDGE('',*,*,#74,.T.);
#40=ORIENTED_EDGE('',*,*,#75,.T.);
#41=ORIENTED_EDGE('',*,*,#76,.F.);
#42=ORIENTED_EDGE('',*,*,#77,.T.);
#43=ORIENTED_EDGE('',*,*,#78,.T.);
#44=ORIENTED_EDGE('',*,*,#79,.T.);
#45=ORIENTED_EDGE('',*,*,#80,.T.);
#46=ORIENTED_EDGE('',*,*,#71,.T.);
#47=ORIENTED_EDGE('',*,*,#79,.F.);
#48=ORIENTED_EDGE('',*,*,#81,.T.);
#49=ORIENTED_EDGE('',*,*,#82,.T.);
#50=ORIENTED_EDGE('',*,*,#83,.T.);
#51=ORIENTED_EDGE('',*,*,#84,.F.);
#52=ORIENTED_EDGE('',*,*,#85,.T.);
#53=ORIENTED_EDGE('',*,*,#72,.T.);
#54=ORIENTED_EDGE('',*,*,#80,.F.);
#55=ORIENTED_EDGE('',*,*,#73,.T.);
#56=ORIENTED_EDGE('',*,*,#85,.F.);
#57=ORIENTED_EDGE('',*,*,#86,.F.);
#58=ORIENTED_EDGE('',*,*,#75,.F.);
#59=ORIENTED_EDGE('',*,*,#87,.F.);
#60=ORIENTED_EDGE('',*,*,#82,.F.);
#61=ORIENTED_EDGE('',*,*,#81,.F.);
#62=ORIENTED_EDGE('',*,*,#78,.F.);
#63=ORIENTED_EDGE('',*,*,#83,.F.);
#64=ORIENTED_EDGE('',*,*,#87,.T.);
#65=ORIENTED_EDGE('',*,*,#77,.F.);
#66=ORIENTED_EDGE('',*,*,#88,.T.);
#67=ORIENTED_EDGE('',*,*,#84,.T.);
#68=ORIENTED_EDGE('',*,*,#88,.F.);
#69=ORIENTED_EDGE('',*,*,#76,.T.);
#70=ORIENTED_EDGE('',*,*,#86,.T.);
#71=EDGE_CURVE('',#89,#90,#101,.F.);
#72=EDGE_CURVE('',#91,#89,#102,.F.);
#73=EDGE_CURVE('',#92,#91,#31,.F.);
#74=EDGE_CURVE('',#90,#92,#103,.T.);
#75=EDGE_CURVE('',#92,#93,#104,.F.);
#76=EDGE_CURVE('',#94,#93,#24,.T.);
#77=EDGE_CURVE('',#94,#95,#25,.T.);
#78=EDGE_CURVE('',#95,#96,#26,.T.);
#79=EDGE_CURVE('',#96,#90,#105,.T.);
#80=EDGE_CURVE('',#97,#89,#106,.F.);
#81=EDGE_CURVE('',#96,#97,#27,.T.);
#82=EDGE_CURVE('',#97,#98,#28,.T.);
#83=EDGE_CURVE('',#98,#99,#29,.T.);
#84=EDGE_CURVE('',#100,#99,#30,.T.);
#85=EDGE_CURVE('',#100,#91,#107,.F.);
#86=EDGE_CURVE('',#93,#100,#32,.F.);
#87=EDGE_CURVE('',#98,#95,#33,.T.);
#88=EDGE_CURVE('',#94,#99,#34,.T.);
#89=VERTEX_POINT('',#204);
#90=VERTEX_POINT('',#205);
#91=VERTEX_POINT('',#207);
#92=VERTEX_POINT('',#209);
#93=VERTEX_POINT('',#213);
#94=VERTEX_POINT('',#220);
#95=VERTEX_POINT('',#225);
#96=VERTEX_POINT('',#230);
#97=VERTEX_POINT('',#234);
#98=VERTEX_POINT('',#245);
#99=VERTEX_POINT('',#250);
#100=VERTEX_POINT('',#257);
#101=LINE('',#203,#108);
#102=LINE('',#206,#109);
#103=LINE('',#210,#110);
#104=LINE('',#212,#111);
#105=LINE('',#231,#112);
#106=LINE('',#233,#113);
#107=LINE('',#258,#114);
#108=VECTOR('',#172,1.);
#109=VECTOR('',#173,1.);
#110=VECTOR('',#176,1.);
#111=VECTOR('',#179,1.);
#112=VECTOR('',#180,1.);
#113=VECTOR('',#183,1.);
#114=VECTOR('',#186,1.);
#115=EDGE_LOOP('',(#35,#36,#37,#38));
#116=EDGE_LOOP('',(#39,#40,#41,#42,#43,#44));
#117=EDGE_LOOP('',(#45,#46,#47,#48));
#118=EDGE_LOOP('',(#49,#50,#51,#52,#53,#54));
#119=EDGE_LOOP('',(#55,#56,#57,#58));
#120=EDGE_LOOP('',(#59,#60,#61,#62));
#121=EDGE_LOOP('',(#63,#64,#65,#66));
#122=EDGE_LOOP('',(#67,#68,#69,#70));
#123=FACE_BOUND('',#115,.T.);
#124=FACE_BOUND('',#116,.T.);
#125=FACE_BOUND('',#117,.T.);
#126=FACE_BOUND('',#118,.T.);
#127=FACE_BOUND('',#119,.T.);
#128=FACE_BOUND('',#120,.T.);
#129=FACE_BOUND('',#121,.T.);
#130=FACE_BOUND('',#122,.T.);
#131=PLANE('',#156);
#132=PLANE('',#158);
#133=PLANE('',#159);
#134=PLANE('',#160);
#135=ADVANCED_FACE('',(#123),#131,.F.);
#136=ADVANCED_FACE('',(#124),#132,.T.);
#137=ADVANCED_FACE('',(#125),#133,.T.);
#138=ADVANCED_FACE('',(#126),#134,.T.);
#139=ADVANCED_FACE('',(#127),#23,.F.);
#140=ADVANCED_FACE('',(#128),#21,.F.);
#141=ADVANCED_FACE('',(#129),#20,.T.);
#142=ADVANCED_FACE('',(#130),#22,.T.);
#143=CLOSED_SHELL('',(#135,#136,#137,#138,#139,#140,#141,#142));
#144=STYLED_ITEM('',(#145),#152);
#145=PRESENTATION_STYLE_ASSIGNMENT((#146));
#146=SURFACE_STYLE_USAGE(.BOTH.,#147);
#147=SURFACE_SIDE_STYLE('',(#148));
#148=SURFACE_STYLE_FILL_AREA(#149);
#149=FILL_AREA_STYLE('',(#150));
#150=FILL_AREA_STYLE_COLOUR('',#151);
#151=COLOUR_RGB('',0.745098039215686,0.745098039215686,0.745098039215686);
#152=MANIFOLD_SOLID_BREP('KP0043-01_PConnectCoverCapB',#143);
#153=SHAPE_DEFINITION_REPRESENTATION(#272,#154);
#154=SHAPE_REPRESENTATION('KP0043-01_PConnectCoverCapB',(#155),#267);
#155=AXIS2_PLACEMENT_3D('',#201,#168,#169);
#156=AXIS2_PLACEMENT_3D('',#202,#170,#171);
#157=AXIS2_PLACEMENT_3D('',#208,#174,#175);
#158=AXIS2_PLACEMENT_3D('',#211,#177,#178);
#159=AXIS2_PLACEMENT_3D('',#232,#181,#182);
#160=AXIS2_PLACEMENT_3D('',#240,#184,#185);
#161=AXIS2_PLACEMENT_3D('',#259,#187,#188);
#162=AXIS2_PLACEMENT_3D('',#260,#189,#190);
#163=AXIS2_PLACEMENT_3D('',#261,#191,#192);
#164=AXIS2_PLACEMENT_3D('',#262,#193,#194);
#165=AXIS2_PLACEMENT_3D('',#263,#195,#196);
#166=AXIS2_PLACEMENT_3D('',#264,#197,#198);
#167=AXIS2_PLACEMENT_3D('',#265,#199,#200);
#168=DIRECTION('',(0.,0.,1.));
#169=DIRECTION('',(1.,0.,0.));
#170=DIRECTION('',(0.,-1.,0.));
#171=DIRECTION('',(1.,0.,0.));
#172=DIRECTION('',(0.,0.,1.));
#173=DIRECTION('',(1.,0.,0.));
#174=DIRECTION('',(0.,-1.,0.));
#175=DIRECTION('',(1.,0.,0.));
#176=DIRECTION('',(1.,0.,0.));
#177=DIRECTION('',(0.,0.,-1.));
#178=DIRECTION('',(0.,1.,0.));
#179=DIRECTION('',(0.,1.,0.));
#180=DIRECTION('',(0.,1.,0.));
#181=DIRECTION('',(-1.,0.,-8.78254147825523E-16));
#182=DIRECTION('',(8.78254147825523E-16,0.,-1.));
#183=DIRECTION('',(0.,-1.,0.));
#184=DIRECTION('',(4.35862707138659E-17,0.,1.));
#185=DIRECTION('',(-1.,0.,4.35862707138659E-17));
#186=DIRECTION('',(0.,-1.,0.));
#187=DIRECTION('',(0.,-1.,0.));
#188=DIRECTION('',(1.,0.,0.));
#189=DIRECTION('',(0.,-1.,0.));
#190=DIRECTION('',(1.,0.,0.));
#191=DIRECTION('',(0.,-1.,0.));
#192=DIRECTION('',(1.,0.,0.));
#193=DIRECTION('',(0.,-1.,0.));
#194=DIRECTION('',(1.,0.,0.));
#195=DIRECTION('',(0.,1.,0.));
#196=DIRECTION('',(-1.,0.,0.));
#197=DIRECTION('',(0.,1.,0.));
#198=DIRECTION('',(-1.,0.,0.));
#199=DIRECTION('',(0.,1.,0.));
#200=DIRECTION('',(-1.,0.,0.));
#201=CARTESIAN_POINT('',(0.,0.,0.));
#202=CARTESIAN_POINT('',(-4.42950266267164E-5,0.,-5.54999999815115E-5));
#203=CARTESIAN_POINT('',(-0.0120016079219338,0.,-5.54999999815115E-5));
#204=CARTESIAN_POINT('',(-0.0120016079219338,0.,0.00400000000000364));
#205=CARTESIAN_POINT('',(-0.0120016079219338,0.,-0.004));
#206=CARTESIAN_POINT('',(-4.42950266267164E-5,0.,0.004));
#207=CARTESIAN_POINT('',(-0.00647213595499958,0.,0.004));
#208=CARTESIAN_POINT('',(-0.002,0.,0.));
#209=CARTESIAN_POINT('',(-0.00647213595499958,0.,-0.004));
#210=CARTESIAN_POINT('',(-4.42950266267164E-5,0.,-0.004));
#211=CARTESIAN_POINT('',(-0.0147359258596993,0.,-0.004));
#212=CARTESIAN_POINT('',(-0.00647213595499958,0.,-0.004));
#213=CARTESIAN_POINT('',(-0.00647213595499958,-0.00379289321881345,-0.004));
#214=CARTESIAN_POINT('',(-0.0075651769134243,-0.00414644660940663,-0.00400000000000005));
#215=CARTESIAN_POINT('',(-0.00738451219062467,-0.00429314877791599,-0.00400000000000005));
#216=CARTESIAN_POINT('',(-0.00700969582786424,-0.00434073026289074,-0.00399999999999999));
#217=CARTESIAN_POINT('',(-0.00658953385439403,-0.00412809825935274,-0.004));
#218=CARTESIAN_POINT('',(-0.00647213595499958,-0.00390971219198298,-0.004));
#219=CARTESIAN_POINT('',(-0.00647213595499958,-0.00379289321881345,-0.004));
#220=CARTESIAN_POINT('',(-0.00756517691342423,-0.00414644660940653,-0.004));
#221=CARTESIAN_POINT('',(-0.0075651769134241,-0.00414644660940628,-0.004));
#222=CARTESIAN_POINT('',(-0.00846462583313234,-0.00341608207039072,-0.004));
#223=CARTESIAN_POINT('',(-0.0093358854646924,-0.00265299705393227,-0.004));
#224=CARTESIAN_POINT('',(-0.0101974681951151,-0.00187867965644635,-0.004));
#225=CARTESIAN_POINT('',(-0.0101974681951124,-0.00187867965644336,-0.004));
#226=CARTESIAN_POINT('',(-0.0101974681951112,-0.001878679656442,-0.00399999999999941));
#227=CARTESIAN_POINT('',(-0.0107021838932821,-0.00142508404445898,-0.00399999999999941));
#228=CARTESIAN_POINT('',(-0.0113306833629717,-0.00113616761808568,-0.004));
#229=CARTESIAN_POINT('',(-0.0120016079219341,-0.00103717528687832,-0.004));
#230=CARTESIAN_POINT('',(-0.012001607921934,-0.00103717528687797,-0.00400000000000621));
#231=CARTESIAN_POINT('',(-0.0120016079219338,0.,-0.004));
#232=CARTESIAN_POINT('',(-0.0120016079219338,0.,0.0050010000000475));
#233=CARTESIAN_POINT('',(-0.0120016079219338,0.,0.00400000000001094));
#234=CARTESIAN_POINT('',(-0.0120016079219339,-0.00103717528687809,0.0040000000000044));
#235=CARTESIAN_POINT('',(-0.0120016079219339,-0.00103717528687797,-0.00400000000000621));
#236=CARTESIAN_POINT('',(-0.0120016079219339,-0.00111574254174678,-0.00266855401904771));
#237=CARTESIAN_POINT('',(-0.0120016079219338,-0.00142154549065052,-8.23803663832934E-6));
#238=CARTESIAN_POINT('',(-0.0120016079219338,-0.00111608230556456,0.00266279618558068));
#239=CARTESIAN_POINT('',(-0.0120016079219338,-0.0010371752868781,0.0040000000000044));
#240=CARTESIAN_POINT('',(-0.002,0.,0.004));
#241=CARTESIAN_POINT('',(-0.0120016079219339,-0.00103717528687809,0.0040000000000022));
#242=CARTESIAN_POINT('',(-0.0113306538796082,-0.00113617196824185,0.0040000000000022));
#243=CARTESIAN_POINT('',(-0.010702074884375,-0.00142518201240543,0.004));
#244=CARTESIAN_POINT('',(-0.0101974681951097,-0.00187867965644037,0.004));
#245=CARTESIAN_POINT('',(-0.0101974681951097,-0.00187867965644037,0.004));
#246=CARTESIAN_POINT('',(-0.0101974681951151,-0.00187867965644635,0.004));
#247=CARTESIAN_POINT('',(-0.00933588546469238,-0.00265299705393228,0.004));
#248=CARTESIAN_POINT('',(-0.00846462583313235,-0.0034160820703907,0.004));
#249=CARTESIAN_POINT('',(-0.0075651769134241,-0.00414644660940627,0.004));
#250=CARTESIAN_POINT('',(-0.00756517691342423,-0.00414644660940653,0.004));
#251=CARTESIAN_POINT('',(-0.00647213595499958,-0.00379289321881345,0.004));
#252=CARTESIAN_POINT('',(-0.00647213595499958,-0.00390954129791114,0.004));
#253=CARTESIAN_POINT('',(-0.00658861682094556,-0.00412705301446496,0.004));
#254=CARTESIAN_POINT('',(-0.00700887073678727,-0.0043410400832451,0.004));
#255=CARTESIAN_POINT('',(-0.00738478158571591,-0.00429293002550308,0.004));
#256=CARTESIAN_POINT('',(-0.00756517691342438,-0.00414644660940679,0.004));
#257=CARTESIAN_POINT('',(-0.00647213595499958,-0.00379289321881345,0.004));
#258=CARTESIAN_POINT('',(-0.00647213595499958,0.,0.004));
#259=CARTESIAN_POINT('',(-0.002,-0.001,0.));
#260=CARTESIAN_POINT('',(-0.002,-0.00379289321881345,0.));
#261=CARTESIAN_POINT('',(-0.002,-0.004,0.));
#262=CARTESIAN_POINT('',(-0.002,-0.00187867965644037,0.));
#263=CARTESIAN_POINT('',(-0.002,-0.00187867965644577,0.));
#264=CARTESIAN_POINT('',(-0.002,-0.00414644660940635,0.));
#265=CARTESIAN_POINT('',(-0.002,-0.00379289321881345,0.));
#266=MECHANICAL_DESIGN_GEOMETRIC_PRESENTATION_REPRESENTATION('',(#144),
#267);
#267=(
GEOMETRIC_REPRESENTATION_CONTEXT(3)
GLOBAL_UNCERTAINTY_ASSIGNED_CONTEXT((#268))
GLOBAL_UNIT_ASSIGNED_CONTEXT((#271,#270,#269))
REPRESENTATION_CONTEXT('KP0043-01_PConnectCoverCapB',
'TOP_LEVEL_ASSEMBLY_PART')
);
#268=UNCERTAINTY_MEASURE_WITH_UNIT(LENGTH_MEASURE(2.E-5),#271,
'DISTANCE_ACCURACY_VALUE','Maximum Tolerance applied to model');
#269=(
NAMED_UNIT(*)
SI_UNIT($,.STERADIAN.)
SOLID_ANGLE_UNIT()
);
#270=(
NAMED_UNIT(*)
PLANE_ANGLE_UNIT()
SI_UNIT($,.RADIAN.)
);
#271=(
LENGTH_UNIT()
NAMED_UNIT(*)
SI_UNIT($,.METRE.)
);
#272=PRODUCT_DEFINITION_SHAPE('','',#273);
#273=PRODUCT_DEFINITION('','',#275,#274);
#274=PRODUCT_DEFINITION_CONTEXT('',#281,'design');
#275=PRODUCT_DEFINITION_FORMATION_WITH_SPECIFIED_SOURCE('','',#277,
 .NOT_KNOWN.);
#276=PRODUCT_RELATED_PRODUCT_CATEGORY('','',(#277));
#277=PRODUCT('KP0043-01_PConnectCoverCapB',
'KP0043-01_PConnectCoverCapB','KP0043-01_PConnectCoverCapB',(#279));
#278=PRODUCT_CATEGORY('','');
#279=PRODUCT_CONTEXT('',#281,'mechanical');
#280=APPLICATION_PROTOCOL_DEFINITION('international standard',
'automotive_design',2010,#281);
#281=APPLICATION_CONTEXT(
'core data for automotive mechanical design processes');
ENDSEC;
END-ISO-10303-21;
