ISO-10303-21;
HEADER;
/* Generated by software containing ST-Developer
 * from STEP Tools, Inc. (www.steptools.com) 
 */
/* OPTION: using custom renumber hook */

FILE_DESCRIPTION(
/* description */ ('STEP AP214',
'CAx-IF Rec.Pracs.---User Defined Attributes---1.5---2016-08-15'),
/* implementation_level */ '2;1');

FILE_NAME(
/* name */ '6a65b5b3d6769bec3d82b189',
/* time_stamp */ '2026-07-26T07:22:27Z',
/* author */ (''),
/* organization */ (''),
/* preprocessor_version */ 'ST-DEVELOPER v20',
/* originating_system */ 'ONSHAPE BY PTC INC, 1.218',
/* authorisation */ '  ');

FILE_SCHEMA (('AUTOMOTIVE_DESIGN {1 0 10303 214 3 1 1}'));
ENDSEC;

DATA;
#10=PROPERTY_DEFINITION_REPRESENTATION(#14,#12);
#11=PROPERTY_DEFINITION_REPRESENTATION(#15,#13);
#12=REPRESENTATION('',(#16),#469);
#13=REPRESENTATION('',(#17),#469);
#14=PROPERTY_DEFINITION('pmi validation property','',#474);
#15=PROPERTY_DEFINITION('pmi validation property','',#474);
#16=VALUE_REPRESENTATION_ITEM('number of annotations',COUNT_MEASURE(0.));
#17=VALUE_REPRESENTATION_ITEM('number of views',COUNT_MEASURE(0.));
#18=SHAPE_REPRESENTATION_RELATIONSHIP('','',#287,#19);
#19=ADVANCED_BREP_SHAPE_REPRESENTATION('',(#285),#469);
#20=CYLINDRICAL_SURFACE('',#305,0.003);
#21=CYLINDRICAL_SURFACE('',#309,0.0035);
#22=CYLINDRICAL_SURFACE('',#310,0.003);
#23=CYLINDRICAL_SURFACE('',#314,0.0035);
#24=CYLINDRICAL_SURFACE('',#315,0.002);
#25=CYLINDRICAL_SURFACE('',#316,0.002);
#26=CIRCLE('',#296,0.003);
#27=CIRCLE('',#297,0.003);
#28=CIRCLE('',#298,0.002);
#29=CIRCLE('',#299,0.002);
#30=CIRCLE('',#301,0.0035);
#31=CIRCLE('',#302,0.0035);
#32=CIRCLE('',#303,0.002);
#33=CIRCLE('',#304,0.002);
#34=CIRCLE('',#306,0.003);
#35=CIRCLE('',#308,0.0035);
#36=CIRCLE('',#311,0.003);
#37=CIRCLE('',#313,0.0035);
#38=ORIENTED_EDGE('',*,*,#102,.T.);
#39=ORIENTED_EDGE('',*,*,#103,.T.);
#40=ORIENTED_EDGE('',*,*,#104,.F.);
#41=ORIENTED_EDGE('',*,*,#105,.T.);
#42=ORIENTED_EDGE('',*,*,#106,.T.);
#43=ORIENTED_EDGE('',*,*,#107,.T.);
#44=ORIENTED_EDGE('',*,*,#108,.F.);
#45=ORIENTED_EDGE('',*,*,#109,.F.);
#46=ORIENTED_EDGE('',*,*,#110,.F.);
#47=ORIENTED_EDGE('',*,*,#111,.F.);
#48=ORIENTED_EDGE('',*,*,#112,.T.);
#49=ORIENTED_EDGE('',*,*,#109,.T.);
#50=ORIENTED_EDGE('',*,*,#113,.F.);
#51=ORIENTED_EDGE('',*,*,#114,.F.);
#52=ORIENTED_EDGE('',*,*,#115,.T.);
#53=ORIENTED_EDGE('',*,*,#111,.T.);
#54=ORIENTED_EDGE('',*,*,#116,.F.);
#55=ORIENTED_EDGE('',*,*,#117,.F.);
#56=ORIENTED_EDGE('',*,*,#118,.T.);
#57=ORIENTED_EDGE('',*,*,#114,.T.);
#58=ORIENTED_EDGE('',*,*,#119,.F.);
#59=ORIENTED_EDGE('',*,*,#120,.T.);
#60=ORIENTED_EDGE('',*,*,#121,.T.);
#61=ORIENTED_EDGE('',*,*,#117,.T.);
#62=ORIENTED_EDGE('',*,*,#122,.T.);
#63=ORIENTED_EDGE('',*,*,#123,.T.);
#64=ORIENTED_EDGE('',*,*,#121,.F.);
#65=ORIENTED_EDGE('',*,*,#124,.T.);
#66=ORIENTED_EDGE('',*,*,#102,.F.);
#67=ORIENTED_EDGE('',*,*,#125,.T.);
#68=ORIENTED_EDGE('',*,*,#106,.F.);
#69=ORIENTED_EDGE('',*,*,#112,.F.);
#70=ORIENTED_EDGE('',*,*,#115,.F.);
#71=ORIENTED_EDGE('',*,*,#118,.F.);
#72=ORIENTED_EDGE('',*,*,#126,.F.);
#73=ORIENTED_EDGE('',*,*,#127,.F.);
#74=ORIENTED_EDGE('',*,*,#104,.T.);
#75=ORIENTED_EDGE('',*,*,#128,.T.);
#76=ORIENTED_EDGE('',*,*,#119,.T.);
#77=ORIENTED_EDGE('',*,*,#116,.T.);
#78=ORIENTED_EDGE('',*,*,#113,.T.);
#79=ORIENTED_EDGE('',*,*,#110,.T.);
#80=ORIENTED_EDGE('',*,*,#108,.T.);
#81=ORIENTED_EDGE('',*,*,#129,.T.);
#82=ORIENTED_EDGE('',*,*,#123,.F.);
#83=ORIENTED_EDGE('',*,*,#130,.T.);
#84=ORIENTED_EDGE('',*,*,#130,.F.);
#85=ORIENTED_EDGE('',*,*,#131,.T.);
#86=ORIENTED_EDGE('',*,*,#131,.F.);
#87=ORIENTED_EDGE('',*,*,#127,.T.);
#88=ORIENTED_EDGE('',*,*,#122,.F.);
#89=ORIENTED_EDGE('',*,*,#132,.T.);
#90=ORIENTED_EDGE('',*,*,#132,.F.);
#91=ORIENTED_EDGE('',*,*,#133,.T.);
#92=ORIENTED_EDGE('',*,*,#133,.F.);
#93=ORIENTED_EDGE('',*,*,#126,.T.);
#94=ORIENTED_EDGE('',*,*,#124,.F.);
#95=ORIENTED_EDGE('',*,*,#120,.F.);
#96=ORIENTED_EDGE('',*,*,#128,.F.);
#97=ORIENTED_EDGE('',*,*,#103,.F.);
#98=ORIENTED_EDGE('',*,*,#125,.F.);
#99=ORIENTED_EDGE('',*,*,#105,.F.);
#100=ORIENTED_EDGE('',*,*,#129,.F.);
#101=ORIENTED_EDGE('',*,*,#107,.F.);
#102=EDGE_CURVE('',#134,#135,#158,.T.);
#103=EDGE_CURVE('',#135,#136,#159,.T.);
#104=EDGE_CURVE('',#137,#136,#160,.T.);
#105=EDGE_CURVE('',#137,#134,#161,.F.);
#106=EDGE_CURVE('',#138,#139,#162,.T.);
#107=EDGE_CURVE('',#139,#140,#163,.T.);
#108=EDGE_CURVE('',#141,#140,#164,.T.);
#109=EDGE_CURVE('',#138,#141,#165,.T.);
#110=EDGE_CURVE('',#142,#141,#166,.T.);
#111=EDGE_CURVE('',#143,#142,#167,.T.);
#112=EDGE_CURVE('',#143,#138,#168,.T.);
#113=EDGE_CURVE('',#144,#142,#169,.T.);
#114=EDGE_CURVE('',#145,#144,#170,.T.);
#115=EDGE_CURVE('',#145,#143,#171,.T.);
#116=EDGE_CURVE('',#146,#144,#172,.T.);
#117=EDGE_CURVE('',#147,#146,#173,.T.);
#118=EDGE_CURVE('',#147,#145,#174,.T.);
#119=EDGE_CURVE('',#148,#146,#175,.T.);
#120=EDGE_CURVE('',#148,#149,#176,.F.);
#121=EDGE_CURVE('',#149,#147,#177,.T.);
#122=EDGE_CURVE('',#150,#150,#26,.T.);
#123=EDGE_CURVE('',#151,#151,#27,.T.);
#124=EDGE_CURVE('',#149,#135,#28,.F.);
#125=EDGE_CURVE('',#134,#139,#29,.F.);
#126=EDGE_CURVE('',#152,#152,#30,.T.);
#127=EDGE_CURVE('',#153,#153,#31,.T.);
#128=EDGE_CURVE('',#136,#148,#32,.T.);
#129=EDGE_CURVE('',#140,#137,#33,.T.);
#130=EDGE_CURVE('',#154,#154,#34,.T.);
#131=EDGE_CURVE('',#155,#155,#35,.T.);
#132=EDGE_CURVE('',#156,#156,#36,.T.);
#133=EDGE_CURVE('',#157,#157,#37,.T.);
#134=VERTEX_POINT('',#398);
#135=VERTEX_POINT('',#399);
#136=VERTEX_POINT('',#401);
#137=VERTEX_POINT('',#403);
#138=VERTEX_POINT('',#407);
#139=VERTEX_POINT('',#408);
#140=VERTEX_POINT('',#410);
#141=VERTEX_POINT('',#412);
#142=VERTEX_POINT('',#416);
#143=VERTEX_POINT('',#418);
#144=VERTEX_POINT('',#422);
#145=VERTEX_POINT('',#424);
#146=VERTEX_POINT('',#428);
#147=VERTEX_POINT('',#430);
#148=VERTEX_POINT('',#434);
#149=VERTEX_POINT('',#436);
#150=VERTEX_POINT('',#440);
#151=VERTEX_POINT('',#442);
#152=VERTEX_POINT('',#447);
#153=VERTEX_POINT('',#449);
#154=VERTEX_POINT('',#454);
#155=VERTEX_POINT('',#457);
#156=VERTEX_POINT('',#461);
#157=VERTEX_POINT('',#464);
#158=LINE('',#397,#178);
#159=LINE('',#400,#179);
#160=LINE('',#402,#180);
#161=LINE('',#404,#181);
#162=LINE('',#406,#182);
#163=LINE('',#409,#183);
#164=LINE('',#411,#184);
#165=LINE('',#413,#185);
#166=LINE('',#415,#186);
#167=LINE('',#417,#187);
#168=LINE('',#419,#188);
#169=LINE('',#421,#189);
#170=LINE('',#423,#190);
#171=LINE('',#425,#191);
#172=LINE('',#427,#192);
#173=LINE('',#429,#193);
#174=LINE('',#431,#194);
#175=LINE('',#433,#195);
#176=LINE('',#435,#196);
#177=LINE('',#437,#197);
#178=VECTOR('',#321,1.);
#179=VECTOR('',#322,1.);
#180=VECTOR('',#323,1.);
#181=VECTOR('',#324,1.);
#182=VECTOR('',#327,1.);
#183=VECTOR('',#328,1.);
#184=VECTOR('',#329,1.);
#185=VECTOR('',#330,1.);
#186=VECTOR('',#333,1.);
#187=VECTOR('',#334,1.);
#188=VECTOR('',#335,1.);
#189=VECTOR('',#338,1.);
#190=VECTOR('',#339,1.);
#191=VECTOR('',#340,1.);
#192=VECTOR('',#343,1.);
#193=VECTOR('',#344,1.);
#194=VECTOR('',#345,1.);
#195=VECTOR('',#348,1.);
#196=VECTOR('',#349,1.);
#197=VECTOR('',#350,1.);
#198=EDGE_LOOP('',(#38,#39,#40,#41));
#199=EDGE_LOOP('',(#42,#43,#44,#45));
#200=EDGE_LOOP('',(#46,#47,#48,#49));
#201=EDGE_LOOP('',(#50,#51,#52,#53));
#202=EDGE_LOOP('',(#54,#55,#56,#57));
#203=EDGE_LOOP('',(#58,#59,#60,#61));
#204=EDGE_LOOP('',(#62));
#205=EDGE_LOOP('',(#63));
#206=EDGE_LOOP('',(#64,#65,#66,#67,#68,#69,#70,#71));
#207=EDGE_LOOP('',(#72));
#208=EDGE_LOOP('',(#73));
#209=EDGE_LOOP('',(#74,#75,#76,#77,#78,#79,#80,#81));
#210=EDGE_LOOP('',(#82));
#211=EDGE_LOOP('',(#83));
#212=EDGE_LOOP('',(#84));
#213=EDGE_LOOP('',(#85));
#214=EDGE_LOOP('',(#86));
#215=EDGE_LOOP('',(#87));
#216=EDGE_LOOP('',(#88));
#217=EDGE_LOOP('',(#89));
#218=EDGE_LOOP('',(#90));
#219=EDGE_LOOP('',(#91));
#220=EDGE_LOOP('',(#92));
#221=EDGE_LOOP('',(#93));
#222=EDGE_LOOP('',(#94,#95,#96,#97));
#223=EDGE_LOOP('',(#98,#99,#100,#101));
#224=FACE_BOUND('',#198,.T.);
#225=FACE_BOUND('',#199,.T.);
#226=FACE_BOUND('',#200,.T.);
#227=FACE_BOUND('',#201,.T.);
#228=FACE_BOUND('',#202,.T.);
#229=FACE_BOUND('',#203,.T.);
#230=FACE_BOUND('',#204,.T.);
#231=FACE_BOUND('',#205,.T.);
#232=FACE_BOUND('',#206,.T.);
#233=FACE_BOUND('',#207,.T.);
#234=FACE_BOUND('',#208,.T.);
#235=FACE_BOUND('',#209,.T.);
#236=FACE_BOUND('',#210,.T.);
#237=FACE_BOUND('',#211,.T.);
#238=FACE_BOUND('',#212,.T.);
#239=FACE_BOUND('',#213,.T.);
#240=FACE_BOUND('',#214,.T.);
#241=FACE_BOUND('',#215,.T.);
#242=FACE_BOUND('',#216,.T.);
#243=FACE_BOUND('',#217,.T.);
#244=FACE_BOUND('',#218,.T.);
#245=FACE_BOUND('',#219,.T.);
#246=FACE_BOUND('',#220,.T.);
#247=FACE_BOUND('',#221,.T.);
#248=FACE_BOUND('',#222,.T.);
#249=FACE_BOUND('',#223,.T.);
#250=PLANE('',#289);
#251=PLANE('',#290);
#252=PLANE('',#291);
#253=PLANE('',#292);
#254=PLANE('',#293);
#255=PLANE('',#294);
#256=PLANE('',#295);
#257=PLANE('',#300);
#258=PLANE('',#307);
#259=PLANE('',#312);
#260=ADVANCED_FACE('',(#224),#250,.T.);
#261=ADVANCED_FACE('',(#225),#251,.T.);
#262=ADVANCED_FACE('',(#226),#252,.T.);
#263=ADVANCED_FACE('',(#227),#253,.T.);
#264=ADVANCED_FACE('',(#228),#254,.T.);
#265=ADVANCED_FACE('',(#229),#255,.T.);
#266=ADVANCED_FACE('',(#230,#231,#232),#256,.F.);
#267=ADVANCED_FACE('',(#233,#234,#235),#257,.T.);
#268=ADVANCED_FACE('',(#236,#237),#20,.F.);
#269=ADVANCED_FACE('',(#238,#239),#258,.F.);
#270=ADVANCED_FACE('',(#240,#241),#21,.F.);
#271=ADVANCED_FACE('',(#242,#243),#22,.F.);
#272=ADVANCED_FACE('',(#244,#245),#259,.F.);
#273=ADVANCED_FACE('',(#246,#247),#23,.F.);
#274=ADVANCED_FACE('',(#248),#24,.T.);
#275=ADVANCED_FACE('',(#249),#25,.T.);
#276=CLOSED_SHELL('',(#260,#261,#262,#263,#264,#265,#266,#267,#268,#269,
#270,#271,#272,#273,#274,#275));
#277=STYLED_ITEM('',(#278),#285);
#278=PRESENTATION_STYLE_ASSIGNMENT((#279));
#279=SURFACE_STYLE_USAGE(.BOTH.,#280);
#280=SURFACE_SIDE_STYLE('',(#281));
#281=SURFACE_STYLE_FILL_AREA(#282);
#282=FILL_AREA_STYLE('',(#283));
#283=FILL_AREA_STYLE_COLOUR('',#284);
#284=COLOUR_RGB('',0.792156862745098,0.819607843137255,0.933333333333333);
#285=MANIFOLD_SOLID_BREP('KP0003-01_FootPadBare',#276);
#286=SHAPE_DEFINITION_REPRESENTATION(#474,#287);
#287=SHAPE_REPRESENTATION('KP0003-01_FootPadBare',(#288),#469);
#288=AXIS2_PLACEMENT_3D('',#395,#317,#318);
#289=AXIS2_PLACEMENT_3D('',#396,#319,#320);
#290=AXIS2_PLACEMENT_3D('',#405,#325,#326);
#291=AXIS2_PLACEMENT_3D('',#414,#331,#332);
#292=AXIS2_PLACEMENT_3D('',#420,#336,#337);
#293=AXIS2_PLACEMENT_3D('',#426,#341,#342);
#294=AXIS2_PLACEMENT_3D('',#432,#346,#347);
#295=AXIS2_PLACEMENT_3D('',#438,#351,#352);
#296=AXIS2_PLACEMENT_3D('',#439,#353,#354);
#297=AXIS2_PLACEMENT_3D('',#441,#355,#356);
#298=AXIS2_PLACEMENT_3D('',#443,#357,#358);
#299=AXIS2_PLACEMENT_3D('',#444,#359,#360);
#300=AXIS2_PLACEMENT_3D('',#445,#361,#362);
#301=AXIS2_PLACEMENT_3D('',#446,#363,#364);
#302=AXIS2_PLACEMENT_3D('',#448,#365,#366);
#303=AXIS2_PLACEMENT_3D('',#450,#367,#368);
#304=AXIS2_PLACEMENT_3D('',#451,#369,#370);
#305=AXIS2_PLACEMENT_3D('',#452,#371,#372);
#306=AXIS2_PLACEMENT_3D('',#453,#373,#374);
#307=AXIS2_PLACEMENT_3D('',#455,#375,#376);
#308=AXIS2_PLACEMENT_3D('',#456,#377,#378);
#309=AXIS2_PLACEMENT_3D('',#458,#379,#380);
#310=AXIS2_PLACEMENT_3D('',#459,#381,#382);
#311=AXIS2_PLACEMENT_3D('',#460,#383,#384);
#312=AXIS2_PLACEMENT_3D('',#462,#385,#386);
#313=AXIS2_PLACEMENT_3D('',#463,#387,#388);
#314=AXIS2_PLACEMENT_3D('',#465,#389,#390);
#315=AXIS2_PLACEMENT_3D('',#466,#391,#392);
#316=AXIS2_PLACEMENT_3D('',#467,#393,#394);
#317=DIRECTION('',(0.,0.,1.));
#318=DIRECTION('',(1.,0.,0.));
#319=DIRECTION('',(0.,0.,1.));
#320=DIRECTION('',(0.,-1.,0.));
#321=DIRECTION('',(-1.,0.,0.));
#322=DIRECTION('',(0.,-1.,0.));
#323=DIRECTION('',(-1.,0.,0.));
#324=DIRECTION('',(0.,-1.,0.));
#325=DIRECTION('',(1.,0.,-3.46944695195362E-16));
#326=DIRECTION('',(3.46944695195362E-16,0.,1.));
#327=DIRECTION('',(3.46944695195362E-16,0.,1.));
#328=DIRECTION('',(0.,-1.,0.));
#329=DIRECTION('',(3.46944695195362E-16,0.,1.));
#330=DIRECTION('',(0.,-1.,0.));
#331=DIRECTION('',(0.984807753012208,0.,-0.173648177666931));
#332=DIRECTION('',(0.173648177666931,0.,0.984807753012208));
#333=DIRECTION('',(0.173648177666931,0.,0.984807753012208));
#334=DIRECTION('',(0.,-1.,0.));
#335=DIRECTION('',(0.173648177666931,0.,0.984807753012208));
#336=DIRECTION('',(2.05539726622782E-16,0.,-1.));
#337=DIRECTION('',(1.,0.,2.05539726622782E-16));
#338=DIRECTION('',(1.,0.,2.05539726622782E-16));
#339=DIRECTION('',(0.,-1.,0.));
#340=DIRECTION('',(1.,0.,2.05539726622782E-16));
#341=DIRECTION('',(-0.984807753012208,0.,-0.17364817766693));
#342=DIRECTION('',(0.17364817766693,0.,-0.984807753012208));
#343=DIRECTION('',(0.17364817766693,0.,-0.984807753012208));
#344=DIRECTION('',(0.,-1.,0.));
#345=DIRECTION('',(0.17364817766693,0.,-0.984807753012208));
#346=DIRECTION('',(-1.,0.,0.));
#347=DIRECTION('',(0.,-1.,0.));
#348=DIRECTION('',(0.,0.,-1.));
#349=DIRECTION('',(0.,-1.,0.));
#350=DIRECTION('',(0.,0.,-1.));
#351=DIRECTION('',(0.,-1.,0.));
#352=DIRECTION('',(1.,0.,0.));
#353=DIRECTION('',(0.,-1.,0.));
#354=DIRECTION('',(1.,0.,0.));
#355=DIRECTION('',(0.,-1.,0.));
#356=DIRECTION('',(1.,0.,0.));
#357=DIRECTION('',(0.,-1.,0.));
#358=DIRECTION('',(1.,0.,0.));
#359=DIRECTION('',(0.,-1.,0.));
#360=DIRECTION('',(1.,0.,0.));
#361=DIRECTION('',(0.,-1.,0.));
#362=DIRECTION('',(1.,0.,0.));
#363=DIRECTION('',(0.,-1.,0.));
#364=DIRECTION('',(1.,0.,0.));
#365=DIRECTION('',(0.,-1.,0.));
#366=DIRECTION('',(1.,0.,0.));
#367=DIRECTION('',(0.,-1.,0.));
#368=DIRECTION('',(1.,0.,0.));
#369=DIRECTION('',(0.,-1.,0.));
#370=DIRECTION('',(1.,0.,0.));
#371=DIRECTION('',(0.,-1.,0.));
#372=DIRECTION('',(1.,0.,0.));
#373=DIRECTION('',(0.,-1.,0.));
#374=DIRECTION('',(1.,0.,0.));
#375=DIRECTION('',(0.,1.,0.));
#376=DIRECTION('',(-1.,0.,0.));
#377=DIRECTION('',(0.,-1.,0.));
#378=DIRECTION('',(1.,0.,0.));
#379=DIRECTION('',(0.,-1.,0.));
#380=DIRECTION('',(1.,0.,0.));
#381=DIRECTION('',(0.,-1.,0.));
#382=DIRECTION('',(1.,0.,0.));
#383=DIRECTION('',(0.,-1.,0.));
#384=DIRECTION('',(1.,0.,0.));
#385=DIRECTION('',(0.,1.,0.));
#386=DIRECTION('',(-1.,0.,0.));
#387=DIRECTION('',(0.,-1.,0.));
#388=DIRECTION('',(1.,0.,0.));
#389=DIRECTION('',(0.,-1.,0.));
#390=DIRECTION('',(1.,0.,0.));
#391=DIRECTION('',(0.,-1.,0.));
#392=DIRECTION('',(1.,0.,0.));
#393=DIRECTION('',(0.,-1.,0.));
#394=DIRECTION('',(1.,0.,0.));
#395=CARTESIAN_POINT('',(0.,0.,0.));
#396=CARTESIAN_POINT('',(0.02,-4.33680868994202E-19,0.));
#397=CARTESIAN_POINT('',(0.02,-4.33680868994202E-19,0.));
#398=CARTESIAN_POINT('',(0.018,-4.33680868994202E-19,0.));
#399=CARTESIAN_POINT('',(-0.018,-4.33680868994202E-19,0.));
#400=CARTESIAN_POINT('',(-0.018,-4.33680868994202E-19,0.));
#401=CARTESIAN_POINT('',(-0.018,-0.002,0.));
#402=CARTESIAN_POINT('',(0.02,-0.002,0.));
#403=CARTESIAN_POINT('',(0.018,-0.002,0.));
#404=CARTESIAN_POINT('',(0.018,-4.33680868994202E-19,0.));
#405=CARTESIAN_POINT('',(0.02,-4.33680868994202E-19,-0.02));
#406=CARTESIAN_POINT('',(0.02,-4.33680868994202E-19,-0.02));
#407=CARTESIAN_POINT('',(0.02,-4.33680868994202E-19,-0.02));
#408=CARTESIAN_POINT('',(0.02,-4.33680868994202E-19,-0.002));
#409=CARTESIAN_POINT('',(0.02,-4.33680868994202E-19,-0.002));
#410=CARTESIAN_POINT('',(0.02,-0.002,-0.002));
#411=CARTESIAN_POINT('',(0.02,-0.002,-0.02));
#412=CARTESIAN_POINT('',(0.02,-0.002,-0.02));
#413=CARTESIAN_POINT('',(0.02,-4.33680868994202E-19,-0.02));
#414=CARTESIAN_POINT('',(0.0168796904080783,-4.33680868994202E-19,-0.0376961550602442));
#415=CARTESIAN_POINT('',(0.0168796904080783,-0.002,-0.0376961550602442));
#416=CARTESIAN_POINT('',(0.0168796904080783,-0.002,-0.0376961550602442));
#417=CARTESIAN_POINT('',(0.0168796904080783,-4.33680868994202E-19,-0.0376961550602442));
#418=CARTESIAN_POINT('',(0.0168796904080783,-4.33680868994202E-19,-0.0376961550602442));
#419=CARTESIAN_POINT('',(0.0168796904080783,-4.33680868994202E-19,-0.0376961550602442));
#420=CARTESIAN_POINT('',(-0.0168796904080783,-4.33680868994202E-19,-0.0376961550602442));
#421=CARTESIAN_POINT('',(-0.0168796904080783,-0.002,-0.0376961550602442));
#422=CARTESIAN_POINT('',(-0.0168796904080783,-0.002,-0.0376961550602442));
#423=CARTESIAN_POINT('',(-0.0168796904080783,-4.33680868994202E-19,-0.0376961550602442));
#424=CARTESIAN_POINT('',(-0.0168796904080783,-4.33680868994202E-19,-0.0376961550602442));
#425=CARTESIAN_POINT('',(-0.0168796904080783,-4.33680868994202E-19,-0.0376961550602442));
#426=CARTESIAN_POINT('',(-0.02,-4.33680868994202E-19,-0.02));
#427=CARTESIAN_POINT('',(-0.02,-0.002,-0.02));
#428=CARTESIAN_POINT('',(-0.02,-0.002,-0.02));
#429=CARTESIAN_POINT('',(-0.02,-4.33680868994202E-19,-0.02));
#430=CARTESIAN_POINT('',(-0.02,-4.33680868994202E-19,-0.02));
#431=CARTESIAN_POINT('',(-0.02,-4.33680868994202E-19,-0.02));
#432=CARTESIAN_POINT('',(-0.02,-4.33680868994202E-19,0.));
#433=CARTESIAN_POINT('',(-0.02,-0.002,0.));
#434=CARTESIAN_POINT('',(-0.02,-0.002,-0.002));
#435=CARTESIAN_POINT('',(-0.02,-4.33680868994202E-19,-0.002));
#436=CARTESIAN_POINT('',(-0.02,-4.33680868994202E-19,-0.002));
#437=CARTESIAN_POINT('',(-0.02,-4.33680868994202E-19,0.));
#438=CARTESIAN_POINT('',(0.,-4.33680868994202E-19,0.));
#439=CARTESIAN_POINT('',(0.01,1.7347234759768E-18,-0.01));
#440=CARTESIAN_POINT('',(0.013,1.7347234759768E-18,-0.01));
#441=CARTESIAN_POINT('',(-0.01,1.7347234759768E-18,-0.01));
#442=CARTESIAN_POINT('',(-0.007,1.7347234759768E-18,-0.01));
#443=CARTESIAN_POINT('',(-0.018,-4.33680868994202E-19,-0.002));
#444=CARTESIAN_POINT('',(0.018,-4.33680868994202E-19,-0.002));
#445=CARTESIAN_POINT('',(0.,-0.002,0.));
#446=CARTESIAN_POINT('',(0.01,-0.002,-0.01));
#447=CARTESIAN_POINT('',(0.0135,-0.002,-0.01));
#448=CARTESIAN_POINT('',(-0.01,-0.002,-0.01));
#449=CARTESIAN_POINT('',(-0.0065,-0.002,-0.01));
#450=CARTESIAN_POINT('',(-0.018,-0.002,-0.002));
#451=CARTESIAN_POINT('',(0.018,-0.002,-0.002));
#452=CARTESIAN_POINT('',(-0.01,-0.002,-0.01));
#453=CARTESIAN_POINT('',(-0.01,-0.001,-0.01));
#454=CARTESIAN_POINT('',(-0.007,-0.001,-0.01));
#455=CARTESIAN_POINT('',(-0.007,-0.001,-0.01));
#456=CARTESIAN_POINT('',(-0.01,-0.001,-0.01));
#457=CARTESIAN_POINT('',(-0.0065,-0.001,-0.01));
#458=CARTESIAN_POINT('',(-0.01,-0.002,-0.01));
#459=CARTESIAN_POINT('',(0.01,-0.002,-0.01));
#460=CARTESIAN_POINT('',(0.01,-0.001,-0.01));
#461=CARTESIAN_POINT('',(0.013,-0.001,-0.01));
#462=CARTESIAN_POINT('',(0.013,-0.001,-0.01));
#463=CARTESIAN_POINT('',(0.01,-0.001,-0.01));
#464=CARTESIAN_POINT('',(0.0135,-0.001,-0.01));
#465=CARTESIAN_POINT('',(0.01,-0.002,-0.01));
#466=CARTESIAN_POINT('',(-0.018,-4.33680868994202E-19,-0.002));
#467=CARTESIAN_POINT('',(0.018,-4.33680868994202E-19,-0.002));
#468=MECHANICAL_DESIGN_GEOMETRIC_PRESENTATION_REPRESENTATION('',(#277),
#469);
#469=(
GEOMETRIC_REPRESENTATION_CONTEXT(3)
GLOBAL_UNCERTAINTY_ASSIGNED_CONTEXT((#470))
GLOBAL_UNIT_ASSIGNED_CONTEXT((#473,#472,#471))
REPRESENTATION_CONTEXT('KP0003-01_FootPadBare',
'TOP_LEVEL_ASSEMBLY_PART')
);
#470=UNCERTAINTY_MEASURE_WITH_UNIT(LENGTH_MEASURE(1.E-8),#473,
'DISTANCE_ACCURACY_VALUE','Maximum Tolerance applied to model');
#471=(
NAMED_UNIT(*)
SI_UNIT($,.STERADIAN.)
SOLID_ANGLE_UNIT()
);
#472=(
NAMED_UNIT(*)
PLANE_ANGLE_UNIT()
SI_UNIT($,.RADIAN.)
);
#473=(
LENGTH_UNIT()
NAMED_UNIT(*)
SI_UNIT($,.METRE.)
);
#474=PRODUCT_DEFINITION_SHAPE('','',#475);
#475=PRODUCT_DEFINITION('','',#477,#476);
#476=PRODUCT_DEFINITION_CONTEXT('',#483,'design');
#477=PRODUCT_DEFINITION_FORMATION_WITH_SPECIFIED_SOURCE('','',#479,
 .NOT_KNOWN.);
#478=PRODUCT_RELATED_PRODUCT_CATEGORY('','',(#479));
#479=PRODUCT('KP0003-01_FootPadBare','KP0003-01_FootPadBare',
'KP0003-01_FootPadBare',(#481));
#480=PRODUCT_CATEGORY('','');
#481=PRODUCT_CONTEXT('',#483,'mechanical');
#482=APPLICATION_PROTOCOL_DEFINITION('international standard',
'automotive_design',2010,#483);
#483=APPLICATION_CONTEXT(
'core data for automotive mechanical design processes');
ENDSEC;
END-ISO-10303-21;
