ISO-10303-21;
HEADER;
/* Generated by software containing ST-Developer
 * from STEP Tools, Inc. (www.steptools.com) 
 */
/* OPTION: using custom renumber hook */

FILE_DESCRIPTION(
/* description */ ('STEP AP214',
'CAx-IF Rec.Pracs.---User Defined Attributes---1.5---2016-08-15'),
/* implementation_level */ '2;1');

FILE_NAME(
/* name */ '6a65b58f833ca6ec4e163c94',
/* time_stamp */ '2026-07-26T07:21:51Z',
/* author */ (''),
/* organization */ (''),
/* preprocessor_version */ 'ST-DEVELOPER v20',
/* originating_system */ 'ONSHAPE BY PTC INC, 1.218',
/* authorisation */ '  ');

FILE_SCHEMA (('AUTOMOTIVE_DESIGN {1 0 10303 214 3 1 1}'));
ENDSEC;

DATA;
#10=PROPERTY_DEFINITION_REPRESENTATION(#14,#12);
#11=PROPERTY_DEFINITION_REPRESENTATION(#15,#13);
#12=REPRESENTATION('',(#16),#359);
#13=REPRESENTATION('',(#17),#359);
#14=PROPERTY_DEFINITION('pmi validation property','',#364);
#15=PROPERTY_DEFINITION('pmi validation property','',#364);
#16=VALUE_REPRESENTATION_ITEM('number of annotations',COUNT_MEASURE(0.));
#17=VALUE_REPRESENTATION_ITEM('number of views',COUNT_MEASURE(0.));
#18=SHAPE_REPRESENTATION_RELATIONSHIP('','',#219,#19);
#19=ADVANCED_BREP_SHAPE_REPRESENTATION('',(#217),#359);
#20=CYLINDRICAL_SURFACE('',#227,0.0125);
#21=CYLINDRICAL_SURFACE('',#231,0.0075);
#22=LINE('',#307,#38);
#23=LINE('',#311,#39);
#24=LINE('',#316,#40);
#25=LINE('',#320,#41);
#26=LINE('',#324,#42);
#27=LINE('',#326,#43);
#28=LINE('',#330,#44);
#29=LINE('',#331,#45);
#30=LINE('',#337,#46);
#31=LINE('',#341,#47);
#32=LINE('',#342,#48);
#33=LINE('',#346,#49);
#34=LINE('',#349,#50);
#35=LINE('',#350,#51);
#36=LINE('',#354,#52);
#37=LINE('',#356,#53);
#38=VECTOR('',#248,1.);
#39=VECTOR('',#251,1.);
#40=VECTOR('',#256,1.);
#41=VECTOR('',#259,1.);
#42=VECTOR('',#264,1.);
#43=VECTOR('',#265,1.);
#44=VECTOR('',#268,1.);
#45=VECTOR('',#269,1.);
#46=VECTOR('',#276,1.);
#47=VECTOR('',#279,1.);
#48=VECTOR('',#280,1.);
#49=VECTOR('',#283,1.);
#50=VECTOR('',#288,1.);
#51=VECTOR('',#289,1.);
#52=VECTOR('',#296,1.);
#53=VECTOR('',#299,1.);
#54=ORIENTED_EDGE('',*,*,#106,.T.);
#55=ORIENTED_EDGE('',*,*,#107,.F.);
#56=ORIENTED_EDGE('',*,*,#108,.F.);
#57=ORIENTED_EDGE('',*,*,#109,.F.);
#58=ORIENTED_EDGE('',*,*,#110,.T.);
#59=ORIENTED_EDGE('',*,*,#111,.F.);
#60=ORIENTED_EDGE('',*,*,#112,.F.);
#61=ORIENTED_EDGE('',*,*,#113,.F.);
#62=ORIENTED_EDGE('',*,*,#114,.T.);
#63=ORIENTED_EDGE('',*,*,#115,.F.);
#64=ORIENTED_EDGE('',*,*,#106,.F.);
#65=ORIENTED_EDGE('',*,*,#116,.F.);
#66=ORIENTED_EDGE('',*,*,#117,.F.);
#67=ORIENTED_EDGE('',*,*,#118,.F.);
#68=ORIENTED_EDGE('',*,*,#110,.F.);
#69=ORIENTED_EDGE('',*,*,#119,.F.);
#70=ORIENTED_EDGE('',*,*,#120,.F.);
#71=ORIENTED_EDGE('',*,*,#121,.F.);
#72=ORIENTED_EDGE('',*,*,#108,.T.);
#73=ORIENTED_EDGE('',*,*,#122,.T.);
#74=ORIENTED_EDGE('',*,*,#123,.T.);
#75=ORIENTED_EDGE('',*,*,#124,.T.);
#76=ORIENTED_EDGE('',*,*,#112,.T.);
#77=ORIENTED_EDGE('',*,*,#125,.T.);
#78=ORIENTED_EDGE('',*,*,#126,.T.);
#79=ORIENTED_EDGE('',*,*,#127,.T.);
#80=ORIENTED_EDGE('',*,*,#114,.F.);
#81=ORIENTED_EDGE('',*,*,#121,.T.);
#82=ORIENTED_EDGE('',*,*,#117,.T.);
#83=ORIENTED_EDGE('',*,*,#128,.T.);
#84=ORIENTED_EDGE('',*,*,#126,.F.);
#85=ORIENTED_EDGE('',*,*,#129,.T.);
#86=ORIENTED_EDGE('',*,*,#118,.T.);
#87=ORIENTED_EDGE('',*,*,#129,.F.);
#88=ORIENTED_EDGE('',*,*,#125,.F.);
#89=ORIENTED_EDGE('',*,*,#111,.T.);
#90=ORIENTED_EDGE('',*,*,#116,.T.);
#91=ORIENTED_EDGE('',*,*,#109,.T.);
#92=ORIENTED_EDGE('',*,*,#127,.F.);
#93=ORIENTED_EDGE('',*,*,#128,.F.);
#94=ORIENTED_EDGE('',*,*,#115,.T.);
#95=ORIENTED_EDGE('',*,*,#130,.F.);
#96=ORIENTED_EDGE('',*,*,#122,.F.);
#97=ORIENTED_EDGE('',*,*,#107,.T.);
#98=ORIENTED_EDGE('',*,*,#119,.T.);
#99=ORIENTED_EDGE('',*,*,#113,.T.);
#100=ORIENTED_EDGE('',*,*,#124,.F.);
#101=ORIENTED_EDGE('',*,*,#131,.F.);
#102=ORIENTED_EDGE('',*,*,#120,.T.);
#103=ORIENTED_EDGE('',*,*,#131,.T.);
#104=ORIENTED_EDGE('',*,*,#123,.F.);
#105=ORIENTED_EDGE('',*,*,#130,.T.);
#106=EDGE_CURVE('',#132,#133,#150,.T.);
#107=EDGE_CURVE('',#134,#133,#22,.T.);
#108=EDGE_CURVE('',#135,#134,#151,.T.);
#109=EDGE_CURVE('',#132,#135,#23,.T.);
#110=EDGE_CURVE('',#136,#137,#152,.T.);
#111=EDGE_CURVE('',#138,#137,#24,.T.);
#112=EDGE_CURVE('',#139,#138,#153,.T.);
#113=EDGE_CURVE('',#136,#139,#25,.T.);
#114=EDGE_CURVE('',#140,#140,#154,.T.);
#115=EDGE_CURVE('',#133,#141,#26,.T.);
#116=EDGE_CURVE('',#142,#132,#27,.F.);
#117=EDGE_CURVE('',#143,#142,#155,.T.);
#118=EDGE_CURVE('',#137,#143,#28,.T.);
#119=EDGE_CURVE('',#144,#136,#29,.F.);
#120=EDGE_CURVE('',#141,#144,#156,.T.);
#121=EDGE_CURVE('',#145,#145,#157,.T.);
#122=EDGE_CURVE('',#134,#146,#30,.T.);
#123=EDGE_CURVE('',#146,#147,#158,.T.);
#124=EDGE_CURVE('',#147,#139,#31,.F.);
#125=EDGE_CURVE('',#138,#148,#32,.T.);
#126=EDGE_CURVE('',#148,#149,#159,.T.);
#127=EDGE_CURVE('',#149,#135,#33,.F.);
#128=EDGE_CURVE('',#142,#149,#34,.T.);
#129=EDGE_CURVE('',#148,#143,#35,.T.);
#130=EDGE_CURVE('',#146,#141,#36,.T.);
#131=EDGE_CURVE('',#144,#147,#37,.T.);
#132=VERTEX_POINT('',#305);
#133=VERTEX_POINT('',#306);
#134=VERTEX_POINT('',#308);
#135=VERTEX_POINT('',#310);
#136=VERTEX_POINT('',#314);
#137=VERTEX_POINT('',#315);
#138=VERTEX_POINT('',#317);
#139=VERTEX_POINT('',#319);
#140=VERTEX_POINT('',#323);
#141=VERTEX_POINT('',#325);
#142=VERTEX_POINT('',#327);
#143=VERTEX_POINT('',#329);
#144=VERTEX_POINT('',#332);
#145=VERTEX_POINT('',#336);
#146=VERTEX_POINT('',#338);
#147=VERTEX_POINT('',#340);
#148=VERTEX_POINT('',#343);
#149=VERTEX_POINT('',#345);
#150=CIRCLE('',#222,0.0125);
#151=CIRCLE('',#223,0.0075);
#152=CIRCLE('',#225,0.0125);
#153=CIRCLE('',#226,0.0075);
#154=CIRCLE('',#228,0.0125);
#155=CIRCLE('',#229,0.0125);
#156=CIRCLE('',#230,0.0125);
#157=CIRCLE('',#232,0.0075);
#158=CIRCLE('',#233,0.0075);
#159=CIRCLE('',#234,0.0075);
#160=EDGE_LOOP('',(#54,#55,#56,#57));
#161=EDGE_LOOP('',(#58,#59,#60,#61));
#162=EDGE_LOOP('',(#62));
#163=EDGE_LOOP('',(#63,#64,#65,#66,#67,#68,#69,#70));
#164=EDGE_LOOP('',(#71));
#165=EDGE_LOOP('',(#72,#73,#74,#75,#76,#77,#78,#79));
#166=EDGE_LOOP('',(#80));
#167=EDGE_LOOP('',(#81));
#168=EDGE_LOOP('',(#82,#83,#84,#85));
#169=EDGE_LOOP('',(#86,#87,#88,#89));
#170=EDGE_LOOP('',(#90,#91,#92,#93));
#171=EDGE_LOOP('',(#94,#95,#96,#97));
#172=EDGE_LOOP('',(#98,#99,#100,#101));
#173=EDGE_LOOP('',(#102,#103,#104,#105));
#174=FACE_BOUND('',#160,.T.);
#175=FACE_BOUND('',#161,.T.);
#176=FACE_BOUND('',#162,.T.);
#177=FACE_BOUND('',#163,.T.);
#178=FACE_BOUND('',#164,.T.);
#179=FACE_BOUND('',#165,.T.);
#180=FACE_BOUND('',#166,.T.);
#181=FACE_BOUND('',#167,.T.);
#182=FACE_BOUND('',#168,.T.);
#183=FACE_BOUND('',#169,.T.);
#184=FACE_BOUND('',#170,.T.);
#185=FACE_BOUND('',#171,.T.);
#186=FACE_BOUND('',#172,.T.);
#187=FACE_BOUND('',#173,.T.);
#188=PLANE('',#221);
#189=PLANE('',#224);
#190=PLANE('',#235);
#191=PLANE('',#236);
#192=PLANE('',#237);
#193=PLANE('',#238);
#194=PLANE('',#239);
#195=PLANE('',#240);
#196=PLANE('',#241);
#197=ADVANCED_FACE('',(#174),#188,.T.);
#198=ADVANCED_FACE('',(#175),#189,.T.);
#199=ADVANCED_FACE('',(#176,#177),#20,.T.);
#200=ADVANCED_FACE('',(#178,#179),#21,.F.);
#201=ADVANCED_FACE('',(#180,#181),#190,.F.);
#202=ADVANCED_FACE('',(#182),#191,.T.);
#203=ADVANCED_FACE('',(#183),#192,.T.);
#204=ADVANCED_FACE('',(#184),#193,.T.);
#205=ADVANCED_FACE('',(#185),#194,.T.);
#206=ADVANCED_FACE('',(#186),#195,.T.);
#207=ADVANCED_FACE('',(#187),#196,.T.);
#208=CLOSED_SHELL('',(#197,#198,#199,#200,#201,#202,#203,#204,#205,#206,
#207));
#209=STYLED_ITEM('',(#210),#217);
#210=PRESENTATION_STYLE_ASSIGNMENT((#211));
#211=SURFACE_STYLE_USAGE(.BOTH.,#212);
#212=SURFACE_SIDE_STYLE('',(#213));
#213=SURFACE_STYLE_FILL_AREA(#214);
#214=FILL_AREA_STYLE('',(#215));
#215=FILL_AREA_STYLE_COLOUR('',#216);
#216=COLOUR_RGB('',0.,0.752941176470588,0.);
#217=MANIFOLD_SOLID_BREP('KP0023-01_CamLeverCSF-14-XXX-2A-R',#208);
#218=SHAPE_DEFINITION_REPRESENTATION(#364,#219);
#219=SHAPE_REPRESENTATION('KP0023-01_CamLeverCSF-14-XXX-2A-R',(#220),#359);
#220=AXIS2_PLACEMENT_3D('',#302,#242,#243);
#221=AXIS2_PLACEMENT_3D('',#303,#244,#245);
#222=AXIS2_PLACEMENT_3D('',#304,#246,#247);
#223=AXIS2_PLACEMENT_3D('',#309,#249,#250);
#224=AXIS2_PLACEMENT_3D('',#312,#252,#253);
#225=AXIS2_PLACEMENT_3D('',#313,#254,#255);
#226=AXIS2_PLACEMENT_3D('',#318,#257,#258);
#227=AXIS2_PLACEMENT_3D('',#321,#260,#261);
#228=AXIS2_PLACEMENT_3D('',#322,#262,#263);
#229=AXIS2_PLACEMENT_3D('',#328,#266,#267);
#230=AXIS2_PLACEMENT_3D('',#333,#270,#271);
#231=AXIS2_PLACEMENT_3D('',#334,#272,#273);
#232=AXIS2_PLACEMENT_3D('',#335,#274,#275);
#233=AXIS2_PLACEMENT_3D('',#339,#277,#278);
#234=AXIS2_PLACEMENT_3D('',#344,#281,#282);
#235=AXIS2_PLACEMENT_3D('',#347,#284,#285);
#236=AXIS2_PLACEMENT_3D('',#348,#286,#287);
#237=AXIS2_PLACEMENT_3D('',#351,#290,#291);
#238=AXIS2_PLACEMENT_3D('',#352,#292,#293);
#239=AXIS2_PLACEMENT_3D('',#353,#294,#295);
#240=AXIS2_PLACEMENT_3D('',#355,#297,#298);
#241=AXIS2_PLACEMENT_3D('',#357,#300,#301);
#242=DIRECTION('',(0.,0.,1.));
#243=DIRECTION('',(1.,0.,0.));
#244=DIRECTION('',(0.,0.,1.));
#245=DIRECTION('',(0.,-1.,0.));
#246=DIRECTION('',(0.,0.,1.));
#247=DIRECTION('',(0.,-1.,0.));
#248=DIRECTION('',(1.,1.15648231731787E-16,0.));
#249=DIRECTION('',(0.,0.,1.));
#250=DIRECTION('',(0.,-1.,0.));
#251=DIRECTION('',(1.,1.15648231731787E-16,0.));
#252=DIRECTION('',(0.,0.,1.));
#253=DIRECTION('',(0.,-1.,0.));
#254=DIRECTION('',(0.,0.,1.));
#255=DIRECTION('',(0.,-1.,0.));
#256=DIRECTION('',(-1.,-1.3010426069826E-16,0.));
#257=DIRECTION('',(0.,0.,1.));
#258=DIRECTION('',(0.,-1.,0.));
#259=DIRECTION('',(-1.,-1.3010426069826E-16,0.));
#260=DIRECTION('',(0.,0.,-1.));
#261=DIRECTION('',(0.,1.,0.));
#262=DIRECTION('',(0.,0.,1.));
#263=DIRECTION('',(0.,-1.,0.));
#264=DIRECTION('',(0.,0.,-1.));
#265=DIRECTION('',(0.,0.,-1.));
#266=DIRECTION('',(0.,0.,1.));
#267=DIRECTION('',(0.,-1.,0.));
#268=DIRECTION('',(0.,0.,-1.));
#269=DIRECTION('',(0.,0.,-1.));
#270=DIRECTION('',(0.,0.,1.));
#271=DIRECTION('',(0.,-1.,0.));
#272=DIRECTION('',(0.,0.,-1.));
#273=DIRECTION('',(0.,1.,0.));
#274=DIRECTION('',(0.,0.,1.));
#275=DIRECTION('',(0.,-1.,0.));
#276=DIRECTION('',(0.,0.,-1.));
#277=DIRECTION('',(0.,0.,1.));
#278=DIRECTION('',(0.,-1.,0.));
#279=DIRECTION('',(0.,0.,-1.));
#280=DIRECTION('',(0.,0.,-1.));
#281=DIRECTION('',(0.,0.,1.));
#282=DIRECTION('',(0.,-1.,0.));
#283=DIRECTION('',(0.,0.,-1.));
#284=DIRECTION('',(0.,0.,1.));
#285=DIRECTION('',(0.,-1.,0.));
#286=DIRECTION('',(0.,0.,1.));
#287=DIRECTION('',(0.,-1.,0.));
#288=DIRECTION('',(1.,1.15648231731787E-16,0.));
#289=DIRECTION('',(-1.,-1.3010426069826E-16,0.));
#290=DIRECTION('',(1.3010426069826E-16,-1.,0.));
#291=DIRECTION('',(1.,1.3010426069826E-16,0.));
#292=DIRECTION('',(-1.15648231731787E-16,1.,0.));
#293=DIRECTION('',(-1.,-1.15648231731787E-16,0.));
#294=DIRECTION('',(-1.15648231731787E-16,1.,0.));
#295=DIRECTION('',(-1.,-1.15648231731787E-16,0.));
#296=DIRECTION('',(1.,1.15648231731787E-16,0.));
#297=DIRECTION('',(1.3010426069826E-16,-1.,0.));
#298=DIRECTION('',(1.,1.3010426069826E-16,0.));
#299=DIRECTION('',(-1.,-1.3010426069826E-16,0.));
#300=DIRECTION('',(0.,0.,1.));
#301=DIRECTION('',(0.,-1.,0.));
#302=CARTESIAN_POINT('',(0.,0.,0.));
#303=CARTESIAN_POINT('',(0.,0.,0.0025));
#304=CARTESIAN_POINT('',(0.,0.,0.0025));
#305=CARTESIAN_POINT('',(-0.0122474487139159,-0.0025,0.0025));
#306=CARTESIAN_POINT('',(0.0122474487139159,-0.0025,0.0025));
#307=CARTESIAN_POINT('',(0.015,-0.0025,0.0025));
#308=CARTESIAN_POINT('',(0.00707106781186548,-0.0025,0.0025));
#309=CARTESIAN_POINT('',(0.,0.,0.0025));
#310=CARTESIAN_POINT('',(-0.00707106781186548,-0.0025,0.0025));
#311=CARTESIAN_POINT('',(0.015,-0.0025,0.0025));
#312=CARTESIAN_POINT('',(0.,0.,0.0025));
#313=CARTESIAN_POINT('',(0.,0.,0.0025));
#314=CARTESIAN_POINT('',(0.0122474487139159,0.0025,0.0025));
#315=CARTESIAN_POINT('',(-0.0122474487139159,0.0025,0.0025));
#316=CARTESIAN_POINT('',(0.015,0.0025,0.0025));
#317=CARTESIAN_POINT('',(-0.00707106781186548,0.0025,0.0025));
#318=CARTESIAN_POINT('',(0.,0.,0.0025));
#319=CARTESIAN_POINT('',(0.00707106781186548,0.0025,0.0025));
#320=CARTESIAN_POINT('',(0.015,0.0025,0.0025));
#321=CARTESIAN_POINT('',(0.,0.,0.0025));
#322=CARTESIAN_POINT('',(0.,0.,-0.0025));
#323=CARTESIAN_POINT('',(0.,-0.0125,-0.0025));
#324=CARTESIAN_POINT('',(0.0122474487139159,-0.0025,0.0025));
#325=CARTESIAN_POINT('',(0.0122474487139159,-0.0025,0.));
#326=CARTESIAN_POINT('',(-0.0122474487139159,-0.0025,0.0025));
#327=CARTESIAN_POINT('',(-0.0122474487139159,-0.0025,0.));
#328=CARTESIAN_POINT('',(0.,0.,0.));
#329=CARTESIAN_POINT('',(-0.0122474487139159,0.0025,0.));
#330=CARTESIAN_POINT('',(-0.0122474487139159,0.0025,0.0025));
#331=CARTESIAN_POINT('',(0.0122474487139159,0.0025,0.0025));
#332=CARTESIAN_POINT('',(0.0122474487139159,0.0025,0.));
#333=CARTESIAN_POINT('',(0.,0.,0.));
#334=CARTESIAN_POINT('',(0.,0.,0.0025));
#335=CARTESIAN_POINT('',(0.,0.,-0.0025));
#336=CARTESIAN_POINT('',(0.,-0.0075,-0.0025));
#337=CARTESIAN_POINT('',(0.00707106781186548,-0.0025,0.0025));
#338=CARTESIAN_POINT('',(0.00707106781186548,-0.0025,0.));
#339=CARTESIAN_POINT('',(0.,0.,0.));
#340=CARTESIAN_POINT('',(0.00707106781186548,0.0025,0.));
#341=CARTESIAN_POINT('',(0.00707106781186548,0.0025,0.0025));
#342=CARTESIAN_POINT('',(-0.00707106781186548,0.0025,0.0025));
#343=CARTESIAN_POINT('',(-0.00707106781186548,0.0025,0.));
#344=CARTESIAN_POINT('',(0.,0.,0.));
#345=CARTESIAN_POINT('',(-0.00707106781186548,-0.0025,0.));
#346=CARTESIAN_POINT('',(-0.00707106781186548,-0.0025,0.0025));
#347=CARTESIAN_POINT('',(0.,0.,-0.0025));
#348=CARTESIAN_POINT('',(0.,0.,0.));
#349=CARTESIAN_POINT('',(0.015,-0.0025,0.));
#350=CARTESIAN_POINT('',(0.015,0.0025,0.));
#351=CARTESIAN_POINT('',(0.015,0.0025,0.0025));
#352=CARTESIAN_POINT('',(0.015,-0.0025,0.0025));
#353=CARTESIAN_POINT('',(0.015,-0.0025,0.0025));
#354=CARTESIAN_POINT('',(0.015,-0.0025,0.));
#355=CARTESIAN_POINT('',(0.015,0.0025,0.0025));
#356=CARTESIAN_POINT('',(0.015,0.0025,0.));
#357=CARTESIAN_POINT('',(0.,0.,0.));
#358=MECHANICAL_DESIGN_GEOMETRIC_PRESENTATION_REPRESENTATION('',(#209),
#359);
#359=(
GEOMETRIC_REPRESENTATION_CONTEXT(3)
GLOBAL_UNCERTAINTY_ASSIGNED_CONTEXT((#360))
GLOBAL_UNIT_ASSIGNED_CONTEXT((#363,#362,#361))
REPRESENTATION_CONTEXT('KP0023-01_CamLeverCSF-14-XXX-2A-R',
'TOP_LEVEL_ASSEMBLY_PART')
);
#360=UNCERTAINTY_MEASURE_WITH_UNIT(LENGTH_MEASURE(1.E-8),#363,
'DISTANCE_ACCURACY_VALUE','Maximum Tolerance applied to model');
#361=(
NAMED_UNIT(*)
SI_UNIT($,.STERADIAN.)
SOLID_ANGLE_UNIT()
);
#362=(
NAMED_UNIT(*)
PLANE_ANGLE_UNIT()
SI_UNIT($,.RADIAN.)
);
#363=(
LENGTH_UNIT()
NAMED_UNIT(*)
SI_UNIT($,.METRE.)
);
#364=PRODUCT_DEFINITION_SHAPE('','',#365);
#365=PRODUCT_DEFINITION('','',#367,#366);
#366=PRODUCT_DEFINITION_CONTEXT('',#373,'design');
#367=PRODUCT_DEFINITION_FORMATION_WITH_SPECIFIED_SOURCE('','',#369,
 .NOT_KNOWN.);
#368=PRODUCT_RELATED_PRODUCT_CATEGORY('','',(#369));
#369=PRODUCT('KP0023-01_CamLeverCSF-14-XXX-2A-R',
'KP0023-01_CamLeverCSF-14-XXX-2A-R','KP0023-01_CamLeverCSF-14-XXX-2A-R',
(#371));
#370=PRODUCT_CATEGORY('','');
#371=PRODUCT_CONTEXT('',#373,'mechanical');
#372=APPLICATION_PROTOCOL_DEFINITION('international standard',
'automotive_design',2010,#373);
#373=APPLICATION_CONTEXT(
'core data for automotive mechanical design processes');
ENDSEC;
END-ISO-10303-21;
