ISO-10303-21;
HEADER;
/* Generated by software containing ST-Developer
 * from STEP Tools, Inc. (www.steptools.com) 
 */
/* OPTION: using custom renumber hook */

FILE_DESCRIPTION(
/* description */ ('STEP AP214',
'CAx-IF Rec.Pracs.---User Defined Attributes---1.5---2016-08-15'),
/* implementation_level */ '2;1');

FILE_NAME(
/* name */ '6a65b52765321e5002a5677f',
/* time_stamp */ '2026-07-26T07:20:07Z',
/* author */ (''),
/* organization */ (''),
/* preprocessor_version */ 'ST-DEVELOPER v20',
/* originating_system */ 'ONSHAPE BY PTC INC, 1.218',
/* authorisation */ '  ');

FILE_SCHEMA (('AUTOMOTIVE_DESIGN {1 0 10303 214 3 1 1}'));
ENDSEC;

DATA;
#10=PROPERTY_DEFINITION_REPRESENTATION(#14,#12);
#11=PROPERTY_DEFINITION_REPRESENTATION(#15,#13);
#12=REPRESENTATION('',(#16),#481);
#13=REPRESENTATION('',(#17),#481);
#14=PROPERTY_DEFINITION('pmi validation property','',#486);
#15=PROPERTY_DEFINITION('pmi validation property','',#486);
#16=VALUE_REPRESENTATION_ITEM('number of annotations',COUNT_MEASURE(0.));
#17=VALUE_REPRESENTATION_ITEM('number of views',COUNT_MEASURE(0.));
#18=SHAPE_REPRESENTATION_RELATIONSHIP('','',#207,#19);
#19=ADVANCED_BREP_SHAPE_REPRESENTATION('',(#205),#481);
#20=PLANE('',#214);
#21=PLANE('',#216);
#22=PLANE('',#222);
#23=PLANE('',#224);
#24=PLANE('',#230);
#25=PLANE('',#231);
#26=B_SPLINE_CURVE_WITH_KNOTS('',3,(#302,#303,#304,#305,#306,#307,#308,
#309,#310,#311,#312,#313,#314,#315,#316,#317,#318,#319,#320,#321,#322,#323,
#324,#325,#326,#327,#328,#329,#330,#331,#332,#333,#334,#335,#336),
 .UNSPECIFIED.,.T.,.F.,(1,1,1,1,1,1,1,1,1,1,1,1,1,1,1,1,1,1,1,1,1,1,1,1,
1,1,1,1,1,1,1,1,1,1,1,1,1,1,1),(-0.0953947368421053,-0.0641447368421053,
-0.0328947368421053,0.,0.0296875,0.060859375,0.09210546875,0.1233552734375,
0.154605263671875,0.185855263183594,0.21710526315918,0.248355263157959,
0.279605263157898,0.310855263157895,0.342105263157895,0.373355263157895,
0.404605263157895,0.435855263157895,0.467105263157895,0.498355263157895,
0.529605263157895,0.560855263157895,0.592105263157895,0.623355263157895,
0.654605263157895,0.685855263157895,0.717105263157895,0.748355263157895,
0.779605263157895,0.810855263157895,0.842105263157895,0.873355263157895,
0.904605263157895,0.935855263157895,0.967105263157895,1.,1.0296875,1.060859375,
1.09210546875),.UNSPECIFIED.);
#27=B_SPLINE_CURVE_WITH_KNOTS('',3,(#339,#340,#341,#342,#343,#344,#345,
#346,#347,#348,#349,#350,#351,#352,#353,#354,#355,#356,#357,#358,#359,#360,
#361,#362,#363,#364,#365,#366,#367,#368,#369,#370,#371,#372,#373),
 .UNSPECIFIED.,.T.,.F.,(1,1,1,1,1,1,1,1,1,1,1,1,1,1,1,1,1,1,1,1,1,1,1,1,
1,1,1,1,1,1,1,1,1,1,1,1,1,1,1),(-0.0953947368421053,-0.0641447368421053,
-0.0328947368421053,0.,0.0296875,0.060859375,0.09210546875,0.1233552734375,
0.154605263671875,0.185855263183594,0.21710526315918,0.248355263157959,
0.279605263157898,0.310855263157895,0.342105263157895,0.373355263157895,
0.404605263157895,0.435855263157895,0.467105263157895,0.498355263157895,
0.529605263157895,0.560855263157895,0.592105263157895,0.623355263157895,
0.654605263157895,0.685855263157895,0.717105263157895,0.748355263157895,
0.779605263157895,0.810855263157895,0.842105263157895,0.873355263157895,
0.904605263157895,0.935855263157895,0.967105263157895,1.,1.0296875,1.060859375,
1.09210546875),.UNSPECIFIED.);
#28=B_SPLINE_CURVE_WITH_KNOTS('',3,(#400,#401,#402,#403,#404,#405,#406,
#407,#408,#409,#410,#411,#412,#413,#414,#415,#416,#417,#418,#419,#420,#421,
#422,#423,#424,#425,#426,#427,#428,#429,#430,#431,#432,#433,#434),
 .UNSPECIFIED.,.T.,.F.,(1,1,1,1,1,1,1,1,1,1,1,1,1,1,1,1,1,1,1,1,1,1,1,1,
1,1,1,1,1,1,1,1,1,1,1,1,1,1,1),(-0.0953949419202336,-0.0641447470960117,
-0.0320723735480059,0.,0.0296875,0.059375,0.09203125,0.1233515625,0.154605078125,
0.18585525390625,0.216324008300781,0.246792762695313,0.278003700415039,
0.309214638134766,0.342023231906738,0.373351161595337,0.404605058079767,
0.435855252903988,0.466324007774594,0.496792762645199,0.52800370038873,
0.55921463813226,0.592023231906613,0.623351161595331,0.654605058079767,
0.685855252903988,0.716324007774594,0.746792762645199,0.77800370038873,
0.80921463813226,0.842023231906613,0.873351161595331,0.904605058079766,
0.935855252903988,0.967927626451994,1.,1.0296875,1.059375,1.09203125),
 .UNSPECIFIED.);
#29=B_SPLINE_CURVE_WITH_KNOTS('',3,(#437,#438,#439,#440,#441,#442,#443,
#444,#445,#446,#447,#448,#449,#450,#451,#452,#453,#454,#455,#456,#457,#458,
#459,#460,#461,#462,#463,#464,#465,#466,#467,#468,#469,#470,#471),
 .UNSPECIFIED.,.T.,.F.,(1,1,1,1,1,1,1,1,1,1,1,1,1,1,1,1,1,1,1,1,1,1,1,1,
1,1,1,1,1,1,1,1,1,1,1,1,1,1,1),(-0.0953949419202336,-0.0641447470960117,
-0.0320723735480059,0.,0.0296875,0.059375,0.09203125,0.1233515625,0.154605078125,
0.18585525390625,0.216324008300781,0.246792762695313,0.278003700415039,
0.309214638134766,0.342023231906738,0.373351161595337,0.404605058079767,
0.435855252903988,0.466324007774594,0.496792762645199,0.52800370038873,
0.55921463813226,0.592023231906613,0.623351161595331,0.654605058079767,
0.685855252903988,0.716324007774594,0.746792762645199,0.77800370038873,
0.80921463813226,0.842023231906613,0.873351161595331,0.904605058079766,
0.935855252903988,0.967927626451994,1.,1.0296875,1.059375,1.09203125),
 .UNSPECIFIED.);
#30=TOROIDAL_SURFACE('',#212,0.0059,9.99999999999999E-5);
#31=TOROIDAL_SURFACE('',#213,0.0059,0.0001);
#32=TOROIDAL_SURFACE('',#232,0.0041,9.99999999999999E-5);
#33=TOROIDAL_SURFACE('',#234,0.0041,0.0001);
#34=ORIENTED_EDGE('',*,*,#66,.T.);
#35=ORIENTED_EDGE('',*,*,#67,.T.);
#36=ORIENTED_EDGE('',*,*,#68,.T.);
#37=ORIENTED_EDGE('',*,*,#66,.F.);
#38=ORIENTED_EDGE('',*,*,#67,.F.);
#39=ORIENTED_EDGE('',*,*,#69,.T.);
#40=ORIENTED_EDGE('',*,*,#70,.T.);
#41=ORIENTED_EDGE('',*,*,#68,.F.);
#42=ORIENTED_EDGE('',*,*,#69,.F.);
#43=ORIENTED_EDGE('',*,*,#71,.T.);
#44=ORIENTED_EDGE('',*,*,#72,.F.);
#45=ORIENTED_EDGE('',*,*,#70,.F.);
#46=ORIENTED_EDGE('',*,*,#71,.F.);
#47=ORIENTED_EDGE('',*,*,#73,.F.);
#48=ORIENTED_EDGE('',*,*,#74,.T.);
#49=ORIENTED_EDGE('',*,*,#72,.T.);
#50=ORIENTED_EDGE('',*,*,#73,.T.);
#51=ORIENTED_EDGE('',*,*,#75,.T.);
#52=ORIENTED_EDGE('',*,*,#76,.T.);
#53=ORIENTED_EDGE('',*,*,#74,.F.);
#54=ORIENTED_EDGE('',*,*,#75,.F.);
#55=ORIENTED_EDGE('',*,*,#77,.T.);
#56=ORIENTED_EDGE('',*,*,#78,.T.);
#57=ORIENTED_EDGE('',*,*,#76,.F.);
#58=ORIENTED_EDGE('',*,*,#77,.F.);
#59=ORIENTED_EDGE('',*,*,#79,.T.);
#60=ORIENTED_EDGE('',*,*,#80,.T.);
#61=ORIENTED_EDGE('',*,*,#78,.F.);
#62=ORIENTED_EDGE('',*,*,#79,.F.);
#63=ORIENTED_EDGE('',*,*,#81,.T.);
#64=ORIENTED_EDGE('',*,*,#81,.F.);
#65=ORIENTED_EDGE('',*,*,#80,.F.);
#66=EDGE_CURVE('',#82,#82,#98,.T.);
#67=EDGE_CURVE('',#83,#83,#99,.F.);
#68=EDGE_CURVE('',#84,#84,#26,.F.);
#69=EDGE_CURVE('',#85,#85,#27,.F.);
#70=EDGE_CURVE('',#86,#86,#100,.T.);
#71=EDGE_CURVE('',#87,#87,#101,.F.);
#72=EDGE_CURVE('',#88,#88,#102,.F.);
#73=EDGE_CURVE('',#89,#89,#103,.T.);
#74=EDGE_CURVE('',#90,#90,#104,.T.);
#75=EDGE_CURVE('',#91,#91,#105,.F.);
#76=EDGE_CURVE('',#92,#92,#106,.T.);
#77=EDGE_CURVE('',#93,#93,#107,.F.);
#78=EDGE_CURVE('',#94,#94,#28,.T.);
#79=EDGE_CURVE('',#95,#95,#29,.T.);
#80=EDGE_CURVE('',#96,#96,#108,.F.);
#81=EDGE_CURVE('',#97,#97,#109,.T.);
#82=VERTEX_POINT('',#298);
#83=VERTEX_POINT('',#300);
#84=VERTEX_POINT('',#337);
#85=VERTEX_POINT('',#374);
#86=VERTEX_POINT('',#377);
#87=VERTEX_POINT('',#380);
#88=VERTEX_POINT('',#383);
#89=VERTEX_POINT('',#386);
#90=VERTEX_POINT('',#389);
#91=VERTEX_POINT('',#392);
#92=VERTEX_POINT('',#395);
#93=VERTEX_POINT('',#398);
#94=VERTEX_POINT('',#435);
#95=VERTEX_POINT('',#472);
#96=VERTEX_POINT('',#475);
#97=VERTEX_POINT('',#478);
#98=CIRCLE('',#210,0.006);
#99=CIRCLE('',#211,0.006);
#100=CIRCLE('',#215,0.0056);
#101=CIRCLE('',#217,0.0056);
#102=CIRCLE('',#219,0.0056);
#103=CIRCLE('',#221,0.0056);
#104=CIRCLE('',#223,0.00455);
#105=CIRCLE('',#225,0.00455);
#106=CIRCLE('',#227,0.00455);
#107=CIRCLE('',#229,0.00455);
#108=CIRCLE('',#233,0.004);
#109=CIRCLE('',#235,0.004);
#110=EDGE_LOOP('',(#34));
#111=EDGE_LOOP('',(#35));
#112=EDGE_LOOP('',(#36));
#113=EDGE_LOOP('',(#37));
#114=EDGE_LOOP('',(#38));
#115=EDGE_LOOP('',(#39));
#116=EDGE_LOOP('',(#40));
#117=EDGE_LOOP('',(#41));
#118=EDGE_LOOP('',(#42));
#119=EDGE_LOOP('',(#43));
#120=EDGE_LOOP('',(#44));
#121=EDGE_LOOP('',(#45));
#122=EDGE_LOOP('',(#46));
#123=EDGE_LOOP('',(#47));
#124=EDGE_LOOP('',(#48));
#125=EDGE_LOOP('',(#49));
#126=EDGE_LOOP('',(#50));
#127=EDGE_LOOP('',(#51));
#128=EDGE_LOOP('',(#52));
#129=EDGE_LOOP('',(#53));
#130=EDGE_LOOP('',(#54));
#131=EDGE_LOOP('',(#55));
#132=EDGE_LOOP('',(#56));
#133=EDGE_LOOP('',(#57));
#134=EDGE_LOOP('',(#58));
#135=EDGE_LOOP('',(#59));
#136=EDGE_LOOP('',(#60));
#137=EDGE_LOOP('',(#61));
#138=EDGE_LOOP('',(#62));
#139=EDGE_LOOP('',(#63));
#140=EDGE_LOOP('',(#64));
#141=EDGE_LOOP('',(#65));
#142=FACE_BOUND('',#110,.T.);
#143=FACE_BOUND('',#111,.T.);
#144=FACE_BOUND('',#112,.T.);
#145=FACE_BOUND('',#113,.T.);
#146=FACE_BOUND('',#114,.T.);
#147=FACE_BOUND('',#115,.T.);
#148=FACE_BOUND('',#116,.T.);
#149=FACE_BOUND('',#117,.T.);
#150=FACE_BOUND('',#118,.T.);
#151=FACE_BOUND('',#119,.T.);
#152=FACE_BOUND('',#120,.T.);
#153=FACE_BOUND('',#121,.T.);
#154=FACE_BOUND('',#122,.T.);
#155=FACE_BOUND('',#123,.T.);
#156=FACE_BOUND('',#124,.T.);
#157=FACE_BOUND('',#125,.T.);
#158=FACE_BOUND('',#126,.T.);
#159=FACE_BOUND('',#127,.T.);
#160=FACE_BOUND('',#128,.T.);
#161=FACE_BOUND('',#129,.T.);
#162=FACE_BOUND('',#130,.T.);
#163=FACE_BOUND('',#131,.T.);
#164=FACE_BOUND('',#132,.T.);
#165=FACE_BOUND('',#133,.T.);
#166=FACE_BOUND('',#134,.T.);
#167=FACE_BOUND('',#135,.T.);
#168=FACE_BOUND('',#136,.T.);
#169=FACE_BOUND('',#137,.T.);
#170=FACE_BOUND('',#138,.T.);
#171=FACE_BOUND('',#139,.T.);
#172=FACE_BOUND('',#140,.T.);
#173=FACE_BOUND('',#141,.T.);
#174=CYLINDRICAL_SURFACE('',#209,0.006);
#175=CYLINDRICAL_SURFACE('',#218,0.0056);
#176=CYLINDRICAL_SURFACE('',#220,0.0056);
#177=CYLINDRICAL_SURFACE('',#226,0.00455);
#178=CYLINDRICAL_SURFACE('',#228,0.00455);
#179=CYLINDRICAL_SURFACE('',#236,0.004);
#180=ADVANCED_FACE('',(#142,#143),#174,.T.);
#181=ADVANCED_FACE('',(#144,#145),#30,.T.);
#182=ADVANCED_FACE('',(#146,#147),#31,.T.);
#183=ADVANCED_FACE('',(#148,#149),#20,.T.);
#184=ADVANCED_FACE('',(#150,#151),#21,.T.);
#185=ADVANCED_FACE('',(#152,#153),#175,.F.);
#186=ADVANCED_FACE('',(#154,#155),#176,.F.);
#187=ADVANCED_FACE('',(#156,#157),#22,.T.);
#188=ADVANCED_FACE('',(#158,#159),#23,.T.);
#189=ADVANCED_FACE('',(#160,#161),#177,.T.);
#190=ADVANCED_FACE('',(#162,#163),#178,.T.);
#191=ADVANCED_FACE('',(#164,#165),#24,.T.);
#192=ADVANCED_FACE('',(#166,#167),#25,.T.);
#193=ADVANCED_FACE('',(#168,#169),#32,.T.);
#194=ADVANCED_FACE('',(#170,#171),#33,.T.);
#195=ADVANCED_FACE('',(#172,#173),#179,.F.);
#196=CLOSED_SHELL('',(#180,#181,#182,#183,#184,#185,#186,#187,#188,#189,
#190,#191,#192,#193,#194,#195));
#197=STYLED_ITEM('',(#198),#205);
#198=PRESENTATION_STYLE_ASSIGNMENT((#199));
#199=SURFACE_STYLE_USAGE(.BOTH.,#200);
#200=SURFACE_SIDE_STYLE('',(#201));
#201=SURFACE_STYLE_FILL_AREA(#202);
#202=FILL_AREA_STYLE('',(#203));
#203=FILL_AREA_STYLE_COLOUR('',#204);
#204=COLOUR_RGB('',0.792156862745098,0.819607843137255,0.933333333333333);
#205=MANIFOLD_SOLID_BREP('KP0062-01_B678ZZ_2_03',#196);
#206=SHAPE_DEFINITION_REPRESENTATION(#486,#207);
#207=SHAPE_REPRESENTATION('KP0062-01_B678ZZ_2_03',(#208),#481);
#208=AXIS2_PLACEMENT_3D('',#295,#237,#238);
#209=AXIS2_PLACEMENT_3D('',#296,#239,#240);
#210=AXIS2_PLACEMENT_3D('',#297,#241,#242);
#211=AXIS2_PLACEMENT_3D('',#299,#243,#244);
#212=AXIS2_PLACEMENT_3D('',#301,#245,#246);
#213=AXIS2_PLACEMENT_3D('',#338,#247,#248);
#214=AXIS2_PLACEMENT_3D('',#375,#249,#250);
#215=AXIS2_PLACEMENT_3D('',#376,#251,#252);
#216=AXIS2_PLACEMENT_3D('',#378,#253,#254);
#217=AXIS2_PLACEMENT_3D('',#379,#255,#256);
#218=AXIS2_PLACEMENT_3D('',#381,#257,#258);
#219=AXIS2_PLACEMENT_3D('',#382,#259,#260);
#220=AXIS2_PLACEMENT_3D('',#384,#261,#262);
#221=AXIS2_PLACEMENT_3D('',#385,#263,#264);
#222=AXIS2_PLACEMENT_3D('',#387,#265,#266);
#223=AXIS2_PLACEMENT_3D('',#388,#267,#268);
#224=AXIS2_PLACEMENT_3D('',#390,#269,#270);
#225=AXIS2_PLACEMENT_3D('',#391,#271,#272);
#226=AXIS2_PLACEMENT_3D('',#393,#273,#274);
#227=AXIS2_PLACEMENT_3D('',#394,#275,#276);
#228=AXIS2_PLACEMENT_3D('',#396,#277,#278);
#229=AXIS2_PLACEMENT_3D('',#397,#279,#280);
#230=AXIS2_PLACEMENT_3D('',#399,#281,#282);
#231=AXIS2_PLACEMENT_3D('',#436,#283,#284);
#232=AXIS2_PLACEMENT_3D('',#473,#285,#286);
#233=AXIS2_PLACEMENT_3D('',#474,#287,#288);
#234=AXIS2_PLACEMENT_3D('',#476,#289,#290);
#235=AXIS2_PLACEMENT_3D('',#477,#291,#292);
#236=AXIS2_PLACEMENT_3D('',#479,#293,#294);
#237=DIRECTION('',(0.,0.,1.));
#238=DIRECTION('',(1.,0.,0.));
#239=DIRECTION('',(-1.,0.,0.));
#240=DIRECTION('',(0.,-1.,0.));
#241=DIRECTION('',(-1.,0.,0.));
#242=DIRECTION('',(0.,-1.,0.));
#243=DIRECTION('',(-1.,0.,0.));
#244=DIRECTION('',(0.,-1.,0.));
#245=DIRECTION('',(1.,0.,0.));
#246=DIRECTION('',(0.,1.,0.));
#247=DIRECTION('',(1.,0.,0.));
#248=DIRECTION('',(0.,1.,0.));
#249=DIRECTION('',(1.,0.,0.));
#250=DIRECTION('',(0.,1.,0.));
#251=DIRECTION('',(-1.,0.,0.));
#252=DIRECTION('',(0.,-1.,0.));
#253=DIRECTION('',(-1.,0.,0.));
#254=DIRECTION('',(0.,-1.,0.));
#255=DIRECTION('',(-1.,0.,0.));
#256=DIRECTION('',(0.,-1.,0.));
#257=DIRECTION('',(-1.,0.,0.));
#258=DIRECTION('',(0.,-1.,0.));
#259=DIRECTION('',(-1.,0.,0.));
#260=DIRECTION('',(0.,-1.,0.));
#261=DIRECTION('',(-1.,0.,0.));
#262=DIRECTION('',(0.,-1.,0.));
#263=DIRECTION('',(-1.,0.,0.));
#264=DIRECTION('',(0.,-1.,0.));
#265=DIRECTION('',(1.,0.,0.));
#266=DIRECTION('',(0.,1.,0.));
#267=DIRECTION('',(-1.,0.,0.));
#268=DIRECTION('',(0.,-1.,0.));
#269=DIRECTION('',(-1.,0.,0.));
#270=DIRECTION('',(0.,-1.,0.));
#271=DIRECTION('',(-1.,0.,0.));
#272=DIRECTION('',(0.,-1.,0.));
#273=DIRECTION('',(-1.,0.,0.));
#274=DIRECTION('',(0.,-1.,0.));
#275=DIRECTION('',(-1.,0.,0.));
#276=DIRECTION('',(0.,-1.,0.));
#277=DIRECTION('',(-1.,0.,0.));
#278=DIRECTION('',(0.,-1.,0.));
#279=DIRECTION('',(-1.,0.,0.));
#280=DIRECTION('',(0.,-1.,0.));
#281=DIRECTION('',(1.,0.,0.));
#282=DIRECTION('',(0.,1.,0.));
#283=DIRECTION('',(-1.,0.,0.));
#284=DIRECTION('',(0.,-1.,0.));
#285=DIRECTION('',(1.,0.,0.));
#286=DIRECTION('',(0.,1.,0.));
#287=DIRECTION('',(1.,0.,0.));
#288=DIRECTION('',(0.,1.,0.));
#289=DIRECTION('',(1.,0.,0.));
#290=DIRECTION('',(0.,1.,0.));
#291=DIRECTION('',(1.,0.,0.));
#292=DIRECTION('',(0.,1.,0.));
#293=DIRECTION('',(-1.,0.,0.));
#294=DIRECTION('',(0.,-1.,0.));
#295=CARTESIAN_POINT('',(0.,0.,0.));
#296=CARTESIAN_POINT('',(0.0034,0.,0.));
#297=CARTESIAN_POINT('',(0.0034,0.,0.));
#298=CARTESIAN_POINT('',(0.0034,0.006,7.34788079488412E-19));
#299=CARTESIAN_POINT('',(0.0001,0.,0.));
#300=CARTESIAN_POINT('',(0.0001,0.006,7.34788079488412E-19));
#301=CARTESIAN_POINT('',(0.0034,0.,0.));
#302=CARTESIAN_POINT('',(0.0035,0.00583281459326709,-0.00110654535375429));
#303=CARTESIAN_POINT('',(0.0035,0.0059310663479205,-3.58393724298102E-5));
#304=CARTESIAN_POINT('',(0.0035,0.00584257337603243,0.00102986531123556));
#305=CARTESIAN_POINT('',(0.0035,0.00554658435634976,0.00212335050830287));
#306=CARTESIAN_POINT('',(0.0035,0.00500991863746413,0.00319394561918133));
#307=CARTESIAN_POINT('',(0.0035,0.00424783386779575,0.00415586875630188));
#308=CARTESIAN_POINT('',(0.0035,0.00330171462801829,0.00493978905220049));
#309=CARTESIAN_POINT('',(0.0035,0.00223843509399909,0.00550163823588793));
#310=CARTESIAN_POINT('',(0.0035,0.0011257022152995,0.00582718319050959));
#311=CARTESIAN_POINT('',(0.0035,5.65332140174391E-5,0.00593080596605986));
#312=CARTESIAN_POINT('',(0.0035,-0.00100978871438882,0.0058479267114476));
#313=CARTESIAN_POINT('',(0.0035,-0.00212223121663267,0.00554709869363183));
#314=CARTESIAN_POINT('',(0.0035,-0.00319393526406229,0.00500994711370821));
#315=CARTESIAN_POINT('',(0.0035,-0.00415585775341233,0.00424783777930682));
#316=CARTESIAN_POINT('',(0.0035,-0.00493979144630327,0.00330171428588491));
#317=CARTESIAN_POINT('',(0.0035,-0.00550163757490099,0.00223843522495719));
#318=CARTESIAN_POINT('',(0.0035,-0.00582718336707665,0.001125702182242));
#319=CARTESIAN_POINT('',(0.0035,-0.0059308059187414,5.65332229734424E-5));
#320=CARTESIAN_POINT('',(0.0035,-0.00584792672412776,-0.0010097887167869));
#321=CARTESIAN_POINT('',(0.0035,-0.00554709869023161,-0.00212223121597762));
#322=CARTESIAN_POINT('',(0.0035,-0.0050099471146293,-0.00319393526428305));
#323=CARTESIAN_POINT('',(0.0035,-0.00424783777902316,-0.00415585775318332));
#324=CARTESIAN_POINT('',(0.0035,-0.00330171428610016,-0.00493979144699628));
#325=CARTESIAN_POINT('',(0.0035,-0.00223843522438137,-0.00550163757235706));
#326=CARTESIAN_POINT('',(0.0035,-0.00112570218432881,-0.00582718337656012));
#327=CARTESIAN_POINT('',(0.0035,-5.65332151999906E-5,-0.00593080588335209));
#328=CARTESIAN_POINT('',(0.0035,0.00100978868778081,-0.00584792685620155));
#329=CARTESIAN_POINT('',(0.0035,0.00212223132422379,-0.00554709819732583));
#330=CARTESIAN_POINT('',(0.0035,0.00319393486030406,-0.00500994895417964));
#331=CARTESIAN_POINT('',(0.0035,0.00415585926085439,-0.00424783091372616));
#332=CARTESIAN_POINT('',(0.0035,0.0049397858202928,-0.00330173990773721));
#333=CARTESIAN_POINT('',(0.0035,0.00550165857150158,-0.00223833960312736));
#334=CARTESIAN_POINT('',(0.0035,0.00583281459326709,-0.00110654535375429));
#335=CARTESIAN_POINT('',(0.0035,0.0059310663479205,-3.58393724298102E-5));
#336=CARTESIAN_POINT('',(0.0035,0.00584257337603243,0.00102986531123556));
#337=CARTESIAN_POINT('',(0.0035,0.0059,-1.44508322299388E-18));
#338=CARTESIAN_POINT('',(0.0001,0.,0.));
#339=CARTESIAN_POINT('',(0.,0.0058328145932668,0.00110654535375507));
#340=CARTESIAN_POINT('',(0.,0.00593106634792056,3.58393724296492E-5));
#341=CARTESIAN_POINT('',(0.,0.00584257337603245,-0.00102986531123562));
#342=CARTESIAN_POINT('',(0.,0.00554658435634959,-0.0021233505083039));
#343=CARTESIAN_POINT('',(0.,0.00500991863746376,-0.00319394561918142));
#344=CARTESIAN_POINT('',(0.,0.00424783386779677,-0.0041558687563005));
#345=CARTESIAN_POINT('',(0.,0.00330171462801873,-0.00493978905220054));
#346=CARTESIAN_POINT('',(0.,0.00223843509399838,-0.0055016382358882));
#347=CARTESIAN_POINT('',(0.,0.00112570221529939,-0.00582718319050964));
#348=CARTESIAN_POINT('',(0.,5.65332140171161E-5,-0.00593080596605985));
#349=CARTESIAN_POINT('',(0.,-0.00100978871438808,-0.00584792671144757));
#350=CARTESIAN_POINT('',(0.,-0.00212223121663327,-0.00554709869363197));
#351=CARTESIAN_POINT('',(0.,-0.00319393526406249,-0.00500994711370772));
#352=CARTESIAN_POINT('',(0.,-0.00415585775341162,-0.0042478377793075));
#353=CARTESIAN_POINT('',(0.,-0.00493979144630318,-0.00330171428588508));
#354=CARTESIAN_POINT('',(0.,-0.005501637574901,-0.00223843522495726));
#355=CARTESIAN_POINT('',(0.,-0.00582718336707655,-0.00112570218224209));
#356=CARTESIAN_POINT('',(0.,-0.00593080591874142,-5.65332229738202E-5));
#357=CARTESIAN_POINT('',(0.,-0.00584792672412781,0.00100978871678733));
#358=CARTESIAN_POINT('',(0.,-0.00554709869023141,0.00212223121597798));
#359=CARTESIAN_POINT('',(0.,-0.00500994711462942,0.00319393526428276));
#360=CARTESIAN_POINT('',(0.,-0.004247837779023,0.00415585775318372));
#361=CARTESIAN_POINT('',(0.,-0.00330171428609983,0.00493979144699637));
#362=CARTESIAN_POINT('',(0.,-0.00223843522438162,0.00550163757235694));
#363=CARTESIAN_POINT('',(0.,-0.0011257021843295,0.00582718337655976));
#364=CARTESIAN_POINT('',(0.,-5.65332152010643E-5,0.00593080588335216));
#365=CARTESIAN_POINT('',(0.,0.00100978868778234,0.00584792685620163));
#366=CARTESIAN_POINT('',(0.,0.00212223132422367,0.00554709819732539));
#367=CARTESIAN_POINT('',(0.,0.00319393486030359,0.00500994895418026));
#368=CARTESIAN_POINT('',(0.,0.00415585926085472,0.00424783091372568));
#369=CARTESIAN_POINT('',(0.,0.00493978582029238,0.00330173990773771));
#370=CARTESIAN_POINT('',(0.,0.00550165857150156,0.00223833960312742));
#371=CARTESIAN_POINT('',(0.,0.0058328145932668,0.00110654535375507));
#372=CARTESIAN_POINT('',(0.,0.00593106634792056,3.58393724296492E-5));
#373=CARTESIAN_POINT('',(0.,0.00584257337603245,-0.00102986531123562));
#374=CARTESIAN_POINT('',(1.35525271560688E-20,0.0059,0.));
#375=CARTESIAN_POINT('',(0.0035,0.,0.0056));
#376=CARTESIAN_POINT('',(0.0035,0.,0.));
#377=CARTESIAN_POINT('',(0.0035,-0.0056,0.));
#378=CARTESIAN_POINT('',(0.,0.,0.0059));
#379=CARTESIAN_POINT('',(0.,0.,0.));
#380=CARTESIAN_POINT('',(0.,-0.0056,0.));
#381=CARTESIAN_POINT('',(0.0034,0.,0.));
#382=CARTESIAN_POINT('',(0.003005,0.,0.));
#383=CARTESIAN_POINT('',(0.003005,-0.0056,0.));
#384=CARTESIAN_POINT('',(0.0034,0.,0.));
#385=CARTESIAN_POINT('',(0.000495,0.,0.));
#386=CARTESIAN_POINT('',(0.000495,-0.0056,0.));
#387=CARTESIAN_POINT('',(0.003005,0.,0.00455));
#388=CARTESIAN_POINT('',(0.003005,0.,0.));
#389=CARTESIAN_POINT('',(0.003005,-0.00455,0.));
#390=CARTESIAN_POINT('',(0.000495,0.,0.0056));
#391=CARTESIAN_POINT('',(0.000495,0.,0.));
#392=CARTESIAN_POINT('',(0.000495,-0.00455,0.));
#393=CARTESIAN_POINT('',(0.0034,0.,0.));
#394=CARTESIAN_POINT('',(0.0035,0.,0.));
#395=CARTESIAN_POINT('',(0.0035,-0.00455,0.));
#396=CARTESIAN_POINT('',(0.0034,0.,0.));
#397=CARTESIAN_POINT('',(0.,0.,0.));
#398=CARTESIAN_POINT('',(0.,-0.00455,0.));
#399=CARTESIAN_POINT('',(0.0035,0.,0.0041));
#400=CARTESIAN_POINT('',(0.0035,0.00404823897077976,0.000795733276375719));
#401=CARTESIAN_POINT('',(0.0035,0.00412397528640552,1.99694240321436E-5));
#402=CARTESIAN_POINT('',(0.0035,0.00405558031311747,-0.000737462801349838));
#403=CARTESIAN_POINT('',(0.0035,0.00385945941648851,-0.00145608983363903));
#404=CARTESIAN_POINT('',(0.0035,0.00349033404532001,-0.00221001545077611));
#405=CARTESIAN_POINT('',(0.0035,0.00295182794303153,-0.00288717683410953));
#406=CARTESIAN_POINT('',(0.0035,0.00229681952487789,-0.00343235640813971));
#407=CARTESIAN_POINT('',(0.0035,0.00155294551722245,-0.00382162855942147));
#408=CARTESIAN_POINT('',(0.0035,0.000833505991614989,-0.00403804862641948));
#409=CARTESIAN_POINT('',(0.0035,7.54981497395375E-5,-0.00412327973441678));
#410=CARTESIAN_POINT('',(0.0035,-0.000697465504858265,-0.0040650192410709));
#411=CARTESIAN_POINT('',(0.0035,-0.00144145022851563,-0.00386639644088169));
#412=CARTESIAN_POINT('',(0.0035,-0.00220872289617167,-0.00349133517058369));
#413=CARTESIAN_POINT('',(0.0035,-0.00288715008899793,-0.00295187278002531));
#414=CARTESIAN_POINT('',(0.0035,-0.0034323485512957,-0.00229682660926325));
#415=CARTESIAN_POINT('',(0.0035,-0.0038216300874924,-0.001552944721753));
#416=CARTESIAN_POINT('',(0.0035,-0.00403804820591734,-0.000833506259698956));
#417=CARTESIAN_POINT('',(0.0035,-0.00412327984990384,-7.54980845584188E-5));
#418=CARTESIAN_POINT('',(0.0035,-0.00406501921008079,0.00069746548525788));
#419=CARTESIAN_POINT('',(0.0035,-0.00386639644983915,0.00144145023368399));
#420=CARTESIAN_POINT('',(0.0035,-0.00349133516823332,0.00220872289469728));
#421=CARTESIAN_POINT('',(0.0035,-0.00295187278087617,0.00288715008956131));
#422=CARTESIAN_POINT('',(0.0035,-0.0022968266081747,0.00343234855046252));
#423=CARTESIAN_POINT('',(0.0035,-0.00155294472522052,0.00382163009023143));
#424=CARTESIAN_POINT('',(0.0035,-0.000833506247257509,0.00403804819606603));
#425=CARTESIAN_POINT('',(0.0035,-7.54981314612943E-5,0.00412327988705536));
#426=CARTESIAN_POINT('',(0.0035,0.000697465665054857,0.00406501906766218));
#427=CARTESIAN_POINT('',(0.0035,0.00144144954870137,0.00386639699241938));
#428=CARTESIAN_POINT('',(0.0035,0.00220872554523566,0.00349133306872048));
#429=CARTESIAN_POINT('',(0.0035,0.00288714071772123,0.00295188020438639));
#430=CARTESIAN_POINT('',(0.0035,0.00343238348238385,0.00229679893831761));
#431=CARTESIAN_POINT('',(0.0035,0.0038282126909157,0.00154021848490602));
#432=CARTESIAN_POINT('',(0.0035,0.00404823897077976,0.000795733276375719));
#433=CARTESIAN_POINT('',(0.0035,0.00412397528640552,1.99694240321436E-5));
#434=CARTESIAN_POINT('',(0.0035,0.00405558031311747,-0.000737462801349838));
#435=CARTESIAN_POINT('',(0.0035,0.00410000000149012,0.));
#436=CARTESIAN_POINT('',(0.,0.,0.00455));
#437=CARTESIAN_POINT('',(0.,0.00404823896930847,-0.000795733276087395));
#438=CARTESIAN_POINT('',(0.,0.00412397528490667,-1.99694240245635E-5));
#439=CARTESIAN_POINT('',(0.,0.00405558031164351,0.000737462801081368));
#440=CARTESIAN_POINT('',(0.,0.00385945941508578,0.00145608983310997));
#441=CARTESIAN_POINT('',(0.,0.00349033404405162,0.0022100154499725));
#442=CARTESIAN_POINT('',(0.,0.00295182794195861,0.00288717683306055));
#443=CARTESIAN_POINT('',(0.,0.0022968195240428,0.00343235640689239));
#444=CARTESIAN_POINT('',(0.,0.00155294551665785,0.00382162855803258));
#445=CARTESIAN_POINT('',(0.,0.000833505991313336,0.00403804862495141));
#446=CARTESIAN_POINT('',(0.,7.54981497121292E-5,0.0041232797329181));
#447=CARTESIAN_POINT('',(0.,-0.000697465504605248,0.00406501923959399));
#448=CARTESIAN_POINT('',(0.,-0.00144145022799161,0.00386639643947648));
#449=CARTESIAN_POINT('',(0.,-0.00220872289536932,0.00349133516931459));
#450=CARTESIAN_POINT('',(0.,-0.00288715008794881,0.00295187277895232));
#451=CARTESIAN_POINT('',(0.,-0.00343234855004805,0.0022968266084285));
#452=CARTESIAN_POINT('',(0.,-0.00382163008610382,0.00155294472118866));
#453=CARTESIAN_POINT('',(0.,-0.00403804820444919,0.000833506259395001));
#454=CARTESIAN_POINT('',(0.,-0.00412327984840519,7.54980845305926E-5));
#455=CARTESIAN_POINT('',(0.,-0.00406501920860389,-0.000697465485002607));
#456=CARTESIAN_POINT('',(0.,-0.00386639644843387,-0.00144145023316028));
#457=CARTESIAN_POINT('',(0.,-0.00349133516696451,-0.00220872289389438));
#458=CARTESIAN_POINT('',(0.,-0.0029518727798032,-0.0028871500885122));
#459=CARTESIAN_POINT('',(0.,-0.00229682660733993,-0.003432348549215));
#460=CARTESIAN_POINT('',(0.,-0.00155294472465625,-0.0038216300888423));
#461=CARTESIAN_POINT('',(0.,-0.000833506246955369,-0.00403804819459847));
#462=CARTESIAN_POINT('',(0.,-7.54981314344236E-5,-0.00412327988555677));
#463=CARTESIAN_POINT('',(0.,0.000697465664803757,-0.00406501906618476));
#464=CARTESIAN_POINT('',(0.,0.00144144954817716,-0.00386639699101423));
#465=CARTESIAN_POINT('',(0.,0.00220872554443343,-0.00349133306745128));
#466=CARTESIAN_POINT('',(0.,0.00288714071667171,-0.00295188020331365));
#467=CARTESIAN_POINT('',(0.,0.00343238348113641,-0.00229679893748291));
#468=CARTESIAN_POINT('',(0.,0.00382821268952427,-0.00154021848434612));
#469=CARTESIAN_POINT('',(0.,0.00404823896930847,-0.000795733276087395));
#470=CARTESIAN_POINT('',(0.,0.00412397528490667,-1.99694240245635E-5));
#471=CARTESIAN_POINT('',(0.,0.00405558031164351,0.000737462801081368));
#472=CARTESIAN_POINT('',(0.,0.0041,0.));
#473=CARTESIAN_POINT('',(0.0034,0.,0.));
#474=CARTESIAN_POINT('',(0.0034,0.,0.));
#475=CARTESIAN_POINT('',(0.0034,0.004,0.));
#476=CARTESIAN_POINT('',(0.0001,0.,0.));
#477=CARTESIAN_POINT('',(0.0001,0.,0.));
#478=CARTESIAN_POINT('',(0.0001,0.004,0.));
#479=CARTESIAN_POINT('',(0.0034,0.,0.));
#480=MECHANICAL_DESIGN_GEOMETRIC_PRESENTATION_REPRESENTATION('',(#197),
#481);
#481=(
GEOMETRIC_REPRESENTATION_CONTEXT(3)
GLOBAL_UNCERTAINTY_ASSIGNED_CONTEXT((#482))
GLOBAL_UNIT_ASSIGNED_CONTEXT((#485,#484,#483))
REPRESENTATION_CONTEXT('KP0062-01_B678ZZ_2_03',
'TOP_LEVEL_ASSEMBLY_PART')
);
#482=UNCERTAINTY_MEASURE_WITH_UNIT(LENGTH_MEASURE(2.E-5),#485,
'DISTANCE_ACCURACY_VALUE','Maximum Tolerance applied to model');
#483=(
NAMED_UNIT(*)
SI_UNIT($,.STERADIAN.)
SOLID_ANGLE_UNIT()
);
#484=(
NAMED_UNIT(*)
PLANE_ANGLE_UNIT()
SI_UNIT($,.RADIAN.)
);
#485=(
LENGTH_UNIT()
NAMED_UNIT(*)
SI_UNIT($,.METRE.)
);
#486=PRODUCT_DEFINITION_SHAPE('','',#487);
#487=PRODUCT_DEFINITION('','',#489,#488);
#488=PRODUCT_DEFINITION_CONTEXT('',#495,'design');
#489=PRODUCT_DEFINITION_FORMATION_WITH_SPECIFIED_SOURCE('','',#491,
 .NOT_KNOWN.);
#490=PRODUCT_RELATED_PRODUCT_CATEGORY('','',(#491));
#491=PRODUCT('KP0062-01_B678ZZ_2_03','KP0062-01_B678ZZ_2_03',
'KP0062-01_B678ZZ_2_03',(#493));
#492=PRODUCT_CATEGORY('','');
#493=PRODUCT_CONTEXT('',#495,'mechanical');
#494=APPLICATION_PROTOCOL_DEFINITION('international standard',
'automotive_design',2010,#495);
#495=APPLICATION_CONTEXT(
'core data for automotive mechanical design processes');
ENDSEC;
END-ISO-10303-21;
