ISO-10303-21;
HEADER;
/* Generated by software containing ST-Developer
 * from STEP Tools, Inc. (www.steptools.com) 
 */
/* OPTION: using custom renumber hook */

FILE_DESCRIPTION(
/* description */ ('STEP AP214',
'CAx-IF Rec.Pracs.---User Defined Attributes---1.5---2016-08-15'),
/* implementation_level */ '2;1');

FILE_NAME(
/* name */ '6a65b5443184da9fa51bbeb5',
/* time_stamp */ '2026-07-26T07:20:36Z',
/* author */ (''),
/* organization */ (''),
/* preprocessor_version */ 'ST-DEVELOPER v20',
/* originating_system */ 'ONSHAPE BY PTC INC, 1.218',
/* authorisation */ '  ');

FILE_SCHEMA (('AUTOMOTIVE_DESIGN {1 0 10303 214 3 1 1}'));
ENDSEC;

DATA;
#10=PROPERTY_DEFINITION_REPRESENTATION(#14,#12);
#11=PROPERTY_DEFINITION_REPRESENTATION(#15,#13);
#12=REPRESENTATION('',(#16),#1147);
#13=REPRESENTATION('',(#17),#1147);
#14=PROPERTY_DEFINITION('pmi validation property','',#1152);
#15=PROPERTY_DEFINITION('pmi validation property','',#1152);
#16=VALUE_REPRESENTATION_ITEM('number of annotations',COUNT_MEASURE(0.));
#17=VALUE_REPRESENTATION_ITEM('number of views',COUNT_MEASURE(0.));
#18=SHAPE_REPRESENTATION_RELATIONSHIP('','',#673,#19);
#19=ADVANCED_BREP_SHAPE_REPRESENTATION('',(#671),#1147);
#20=PLANE('',#678);
#21=PLANE('',#679);
#22=PLANE('',#698);
#23=PLANE('',#699);
#24=PLANE('',#721);
#25=PLANE('',#725);
#26=PLANE('',#726);
#27=PLANE('',#728);
#28=PLANE('',#729);
#29=PLANE('',#734);
#30=PLANE('',#735);
#31=PLANE('',#740);
#32=PLANE('',#741);
#33=PLANE('',#744);
#34=PLANE('',#745);
#35=LINE('',#956,#93);
#36=LINE('',#960,#94);
#37=LINE('',#962,#95);
#38=LINE('',#964,#96);
#39=LINE('',#966,#97);
#40=LINE('',#979,#98);
#41=LINE('',#981,#99);
#42=LINE('',#983,#100);
#43=LINE('',#987,#101);
#44=LINE('',#990,#102);
#45=LINE('',#994,#103);
#46=LINE('',#998,#104);
#47=LINE('',#1000,#105);
#48=LINE('',#1002,#106);
#49=LINE('',#1018,#107);
#50=LINE('',#1020,#108);
#51=LINE('',#1022,#109);
#52=LINE('',#1028,#110);
#53=LINE('',#1030,#111);
#54=LINE('',#1041,#112);
#55=LINE('',#1043,#113);
#56=LINE('',#1045,#114);
#57=LINE('',#1061,#115);
#58=LINE('',#1063,#116);
#59=LINE('',#1065,#117);
#60=LINE('',#1069,#118);
#61=LINE('',#1074,#119);
#62=LINE('',#1078,#120);
#63=LINE('',#1080,#121);
#64=LINE('',#1082,#122);
#65=LINE('',#1090,#123);
#66=LINE('',#1092,#124);
#67=LINE('',#1093,#125);
#68=LINE('',#1095,#126);
#69=LINE('',#1096,#127);
#70=LINE('',#1098,#128);
#71=LINE('',#1099,#129);
#72=LINE('',#1101,#130);
#73=LINE('',#1102,#131);
#74=LINE('',#1104,#132);
#75=LINE('',#1105,#133);
#76=LINE('',#1107,#134);
#77=LINE('',#1108,#135);
#78=LINE('',#1110,#136);
#79=LINE('',#1111,#137);
#80=LINE('',#1113,#138);
#81=LINE('',#1114,#139);
#82=LINE('',#1117,#140);
#83=LINE('',#1119,#141);
#84=LINE('',#1120,#142);
#85=LINE('',#1122,#143);
#86=LINE('',#1123,#144);
#87=LINE('',#1127,#145);
#88=LINE('',#1129,#146);
#89=LINE('',#1135,#147);
#90=LINE('',#1137,#148);
#91=LINE('',#1141,#149);
#92=LINE('',#1143,#150);
#93=VECTOR('',#753,1.);
#94=VECTOR('',#756,1.);
#95=VECTOR('',#759,1.);
#96=VECTOR('',#760,1.);
#97=VECTOR('',#761,1.);
#98=VECTOR('',#774,1.);
#99=VECTOR('',#775,1.);
#100=VECTOR('',#776,1.);
#101=VECTOR('',#779,1.);
#102=VECTOR('',#782,1.);
#103=VECTOR('',#785,1.);
#104=VECTOR('',#788,1.);
#105=VECTOR('',#789,1.);
#106=VECTOR('',#790,1.);
#107=VECTOR('',#805,1.);
#108=VECTOR('',#806,1.);
#109=VECTOR('',#807,1.);
#110=VECTOR('',#814,1.);
#111=VECTOR('',#815,1.);
#112=VECTOR('',#826,1.);
#113=VECTOR('',#827,1.);
#114=VECTOR('',#828,1.);
#115=VECTOR('',#843,1.);
#116=VECTOR('',#844,1.);
#117=VECTOR('',#845,1.);
#118=VECTOR('',#848,1.);
#119=VECTOR('',#853,1.);
#120=VECTOR('',#856,1.);
#121=VECTOR('',#857,1.);
#122=VECTOR('',#858,1.);
#123=VECTOR('',#867,1.);
#124=VECTOR('',#870,1.);
#125=VECTOR('',#871,1.);
#126=VECTOR('',#874,1.);
#127=VECTOR('',#875,1.);
#128=VECTOR('',#878,1.);
#129=VECTOR('',#879,1.);
#130=VECTOR('',#882,1.);
#131=VECTOR('',#883,1.);
#132=VECTOR('',#886,1.);
#133=VECTOR('',#887,1.);
#134=VECTOR('',#890,1.);
#135=VECTOR('',#891,1.);
#136=VECTOR('',#894,1.);
#137=VECTOR('',#895,1.);
#138=VECTOR('',#898,1.);
#139=VECTOR('',#899,1.);
#140=VECTOR('',#904,1.);
#141=VECTOR('',#907,1.);
#142=VECTOR('',#908,1.);
#143=VECTOR('',#911,1.);
#144=VECTOR('',#912,1.);
#145=VECTOR('',#919,1.);
#146=VECTOR('',#922,1.);
#147=VECTOR('',#933,1.);
#148=VECTOR('',#936,1.);
#149=VECTOR('',#943,1.);
#150=VECTOR('',#946,1.);
#151=ORIENTED_EDGE('',*,*,#343,.T.);
#152=ORIENTED_EDGE('',*,*,#344,.T.);
#153=ORIENTED_EDGE('',*,*,#345,.T.);
#154=ORIENTED_EDGE('',*,*,#346,.T.);
#155=ORIENTED_EDGE('',*,*,#344,.F.);
#156=ORIENTED_EDGE('',*,*,#347,.T.);
#157=ORIENTED_EDGE('',*,*,#348,.T.);
#158=ORIENTED_EDGE('',*,*,#349,.T.);
#159=ORIENTED_EDGE('',*,*,#350,.F.);
#160=ORIENTED_EDGE('',*,*,#351,.T.);
#161=ORIENTED_EDGE('',*,*,#352,.F.);
#162=ORIENTED_EDGE('',*,*,#353,.T.);
#163=ORIENTED_EDGE('',*,*,#354,.F.);
#164=ORIENTED_EDGE('',*,*,#355,.F.);
#165=ORIENTED_EDGE('',*,*,#356,.T.);
#166=ORIENTED_EDGE('',*,*,#357,.F.);
#167=ORIENTED_EDGE('',*,*,#358,.F.);
#168=ORIENTED_EDGE('',*,*,#359,.T.);
#169=ORIENTED_EDGE('',*,*,#360,.T.);
#170=ORIENTED_EDGE('',*,*,#347,.F.);
#171=ORIENTED_EDGE('',*,*,#343,.F.);
#172=ORIENTED_EDGE('',*,*,#361,.T.);
#173=ORIENTED_EDGE('',*,*,#362,.T.);
#174=ORIENTED_EDGE('',*,*,#363,.T.);
#175=ORIENTED_EDGE('',*,*,#364,.F.);
#176=ORIENTED_EDGE('',*,*,#365,.F.);
#177=ORIENTED_EDGE('',*,*,#366,.T.);
#178=ORIENTED_EDGE('',*,*,#367,.F.);
#179=ORIENTED_EDGE('',*,*,#368,.F.);
#180=ORIENTED_EDGE('',*,*,#369,.T.);
#181=ORIENTED_EDGE('',*,*,#370,.F.);
#182=ORIENTED_EDGE('',*,*,#371,.T.);
#183=ORIENTED_EDGE('',*,*,#372,.F.);
#184=ORIENTED_EDGE('',*,*,#373,.T.);
#185=ORIENTED_EDGE('',*,*,#374,.F.);
#186=ORIENTED_EDGE('',*,*,#375,.F.);
#187=ORIENTED_EDGE('',*,*,#376,.T.);
#188=ORIENTED_EDGE('',*,*,#377,.F.);
#189=ORIENTED_EDGE('',*,*,#378,.F.);
#190=ORIENTED_EDGE('',*,*,#379,.T.);
#191=ORIENTED_EDGE('',*,*,#346,.F.);
#192=ORIENTED_EDGE('',*,*,#380,.T.);
#193=ORIENTED_EDGE('',*,*,#381,.T.);
#194=ORIENTED_EDGE('',*,*,#361,.F.);
#195=ORIENTED_EDGE('',*,*,#382,.F.);
#196=ORIENTED_EDGE('',*,*,#383,.F.);
#197=ORIENTED_EDGE('',*,*,#384,.F.);
#198=ORIENTED_EDGE('',*,*,#385,.F.);
#199=ORIENTED_EDGE('',*,*,#386,.F.);
#200=ORIENTED_EDGE('',*,*,#387,.F.);
#201=ORIENTED_EDGE('',*,*,#388,.F.);
#202=ORIENTED_EDGE('',*,*,#389,.F.);
#203=ORIENTED_EDGE('',*,*,#390,.F.);
#204=ORIENTED_EDGE('',*,*,#391,.F.);
#205=ORIENTED_EDGE('',*,*,#392,.F.);
#206=ORIENTED_EDGE('',*,*,#393,.F.);
#207=ORIENTED_EDGE('',*,*,#394,.F.);
#208=ORIENTED_EDGE('',*,*,#395,.F.);
#209=ORIENTED_EDGE('',*,*,#396,.F.);
#210=ORIENTED_EDGE('',*,*,#397,.F.);
#211=ORIENTED_EDGE('',*,*,#398,.F.);
#212=ORIENTED_EDGE('',*,*,#399,.F.);
#213=ORIENTED_EDGE('',*,*,#400,.F.);
#214=ORIENTED_EDGE('',*,*,#401,.F.);
#215=ORIENTED_EDGE('',*,*,#380,.F.);
#216=ORIENTED_EDGE('',*,*,#345,.F.);
#217=ORIENTED_EDGE('',*,*,#349,.F.);
#218=ORIENTED_EDGE('',*,*,#402,.F.);
#219=ORIENTED_EDGE('',*,*,#403,.F.);
#220=ORIENTED_EDGE('',*,*,#404,.F.);
#221=ORIENTED_EDGE('',*,*,#405,.F.);
#222=ORIENTED_EDGE('',*,*,#406,.F.);
#223=ORIENTED_EDGE('',*,*,#407,.F.);
#224=ORIENTED_EDGE('',*,*,#408,.F.);
#225=ORIENTED_EDGE('',*,*,#409,.F.);
#226=ORIENTED_EDGE('',*,*,#410,.F.);
#227=ORIENTED_EDGE('',*,*,#402,.T.);
#228=ORIENTED_EDGE('',*,*,#348,.F.);
#229=ORIENTED_EDGE('',*,*,#360,.F.);
#230=ORIENTED_EDGE('',*,*,#411,.T.);
#231=ORIENTED_EDGE('',*,*,#351,.F.);
#232=ORIENTED_EDGE('',*,*,#412,.F.);
#233=ORIENTED_EDGE('',*,*,#382,.T.);
#234=ORIENTED_EDGE('',*,*,#413,.F.);
#235=ORIENTED_EDGE('',*,*,#379,.F.);
#236=ORIENTED_EDGE('',*,*,#414,.F.);
#237=ORIENTED_EDGE('',*,*,#384,.T.);
#238=ORIENTED_EDGE('',*,*,#415,.F.);
#239=ORIENTED_EDGE('',*,*,#376,.F.);
#240=ORIENTED_EDGE('',*,*,#416,.T.);
#241=ORIENTED_EDGE('',*,*,#387,.T.);
#242=ORIENTED_EDGE('',*,*,#417,.T.);
#243=ORIENTED_EDGE('',*,*,#390,.T.);
#244=ORIENTED_EDGE('',*,*,#418,.F.);
#245=ORIENTED_EDGE('',*,*,#373,.F.);
#246=ORIENTED_EDGE('',*,*,#419,.F.);
#247=ORIENTED_EDGE('',*,*,#392,.T.);
#248=ORIENTED_EDGE('',*,*,#420,.F.);
#249=ORIENTED_EDGE('',*,*,#371,.F.);
#250=ORIENTED_EDGE('',*,*,#421,.F.);
#251=ORIENTED_EDGE('',*,*,#369,.F.);
#252=ORIENTED_EDGE('',*,*,#422,.F.);
#253=ORIENTED_EDGE('',*,*,#394,.T.);
#254=ORIENTED_EDGE('',*,*,#423,.F.);
#255=ORIENTED_EDGE('',*,*,#366,.F.);
#256=ORIENTED_EDGE('',*,*,#424,.T.);
#257=ORIENTED_EDGE('',*,*,#397,.T.);
#258=ORIENTED_EDGE('',*,*,#425,.T.);
#259=ORIENTED_EDGE('',*,*,#363,.F.);
#260=ORIENTED_EDGE('',*,*,#426,.F.);
#261=ORIENTED_EDGE('',*,*,#400,.T.);
#262=ORIENTED_EDGE('',*,*,#427,.F.);
#263=ORIENTED_EDGE('',*,*,#362,.F.);
#264=ORIENTED_EDGE('',*,*,#381,.F.);
#265=ORIENTED_EDGE('',*,*,#401,.T.);
#266=ORIENTED_EDGE('',*,*,#426,.T.);
#267=ORIENTED_EDGE('',*,*,#403,.T.);
#268=ORIENTED_EDGE('',*,*,#411,.F.);
#269=ORIENTED_EDGE('',*,*,#359,.F.);
#270=ORIENTED_EDGE('',*,*,#428,.F.);
#271=ORIENTED_EDGE('',*,*,#356,.F.);
#272=ORIENTED_EDGE('',*,*,#429,.T.);
#273=ORIENTED_EDGE('',*,*,#406,.T.);
#274=ORIENTED_EDGE('',*,*,#430,.T.);
#275=ORIENTED_EDGE('',*,*,#409,.T.);
#276=ORIENTED_EDGE('',*,*,#431,.F.);
#277=ORIENTED_EDGE('',*,*,#353,.F.);
#278=ORIENTED_EDGE('',*,*,#432,.F.);
#279=ORIENTED_EDGE('',*,*,#352,.T.);
#280=ORIENTED_EDGE('',*,*,#413,.T.);
#281=ORIENTED_EDGE('',*,*,#410,.T.);
#282=ORIENTED_EDGE('',*,*,#432,.T.);
#283=ORIENTED_EDGE('',*,*,#383,.T.);
#284=ORIENTED_EDGE('',*,*,#412,.T.);
#285=ORIENTED_EDGE('',*,*,#350,.T.);
#286=ORIENTED_EDGE('',*,*,#415,.T.);
#287=ORIENTED_EDGE('',*,*,#385,.T.);
#288=ORIENTED_EDGE('',*,*,#414,.T.);
#289=ORIENTED_EDGE('',*,*,#378,.T.);
#290=ORIENTED_EDGE('',*,*,#433,.T.);
#291=ORIENTED_EDGE('',*,*,#416,.F.);
#292=ORIENTED_EDGE('',*,*,#375,.T.);
#293=ORIENTED_EDGE('',*,*,#434,.T.);
#294=ORIENTED_EDGE('',*,*,#388,.T.);
#295=ORIENTED_EDGE('',*,*,#417,.F.);
#296=ORIENTED_EDGE('',*,*,#386,.T.);
#297=ORIENTED_EDGE('',*,*,#433,.F.);
#298=ORIENTED_EDGE('',*,*,#377,.T.);
#299=ORIENTED_EDGE('',*,*,#372,.T.);
#300=ORIENTED_EDGE('',*,*,#420,.T.);
#301=ORIENTED_EDGE('',*,*,#391,.T.);
#302=ORIENTED_EDGE('',*,*,#419,.T.);
#303=ORIENTED_EDGE('',*,*,#374,.T.);
#304=ORIENTED_EDGE('',*,*,#418,.T.);
#305=ORIENTED_EDGE('',*,*,#389,.T.);
#306=ORIENTED_EDGE('',*,*,#434,.F.);
#307=ORIENTED_EDGE('',*,*,#393,.T.);
#308=ORIENTED_EDGE('',*,*,#421,.T.);
#309=ORIENTED_EDGE('',*,*,#370,.T.);
#310=ORIENTED_EDGE('',*,*,#423,.T.);
#311=ORIENTED_EDGE('',*,*,#395,.T.);
#312=ORIENTED_EDGE('',*,*,#422,.T.);
#313=ORIENTED_EDGE('',*,*,#368,.T.);
#314=ORIENTED_EDGE('',*,*,#435,.T.);
#315=ORIENTED_EDGE('',*,*,#424,.F.);
#316=ORIENTED_EDGE('',*,*,#365,.T.);
#317=ORIENTED_EDGE('',*,*,#436,.T.);
#318=ORIENTED_EDGE('',*,*,#398,.T.);
#319=ORIENTED_EDGE('',*,*,#425,.F.);
#320=ORIENTED_EDGE('',*,*,#396,.T.);
#321=ORIENTED_EDGE('',*,*,#435,.F.);
#322=ORIENTED_EDGE('',*,*,#367,.T.);
#323=ORIENTED_EDGE('',*,*,#364,.T.);
#324=ORIENTED_EDGE('',*,*,#427,.T.);
#325=ORIENTED_EDGE('',*,*,#399,.T.);
#326=ORIENTED_EDGE('',*,*,#436,.F.);
#327=ORIENTED_EDGE('',*,*,#404,.T.);
#328=ORIENTED_EDGE('',*,*,#428,.T.);
#329=ORIENTED_EDGE('',*,*,#358,.T.);
#330=ORIENTED_EDGE('',*,*,#437,.T.);
#331=ORIENTED_EDGE('',*,*,#429,.F.);
#332=ORIENTED_EDGE('',*,*,#355,.T.);
#333=ORIENTED_EDGE('',*,*,#438,.T.);
#334=ORIENTED_EDGE('',*,*,#407,.T.);
#335=ORIENTED_EDGE('',*,*,#430,.F.);
#336=ORIENTED_EDGE('',*,*,#405,.T.);
#337=ORIENTED_EDGE('',*,*,#437,.F.);
#338=ORIENTED_EDGE('',*,*,#357,.T.);
#339=ORIENTED_EDGE('',*,*,#354,.T.);
#340=ORIENTED_EDGE('',*,*,#431,.T.);
#341=ORIENTED_EDGE('',*,*,#408,.T.);
#342=ORIENTED_EDGE('',*,*,#438,.F.);
#343=EDGE_CURVE('',#439,#440,#503,.F.);
#344=EDGE_CURVE('',#440,#441,#35,.F.);
#345=EDGE_CURVE('',#441,#442,#504,.T.);
#346=EDGE_CURVE('',#442,#439,#36,.T.);
#347=EDGE_CURVE('',#440,#443,#37,.F.);
#348=EDGE_CURVE('',#443,#444,#38,.F.);
#349=EDGE_CURVE('',#444,#441,#39,.T.);
#350=EDGE_CURVE('',#445,#446,#505,.F.);
#351=EDGE_CURVE('',#445,#447,#506,.F.);
#352=EDGE_CURVE('',#448,#447,#507,.T.);
#353=EDGE_CURVE('',#448,#449,#508,.T.);
#354=EDGE_CURVE('',#450,#449,#509,.T.);
#355=EDGE_CURVE('',#451,#450,#40,.F.);
#356=EDGE_CURVE('',#451,#452,#41,.T.);
#357=EDGE_CURVE('',#453,#452,#42,.F.);
#358=EDGE_CURVE('',#454,#453,#510,.F.);
#359=EDGE_CURVE('',#454,#455,#43,.T.);
#360=EDGE_CURVE('',#455,#443,#511,.F.);
#361=EDGE_CURVE('',#439,#456,#44,.T.);
#362=EDGE_CURVE('',#456,#457,#512,.T.);
#363=EDGE_CURVE('',#457,#458,#45,.F.);
#364=EDGE_CURVE('',#459,#458,#513,.T.);
#365=EDGE_CURVE('',#460,#459,#46,.F.);
#366=EDGE_CURVE('',#460,#461,#47,.F.);
#367=EDGE_CURVE('',#462,#461,#48,.F.);
#368=EDGE_CURVE('',#463,#462,#514,.F.);
#369=EDGE_CURVE('',#463,#464,#515,.T.);
#370=EDGE_CURVE('',#465,#464,#516,.F.);
#371=EDGE_CURVE('',#465,#466,#517,.F.);
#372=EDGE_CURVE('',#467,#466,#518,.T.);
#373=EDGE_CURVE('',#467,#468,#519,.T.);
#374=EDGE_CURVE('',#469,#468,#520,.T.);
#375=EDGE_CURVE('',#470,#469,#49,.F.);
#376=EDGE_CURVE('',#470,#471,#50,.T.);
#377=EDGE_CURVE('',#472,#471,#51,.F.);
#378=EDGE_CURVE('',#473,#472,#521,.F.);
#379=EDGE_CURVE('',#473,#446,#522,.T.);
#380=EDGE_CURVE('',#442,#474,#52,.T.);
#381=EDGE_CURVE('',#474,#456,#53,.T.);
#382=EDGE_CURVE('',#475,#476,#523,.F.);
#383=EDGE_CURVE('',#477,#475,#524,.T.);
#384=EDGE_CURVE('',#478,#477,#525,.T.);
#385=EDGE_CURVE('',#479,#478,#526,.T.);
#386=EDGE_CURVE('',#480,#479,#54,.T.);
#387=EDGE_CURVE('',#481,#480,#55,.T.);
#388=EDGE_CURVE('',#482,#481,#56,.T.);
#389=EDGE_CURVE('',#483,#482,#527,.F.);
#390=EDGE_CURVE('',#484,#483,#528,.T.);
#391=EDGE_CURVE('',#485,#484,#529,.F.);
#392=EDGE_CURVE('',#486,#485,#530,.F.);
#393=EDGE_CURVE('',#487,#486,#531,.T.);
#394=EDGE_CURVE('',#488,#487,#532,.T.);
#395=EDGE_CURVE('',#489,#488,#533,.T.);
#396=EDGE_CURVE('',#490,#489,#57,.T.);
#397=EDGE_CURVE('',#491,#490,#58,.F.);
#398=EDGE_CURVE('',#492,#491,#59,.T.);
#399=EDGE_CURVE('',#493,#492,#534,.F.);
#400=EDGE_CURVE('',#494,#493,#60,.F.);
#401=EDGE_CURVE('',#474,#494,#535,.T.);
#402=EDGE_CURVE('',#495,#444,#536,.F.);
#403=EDGE_CURVE('',#496,#495,#61,.T.);
#404=EDGE_CURVE('',#497,#496,#537,.T.);
#405=EDGE_CURVE('',#498,#497,#62,.T.);
#406=EDGE_CURVE('',#499,#498,#63,.T.);
#407=EDGE_CURVE('',#500,#499,#64,.T.);
#408=EDGE_CURVE('',#501,#500,#538,.F.);
#409=EDGE_CURVE('',#502,#501,#539,.T.);
#410=EDGE_CURVE('',#476,#502,#540,.F.);
#411=EDGE_CURVE('',#455,#495,#65,.T.);
#412=EDGE_CURVE('',#475,#445,#66,.T.);
#413=EDGE_CURVE('',#447,#476,#67,.F.);
#414=EDGE_CURVE('',#478,#473,#68,.F.);
#415=EDGE_CURVE('',#446,#477,#69,.T.);
#416=EDGE_CURVE('',#470,#481,#70,.T.);
#417=EDGE_CURVE('',#480,#471,#71,.F.);
#418=EDGE_CURVE('',#468,#483,#72,.T.);
#419=EDGE_CURVE('',#484,#467,#73,.F.);
#420=EDGE_CURVE('',#466,#485,#74,.F.);
#421=EDGE_CURVE('',#486,#465,#75,.T.);
#422=EDGE_CURVE('',#488,#463,#76,.F.);
#423=EDGE_CURVE('',#464,#487,#77,.T.);
#424=EDGE_CURVE('',#460,#491,#78,.F.);
#425=EDGE_CURVE('',#490,#461,#79,.T.);
#426=EDGE_CURVE('',#494,#457,#80,.F.);
#427=EDGE_CURVE('',#458,#493,#81,.T.);
#428=EDGE_CURVE('',#496,#454,#82,.T.);
#429=EDGE_CURVE('',#451,#499,#83,.T.);
#430=EDGE_CURVE('',#498,#452,#84,.F.);
#431=EDGE_CURVE('',#449,#501,#85,.T.);
#432=EDGE_CURVE('',#502,#448,#86,.F.);
#433=EDGE_CURVE('',#472,#479,#87,.F.);
#434=EDGE_CURVE('',#469,#482,#88,.F.);
#435=EDGE_CURVE('',#462,#489,#89,.F.);
#436=EDGE_CURVE('',#459,#492,#90,.F.);
#437=EDGE_CURVE('',#453,#497,#91,.F.);
#438=EDGE_CURVE('',#450,#500,#92,.F.);
#439=VERTEX_POINT('',#954);
#440=VERTEX_POINT('',#955);
#441=VERTEX_POINT('',#957);
#442=VERTEX_POINT('',#959);
#443=VERTEX_POINT('',#963);
#444=VERTEX_POINT('',#965);
#445=VERTEX_POINT('',#969);
#446=VERTEX_POINT('',#970);
#447=VERTEX_POINT('',#972);
#448=VERTEX_POINT('',#974);
#449=VERTEX_POINT('',#976);
#450=VERTEX_POINT('',#978);
#451=VERTEX_POINT('',#980);
#452=VERTEX_POINT('',#982);
#453=VERTEX_POINT('',#984);
#454=VERTEX_POINT('',#986);
#455=VERTEX_POINT('',#988);
#456=VERTEX_POINT('',#991);
#457=VERTEX_POINT('',#993);
#458=VERTEX_POINT('',#995);
#459=VERTEX_POINT('',#997);
#460=VERTEX_POINT('',#999);
#461=VERTEX_POINT('',#1001);
#462=VERTEX_POINT('',#1003);
#463=VERTEX_POINT('',#1005);
#464=VERTEX_POINT('',#1007);
#465=VERTEX_POINT('',#1009);
#466=VERTEX_POINT('',#1011);
#467=VERTEX_POINT('',#1013);
#468=VERTEX_POINT('',#1015);
#469=VERTEX_POINT('',#1017);
#470=VERTEX_POINT('',#1019);
#471=VERTEX_POINT('',#1021);
#472=VERTEX_POINT('',#1023);
#473=VERTEX_POINT('',#1025);
#474=VERTEX_POINT('',#1029);
#475=VERTEX_POINT('',#1033);
#476=VERTEX_POINT('',#1034);
#477=VERTEX_POINT('',#1036);
#478=VERTEX_POINT('',#1038);
#479=VERTEX_POINT('',#1040);
#480=VERTEX_POINT('',#1042);
#481=VERTEX_POINT('',#1044);
#482=VERTEX_POINT('',#1046);
#483=VERTEX_POINT('',#1048);
#484=VERTEX_POINT('',#1050);
#485=VERTEX_POINT('',#1052);
#486=VERTEX_POINT('',#1054);
#487=VERTEX_POINT('',#1056);
#488=VERTEX_POINT('',#1058);
#489=VERTEX_POINT('',#1060);
#490=VERTEX_POINT('',#1062);
#491=VERTEX_POINT('',#1064);
#492=VERTEX_POINT('',#1066);
#493=VERTEX_POINT('',#1068);
#494=VERTEX_POINT('',#1070);
#495=VERTEX_POINT('',#1073);
#496=VERTEX_POINT('',#1075);
#497=VERTEX_POINT('',#1077);
#498=VERTEX_POINT('',#1079);
#499=VERTEX_POINT('',#1081);
#500=VERTEX_POINT('',#1083);
#501=VERTEX_POINT('',#1085);
#502=VERTEX_POINT('',#1087);
#503=CIRCLE('',#676,0.019);
#504=CIRCLE('',#677,0.019);
#505=CIRCLE('',#680,0.0003);
#506=CIRCLE('',#681,0.0015);
#507=CIRCLE('',#682,0.0003);
#508=CIRCLE('',#683,0.0145396801890611);
#509=CIRCLE('',#684,0.001);
#510=CIRCLE('',#685,0.001);
#511=CIRCLE('',#686,0.0013);
#512=CIRCLE('',#687,0.0013);
#513=CIRCLE('',#688,0.001);
#514=CIRCLE('',#689,0.001);
#515=CIRCLE('',#690,0.0145396801890611);
#516=CIRCLE('',#691,0.0003);
#517=CIRCLE('',#692,0.0015);
#518=CIRCLE('',#693,0.0003);
#519=CIRCLE('',#694,0.0145396801890611);
#520=CIRCLE('',#695,0.001);
#521=CIRCLE('',#696,0.001);
#522=CIRCLE('',#697,0.0145396801890611);
#523=CIRCLE('',#700,0.0015);
#524=CIRCLE('',#701,0.0003);
#525=CIRCLE('',#702,0.0145396801890611);
#526=CIRCLE('',#703,0.001);
#527=CIRCLE('',#704,0.001);
#528=CIRCLE('',#705,0.0145396801890611);
#529=CIRCLE('',#706,0.0003);
#530=CIRCLE('',#707,0.0015);
#531=CIRCLE('',#708,0.0003);
#532=CIRCLE('',#709,0.0145396801890611);
#533=CIRCLE('',#710,0.001);
#534=CIRCLE('',#711,0.001);
#535=CIRCLE('',#712,0.0013);
#536=CIRCLE('',#713,0.0013);
#537=CIRCLE('',#714,0.001);
#538=CIRCLE('',#715,0.001);
#539=CIRCLE('',#716,0.0145396801890611);
#540=CIRCLE('',#717,0.0003);
#541=EDGE_LOOP('',(#151,#152,#153,#154));
#542=EDGE_LOOP('',(#155,#156,#157,#158));
#543=EDGE_LOOP('',(#159,#160,#161,#162,#163,#164,#165,#166,#167,#168,#169,
#170,#171,#172,#173,#174,#175,#176,#177,#178,#179,#180,#181,#182,#183,#184,
#185,#186,#187,#188,#189,#190));
#544=EDGE_LOOP('',(#191,#192,#193,#194));
#545=EDGE_LOOP('',(#195,#196,#197,#198,#199,#200,#201,#202,#203,#204,#205,
#206,#207,#208,#209,#210,#211,#212,#213,#214,#215,#216,#217,#218,#219,#220,
#221,#222,#223,#224,#225,#226));
#546=EDGE_LOOP('',(#227,#228,#229,#230));
#547=EDGE_LOOP('',(#231,#232,#233,#234));
#548=EDGE_LOOP('',(#235,#236,#237,#238));
#549=EDGE_LOOP('',(#239,#240,#241,#242));
#550=EDGE_LOOP('',(#243,#244,#245,#246));
#551=EDGE_LOOP('',(#247,#248,#249,#250));
#552=EDGE_LOOP('',(#251,#252,#253,#254));
#553=EDGE_LOOP('',(#255,#256,#257,#258));
#554=EDGE_LOOP('',(#259,#260,#261,#262));
#555=EDGE_LOOP('',(#263,#264,#265,#266));
#556=EDGE_LOOP('',(#267,#268,#269,#270));
#557=EDGE_LOOP('',(#271,#272,#273,#274));
#558=EDGE_LOOP('',(#275,#276,#277,#278));
#559=EDGE_LOOP('',(#279,#280,#281,#282));
#560=EDGE_LOOP('',(#283,#284,#285,#286));
#561=EDGE_LOOP('',(#287,#288,#289,#290));
#562=EDGE_LOOP('',(#291,#292,#293,#294));
#563=EDGE_LOOP('',(#295,#296,#297,#298));
#564=EDGE_LOOP('',(#299,#300,#301,#302));
#565=EDGE_LOOP('',(#303,#304,#305,#306));
#566=EDGE_LOOP('',(#307,#308,#309,#310));
#567=EDGE_LOOP('',(#311,#312,#313,#314));
#568=EDGE_LOOP('',(#315,#316,#317,#318));
#569=EDGE_LOOP('',(#319,#320,#321,#322));
#570=EDGE_LOOP('',(#323,#324,#325,#326));
#571=EDGE_LOOP('',(#327,#328,#329,#330));
#572=EDGE_LOOP('',(#331,#332,#333,#334));
#573=EDGE_LOOP('',(#335,#336,#337,#338));
#574=EDGE_LOOP('',(#339,#340,#341,#342));
#575=FACE_BOUND('',#541,.T.);
#576=FACE_BOUND('',#542,.T.);
#577=FACE_BOUND('',#543,.T.);
#578=FACE_BOUND('',#544,.T.);
#579=FACE_BOUND('',#545,.T.);
#580=FACE_BOUND('',#546,.T.);
#581=FACE_BOUND('',#547,.T.);
#582=FACE_BOUND('',#548,.T.);
#583=FACE_BOUND('',#549,.T.);
#584=FACE_BOUND('',#550,.T.);
#585=FACE_BOUND('',#551,.T.);
#586=FACE_BOUND('',#552,.T.);
#587=FACE_BOUND('',#553,.T.);
#588=FACE_BOUND('',#554,.T.);
#589=FACE_BOUND('',#555,.T.);
#590=FACE_BOUND('',#556,.T.);
#591=FACE_BOUND('',#557,.T.);
#592=FACE_BOUND('',#558,.T.);
#593=FACE_BOUND('',#559,.T.);
#594=FACE_BOUND('',#560,.T.);
#595=FACE_BOUND('',#561,.T.);
#596=FACE_BOUND('',#562,.T.);
#597=FACE_BOUND('',#563,.T.);
#598=FACE_BOUND('',#564,.T.);
#599=FACE_BOUND('',#565,.T.);
#600=FACE_BOUND('',#566,.T.);
#601=FACE_BOUND('',#567,.T.);
#602=FACE_BOUND('',#568,.T.);
#603=FACE_BOUND('',#569,.T.);
#604=FACE_BOUND('',#570,.T.);
#605=FACE_BOUND('',#571,.T.);
#606=FACE_BOUND('',#572,.T.);
#607=FACE_BOUND('',#573,.T.);
#608=FACE_BOUND('',#574,.T.);
#609=CYLINDRICAL_SURFACE('',#675,0.019);
#610=CYLINDRICAL_SURFACE('',#718,0.0013);
#611=CYLINDRICAL_SURFACE('',#719,0.0015);
#612=CYLINDRICAL_SURFACE('',#720,0.0145396801890611);
#613=CYLINDRICAL_SURFACE('',#722,0.0145396801890611);
#614=CYLINDRICAL_SURFACE('',#723,0.0015);
#615=CYLINDRICAL_SURFACE('',#724,0.0145396801890611);
#616=CYLINDRICAL_SURFACE('',#727,0.0013);
#617=CYLINDRICAL_SURFACE('',#730,0.0145396801890611);
#618=CYLINDRICAL_SURFACE('',#731,0.0003);
#619=CYLINDRICAL_SURFACE('',#732,0.0003);
#620=CYLINDRICAL_SURFACE('',#733,0.001);
#621=CYLINDRICAL_SURFACE('',#736,0.0003);
#622=CYLINDRICAL_SURFACE('',#737,0.001);
#623=CYLINDRICAL_SURFACE('',#738,0.0003);
#624=CYLINDRICAL_SURFACE('',#739,0.001);
#625=CYLINDRICAL_SURFACE('',#742,0.001);
#626=CYLINDRICAL_SURFACE('',#743,0.001);
#627=CYLINDRICAL_SURFACE('',#746,0.001);
#628=ADVANCED_FACE('',(#575),#609,.T.);
#629=ADVANCED_FACE('',(#576),#20,.T.);
#630=ADVANCED_FACE('',(#577),#21,.T.);
#631=ADVANCED_FACE('',(#578),#22,.T.);
#632=ADVANCED_FACE('',(#579),#23,.F.);
#633=ADVANCED_FACE('',(#580),#610,.T.);
#634=ADVANCED_FACE('',(#581),#611,.F.);
#635=ADVANCED_FACE('',(#582),#612,.F.);
#636=ADVANCED_FACE('',(#583),#24,.T.);
#637=ADVANCED_FACE('',(#584),#613,.F.);
#638=ADVANCED_FACE('',(#585),#614,.F.);
#639=ADVANCED_FACE('',(#586),#615,.F.);
#640=ADVANCED_FACE('',(#587),#25,.T.);
#641=ADVANCED_FACE('',(#588),#26,.F.);
#642=ADVANCED_FACE('',(#589),#616,.T.);
#643=ADVANCED_FACE('',(#590),#27,.F.);
#644=ADVANCED_FACE('',(#591),#28,.T.);
#645=ADVANCED_FACE('',(#592),#617,.F.);
#646=ADVANCED_FACE('',(#593),#618,.T.);
#647=ADVANCED_FACE('',(#594),#619,.T.);
#648=ADVANCED_FACE('',(#595),#620,.T.);
#649=ADVANCED_FACE('',(#596),#29,.T.);
#650=ADVANCED_FACE('',(#597),#30,.T.);
#651=ADVANCED_FACE('',(#598),#621,.T.);
#652=ADVANCED_FACE('',(#599),#622,.T.);
#653=ADVANCED_FACE('',(#600),#623,.T.);
#654=ADVANCED_FACE('',(#601),#624,.T.);
#655=ADVANCED_FACE('',(#602),#31,.T.);
#656=ADVANCED_FACE('',(#603),#32,.T.);
#657=ADVANCED_FACE('',(#604),#625,.T.);
#658=ADVANCED_FACE('',(#605),#626,.T.);
#659=ADVANCED_FACE('',(#606),#33,.T.);
#660=ADVANCED_FACE('',(#607),#34,.T.);
#661=ADVANCED_FACE('',(#608),#627,.T.);
#662=CLOSED_SHELL('',(#628,#629,#630,#631,#632,#633,#634,#635,#636,#637,
#638,#639,#640,#641,#642,#643,#644,#645,#646,#647,#648,#649,#650,#651,#652,
#653,#654,#655,#656,#657,#658,#659,#660,#661));
#663=STYLED_ITEM('',(#664),#671);
#664=PRESENTATION_STYLE_ASSIGNMENT((#665));
#665=SURFACE_STYLE_USAGE(.BOTH.,#666);
#666=SURFACE_SIDE_STYLE('',(#667));
#667=SURFACE_STYLE_FILL_AREA(#668);
#668=FILL_AREA_STYLE('',(#669));
#669=FILL_AREA_STYLE_COLOUR('',#670);
#670=COLOUR_RGB('',0.745098039215686,0.745098039215686,0.745098039215686);
#671=MANIFOLD_SOLID_BREP('KP0073-01_EndAxisHubShim',#662);
#672=SHAPE_DEFINITION_REPRESENTATION(#1152,#673);
#673=SHAPE_REPRESENTATION('KP0073-01_EndAxisHubShim',(#674),#1147);
#674=AXIS2_PLACEMENT_3D('',#951,#747,#748);
#675=AXIS2_PLACEMENT_3D('',#952,#749,#750);
#676=AXIS2_PLACEMENT_3D('',#953,#751,#752);
#677=AXIS2_PLACEMENT_3D('',#958,#754,#755);
#678=AXIS2_PLACEMENT_3D('',#961,#757,#758);
#679=AXIS2_PLACEMENT_3D('',#967,#762,#763);
#680=AXIS2_PLACEMENT_3D('',#968,#764,#765);
#681=AXIS2_PLACEMENT_3D('',#971,#766,#767);
#682=AXIS2_PLACEMENT_3D('',#973,#768,#769);
#683=AXIS2_PLACEMENT_3D('',#975,#770,#771);
#684=AXIS2_PLACEMENT_3D('',#977,#772,#773);
#685=AXIS2_PLACEMENT_3D('',#985,#777,#778);
#686=AXIS2_PLACEMENT_3D('',#989,#780,#781);
#687=AXIS2_PLACEMENT_3D('',#992,#783,#784);
#688=AXIS2_PLACEMENT_3D('',#996,#786,#787);
#689=AXIS2_PLACEMENT_3D('',#1004,#791,#792);
#690=AXIS2_PLACEMENT_3D('',#1006,#793,#794);
#691=AXIS2_PLACEMENT_3D('',#1008,#795,#796);
#692=AXIS2_PLACEMENT_3D('',#1010,#797,#798);
#693=AXIS2_PLACEMENT_3D('',#1012,#799,#800);
#694=AXIS2_PLACEMENT_3D('',#1014,#801,#802);
#695=AXIS2_PLACEMENT_3D('',#1016,#803,#804);
#696=AXIS2_PLACEMENT_3D('',#1024,#808,#809);
#697=AXIS2_PLACEMENT_3D('',#1026,#810,#811);
#698=AXIS2_PLACEMENT_3D('',#1027,#812,#813);
#699=AXIS2_PLACEMENT_3D('',#1031,#816,#817);
#700=AXIS2_PLACEMENT_3D('',#1032,#818,#819);
#701=AXIS2_PLACEMENT_3D('',#1035,#820,#821);
#702=AXIS2_PLACEMENT_3D('',#1037,#822,#823);
#703=AXIS2_PLACEMENT_3D('',#1039,#824,#825);
#704=AXIS2_PLACEMENT_3D('',#1047,#829,#830);
#705=AXIS2_PLACEMENT_3D('',#1049,#831,#832);
#706=AXIS2_PLACEMENT_3D('',#1051,#833,#834);
#707=AXIS2_PLACEMENT_3D('',#1053,#835,#836);
#708=AXIS2_PLACEMENT_3D('',#1055,#837,#838);
#709=AXIS2_PLACEMENT_3D('',#1057,#839,#840);
#710=AXIS2_PLACEMENT_3D('',#1059,#841,#842);
#711=AXIS2_PLACEMENT_3D('',#1067,#846,#847);
#712=AXIS2_PLACEMENT_3D('',#1071,#849,#850);
#713=AXIS2_PLACEMENT_3D('',#1072,#851,#852);
#714=AXIS2_PLACEMENT_3D('',#1076,#854,#855);
#715=AXIS2_PLACEMENT_3D('',#1084,#859,#860);
#716=AXIS2_PLACEMENT_3D('',#1086,#861,#862);
#717=AXIS2_PLACEMENT_3D('',#1088,#863,#864);
#718=AXIS2_PLACEMENT_3D('',#1089,#865,#866);
#719=AXIS2_PLACEMENT_3D('',#1091,#868,#869);
#720=AXIS2_PLACEMENT_3D('',#1094,#872,#873);
#721=AXIS2_PLACEMENT_3D('',#1097,#876,#877);
#722=AXIS2_PLACEMENT_3D('',#1100,#880,#881);
#723=AXIS2_PLACEMENT_3D('',#1103,#884,#885);
#724=AXIS2_PLACEMENT_3D('',#1106,#888,#889);
#725=AXIS2_PLACEMENT_3D('',#1109,#892,#893);
#726=AXIS2_PLACEMENT_3D('',#1112,#896,#897);
#727=AXIS2_PLACEMENT_3D('',#1115,#900,#901);
#728=AXIS2_PLACEMENT_3D('',#1116,#902,#903);
#729=AXIS2_PLACEMENT_3D('',#1118,#905,#906);
#730=AXIS2_PLACEMENT_3D('',#1121,#909,#910);
#731=AXIS2_PLACEMENT_3D('',#1124,#913,#914);
#732=AXIS2_PLACEMENT_3D('',#1125,#915,#916);
#733=AXIS2_PLACEMENT_3D('',#1126,#917,#918);
#734=AXIS2_PLACEMENT_3D('',#1128,#920,#921);
#735=AXIS2_PLACEMENT_3D('',#1130,#923,#924);
#736=AXIS2_PLACEMENT_3D('',#1131,#925,#926);
#737=AXIS2_PLACEMENT_3D('',#1132,#927,#928);
#738=AXIS2_PLACEMENT_3D('',#1133,#929,#930);
#739=AXIS2_PLACEMENT_3D('',#1134,#931,#932);
#740=AXIS2_PLACEMENT_3D('',#1136,#934,#935);
#741=AXIS2_PLACEMENT_3D('',#1138,#937,#938);
#742=AXIS2_PLACEMENT_3D('',#1139,#939,#940);
#743=AXIS2_PLACEMENT_3D('',#1140,#941,#942);
#744=AXIS2_PLACEMENT_3D('',#1142,#944,#945);
#745=AXIS2_PLACEMENT_3D('',#1144,#947,#948);
#746=AXIS2_PLACEMENT_3D('',#1145,#949,#950);
#747=DIRECTION('',(0.,0.,1.));
#748=DIRECTION('',(1.,0.,0.));
#749=DIRECTION('',(0.,-1.,0.));
#750=DIRECTION('',(1.,0.,0.));
#751=DIRECTION('',(0.,-1.,0.));
#752=DIRECTION('',(1.,0.,0.));
#753=DIRECTION('',(0.,-1.,0.));
#754=DIRECTION('',(0.,-1.,0.));
#755=DIRECTION('',(1.,0.,0.));
#756=DIRECTION('',(0.,-1.,0.));
#757=DIRECTION('',(0.200574048993202,0.,0.979678544661703));
#758=DIRECTION('',(-0.979678544661703,0.,0.200574048993202));
#759=DIRECTION('',(-0.979678544661703,0.,0.200574048993202));
#760=DIRECTION('',(0.,-1.,0.));
#761=DIRECTION('',(-0.979678544661703,0.,0.200574048993202));
#762=DIRECTION('',(0.,-1.,0.));
#763=DIRECTION('',(1.,0.,0.));
#764=DIRECTION('',(0.,-1.,0.));
#765=DIRECTION('',(1.,0.,0.));
#766=DIRECTION('',(0.,-1.,0.));
#767=DIRECTION('',(1.,0.,0.));
#768=DIRECTION('',(0.,1.,0.));
#769=DIRECTION('',(-1.,0.,0.));
#770=DIRECTION('',(0.,1.,0.));
#771=DIRECTION('',(-1.,0.,0.));
#772=DIRECTION('',(0.,1.,0.));
#773=DIRECTION('',(-1.,0.,0.));
#774=DIRECTION('',(-3.51672716816294E-16,0.,1.));
#775=DIRECTION('',(1.,0.,0.));
#776=DIRECTION('',(-1.36823260077128E-15,0.,-1.));
#777=DIRECTION('',(0.,-1.,0.));
#778=DIRECTION('',(1.,0.,0.));
#779=DIRECTION('',(1.,0.,0.));
#780=DIRECTION('',(0.,1.,0.));
#781=DIRECTION('',(-1.,0.,0.));
#782=DIRECTION('',(0.979678544661703,0.,0.200574048993204));
#783=DIRECTION('',(0.,-1.,0.));
#784=DIRECTION('',(1.,0.,0.));
#785=DIRECTION('',(1.,0.,0.));
#786=DIRECTION('',(0.,1.,0.));
#787=DIRECTION('',(-1.,0.,0.));
#788=DIRECTION('',(-1.95461800110183E-16,0.,-1.));
#789=DIRECTION('',(1.,0.,0.));
#790=DIRECTION('',(2.46170901771406E-15,0.,1.));
#791=DIRECTION('',(0.,-1.,0.));
#792=DIRECTION('',(1.,0.,0.));
#793=DIRECTION('',(0.,1.,0.));
#794=DIRECTION('',(-1.,0.,0.));
#795=DIRECTION('',(0.,-1.,0.));
#796=DIRECTION('',(1.,0.,0.));
#797=DIRECTION('',(0.,-1.,0.));
#798=DIRECTION('',(1.,0.,0.));
#799=DIRECTION('',(0.,1.,0.));
#800=DIRECTION('',(-1.,0.,0.));
#801=DIRECTION('',(0.,1.,0.));
#802=DIRECTION('',(-1.,0.,0.));
#803=DIRECTION('',(0.,1.,0.));
#804=DIRECTION('',(-1.,0.,0.));
#805=DIRECTION('',(-1.,0.,-8.79181792040735E-16));
#806=DIRECTION('',(0.,0.,1.));
#807=DIRECTION('',(1.,0.,-1.75836358408147E-16));
#808=DIRECTION('',(0.,-1.,0.));
#809=DIRECTION('',(1.,0.,0.));
#810=DIRECTION('',(0.,1.,0.));
#811=DIRECTION('',(-1.,0.,0.));
#812=DIRECTION('',(0.200574048993202,0.,-0.979678544661703));
#813=DIRECTION('',(0.979678544661703,0.,0.200574048993202));
#814=DIRECTION('',(0.979678544661703,0.,0.200574048993202));
#815=DIRECTION('',(0.,-1.,0.));
#816=DIRECTION('',(0.,-1.,0.));
#817=DIRECTION('',(1.,0.,0.));
#818=DIRECTION('',(0.,-1.,0.));
#819=DIRECTION('',(1.,0.,0.));
#820=DIRECTION('',(0.,-1.,0.));
#821=DIRECTION('',(1.,0.,0.));
#822=DIRECTION('',(0.,1.,0.));
#823=DIRECTION('',(-1.,0.,0.));
#824=DIRECTION('',(0.,-1.,0.));
#825=DIRECTION('',(1.,0.,0.));
#826=DIRECTION('',(1.,0.,-1.75836358408147E-16));
#827=DIRECTION('',(0.,0.,1.));
#828=DIRECTION('',(-1.,0.,-8.79181792040735E-16));
#829=DIRECTION('',(0.,1.,0.));
#830=DIRECTION('',(-1.,0.,0.));
#831=DIRECTION('',(0.,1.,0.));
#832=DIRECTION('',(-1.,0.,0.));
#833=DIRECTION('',(0.,1.,0.));
#834=DIRECTION('',(-1.,0.,0.));
#835=DIRECTION('',(0.,-1.,0.));
#836=DIRECTION('',(1.,0.,0.));
#837=DIRECTION('',(0.,-1.,0.));
#838=DIRECTION('',(1.,0.,0.));
#839=DIRECTION('',(0.,1.,0.));
#840=DIRECTION('',(-1.,0.,0.));
#841=DIRECTION('',(0.,-1.,0.));
#842=DIRECTION('',(1.,0.,0.));
#843=DIRECTION('',(2.46170901771406E-15,0.,1.));
#844=DIRECTION('',(1.,0.,0.));
#845=DIRECTION('',(-1.95461800110183E-16,0.,-1.));
#846=DIRECTION('',(0.,1.,0.));
#847=DIRECTION('',(-1.,0.,0.));
#848=DIRECTION('',(1.,0.,0.));
#849=DIRECTION('',(0.,-1.,0.));
#850=DIRECTION('',(1.,0.,0.));
#851=DIRECTION('',(0.,1.,0.));
#852=DIRECTION('',(-1.,0.,0.));
#853=DIRECTION('',(1.,0.,0.));
#854=DIRECTION('',(0.,-1.,0.));
#855=DIRECTION('',(1.,0.,0.));
#856=DIRECTION('',(-1.36823260077128E-15,0.,-1.));
#857=DIRECTION('',(1.,0.,0.));
#858=DIRECTION('',(-3.51672716816294E-16,0.,1.));
#859=DIRECTION('',(0.,1.,0.));
#860=DIRECTION('',(-1.,0.,0.));
#861=DIRECTION('',(0.,1.,0.));
#862=DIRECTION('',(-1.,0.,0.));
#863=DIRECTION('',(0.,1.,0.));
#864=DIRECTION('',(-1.,0.,0.));
#865=DIRECTION('',(0.,1.,0.));
#866=DIRECTION('',(-1.,0.,0.));
#867=DIRECTION('',(0.,1.,0.));
#868=DIRECTION('',(0.,-1.,0.));
#869=DIRECTION('',(1.,0.,0.));
#870=DIRECTION('',(0.,-1.,0.));
#871=DIRECTION('',(0.,-1.,0.));
#872=DIRECTION('',(0.,1.,0.));
#873=DIRECTION('',(-1.,0.,0.));
#874=DIRECTION('',(0.,1.,0.));
#875=DIRECTION('',(0.,1.,0.));
#876=DIRECTION('',(1.,0.,0.));
#877=DIRECTION('',(0.,1.,0.));
#878=DIRECTION('',(0.,1.,0.));
#879=DIRECTION('',(0.,1.,0.));
#880=DIRECTION('',(0.,1.,0.));
#881=DIRECTION('',(-1.,0.,0.));
#882=DIRECTION('',(0.,1.,0.));
#883=DIRECTION('',(0.,1.,0.));
#884=DIRECTION('',(0.,-1.,0.));
#885=DIRECTION('',(1.,0.,0.));
#886=DIRECTION('',(0.,-1.,0.));
#887=DIRECTION('',(0.,-1.,0.));
#888=DIRECTION('',(0.,1.,0.));
#889=DIRECTION('',(-1.,0.,0.));
#890=DIRECTION('',(0.,1.,0.));
#891=DIRECTION('',(0.,1.,0.));
#892=DIRECTION('',(0.,0.,1.));
#893=DIRECTION('',(0.,-1.,0.));
#894=DIRECTION('',(0.,-1.,0.));
#895=DIRECTION('',(0.,-1.,0.));
#896=DIRECTION('',(0.,0.,-1.));
#897=DIRECTION('',(0.,1.,0.));
#898=DIRECTION('',(0.,1.,0.));
#899=DIRECTION('',(0.,1.,0.));
#900=DIRECTION('',(0.,-1.,0.));
#901=DIRECTION('',(1.,0.,0.));
#902=DIRECTION('',(0.,0.,1.));
#903=DIRECTION('',(0.,-1.,0.));
#904=DIRECTION('',(0.,-1.,0.));
#905=DIRECTION('',(0.,0.,-1.));
#906=DIRECTION('',(0.,1.,0.));
#907=DIRECTION('',(0.,1.,0.));
#908=DIRECTION('',(0.,1.,0.));
#909=DIRECTION('',(0.,1.,0.));
#910=DIRECTION('',(-1.,0.,0.));
#911=DIRECTION('',(0.,1.,0.));
#912=DIRECTION('',(0.,1.,0.));
#913=DIRECTION('',(0.,1.,0.));
#914=DIRECTION('',(-1.,0.,0.));
#915=DIRECTION('',(0.,-1.,0.));
#916=DIRECTION('',(1.,0.,0.));
#917=DIRECTION('',(0.,-1.,0.));
#918=DIRECTION('',(1.,0.,0.));
#919=DIRECTION('',(0.,-1.,0.));
#920=DIRECTION('',(-8.79181792040735E-16,0.,1.));
#921=DIRECTION('',(-1.,0.,-8.79181792040735E-16));
#922=DIRECTION('',(0.,-1.,0.));
#923=DIRECTION('',(-1.75836358408147E-16,0.,-1.));
#924=DIRECTION('',(1.,0.,-1.75836358408147E-16));
#925=DIRECTION('',(0.,1.,0.));
#926=DIRECTION('',(-1.,0.,0.));
#927=DIRECTION('',(0.,1.,0.));
#928=DIRECTION('',(-1.,0.,0.));
#929=DIRECTION('',(0.,-1.,0.));
#930=DIRECTION('',(1.,0.,0.));
#931=DIRECTION('',(0.,-1.,0.));
#932=DIRECTION('',(1.,0.,0.));
#933=DIRECTION('',(0.,-1.,0.));
#934=DIRECTION('',(-1.,0.,1.95461800110183E-16));
#935=DIRECTION('',(-1.95461800110183E-16,0.,-1.));
#936=DIRECTION('',(0.,-1.,0.));
#937=DIRECTION('',(1.,0.,-2.46170901771406E-15));
#938=DIRECTION('',(2.46170901771406E-15,0.,1.));
#939=DIRECTION('',(0.,1.,0.));
#940=DIRECTION('',(-1.,0.,0.));
#941=DIRECTION('',(0.,-1.,0.));
#942=DIRECTION('',(1.,0.,0.));
#943=DIRECTION('',(0.,-1.,0.));
#944=DIRECTION('',(1.,0.,3.51672716816294E-16));
#945=DIRECTION('',(-3.51672716816294E-16,0.,1.));
#946=DIRECTION('',(0.,-1.,0.));
#947=DIRECTION('',(-1.,0.,1.36823260077128E-15));
#948=DIRECTION('',(-1.36823260077128E-15,0.,-1.));
#949=DIRECTION('',(0.,1.,0.));
#950=DIRECTION('',(-1.,0.,0.));
#951=CARTESIAN_POINT('',(0.,0.,0.));
#952=CARTESIAN_POINT('',(-4.08650781821363E-34,0.,1.08782961261037E-34));
#953=CARTESIAN_POINT('',(-4.08650781821363E-34,-0.01,1.08782961261037E-34));
#954=CARTESIAN_POINT('',(0.00381090693087085,-0.01,-0.0186138923485724));
#955=CARTESIAN_POINT('',(0.00381090693087084,-0.01,0.0186138923485724));
#956=CARTESIAN_POINT('',(0.00381090693087083,0.,0.0186138923485724));
#957=CARTESIAN_POINT('',(0.00381090693087084,0.,0.0186138923485724));
#958=CARTESIAN_POINT('',(-4.08650781821363E-34,0.,1.08782961261037E-34));
#959=CARTESIAN_POINT('',(0.00381090693087084,0.,-0.0186138923485724));
#960=CARTESIAN_POINT('',(0.00381090693087083,0.,-0.0186138923485724));
#961=CARTESIAN_POINT('',(0.0271772233480983,0.,0.0138300000000082));
#962=CARTESIAN_POINT('',(0.0271772233480983,-0.01,0.0138300000000082));
#963=CARTESIAN_POINT('',(0.0111405444002277,-0.01,0.0171132622971213));
#964=CARTESIAN_POINT('',(0.0111405444002277,0.,0.0171132622971213));
#965=CARTESIAN_POINT('',(0.0111405444002277,0.,0.0171132622971213));
#966=CARTESIAN_POINT('',(0.0271772233480983,0.,0.0138300000000082));
#967=CARTESIAN_POINT('',(0.00183138656457931,-0.01,-2.67735506589946E-18));
#968=CARTESIAN_POINT('',(-0.0116424459986673,-0.01,0.0092016063424669));
#969=CARTESIAN_POINT('',(-0.0114992680677386,-0.01,0.0094652350209049));
#970=CARTESIAN_POINT('',(-0.0114070815059625,-0.01,0.00901558603289346));
#971=CARTESIAN_POINT('',(-0.0107833784130949,-0.01,0.0107833784130949));
#972=CARTESIAN_POINT('',(-0.0094652350209049,-0.01,0.0114992680677386));
#973=CARTESIAN_POINT('',(-0.0092016063424669,-0.01,0.0116424459986673));
#974=CARTESIAN_POINT('',(-0.00901558603289346,-0.01,0.0114070815059625));
#975=CARTESIAN_POINT('',(0.,-0.01,0.));
#976=CARTESIAN_POINT('',(-0.00369019812299231,-0.01,0.0140635961906349));
#977=CARTESIAN_POINT('',(-0.00394399999999429,-0.01,0.0150308524168905));
#978=CARTESIAN_POINT('',(-0.00294399999999429,-0.01,0.0150308524168905));
#979=CARTESIAN_POINT('',(-0.00294399999999429,-0.01,0.0135130220158283));
#980=CARTESIAN_POINT('',(-0.00294399999999429,-0.01,0.0166700000000064));
#981=CARTESIAN_POINT('',(0.00183138656457931,-0.01,0.0166700000000064));
#982=CARTESIAN_POINT('',(0.0029439999999943,-0.01,0.0166700000000064));
#983=CARTESIAN_POINT('',(0.0029439999999943,-0.01,0.0166700000000064));
#984=CARTESIAN_POINT('',(0.00294399999999429,-0.01,0.0155396801890611));
#985=CARTESIAN_POINT('',(0.00394399999999429,-0.01,0.0155396801890611));
#986=CARTESIAN_POINT('',(0.00394399999999429,-0.01,0.0145396801890611));
#987=CARTESIAN_POINT('',(0.00183138656457931,-0.01,0.0145396801890611));
#988=CARTESIAN_POINT('',(0.0108797981365366,-0.01,0.0145396801890611));
#989=CARTESIAN_POINT('',(0.0108797981365366,-0.01,0.0158396801890611));
#990=CARTESIAN_POINT('',(0.00381090693087083,-0.01,-0.0186138923485724));
#991=CARTESIAN_POINT('',(0.0111405444002278,-0.01,-0.0171132622971213));
#992=CARTESIAN_POINT('',(0.0108797981365366,-0.01,-0.0158396801890611));
#993=CARTESIAN_POINT('',(0.0108797981365366,-0.01,-0.0145396801890611));
#994=CARTESIAN_POINT('',(0.00183138656457931,-0.01,-0.0145396801890611));
#995=CARTESIAN_POINT('',(0.00394399999999429,-0.01,-0.0145396801890611));
#996=CARTESIAN_POINT('',(0.00394399999999429,-0.01,-0.0155396801890611));
#997=CARTESIAN_POINT('',(0.0029439999999943,-0.01,-0.0155396801890611));
#998=CARTESIAN_POINT('',(0.0029439999999943,-0.01,-0.0138300000000081));
#999=CARTESIAN_POINT('',(0.0029439999999943,-0.01,-0.0166700000000064));
#1000=CARTESIAN_POINT('',(0.00183138656457931,-0.01,-0.0166700000000064));
#1001=CARTESIAN_POINT('',(-0.0029439999999943,-0.01,-0.0166700000000064));
#1002=CARTESIAN_POINT('',(-0.0029439999999943,-0.01,-0.0166700000000064));
#1003=CARTESIAN_POINT('',(-0.00294399999999429,-0.01,-0.0150308524168905));
#1004=CARTESIAN_POINT('',(-0.00394399999999429,-0.01,-0.0150308524168905));
#1005=CARTESIAN_POINT('',(-0.00369019812299231,-0.01,-0.0140635961906349));
#1006=CARTESIAN_POINT('',(0.,-0.01,0.));
#1007=CARTESIAN_POINT('',(-0.00901558603289346,-0.01,-0.0114070815059625));
#1008=CARTESIAN_POINT('',(-0.0092016063424669,-0.01,-0.0116424459986673));
#1009=CARTESIAN_POINT('',(-0.0094652350209049,-0.01,-0.0114992680677386));
#1010=CARTESIAN_POINT('',(-0.0107833784130949,-0.01,-0.0107833784130949));
#1011=CARTESIAN_POINT('',(-0.0114992680677386,-0.01,-0.0094652350209049));
#1012=CARTESIAN_POINT('',(-0.0116424459986673,-0.01,-0.0092016063424669));
#1013=CARTESIAN_POINT('',(-0.0114070815059625,-0.01,-0.00901558603289346));
#1014=CARTESIAN_POINT('',(0.,-0.01,0.));
#1015=CARTESIAN_POINT('',(-0.0140635961906349,-0.01,-0.0036901981229923));
#1016=CARTESIAN_POINT('',(-0.0150308524168905,-0.01,-0.00394399999999429));
#1017=CARTESIAN_POINT('',(-0.0150308524168905,-0.01,-0.00294399999999429));
#1018=CARTESIAN_POINT('',(-0.0135130220158283,-0.01,-0.00294399999999429));
#1019=CARTESIAN_POINT('',(-0.0166700000000064,-0.01,-0.00294399999999429));
#1020=CARTESIAN_POINT('',(-0.0166700000000064,-0.01,-2.67735506589946E-18));
#1021=CARTESIAN_POINT('',(-0.0166700000000064,-0.01,0.0029439999999943));
#1022=CARTESIAN_POINT('',(-0.0166700000000064,-0.01,0.0029439999999943));
#1023=CARTESIAN_POINT('',(-0.0150308524168905,-0.01,0.00294399999999429));
#1024=CARTESIAN_POINT('',(-0.0150308524168905,-0.01,0.00394399999999429));
#1025=CARTESIAN_POINT('',(-0.0140635961906349,-0.01,0.0036901981229923));
#1026=CARTESIAN_POINT('',(0.,-0.01,0.));
#1027=CARTESIAN_POINT('',(0.00381090693087083,0.,-0.0186138923485724));
#1028=CARTESIAN_POINT('',(0.00381090693087083,0.,-0.0186138923485724));
#1029=CARTESIAN_POINT('',(0.0111405444002278,0.,-0.0171132622971213));
#1030=CARTESIAN_POINT('',(0.0111405444002278,0.,-0.0171132622971213));
#1031=CARTESIAN_POINT('',(0.00183138656457931,0.,-2.67735506589946E-18));
#1032=CARTESIAN_POINT('',(-0.0107833784130949,0.,0.0107833784130949));
#1033=CARTESIAN_POINT('',(-0.0114992680677386,0.,0.0094652350209049));
#1034=CARTESIAN_POINT('',(-0.0094652350209049,0.,0.0114992680677386));
#1035=CARTESIAN_POINT('',(-0.0116424459986673,0.,0.0092016063424669));
#1036=CARTESIAN_POINT('',(-0.0114070815059625,0.,0.00901558603289346));
#1037=CARTESIAN_POINT('',(0.,0.,0.));
#1038=CARTESIAN_POINT('',(-0.0140635961906349,0.,0.0036901981229923));
#1039=CARTESIAN_POINT('',(-0.0150308524168905,0.,0.00394399999999429));
#1040=CARTESIAN_POINT('',(-0.0150308524168905,0.,0.00294399999999429));
#1041=CARTESIAN_POINT('',(-0.0166700000000064,0.,0.0029439999999943));
#1042=CARTESIAN_POINT('',(-0.0166700000000064,0.,0.0029439999999943));
#1043=CARTESIAN_POINT('',(-0.0166700000000064,0.,-2.67735506589946E-18));
#1044=CARTESIAN_POINT('',(-0.0166700000000064,0.,-0.00294399999999429));
#1045=CARTESIAN_POINT('',(-0.0135130220158283,0.,-0.00294399999999429));
#1046=CARTESIAN_POINT('',(-0.0150308524168905,0.,-0.00294399999999429));
#1047=CARTESIAN_POINT('',(-0.0150308524168905,0.,-0.00394399999999429));
#1048=CARTESIAN_POINT('',(-0.0140635961906349,0.,-0.0036901981229923));
#1049=CARTESIAN_POINT('',(0.,0.,0.));
#1050=CARTESIAN_POINT('',(-0.0114070815059625,0.,-0.00901558603289346));
#1051=CARTESIAN_POINT('',(-0.0116424459986673,0.,-0.0092016063424669));
#1052=CARTESIAN_POINT('',(-0.0114992680677386,0.,-0.0094652350209049));
#1053=CARTESIAN_POINT('',(-0.0107833784130949,0.,-0.0107833784130949));
#1054=CARTESIAN_POINT('',(-0.0094652350209049,0.,-0.0114992680677386));
#1055=CARTESIAN_POINT('',(-0.0092016063424669,0.,-0.0116424459986673));
#1056=CARTESIAN_POINT('',(-0.00901558603289346,0.,-0.0114070815059625));
#1057=CARTESIAN_POINT('',(0.,0.,0.));
#1058=CARTESIAN_POINT('',(-0.00369019812299231,0.,-0.0140635961906349));
#1059=CARTESIAN_POINT('',(-0.00394399999999429,0.,-0.0150308524168905));
#1060=CARTESIAN_POINT('',(-0.00294399999999429,0.,-0.0150308524168905));
#1061=CARTESIAN_POINT('',(-0.0029439999999943,0.,-0.0166700000000064));
#1062=CARTESIAN_POINT('',(-0.0029439999999943,0.,-0.0166700000000064));
#1063=CARTESIAN_POINT('',(0.00183138656457931,0.,-0.0166700000000064));
#1064=CARTESIAN_POINT('',(0.00294399999999429,0.,-0.0166700000000064));
#1065=CARTESIAN_POINT('',(0.0029439999999943,0.,-0.0138300000000081));
#1066=CARTESIAN_POINT('',(0.0029439999999943,0.,-0.0155396801890611));
#1067=CARTESIAN_POINT('',(0.00394399999999429,0.,-0.0155396801890611));
#1068=CARTESIAN_POINT('',(0.00394399999999429,0.,-0.0145396801890611));
#1069=CARTESIAN_POINT('',(0.00183138656457931,0.,-0.0145396801890611));
#1070=CARTESIAN_POINT('',(0.0108797981365366,0.,-0.0145396801890611));
#1071=CARTESIAN_POINT('',(0.0108797981365366,0.,-0.0158396801890611));
#1072=CARTESIAN_POINT('',(0.0108797981365366,0.,0.0158396801890611));
#1073=CARTESIAN_POINT('',(0.0108797981365366,0.,0.0145396801890611));
#1074=CARTESIAN_POINT('',(0.00183138656457931,0.,0.0145396801890611));
#1075=CARTESIAN_POINT('',(0.00394399999999429,0.,0.0145396801890611));
#1076=CARTESIAN_POINT('',(0.00394399999999429,0.,0.0155396801890611));
#1077=CARTESIAN_POINT('',(0.00294399999999429,0.,0.0155396801890611));
#1078=CARTESIAN_POINT('',(0.0029439999999943,0.,0.0166700000000064));
#1079=CARTESIAN_POINT('',(0.0029439999999943,0.,0.0166700000000064));
#1080=CARTESIAN_POINT('',(0.00183138656457931,0.,0.0166700000000064));
#1081=CARTESIAN_POINT('',(-0.00294399999999429,0.,0.0166700000000064));
#1082=CARTESIAN_POINT('',(-0.00294399999999429,0.,0.0135130220158283));
#1083=CARTESIAN_POINT('',(-0.00294399999999429,0.,0.0150308524168905));
#1084=CARTESIAN_POINT('',(-0.00394399999999429,0.,0.0150308524168905));
#1085=CARTESIAN_POINT('',(-0.00369019812299231,0.,0.0140635961906349));
#1086=CARTESIAN_POINT('',(0.,0.,0.));
#1087=CARTESIAN_POINT('',(-0.00901558603289346,0.,0.0114070815059625));
#1088=CARTESIAN_POINT('',(-0.0092016063424669,0.,0.0116424459986673));
#1089=CARTESIAN_POINT('',(0.0108797981365366,0.,0.0158396801890611));
#1090=CARTESIAN_POINT('',(0.0108797981365366,0.,0.0145396801890611));
#1091=CARTESIAN_POINT('',(-0.0107833784130949,0.,0.0107833784130949));
#1092=CARTESIAN_POINT('',(-0.0114992680677386,0.,0.00946523502090491));
#1093=CARTESIAN_POINT('',(-0.00946523502090491,0.,0.0114992680677386));
#1094=CARTESIAN_POINT('',(0.,-0.01,0.));
#1095=CARTESIAN_POINT('',(-0.0140635961906349,-0.01,0.0036901981229923));
#1096=CARTESIAN_POINT('',(-0.0114070815059625,-0.01,0.00901558603289346));
#1097=CARTESIAN_POINT('',(-0.0166700000000064,0.,-0.0029439999999943));
#1098=CARTESIAN_POINT('',(-0.0166700000000064,0.,-0.0029439999999943));
#1099=CARTESIAN_POINT('',(-0.0166700000000064,0.,0.0029439999999943));
#1100=CARTESIAN_POINT('',(0.,-0.01,0.));
#1101=CARTESIAN_POINT('',(-0.0140635961906349,-0.01,-0.0036901981229923));
#1102=CARTESIAN_POINT('',(-0.0114070815059625,-0.01,-0.00901558603289347));
#1103=CARTESIAN_POINT('',(-0.0107833784130949,0.,-0.0107833784130949));
#1104=CARTESIAN_POINT('',(-0.0114992680677386,0.,-0.00946523502090491));
#1105=CARTESIAN_POINT('',(-0.00946523502090491,0.,-0.0114992680677386));
#1106=CARTESIAN_POINT('',(0.,-0.01,0.));
#1107=CARTESIAN_POINT('',(-0.00369019812299231,-0.01,-0.0140635961906349));
#1108=CARTESIAN_POINT('',(-0.00901558603289346,-0.01,-0.0114070815059625));
#1109=CARTESIAN_POINT('',(0.00294399999999429,0.,-0.0166700000000064));
#1110=CARTESIAN_POINT('',(0.00294399999999429,0.,-0.0166700000000064));
#1111=CARTESIAN_POINT('',(-0.0029439999999943,0.,-0.0166700000000064));
#1112=CARTESIAN_POINT('',(0.0200408838743409,-0.01,-0.0145396801890611));
#1113=CARTESIAN_POINT('',(0.0108797981365366,-0.01,-0.0145396801890611));
#1114=CARTESIAN_POINT('',(0.00394399999999429,-0.01,-0.0145396801890611));
#1115=CARTESIAN_POINT('',(0.0108797981365366,0.,-0.0158396801890611));
#1116=CARTESIAN_POINT('',(0.,-0.01,0.0145396801890611));
#1117=CARTESIAN_POINT('',(0.00394399999999429,-0.01,0.0145396801890611));
#1118=CARTESIAN_POINT('',(-0.00294399999999429,0.,0.0166700000000064));
#1119=CARTESIAN_POINT('',(-0.00294399999999429,0.,0.0166700000000064));
#1120=CARTESIAN_POINT('',(0.0029439999999943,0.,0.0166700000000064));
#1121=CARTESIAN_POINT('',(0.,-0.01,0.));
#1122=CARTESIAN_POINT('',(-0.00369019812299231,-0.01,0.0140635961906349));
#1123=CARTESIAN_POINT('',(-0.00901558603289346,-0.01,0.0114070815059625));
#1124=CARTESIAN_POINT('',(-0.0092016063424669,-0.01,0.0116424459986673));
#1125=CARTESIAN_POINT('',(-0.0116424459986673,-0.01,0.0092016063424669));
#1126=CARTESIAN_POINT('',(-0.0150308524168905,-0.01,0.00394399999999429));
#1127=CARTESIAN_POINT('',(-0.0150308524168905,-0.01,0.00294399999999429));
#1128=CARTESIAN_POINT('',(-0.0135130220158283,0.,-0.00294399999999429));
#1129=CARTESIAN_POINT('',(-0.0150308524168905,0.,-0.00294399999999429));
#1130=CARTESIAN_POINT('',(-0.0166700000000064,0.,0.0029439999999943));
#1131=CARTESIAN_POINT('',(-0.0116424459986673,-0.01,-0.0092016063424669));
#1132=CARTESIAN_POINT('',(-0.0150308524168905,-0.01,-0.00394399999999429));
#1133=CARTESIAN_POINT('',(-0.0092016063424669,-0.01,-0.0116424459986673));
#1134=CARTESIAN_POINT('',(-0.00394399999999429,-0.01,-0.0150308524168905));
#1135=CARTESIAN_POINT('',(-0.00294399999999429,-0.01,-0.0150308524168905));
#1136=CARTESIAN_POINT('',(0.0029439999999943,0.,-0.0138300000000081));
#1137=CARTESIAN_POINT('',(0.0029439999999943,0.,-0.0155396801890611));
#1138=CARTESIAN_POINT('',(-0.0029439999999943,0.,-0.0166700000000064));
#1139=CARTESIAN_POINT('',(0.00394399999999429,-0.005,-0.0155396801890611));
#1140=CARTESIAN_POINT('',(0.00394399999999429,-0.005,0.0155396801890611));
#1141=CARTESIAN_POINT('',(0.00294399999999429,-0.005,0.0155396801890611));
#1142=CARTESIAN_POINT('',(-0.00294399999999429,0.,0.0135130220158283));
#1143=CARTESIAN_POINT('',(-0.00294399999999429,0.,0.0150308524168905));
#1144=CARTESIAN_POINT('',(0.0029439999999943,0.,0.0166700000000064));
#1145=CARTESIAN_POINT('',(-0.00394399999999429,-0.01,0.0150308524168905));
#1146=MECHANICAL_DESIGN_GEOMETRIC_PRESENTATION_REPRESENTATION('',(#663),
#1147);
#1147=(
GEOMETRIC_REPRESENTATION_CONTEXT(3)
GLOBAL_UNCERTAINTY_ASSIGNED_CONTEXT((#1148))
GLOBAL_UNIT_ASSIGNED_CONTEXT((#1151,#1150,#1149))
REPRESENTATION_CONTEXT('KP0073-01_EndAxisHubShim',
'TOP_LEVEL_ASSEMBLY_PART')
);
#1148=UNCERTAINTY_MEASURE_WITH_UNIT(LENGTH_MEASURE(4.12310562662742E-8),
#1151,'DISTANCE_ACCURACY_VALUE','Maximum Tolerance applied to model');
#1149=(
NAMED_UNIT(*)
SI_UNIT($,.STERADIAN.)
SOLID_ANGLE_UNIT()
);
#1150=(
NAMED_UNIT(*)
PLANE_ANGLE_UNIT()
SI_UNIT($,.RADIAN.)
);
#1151=(
LENGTH_UNIT()
NAMED_UNIT(*)
SI_UNIT($,.METRE.)
);
#1152=PRODUCT_DEFINITION_SHAPE('','',#1153);
#1153=PRODUCT_DEFINITION('','',#1155,#1154);
#1154=PRODUCT_DEFINITION_CONTEXT('',#1161,'design');
#1155=PRODUCT_DEFINITION_FORMATION_WITH_SPECIFIED_SOURCE('','',#1157,
 .NOT_KNOWN.);
#1156=PRODUCT_RELATED_PRODUCT_CATEGORY('','',(#1157));
#1157=PRODUCT('KP0073-01_EndAxisHubShim','KP0073-01_EndAxisHubShim',
'KP0073-01_EndAxisHubShim',(#1159));
#1158=PRODUCT_CATEGORY('','');
#1159=PRODUCT_CONTEXT('',#1161,'mechanical');
#1160=APPLICATION_PROTOCOL_DEFINITION('international standard',
'automotive_design',2010,#1161);
#1161=APPLICATION_CONTEXT(
'core data for automotive mechanical design processes');
ENDSEC;
END-ISO-10303-21;
