ISO-10303-21;
HEADER;
/* Generated by software containing ST-Developer
 * from STEP Tools, Inc. (www.steptools.com) 
 */
/* OPTION: using custom renumber hook */

FILE_DESCRIPTION(
/* description */ ('STEP AP214',
'CAx-IF Rec.Pracs.---User Defined Attributes---1.5---2016-08-15'),
/* implementation_level */ '2;1');

FILE_NAME(
/* name */ '6a65b52765321e5002a56780',
/* time_stamp */ '2026-07-26T07:20:07Z',
/* author */ (''),
/* organization */ (''),
/* preprocessor_version */ 'ST-DEVELOPER v20',
/* originating_system */ 'ONSHAPE BY PTC INC, 1.218',
/* authorisation */ '  ');

FILE_SCHEMA (('AUTOMOTIVE_DESIGN {1 0 10303 214 3 1 1}'));
ENDSEC;

DATA;
#10=PROPERTY_DEFINITION_REPRESENTATION(#14,#12);
#11=PROPERTY_DEFINITION_REPRESENTATION(#15,#13);
#12=REPRESENTATION('',(#16),#532);
#13=REPRESENTATION('',(#17),#532);
#14=PROPERTY_DEFINITION('pmi validation property','',#537);
#15=PROPERTY_DEFINITION('pmi validation property','',#537);
#16=VALUE_REPRESENTATION_ITEM('number of annotations',COUNT_MEASURE(0.));
#17=VALUE_REPRESENTATION_ITEM('number of views',COUNT_MEASURE(0.));
#18=SHAPE_REPRESENTATION_RELATIONSHIP('','',#218,#19);
#19=ADVANCED_BREP_SHAPE_REPRESENTATION('',(#216),#532);
#20=CONICAL_SURFACE('',#232,0.00549999999998363,0.785398163397448);
#21=CONICAL_SURFACE('',#241,0.00855000000000026,0.785398163400003);
#22=PLANE('',#225);
#23=PLANE('',#227);
#24=PLANE('',#237);
#25=PLANE('',#243);
#26=PLANE('',#245);
#27=B_SPLINE_CURVE_WITH_KNOTS('',3,(#316,#317,#318,#319,#320,#321,#322,
#323,#324,#325,#326,#327,#328,#329,#330,#331,#332,#333,#334,#335,#336,#337,
#338,#339,#340,#341,#342,#343,#344,#345,#346,#347,#348,#349,#350),
 .UNSPECIFIED.,.T.,.F.,(1,1,1,1,1,1,1,1,1,1,1,1,1,1,1,1,1,1,1,1,1,1,1,1,
1,1,1,1,1,1,1,1,1,1,1,1,1,1,1),(-0.0953947368421053,-0.0641447368421053,
-0.0328947368421053,0.,0.0296875,0.060859375,0.09210546875,0.1233552734375,
0.154605263671875,0.185855263183594,0.21710526315918,0.248355263157959,
0.279605263157898,0.310855263157895,0.342105263157895,0.373355263157895,
0.404605263157895,0.435855263157895,0.467105263157895,0.498355263157895,
0.529605263157895,0.560855263157895,0.592105263157895,0.623355263157895,
0.654605263157895,0.685855263157895,0.717105263157895,0.748355263157895,
0.779605263157895,0.810855263157895,0.842105263157895,0.873355263157895,
0.904605263157895,0.935855263157895,0.967105263157895,1.,1.0296875,1.060859375,
1.09210546875),.UNSPECIFIED.);
#28=B_SPLINE_CURVE_WITH_KNOTS('',3,(#353,#354,#355,#356,#357,#358,#359,
#360,#361,#362,#363,#364,#365,#366,#367,#368,#369,#370,#371,#372,#373,#374,
#375,#376,#377,#378,#379,#380,#381,#382,#383,#384,#385,#386,#387),
 .UNSPECIFIED.,.T.,.F.,(1,1,1,1,1,1,1,1,1,1,1,1,1,1,1,1,1,1,1,1,1,1,1,1,
1,1,1,1,1,1,1,1,1,1,1,1,1,1,1),(-0.0953947368421053,-0.0641447368421053,
-0.0328947368421053,0.,0.0296875,0.060859375,0.09210546875,0.1233552734375,
0.154605263671875,0.185855263183594,0.21710526315918,0.248355263157959,
0.279605263157898,0.310855263157895,0.342105263157895,0.373355263157895,
0.404605263157895,0.435855263157895,0.467105263157895,0.498355263157895,
0.529605263157895,0.560855263157895,0.592105263157895,0.623355263157895,
0.654605263157895,0.685855263157895,0.717105263157895,0.748355263157895,
0.779605263157895,0.810855263157895,0.842105263157895,0.873355263157895,
0.904605263157895,0.935855263157895,0.967105263157895,1.,1.0296875,1.060859375,
1.09210546875),.UNSPECIFIED.);
#29=B_SPLINE_CURVE_WITH_KNOTS('',3,(#393,#394,#395,#396,#397,#398,#399,
#400,#401,#402,#403,#404,#405,#406,#407,#408,#409,#410,#411,#412,#413,#414,
#415,#416,#417,#418,#419,#420,#421,#422,#423,#424,#425,#426,#427),
 .UNSPECIFIED.,.T.,.F.,(1,1,1,1,1,1,1,1,1,1,1,1,1,1,1,1,1,1,1,1,1,1,1,1,
1,1,1,1,1,1,1,1,1,1,1,1,1,1,1),(-0.0953947368421053,-0.0641447368421053,
-0.0328947368421053,0.,0.0296875,0.060859375,0.09210546875,0.1233552734375,
0.154605263671875,0.185855263183594,0.21710526315918,0.248355263157959,
0.279605263157898,0.310855263157895,0.342105263157895,0.373355263157895,
0.404605263157895,0.435855263157895,0.467105263157895,0.498355263157895,
0.529605263157895,0.560855263157895,0.592105263157895,0.623355263157895,
0.654605263157895,0.685855263157895,0.717105263157895,0.748355263157895,
0.779605263157895,0.810855263157895,0.842105263157895,0.873355263157895,
0.904605263157895,0.935855263157895,0.967105263157895,1.,1.0296875,1.060859375,
1.09210546875),.UNSPECIFIED.);
#30=B_SPLINE_CURVE_WITH_KNOTS('',3,(#442,#443,#444,#445,#446,#447,#448,
#449,#450,#451,#452,#453,#454,#455,#456,#457,#458,#459,#460,#461,#462,#463,
#464,#465,#466,#467,#468,#469,#470,#471,#472,#473,#474,#475,#476),
 .UNSPECIFIED.,.T.,.F.,(1,1,1,1,1,1,1,1,1,1,1,1,1,1,1,1,1,1,1,1,1,1,1,1,
1,1,1,1,1,1,1,1,1,1,1,1,1,1,1),(-0.0953947368421053,-0.0641447368421053,
-0.0328947368421053,0.,0.0296875,0.060859375,0.09210546875,0.1233552734375,
0.154605263671875,0.185855263183594,0.21710526315918,0.248355263157959,
0.279605263157898,0.310855263157895,0.342105263157895,0.373355263157895,
0.404605263157895,0.435855263157895,0.467105263157895,0.498355263157895,
0.529605263157895,0.560855263157895,0.592105263157895,0.623355263157895,
0.654605263157895,0.685855263157895,0.717105263157895,0.748355263157895,
0.779605263157895,0.810855263157895,0.842105263157895,0.873355263157895,
0.904605263157895,0.935855263157895,0.967105263157895,1.,1.0296875,1.060859375,
1.09210546875),.UNSPECIFIED.);
#31=B_SPLINE_CURVE_WITH_KNOTS('',3,(#491,#492,#493,#494,#495,#496,#497,
#498,#499,#500,#501,#502,#503,#504,#505,#506,#507,#508,#509,#510,#511,#512,
#513,#514,#515,#516,#517,#518,#519,#520,#521,#522,#523,#524,#525),
 .UNSPECIFIED.,.T.,.F.,(1,1,1,1,1,1,1,1,1,1,1,1,1,1,1,1,1,1,1,1,1,1,1,1,
1,1,1,1,1,1,1,1,1,1,1,1,1,1,1),(-0.0953947368421053,-0.0641447368421053,
-0.0328947368421053,0.,0.0296875,0.060859375,0.09210546875,0.1233552734375,
0.154605263671875,0.185855263183594,0.21710526315918,0.248355263157959,
0.279605263157898,0.310855263157895,0.342105263157895,0.373355263157895,
0.404605263157895,0.435855263157895,0.467105263157895,0.498355263157895,
0.529605263157895,0.560855263157895,0.592105263157895,0.623355263157895,
0.654605263157895,0.685855263157895,0.717105263157895,0.748355263157895,
0.779605263157895,0.810855263157895,0.842105263157895,0.873355263157895,
0.904605263157895,0.935855263157895,0.967105263157895,1.,1.0296875,1.060859375,
1.09210546875),.UNSPECIFIED.);
#32=TOROIDAL_SURFACE('',#223,0.00545,0.001);
#33=TOROIDAL_SURFACE('',#224,0.00695,0.0005);
#34=TOROIDAL_SURFACE('',#230,0.00765,0.0005);
#35=TOROIDAL_SURFACE('',#236,0.00825,0.0001);
#36=TOROIDAL_SURFACE('',#248,0.00645,0.0003);
#37=ORIENTED_EDGE('',*,*,#71,.T.);
#38=ORIENTED_EDGE('',*,*,#72,.T.);
#39=ORIENTED_EDGE('',*,*,#73,.T.);
#40=ORIENTED_EDGE('',*,*,#71,.F.);
#41=ORIENTED_EDGE('',*,*,#72,.F.);
#42=ORIENTED_EDGE('',*,*,#74,.F.);
#43=ORIENTED_EDGE('',*,*,#75,.T.);
#44=ORIENTED_EDGE('',*,*,#73,.F.);
#45=ORIENTED_EDGE('',*,*,#74,.T.);
#46=ORIENTED_EDGE('',*,*,#76,.T.);
#47=ORIENTED_EDGE('',*,*,#77,.F.);
#48=ORIENTED_EDGE('',*,*,#75,.F.);
#49=ORIENTED_EDGE('',*,*,#76,.F.);
#50=ORIENTED_EDGE('',*,*,#78,.F.);
#51=ORIENTED_EDGE('',*,*,#77,.T.);
#52=ORIENTED_EDGE('',*,*,#79,.F.);
#53=ORIENTED_EDGE('',*,*,#78,.T.);
#54=ORIENTED_EDGE('',*,*,#80,.F.);
#55=ORIENTED_EDGE('',*,*,#81,.T.);
#56=ORIENTED_EDGE('',*,*,#80,.T.);
#57=ORIENTED_EDGE('',*,*,#81,.F.);
#58=ORIENTED_EDGE('',*,*,#82,.F.);
#59=ORIENTED_EDGE('',*,*,#83,.T.);
#60=ORIENTED_EDGE('',*,*,#82,.T.);
#61=ORIENTED_EDGE('',*,*,#83,.F.);
#62=ORIENTED_EDGE('',*,*,#84,.T.);
#63=ORIENTED_EDGE('',*,*,#79,.T.);
#64=ORIENTED_EDGE('',*,*,#85,.F.);
#65=ORIENTED_EDGE('',*,*,#86,.F.);
#66=ORIENTED_EDGE('',*,*,#84,.F.);
#67=ORIENTED_EDGE('',*,*,#85,.T.);
#68=ORIENTED_EDGE('',*,*,#87,.F.);
#69=ORIENTED_EDGE('',*,*,#86,.T.);
#70=ORIENTED_EDGE('',*,*,#87,.T.);
#71=EDGE_CURVE('',#88,#88,#105,.T.);
#72=EDGE_CURVE('',#89,#89,#106,.F.);
#73=EDGE_CURVE('',#90,#90,#27,.F.);
#74=EDGE_CURVE('',#91,#91,#28,.T.);
#75=EDGE_CURVE('',#92,#92,#107,.T.);
#76=EDGE_CURVE('',#93,#93,#29,.T.);
#77=EDGE_CURVE('',#94,#94,#108,.F.);
#78=EDGE_CURVE('',#95,#95,#109,.F.);
#79=EDGE_CURVE('',#96,#96,#110,.T.);
#80=EDGE_CURVE('',#97,#97,#111,.F.);
#81=EDGE_CURVE('',#98,#98,#30,.T.);
#82=EDGE_CURVE('',#99,#99,#112,.F.);
#83=EDGE_CURVE('',#100,#100,#113,.T.);
#84=EDGE_CURVE('',#101,#101,#114,.T.);
#85=EDGE_CURVE('',#102,#102,#115,.F.);
#86=EDGE_CURVE('',#103,#103,#31,.T.);
#87=EDGE_CURVE('',#104,#104,#116,.F.);
#88=VERTEX_POINT('',#312);
#89=VERTEX_POINT('',#314);
#90=VERTEX_POINT('',#351);
#91=VERTEX_POINT('',#388);
#92=VERTEX_POINT('',#391);
#93=VERTEX_POINT('',#428);
#94=VERTEX_POINT('',#431);
#95=VERTEX_POINT('',#434);
#96=VERTEX_POINT('',#437);
#97=VERTEX_POINT('',#440);
#98=VERTEX_POINT('',#477);
#99=VERTEX_POINT('',#480);
#100=VERTEX_POINT('',#483);
#101=VERTEX_POINT('',#486);
#102=VERTEX_POINT('',#489);
#103=VERTEX_POINT('',#526);
#104=VERTEX_POINT('',#529);
#105=CIRCLE('',#221,0.00645);
#106=CIRCLE('',#222,0.00645);
#107=CIRCLE('',#226,0.0045);
#108=CIRCLE('',#229,0.0045);
#109=CIRCLE('',#231,0.00815);
#110=CIRCLE('',#233,0.00579999999997426);
#111=CIRCLE('',#235,0.00815);
#112=CIRCLE('',#238,0.00855);
#113=CIRCLE('',#240,0.00855);
#114=CIRCLE('',#242,0.00834999999999975);
#115=CIRCLE('',#244,0.00615);
#116=CIRCLE('',#247,0.00615);
#117=EDGE_LOOP('',(#37));
#118=EDGE_LOOP('',(#38));
#119=EDGE_LOOP('',(#39));
#120=EDGE_LOOP('',(#40));
#121=EDGE_LOOP('',(#41));
#122=EDGE_LOOP('',(#42));
#123=EDGE_LOOP('',(#43));
#124=EDGE_LOOP('',(#44));
#125=EDGE_LOOP('',(#45));
#126=EDGE_LOOP('',(#46));
#127=EDGE_LOOP('',(#47));
#128=EDGE_LOOP('',(#48));
#129=EDGE_LOOP('',(#49));
#130=EDGE_LOOP('',(#50));
#131=EDGE_LOOP('',(#51));
#132=EDGE_LOOP('',(#52));
#133=EDGE_LOOP('',(#53));
#134=EDGE_LOOP('',(#54));
#135=EDGE_LOOP('',(#55));
#136=EDGE_LOOP('',(#56));
#137=EDGE_LOOP('',(#57));
#138=EDGE_LOOP('',(#58));
#139=EDGE_LOOP('',(#59));
#140=EDGE_LOOP('',(#60));
#141=EDGE_LOOP('',(#61));
#142=EDGE_LOOP('',(#62));
#143=EDGE_LOOP('',(#63));
#144=EDGE_LOOP('',(#64));
#145=EDGE_LOOP('',(#65));
#146=EDGE_LOOP('',(#66));
#147=EDGE_LOOP('',(#67));
#148=EDGE_LOOP('',(#68));
#149=EDGE_LOOP('',(#69));
#150=EDGE_LOOP('',(#70));
#151=FACE_BOUND('',#117,.T.);
#152=FACE_BOUND('',#118,.T.);
#153=FACE_BOUND('',#119,.T.);
#154=FACE_BOUND('',#120,.T.);
#155=FACE_BOUND('',#121,.T.);
#156=FACE_BOUND('',#122,.T.);
#157=FACE_BOUND('',#123,.T.);
#158=FACE_BOUND('',#124,.T.);
#159=FACE_BOUND('',#125,.T.);
#160=FACE_BOUND('',#126,.T.);
#161=FACE_BOUND('',#127,.T.);
#162=FACE_BOUND('',#128,.T.);
#163=FACE_BOUND('',#129,.T.);
#164=FACE_BOUND('',#130,.T.);
#165=FACE_BOUND('',#131,.T.);
#166=FACE_BOUND('',#132,.T.);
#167=FACE_BOUND('',#133,.T.);
#168=FACE_BOUND('',#134,.T.);
#169=FACE_BOUND('',#135,.T.);
#170=FACE_BOUND('',#136,.T.);
#171=FACE_BOUND('',#137,.T.);
#172=FACE_BOUND('',#138,.T.);
#173=FACE_BOUND('',#139,.T.);
#174=FACE_BOUND('',#140,.T.);
#175=FACE_BOUND('',#141,.T.);
#176=FACE_BOUND('',#142,.T.);
#177=FACE_BOUND('',#143,.T.);
#178=FACE_BOUND('',#144,.T.);
#179=FACE_BOUND('',#145,.T.);
#180=FACE_BOUND('',#146,.T.);
#181=FACE_BOUND('',#147,.T.);
#182=FACE_BOUND('',#148,.T.);
#183=FACE_BOUND('',#149,.T.);
#184=FACE_BOUND('',#150,.T.);
#185=CYLINDRICAL_SURFACE('',#220,0.00645);
#186=CYLINDRICAL_SURFACE('',#228,0.0045);
#187=CYLINDRICAL_SURFACE('',#234,0.00815);
#188=CYLINDRICAL_SURFACE('',#239,0.00855);
#189=CYLINDRICAL_SURFACE('',#246,0.00615);
#190=ADVANCED_FACE('',(#151,#152),#185,.T.);
#191=ADVANCED_FACE('',(#153,#154),#32,.T.);
#192=ADVANCED_FACE('',(#155,#156),#33,.F.);
#193=ADVANCED_FACE('',(#157,#158),#22,.T.);
#194=ADVANCED_FACE('',(#159,#160),#23,.T.);
#195=ADVANCED_FACE('',(#161,#162),#186,.F.);
#196=ADVANCED_FACE('',(#163,#164),#34,.F.);
#197=ADVANCED_FACE('',(#165,#166),#20,.F.);
#198=ADVANCED_FACE('',(#167,#168),#187,.F.);
#199=ADVANCED_FACE('',(#169,#170),#35,.T.);
#200=ADVANCED_FACE('',(#171,#172),#24,.F.);
#201=ADVANCED_FACE('',(#173,#174),#188,.T.);
#202=ADVANCED_FACE('',(#175,#176),#21,.T.);
#203=ADVANCED_FACE('',(#177,#178),#25,.F.);
#204=ADVANCED_FACE('',(#179,#180),#26,.F.);
#205=ADVANCED_FACE('',(#181,#182),#189,.F.);
#206=ADVANCED_FACE('',(#183,#184),#36,.T.);
#207=CLOSED_SHELL('',(#190,#191,#192,#193,#194,#195,#196,#197,#198,#199,
#200,#201,#202,#203,#204,#205,#206));
#208=STYLED_ITEM('',(#209),#216);
#209=PRESENTATION_STYLE_ASSIGNMENT((#210));
#210=SURFACE_STYLE_USAGE(.BOTH.,#211);
#211=SURFACE_SIDE_STYLE('',(#212));
#212=SURFACE_STYLE_FILL_AREA(#213);
#213=FILL_AREA_STYLE('',(#214));
#214=FILL_AREA_STYLE_COLOUR('',#215);
#215=COLOUR_RGB('',0.745098039215686,0.745098039215686,0.745098039215686);
#216=MANIFOLD_SOLID_BREP('KP0075-01_ToolShaftEndCap',#207);
#217=SHAPE_DEFINITION_REPRESENTATION(#537,#218);
#218=SHAPE_REPRESENTATION('KP0075-01_ToolShaftEndCap',(#219),#532);
#219=AXIS2_PLACEMENT_3D('',#309,#249,#250);
#220=AXIS2_PLACEMENT_3D('',#310,#251,#252);
#221=AXIS2_PLACEMENT_3D('',#311,#253,#254);
#222=AXIS2_PLACEMENT_3D('',#313,#255,#256);
#223=AXIS2_PLACEMENT_3D('',#315,#257,#258);
#224=AXIS2_PLACEMENT_3D('',#352,#259,#260);
#225=AXIS2_PLACEMENT_3D('',#389,#261,#262);
#226=AXIS2_PLACEMENT_3D('',#390,#263,#264);
#227=AXIS2_PLACEMENT_3D('',#392,#265,#266);
#228=AXIS2_PLACEMENT_3D('',#429,#267,#268);
#229=AXIS2_PLACEMENT_3D('',#430,#269,#270);
#230=AXIS2_PLACEMENT_3D('',#432,#271,#272);
#231=AXIS2_PLACEMENT_3D('',#433,#273,#274);
#232=AXIS2_PLACEMENT_3D('',#435,#275,#276);
#233=AXIS2_PLACEMENT_3D('',#436,#277,#278);
#234=AXIS2_PLACEMENT_3D('',#438,#279,#280);
#235=AXIS2_PLACEMENT_3D('',#439,#281,#282);
#236=AXIS2_PLACEMENT_3D('',#441,#283,#284);
#237=AXIS2_PLACEMENT_3D('',#478,#285,#286);
#238=AXIS2_PLACEMENT_3D('',#479,#287,#288);
#239=AXIS2_PLACEMENT_3D('',#481,#289,#290);
#240=AXIS2_PLACEMENT_3D('',#482,#291,#292);
#241=AXIS2_PLACEMENT_3D('',#484,#293,#294);
#242=AXIS2_PLACEMENT_3D('',#485,#295,#296);
#243=AXIS2_PLACEMENT_3D('',#487,#297,#298);
#244=AXIS2_PLACEMENT_3D('',#488,#299,#300);
#245=AXIS2_PLACEMENT_3D('',#490,#301,#302);
#246=AXIS2_PLACEMENT_3D('',#527,#303,#304);
#247=AXIS2_PLACEMENT_3D('',#528,#305,#306);
#248=AXIS2_PLACEMENT_3D('',#530,#307,#308);
#249=DIRECTION('',(0.,0.,1.));
#250=DIRECTION('',(1.,0.,0.));
#251=DIRECTION('',(0.,-1.,0.));
#252=DIRECTION('',(1.,0.,0.));
#253=DIRECTION('',(0.,-1.,0.));
#254=DIRECTION('',(1.,0.,0.));
#255=DIRECTION('',(0.,-1.,0.));
#256=DIRECTION('',(1.,0.,0.));
#257=DIRECTION('',(0.,1.,0.));
#258=DIRECTION('',(-1.,0.,0.));
#259=DIRECTION('',(0.,1.,0.));
#260=DIRECTION('',(-1.,0.,0.));
#261=DIRECTION('',(0.,1.,0.));
#262=DIRECTION('',(-1.,0.,0.));
#263=DIRECTION('',(0.,-1.,0.));
#264=DIRECTION('',(1.,0.,0.));
#265=DIRECTION('',(0.,1.,0.));
#266=DIRECTION('',(-1.,0.,0.));
#267=DIRECTION('',(0.,-1.,0.));
#268=DIRECTION('',(1.,0.,0.));
#269=DIRECTION('',(0.,-1.,0.));
#270=DIRECTION('',(1.,0.,0.));
#271=DIRECTION('',(0.,1.,0.));
#272=DIRECTION('',(-1.,0.,0.));
#273=DIRECTION('',(0.,1.,0.));
#274=DIRECTION('',(-1.,0.,0.));
#275=DIRECTION('',(0.,-1.,0.));
#276=DIRECTION('',(1.,0.,0.));
#277=DIRECTION('',(0.,1.,0.));
#278=DIRECTION('',(-1.,0.,0.));
#279=DIRECTION('',(0.,1.,0.));
#280=DIRECTION('',(-1.,0.,0.));
#281=DIRECTION('',(0.,1.,0.));
#282=DIRECTION('',(-1.,0.,0.));
#283=DIRECTION('',(0.,-1.,0.));
#284=DIRECTION('',(1.,0.,0.));
#285=DIRECTION('',(0.,-1.,0.));
#286=DIRECTION('',(1.,0.,0.));
#287=DIRECTION('',(0.,1.,0.));
#288=DIRECTION('',(-1.,0.,0.));
#289=DIRECTION('',(0.,1.,0.));
#290=DIRECTION('',(-1.,0.,0.));
#291=DIRECTION('',(0.,1.,0.));
#292=DIRECTION('',(-1.,0.,0.));
#293=DIRECTION('',(0.,1.,0.));
#294=DIRECTION('',(-1.,0.,0.));
#295=DIRECTION('',(0.,1.,0.));
#296=DIRECTION('',(-1.,0.,0.));
#297=DIRECTION('',(0.,1.,0.));
#298=DIRECTION('',(-1.,0.,0.));
#299=DIRECTION('',(0.,-1.,0.));
#300=DIRECTION('',(1.,0.,0.));
#301=DIRECTION('',(0.,1.,0.));
#302=DIRECTION('',(-1.,0.,0.));
#303=DIRECTION('',(0.,-1.,0.));
#304=DIRECTION('',(1.,0.,0.));
#305=DIRECTION('',(0.,-1.,0.));
#306=DIRECTION('',(1.,0.,0.));
#307=DIRECTION('',(0.,1.,0.));
#308=DIRECTION('',(-1.,0.,0.));
#309=CARTESIAN_POINT('',(0.,0.,0.));
#310=CARTESIAN_POINT('',(0.,0.,0.));
#311=CARTESIAN_POINT('',(0.,-0.001,0.));
#312=CARTESIAN_POINT('',(-0.00645,-0.001,7.89897185450043E-19));
#313=CARTESIAN_POINT('',(0.,-0.012,0.));
#314=CARTESIAN_POINT('',(-0.00645,-0.012,7.89897185450043E-19));
#315=CARTESIAN_POINT('',(0.,-0.001,0.));
#316=CARTESIAN_POINT('',(-0.00538793760121462,0.,-0.00102215324435371));
#317=CARTESIAN_POINT('',(-0.00547869728910912,0.,-3.31039894688392E-5));
#318=CARTESIAN_POINT('',(-0.00539695295924243,0.,0.000951313917664033));
#319=CARTESIAN_POINT('',(-0.00512354111313815,0.,0.0019613957455999));
#320=CARTESIAN_POINT('',(-0.00462780796909351,0.,0.00295033614169509));
#321=CARTESIAN_POINT('',(-0.00392384916154061,0.,0.00383889245803817));
#322=CARTESIAN_POINT('',(-0.00304989215556629,0.,0.00456302288078759));
#323=CARTESIAN_POINT('',(-0.00206771057256948,0.,0.00508201992887299));
#324=CARTESIAN_POINT('',(-0.00103984741610028,0.,0.0053827359021564));
#325=CARTESIAN_POINT('',(-5.22254237946705E-5,0.,0.00547845598822083));
#326=CARTESIAN_POINT('',(0.000932766866213453,0.,0.00540189877160919));
#327=CARTESIAN_POINT('',(0.0019603622795884,0.,0.00512401600670353));
#328=CARTESIAN_POINT('',(0.00295032645331394,0.,0.00462783433112638));
#329=CARTESIAN_POINT('',(0.00383888232729258,0.,0.00392385275926621));
#330=CARTESIAN_POINT('',(0.00456302508346096,0.,0.0030498918436688));
#331=CARTESIAN_POINT('',(0.00508201932066639,0.,0.00206771069242929));
#332=CARTESIAN_POINT('',(0.00538273606462259,0.,0.00103984738586034));
#333=CARTESIAN_POINT('',(0.00547845594468125,0.,5.22254319886744E-5));
#334=CARTESIAN_POINT('',(0.00540189878327673,0.,-0.000932766868407306));
#335=CARTESIAN_POINT('',(0.0051240160035748,0.,-0.0019603622789898));
#336=CARTESIAN_POINT('',(0.00462783433197335,0.,-0.00295032645351739));
#337=CARTESIAN_POINT('',(0.00392385275900479,0.,-0.00383888232708091));
#338=CARTESIAN_POINT('',(0.00304989184386748,0.,-0.00456302508410407));
#339=CARTESIAN_POINT('',(0.00206771069189637,0.,-0.00508201931830537));
#340=CARTESIAN_POINT('',(0.00103984738779356,0.,-0.0053827360734234));
#341=CARTESIAN_POINT('',(5.22254247889725E-5,0.,-0.00547845591183899));
#342=CARTESIAN_POINT('',(-0.000932766841541712,0.,-0.00540189890584495));
#343=CARTESIAN_POINT('',(-0.00196036237925253,0.,-0.00512401554614418));
#344=CARTESIAN_POINT('',(-0.00295032607933209,0.,-0.00462783603912758));
#345=CARTESIAN_POINT('',(-0.00383888372355934,0.,-0.00392384638781853));
#346=CARTESIAN_POINT('',(-0.00456301987237601,0.,-0.00304991562145806));
#347=CARTESIAN_POINT('',(-0.00508203876873943,0.,-0.00206762195271993));
#348=CARTESIAN_POINT('',(-0.00538793760121462,0.,-0.00102215324435371));
#349=CARTESIAN_POINT('',(-0.00547869728910912,0.,-3.31039894688392E-5));
#350=CARTESIAN_POINT('',(-0.00539695295924243,0.,0.000951313917664033));
#351=CARTESIAN_POINT('',(-0.00545,0.,-1.33486501107061E-18));
#352=CARTESIAN_POINT('',(0.,-0.012,0.));
#353=CARTESIAN_POINT('',(-0.0068708609077706,-0.0125,0.0013034602758163));
#354=CARTESIAN_POINT('',(-0.00698659415186287,-0.0125,4.22219324077808E-5));
#355=CARTESIAN_POINT('',(-0.0068823543485975,-0.0125,-0.00121315189538569));
#356=CARTESIAN_POINT('',(-0.006533685256888,-0.0125,-0.00250124495490084));
#357=CARTESIAN_POINT('',(-0.00590151019684998,-0.0125,-0.00376236773313413));
#358=CARTESIAN_POINT('',(-0.00500379818222244,-0.0125,-0.00489548011881065));
#359=CARTESIAN_POINT('',(-0.00388930039695033,-0.0125,-0.00581891011866145));
#360=CARTESIAN_POINT('',(-0.00263679231055377,-0.0125,-0.00648074761875953));
#361=CARTESIAN_POINT('',(-0.00132603008013525,-0.0125,-0.00686422686311691));
#362=CARTESIAN_POINT('',(-6.65847246007296E-5,-0.0125,-0.00698628924747547));
#363=CARTESIAN_POINT('',(0.00118950636009447,-0.0125,-0.00688865857089391));
#364=CARTESIAN_POINT('',(0.00249992540313386,-0.0125,-0.00653429162957275));
#365=CARTESIAN_POINT('',(0.0037623558223529,-0.0125,-0.00590154360623731));
#366=CARTESIAN_POINT('',(0.00489546708090359,-0.0125,-0.00500380282590315));
#367=CARTESIAN_POINT('',(0.00581891295943583,-0.0125,-0.00388929998426645));
#368=CARTESIAN_POINT('',(0.00648074683461925,-0.0125,-0.00263679246740656));
#369=CARTESIAN_POINT('',(0.00686422707258558,-0.0125,-0.00132603004050175));
#370=CARTESIAN_POINT('',(0.00698628919133973,-0.0125,-6.65847353375144E-5));
#371=CARTESIAN_POINT('',(0.00688865858593688,-0.0125,0.00118950636296941));
#372=CARTESIAN_POINT('',(0.00653429162553897,-0.0125,0.00249992540234896));
#373=CARTESIAN_POINT('',(0.00590154360732989,-0.0125,0.00376235582261612));
#374=CARTESIAN_POINT('',(0.00500380282556683,-0.0125,0.00489546708063528));
#375=CARTESIAN_POINT('',(0.00388929998451915,-0.0125,0.00581891296024587));
#376=CARTESIAN_POINT('',(0.00263679246673173,-0.0125,0.00648074683164775));
#377=CARTESIAN_POINT('',(0.0013260300429482,-0.0125,0.00686422708366155));
#378=CARTESIAN_POINT('',(6.65847262269197E-5,-0.0125,0.0069862891500073));
#379=CARTESIAN_POINT('',(-0.0011895063289734,-0.0125,0.00688865874019065));
#380=CARTESIAN_POINT('',(-0.0024999255292224,-0.0125,0.00653429104985632));
#381=CARTESIAN_POINT('',(-0.00376235534911674,-0.0125,0.005901545755807));
#382=CARTESIAN_POINT('',(-0.00489546884775665,-0.0125,0.00500379480734246));
#383=CARTESIAN_POINT('',(-0.00581890636526073,-0.0125,0.00388932990893923));
#384=CARTESIAN_POINT('',(-0.00648077144446635,-0.0125,0.00263668078727565));
#385=CARTESIAN_POINT('',(-0.0068708609077706,-0.0125,0.0013034602758163));
#386=CARTESIAN_POINT('',(-0.00698659415186287,-0.0125,4.22219324077808E-5));
#387=CARTESIAN_POINT('',(-0.0068823543485975,-0.0125,-0.00121315189538569));
#388=CARTESIAN_POINT('',(-0.00695,-0.0125,8.5112952540741E-19));
#389=CARTESIAN_POINT('',(0.,0.,0.));
#390=CARTESIAN_POINT('',(0.,0.,0.));
#391=CARTESIAN_POINT('',(0.0045,0.,0.));
#392=CARTESIAN_POINT('',(0.,-0.0125,0.));
#393=CARTESIAN_POINT('',(-0.00756289178394738,-0.0125,-0.00143473689059644));
#394=CARTESIAN_POINT('',(-0.00769027935451852,-0.0125,-4.64769722464103E-5));
#395=CARTESIAN_POINT('',(-0.00757554166367131,-0.0125,0.00133534295101516));
#396=CARTESIAN_POINT('',(-0.00719175252375373,-0.0125,0.00275317458612506));
#397=CARTESIAN_POINT('',(-0.00649590456969368,-0.0125,0.00414131580900292));
#398=CARTESIAN_POINT('',(-0.00550777439174497,-0.0125,0.00538855436042534));
#399=CARTESIAN_POINT('',(-0.00428102424283826,-0.0125,0.00640499082954076));
#400=CARTESIAN_POINT('',(-0.00290236378819432,-0.0125,0.00713348720724969));
#401=CARTESIAN_POINT('',(-0.00145958199004755,-0.0125,0.00755558931140141));
#402=CARTESIAN_POINT('',(-7.32857316931965E-5,-0.0125,0.00768994476830324));
#403=CARTESIAN_POINT('',(0.00130931812387734,-0.0125,0.00758247981042723));
#404=CARTESIAN_POINT('',(0.00275172152750169,-0.0125,0.00719242025340871));
#405=CARTESIAN_POINT('',(0.00414130286114469,-0.0125,0.0064959412678349));
#406=CARTESIAN_POINT('',(0.00538853996583115,-0.0125,0.0055077795235417));
#407=CARTESIAN_POINT('',(0.00640499396809855,-0.0125,0.0042810237831196));
#408=CARTESIAN_POINT('',(0.00713348634100626,-0.0125,0.00290236396231117));
#409=CARTESIAN_POINT('',(0.00755558954280477,-0.0125,0.00145958194602979));
#410=CARTESIAN_POINT('',(0.00768994470628923,-0.0125,7.32857436170856E-5));
#411=CARTESIAN_POINT('',(0.00758247982704542,-0.0125,-0.00130931812707001));
#412=CARTESIAN_POINT('',(0.0071924202489525,-0.0125,-0.00275172152663085));
#413=CARTESIAN_POINT('',(0.00649594126904149,-0.0125,-0.00414130286143632));
#414=CARTESIAN_POINT('',(0.00550777952317096,-0.0125,-0.00538853996553575));
#415=CARTESIAN_POINT('',(0.00428102378339783,-0.0125,-0.00640499396898631));
#416=CARTESIAN_POINT('',(0.00290236396157015,-0.0125,-0.00713348633774989));
#417=CARTESIAN_POINT('',(0.00145958194871566,-0.0125,-0.00755558955494247));
#418=CARTESIAN_POINT('',(7.3285733614763E-5,-0.0125,-0.00768994466099471));
#419=CARTESIAN_POINT('',(-0.00130931808974642,-0.0125,-0.00758247999608579));
#420=CARTESIAN_POINT('',(-0.00275172166592289,-0.0125,-0.00719241961808553));
#421=CARTESIAN_POINT('',(-0.00414130234159107,-0.0125,-0.00649594362346911));
#422=CARTESIAN_POINT('',(-0.00538854190562362,-0.0125,-0.00550777073632807));
#423=CARTESIAN_POINT('',(-0.0064049867284786,-0.0125,-0.00428105657634288));
#424=CARTESIAN_POINT('',(-0.00713351335969549,-0.0125,-0.0029022415766306));
#425=CARTESIAN_POINT('',(-0.00756289178394738,-0.0125,-0.00143473689059644));
#426=CARTESIAN_POINT('',(-0.00769027935451852,-0.0125,-4.64769722464103E-5));
#427=CARTESIAN_POINT('',(-0.00757554166367131,-0.0125,0.00133534295101516));
#428=CARTESIAN_POINT('',(-0.00765,-0.0125,-9.36854801347725E-19));
#429=CARTESIAN_POINT('',(0.,0.,0.));
#430=CARTESIAN_POINT('',(0.,-0.0087,0.));
#431=CARTESIAN_POINT('',(0.0045,-0.0087,-1.10218211923262E-18));
#432=CARTESIAN_POINT('',(0.,-0.012,0.));
#433=CARTESIAN_POINT('',(0.,-0.012,0.));
#434=CARTESIAN_POINT('',(-0.00815,-0.012,0.));
#435=CARTESIAN_POINT('',(0.,-0.00970000000000937,0.));
#436=CARTESIAN_POINT('',(0.,-0.01,0.));
#437=CARTESIAN_POINT('',(-0.00579999999997426,-0.01,0.));
#438=CARTESIAN_POINT('',(0.,-0.0125,0.));
#439=CARTESIAN_POINT('',(0.,-0.0076,0.));
#440=CARTESIAN_POINT('',(-0.00815,-0.0076,-1.99617428261018E-18));
#441=CARTESIAN_POINT('',(0.,-0.0076,0.));
#442=CARTESIAN_POINT('',(-0.00815606110631302,-0.0075,-0.00154725970329497));
#443=CARTESIAN_POINT('',(-0.00829343809966427,-0.0075,-5.01241491845339E-5));
#444=CARTESIAN_POINT('',(-0.00816970221946261,-0.0075,0.00144007814133935));
#445=CARTESIAN_POINT('',(-0.00775581018099494,-0.0075,0.00296911427010362));
#446=CARTESIAN_POINT('',(-0.00700538546066565,-0.0075,0.0044661284454168));
#447=CARTESIAN_POINT('',(-0.00593975399986395,-0.0075,0.00581118942464013));
#448=CARTESIAN_POINT('',(-0.00461678753928361,-0.0075,0.00690734572453645));
#449=CARTESIAN_POINT('',(-0.00312999648328663,-0.0075,0.00769297828305724));
#450=CARTESIAN_POINT('',(-0.00157405505569524,-0.0075,0.00814818569559081));
#451=CARTESIAN_POINT('',(-7.90294520733685E-5,-0.0075,0.00829307807181729));
#452=CARTESIAN_POINT('',(0.00141201392139627,-0.0075,0.0081771837299826));
#453=CARTESIAN_POINT('',(0.0029675467769793,-0.0075,0.00775653050235386));
#454=CARTESIAN_POINT('',(0.0044661146086519,-0.0075,0.00700542497773297));
#455=CARTESIAN_POINT('',(0.00581117386716683,-0.0075,0.0059397595500476));
#456=CARTESIAN_POINT('',(0.00690734911833876,-0.0075,0.00461678703924842));
#457=CARTESIAN_POINT('',(0.00769297734643916,-0.0075,0.00312999667220168));
#458=CARTESIAN_POINT('',(0.00814818594579607,-0.0075,0.00157405500791833));
#459=CARTESIAN_POINT('',(0.00829307800476456,-0.0075,7.90294650135332E-5));
#460=CARTESIAN_POINT('',(0.00817718374795102,-0.0075,-0.00141201392486119));
#461=CARTESIAN_POINT('',(0.00775653049753566,-0.0075,-0.00296754677603377));
#462=CARTESIAN_POINT('',(0.00700542497903775,-0.0075,-0.00446611460896777));
#463=CARTESIAN_POINT('',(0.00593975954964672,-0.0075,-0.00581117386684884));
#464=CARTESIAN_POINT('',(0.00461678703954794,-0.0075,-0.00690734911929367));
#465=CARTESIAN_POINT('',(0.00312999667140445,-0.0075,-0.00769297734293791));
#466=CARTESIAN_POINT('',(0.00157405501081072,-0.0075,-0.00814818595884379));
#467=CARTESIAN_POINT('',(7.90294542465128E-5,-0.0075,-0.00829307795607397));
#468=CARTESIAN_POINT('',(-0.00141201388468559,-0.0075,-0.00817718392966567));
#469=CARTESIAN_POINT('',(-0.00296754692597082,-0.0075,-0.00775652981936766));
#470=CARTESIAN_POINT('',(-0.00446611404939851,-0.0075,-0.00700542750999419));
#471=CARTESIAN_POINT('',(-0.0058111759551963,-0.0075,-0.00593975010398558));
#472=CARTESIAN_POINT('',(-0.0069073413254775,-0.0075,-0.00461682229123157));
#473=CARTESIAN_POINT('',(-0.00769300642985457,-0.0075,-0.00312986511033167));
#474=CARTESIAN_POINT('',(-0.00815606110631302,-0.0075,-0.00154725970329497));
#475=CARTESIAN_POINT('',(-0.00829343809966427,-0.0075,-5.01241491845339E-5));
#476=CARTESIAN_POINT('',(-0.00816970221946261,-0.0075,0.00144007814133935));
#477=CARTESIAN_POINT('',(-0.00825,-0.0075,1.01033360929657E-18));
#478=CARTESIAN_POINT('',(0.,-0.0075,0.));
#479=CARTESIAN_POINT('',(0.,-0.0075,0.));
#480=CARTESIAN_POINT('',(-0.00855,-0.0075,0.));
#481=CARTESIAN_POINT('',(0.,-0.0135,0.));
#482=CARTESIAN_POINT('',(0.,-0.0133,0.));
#483=CARTESIAN_POINT('',(0.00855,-0.0133,1.04707301327099E-18));
#484=CARTESIAN_POINT('',(0.,-0.0133000000000003,0.));
#485=CARTESIAN_POINT('',(0.,-0.0134999999999997,0.));
#486=CARTESIAN_POINT('',(-0.00834999999999975,-0.0134999999999997,0.));
#487=CARTESIAN_POINT('',(0.,-0.01,0.));
#488=CARTESIAN_POINT('',(0.,-0.01,0.));
#489=CARTESIAN_POINT('',(0.00615,-0.01,0.));
#490=CARTESIAN_POINT('',(0.,-0.0135,0.));
#491=CARTESIAN_POINT('',(0.00637655313900142,-0.0135,-0.00120969126529204));
#492=CARTESIAN_POINT('',(0.00648396186426404,-0.0135,-3.91826181716335E-5));
#493=CARTESIAN_POINT('',(0.00638722055212984,-0.0135,0.00112587256972584));
#494=CARTESIAN_POINT('',(0.00606363720905517,-0.0135,0.00232129521838224));
#495=CARTESIAN_POINT('',(0.00547694278764044,-0.0135,0.00349169053604036));
#496=CARTESIAN_POINT('',(0.0046438151753776,-0.0135,0.00454328423191693));
#497=CARTESIAN_POINT('',(0.00360949764985816,-0.0135,0.00540028103941953));
#498=CARTESIAN_POINT('',(0.00244709839792462,-0.0135,0.0060145050555117));
#499=CARTESIAN_POINT('',(0.00123063585877987,-0.0135,0.00637039654285953));
#500=CARTESIAN_POINT('',(6.17982909796831E-5,-0.0135,0.00648367816111809));
#501=CARTESIAN_POINT('',(-0.00110392652881127,-0.0135,0.00639307197118339));
#502=CARTESIAN_POINT('',(-0.0023200710285988,-0.0135,0.00606419975534877));
#503=CARTESIAN_POINT('',(-0.0034916793660412,-0.0135,0.00547697384791442));
#504=CARTESIAN_POINT('',(-0.00454327216306841,-0.0135,0.00464381947040575));
#505=CARTESIAN_POINT('',(-0.00540028366749238,-0.0135,0.00360949727076951));
#506=CARTESIAN_POINT('',(-0.00601450433001575,-0.0135,0.0024470985424475));
#507=CARTESIAN_POINT('',(-0.00637039673666077,-0.0135,0.00123063582227758));
#508=CARTESIAN_POINT('',(-0.00648367810918105,-0.0135,6.17983008686212E-5));
#509=CARTESIAN_POINT('',(-0.00639307198510122,-0.0135,-0.00110392653145916));
#510=CARTESIAN_POINT('',(-0.00606419975161667,-0.0135,-0.00232007102787582));
#511=CARTESIAN_POINT('',(-0.00547697384892532,-0.0135,-0.00349167936628415));
#512=CARTESIAN_POINT('',(-0.00464381947009463,-0.0135,-0.0045432721628187));
#513=CARTESIAN_POINT('',(-0.00360949727100436,-0.0135,-0.00540028366824672));
#514=CARTESIAN_POINT('',(-0.00244709854181986,-0.0135,-0.00601450432724781));
#515=CARTESIAN_POINT('',(-0.00123063582455289,-0.0135,-0.00637039674697835));
#516=CARTESIAN_POINT('',(-6.17982923950975E-5,-0.0135,-0.00648367807067866));
#517=CARTESIAN_POINT('',(0.0011039264998403,-0.0135,-0.00639307212879321));
#518=CARTESIAN_POINT('',(0.00232007114588064,-0.0135,-0.00606419921535105));
#519=CARTESIAN_POINT('',(0.0034916789258902,-0.0135,-0.00547697585029407));
#520=CARTESIAN_POINT('',(0.00454327380639206,-0.0135,-0.00464381200088348));
#521=CARTESIAN_POINT('',(0.00540027753434844,-0.0135,-0.00360952514647966));
#522=CARTESIAN_POINT('',(0.00601452721926663,-0.0135,-0.00244699450913013));
#523=CARTESIAN_POINT('',(0.00637655313900142,-0.0135,-0.00120969126529204));
#524=CARTESIAN_POINT('',(0.00648396186426404,-0.0135,-3.91826181716335E-5));
#525=CARTESIAN_POINT('',(0.00638722055212984,-0.0135,0.00112587256972584));
#526=CARTESIAN_POINT('',(0.00645,-0.0135,7.89897185450043E-19));
#527=CARTESIAN_POINT('',(0.,-0.01,0.));
#528=CARTESIAN_POINT('',(0.,-0.0132,0.));
#529=CARTESIAN_POINT('',(0.00615,-0.0132,-1.50631556295124E-18));
#530=CARTESIAN_POINT('',(0.,-0.0132,0.));
#531=MECHANICAL_DESIGN_GEOMETRIC_PRESENTATION_REPRESENTATION('',(#208),
#532);
#532=(
GEOMETRIC_REPRESENTATION_CONTEXT(3)
GLOBAL_UNCERTAINTY_ASSIGNED_CONTEXT((#533))
GLOBAL_UNIT_ASSIGNED_CONTEXT((#536,#535,#534))
REPRESENTATION_CONTEXT('KP0075-01_ToolShaftEndCap',
'TOP_LEVEL_ASSEMBLY_PART')
);
#533=UNCERTAINTY_MEASURE_WITH_UNIT(LENGTH_MEASURE(2.E-5),#536,
'DISTANCE_ACCURACY_VALUE','Maximum Tolerance applied to model');
#534=(
NAMED_UNIT(*)
SI_UNIT($,.STERADIAN.)
SOLID_ANGLE_UNIT()
);
#535=(
NAMED_UNIT(*)
PLANE_ANGLE_UNIT()
SI_UNIT($,.RADIAN.)
);
#536=(
LENGTH_UNIT()
NAMED_UNIT(*)
SI_UNIT($,.METRE.)
);
#537=PRODUCT_DEFINITION_SHAPE('','',#538);
#538=PRODUCT_DEFINITION('','',#540,#539);
#539=PRODUCT_DEFINITION_CONTEXT('',#546,'design');
#540=PRODUCT_DEFINITION_FORMATION_WITH_SPECIFIED_SOURCE('','',#542,
 .NOT_KNOWN.);
#541=PRODUCT_RELATED_PRODUCT_CATEGORY('','',(#542));
#542=PRODUCT('KP0075-01_ToolShaftEndCap','KP0075-01_ToolShaftEndCap',
'KP0075-01_ToolShaftEndCap',(#544));
#543=PRODUCT_CATEGORY('','');
#544=PRODUCT_CONTEXT('',#546,'mechanical');
#545=APPLICATION_PROTOCOL_DEFINITION('international standard',
'automotive_design',2010,#546);
#546=APPLICATION_CONTEXT(
'core data for automotive mechanical design processes');
ENDSEC;
END-ISO-10303-21;
