ISO-10303-21;
HEADER;
/* Generated by software containing ST-Developer
 * from STEP Tools, Inc. (www.steptools.com) 
 */
/* OPTION: using custom renumber hook */

FILE_DESCRIPTION(
/* description */ ('STEP AP214',
'CAx-IF Rec.Pracs.---User Defined Attributes---1.5---2016-08-15'),
/* implementation_level */ '2;1');

FILE_NAME(
/* name */ '6a65b5b3d6769bec3d82b18c',
/* time_stamp */ '2026-07-26T07:22:27Z',
/* author */ (''),
/* organization */ (''),
/* preprocessor_version */ 'ST-DEVELOPER v20',
/* originating_system */ 'ONSHAPE BY PTC INC, 1.218',
/* authorisation */ '  ');

FILE_SCHEMA (('AUTOMOTIVE_DESIGN {1 0 10303 214 3 1 1}'));
ENDSEC;

DATA;
#10=PROPERTY_DEFINITION_REPRESENTATION(#14,#12);
#11=PROPERTY_DEFINITION_REPRESENTATION(#15,#13);
#12=REPRESENTATION('',(#16),#1206);
#13=REPRESENTATION('',(#17),#1206);
#14=PROPERTY_DEFINITION('pmi validation property','',#1211);
#15=PROPERTY_DEFINITION('pmi validation property','',#1211);
#16=VALUE_REPRESENTATION_ITEM('number of annotations',COUNT_MEASURE(0.));
#17=VALUE_REPRESENTATION_ITEM('number of views',COUNT_MEASURE(0.));
#18=SHAPE_REPRESENTATION_RELATIONSHIP('','',#682,#19);
#19=ADVANCED_BREP_SHAPE_REPRESENTATION('',(#680),#1206);
#20=SPHERICAL_SURFACE('',#733,0.002);
#21=SPHERICAL_SURFACE('',#741,0.002);
#22=SPHERICAL_SURFACE('',#747,0.002);
#23=SPHERICAL_SURFACE('',#753,0.002);
#24=(
BOUNDED_SURFACE()
B_SPLINE_SURFACE(3,2,((#1124,#1125,#1126),(#1127,#1128,#1129),(#1130,#1131,
#1132),(#1133,#1134,#1135),(#1136,#1137,#1138),(#1139,#1140,#1141),(#1142,
#1143,#1144)),.UNSPECIFIED.,.F.,.F.,.F.)
B_SPLINE_SURFACE_WITH_KNOTS((4,1,1,1,4),(3,3),(3.14159265358979,3.53429173528852,
3.92699081698724,4.31968989868597,4.71238898038469),(0.,1.),
 .UNSPECIFIED.)
GEOMETRIC_REPRESENTATION_ITEM()
RATIONAL_B_SPLINE_SURFACE(((1.,0.707106781186548,1.),(1.,0.707106781189018,
1.),(1.,0.746571860829029,1.),(1.,0.86902903440648,1.),(1.,0.973464424251683,
1.),(1.,0.999999999999712,1.),(1.,1.,1.)))
REPRESENTATION_ITEM('')
SURFACE()
);
#25=(
BOUNDED_SURFACE()
B_SPLINE_SURFACE(3,2,((#1184,#1185,#1186),(#1187,#1188,#1189),(#1190,#1191,
#1192),(#1193,#1194,#1195),(#1196,#1197,#1198),(#1199,#1200,#1201),(#1202,
#1203,#1204)),.UNSPECIFIED.,.F.,.F.,.F.)
B_SPLINE_SURFACE_WITH_KNOTS((4,1,1,1,4),(3,3),(6.28318530717959,6.67588438887831,
7.06858347057703,7.46128255227576,7.85398163397448),(0.,1.),
 .UNSPECIFIED.)
GEOMETRIC_REPRESENTATION_ITEM()
RATIONAL_B_SPLINE_SURFACE(((1.,0.707106781186548,1.),(1.,0.707106781189018,
1.),(1.,0.74657186082903,1.),(1.,0.869029034406479,1.),(1.,0.973464424251684,
1.),(1.,0.999999999999712,1.),(1.,1.,1.)))
REPRESENTATION_ITEM('')
SURFACE()
);
#26=CONICAL_SURFACE('',#718,0.00350000000003977,0.785398163411652);
#27=CONICAL_SURFACE('',#719,0.00350000000003977,0.785398163411653);
#28=CONICAL_SURFACE('',#720,0.00149999999999999,0.785398163383242);
#29=CONICAL_SURFACE('',#721,0.00149999999999999,0.785398163383242);
#30=CYLINDRICAL_SURFACE('',#700,0.002);
#31=CYLINDRICAL_SURFACE('',#712,0.00149999999999999);
#32=CYLINDRICAL_SURFACE('',#715,0.00149999999999999);
#33=CYLINDRICAL_SURFACE('',#722,0.002);
#34=CYLINDRICAL_SURFACE('',#724,0.002);
#35=CYLINDRICAL_SURFACE('',#727,0.002);
#36=CYLINDRICAL_SURFACE('',#729,0.002);
#37=CYLINDRICAL_SURFACE('',#731,0.002);
#38=CYLINDRICAL_SURFACE('',#735,0.002);
#39=CYLINDRICAL_SURFACE('',#737,0.002);
#40=CYLINDRICAL_SURFACE('',#739,0.002);
#41=CYLINDRICAL_SURFACE('',#743,0.002);
#42=CYLINDRICAL_SURFACE('',#745,0.002);
#43=CYLINDRICAL_SURFACE('',#749,0.002);
#44=CYLINDRICAL_SURFACE('',#751,0.002);
#45=CYLINDRICAL_SURFACE('',#755,0.002);
#46=CYLINDRICAL_SURFACE('',#757,0.002);
#47=CYLINDRICAL_SURFACE('',#759,0.002);
#48=CYLINDRICAL_SURFACE('',#761,0.002);
#49=CYLINDRICAL_SURFACE('',#763,0.002);
#50=ELLIPSE('',#697,0.00203085322377149,0.002);
#51=ELLIPSE('',#699,0.00203085322377149,0.002);
#52=ELLIPSE('',#702,0.00447213595499958,0.002);
#53=ELLIPSE('',#703,0.00447213595499958,0.002);
#54=ELLIPSE('',#723,0.00282842712474619,0.002);
#55=ELLIPSE('',#726,0.00447213595499958,0.002);
#56=ELLIPSE('',#728,0.00282842712474619,0.002);
#57=ELLIPSE('',#730,0.00282842712474619,0.002);
#58=ELLIPSE('',#736,0.0020076396750867,0.002);
#59=ELLIPSE('',#750,0.0020076396750867,0.002);
#60=ELLIPSE('',#756,0.00282842712474619,0.002);
#61=ELLIPSE('',#758,0.00282842712474619,0.002);
#62=ELLIPSE('',#760,0.00282842712474619,0.002);
#63=ELLIPSE('',#764,0.00447213595499958,0.002);
#64=LINE('',#984,#113);
#65=LINE('',#989,#114);
#66=LINE('',#993,#115);
#67=LINE('',#995,#116);
#68=LINE('',#997,#117);
#69=LINE('',#999,#118);
#70=LINE('',#1003,#119);
#71=LINE('',#1007,#120);
#72=LINE('',#1009,#121);
#73=LINE('',#1011,#122);
#74=LINE('',#1013,#123);
#75=LINE('',#1016,#124);
#76=LINE('',#1018,#125);
#77=LINE('',#1020,#126);
#78=LINE('',#1022,#127);
#79=LINE('',#1025,#128);
#80=LINE('',#1027,#129);
#81=LINE('',#1029,#130);
#82=LINE('',#1035,#131);
#83=LINE('',#1038,#132);
#84=LINE('',#1040,#133);
#85=LINE('',#1042,#134);
#86=LINE('',#1044,#135);
#87=LINE('',#1046,#136);
#88=LINE('',#1050,#137);
#89=LINE('',#1052,#138);
#90=LINE('',#1054,#139);
#91=LINE('',#1056,#140);
#92=LINE('',#1058,#141);
#93=LINE('',#1060,#142);
#94=LINE('',#1068,#143);
#95=LINE('',#1072,#144);
#96=LINE('',#1075,#145);
#97=LINE('',#1076,#146);
#98=LINE('',#1078,#147);
#99=LINE('',#1080,#148);
#100=LINE('',#1082,#149);
#101=LINE('',#1084,#150);
#102=LINE('',#1086,#151);
#103=LINE('',#1088,#152);
#104=LINE('',#1090,#153);
#105=LINE('',#1092,#154);
#106=LINE('',#1094,#155);
#107=LINE('',#1096,#156);
#108=LINE('',#1098,#157);
#109=LINE('',#1100,#158);
#110=LINE('',#1102,#159);
#111=LINE('',#1104,#160);
#112=LINE('',#1105,#161);
#113=VECTOR('',#773,1.);
#114=VECTOR('',#776,1.);
#115=VECTOR('',#779,1.);
#116=VECTOR('',#780,1.);
#117=VECTOR('',#781,1.);
#118=VECTOR('',#782,1.);
#119=VECTOR('',#785,1.);
#120=VECTOR('',#788,1.);
#121=VECTOR('',#789,1.);
#122=VECTOR('',#790,1.);
#123=VECTOR('',#793,1.);
#124=VECTOR('',#794,1.);
#125=VECTOR('',#795,1.);
#126=VECTOR('',#796,1.);
#127=VECTOR('',#799,1.);
#128=VECTOR('',#800,1.);
#129=VECTOR('',#801,1.);
#130=VECTOR('',#802,1.);
#131=VECTOR('',#809,1.);
#132=VECTOR('',#810,1.);
#133=VECTOR('',#811,1.);
#134=VECTOR('',#812,1.);
#135=VECTOR('',#813,1.);
#136=VECTOR('',#814,1.);
#137=VECTOR('',#819,1.);
#138=VECTOR('',#820,1.);
#139=VECTOR('',#821,1.);
#140=VECTOR('',#824,1.);
#141=VECTOR('',#825,1.);
#142=VECTOR('',#826,1.);
#143=VECTOR('',#837,1.);
#144=VECTOR('',#842,1.);
#145=VECTOR('',#843,1.);
#146=VECTOR('',#844,1.);
#147=VECTOR('',#847,1.);
#148=VECTOR('',#848,1.);
#149=VECTOR('',#851,1.);
#150=VECTOR('',#852,1.);
#151=VECTOR('',#855,1.);
#152=VECTOR('',#856,1.);
#153=VECTOR('',#857,1.);
#154=VECTOR('',#860,1.);
#155=VECTOR('',#861,1.);
#156=VECTOR('',#862,1.);
#157=VECTOR('',#865,1.);
#158=VECTOR('',#866,1.);
#159=VECTOR('',#867,1.);
#160=VECTOR('',#870,1.);
#161=VECTOR('',#871,1.);
#162=ORIENTED_EDGE('',*,*,#340,.T.);
#163=ORIENTED_EDGE('',*,*,#341,.T.);
#164=ORIENTED_EDGE('',*,*,#342,.T.);
#165=ORIENTED_EDGE('',*,*,#343,.T.);
#166=ORIENTED_EDGE('',*,*,#344,.T.);
#167=ORIENTED_EDGE('',*,*,#345,.T.);
#168=ORIENTED_EDGE('',*,*,#346,.T.);
#169=ORIENTED_EDGE('',*,*,#347,.T.);
#170=ORIENTED_EDGE('',*,*,#348,.T.);
#171=ORIENTED_EDGE('',*,*,#349,.T.);
#172=ORIENTED_EDGE('',*,*,#350,.T.);
#173=ORIENTED_EDGE('',*,*,#351,.T.);
#174=ORIENTED_EDGE('',*,*,#352,.T.);
#175=ORIENTED_EDGE('',*,*,#353,.T.);
#176=ORIENTED_EDGE('',*,*,#354,.T.);
#177=ORIENTED_EDGE('',*,*,#355,.T.);
#178=ORIENTED_EDGE('',*,*,#356,.T.);
#179=ORIENTED_EDGE('',*,*,#357,.T.);
#180=ORIENTED_EDGE('',*,*,#358,.F.);
#181=ORIENTED_EDGE('',*,*,#359,.T.);
#182=ORIENTED_EDGE('',*,*,#360,.T.);
#183=ORIENTED_EDGE('',*,*,#361,.T.);
#184=ORIENTED_EDGE('',*,*,#362,.T.);
#185=ORIENTED_EDGE('',*,*,#363,.T.);
#186=ORIENTED_EDGE('',*,*,#364,.T.);
#187=ORIENTED_EDGE('',*,*,#365,.T.);
#188=ORIENTED_EDGE('',*,*,#366,.T.);
#189=ORIENTED_EDGE('',*,*,#367,.T.);
#190=ORIENTED_EDGE('',*,*,#368,.F.);
#191=ORIENTED_EDGE('',*,*,#369,.T.);
#192=ORIENTED_EDGE('',*,*,#370,.T.);
#193=ORIENTED_EDGE('',*,*,#371,.T.);
#194=ORIENTED_EDGE('',*,*,#355,.F.);
#195=ORIENTED_EDGE('',*,*,#372,.T.);
#196=ORIENTED_EDGE('',*,*,#373,.T.);
#197=ORIENTED_EDGE('',*,*,#374,.T.);
#198=ORIENTED_EDGE('',*,*,#375,.T.);
#199=ORIENTED_EDGE('',*,*,#376,.F.);
#200=ORIENTED_EDGE('',*,*,#377,.T.);
#201=ORIENTED_EDGE('',*,*,#378,.T.);
#202=ORIENTED_EDGE('',*,*,#379,.T.);
#203=ORIENTED_EDGE('',*,*,#347,.F.);
#204=ORIENTED_EDGE('',*,*,#368,.T.);
#205=ORIENTED_EDGE('',*,*,#380,.T.);
#206=ORIENTED_EDGE('',*,*,#362,.F.);
#207=ORIENTED_EDGE('',*,*,#381,.T.);
#208=ORIENTED_EDGE('',*,*,#356,.F.);
#209=ORIENTED_EDGE('',*,*,#382,.T.);
#210=ORIENTED_EDGE('',*,*,#383,.F.);
#211=ORIENTED_EDGE('',*,*,#384,.T.);
#212=ORIENTED_EDGE('',*,*,#385,.T.);
#213=ORIENTED_EDGE('',*,*,#386,.T.);
#214=ORIENTED_EDGE('',*,*,#383,.T.);
#215=ORIENTED_EDGE('',*,*,#387,.T.);
#216=ORIENTED_EDGE('',*,*,#388,.T.);
#217=ORIENTED_EDGE('',*,*,#389,.T.);
#218=ORIENTED_EDGE('',*,*,#342,.F.);
#219=ORIENTED_EDGE('',*,*,#375,.F.);
#220=ORIENTED_EDGE('',*,*,#346,.F.);
#221=ORIENTED_EDGE('',*,*,#390,.T.);
#222=ORIENTED_EDGE('',*,*,#391,.T.);
#223=ORIENTED_EDGE('',*,*,#376,.T.);
#224=ORIENTED_EDGE('',*,*,#344,.F.);
#225=ORIENTED_EDGE('',*,*,#392,.T.);
#226=ORIENTED_EDGE('',*,*,#393,.T.);
#227=ORIENTED_EDGE('',*,*,#394,.T.);
#228=ORIENTED_EDGE('',*,*,#349,.F.);
#229=ORIENTED_EDGE('',*,*,#395,.T.);
#230=ORIENTED_EDGE('',*,*,#396,.T.);
#231=ORIENTED_EDGE('',*,*,#397,.T.);
#232=ORIENTED_EDGE('',*,*,#353,.F.);
#233=ORIENTED_EDGE('',*,*,#398,.T.);
#234=ORIENTED_EDGE('',*,*,#399,.T.);
#235=ORIENTED_EDGE('',*,*,#400,.T.);
#236=ORIENTED_EDGE('',*,*,#358,.T.);
#237=ORIENTED_EDGE('',*,*,#401,.T.);
#238=ORIENTED_EDGE('',*,*,#351,.F.);
#239=ORIENTED_EDGE('',*,*,#402,.T.);
#240=ORIENTED_EDGE('',*,*,#403,.T.);
#241=ORIENTED_EDGE('',*,*,#404,.T.);
#242=ORIENTED_EDGE('',*,*,#405,.T.);
#243=ORIENTED_EDGE('',*,*,#406,.T.);
#244=ORIENTED_EDGE('',*,*,#405,.F.);
#245=ORIENTED_EDGE('',*,*,#364,.F.);
#246=ORIENTED_EDGE('',*,*,#403,.F.);
#247=ORIENTED_EDGE('',*,*,#340,.F.);
#248=ORIENTED_EDGE('',*,*,#341,.F.);
#249=ORIENTED_EDGE('',*,*,#406,.F.);
#250=ORIENTED_EDGE('',*,*,#365,.F.);
#251=ORIENTED_EDGE('',*,*,#404,.F.);
#252=ORIENTED_EDGE('',*,*,#350,.F.);
#253=ORIENTED_EDGE('',*,*,#397,.F.);
#254=ORIENTED_EDGE('',*,*,#407,.F.);
#255=ORIENTED_EDGE('',*,*,#402,.F.);
#256=ORIENTED_EDGE('',*,*,#408,.F.);
#257=ORIENTED_EDGE('',*,*,#359,.F.);
#258=ORIENTED_EDGE('',*,*,#407,.T.);
#259=ORIENTED_EDGE('',*,*,#396,.F.);
#260=ORIENTED_EDGE('',*,*,#382,.F.);
#261=ORIENTED_EDGE('',*,*,#408,.T.);
#262=ORIENTED_EDGE('',*,*,#409,.F.);
#263=ORIENTED_EDGE('',*,*,#409,.T.);
#264=ORIENTED_EDGE('',*,*,#395,.F.);
#265=ORIENTED_EDGE('',*,*,#410,.F.);
#266=ORIENTED_EDGE('',*,*,#387,.F.);
#267=ORIENTED_EDGE('',*,*,#348,.F.);
#268=ORIENTED_EDGE('',*,*,#379,.F.);
#269=ORIENTED_EDGE('',*,*,#411,.F.);
#270=ORIENTED_EDGE('',*,*,#385,.F.);
#271=ORIENTED_EDGE('',*,*,#410,.T.);
#272=ORIENTED_EDGE('',*,*,#412,.F.);
#273=ORIENTED_EDGE('',*,*,#386,.F.);
#274=ORIENTED_EDGE('',*,*,#411,.T.);
#275=ORIENTED_EDGE('',*,*,#378,.F.);
#276=ORIENTED_EDGE('',*,*,#384,.F.);
#277=ORIENTED_EDGE('',*,*,#412,.T.);
#278=ORIENTED_EDGE('',*,*,#413,.F.);
#279=ORIENTED_EDGE('',*,*,#413,.T.);
#280=ORIENTED_EDGE('',*,*,#377,.F.);
#281=ORIENTED_EDGE('',*,*,#414,.F.);
#282=ORIENTED_EDGE('',*,*,#369,.F.);
#283=ORIENTED_EDGE('',*,*,#345,.F.);
#284=ORIENTED_EDGE('',*,*,#394,.F.);
#285=ORIENTED_EDGE('',*,*,#415,.F.);
#286=ORIENTED_EDGE('',*,*,#390,.F.);
#287=ORIENTED_EDGE('',*,*,#414,.T.);
#288=ORIENTED_EDGE('',*,*,#391,.F.);
#289=ORIENTED_EDGE('',*,*,#416,.F.);
#290=ORIENTED_EDGE('',*,*,#370,.F.);
#291=ORIENTED_EDGE('',*,*,#416,.T.);
#292=ORIENTED_EDGE('',*,*,#415,.T.);
#293=ORIENTED_EDGE('',*,*,#417,.F.);
#294=ORIENTED_EDGE('',*,*,#343,.F.);
#295=ORIENTED_EDGE('',*,*,#389,.F.);
#296=ORIENTED_EDGE('',*,*,#418,.F.);
#297=ORIENTED_EDGE('',*,*,#392,.F.);
#298=ORIENTED_EDGE('',*,*,#417,.T.);
#299=ORIENTED_EDGE('',*,*,#393,.F.);
#300=ORIENTED_EDGE('',*,*,#419,.F.);
#301=ORIENTED_EDGE('',*,*,#371,.F.);
#302=ORIENTED_EDGE('',*,*,#419,.T.);
#303=ORIENTED_EDGE('',*,*,#418,.T.);
#304=ORIENTED_EDGE('',*,*,#420,.F.);
#305=ORIENTED_EDGE('',*,*,#420,.T.);
#306=ORIENTED_EDGE('',*,*,#388,.F.);
#307=ORIENTED_EDGE('',*,*,#421,.F.);
#308=ORIENTED_EDGE('',*,*,#366,.F.);
#309=ORIENTED_EDGE('',*,*,#422,.F.);
#310=ORIENTED_EDGE('',*,*,#367,.F.);
#311=ORIENTED_EDGE('',*,*,#421,.T.);
#312=ORIENTED_EDGE('',*,*,#374,.F.);
#313=ORIENTED_EDGE('',*,*,#380,.F.);
#314=ORIENTED_EDGE('',*,*,#422,.T.);
#315=ORIENTED_EDGE('',*,*,#423,.F.);
#316=ORIENTED_EDGE('',*,*,#423,.T.);
#317=ORIENTED_EDGE('',*,*,#373,.F.);
#318=ORIENTED_EDGE('',*,*,#424,.F.);
#319=ORIENTED_EDGE('',*,*,#363,.F.);
#320=ORIENTED_EDGE('',*,*,#352,.F.);
#321=ORIENTED_EDGE('',*,*,#401,.F.);
#322=ORIENTED_EDGE('',*,*,#425,.F.);
#323=ORIENTED_EDGE('',*,*,#398,.F.);
#324=ORIENTED_EDGE('',*,*,#372,.F.);
#325=ORIENTED_EDGE('',*,*,#354,.F.);
#326=ORIENTED_EDGE('',*,*,#426,.F.);
#327=ORIENTED_EDGE('',*,*,#360,.F.);
#328=ORIENTED_EDGE('',*,*,#424,.T.);
#329=ORIENTED_EDGE('',*,*,#425,.T.);
#330=ORIENTED_EDGE('',*,*,#357,.F.);
#331=ORIENTED_EDGE('',*,*,#427,.F.);
#332=ORIENTED_EDGE('',*,*,#399,.F.);
#333=ORIENTED_EDGE('',*,*,#426,.T.);
#334=ORIENTED_EDGE('',*,*,#400,.F.);
#335=ORIENTED_EDGE('',*,*,#428,.F.);
#336=ORIENTED_EDGE('',*,*,#361,.F.);
#337=ORIENTED_EDGE('',*,*,#381,.F.);
#338=ORIENTED_EDGE('',*,*,#428,.T.);
#339=ORIENTED_EDGE('',*,*,#427,.T.);
#340=EDGE_CURVE('',#429,#429,#483,.F.);
#341=EDGE_CURVE('',#430,#430,#484,.F.);
#342=EDGE_CURVE('',#431,#432,#64,.T.);
#343=EDGE_CURVE('',#432,#433,#485,.T.);
#344=EDGE_CURVE('',#433,#434,#65,.T.);
#345=EDGE_CURVE('',#434,#435,#486,.T.);
#346=EDGE_CURVE('',#435,#436,#66,.T.);
#347=EDGE_CURVE('',#436,#437,#67,.T.);
#348=EDGE_CURVE('',#437,#438,#68,.T.);
#349=EDGE_CURVE('',#438,#439,#69,.T.);
#350=EDGE_CURVE('',#439,#440,#487,.F.);
#351=EDGE_CURVE('',#440,#441,#70,.T.);
#352=EDGE_CURVE('',#441,#442,#488,.F.);
#353=EDGE_CURVE('',#442,#443,#71,.T.);
#354=EDGE_CURVE('',#443,#444,#72,.T.);
#355=EDGE_CURVE('',#444,#431,#73,.T.);
#356=EDGE_CURVE('',#445,#446,#74,.T.);
#357=EDGE_CURVE('',#446,#447,#75,.F.);
#358=EDGE_CURVE('',#448,#447,#76,.T.);
#359=EDGE_CURVE('',#448,#445,#77,.F.);
#360=EDGE_CURVE('',#449,#450,#78,.F.);
#361=EDGE_CURVE('',#450,#451,#79,.T.);
#362=EDGE_CURVE('',#451,#452,#80,.F.);
#363=EDGE_CURVE('',#452,#449,#81,.F.);
#364=EDGE_CURVE('',#453,#453,#489,.F.);
#365=EDGE_CURVE('',#454,#454,#490,.F.);
#366=EDGE_CURVE('',#455,#456,#82,.T.);
#367=EDGE_CURVE('',#456,#457,#83,.T.);
#368=EDGE_CURVE('',#458,#457,#84,.F.);
#369=EDGE_CURVE('',#458,#459,#85,.F.);
#370=EDGE_CURVE('',#459,#460,#86,.F.);
#371=EDGE_CURVE('',#460,#455,#87,.F.);
#372=EDGE_CURVE('',#444,#461,#50,.T.);
#373=EDGE_CURVE('',#461,#462,#88,.T.);
#374=EDGE_CURVE('',#462,#463,#89,.F.);
#375=EDGE_CURVE('',#463,#431,#90,.F.);
#376=EDGE_CURVE('',#464,#436,#91,.T.);
#377=EDGE_CURVE('',#464,#465,#92,.T.);
#378=EDGE_CURVE('',#465,#466,#93,.F.);
#379=EDGE_CURVE('',#466,#437,#51,.T.);
#380=EDGE_CURVE('',#457,#452,#491,.T.);
#381=EDGE_CURVE('',#451,#446,#52,.T.);
#382=EDGE_CURVE('',#445,#467,#53,.F.);
#383=EDGE_CURVE('',#468,#467,#94,.F.);
#384=EDGE_CURVE('',#468,#458,#492,.F.);
#385=EDGE_CURVE('',#469,#470,#95,.F.);
#386=EDGE_CURVE('',#470,#468,#96,.T.);
#387=EDGE_CURVE('',#467,#469,#97,.F.);
#388=EDGE_CURVE('',#463,#471,#98,.F.);
#389=EDGE_CURVE('',#471,#432,#99,.F.);
#390=EDGE_CURVE('',#435,#472,#100,.F.);
#391=EDGE_CURVE('',#472,#464,#101,.T.);
#392=EDGE_CURVE('',#433,#473,#102,.T.);
#393=EDGE_CURVE('',#473,#474,#103,.T.);
#394=EDGE_CURVE('',#474,#434,#104,.T.);
#395=EDGE_CURVE('',#438,#475,#105,.T.);
#396=EDGE_CURVE('',#475,#476,#106,.T.);
#397=EDGE_CURVE('',#476,#439,#107,.F.);
#398=EDGE_CURVE('',#442,#477,#108,.T.);
#399=EDGE_CURVE('',#477,#478,#109,.T.);
#400=EDGE_CURVE('',#478,#443,#110,.F.);
#401=EDGE_CURVE('',#447,#441,#111,.F.);
#402=EDGE_CURVE('',#440,#448,#112,.T.);
#403=EDGE_CURVE('',#479,#479,#493,.T.);
#404=EDGE_CURVE('',#480,#480,#494,.T.);
#405=EDGE_CURVE('',#481,#481,#495,.T.);
#406=EDGE_CURVE('',#482,#482,#496,.T.);
#407=EDGE_CURVE('',#448,#476,#54,.F.);
#408=EDGE_CURVE('',#445,#475,#497,.T.);
#409=EDGE_CURVE('',#467,#475,#55,.T.);
#410=EDGE_CURVE('',#469,#438,#56,.F.);
#411=EDGE_CURVE('',#470,#466,#57,.T.);
#412=EDGE_CURVE('',#468,#465,#498,.T.);
#413=EDGE_CURVE('',#458,#465,#499,.T.);
#414=EDGE_CURVE('',#459,#464,#58,.F.);
#415=EDGE_CURVE('',#472,#474,#500,.T.);
#416=EDGE_CURVE('',#460,#472,#501,.T.);
#417=EDGE_CURVE('',#460,#474,#502,.F.);
#418=EDGE_CURVE('',#473,#471,#503,.T.);
#419=EDGE_CURVE('',#455,#473,#504,.T.);
#420=EDGE_CURVE('',#455,#471,#505,.F.);
#421=EDGE_CURVE('',#456,#463,#59,.T.);
#422=EDGE_CURVE('',#457,#462,#506,.T.);
#423=EDGE_CURVE('',#452,#462,#507,.T.);
#424=EDGE_CURVE('',#449,#461,#60,.T.);
#425=EDGE_CURVE('',#477,#447,#61,.F.);
#426=EDGE_CURVE('',#450,#443,#62,.T.);
#427=EDGE_CURVE('',#478,#446,#508,.T.);
#428=EDGE_CURVE('',#451,#478,#63,.T.);
#429=VERTEX_POINT('',#981);
#430=VERTEX_POINT('',#983);
#431=VERTEX_POINT('',#985);
#432=VERTEX_POINT('',#986);
#433=VERTEX_POINT('',#988);
#434=VERTEX_POINT('',#990);
#435=VERTEX_POINT('',#992);
#436=VERTEX_POINT('',#994);
#437=VERTEX_POINT('',#996);
#438=VERTEX_POINT('',#998);
#439=VERTEX_POINT('',#1000);
#440=VERTEX_POINT('',#1002);
#441=VERTEX_POINT('',#1004);
#442=VERTEX_POINT('',#1006);
#443=VERTEX_POINT('',#1008);
#444=VERTEX_POINT('',#1010);
#445=VERTEX_POINT('',#1014);
#446=VERTEX_POINT('',#1015);
#447=VERTEX_POINT('',#1017);
#448=VERTEX_POINT('',#1019);
#449=VERTEX_POINT('',#1023);
#450=VERTEX_POINT('',#1024);
#451=VERTEX_POINT('',#1026);
#452=VERTEX_POINT('',#1028);
#453=VERTEX_POINT('',#1032);
#454=VERTEX_POINT('',#1034);
#455=VERTEX_POINT('',#1036);
#456=VERTEX_POINT('',#1037);
#457=VERTEX_POINT('',#1039);
#458=VERTEX_POINT('',#1041);
#459=VERTEX_POINT('',#1043);
#460=VERTEX_POINT('',#1045);
#461=VERTEX_POINT('',#1049);
#462=VERTEX_POINT('',#1051);
#463=VERTEX_POINT('',#1053);
#464=VERTEX_POINT('',#1057);
#465=VERTEX_POINT('',#1059);
#466=VERTEX_POINT('',#1061);
#467=VERTEX_POINT('',#1067);
#468=VERTEX_POINT('',#1069);
#469=VERTEX_POINT('',#1073);
#470=VERTEX_POINT('',#1074);
#471=VERTEX_POINT('',#1079);
#472=VERTEX_POINT('',#1083);
#473=VERTEX_POINT('',#1087);
#474=VERTEX_POINT('',#1089);
#475=VERTEX_POINT('',#1093);
#476=VERTEX_POINT('',#1095);
#477=VERTEX_POINT('',#1099);
#478=VERTEX_POINT('',#1101);
#479=VERTEX_POINT('',#1108);
#480=VERTEX_POINT('',#1110);
#481=VERTEX_POINT('',#1113);
#482=VERTEX_POINT('',#1115);
#483=CIRCLE('',#685,0.00350000000003977);
#484=CIRCLE('',#686,0.00349999999998294);
#485=CIRCLE('',#687,0.002);
#486=CIRCLE('',#688,0.002);
#487=CIRCLE('',#689,0.002);
#488=CIRCLE('',#690,0.002);
#489=CIRCLE('',#694,0.00350000000003977);
#490=CIRCLE('',#695,0.00349999999998295);
#491=CIRCLE('',#701,0.002);
#492=CIRCLE('',#704,0.002);
#493=CIRCLE('',#713,0.00149999999999999);
#494=CIRCLE('',#714,0.00149999999999999);
#495=CIRCLE('',#716,0.00149999999999999);
#496=CIRCLE('',#717,0.00149999999999999);
#497=CIRCLE('',#725,0.002);
#498=CIRCLE('',#732,0.002);
#499=CIRCLE('',#734,0.002);
#500=CIRCLE('',#738,0.002);
#501=CIRCLE('',#740,0.002);
#502=CIRCLE('',#742,0.002);
#503=CIRCLE('',#744,0.002);
#504=CIRCLE('',#746,0.002);
#505=CIRCLE('',#748,0.002);
#506=CIRCLE('',#752,0.002);
#507=CIRCLE('',#754,0.002);
#508=CIRCLE('',#762,0.002);
#509=EDGE_LOOP('',(#162));
#510=EDGE_LOOP('',(#163));
#511=EDGE_LOOP('',(#164,#165,#166,#167,#168,#169,#170,#171,#172,#173,#174,
#175,#176,#177));
#512=EDGE_LOOP('',(#178,#179,#180,#181));
#513=EDGE_LOOP('',(#182,#183,#184,#185));
#514=EDGE_LOOP('',(#186));
#515=EDGE_LOOP('',(#187));
#516=EDGE_LOOP('',(#188,#189,#190,#191,#192,#193));
#517=EDGE_LOOP('',(#194,#195,#196,#197,#198));
#518=EDGE_LOOP('',(#199,#200,#201,#202,#203));
#519=EDGE_LOOP('',(#204,#205,#206,#207,#208,#209,#210,#211));
#520=EDGE_LOOP('',(#212,#213,#214,#215));
#521=EDGE_LOOP('',(#216,#217,#218,#219));
#522=EDGE_LOOP('',(#220,#221,#222,#223));
#523=EDGE_LOOP('',(#224,#225,#226,#227));
#524=EDGE_LOOP('',(#228,#229,#230,#231));
#525=EDGE_LOOP('',(#232,#233,#234,#235));
#526=EDGE_LOOP('',(#236,#237,#238,#239));
#527=EDGE_LOOP('',(#240));
#528=EDGE_LOOP('',(#241));
#529=EDGE_LOOP('',(#242));
#530=EDGE_LOOP('',(#243));
#531=EDGE_LOOP('',(#244));
#532=EDGE_LOOP('',(#245));
#533=EDGE_LOOP('',(#246));
#534=EDGE_LOOP('',(#247));
#535=EDGE_LOOP('',(#248));
#536=EDGE_LOOP('',(#249));
#537=EDGE_LOOP('',(#250));
#538=EDGE_LOOP('',(#251));
#539=EDGE_LOOP('',(#252,#253,#254,#255));
#540=EDGE_LOOP('',(#256,#257,#258,#259));
#541=EDGE_LOOP('',(#260,#261,#262));
#542=EDGE_LOOP('',(#263,#264,#265,#266));
#543=EDGE_LOOP('',(#267,#268,#269,#270,#271));
#544=EDGE_LOOP('',(#272,#273,#274,#275));
#545=EDGE_LOOP('',(#276,#277,#278));
#546=EDGE_LOOP('',(#279,#280,#281,#282));
#547=EDGE_LOOP('',(#283,#284,#285,#286));
#548=EDGE_LOOP('',(#287,#288,#289,#290));
#549=EDGE_LOOP('',(#291,#292,#293));
#550=EDGE_LOOP('',(#294,#295,#296,#297));
#551=EDGE_LOOP('',(#298,#299,#300,#301));
#552=EDGE_LOOP('',(#302,#303,#304));
#553=EDGE_LOOP('',(#305,#306,#307,#308));
#554=EDGE_LOOP('',(#309,#310,#311,#312));
#555=EDGE_LOOP('',(#313,#314,#315));
#556=EDGE_LOOP('',(#316,#317,#318,#319));
#557=EDGE_LOOP('',(#320,#321,#322,#323));
#558=EDGE_LOOP('',(#324,#325,#326,#327,#328));
#559=EDGE_LOOP('',(#329,#330,#331,#332));
#560=EDGE_LOOP('',(#333,#334,#335,#336));
#561=EDGE_LOOP('',(#337,#338,#339));
#562=FACE_BOUND('',#509,.T.);
#563=FACE_BOUND('',#510,.T.);
#564=FACE_BOUND('',#511,.T.);
#565=FACE_BOUND('',#512,.T.);
#566=FACE_BOUND('',#513,.T.);
#567=FACE_BOUND('',#514,.T.);
#568=FACE_BOUND('',#515,.T.);
#569=FACE_BOUND('',#516,.T.);
#570=FACE_BOUND('',#517,.T.);
#571=FACE_BOUND('',#518,.T.);
#572=FACE_BOUND('',#519,.T.);
#573=FACE_BOUND('',#520,.T.);
#574=FACE_BOUND('',#521,.T.);
#575=FACE_BOUND('',#522,.T.);
#576=FACE_BOUND('',#523,.T.);
#577=FACE_BOUND('',#524,.T.);
#578=FACE_BOUND('',#525,.T.);
#579=FACE_BOUND('',#526,.T.);
#580=FACE_BOUND('',#527,.T.);
#581=FACE_BOUND('',#528,.T.);
#582=FACE_BOUND('',#529,.T.);
#583=FACE_BOUND('',#530,.T.);
#584=FACE_BOUND('',#531,.T.);
#585=FACE_BOUND('',#532,.T.);
#586=FACE_BOUND('',#533,.T.);
#587=FACE_BOUND('',#534,.T.);
#588=FACE_BOUND('',#535,.T.);
#589=FACE_BOUND('',#536,.T.);
#590=FACE_BOUND('',#537,.T.);
#591=FACE_BOUND('',#538,.T.);
#592=FACE_BOUND('',#539,.T.);
#593=FACE_BOUND('',#540,.T.);
#594=FACE_BOUND('',#541,.T.);
#595=FACE_BOUND('',#542,.T.);
#596=FACE_BOUND('',#543,.T.);
#597=FACE_BOUND('',#544,.T.);
#598=FACE_BOUND('',#545,.T.);
#599=FACE_BOUND('',#546,.T.);
#600=FACE_BOUND('',#547,.T.);
#601=FACE_BOUND('',#548,.T.);
#602=FACE_BOUND('',#549,.T.);
#603=FACE_BOUND('',#550,.T.);
#604=FACE_BOUND('',#551,.T.);
#605=FACE_BOUND('',#552,.T.);
#606=FACE_BOUND('',#553,.T.);
#607=FACE_BOUND('',#554,.T.);
#608=FACE_BOUND('',#555,.T.);
#609=FACE_BOUND('',#556,.T.);
#610=FACE_BOUND('',#557,.T.);
#611=FACE_BOUND('',#558,.T.);
#612=FACE_BOUND('',#559,.T.);
#613=FACE_BOUND('',#560,.T.);
#614=FACE_BOUND('',#561,.T.);
#615=PLANE('',#684);
#616=PLANE('',#691);
#617=PLANE('',#692);
#618=PLANE('',#693);
#619=PLANE('',#696);
#620=PLANE('',#698);
#621=PLANE('',#705);
#622=PLANE('',#706);
#623=PLANE('',#707);
#624=PLANE('',#708);
#625=PLANE('',#709);
#626=PLANE('',#710);
#627=PLANE('',#711);
#628=ADVANCED_FACE('',(#562,#563,#564),#615,.T.);
#629=ADVANCED_FACE('',(#565),#616,.F.);
#630=ADVANCED_FACE('',(#566),#617,.F.);
#631=ADVANCED_FACE('',(#567,#568,#569),#618,.T.);
#632=ADVANCED_FACE('',(#570),#619,.T.);
#633=ADVANCED_FACE('',(#571),#620,.T.);
#634=ADVANCED_FACE('',(#572),#30,.T.);
#635=ADVANCED_FACE('',(#573),#621,.F.);
#636=ADVANCED_FACE('',(#574),#622,.F.);
#637=ADVANCED_FACE('',(#575),#623,.F.);
#638=ADVANCED_FACE('',(#576),#624,.F.);
#639=ADVANCED_FACE('',(#577),#625,.F.);
#640=ADVANCED_FACE('',(#578),#626,.T.);
#641=ADVANCED_FACE('',(#579),#627,.F.);
#642=ADVANCED_FACE('',(#580,#581),#31,.F.);
#643=ADVANCED_FACE('',(#582,#583),#32,.F.);
#644=ADVANCED_FACE('',(#584,#585),#26,.F.);
#645=ADVANCED_FACE('',(#586,#587),#27,.F.);
#646=ADVANCED_FACE('',(#588,#589),#28,.F.);
#647=ADVANCED_FACE('',(#590,#591),#29,.F.);
#648=ADVANCED_FACE('',(#592),#33,.F.);
#649=ADVANCED_FACE('',(#593),#34,.F.);
#650=ADVANCED_FACE('',(#594),#24,.F.);
#651=ADVANCED_FACE('',(#595),#35,.T.);
#652=ADVANCED_FACE('',(#596),#36,.T.);
#653=ADVANCED_FACE('',(#597),#37,.T.);
#654=ADVANCED_FACE('',(#598),#20,.T.);
#655=ADVANCED_FACE('',(#599),#38,.T.);
#656=ADVANCED_FACE('',(#600),#39,.T.);
#657=ADVANCED_FACE('',(#601),#40,.T.);
#658=ADVANCED_FACE('',(#602),#21,.T.);
#659=ADVANCED_FACE('',(#603),#41,.T.);
#660=ADVANCED_FACE('',(#604),#42,.T.);
#661=ADVANCED_FACE('',(#605),#22,.T.);
#662=ADVANCED_FACE('',(#606),#43,.T.);
#663=ADVANCED_FACE('',(#607),#44,.T.);
#664=ADVANCED_FACE('',(#608),#23,.T.);
#665=ADVANCED_FACE('',(#609),#45,.T.);
#666=ADVANCED_FACE('',(#610),#46,.F.);
#667=ADVANCED_FACE('',(#611),#47,.T.);
#668=ADVANCED_FACE('',(#612),#48,.F.);
#669=ADVANCED_FACE('',(#613),#49,.T.);
#670=ADVANCED_FACE('',(#614),#25,.F.);
#671=CLOSED_SHELL('',(#628,#629,#630,#631,#632,#633,#634,#635,#636,#637,
#638,#639,#640,#641,#642,#643,#644,#645,#646,#647,#648,#649,#650,#651,#652,
#653,#654,#655,#656,#657,#658,#659,#660,#661,#662,#663,#664,#665,#666,#667,
#668,#669,#670));
#672=STYLED_ITEM('',(#673),#680);
#673=PRESENTATION_STYLE_ASSIGNMENT((#674));
#674=SURFACE_STYLE_USAGE(.BOTH.,#675);
#675=SURFACE_SIDE_STYLE('',(#676));
#676=SURFACE_STYLE_FILL_AREA(#677);
#677=FILL_AREA_STYLE('',(#678));
#678=FILL_AREA_STYLE_COLOUR('',#679);
#679=COLOUR_RGB('',0.792156862745098,0.819607843137255,0.933333333333333);
#680=MANIFOLD_SOLID_BREP('KP0002-01_Foot',#671);
#681=SHAPE_DEFINITION_REPRESENTATION(#1211,#682);
#682=SHAPE_REPRESENTATION('KP0002-01_Foot',(#683),#1206);
#683=AXIS2_PLACEMENT_3D('',#978,#765,#766);
#684=AXIS2_PLACEMENT_3D('',#979,#767,#768);
#685=AXIS2_PLACEMENT_3D('',#980,#769,#770);
#686=AXIS2_PLACEMENT_3D('',#982,#771,#772);
#687=AXIS2_PLACEMENT_3D('',#987,#774,#775);
#688=AXIS2_PLACEMENT_3D('',#991,#777,#778);
#689=AXIS2_PLACEMENT_3D('',#1001,#783,#784);
#690=AXIS2_PLACEMENT_3D('',#1005,#786,#787);
#691=AXIS2_PLACEMENT_3D('',#1012,#791,#792);
#692=AXIS2_PLACEMENT_3D('',#1021,#797,#798);
#693=AXIS2_PLACEMENT_3D('',#1030,#803,#804);
#694=AXIS2_PLACEMENT_3D('',#1031,#805,#806);
#695=AXIS2_PLACEMENT_3D('',#1033,#807,#808);
#696=AXIS2_PLACEMENT_3D('',#1047,#815,#816);
#697=AXIS2_PLACEMENT_3D('',#1048,#817,#818);
#698=AXIS2_PLACEMENT_3D('',#1055,#822,#823);
#699=AXIS2_PLACEMENT_3D('',#1062,#827,#828);
#700=AXIS2_PLACEMENT_3D('',#1063,#829,#830);
#701=AXIS2_PLACEMENT_3D('',#1064,#831,#832);
#702=AXIS2_PLACEMENT_3D('',#1065,#833,#834);
#703=AXIS2_PLACEMENT_3D('',#1066,#835,#836);
#704=AXIS2_PLACEMENT_3D('',#1070,#838,#839);
#705=AXIS2_PLACEMENT_3D('',#1071,#840,#841);
#706=AXIS2_PLACEMENT_3D('',#1077,#845,#846);
#707=AXIS2_PLACEMENT_3D('',#1081,#849,#850);
#708=AXIS2_PLACEMENT_3D('',#1085,#853,#854);
#709=AXIS2_PLACEMENT_3D('',#1091,#858,#859);
#710=AXIS2_PLACEMENT_3D('',#1097,#863,#864);
#711=AXIS2_PLACEMENT_3D('',#1103,#868,#869);
#712=AXIS2_PLACEMENT_3D('',#1106,#872,#873);
#713=AXIS2_PLACEMENT_3D('',#1107,#874,#875);
#714=AXIS2_PLACEMENT_3D('',#1109,#876,#877);
#715=AXIS2_PLACEMENT_3D('',#1111,#878,#879);
#716=AXIS2_PLACEMENT_3D('',#1112,#880,#881);
#717=AXIS2_PLACEMENT_3D('',#1114,#882,#883);
#718=AXIS2_PLACEMENT_3D('',#1116,#884,#885);
#719=AXIS2_PLACEMENT_3D('',#1117,#886,#887);
#720=AXIS2_PLACEMENT_3D('',#1118,#888,#889);
#721=AXIS2_PLACEMENT_3D('',#1119,#890,#891);
#722=AXIS2_PLACEMENT_3D('',#1120,#892,#893);
#723=AXIS2_PLACEMENT_3D('',#1121,#894,#895);
#724=AXIS2_PLACEMENT_3D('',#1122,#896,#897);
#725=AXIS2_PLACEMENT_3D('',#1123,#898,#899);
#726=AXIS2_PLACEMENT_3D('',#1145,#900,#901);
#727=AXIS2_PLACEMENT_3D('',#1146,#902,#903);
#728=AXIS2_PLACEMENT_3D('',#1147,#904,#905);
#729=AXIS2_PLACEMENT_3D('',#1148,#906,#907);
#730=AXIS2_PLACEMENT_3D('',#1149,#908,#909);
#731=AXIS2_PLACEMENT_3D('',#1150,#910,#911);
#732=AXIS2_PLACEMENT_3D('',#1151,#912,#913);
#733=AXIS2_PLACEMENT_3D('',#1152,#914,#915);
#734=AXIS2_PLACEMENT_3D('',#1153,#916,#917);
#735=AXIS2_PLACEMENT_3D('',#1154,#918,#919);
#736=AXIS2_PLACEMENT_3D('',#1155,#920,#921);
#737=AXIS2_PLACEMENT_3D('',#1156,#922,#923);
#738=AXIS2_PLACEMENT_3D('',#1157,#924,#925);
#739=AXIS2_PLACEMENT_3D('',#1158,#926,#927);
#740=AXIS2_PLACEMENT_3D('',#1159,#928,#929);
#741=AXIS2_PLACEMENT_3D('',#1160,#930,#931);
#742=AXIS2_PLACEMENT_3D('',#1161,#932,#933);
#743=AXIS2_PLACEMENT_3D('',#1162,#934,#935);
#744=AXIS2_PLACEMENT_3D('',#1163,#936,#937);
#745=AXIS2_PLACEMENT_3D('',#1164,#938,#939);
#746=AXIS2_PLACEMENT_3D('',#1165,#940,#941);
#747=AXIS2_PLACEMENT_3D('',#1166,#942,#943);
#748=AXIS2_PLACEMENT_3D('',#1167,#944,#945);
#749=AXIS2_PLACEMENT_3D('',#1168,#946,#947);
#750=AXIS2_PLACEMENT_3D('',#1169,#948,#949);
#751=AXIS2_PLACEMENT_3D('',#1170,#950,#951);
#752=AXIS2_PLACEMENT_3D('',#1171,#952,#953);
#753=AXIS2_PLACEMENT_3D('',#1172,#954,#955);
#754=AXIS2_PLACEMENT_3D('',#1173,#956,#957);
#755=AXIS2_PLACEMENT_3D('',#1174,#958,#959);
#756=AXIS2_PLACEMENT_3D('',#1175,#960,#961);
#757=AXIS2_PLACEMENT_3D('',#1176,#962,#963);
#758=AXIS2_PLACEMENT_3D('',#1177,#964,#965);
#759=AXIS2_PLACEMENT_3D('',#1178,#966,#967);
#760=AXIS2_PLACEMENT_3D('',#1179,#968,#969);
#761=AXIS2_PLACEMENT_3D('',#1180,#970,#971);
#762=AXIS2_PLACEMENT_3D('',#1181,#972,#973);
#763=AXIS2_PLACEMENT_3D('',#1182,#974,#975);
#764=AXIS2_PLACEMENT_3D('',#1183,#976,#977);
#765=DIRECTION('',(0.,0.,1.));
#766=DIRECTION('',(1.,0.,0.));
#767=DIRECTION('',(0.,1.,0.));
#768=DIRECTION('',(-1.,0.,0.));
#769=DIRECTION('',(0.,1.,0.));
#770=DIRECTION('',(-1.,0.,0.));
#771=DIRECTION('',(0.,1.,0.));
#772=DIRECTION('',(-1.,0.,0.));
#773=DIRECTION('',(1.7347234759768E-16,0.,1.));
#774=DIRECTION('',(0.,1.,0.));
#775=DIRECTION('',(-1.,0.,0.));
#776=DIRECTION('',(1.,0.,0.));
#777=DIRECTION('',(0.,1.,0.));
#778=DIRECTION('',(-1.,0.,0.));
#779=DIRECTION('',(0.,0.,-1.));
#780=DIRECTION('',(-0.17364817766693,0.,-0.984807753012208));
#781=DIRECTION('',(-1.,0.,0.));
#782=DIRECTION('',(0.,0.,1.));
#783=DIRECTION('',(0.,1.,0.));
#784=DIRECTION('',(-1.,0.,0.));
#785=DIRECTION('',(-1.,0.,1.66800334228539E-16));
#786=DIRECTION('',(0.,1.,0.));
#787=DIRECTION('',(-1.,0.,0.));
#788=DIRECTION('',(0.,0.,-1.));
#789=DIRECTION('',(-1.,0.,0.));
#790=DIRECTION('',(-0.17364817766693,0.,0.984807753012208));
#791=DIRECTION('',(0.,-1.,0.));
#792=DIRECTION('',(1.,0.,0.));
#793=DIRECTION('',(-1.,0.,0.));
#794=DIRECTION('',(0.,0.,-1.));
#795=DIRECTION('',(-1.,0.,1.66800334228539E-16));
#796=DIRECTION('',(0.,0.,1.));
#797=DIRECTION('',(0.,0.,1.));
#798=DIRECTION('',(0.,-1.,0.));
#799=DIRECTION('',(-1.,0.,0.));
#800=DIRECTION('',(0.,-1.,0.));
#801=DIRECTION('',(1.,0.,0.));
#802=DIRECTION('',(0.,-1.,0.));
#803=DIRECTION('',(0.,-1.,0.));
#804=DIRECTION('',(1.,0.,0.));
#805=DIRECTION('',(0.,-1.,0.));
#806=DIRECTION('',(1.,0.,0.));
#807=DIRECTION('',(0.,-1.,0.));
#808=DIRECTION('',(1.,0.,0.));
#809=DIRECTION('',(0.,0.,-1.));
#810=DIRECTION('',(0.17364817766693,0.,-0.984807753012208));
#811=DIRECTION('',(1.,0.,0.));
#812=DIRECTION('',(-0.17364817766693,0.,-0.984807753012208));
#813=DIRECTION('',(0.,0.,-1.));
#814=DIRECTION('',(1.,0.,0.));
#815=DIRECTION('',(-0.984807753012208,0.,-0.17364817766693));
#816=DIRECTION('',(0.17364817766693,0.,-0.984807753012208));
#817=DIRECTION('',(-0.984807753012208,0.,-0.17364817766693));
#818=DIRECTION('',(0.17364817766693,0.,-0.984807753012208));
#819=DIRECTION('',(0.,-1.,0.));
#820=DIRECTION('',(0.17364817766693,0.,-0.984807753012208));
#821=DIRECTION('',(0.,-1.,0.));
#822=DIRECTION('',(0.984807753012208,0.,-0.17364817766693));
#823=DIRECTION('',(0.17364817766693,0.,0.984807753012208));
#824=DIRECTION('',(0.,1.,0.));
#825=DIRECTION('',(-0.17364817766693,0.,-0.984807753012208));
#826=DIRECTION('',(0.,-1.,0.));
#827=DIRECTION('',(0.984807753012208,0.,-0.17364817766693));
#828=DIRECTION('',(0.17364817766693,0.,0.984807753012208));
#829=DIRECTION('',(1.,0.,0.));
#830=DIRECTION('',(0.,1.,0.));
#831=DIRECTION('',(1.,0.,0.));
#832=DIRECTION('',(0.,1.,0.));
#833=DIRECTION('',(0.447213595499959,-0.894427190999916,0.));
#834=DIRECTION('',(0.894427190999916,0.447213595499959,0.));
#835=DIRECTION('',(0.447213595499958,0.894427190999916,0.));
#836=DIRECTION('',(0.894427190999916,-0.447213595499959,0.));
#837=DIRECTION('',(1.,0.,0.));
#838=DIRECTION('',(1.,0.,0.));
#839=DIRECTION('',(0.,1.,0.));
#840=DIRECTION('',(0.,0.,1.));
#841=DIRECTION('',(0.,-1.,0.));
#842=DIRECTION('',(-1.,0.,0.));
#843=DIRECTION('',(0.,-1.,0.));
#844=DIRECTION('',(0.,-1.,0.));
#845=DIRECTION('',(1.,0.,0.));
#846=DIRECTION('',(0.,1.,0.));
#847=DIRECTION('',(0.,0.,-1.));
#848=DIRECTION('',(0.,-1.,0.));
#849=DIRECTION('',(-1.,0.,0.));
#850=DIRECTION('',(0.,-1.,0.));
#851=DIRECTION('',(0.,1.,0.));
#852=DIRECTION('',(0.,0.,-1.));
#853=DIRECTION('',(0.,0.,-1.));
#854=DIRECTION('',(0.,1.,0.));
#855=DIRECTION('',(0.,-1.,0.));
#856=DIRECTION('',(1.,0.,0.));
#857=DIRECTION('',(0.,1.,0.));
#858=DIRECTION('',(1.,0.,0.));
#859=DIRECTION('',(0.,1.,0.));
#860=DIRECTION('',(0.,-1.,0.));
#861=DIRECTION('',(0.,0.,1.));
#862=DIRECTION('',(0.,-1.,0.));
#863=DIRECTION('',(1.,0.,0.));
#864=DIRECTION('',(0.,1.,0.));
#865=DIRECTION('',(0.,-1.,0.));
#866=DIRECTION('',(0.,0.,-1.));
#867=DIRECTION('',(0.,-1.,0.));
#868=DIRECTION('',(1.66800334228539E-16,0.,1.));
#869=DIRECTION('',(-1.,0.,1.66800334228539E-16));
#870=DIRECTION('',(0.,-1.,0.));
#871=DIRECTION('',(0.,-1.,0.));
#872=DIRECTION('',(0.,-1.,0.));
#873=DIRECTION('',(1.,0.,0.));
#874=DIRECTION('',(0.,1.,0.));
#875=DIRECTION('',(-1.,0.,0.));
#876=DIRECTION('',(0.,-1.,0.));
#877=DIRECTION('',(1.,0.,0.));
#878=DIRECTION('',(0.,1.,0.));
#879=DIRECTION('',(-1.,0.,0.));
#880=DIRECTION('',(0.,-1.,0.));
#881=DIRECTION('',(1.,0.,0.));
#882=DIRECTION('',(0.,1.,0.));
#883=DIRECTION('',(-1.,0.,0.));
#884=DIRECTION('',(0.,-1.,0.));
#885=DIRECTION('',(1.,0.,0.));
#886=DIRECTION('',(0.,1.,0.));
#887=DIRECTION('',(-1.,0.,0.));
#888=DIRECTION('',(0.,1.,0.));
#889=DIRECTION('',(-1.,0.,0.));
#890=DIRECTION('',(0.,-1.,0.));
#891=DIRECTION('',(1.,0.,0.));
#892=DIRECTION('',(0.,1.,0.));
#893=DIRECTION('',(-1.,0.,0.));
#894=DIRECTION('',(0.,-0.707106781186548,-0.707106781186548));
#895=DIRECTION('',(0.,0.707106781186548,-0.707106781186548));
#896=DIRECTION('',(0.,0.,-1.));
#897=DIRECTION('',(0.,1.,0.));
#898=DIRECTION('',(0.,0.,1.));
#899=DIRECTION('',(0.,-1.,0.));
#900=DIRECTION('',(0.894427190999916,0.447213595499958,0.));
#901=DIRECTION('',(0.447213595499958,-0.894427190999916,0.));
#902=DIRECTION('',(0.,-1.,0.));
#903=DIRECTION('',(1.,0.,0.));
#904=DIRECTION('',(-0.707106781186548,-0.707106781186548,0.));
#905=DIRECTION('',(0.707106781186548,-0.707106781186548,0.));
#906=DIRECTION('',(1.,0.,0.));
#907=DIRECTION('',(0.,1.,0.));
#908=DIRECTION('',(0.707106781186548,-0.707106781186548,0.));
#909=DIRECTION('',(0.707106781186548,0.707106781186548,0.));
#910=DIRECTION('',(0.,1.,0.));
#911=DIRECTION('',(-1.,0.,0.));
#912=DIRECTION('',(0.,-1.,0.));
#913=DIRECTION('',(1.,0.,0.));
#914=DIRECTION('',(0.984807753012208,0.,-0.17364817766693));
#915=DIRECTION('',(0.17364817766693,0.,0.984807753012208));
#916=DIRECTION('',(0.173648177666928,0.,0.984807753012208));
#917=DIRECTION('',(-0.984807753012208,0.,0.173648177666928));
#918=DIRECTION('',(-0.17364817766693,0.,-0.984807753012208));
#919=DIRECTION('',(0.984807753012208,0.,-0.17364817766693));
#920=DIRECTION('',(-0.087155742747658,0.,-0.996194698091746));
#921=DIRECTION('',(-0.996194698091745,0.,0.0871557427476573));
#922=DIRECTION('',(0.,1.,0.));
#923=DIRECTION('',(-1.,0.,0.));
#924=DIRECTION('',(0.,-1.,0.));
#925=DIRECTION('',(1.,0.,0.));
#926=DIRECTION('',(0.,0.,1.));
#927=DIRECTION('',(0.,-1.,0.));
#928=DIRECTION('',(0.,0.,1.));
#929=DIRECTION('',(0.,-1.,0.));
#930=DIRECTION('',(0.,-1.,0.));
#931=DIRECTION('',(1.,0.,0.));
#932=DIRECTION('',(1.,0.,0.));
#933=DIRECTION('',(0.,1.,0.));
#934=DIRECTION('',(0.,-1.,0.));
#935=DIRECTION('',(1.,0.,0.));
#936=DIRECTION('',(0.,-1.,0.));
#937=DIRECTION('',(1.,0.,0.));
#938=DIRECTION('',(-1.,0.,0.));
#939=DIRECTION('',(0.,-1.,0.));
#940=DIRECTION('',(-1.,0.,0.));
#941=DIRECTION('',(0.,-1.,0.));
#942=DIRECTION('',(0.,-1.,0.));
#943=DIRECTION('',(1.,0.,0.));
#944=DIRECTION('',(0.,0.,1.));
#945=DIRECTION('',(0.,-1.,0.));
#946=DIRECTION('',(0.,0.,1.));
#947=DIRECTION('',(0.,-1.,0.));
#948=DIRECTION('',(0.087155742747658,0.,-0.996194698091746));
#949=DIRECTION('',(0.996194698091745,0.,0.0871557427476573));
#950=DIRECTION('',(0.17364817766693,0.,-0.984807753012208));
#951=DIRECTION('',(0.984807753012208,0.,0.17364817766693));
#952=DIRECTION('',(0.173648177666928,0.,-0.984807753012208));
#953=DIRECTION('',(0.984807753012208,0.,0.173648177666928));
#954=DIRECTION('',(-0.984807753012208,0.,-0.17364817766693));
#955=DIRECTION('',(0.17364817766693,0.,-0.984807753012208));
#956=DIRECTION('',(0.,1.,0.));
#957=DIRECTION('',(-1.,0.,0.));
#958=DIRECTION('',(0.,1.,0.));
#959=DIRECTION('',(-1.,0.,0.));
#960=DIRECTION('',(0.707106781186548,0.707106781186548,0.));
#961=DIRECTION('',(-0.707106781186548,0.707106781186548,0.));
#962=DIRECTION('',(0.,-1.,0.));
#963=DIRECTION('',(1.,0.,0.));
#964=DIRECTION('',(0.,-0.707106781186548,-0.707106781186548));
#965=DIRECTION('',(0.,0.707106781186548,-0.707106781186548));
#966=DIRECTION('',(1.,0.,0.));
#967=DIRECTION('',(0.,1.,0.));
#968=DIRECTION('',(0.707106781186548,-0.707106781186548,0.));
#969=DIRECTION('',(0.707106781186548,0.707106781186548,0.));
#970=DIRECTION('',(0.,0.,-1.));
#971=DIRECTION('',(0.,1.,0.));
#972=DIRECTION('',(0.,0.,1.));
#973=DIRECTION('',(0.,-1.,0.));
#974=DIRECTION('',(0.,1.,0.));
#975=DIRECTION('',(-1.,0.,0.));
#976=DIRECTION('',(0.894427190999916,-0.447213595499958,0.));
#977=DIRECTION('',(0.447213595499958,0.894427190999916,0.));
#978=CARTESIAN_POINT('',(0.,0.,0.));
#979=CARTESIAN_POINT('',(0.,-3.46944695195361E-18,0.));
#980=CARTESIAN_POINT('',(-0.01,-3.46944695195361E-18,-0.01));
#981=CARTESIAN_POINT('',(-0.0135000000000398,-3.46944695195361E-18,-0.01));
#982=CARTESIAN_POINT('',(0.01,-3.46944695195361E-18,-0.01));
#983=CARTESIAN_POINT('',(0.00650000000001706,-3.46944695195361E-18,-0.01));
#984=CARTESIAN_POINT('',(-0.02,-3.46944695195361E-18,0.));
#985=CARTESIAN_POINT('',(-0.02,-3.46944695195361E-18,-0.02));
#986=CARTESIAN_POINT('',(-0.02,-3.46944695195361E-18,-0.002));
#987=CARTESIAN_POINT('',(-0.018,-3.46944695195361E-18,-0.002));
#988=CARTESIAN_POINT('',(-0.018,-3.46944695195361E-18,0.));
#989=CARTESIAN_POINT('',(0.02,-3.46944695195361E-18,0.));
#990=CARTESIAN_POINT('',(0.018,-3.46944695195361E-18,0.));
#991=CARTESIAN_POINT('',(0.018,-3.46944695195361E-18,-0.002));
#992=CARTESIAN_POINT('',(0.02,-3.46944695195361E-18,-0.002));
#993=CARTESIAN_POINT('',(0.02,-3.46944695195361E-18,-0.02));
#994=CARTESIAN_POINT('',(0.02,-3.46944695195361E-18,-0.02));
#995=CARTESIAN_POINT('',(0.0165270364466614,-3.46944695195361E-18,-0.0396961550602442));
#996=CARTESIAN_POINT('',(0.0168796904080783,-3.46944695195361E-18,-0.0376961550602442));
#997=CARTESIAN_POINT('',(0.0026,-3.46944695195361E-18,-0.0376961550602442));
#998=CARTESIAN_POINT('',(0.0026,-3.46944695195361E-18,-0.0376961550602442));
#999=CARTESIAN_POINT('',(0.0026,-3.46944695195361E-18,-0.002));
#1000=CARTESIAN_POINT('',(0.0026,-3.46944695195361E-18,-0.004));
#1001=CARTESIAN_POINT('',(0.0006,-3.46944695195361E-18,-0.004));
#1002=CARTESIAN_POINT('',(0.0006,-3.46944695195361E-18,-0.002));
#1003=CARTESIAN_POINT('',(-0.0026,-3.46944695195361E-18,-0.002));
#1004=CARTESIAN_POINT('',(-0.0006,-3.46944695195361E-18,-0.002));
#1005=CARTESIAN_POINT('',(-0.0006,-3.46944695195361E-18,-0.004));
#1006=CARTESIAN_POINT('',(-0.0026,-3.46944695195361E-18,-0.004));
#1007=CARTESIAN_POINT('',(-0.0026,-3.46944695195361E-18,-0.0396961550602442));
#1008=CARTESIAN_POINT('',(-0.0026,-3.46944695195361E-18,-0.0376961550602442));
#1009=CARTESIAN_POINT('',(-0.0165270364466614,-3.46944695195361E-18,-0.0376961550602442));
#1010=CARTESIAN_POINT('',(-0.0168796904080784,-3.46944695195361E-18,-0.0376961550602442));
#1011=CARTESIAN_POINT('',(-0.02,-3.46944695195361E-18,-0.02));
#1012=CARTESIAN_POINT('',(0.,-0.02,0.));
#1013=CARTESIAN_POINT('',(0.0026,-0.02,-0.0376961550602442));
#1014=CARTESIAN_POINT('',(0.0006,-0.02,-0.0376961550602442));
#1015=CARTESIAN_POINT('',(-0.0006,-0.02,-0.0376961550602442));
#1016=CARTESIAN_POINT('',(-0.0006,-0.02,0.));
#1017=CARTESIAN_POINT('',(-0.0006,-0.02,-0.002));
#1018=CARTESIAN_POINT('',(-0.0026,-0.02,-0.002));
#1019=CARTESIAN_POINT('',(0.0006,-0.02,-0.002));
#1020=CARTESIAN_POINT('',(0.0006,-0.02,-0.0376961550602442));
#1021=CARTESIAN_POINT('',(-0.0165270364466614,-0.02,-0.0396961550602442));
#1022=CARTESIAN_POINT('',(-0.0026,-0.002,-0.0396961550602442));
#1023=CARTESIAN_POINT('',(-0.0148488371843068,-0.002,-0.0396961550602442));
#1024=CARTESIAN_POINT('',(-0.0046,-0.002,-0.0396961550602442));
#1025=CARTESIAN_POINT('',(-0.0046,-0.022,-0.0396961550602442));
#1026=CARTESIAN_POINT('',(-0.0046,-0.022,-0.0396961550602442));
#1027=CARTESIAN_POINT('',(0.0165270364466614,-0.022,-0.0396961550602442));
#1028=CARTESIAN_POINT('',(-0.0148488371843068,-0.022,-0.0396961550602442));
#1029=CARTESIAN_POINT('',(-0.0148488371843068,-3.46944695195361E-18,-0.0396961550602442));
#1030=CARTESIAN_POINT('',(0.00261345544380773,-0.024,-0.0216004882565596));
#1031=CARTESIAN_POINT('',(0.01,-0.024,-0.01));
#1032=CARTESIAN_POINT('',(0.0135000000000398,-0.024,-0.01));
#1033=CARTESIAN_POINT('',(-0.01,-0.024,-0.01));
#1034=CARTESIAN_POINT('',(-0.00650000000001705,-0.024,-0.01));
#1035=CARTESIAN_POINT('',(-0.018,-0.024,-0.02));
#1036=CARTESIAN_POINT('',(-0.018,-0.024,-0.002));
#1037=CARTESIAN_POINT('',(-0.018,-0.024,-0.0198250226729481));
#1038=CARTESIAN_POINT('',(-0.0170748057661304,-0.024,-0.0250720599111076));
#1039=CARTESIAN_POINT('',(-0.0148488371843068,-0.024,-0.0376961550602442));
#1040=CARTESIAN_POINT('',(0.0069635182233307,-0.024,-0.0376961550602442));
#1041=CARTESIAN_POINT('',(0.0148488371843068,-0.024,-0.0376961550602442));
#1042=CARTESIAN_POINT('',(0.0172324164146393,-0.024,-0.0241782055056412));
#1043=CARTESIAN_POINT('',(0.018,-0.024,-0.0198250226729481));
#1044=CARTESIAN_POINT('',(0.018,-0.024,0.));
#1045=CARTESIAN_POINT('',(0.018,-0.024,-0.002));
#1046=CARTESIAN_POINT('',(-0.02,-0.024,-0.002));
#1047=CARTESIAN_POINT('',(-0.0165270364466614,0.,-0.0396961550602442));
#1048=CARTESIAN_POINT('',(-0.0168796904080784,-0.002,-0.0376961550602442));
#1049=CARTESIAN_POINT('',(-0.0168184526903312,-3.03844939755875E-5,-0.0380434514155781));
#1050=CARTESIAN_POINT('',(-0.0168184526903312,-0.022,-0.0380434514155781));
#1051=CARTESIAN_POINT('',(-0.0168184526903312,-0.022,-0.0380434514155781));
#1052=CARTESIAN_POINT('',(-0.0165270364466614,-0.022,-0.0396961550602442));
#1053=CARTESIAN_POINT('',(-0.02,-0.022,-0.02));
#1054=CARTESIAN_POINT('',(-0.02,0.,-0.02));
#1055=CARTESIAN_POINT('',(0.02,0.,-0.02));
#1056=CARTESIAN_POINT('',(0.02,0.,-0.02));
#1057=CARTESIAN_POINT('',(0.02,-0.022,-0.02));
#1058=CARTESIAN_POINT('',(0.02,-0.022,-0.02));
#1059=CARTESIAN_POINT('',(0.0168184526903312,-0.022,-0.0380434514155781));
#1060=CARTESIAN_POINT('',(0.0168184526903312,-3.46944695195361E-18,-0.0380434514155781));
#1061=CARTESIAN_POINT('',(0.0168184526903312,-3.03844939755876E-5,-0.0380434514155781));
#1062=CARTESIAN_POINT('',(0.0168796904080783,-0.002,-0.0376961550602442));
#1063=CARTESIAN_POINT('',(0.0069635182233307,-0.022,-0.0376961550602442));
#1064=CARTESIAN_POINT('',(-0.0148488371843068,-0.022,-0.0376961550602442));
#1065=CARTESIAN_POINT('',(-0.0046,-0.022,-0.0376961550602442));
#1066=CARTESIAN_POINT('',(0.0046,-0.022,-0.0376961550602442));
#1067=CARTESIAN_POINT('',(0.0046,-0.022,-0.0396961550602442));
#1068=CARTESIAN_POINT('',(0.0165270364466614,-0.022,-0.0396961550602442));
#1069=CARTESIAN_POINT('',(0.0148488371843068,-0.022,-0.0396961550602442));
#1070=CARTESIAN_POINT('',(0.0148488371843068,-0.022,-0.0376961550602442));
#1071=CARTESIAN_POINT('',(-0.0165270364466614,-0.02,-0.0396961550602442));
#1072=CARTESIAN_POINT('',(0.0165270364466614,-0.002,-0.0396961550602442));
#1073=CARTESIAN_POINT('',(0.0046,-0.002,-0.0396961550602442));
#1074=CARTESIAN_POINT('',(0.0148488371843068,-0.002,-0.0396961550602442));
#1075=CARTESIAN_POINT('',(0.0148488371843068,-0.022,-0.0396961550602442));
#1076=CARTESIAN_POINT('',(0.0046,-0.02,-0.0396961550602442));
#1077=CARTESIAN_POINT('',(-0.02,-0.024,0.));
#1078=CARTESIAN_POINT('',(-0.02,-0.022,0.));
#1079=CARTESIAN_POINT('',(-0.02,-0.022,-0.002));
#1080=CARTESIAN_POINT('',(-0.02,-0.024,-0.002));
#1081=CARTESIAN_POINT('',(0.02,-0.02,0.));
#1082=CARTESIAN_POINT('',(0.02,-0.02,-0.002));
#1083=CARTESIAN_POINT('',(0.02,-0.022,-0.002));
#1084=CARTESIAN_POINT('',(0.02,-0.022,-0.02));
#1085=CARTESIAN_POINT('',(0.,0.,0.));
#1086=CARTESIAN_POINT('',(-0.018,0.,0.));
#1087=CARTESIAN_POINT('',(-0.018,-0.022,0.));
#1088=CARTESIAN_POINT('',(0.02,-0.022,0.));
#1089=CARTESIAN_POINT('',(0.018,-0.022,0.));
#1090=CARTESIAN_POINT('',(0.018,0.,0.));
#1091=CARTESIAN_POINT('',(0.0026,-0.022,-0.0376961550602442));
#1092=CARTESIAN_POINT('',(0.0026,-0.022,-0.0376961550602442));
#1093=CARTESIAN_POINT('',(0.0026,-0.018,-0.0376961550602442));
#1094=CARTESIAN_POINT('',(0.0026,-0.018,-0.002));
#1095=CARTESIAN_POINT('',(0.0026,-0.018,-0.004));
#1096=CARTESIAN_POINT('',(0.0026,-3.46944695195361E-18,-0.004));
#1097=CARTESIAN_POINT('',(-0.0026,-0.022,-0.0376961550602442));
#1098=CARTESIAN_POINT('',(-0.0026,-0.022,-0.004));
#1099=CARTESIAN_POINT('',(-0.0026,-0.018,-0.004));
#1100=CARTESIAN_POINT('',(-0.0026,-0.018,-0.0376961550602442));
#1101=CARTESIAN_POINT('',(-0.0026,-0.018,-0.0376961550602442));
#1102=CARTESIAN_POINT('',(-0.0026,-3.46944695195361E-18,-0.0376961550602442));
#1103=CARTESIAN_POINT('',(-0.0026,-3.46944695195361E-18,-0.002));
#1104=CARTESIAN_POINT('',(-0.0006,-3.46944695195361E-18,-0.002));
#1105=CARTESIAN_POINT('',(0.0006,-0.02,-0.002));
#1106=CARTESIAN_POINT('',(-0.01,-0.024,-0.01));
#1107=CARTESIAN_POINT('',(-0.01,-0.00199999999998296,-0.01));
#1108=CARTESIAN_POINT('',(-0.0115,-0.00199999999998296,-0.01));
#1109=CARTESIAN_POINT('',(-0.01,-0.0219999999999602,-0.01));
#1110=CARTESIAN_POINT('',(-0.00850000000000001,-0.0219999999999602,-0.01));
#1111=CARTESIAN_POINT('',(0.01,0.,-0.01));
#1112=CARTESIAN_POINT('',(0.01,-0.022000000000017,-0.01));
#1113=CARTESIAN_POINT('',(0.0115,-0.022000000000017,-0.01));
#1114=CARTESIAN_POINT('',(0.01,-0.00200000000003979,-0.01));
#1115=CARTESIAN_POINT('',(0.00850000000000001,-0.00200000000003979,-0.01));
#1116=CARTESIAN_POINT('',(0.01,-0.024,-0.01));
#1117=CARTESIAN_POINT('',(-0.01,-3.46944695195361E-18,-0.01));
#1118=CARTESIAN_POINT('',(0.01,-0.00200000000003979,-0.01));
#1119=CARTESIAN_POINT('',(-0.01,-0.0219999999999602,-0.01));
#1120=CARTESIAN_POINT('',(0.0006,-3.46944695195361E-18,-0.004));
#1121=CARTESIAN_POINT('',(0.0006,-0.018,-0.004));
#1122=CARTESIAN_POINT('',(0.0006,-0.018,-0.0376961550602442));
#1123=CARTESIAN_POINT('',(0.0006,-0.018,-0.0376961550602442));
#1124=CARTESIAN_POINT('',(0.000599999999999997,-0.02,-0.0376961550602442));
#1125=CARTESIAN_POINT('',(0.0026,-0.02,-0.0376961550602442));
#1126=CARTESIAN_POINT('',(0.0026,-0.018,-0.0376961550602442));
#1127=CARTESIAN_POINT('',(0.000600000000001814,-0.02,-0.0379579544535026));
#1128=CARTESIAN_POINT('',(0.00259999999996225,-0.0199999999999622,-0.0376961549948032));
#1129=CARTESIAN_POINT('',(0.0026,-0.0180000000000027,-0.0379579544535026));
#1130=CARTESIAN_POINT('',(0.000808275030260208,-0.0201041375151306,-0.0384814311759755));
#1131=CARTESIAN_POINT('',(0.00246146828567654,-0.0198614682856768,-0.0377354008879212));
#1132=CARTESIAN_POINT('',(0.00270413751513054,-0.0182082750302598,-0.0384814311759755));
#1133=CARTESIAN_POINT('',(0.00169792861381564,-0.0205489643069074,-0.039147190753678));
#1134=CARTESIAN_POINT('',(0.0025785356176475,-0.0199785356176469,-0.0386002755854912));
#1135=CARTESIAN_POINT('',(0.00314896430690767,-0.0190979286138157,-0.039147190753678));
#1136=CARTESIAN_POINT('',(0.00302944776600007,-0.0212147238830011,-0.0395920175450161));
#1137=CARTESIAN_POINT('',(0.00339343674063927,-0.0207934367406413,-0.039470078856304));
#1138=CARTESIAN_POINT('',(0.00381472388300022,-0.0204294477660003,-0.0395920175450161));
#1139=CARTESIAN_POINT('',(0.00407640121894794,-0.0217382006094717,-0.0396961550602442));
#1140=CARTESIAN_POINT('',(0.00420730090807356,-0.0216073009080693,-0.0396961550602479));
#1141=CARTESIAN_POINT('',(0.00433820060947365,-0.0214764012189473,-0.0396961550602442));
#1142=CARTESIAN_POINT('',(0.00460000000000001,-0.022,-0.0396961550602442));
#1143=CARTESIAN_POINT('',(0.00460000000000001,-0.022,-0.0396961550602442));
#1144=CARTESIAN_POINT('',(0.0046,-0.022,-0.0396961550602442));
#1145=CARTESIAN_POINT('',(0.0046,-0.022,-0.0376961550602442));
#1146=CARTESIAN_POINT('',(0.0046,-0.022,-0.0376961550602442));
#1147=CARTESIAN_POINT('',(0.0046,-0.002,-0.0376961550602442));
#1148=CARTESIAN_POINT('',(0.,-0.002,-0.0376961550602442));
#1149=CARTESIAN_POINT('',(0.0148488371843068,-0.002,-0.0376961550602442));
#1150=CARTESIAN_POINT('',(0.0148488371843068,-0.02,-0.0376961550602442));
#1151=CARTESIAN_POINT('',(0.0148488371843068,-0.022,-0.0376961550602442));
#1152=CARTESIAN_POINT('',(0.0148488371843068,-0.022,-0.0376961550602442));
#1153=CARTESIAN_POINT('',(0.0148488371843068,-0.022,-0.0376961550602442));
#1154=CARTESIAN_POINT('',(0.0180303844939756,-0.022,-0.0196527036446662));
#1155=CARTESIAN_POINT('',(0.018,-0.022,-0.0198250226729481));
#1156=CARTESIAN_POINT('',(0.018,0.,-0.002));
#1157=CARTESIAN_POINT('',(0.018,-0.022,-0.002));
#1158=CARTESIAN_POINT('',(0.018,-0.022,0.));
#1159=CARTESIAN_POINT('',(0.018,-0.022,-0.002));
#1160=CARTESIAN_POINT('',(0.018,-0.022,-0.002));
#1161=CARTESIAN_POINT('',(0.018,-0.022,-0.002));
#1162=CARTESIAN_POINT('',(-0.018,0.,-0.002));
#1163=CARTESIAN_POINT('',(-0.018,-0.022,-0.002));
#1164=CARTESIAN_POINT('',(0.,-0.022,-0.002));
#1165=CARTESIAN_POINT('',(-0.018,-0.022,-0.002));
#1166=CARTESIAN_POINT('',(-0.018,-0.022,-0.002));
#1167=CARTESIAN_POINT('',(-0.018,-0.022,-0.002));
#1168=CARTESIAN_POINT('',(-0.018,-0.022,-0.0216004882565596));
#1169=CARTESIAN_POINT('',(-0.018,-0.022,-0.0198250226729481));
#1170=CARTESIAN_POINT('',(-0.0170748057661304,-0.022,-0.0250720599111076));
#1171=CARTESIAN_POINT('',(-0.0148488371843068,-0.022,-0.0376961550602442));
#1172=CARTESIAN_POINT('',(-0.0148488371843068,-0.022,-0.0376961550602442));
#1173=CARTESIAN_POINT('',(-0.0148488371843068,-0.022,-0.0376961550602442));
#1174=CARTESIAN_POINT('',(-0.0148488371843068,0.,-0.0376961550602442));
#1175=CARTESIAN_POINT('',(-0.0148488371843068,-0.002,-0.0376961550602442));
#1176=CARTESIAN_POINT('',(-0.0006,-0.022,-0.004));
#1177=CARTESIAN_POINT('',(-0.0006,-0.018,-0.004));
#1178=CARTESIAN_POINT('',(0.,-0.002,-0.0376961550602442));
#1179=CARTESIAN_POINT('',(-0.0046,-0.002,-0.0376961550602442));
#1180=CARTESIAN_POINT('',(-0.0006,-0.018,-0.0376961550602442));
#1181=CARTESIAN_POINT('',(-0.0006,-0.018,-0.0376961550602442));
#1182=CARTESIAN_POINT('',(-0.0046,-0.02,-0.0376961550602442));
#1183=CARTESIAN_POINT('',(-0.0046,-0.022,-0.0376961550602442));
#1184=CARTESIAN_POINT('',(-0.0026,-0.018,-0.0376961550602442));
#1185=CARTESIAN_POINT('',(-0.0026,-0.02,-0.0376961550602442));
#1186=CARTESIAN_POINT('',(-0.000599999999999997,-0.02,-0.0376961550602442));
#1187=CARTESIAN_POINT('',(-0.0026,-0.0180000000000027,-0.0379579544535022));
#1188=CARTESIAN_POINT('',(-0.00259999999996225,-0.0199999999999622,-0.0376961549948032));
#1189=CARTESIAN_POINT('',(-0.000600000000001814,-0.02,-0.0379579544535022));
#1190=CARTESIAN_POINT('',(-0.00270413751513054,-0.0182082750302598,-0.0384814311759757));
#1191=CARTESIAN_POINT('',(-0.00246146828567655,-0.0198614682856768,-0.0377354008879212));
#1192=CARTESIAN_POINT('',(-0.000808275030260246,-0.0201041375151306,-0.0384814311759757));
#1193=CARTESIAN_POINT('',(-0.00314896430690766,-0.0190979286138157,-0.039147190753678));
#1194=CARTESIAN_POINT('',(-0.00257853561764749,-0.0199785356176469,-0.0386002755854912));
#1195=CARTESIAN_POINT('',(-0.00169792861381551,-0.0205489643069074,-0.039147190753678));
#1196=CARTESIAN_POINT('',(-0.00381472388300022,-0.0204294477660004,-0.0395920175450161));
#1197=CARTESIAN_POINT('',(-0.00339343674063927,-0.0207934367406413,-0.0394700788563039));
#1198=CARTESIAN_POINT('',(-0.00302944776600053,-0.0212147238830011,-0.0395920175450161));
#1199=CARTESIAN_POINT('',(-0.00433820060947365,-0.0214764012189473,-0.0396961550602442));
#1200=CARTESIAN_POINT('',(-0.00420730090807356,-0.0216073009080693,-0.0396961550602479));
#1201=CARTESIAN_POINT('',(-0.00407640121894698,-0.0217382006094717,-0.0396961550602442));
#1202=CARTESIAN_POINT('',(-0.0046,-0.022,-0.0396961550602442));
#1203=CARTESIAN_POINT('',(-0.00460000000000001,-0.022,-0.0396961550602442));
#1204=CARTESIAN_POINT('',(-0.00460000000000001,-0.022,-0.0396961550602442));
#1205=MECHANICAL_DESIGN_GEOMETRIC_PRESENTATION_REPRESENTATION('',(#672),
#1206);
#1206=(
GEOMETRIC_REPRESENTATION_CONTEXT(3)
GLOBAL_UNCERTAINTY_ASSIGNED_CONTEXT((#1207))
GLOBAL_UNIT_ASSIGNED_CONTEXT((#1210,#1209,#1208))
REPRESENTATION_CONTEXT('KP0002-01_Foot','TOP_LEVEL_ASSEMBLY_PART')
);
#1207=UNCERTAINTY_MEASURE_WITH_UNIT(LENGTH_MEASURE(2.E-5),#1210,
'DISTANCE_ACCURACY_VALUE','Maximum Tolerance applied to model');
#1208=(
NAMED_UNIT(*)
SI_UNIT($,.STERADIAN.)
SOLID_ANGLE_UNIT()
);
#1209=(
NAMED_UNIT(*)
PLANE_ANGLE_UNIT()
SI_UNIT($,.RADIAN.)
);
#1210=(
LENGTH_UNIT()
NAMED_UNIT(*)
SI_UNIT($,.METRE.)
);
#1211=PRODUCT_DEFINITION_SHAPE('','',#1212);
#1212=PRODUCT_DEFINITION('','',#1214,#1213);
#1213=PRODUCT_DEFINITION_CONTEXT('',#1220,'design');
#1214=PRODUCT_DEFINITION_FORMATION_WITH_SPECIFIED_SOURCE('','',#1216,
 .NOT_KNOWN.);
#1215=PRODUCT_RELATED_PRODUCT_CATEGORY('','',(#1216));
#1216=PRODUCT('KP0002-01_Foot','KP0002-01_Foot','KP0002-01_Foot',(#1218));
#1217=PRODUCT_CATEGORY('','');
#1218=PRODUCT_CONTEXT('',#1220,'mechanical');
#1219=APPLICATION_PROTOCOL_DEFINITION('international standard',
'automotive_design',2010,#1220);
#1220=APPLICATION_CONTEXT(
'core data for automotive mechanical design processes');
ENDSEC;
END-ISO-10303-21;
