ISO-10303-21;
HEADER;
/* Generated by software containing ST-Developer
 * from STEP Tools, Inc. (www.steptools.com) 
 */
/* OPTION: using custom renumber hook */

FILE_DESCRIPTION(
/* description */ ('STEP AP214',
'CAx-IF Rec.Pracs.---User Defined Attributes---1.5---2016-08-15'),
/* implementation_level */ '2;1');

FILE_NAME(
/* name */ '6a65b59f8ce625604a87548d',
/* time_stamp */ '2026-07-26T07:22:07Z',
/* author */ (''),
/* organization */ (''),
/* preprocessor_version */ 'ST-DEVELOPER v20',
/* originating_system */ 'ONSHAPE BY PTC INC, 1.218',
/* authorisation */ '  ');

FILE_SCHEMA (('AUTOMOTIVE_DESIGN {1 0 10303 214 3 1 1}'));
ENDSEC;

DATA;
#10=PROPERTY_DEFINITION_REPRESENTATION(#14,#12);
#11=PROPERTY_DEFINITION_REPRESENTATION(#15,#13);
#12=REPRESENTATION('',(#16),#1122);
#13=REPRESENTATION('',(#17),#1122);
#14=PROPERTY_DEFINITION('pmi validation property','',#1127);
#15=PROPERTY_DEFINITION('pmi validation property','',#1127);
#16=VALUE_REPRESENTATION_ITEM('number of annotations',COUNT_MEASURE(0.));
#17=VALUE_REPRESENTATION_ITEM('number of views',COUNT_MEASURE(0.));
#18=SHAPE_REPRESENTATION_RELATIONSHIP('','',#657,#19);
#19=ADVANCED_BREP_SHAPE_REPRESENTATION('',(#655),#1122);
#20=PLANE('',#669);
#21=PLANE('',#670);
#22=PLANE('',#673);
#23=PLANE('',#675);
#24=PLANE('',#677);
#25=PLANE('',#679);
#26=PLANE('',#681);
#27=PLANE('',#683);
#28=PLANE('',#690);
#29=PLANE('',#691);
#30=PLANE('',#692);
#31=PLANE('',#693);
#32=PLANE('',#699);
#33=PLANE('',#700);
#34=PLANE('',#702);
#35=PLANE('',#703);
#36=PLANE('',#704);
#37=PLANE('',#705);
#38=PLANE('',#707);
#39=PLANE('',#708);
#40=PLANE('',#710);
#41=PLANE('',#711);
#42=PLANE('',#712);
#43=PLANE('',#713);
#44=PLANE('',#714);
#45=PLANE('',#715);
#46=ELLIPSE('',#662,0.0643467170879759,0.0455);
#47=ELLIPSE('',#663,0.0455443776205043,0.0455);
#48=ELLIPSE('',#665,0.0455447864363874,0.0455);
#49=ELLIPSE('',#666,0.0643467170879758,0.0455);
#50=ELLIPSE('',#676,0.0671751442127221,0.0475);
#51=ELLIPSE('',#678,0.0475463282851418,0.0475);
#52=ELLIPSE('',#682,0.0475467550709539,0.0475);
#53=ELLIPSE('',#684,0.067175144212722,0.0475);
#54=ELLIPSE('',#686,0.0657337431781615,0.0475);
#55=ELLIPSE('',#687,0.067175144212722,0.0475);
#56=ELLIPSE('',#695,0.067175144212722,0.0475);
#57=ELLIPSE('',#696,0.0657401177694096,0.0475);
#58=B_SPLINE_CURVE_WITH_KNOTS('',3,(#898,#899,#900,#901,#902),
 .UNSPECIFIED.,.F.,.F.,(4,1,4),(0.,0.00156246759128731,0.00312493518257463),
 .UNSPECIFIED.);
#59=B_SPLINE_CURVE_WITH_KNOTS('',3,(#906,#907,#908,#909),.UNSPECIFIED.,
 .F.,.F.,(4,4),(1.11076499342709E-17,0.00156154717941172),.UNSPECIFIED.);
#60=B_SPLINE_CURVE_WITH_KNOTS('',3,(#917,#918,#919,#920),.UNSPECIFIED.,
 .F.,.F.,(4,4),(0.,1.),.UNSPECIFIED.);
#61=B_SPLINE_CURVE_WITH_KNOTS('',3,(#924,#925,#926,#927),.UNSPECIFIED.,
 .F.,.F.,(4,4),(0.,1.),.UNSPECIFIED.);
#62=B_SPLINE_CURVE_WITH_KNOTS('',3,(#935,#936,#937,#938),.UNSPECIFIED.,
 .F.,.F.,(4,4),(0.,1.),.UNSPECIFIED.);
#63=B_SPLINE_CURVE_WITH_KNOTS('',3,(#942,#943,#944,#945,#946),
 .UNSPECIFIED.,.F.,.F.,(4,1,4),(6.50521303491303E-18,0.00156246386524043,
0.00312492773048086),.UNSPECIFIED.);
#64=B_SPLINE_CURVE_WITH_KNOTS('',3,(#948,#949,#950,#951,#952),
 .UNSPECIFIED.,.F.,.F.,(4,1,4),(0.,0.00156244215394559,0.00312488430789118),
 .UNSPECIFIED.);
#65=B_SPLINE_CURVE_WITH_KNOTS('',3,(#986,#987,#988,#989,#990),
 .UNSPECIFIED.,.F.,.F.,(4,1,4),(0.,0.00156243873622885,0.0031248774724577),
 .UNSPECIFIED.);
#66=B_SPLINE_CURVE_WITH_KNOTS('',3,(#1047,#1048,#1049,#1050),
 .UNSPECIFIED.,.F.,.F.,(4,4),(0.,0.0015615310104001),.UNSPECIFIED.);
#67=B_SPLINE_CURVE_WITH_KNOTS('',3,(#1072,#1073,#1074,#1075),
 .UNSPECIFIED.,.F.,.F.,(4,4),(1.11076499342709E-17,0.00156154223880996),
 .UNSPECIFIED.);
#68=B_SPLINE_CURVE_WITH_KNOTS('',3,(#1084,#1085,#1086,#1087),
 .UNSPECIFIED.,.F.,.F.,(4,4),(0.,1.),.UNSPECIFIED.);
#69=B_SPLINE_CURVE_WITH_KNOTS('',3,(#1092,#1093,#1094,#1095),
 .UNSPECIFIED.,.F.,.F.,(4,4),(0.,1.),.UNSPECIFIED.);
#70=B_SPLINE_CURVE_WITH_KNOTS('',3,(#1099,#1100,#1101,#1102),
 .UNSPECIFIED.,.F.,.F.,(4,4),(0.,1.),.UNSPECIFIED.);
#71=CIRCLE('',#660,0.0455);
#72=CIRCLE('',#661,0.0455);
#73=CIRCLE('',#664,0.0455);
#74=CIRCLE('',#667,0.0455);
#75=CIRCLE('',#671,0.0475);
#76=CIRCLE('',#672,0.0475);
#77=CIRCLE('',#680,0.0475);
#78=CIRCLE('',#688,0.0475);
#79=CIRCLE('',#689,0.0475);
#80=CIRCLE('',#697,0.0475);
#81=CIRCLE('',#698,0.0475);
#82=ORIENTED_EDGE('',*,*,#268,.F.);
#83=ORIENTED_EDGE('',*,*,#269,.F.);
#84=ORIENTED_EDGE('',*,*,#270,.F.);
#85=ORIENTED_EDGE('',*,*,#271,.F.);
#86=ORIENTED_EDGE('',*,*,#272,.T.);
#87=ORIENTED_EDGE('',*,*,#273,.F.);
#88=ORIENTED_EDGE('',*,*,#274,.F.);
#89=ORIENTED_EDGE('',*,*,#275,.T.);
#90=ORIENTED_EDGE('',*,*,#276,.F.);
#91=ORIENTED_EDGE('',*,*,#277,.F.);
#92=ORIENTED_EDGE('',*,*,#278,.F.);
#93=ORIENTED_EDGE('',*,*,#279,.F.);
#94=ORIENTED_EDGE('',*,*,#280,.F.);
#95=ORIENTED_EDGE('',*,*,#281,.T.);
#96=ORIENTED_EDGE('',*,*,#282,.F.);
#97=ORIENTED_EDGE('',*,*,#283,.F.);
#98=ORIENTED_EDGE('',*,*,#284,.T.);
#99=ORIENTED_EDGE('',*,*,#285,.F.);
#100=ORIENTED_EDGE('',*,*,#286,.T.);
#101=ORIENTED_EDGE('',*,*,#287,.T.);
#102=ORIENTED_EDGE('',*,*,#285,.T.);
#103=ORIENTED_EDGE('',*,*,#288,.T.);
#104=ORIENTED_EDGE('',*,*,#289,.T.);
#105=ORIENTED_EDGE('',*,*,#268,.T.);
#106=ORIENTED_EDGE('',*,*,#287,.F.);
#107=ORIENTED_EDGE('',*,*,#290,.T.);
#108=ORIENTED_EDGE('',*,*,#291,.T.);
#109=ORIENTED_EDGE('',*,*,#292,.T.);
#110=ORIENTED_EDGE('',*,*,#293,.F.);
#111=ORIENTED_EDGE('',*,*,#294,.F.);
#112=ORIENTED_EDGE('',*,*,#295,.T.);
#113=ORIENTED_EDGE('',*,*,#296,.T.);
#114=ORIENTED_EDGE('',*,*,#269,.T.);
#115=ORIENTED_EDGE('',*,*,#289,.F.);
#116=ORIENTED_EDGE('',*,*,#297,.T.);
#117=ORIENTED_EDGE('',*,*,#298,.F.);
#118=ORIENTED_EDGE('',*,*,#299,.F.);
#119=ORIENTED_EDGE('',*,*,#300,.T.);
#120=ORIENTED_EDGE('',*,*,#296,.F.);
#121=ORIENTED_EDGE('',*,*,#301,.T.);
#122=ORIENTED_EDGE('',*,*,#302,.T.);
#123=ORIENTED_EDGE('',*,*,#270,.T.);
#124=ORIENTED_EDGE('',*,*,#271,.T.);
#125=ORIENTED_EDGE('',*,*,#302,.F.);
#126=ORIENTED_EDGE('',*,*,#303,.T.);
#127=ORIENTED_EDGE('',*,*,#304,.T.);
#128=ORIENTED_EDGE('',*,*,#305,.T.);
#129=ORIENTED_EDGE('',*,*,#274,.T.);
#130=ORIENTED_EDGE('',*,*,#306,.T.);
#131=ORIENTED_EDGE('',*,*,#307,.T.);
#132=ORIENTED_EDGE('',*,*,#276,.T.);
#133=ORIENTED_EDGE('',*,*,#308,.F.);
#134=ORIENTED_EDGE('',*,*,#309,.F.);
#135=ORIENTED_EDGE('',*,*,#310,.F.);
#136=ORIENTED_EDGE('',*,*,#311,.F.);
#137=ORIENTED_EDGE('',*,*,#278,.T.);
#138=ORIENTED_EDGE('',*,*,#312,.F.);
#139=ORIENTED_EDGE('',*,*,#313,.F.);
#140=ORIENTED_EDGE('',*,*,#314,.F.);
#141=ORIENTED_EDGE('',*,*,#315,.F.);
#142=ORIENTED_EDGE('',*,*,#316,.F.);
#143=ORIENTED_EDGE('',*,*,#317,.F.);
#144=ORIENTED_EDGE('',*,*,#318,.F.);
#145=ORIENTED_EDGE('',*,*,#319,.F.);
#146=ORIENTED_EDGE('',*,*,#320,.F.);
#147=ORIENTED_EDGE('',*,*,#321,.F.);
#148=ORIENTED_EDGE('',*,*,#322,.F.);
#149=ORIENTED_EDGE('',*,*,#323,.F.);
#150=ORIENTED_EDGE('',*,*,#280,.T.);
#151=ORIENTED_EDGE('',*,*,#324,.F.);
#152=ORIENTED_EDGE('',*,*,#325,.T.);
#153=ORIENTED_EDGE('',*,*,#326,.T.);
#154=ORIENTED_EDGE('',*,*,#327,.T.);
#155=ORIENTED_EDGE('',*,*,#282,.T.);
#156=ORIENTED_EDGE('',*,*,#328,.T.);
#157=ORIENTED_EDGE('',*,*,#329,.T.);
#158=ORIENTED_EDGE('',*,*,#330,.T.);
#159=ORIENTED_EDGE('',*,*,#297,.F.);
#160=ORIENTED_EDGE('',*,*,#290,.F.);
#161=ORIENTED_EDGE('',*,*,#286,.F.);
#162=ORIENTED_EDGE('',*,*,#331,.T.);
#163=ORIENTED_EDGE('',*,*,#332,.T.);
#164=ORIENTED_EDGE('',*,*,#326,.F.);
#165=ORIENTED_EDGE('',*,*,#333,.T.);
#166=ORIENTED_EDGE('',*,*,#334,.T.);
#167=ORIENTED_EDGE('',*,*,#322,.T.);
#168=ORIENTED_EDGE('',*,*,#284,.F.);
#169=ORIENTED_EDGE('',*,*,#335,.F.);
#170=ORIENTED_EDGE('',*,*,#331,.F.);
#171=ORIENTED_EDGE('',*,*,#288,.F.);
#172=ORIENTED_EDGE('',*,*,#292,.F.);
#173=ORIENTED_EDGE('',*,*,#336,.F.);
#174=ORIENTED_EDGE('',*,*,#317,.T.);
#175=ORIENTED_EDGE('',*,*,#337,.F.);
#176=ORIENTED_EDGE('',*,*,#336,.T.);
#177=ORIENTED_EDGE('',*,*,#291,.F.);
#178=ORIENTED_EDGE('',*,*,#338,.T.);
#179=ORIENTED_EDGE('',*,*,#318,.T.);
#180=ORIENTED_EDGE('',*,*,#338,.F.);
#181=ORIENTED_EDGE('',*,*,#300,.F.);
#182=ORIENTED_EDGE('',*,*,#339,.T.);
#183=ORIENTED_EDGE('',*,*,#319,.T.);
#184=ORIENTED_EDGE('',*,*,#301,.F.);
#185=ORIENTED_EDGE('',*,*,#295,.F.);
#186=ORIENTED_EDGE('',*,*,#340,.T.);
#187=ORIENTED_EDGE('',*,*,#341,.T.);
#188=ORIENTED_EDGE('',*,*,#342,.T.);
#189=ORIENTED_EDGE('',*,*,#309,.T.);
#190=ORIENTED_EDGE('',*,*,#343,.T.);
#191=ORIENTED_EDGE('',*,*,#344,.T.);
#192=ORIENTED_EDGE('',*,*,#307,.F.);
#193=ORIENTED_EDGE('',*,*,#345,.T.);
#194=ORIENTED_EDGE('',*,*,#346,.T.);
#195=ORIENTED_EDGE('',*,*,#303,.F.);
#196=ORIENTED_EDGE('',*,*,#346,.F.);
#197=ORIENTED_EDGE('',*,*,#347,.F.);
#198=ORIENTED_EDGE('',*,*,#272,.F.);
#199=ORIENTED_EDGE('',*,*,#304,.F.);
#200=ORIENTED_EDGE('',*,*,#305,.F.);
#201=ORIENTED_EDGE('',*,*,#344,.F.);
#202=ORIENTED_EDGE('',*,*,#348,.F.);
#203=ORIENTED_EDGE('',*,*,#345,.F.);
#204=ORIENTED_EDGE('',*,*,#306,.F.);
#205=ORIENTED_EDGE('',*,*,#273,.T.);
#206=ORIENTED_EDGE('',*,*,#347,.T.);
#207=ORIENTED_EDGE('',*,*,#342,.F.);
#208=ORIENTED_EDGE('',*,*,#349,.T.);
#209=ORIENTED_EDGE('',*,*,#350,.T.);
#210=ORIENTED_EDGE('',*,*,#312,.T.);
#211=ORIENTED_EDGE('',*,*,#277,.T.);
#212=ORIENTED_EDGE('',*,*,#310,.T.);
#213=ORIENTED_EDGE('',*,*,#308,.T.);
#214=ORIENTED_EDGE('',*,*,#275,.F.);
#215=ORIENTED_EDGE('',*,*,#348,.T.);
#216=ORIENTED_EDGE('',*,*,#343,.F.);
#217=ORIENTED_EDGE('',*,*,#279,.T.);
#218=ORIENTED_EDGE('',*,*,#311,.T.);
#219=ORIENTED_EDGE('',*,*,#351,.T.);
#220=ORIENTED_EDGE('',*,*,#328,.F.);
#221=ORIENTED_EDGE('',*,*,#324,.T.);
#222=ORIENTED_EDGE('',*,*,#352,.T.);
#223=ORIENTED_EDGE('',*,*,#313,.T.);
#224=ORIENTED_EDGE('',*,*,#350,.F.);
#225=ORIENTED_EDGE('',*,*,#314,.T.);
#226=ORIENTED_EDGE('',*,*,#352,.F.);
#227=ORIENTED_EDGE('',*,*,#353,.T.);
#228=ORIENTED_EDGE('',*,*,#354,.F.);
#229=ORIENTED_EDGE('',*,*,#281,.F.);
#230=ORIENTED_EDGE('',*,*,#323,.T.);
#231=ORIENTED_EDGE('',*,*,#334,.F.);
#232=ORIENTED_EDGE('',*,*,#333,.F.);
#233=ORIENTED_EDGE('',*,*,#325,.F.);
#234=ORIENTED_EDGE('',*,*,#354,.T.);
#235=ORIENTED_EDGE('',*,*,#283,.T.);
#236=ORIENTED_EDGE('',*,*,#327,.F.);
#237=ORIENTED_EDGE('',*,*,#332,.F.);
#238=ORIENTED_EDGE('',*,*,#335,.T.);
#239=ORIENTED_EDGE('',*,*,#355,.T.);
#240=ORIENTED_EDGE('',*,*,#329,.F.);
#241=ORIENTED_EDGE('',*,*,#351,.F.);
#242=ORIENTED_EDGE('',*,*,#321,.T.);
#243=ORIENTED_EDGE('',*,*,#356,.T.);
#244=ORIENTED_EDGE('',*,*,#298,.T.);
#245=ORIENTED_EDGE('',*,*,#330,.F.);
#246=ORIENTED_EDGE('',*,*,#355,.F.);
#247=ORIENTED_EDGE('',*,*,#357,.T.);
#248=ORIENTED_EDGE('',*,*,#337,.T.);
#249=ORIENTED_EDGE('',*,*,#316,.T.);
#250=ORIENTED_EDGE('',*,*,#358,.T.);
#251=ORIENTED_EDGE('',*,*,#359,.T.);
#252=ORIENTED_EDGE('',*,*,#293,.T.);
#253=ORIENTED_EDGE('',*,*,#299,.T.);
#254=ORIENTED_EDGE('',*,*,#357,.F.);
#255=ORIENTED_EDGE('',*,*,#356,.F.);
#256=ORIENTED_EDGE('',*,*,#320,.T.);
#257=ORIENTED_EDGE('',*,*,#339,.F.);
#258=ORIENTED_EDGE('',*,*,#341,.F.);
#259=ORIENTED_EDGE('',*,*,#360,.T.);
#260=ORIENTED_EDGE('',*,*,#358,.F.);
#261=ORIENTED_EDGE('',*,*,#315,.T.);
#262=ORIENTED_EDGE('',*,*,#353,.F.);
#263=ORIENTED_EDGE('',*,*,#349,.F.);
#264=ORIENTED_EDGE('',*,*,#294,.T.);
#265=ORIENTED_EDGE('',*,*,#359,.F.);
#266=ORIENTED_EDGE('',*,*,#360,.F.);
#267=ORIENTED_EDGE('',*,*,#340,.F.);
#268=EDGE_CURVE('',#361,#362,#422,.F.);
#269=EDGE_CURVE('',#363,#361,#71,.F.);
#270=EDGE_CURVE('',#364,#363,#423,.T.);
#271=EDGE_CURVE('',#365,#364,#58,.T.);
#272=EDGE_CURVE('',#365,#366,#72,.F.);
#273=EDGE_CURVE('',#367,#366,#59,.T.);
#274=EDGE_CURVE('',#368,#367,#46,.F.);
#275=EDGE_CURVE('',#368,#369,#424,.T.);
#276=EDGE_CURVE('',#370,#369,#47,.T.);
#277=EDGE_CURVE('',#371,#370,#60,.T.);
#278=EDGE_CURVE('',#372,#371,#73,.T.);
#279=EDGE_CURVE('',#373,#372,#61,.T.);
#280=EDGE_CURVE('',#374,#373,#48,.T.);
#281=EDGE_CURVE('',#374,#375,#425,.T.);
#282=EDGE_CURVE('',#376,#375,#49,.F.);
#283=EDGE_CURVE('',#377,#376,#62,.T.);
#284=EDGE_CURVE('',#377,#378,#74,.F.);
#285=EDGE_CURVE('',#362,#378,#63,.T.);
#286=EDGE_CURVE('',#379,#380,#64,.T.);
#287=EDGE_CURVE('',#380,#362,#426,.T.);
#288=EDGE_CURVE('',#378,#379,#427,.F.);
#289=EDGE_CURVE('',#381,#361,#428,.F.);
#290=EDGE_CURVE('',#380,#381,#429,.T.);
#291=EDGE_CURVE('',#382,#383,#430,.F.);
#292=EDGE_CURVE('',#383,#384,#431,.F.);
#293=EDGE_CURVE('',#385,#384,#432,.F.);
#294=EDGE_CURVE('',#386,#385,#433,.F.);
#295=EDGE_CURVE('',#386,#387,#75,.T.);
#296=EDGE_CURVE('',#387,#363,#434,.T.);
#297=EDGE_CURVE('',#381,#388,#76,.T.);
#298=EDGE_CURVE('',#389,#388,#435,.F.);
#299=EDGE_CURVE('',#390,#389,#436,.F.);
#300=EDGE_CURVE('',#390,#382,#437,.T.);
#301=EDGE_CURVE('',#387,#391,#438,.F.);
#302=EDGE_CURVE('',#391,#364,#439,.T.);
#303=EDGE_CURVE('',#391,#392,#65,.T.);
#304=EDGE_CURVE('',#392,#365,#440,.F.);
#305=EDGE_CURVE('',#393,#368,#441,.T.);
#306=EDGE_CURVE('',#367,#394,#442,.T.);
#307=EDGE_CURVE('',#394,#393,#50,.T.);
#308=EDGE_CURVE('',#395,#369,#443,.F.);
#309=EDGE_CURVE('',#396,#395,#51,.T.);
#310=EDGE_CURVE('',#370,#396,#444,.T.);
#311=EDGE_CURVE('',#372,#397,#445,.T.);
#312=EDGE_CURVE('',#398,#371,#446,.F.);
#313=EDGE_CURVE('',#399,#398,#447,.T.);
#314=EDGE_CURVE('',#400,#399,#77,.T.);
#315=EDGE_CURVE('',#401,#400,#448,.F.);
#316=EDGE_CURVE('',#402,#401,#449,.T.);
#317=EDGE_CURVE('',#403,#402,#450,.F.);
#318=EDGE_CURVE('',#404,#403,#451,.F.);
#319=EDGE_CURVE('',#405,#404,#452,.T.);
#320=EDGE_CURVE('',#406,#405,#453,.T.);
#321=EDGE_CURVE('',#397,#406,#454,.T.);
#322=EDGE_CURVE('',#407,#408,#52,.T.);
#323=EDGE_CURVE('',#374,#407,#455,.T.);
#324=EDGE_CURVE('',#408,#373,#456,.F.);
#325=EDGE_CURVE('',#375,#409,#457,.T.);
#326=EDGE_CURVE('',#409,#410,#53,.T.);
#327=EDGE_CURVE('',#410,#376,#458,.T.);
#328=EDGE_CURVE('',#408,#411,#54,.F.);
#329=EDGE_CURVE('',#411,#412,#55,.T.);
#330=EDGE_CURVE('',#412,#388,#459,.T.);
#331=EDGE_CURVE('',#379,#413,#78,.T.);
#332=EDGE_CURVE('',#413,#410,#66,.T.);
#333=EDGE_CURVE('',#409,#414,#79,.T.);
#334=EDGE_CURVE('',#414,#407,#460,.T.);
#335=EDGE_CURVE('',#413,#377,#461,.T.);
#336=EDGE_CURVE('',#403,#383,#462,.T.);
#337=EDGE_CURVE('',#384,#402,#463,.F.);
#338=EDGE_CURVE('',#382,#404,#464,.F.);
#339=EDGE_CURVE('',#390,#405,#465,.F.);
#340=EDGE_CURVE('',#386,#415,#466,.F.);
#341=EDGE_CURVE('',#415,#416,#56,.T.);
#342=EDGE_CURVE('',#416,#396,#57,.F.);
#343=EDGE_CURVE('',#395,#417,#467,.F.);
#344=EDGE_CURVE('',#417,#393,#80,.T.);
#345=EDGE_CURVE('',#394,#418,#67,.T.);
#346=EDGE_CURVE('',#418,#392,#81,.T.);
#347=EDGE_CURVE('',#366,#418,#468,.T.);
#348=EDGE_CURVE('',#368,#417,#469,.T.);
#349=EDGE_CURVE('',#416,#419,#68,.F.);
#350=EDGE_CURVE('',#419,#398,#470,.F.);
#351=EDGE_CURVE('',#397,#411,#69,.F.);
#352=EDGE_CURVE('',#419,#399,#471,.F.);
#353=EDGE_CURVE('',#419,#400,#70,.T.);
#354=EDGE_CURVE('',#375,#414,#472,.T.);
#355=EDGE_CURVE('',#420,#412,#473,.F.);
#356=EDGE_CURVE('',#406,#420,#474,.F.);
#357=EDGE_CURVE('',#420,#389,#475,.T.);
#358=EDGE_CURVE('',#401,#421,#476,.T.);
#359=EDGE_CURVE('',#421,#385,#477,.T.);
#360=EDGE_CURVE('',#415,#421,#478,.T.);
#361=VERTEX_POINT('',#892);
#362=VERTEX_POINT('',#893);
#363=VERTEX_POINT('',#895);
#364=VERTEX_POINT('',#897);
#365=VERTEX_POINT('',#903);
#366=VERTEX_POINT('',#905);
#367=VERTEX_POINT('',#910);
#368=VERTEX_POINT('',#912);
#369=VERTEX_POINT('',#914);
#370=VERTEX_POINT('',#916);
#371=VERTEX_POINT('',#921);
#372=VERTEX_POINT('',#923);
#373=VERTEX_POINT('',#928);
#374=VERTEX_POINT('',#930);
#375=VERTEX_POINT('',#932);
#376=VERTEX_POINT('',#934);
#377=VERTEX_POINT('',#939);
#378=VERTEX_POINT('',#941);
#379=VERTEX_POINT('',#953);
#380=VERTEX_POINT('',#954);
#381=VERTEX_POINT('',#959);
#382=VERTEX_POINT('',#963);
#383=VERTEX_POINT('',#964);
#384=VERTEX_POINT('',#966);
#385=VERTEX_POINT('',#968);
#386=VERTEX_POINT('',#970);
#387=VERTEX_POINT('',#972);
#388=VERTEX_POINT('',#975);
#389=VERTEX_POINT('',#977);
#390=VERTEX_POINT('',#979);
#391=VERTEX_POINT('',#983);
#392=VERTEX_POINT('',#991);
#393=VERTEX_POINT('',#995);
#394=VERTEX_POINT('',#997);
#395=VERTEX_POINT('',#1001);
#396=VERTEX_POINT('',#1003);
#397=VERTEX_POINT('',#1007);
#398=VERTEX_POINT('',#1009);
#399=VERTEX_POINT('',#1011);
#400=VERTEX_POINT('',#1013);
#401=VERTEX_POINT('',#1015);
#402=VERTEX_POINT('',#1017);
#403=VERTEX_POINT('',#1019);
#404=VERTEX_POINT('',#1021);
#405=VERTEX_POINT('',#1023);
#406=VERTEX_POINT('',#1025);
#407=VERTEX_POINT('',#1029);
#408=VERTEX_POINT('',#1030);
#409=VERTEX_POINT('',#1035);
#410=VERTEX_POINT('',#1037);
#411=VERTEX_POINT('',#1041);
#412=VERTEX_POINT('',#1043);
#413=VERTEX_POINT('',#1046);
#414=VERTEX_POINT('',#1052);
#415=VERTEX_POINT('',#1065);
#416=VERTEX_POINT('',#1067);
#417=VERTEX_POINT('',#1070);
#418=VERTEX_POINT('',#1076);
#419=VERTEX_POINT('',#1088);
#420=VERTEX_POINT('',#1109);
#421=VERTEX_POINT('',#1115);
#422=LINE('',#891,#479);
#423=LINE('',#896,#480);
#424=LINE('',#913,#481);
#425=LINE('',#931,#482);
#426=LINE('',#955,#483);
#427=LINE('',#956,#484);
#428=LINE('',#958,#485);
#429=LINE('',#960,#486);
#430=LINE('',#962,#487);
#431=LINE('',#965,#488);
#432=LINE('',#967,#489);
#433=LINE('',#969,#490);
#434=LINE('',#973,#491);
#435=LINE('',#976,#492);
#436=LINE('',#978,#493);
#437=LINE('',#980,#494);
#438=LINE('',#982,#495);
#439=LINE('',#984,#496);
#440=LINE('',#992,#497);
#441=LINE('',#994,#498);
#442=LINE('',#996,#499);
#443=LINE('',#1000,#500);
#444=LINE('',#1004,#501);
#445=LINE('',#1006,#502);
#446=LINE('',#1008,#503);
#447=LINE('',#1010,#504);
#448=LINE('',#1014,#505);
#449=LINE('',#1016,#506);
#450=LINE('',#1018,#507);
#451=LINE('',#1020,#508);
#452=LINE('',#1022,#509);
#453=LINE('',#1024,#510);
#454=LINE('',#1026,#511);
#455=LINE('',#1031,#512);
#456=LINE('',#1032,#513);
#457=LINE('',#1034,#514);
#458=LINE('',#1038,#515);
#459=LINE('',#1044,#516);
#460=LINE('',#1053,#517);
#461=LINE('',#1055,#518);
#462=LINE('',#1057,#519);
#463=LINE('',#1058,#520);
#464=LINE('',#1060,#521);
#465=LINE('',#1062,#522);
#466=LINE('',#1064,#523);
#467=LINE('',#1069,#524);
#468=LINE('',#1079,#525);
#469=LINE('',#1081,#526);
#470=LINE('',#1089,#527);
#471=LINE('',#1097,#528);
#472=LINE('',#1104,#529);
#473=LINE('',#1108,#530);
#474=LINE('',#1110,#531);
#475=LINE('',#1112,#532);
#476=LINE('',#1114,#533);
#477=LINE('',#1116,#534);
#478=LINE('',#1119,#535);
#479=VECTOR('',#720,1.);
#480=VECTOR('',#723,1.);
#481=VECTOR('',#728,1.);
#482=VECTOR('',#735,1.);
#483=VECTOR('',#742,1.);
#484=VECTOR('',#743,1.);
#485=VECTOR('',#746,1.);
#486=VECTOR('',#747,1.);
#487=VECTOR('',#750,1.);
#488=VECTOR('',#751,1.);
#489=VECTOR('',#752,1.);
#490=VECTOR('',#753,1.);
#491=VECTOR('',#756,1.);
#492=VECTOR('',#759,1.);
#493=VECTOR('',#760,1.);
#494=VECTOR('',#761,1.);
#495=VECTOR('',#764,1.);
#496=VECTOR('',#765,1.);
#497=VECTOR('',#768,1.);
#498=VECTOR('',#771,1.);
#499=VECTOR('',#772,1.);
#500=VECTOR('',#777,1.);
#501=VECTOR('',#780,1.);
#502=VECTOR('',#783,1.);
#503=VECTOR('',#784,1.);
#504=VECTOR('',#785,1.);
#505=VECTOR('',#788,1.);
#506=VECTOR('',#789,1.);
#507=VECTOR('',#790,1.);
#508=VECTOR('',#791,1.);
#509=VECTOR('',#792,1.);
#510=VECTOR('',#793,1.);
#511=VECTOR('',#794,1.);
#512=VECTOR('',#799,1.);
#513=VECTOR('',#800,1.);
#514=VECTOR('',#803,1.);
#515=VECTOR('',#806,1.);
#516=VECTOR('',#813,1.);
#517=VECTOR('',#818,1.);
#518=VECTOR('',#821,1.);
#519=VECTOR('',#824,1.);
#520=VECTOR('',#825,1.);
#521=VECTOR('',#828,1.);
#522=VECTOR('',#831,1.);
#523=VECTOR('',#834,1.);
#524=VECTOR('',#839,1.);
#525=VECTOR('',#846,1.);
#526=VECTOR('',#849,1.);
#527=VECTOR('',#854,1.);
#528=VECTOR('',#861,1.);
#529=VECTOR('',#866,1.);
#530=VECTOR('',#873,1.);
#531=VECTOR('',#874,1.);
#532=VECTOR('',#877,1.);
#533=VECTOR('',#880,1.);
#534=VECTOR('',#881,1.);
#535=VECTOR('',#886,1.);
#536=EDGE_LOOP('',(#82,#83,#84,#85,#86,#87,#88,#89,#90,#91,#92,#93,#94,
#95,#96,#97,#98,#99));
#537=EDGE_LOOP('',(#100,#101,#102,#103));
#538=EDGE_LOOP('',(#104,#105,#106,#107));
#539=EDGE_LOOP('',(#108,#109,#110,#111,#112,#113,#114,#115,#116,#117,#118,
#119));
#540=EDGE_LOOP('',(#120,#121,#122,#123));
#541=EDGE_LOOP('',(#124,#125,#126,#127));
#542=EDGE_LOOP('',(#128,#129,#130,#131));
#543=EDGE_LOOP('',(#132,#133,#134,#135));
#544=EDGE_LOOP('',(#136,#137,#138,#139,#140,#141,#142,#143,#144,#145,#146,
#147));
#545=EDGE_LOOP('',(#148,#149,#150,#151));
#546=EDGE_LOOP('',(#152,#153,#154,#155));
#547=EDGE_LOOP('',(#156,#157,#158,#159,#160,#161,#162,#163,#164,#165,#166,
#167));
#548=EDGE_LOOP('',(#168,#169,#170,#171));
#549=EDGE_LOOP('',(#172,#173,#174,#175));
#550=EDGE_LOOP('',(#176,#177,#178,#179));
#551=EDGE_LOOP('',(#180,#181,#182,#183));
#552=EDGE_LOOP('',(#184,#185,#186,#187,#188,#189,#190,#191,#192,#193,#194,
#195));
#553=EDGE_LOOP('',(#196,#197,#198,#199));
#554=EDGE_LOOP('',(#200,#201,#202));
#555=EDGE_LOOP('',(#203,#204,#205,#206));
#556=EDGE_LOOP('',(#207,#208,#209,#210,#211,#212));
#557=EDGE_LOOP('',(#213,#214,#215,#216));
#558=EDGE_LOOP('',(#217,#218,#219,#220,#221));
#559=EDGE_LOOP('',(#222,#223,#224));
#560=EDGE_LOOP('',(#225,#226,#227));
#561=EDGE_LOOP('',(#228,#229,#230,#231));
#562=EDGE_LOOP('',(#232,#233,#234));
#563=EDGE_LOOP('',(#235,#236,#237,#238));
#564=EDGE_LOOP('',(#239,#240,#241,#242,#243));
#565=EDGE_LOOP('',(#244,#245,#246,#247));
#566=EDGE_LOOP('',(#248,#249,#250,#251,#252));
#567=EDGE_LOOP('',(#253,#254,#255,#256,#257));
#568=EDGE_LOOP('',(#258,#259,#260,#261,#262,#263));
#569=EDGE_LOOP('',(#264,#265,#266,#267));
#570=FACE_BOUND('',#536,.T.);
#571=FACE_BOUND('',#537,.T.);
#572=FACE_BOUND('',#538,.T.);
#573=FACE_BOUND('',#539,.T.);
#574=FACE_BOUND('',#540,.T.);
#575=FACE_BOUND('',#541,.T.);
#576=FACE_BOUND('',#542,.T.);
#577=FACE_BOUND('',#543,.T.);
#578=FACE_BOUND('',#544,.T.);
#579=FACE_BOUND('',#545,.T.);
#580=FACE_BOUND('',#546,.T.);
#581=FACE_BOUND('',#547,.T.);
#582=FACE_BOUND('',#548,.T.);
#583=FACE_BOUND('',#549,.T.);
#584=FACE_BOUND('',#550,.T.);
#585=FACE_BOUND('',#551,.T.);
#586=FACE_BOUND('',#552,.T.);
#587=FACE_BOUND('',#553,.T.);
#588=FACE_BOUND('',#554,.T.);
#589=FACE_BOUND('',#555,.T.);
#590=FACE_BOUND('',#556,.T.);
#591=FACE_BOUND('',#557,.T.);
#592=FACE_BOUND('',#558,.T.);
#593=FACE_BOUND('',#559,.T.);
#594=FACE_BOUND('',#560,.T.);
#595=FACE_BOUND('',#561,.T.);
#596=FACE_BOUND('',#562,.T.);
#597=FACE_BOUND('',#563,.T.);
#598=FACE_BOUND('',#564,.T.);
#599=FACE_BOUND('',#565,.T.);
#600=FACE_BOUND('',#566,.T.);
#601=FACE_BOUND('',#567,.T.);
#602=FACE_BOUND('',#568,.T.);
#603=FACE_BOUND('',#569,.T.);
#604=CYLINDRICAL_SURFACE('',#659,0.0455);
#605=CYLINDRICAL_SURFACE('',#668,0.002);
#606=CYLINDRICAL_SURFACE('',#674,0.002);
#607=CYLINDRICAL_SURFACE('',#685,0.0475);
#608=CYLINDRICAL_SURFACE('',#694,0.0475);
#609=CYLINDRICAL_SURFACE('',#701,0.002);
#610=CYLINDRICAL_SURFACE('',#706,0.0475);
#611=CYLINDRICAL_SURFACE('',#709,0.002);
#612=ADVANCED_FACE('',(#570),#604,.F.);
#613=ADVANCED_FACE('',(#571),#605,.T.);
#614=ADVANCED_FACE('',(#572),#20,.T.);
#615=ADVANCED_FACE('',(#573),#21,.T.);
#616=ADVANCED_FACE('',(#574),#22,.T.);
#617=ADVANCED_FACE('',(#575),#606,.T.);
#618=ADVANCED_FACE('',(#576),#23,.T.);
#619=ADVANCED_FACE('',(#577),#24,.F.);
#620=ADVANCED_FACE('',(#578),#25,.F.);
#621=ADVANCED_FACE('',(#579),#26,.F.);
#622=ADVANCED_FACE('',(#580),#27,.T.);
#623=ADVANCED_FACE('',(#581),#607,.T.);
#624=ADVANCED_FACE('',(#582),#28,.F.);
#625=ADVANCED_FACE('',(#583),#29,.F.);
#626=ADVANCED_FACE('',(#584),#30,.T.);
#627=ADVANCED_FACE('',(#585),#31,.T.);
#628=ADVANCED_FACE('',(#586),#608,.T.);
#629=ADVANCED_FACE('',(#587),#32,.F.);
#630=ADVANCED_FACE('',(#588),#33,.F.);
#631=ADVANCED_FACE('',(#589),#609,.T.);
#632=ADVANCED_FACE('',(#590),#34,.T.);
#633=ADVANCED_FACE('',(#591),#35,.F.);
#634=ADVANCED_FACE('',(#592),#36,.T.);
#635=ADVANCED_FACE('',(#593),#37,.T.);
#636=ADVANCED_FACE('',(#594),#610,.T.);
#637=ADVANCED_FACE('',(#595),#38,.F.);
#638=ADVANCED_FACE('',(#596),#39,.F.);
#639=ADVANCED_FACE('',(#597),#611,.T.);
#640=ADVANCED_FACE('',(#598),#40,.T.);
#641=ADVANCED_FACE('',(#599),#41,.T.);
#642=ADVANCED_FACE('',(#600),#42,.T.);
#643=ADVANCED_FACE('',(#601),#43,.T.);
#644=ADVANCED_FACE('',(#602),#44,.T.);
#645=ADVANCED_FACE('',(#603),#45,.T.);
#646=CLOSED_SHELL('',(#612,#613,#614,#615,#616,#617,#618,#619,#620,#621,
#622,#623,#624,#625,#626,#627,#628,#629,#630,#631,#632,#633,#634,#635,#636,
#637,#638,#639,#640,#641,#642,#643,#644,#645));
#647=STYLED_ITEM('',(#648),#655);
#648=PRESENTATION_STYLE_ASSIGNMENT((#649));
#649=SURFACE_STYLE_USAGE(.BOTH.,#650);
#650=SURFACE_SIDE_STYLE('',(#651));
#651=SURFACE_STYLE_FILL_AREA(#652);
#652=FILL_AREA_STYLE('',(#653));
#653=FILL_AREA_STYLE_COLOUR('',#654);
#654=COLOUR_RGB('',0.745098039215686,0.745098039215686,0.745098039215686);
#655=MANIFOLD_SOLID_BREP('KP0018-01_SlipRingBrushB',#646);
#656=SHAPE_DEFINITION_REPRESENTATION(#1127,#657);
#657=SHAPE_REPRESENTATION('KP0018-01_SlipRingBrushB',(#658),#1122);
#658=AXIS2_PLACEMENT_3D('',#889,#716,#717);
#659=AXIS2_PLACEMENT_3D('',#890,#718,#719);
#660=AXIS2_PLACEMENT_3D('',#894,#721,#722);
#661=AXIS2_PLACEMENT_3D('',#904,#724,#725);
#662=AXIS2_PLACEMENT_3D('',#911,#726,#727);
#663=AXIS2_PLACEMENT_3D('',#915,#729,#730);
#664=AXIS2_PLACEMENT_3D('',#922,#731,#732);
#665=AXIS2_PLACEMENT_3D('',#929,#733,#734);
#666=AXIS2_PLACEMENT_3D('',#933,#736,#737);
#667=AXIS2_PLACEMENT_3D('',#940,#738,#739);
#668=AXIS2_PLACEMENT_3D('',#947,#740,#741);
#669=AXIS2_PLACEMENT_3D('',#957,#744,#745);
#670=AXIS2_PLACEMENT_3D('',#961,#748,#749);
#671=AXIS2_PLACEMENT_3D('',#971,#754,#755);
#672=AXIS2_PLACEMENT_3D('',#974,#757,#758);
#673=AXIS2_PLACEMENT_3D('',#981,#762,#763);
#674=AXIS2_PLACEMENT_3D('',#985,#766,#767);
#675=AXIS2_PLACEMENT_3D('',#993,#769,#770);
#676=AXIS2_PLACEMENT_3D('',#998,#773,#774);
#677=AXIS2_PLACEMENT_3D('',#999,#775,#776);
#678=AXIS2_PLACEMENT_3D('',#1002,#778,#779);
#679=AXIS2_PLACEMENT_3D('',#1005,#781,#782);
#680=AXIS2_PLACEMENT_3D('',#1012,#786,#787);
#681=AXIS2_PLACEMENT_3D('',#1027,#795,#796);
#682=AXIS2_PLACEMENT_3D('',#1028,#797,#798);
#683=AXIS2_PLACEMENT_3D('',#1033,#801,#802);
#684=AXIS2_PLACEMENT_3D('',#1036,#804,#805);
#685=AXIS2_PLACEMENT_3D('',#1039,#807,#808);
#686=AXIS2_PLACEMENT_3D('',#1040,#809,#810);
#687=AXIS2_PLACEMENT_3D('',#1042,#811,#812);
#688=AXIS2_PLACEMENT_3D('',#1045,#814,#815);
#689=AXIS2_PLACEMENT_3D('',#1051,#816,#817);
#690=AXIS2_PLACEMENT_3D('',#1054,#819,#820);
#691=AXIS2_PLACEMENT_3D('',#1056,#822,#823);
#692=AXIS2_PLACEMENT_3D('',#1059,#826,#827);
#693=AXIS2_PLACEMENT_3D('',#1061,#829,#830);
#694=AXIS2_PLACEMENT_3D('',#1063,#832,#833);
#695=AXIS2_PLACEMENT_3D('',#1066,#835,#836);
#696=AXIS2_PLACEMENT_3D('',#1068,#837,#838);
#697=AXIS2_PLACEMENT_3D('',#1071,#840,#841);
#698=AXIS2_PLACEMENT_3D('',#1077,#842,#843);
#699=AXIS2_PLACEMENT_3D('',#1078,#844,#845);
#700=AXIS2_PLACEMENT_3D('',#1080,#847,#848);
#701=AXIS2_PLACEMENT_3D('',#1082,#850,#851);
#702=AXIS2_PLACEMENT_3D('',#1083,#852,#853);
#703=AXIS2_PLACEMENT_3D('',#1090,#855,#856);
#704=AXIS2_PLACEMENT_3D('',#1091,#857,#858);
#705=AXIS2_PLACEMENT_3D('',#1096,#859,#860);
#706=AXIS2_PLACEMENT_3D('',#1098,#862,#863);
#707=AXIS2_PLACEMENT_3D('',#1103,#864,#865);
#708=AXIS2_PLACEMENT_3D('',#1105,#867,#868);
#709=AXIS2_PLACEMENT_3D('',#1106,#869,#870);
#710=AXIS2_PLACEMENT_3D('',#1107,#871,#872);
#711=AXIS2_PLACEMENT_3D('',#1111,#875,#876);
#712=AXIS2_PLACEMENT_3D('',#1113,#878,#879);
#713=AXIS2_PLACEMENT_3D('',#1117,#882,#883);
#714=AXIS2_PLACEMENT_3D('',#1118,#884,#885);
#715=AXIS2_PLACEMENT_3D('',#1120,#887,#888);
#716=DIRECTION('',(0.,0.,1.));
#717=DIRECTION('',(1.,0.,0.));
#718=DIRECTION('',(1.,0.,0.));
#719=DIRECTION('',(0.,1.,0.));
#720=DIRECTION('',(1.,0.,0.));
#721=DIRECTION('',(1.,0.,0.));
#722=DIRECTION('',(0.,1.,0.));
#723=DIRECTION('',(1.,0.,0.));
#724=DIRECTION('',(1.,0.,0.));
#725=DIRECTION('',(0.,1.,0.));
#726=DIRECTION('',(-0.707106781186547,0.541675220419703,0.454519477672043));
#727=DIRECTION('',(0.707106781186548,0.541675220419702,0.454519477672042));
#728=DIRECTION('',(1.,0.,0.));
#729=DIRECTION('',(0.999025618027454,-0.0441340517612484,0.));
#730=DIRECTION('',(0.0441340517612484,0.999025618027453,0.));
#731=DIRECTION('',(1.,0.,0.));
#732=DIRECTION('',(0.,1.,0.));
#733=DIRECTION('',(0.999016650644527,0.0443365733338879,0.));
#734=DIRECTION('',(0.0443365733338879,-0.999016650644527,0.));
#735=DIRECTION('',(-1.,7.73850115700224E-14,0.));
#736=DIRECTION('',(-0.707106781186548,-0.541675220419702,0.454519477672043));
#737=DIRECTION('',(0.707106781186547,-0.541675220419703,0.454519477672044));
#738=DIRECTION('',(1.,0.,0.));
#739=DIRECTION('',(0.,1.,0.));
#740=DIRECTION('',(0.,-0.707106781186548,-0.707106781186548));
#741=DIRECTION('',(0.,0.707106781186548,-0.707106781186548));
#742=DIRECTION('',(0.,-0.707106781186548,-0.707106781186548));
#743=DIRECTION('',(0.,-0.707106781186548,-0.707106781186548));
#744=DIRECTION('',(0.,0.707106781186548,-0.707106781186548));
#745=DIRECTION('',(0.,0.707106781186548,0.707106781186548));
#746=DIRECTION('',(0.,0.707106781186548,0.707106781186548));
#747=DIRECTION('',(1.,0.,0.));
#748=DIRECTION('',(1.,0.,0.));
#749=DIRECTION('',(0.,1.,0.));
#750=DIRECTION('',(0.,1.,0.));
#751=DIRECTION('',(0.,0.,1.));
#752=DIRECTION('',(0.,-1.,-3.40573184757972E-15));
#753=DIRECTION('',(0.,3.3832611471936E-15,-1.));
#754=DIRECTION('',(1.,0.,0.));
#755=DIRECTION('',(0.,1.,0.));
#756=DIRECTION('',(0.,0.707106781186548,-0.707106781186548));
#757=DIRECTION('',(1.,0.,0.));
#758=DIRECTION('',(0.,1.,0.));
#759=DIRECTION('',(0.,9.91694444792216E-15,1.));
#760=DIRECTION('',(0.,-1.,9.91694444792216E-15));
#761=DIRECTION('',(0.,0.,1.));
#762=DIRECTION('',(0.,-0.707106781186548,-0.707106781186548));
#763=DIRECTION('',(0.,0.707106781186548,-0.707106781186548));
#764=DIRECTION('',(1.,0.,0.));
#765=DIRECTION('',(0.,0.707106781186548,-0.707106781186548));
#766=DIRECTION('',(0.,-0.707106781186548,0.707106781186548));
#767=DIRECTION('',(0.,-0.707106781186548,-0.707106781186548));
#768=DIRECTION('',(0.,-0.707106781186548,0.707106781186548));
#769=DIRECTION('',(-0.707106781186547,0.541675220419703,0.454519477672043));
#770=DIRECTION('',(-0.608120402411344,-0.793844806099445,0.));
#771=DIRECTION('',(-1.05635494537795E-14,0.64278760968653,-0.766044443118986));
#772=DIRECTION('',(2.68860792464625E-14,-0.642787609686518,0.766044443118996));
#773=DIRECTION('',(-0.707106781186547,0.541675220419703,0.454519477672043));
#774=DIRECTION('',(0.707106781186548,0.541675220419702,0.454519477672042));
#775=DIRECTION('',(0.999025618027454,-0.0441340517612484,0.));
#776=DIRECTION('',(0.0441340517612484,0.999025618027454,0.));
#777=DIRECTION('',(0.,0.,1.));
#778=DIRECTION('',(0.999025618027454,-0.0441340517612484,0.));
#779=DIRECTION('',(0.0441340517612484,0.999025618027453,0.));
#780=DIRECTION('',(0.,0.,1.));
#781=DIRECTION('',(1.,0.,0.));
#782=DIRECTION('',(0.,1.,0.));
#783=DIRECTION('',(0.,0.,1.));
#784=DIRECTION('',(0.,0.,1.));
#785=DIRECTION('',(0.,1.,0.));
#786=DIRECTION('',(1.,0.,0.));
#787=DIRECTION('',(0.,1.,0.));
#788=DIRECTION('',(-1.6916305735968E-15,-1.6916305735968E-15,1.));
#789=DIRECTION('',(0.,-1.,-3.40573184757972E-15));
#790=DIRECTION('',(0.,0.,1.));
#791=DIRECTION('',(0.,1.,0.));
#792=DIRECTION('',(0.,0.,1.));
#793=DIRECTION('',(0.,-1.,9.91694444792216E-15));
#794=DIRECTION('',(-4.95847222396108E-15,4.95847222396108E-15,1.));
#795=DIRECTION('',(0.999016650644527,0.0443365733338879,0.));
#796=DIRECTION('',(-0.0443365733338879,0.999016650644527,0.));
#797=DIRECTION('',(0.999016650644527,0.0443365733338879,0.));
#798=DIRECTION('',(0.0443365733338879,-0.999016650644527,0.));
#799=DIRECTION('',(0.,0.,1.));
#800=DIRECTION('',(0.,0.,1.));
#801=DIRECTION('',(-0.707106781186548,-0.541675220419702,0.454519477672043));
#802=DIRECTION('',(0.608120402411343,-0.793844806099446,0.));
#803=DIRECTION('',(-3.88048755444976E-15,0.642787609686543,0.766044443118975));
#804=DIRECTION('',(-0.707106781186548,-0.541675220419702,0.454519477672043));
#805=DIRECTION('',(0.707106781186547,-0.541675220419703,0.454519477672044));
#806=DIRECTION('',(-9.5402216680993E-15,-0.642787609686532,-0.766044443118985));
#807=DIRECTION('',(1.,0.,0.));
#808=DIRECTION('',(0.,1.,0.));
#809=DIRECTION('',(-0.722612127400965,0.691253725728152,-7.17315804517059E-15));
#810=DIRECTION('',(0.691253725728152,0.722612127400965,-7.49856500193757E-15));
#811=DIRECTION('',(-0.707106781186548,0.707106781186547,-7.01233866777604E-15));
#812=DIRECTION('',(0.707106781186547,0.707106781186548,-7.01233866777605E-15));
#813=DIRECTION('',(1.,0.,0.));
#814=DIRECTION('',(1.,0.,0.));
#815=DIRECTION('',(0.,1.,0.));
#816=DIRECTION('',(1.,0.,0.));
#817=DIRECTION('',(0.,1.,0.));
#818=DIRECTION('',(1.,0.,0.));
#819=DIRECTION('',(1.,0.,0.));
#820=DIRECTION('',(0.,1.,0.));
#821=DIRECTION('',(0.,-0.642787609686551,-0.766044443118969));
#822=DIRECTION('',(0.,1.,6.08046228923695E-15));
#823=DIRECTION('',(0.,-6.08046228923695E-15,1.));
#824=DIRECTION('',(1.,0.,0.));
#825=DIRECTION('',(1.,0.,0.));
#826=DIRECTION('',(0.,0.,1.));
#827=DIRECTION('',(0.,-1.,0.));
#828=DIRECTION('',(1.,0.,0.));
#829=DIRECTION('',(0.,1.,-9.91694444792216E-15));
#830=DIRECTION('',(0.,9.91694444792216E-15,1.));
#831=DIRECTION('',(1.,0.,0.));
#832=DIRECTION('',(1.,0.,0.));
#833=DIRECTION('',(0.,1.,0.));
#834=DIRECTION('',(1.,0.,0.));
#835=DIRECTION('',(-0.707106781186548,-0.707106781186547,-2.39232689970557E-15));
#836=DIRECTION('',(0.707106781186547,-0.707106781186548,-2.39232689970558E-15));
#837=DIRECTION('',(-0.722542058208829,-0.691326966145072,-4.397674752326E-15));
#838=DIRECTION('',(0.691326966145072,-0.722542058208829,-4.59624045131178E-15));
#839=DIRECTION('',(1.,0.,0.));
#840=DIRECTION('',(1.,0.,0.));
#841=DIRECTION('',(0.,1.,0.));
#842=DIRECTION('',(1.,0.,0.));
#843=DIRECTION('',(0.,1.,0.));
#844=DIRECTION('',(1.,0.,0.));
#845=DIRECTION('',(0.,1.,0.));
#846=DIRECTION('',(0.,-0.642787609686551,0.766044443118969));
#847=DIRECTION('',(1.,0.,0.));
#848=DIRECTION('',(0.,1.,0.));
#849=DIRECTION('',(0.,0.,1.));
#850=DIRECTION('',(0.,0.642787609686539,-0.766044443118979));
#851=DIRECTION('',(0.,0.766044443118979,0.642787609686539));
#852=DIRECTION('',(-0.722542058208829,-0.691326966145072,-4.397674752326E-15));
#853=DIRECTION('',(0.691326966145072,-0.722542058208829,0.));
#854=DIRECTION('',(0.691326966145072,-0.722542058208829,0.));
#855=DIRECTION('',(0.,-1.,0.));
#856=DIRECTION('',(1.,0.,0.));
#857=DIRECTION('',(-0.722612127400965,0.691253725728152,-7.17315804517059E-15));
#858=DIRECTION('',(-0.691253725728152,-0.722612127400965,0.));
#859=DIRECTION('',(0.,-9.91694444792216E-15,-1.));
#860=DIRECTION('',(0.,1.,-9.91694444792216E-15));
#861=DIRECTION('',(1.,0.,0.));
#862=DIRECTION('',(1.,0.,0.));
#863=DIRECTION('',(0.,1.,0.));
#864=DIRECTION('',(7.73850115700224E-14,1.,0.));
#865=DIRECTION('',(-1.,7.73850115700224E-14,0.));
#866=DIRECTION('',(0.,0.,1.));
#867=DIRECTION('',(1.,0.,0.));
#868=DIRECTION('',(0.,1.,0.));
#869=DIRECTION('',(0.,0.642787609686539,0.766044443118979));
#870=DIRECTION('',(0.,-0.766044443118979,0.642787609686539));
#871=DIRECTION('',(-0.707106781186548,0.707106781186547,-7.01233866777604E-15));
#872=DIRECTION('',(-0.707106781186547,-0.707106781186548,0.));
#873=DIRECTION('',(-4.95847222396108E-15,4.95847222396108E-15,1.));
#874=DIRECTION('',(-0.707106781186547,-0.707106781186548,0.));
#875=DIRECTION('',(0.,1.,-9.91694444792216E-15));
#876=DIRECTION('',(0.,9.91694444792216E-15,1.));
#877=DIRECTION('',(1.,0.,0.));
#878=DIRECTION('',(0.,-3.40573184757972E-15,1.));
#879=DIRECTION('',(0.,-1.,-3.40573184757972E-15));
#880=DIRECTION('',(0.707106781186548,-0.707106781186547,0.));
#881=DIRECTION('',(1.,0.,0.));
#882=DIRECTION('',(0.,9.91694444792216E-15,1.));
#883=DIRECTION('',(0.,-1.,9.91694444792216E-15));
#884=DIRECTION('',(-0.707106781186548,-0.707106781186547,-2.39232689970557E-15));
#885=DIRECTION('',(0.707106781186547,-0.707106781186548,0.));
#886=DIRECTION('',(-1.6916305735968E-15,-1.6916305735968E-15,1.));
#887=DIRECTION('',(0.,-1.,-3.3832611471936E-15));
#888=DIRECTION('',(0.,3.3832611471936E-15,-1.));
#889=CARTESIAN_POINT('',(0.,0.,0.));
#890=CARTESIAN_POINT('',(0.,0.,0.));
#891=CARTESIAN_POINT('',(0.,0.0321733585439879,0.0321733585439879));
#892=CARTESIAN_POINT('',(0.0025,0.0321733585439879,0.0321733585439879));
#893=CARTESIAN_POINT('',(-0.003,0.0321733585439879,0.032173358543988));
#894=CARTESIAN_POINT('',(0.0025,0.,0.));
#895=CARTESIAN_POINT('',(0.0025,-0.0321733585439879,0.0321733585439879));
#896=CARTESIAN_POINT('',(0.,-0.0321733585439879,0.0321733585439879));
#897=CARTESIAN_POINT('',(-0.003,-0.0321733585439879,0.032173358543988));
#898=CARTESIAN_POINT('',(-0.005,-0.0307280483368773,0.0335564754616235));
#899=CARTESIAN_POINT('',(-0.005,-0.0311176825552222,0.0331996829519722));
#900=CARTESIAN_POINT('',(-0.00456570074537807,-0.0318664095339427,0.0324842912544995));
#901=CARTESIAN_POINT('',(-0.00352831886347903,-0.0321733585439879,0.0321733585439879));
#902=CARTESIAN_POINT('',(-0.003,-0.0321733585439879,0.0321733585439879));
#903=CARTESIAN_POINT('',(-0.005,-0.0307280483368773,0.0335564754616235));
#904=CARTESIAN_POINT('',(-0.005,0.,0.));
#905=CARTESIAN_POINT('',(-0.005,-0.0298766001456378,0.0343167417412795));
#906=CARTESIAN_POINT('',(-0.00441421356237312,-0.0287956738505323,0.0352286696810108));
#907=CARTESIAN_POINT('',(-0.00478755474815307,-0.0290847596406731,0.0349923729317128));
#908=CARTESIAN_POINT('',(-0.00499999999999999,-0.0294783672695141,0.0346634484448032));
#909=CARTESIAN_POINT('',(-0.005,-0.0298766001456378,0.0343167417412795));
#910=CARTESIAN_POINT('',(-0.00441421356237311,-0.0287956738505323,0.0352286696810108));
#911=CARTESIAN_POINT('',(-0.00499999999999987,0.,0.));
#912=CARTESIAN_POINT('',(-2.16840434497087E-18,-0.0252394876610681,0.0378578692296171));
#913=CARTESIAN_POINT('',(5.7124333569165E-5,-0.0252394876610681,0.0378578692296171));
#914=CARTESIAN_POINT('',(5.71243335691625E-5,-0.0252394876610681,0.0378578692296171));
#915=CARTESIAN_POINT('',(0.00117213163144044,0.,0.));
#916=CARTESIAN_POINT('',(0.000955865948238752,-0.00489542539596145,0.0452358796774482));
#917=CARTESIAN_POINT('',(2.692268221302E-17,-0.00389639977793398,0.0453328585991499));
#918=CARTESIAN_POINT('',(0.000318963155836613,-0.0042297648951607,0.0453042055689005));
#919=CARTESIAN_POINT('',(0.000637585138582854,-0.0045627734345032,0.0452718792616666));
#920=CARTESIAN_POINT('',(0.00095586594823875,-0.00489542539596145,0.0452358796774482));
#921=CARTESIAN_POINT('',(5.33032633397972E-18,-0.003896399777934,0.0453328585991499));
#922=CARTESIAN_POINT('',(0.,0.,0.));
#923=CARTESIAN_POINT('',(2.58664815653688E-18,0.00399999999999993,0.0453238347892144));
#924=CARTESIAN_POINT('',(0.000955663426666112,0.00499901665064444,0.0452245490030202));
#925=CARTESIAN_POINT('',(0.000637458244275585,0.00466637623911535,0.0452613183018318));
#926=CARTESIAN_POINT('',(0.000318903768720219,0.00433337068890051,0.0452944135638965));
#927=CARTESIAN_POINT('',(1.3041660999933E-17,0.00399999999999992,0.0453238347892144));
#928=CARTESIAN_POINT('',(0.000955663426666114,0.00499901665064444,0.0452245490030202));
#929=CARTESIAN_POINT('',(0.0011775208583572,0.,0.));
#930=CARTESIAN_POINT('',(5.73869798350067E-5,0.0252394876610681,0.0378578692296171));
#931=CARTESIAN_POINT('',(0.,0.0252394876610681,0.0378578692296172));
#932=CARTESIAN_POINT('',(9.97465998686664E-18,0.0252394876610681,0.0378578692296172));
#933=CARTESIAN_POINT('',(-0.00499999999999994,0.,0.));
#934=CARTESIAN_POINT('',(-0.0044142135623731,0.0287956738505323,0.0352286696810108));
#935=CARTESIAN_POINT('',(-0.005,0.0298766001456378,0.0343167417412795));
#936=CARTESIAN_POINT('',(-0.005,0.0294919312641887,0.0346516394552341));
#937=CARTESIAN_POINT('',(-0.00477492555959968,0.0290749805986964,0.0350003662537962));
#938=CARTESIAN_POINT('',(-0.00441421356237309,0.0287956738505323,0.0352286696810108));
#939=CARTESIAN_POINT('',(-0.005,0.0298766001456378,0.0343167417412795));
#940=CARTESIAN_POINT('',(-0.005,0.,0.));
#941=CARTESIAN_POINT('',(-0.005,0.0307280483368773,0.0335564754616235));
#942=CARTESIAN_POINT('',(-0.003,0.0321733585439879,0.0321733585439879));
#943=CARTESIAN_POINT('',(-0.00352831976130607,0.0321733585439879,0.0321733585439879));
#944=CARTESIAN_POINT('',(-0.00456367144040947,0.0318678615758483,0.0324828760544666));
#945=CARTESIAN_POINT('',(-0.005,0.0311176855240381,0.0331996802333935));
#946=CARTESIAN_POINT('',(-0.005,0.0307280483368773,0.0335564754616235));
#947=CARTESIAN_POINT('',(-0.003,0.031092289402958,0.0339207165277042));
#948=CARTESIAN_POINT('',(-0.005,0.0321435724194225,0.0349719995441688));
#949=CARTESIAN_POINT('',(-0.005,0.0325325391188953,0.0346144912679418));
#950=CARTESIAN_POINT('',(-0.00456567012891372,0.0332805516586807,0.033898408214027));
#951=CARTESIAN_POINT('',(-0.00352831046090579,0.033587572106361,0.033587572106361));
#952=CARTESIAN_POINT('',(-0.003,0.033587572106361,0.033587572106361));
#953=CARTESIAN_POINT('',(-0.005,0.0321435724194225,0.0349719995441688));
#954=CARTESIAN_POINT('',(-0.003,0.033587572106361,0.033587572106361));
#955=CARTESIAN_POINT('',(-0.003,0.0325065029653311,0.0325065029653311));
#956=CARTESIAN_POINT('',(-0.005,0.031092289402958,0.0339207165277042));
#957=CARTESIAN_POINT('',(0.,0.0321733585439879,0.0321733585439879));
#958=CARTESIAN_POINT('',(0.0025,0.0321733585439879,0.0321733585439879));
#959=CARTESIAN_POINT('',(0.0025,0.033587572106361,0.033587572106361));
#960=CARTESIAN_POINT('',(0.,0.033587572106361,0.033587572106361));
#961=CARTESIAN_POINT('',(0.0025,6.06968222488754E-6,0.0432369059626092));
#962=CARTESIAN_POINT('',(0.0025,6.06968222488754E-6,0.055));
#963=CARTESIAN_POINT('',(0.0025,0.004,0.055));
#964=CARTESIAN_POINT('',(0.0025,-0.003896399777934,0.055));
#965=CARTESIAN_POINT('',(0.0025,-0.003896399777934,0.0432369059626092));
#966=CARTESIAN_POINT('',(0.0025,-0.00389639977793397,0.0478312792981555));
#967=CARTESIAN_POINT('',(0.0025,-0.00489639977793396,0.0478312792981555));
#968=CARTESIAN_POINT('',(0.0025,-0.00489639977793396,0.0478312792981555));
#969=CARTESIAN_POINT('',(0.0025,-0.00489639977793396,0.0472469604230224));
#970=CARTESIAN_POINT('',(0.0025,-0.00489639977793397,0.0472469604230224));
#971=CARTESIAN_POINT('',(0.0025,0.,0.));
#972=CARTESIAN_POINT('',(0.0025,-0.033587572106361,0.033587572106361));
#973=CARTESIAN_POINT('',(0.0025,-0.033587572106361,0.033587572106361));
#974=CARTESIAN_POINT('',(0.0025,0.,0.));
#975=CARTESIAN_POINT('',(0.0025,0.00499999999999992,0.047236109069228));
#976=CARTESIAN_POINT('',(0.0025,0.00499999999999993,0.0478312792981554));
#977=CARTESIAN_POINT('',(0.0025,0.00499999999999993,0.0478312792981554));
#978=CARTESIAN_POINT('',(0.0025,0.00399999999999993,0.0478312792981554));
#979=CARTESIAN_POINT('',(0.0025,0.00399999999999993,0.0478312792981554));
#980=CARTESIAN_POINT('',(0.0025,0.00399999999999993,0.0432369059626092));
#981=CARTESIAN_POINT('',(0.,-0.033587572106361,0.033587572106361));
#982=CARTESIAN_POINT('',(0.,-0.033587572106361,0.033587572106361));
#983=CARTESIAN_POINT('',(-0.003,-0.033587572106361,0.033587572106361));
#984=CARTESIAN_POINT('',(-0.003,-0.033587572106361,0.033587572106361));
#985=CARTESIAN_POINT('',(-0.003,-0.0317993961841445,0.0346278233088907));
#986=CARTESIAN_POINT('',(-0.003,-0.033587572106361,0.033587572106361));
#987=CARTESIAN_POINT('',(-0.00352831128523104,-0.033587572106361,0.033587572106361));
#988=CARTESIAN_POINT('',(-0.00456364139538041,-0.0332820026276325,0.0338969925340757));
#989=CARTESIAN_POINT('',(-0.005,-0.032532541839139,0.034614488767703));
#990=CARTESIAN_POINT('',(-0.005,-0.0321435724194225,0.0349719995441688));
#991=CARTESIAN_POINT('',(-0.005,-0.0321435724194225,0.0349719995441688));
#992=CARTESIAN_POINT('',(-0.005,-0.0317993961841445,0.0346278233088907));
#993=CARTESIAN_POINT('',(-0.0025,-0.0239975990418456,0.0324885344389058));
#994=CARTESIAN_POINT('',(1.69135538907739E-17,-0.0265325634239068,0.0393988969154767));
#995=CARTESIAN_POINT('',(2.49707327512953E-16,-0.0265325634239068,0.0393988969154768));
#996=CARTESIAN_POINT('',(-0.00441421356237309,-0.0287956738505323,0.0352286696810108));
#997=CARTESIAN_POINT('',(-0.00441421356237305,-0.0300813511386719,0.036760880208068));
#998=CARTESIAN_POINT('',(-0.00499999999999987,0.,0.));
#999=CARTESIAN_POINT('',(0.001,-0.003896399777934,0.055));
#1000=CARTESIAN_POINT('',(5.71243335691625E-5,-0.0252394876610681,0.055));
#1001=CARTESIAN_POINT('',(5.71243335691624E-5,-0.0252394876610681,0.0402395112123246));
#1002=CARTESIAN_POINT('',(0.00117213163144044,0.,0.));
#1003=CARTESIAN_POINT('',(0.000955865948238751,-0.00489542539596146,0.0472470613921392));
#1004=CARTESIAN_POINT('',(0.000955865948238752,-0.00489542539596145,0.055));
#1005=CARTESIAN_POINT('',(0.,5.59804664149834E-18,0.0432429756448341));
#1006=CARTESIAN_POINT('',(0.,0.00399999999999993,0.0432429756448341));
#1007=CARTESIAN_POINT('',(-1.08269418941565E-6,0.00400458652905285,0.0473309828137952));
#1008=CARTESIAN_POINT('',(0.,-0.00389639977793396,0.0432429756448341));
#1009=CARTESIAN_POINT('',(1.26490253456642E-19,-0.00389639977793396,0.0473312792981555));
#1010=CARTESIAN_POINT('',(0.,5.59804664149834E-18,0.0473312792981555));
#1011=CARTESIAN_POINT('',(0.,-0.00399999999999975,0.0473312792981555));
#1012=CARTESIAN_POINT('',(0.,0.,0.));
#1013=CARTESIAN_POINT('',(9.68248203245985E-19,-0.00390639977793396,0.0473390963240212));
#1014=CARTESIAN_POINT('',(5.20417042793042E-18,-0.00390639977793395,0.0452449680339282));
#1015=CARTESIAN_POINT('',(5.20571670169998E-19,-0.00390639977793396,0.0478312792981555));
#1016=CARTESIAN_POINT('',(0.,-0.00489639977793396,0.0478312792981555));
#1017=CARTESIAN_POINT('',(0.,-0.00389639977793397,0.0478312792981555));
#1018=CARTESIAN_POINT('',(0.,-0.003896399777934,0.0432429756448341));
#1019=CARTESIAN_POINT('',(0.,-0.003896399777934,0.055));
#1020=CARTESIAN_POINT('',(0.,5.59804664149834E-18,0.055));
#1021=CARTESIAN_POINT('',(0.,0.004,0.055));
#1022=CARTESIAN_POINT('',(0.,0.00399999999999993,0.0432429756448341));
#1023=CARTESIAN_POINT('',(0.,0.00399999999999994,0.0478312792981554));
#1024=CARTESIAN_POINT('',(0.,0.00399999999999993,0.0478312792981554));
#1025=CARTESIAN_POINT('',(-7.92203359472323E-19,0.00400999999999993,0.0478312792981554));
#1026=CARTESIAN_POINT('',(1.00830802041152E-17,0.00400999999999992,0.0455371274714947));
#1027=CARTESIAN_POINT('',(5.73869798350066E-5,0.0252394876610681,0.055));
#1028=CARTESIAN_POINT('',(0.0011775208583572,0.,0.));
#1029=CARTESIAN_POINT('',(5.73869798350063E-5,0.0252394876610681,0.0402395112123245));
#1030=CARTESIAN_POINT('',(0.000955663426666115,0.00499901665064446,0.0472362131476114));
#1031=CARTESIAN_POINT('',(5.73869798350066E-5,0.0252394876610681,0.055));
#1032=CARTESIAN_POINT('',(0.000955663426666115,0.00499901665064446,0.055));
#1033=CARTESIAN_POINT('',(-0.0025,0.023354811432159,0.0317224899957868));
#1034=CARTESIAN_POINT('',(9.97465998686664E-18,0.0252394876610681,0.0378578692296172));
#1035=CARTESIAN_POINT('',(-9.05653645093996E-17,0.0265325634239068,0.0393988969154767));
#1036=CARTESIAN_POINT('',(-0.00499999999999994,0.,0.));
#1037=CARTESIAN_POINT('',(-0.0044142135623731,0.0300813511386719,0.036760880208068));
#1038=CARTESIAN_POINT('',(-0.00441421356237308,0.0300813511386719,0.036760880208068));
#1039=CARTESIAN_POINT('',(0.,0.,0.));
#1040=CARTESIAN_POINT('',(-0.00382641641077518,0.,0.));
#1041=CARTESIAN_POINT('',(0.000220442047397849,0.00423044230213249,0.0473112392347558));
#1042=CARTESIAN_POINT('',(-0.00400999999999945,0.,0.));
#1043=CARTESIAN_POINT('',(0.00099,0.00499999999999992,0.047236109069228));
#1044=CARTESIAN_POINT('',(0.,0.00499999999999991,0.047236109069228));
#1045=CARTESIAN_POINT('',(-0.005,0.,0.));
#1046=CARTESIAN_POINT('',(-0.005,0.0311623795268742,0.0358490739381515));
#1047=CARTESIAN_POINT('',(-0.005,0.0311623795268742,0.0358490739381515));
#1048=CARTESIAN_POINT('',(-0.005,0.0307638848830028,0.0361954717656985));
#1049=CARTESIAN_POINT('',(-0.0047875536757082,0.0303703059796243,0.0365244290680324));
#1050=CARTESIAN_POINT('',(-0.00441421356237312,0.0300813511386719,0.036760880208068));
#1051=CARTESIAN_POINT('',(0.,0.,0.));
#1052=CARTESIAN_POINT('',(0.,0.0252394876610681,0.0402395112123245));
#1053=CARTESIAN_POINT('',(0.,0.0252394876610681,0.0402395112123245));
#1054=CARTESIAN_POINT('',(-0.005,0.031405837416989,0.0342734573563595));
#1055=CARTESIAN_POINT('',(-0.005,0.0311623795268742,0.0358490739381515));
#1056=CARTESIAN_POINT('',(0.0085,-0.003896399777934,0.055));
#1057=CARTESIAN_POINT('',(0.0085,-0.003896399777934,0.055));
#1058=CARTESIAN_POINT('',(0.0085,-0.00389639977793396,0.0478312792981555));
#1059=CARTESIAN_POINT('',(0.,0.004,0.055));
#1060=CARTESIAN_POINT('',(0.,0.004,0.055));
#1061=CARTESIAN_POINT('',(0.,0.00399999999999993,0.0473312792981555));
#1062=CARTESIAN_POINT('',(0.,0.00399999999999994,0.0478312792981554));
#1063=CARTESIAN_POINT('',(0.,0.,0.));
#1064=CARTESIAN_POINT('',(0.,-0.00489639977793397,0.0472469604230224));
#1065=CARTESIAN_POINT('',(0.00099,-0.00489639977793396,0.0472469604230224));
#1066=CARTESIAN_POINT('',(-0.00390639977793379,0.,0.));
#1067=CARTESIAN_POINT('',(0.000221477818187058,-0.00412787760048575,0.0473202982504905));
#1068=CARTESIAN_POINT('',(-0.00372806843112333,0.,0.));
#1069=CARTESIAN_POINT('',(0.,-0.0252394876610681,0.0402395112123246));
#1070=CARTESIAN_POINT('',(0.,-0.0252394876610681,0.0402395112123246));
#1071=CARTESIAN_POINT('',(0.,0.,0.));
#1072=CARTESIAN_POINT('',(-0.00441421356237307,-0.0300813511386719,0.036760880208068));
#1073=CARTESIAN_POINT('',(-0.00478755507577537,-0.0303703070632373,0.0365244281813142));
#1074=CARTESIAN_POINT('',(-0.005,-0.0307638822149735,0.0361954740849255));
#1075=CARTESIAN_POINT('',(-0.005,-0.0311623795268742,0.0358490739381515));
#1076=CARTESIAN_POINT('',(-0.005,-0.0311623795268742,0.0358490739381515));
#1077=CARTESIAN_POINT('',(-0.005,0.,0.));
#1078=CARTESIAN_POINT('',(-0.005,-0.031405837416989,0.0342734573563595));
#1079=CARTESIAN_POINT('',(-0.005,-0.0298766001456378,0.0343167417412795));
#1080=CARTESIAN_POINT('',(0.,5.59804664149834E-18,0.0432429756448341));
#1081=CARTESIAN_POINT('',(0.,-0.0252394876610681,0.0432429756448341));
#1082=CARTESIAN_POINT('',(-0.003,-0.0285172264473876,0.0326967032527117));
#1083=CARTESIAN_POINT('',(0.000477932974119374,-0.00439591258694776,0.055));
#1084=CARTESIAN_POINT('',(9.91245096383586E-5,-0.00400000000000025,0.0473312792981555));
#1085=CARTESIAN_POINT('',(0.000139907014882019,-0.0040426239344346,0.0473276191175018));
#1086=CARTESIAN_POINT('',(0.00018068952012568,-0.00408524786886895,0.0473239589368481));
#1087=CARTESIAN_POINT('',(0.00022147202536934,-0.0041278718033033,0.0473202987561944));
#1088=CARTESIAN_POINT('',(9.62700025588545E-5,-0.00400040778672571,0.0473312792981555));
#1089=CARTESIAN_POINT('',(0.000477932974119398,-0.00439591258694774,0.0473312792981555));
#1090=CARTESIAN_POINT('',(5.7124333569165E-5,-0.0252394876610681,0.055));
#1091=CARTESIAN_POINT('',(0.000477831713333054,0.00449950832532223,0.0511656396490778));
#1092=CARTESIAN_POINT('',(0.000220436530197066,0.00423043653019699,0.0473112397508665));
#1093=CARTESIAN_POINT('',(0.000146957686798045,0.00415362435346464,0.0473179195999628));
#1094=CARTESIAN_POINT('',(7.34788433990238E-5,0.00407681217673228,0.0473245994490592));
#1095=CARTESIAN_POINT('',(2.63625106002563E-18,0.00399999999999993,0.0473312792981555));
#1096=CARTESIAN_POINT('',(0.0025,-0.00389639977793396,0.0473312792981555));
#1097=CARTESIAN_POINT('',(0.0025,-0.00399999999999989,0.0473312792981555));
#1098=CARTESIAN_POINT('',(0.,0.,0.));
#1099=CARTESIAN_POINT('',(9.36002220659312E-5,-0.00399999999999989,0.0473312792981555));
#1100=CARTESIAN_POINT('',(6.24001480439552E-5,-0.00396879992597791,0.0473338849734441));
#1101=CARTESIAN_POINT('',(3.12000740219793E-5,-0.00393759985195594,0.0473364906487326));
#1102=CARTESIAN_POINT('',(3.28798224610336E-18,-0.00390639977793396,0.0473390963240212));
#1103=CARTESIAN_POINT('',(0.,0.0252394876610681,0.055));
#1104=CARTESIAN_POINT('',(0.,0.0252394876610681,0.055));
#1105=CARTESIAN_POINT('',(0.,5.59804664149834E-18,0.0432429756448341));
#1106=CARTESIAN_POINT('',(-0.003,0.0281958326425443,0.0323136810311522));
#1107=CARTESIAN_POINT('',(0.000495,0.00450499999999991,0.0455371274714947));
#1108=CARTESIAN_POINT('',(0.00099,0.00499999999999992,0.0455371274714947));
#1109=CARTESIAN_POINT('',(0.00099,0.00499999999999993,0.0478312792981554));
#1110=CARTESIAN_POINT('',(0.000494999999999989,0.00450499999999992,0.0478312792981554));
#1111=CARTESIAN_POINT('',(0.0025,0.00499999999999993,0.0478312792981554));
#1112=CARTESIAN_POINT('',(0.0025,0.00499999999999993,0.0478312792981554));
#1113=CARTESIAN_POINT('',(0.0025,-0.00489639977793396,0.0478312792981555));
#1114=CARTESIAN_POINT('',(0.,-0.00390639977793396,0.0478312792981555));
#1115=CARTESIAN_POINT('',(0.00099,-0.00489639977793396,0.0478312792981555));
#1116=CARTESIAN_POINT('',(0.0025,-0.00489639977793396,0.0478312792981555));
#1117=CARTESIAN_POINT('',(0.0025,0.00399999999999993,0.0478312792981554));
#1118=CARTESIAN_POINT('',(0.000495,-0.00440139977793395,0.0452449680339282));
#1119=CARTESIAN_POINT('',(0.00099,-0.00489639977793396,0.0452449680339282));
#1120=CARTESIAN_POINT('',(0.0025,-0.00489639977793396,0.0472469604230224));
#1121=MECHANICAL_DESIGN_GEOMETRIC_PRESENTATION_REPRESENTATION('',(#647),
#1122);
#1122=(
GEOMETRIC_REPRESENTATION_CONTEXT(3)
GLOBAL_UNCERTAINTY_ASSIGNED_CONTEXT((#1123))
GLOBAL_UNIT_ASSIGNED_CONTEXT((#1126,#1125,#1124))
REPRESENTATION_CONTEXT('KP0018-01_SlipRingBrushB',
'TOP_LEVEL_ASSEMBLY_PART')
);
#1123=UNCERTAINTY_MEASURE_WITH_UNIT(LENGTH_MEASURE(2.35631935048594E-5),
#1126,'DISTANCE_ACCURACY_VALUE','Maximum Tolerance applied to model');
#1124=(
NAMED_UNIT(*)
SI_UNIT($,.STERADIAN.)
SOLID_ANGLE_UNIT()
);
#1125=(
NAMED_UNIT(*)
PLANE_ANGLE_UNIT()
SI_UNIT($,.RADIAN.)
);
#1126=(
LENGTH_UNIT()
NAMED_UNIT(*)
SI_UNIT($,.METRE.)
);
#1127=PRODUCT_DEFINITION_SHAPE('','',#1128);
#1128=PRODUCT_DEFINITION('','',#1130,#1129);
#1129=PRODUCT_DEFINITION_CONTEXT('',#1136,'design');
#1130=PRODUCT_DEFINITION_FORMATION_WITH_SPECIFIED_SOURCE('','',#1132,
 .NOT_KNOWN.);
#1131=PRODUCT_RELATED_PRODUCT_CATEGORY('','',(#1132));
#1132=PRODUCT('KP0018-01_SlipRingBrushB','KP0018-01_SlipRingBrushB',
'KP0018-01_SlipRingBrushB',(#1134));
#1133=PRODUCT_CATEGORY('','');
#1134=PRODUCT_CONTEXT('',#1136,'mechanical');
#1135=APPLICATION_PROTOCOL_DEFINITION('international standard',
'automotive_design',2010,#1136);
#1136=APPLICATION_CONTEXT(
'core data for automotive mechanical design processes');
ENDSEC;
END-ISO-10303-21;
