ISO-10303-21;
HEADER;
/* Generated by software containing ST-Developer
 * from STEP Tools, Inc. (www.steptools.com) 
 */
/* OPTION: using custom renumber hook */

FILE_DESCRIPTION(
/* description */ ('STEP AP214',
'CAx-IF Rec.Pracs.---User Defined Attributes---1.5---2016-08-15'),
/* implementation_level */ '2;1');

FILE_NAME(
/* name */ '6a65b56d65321e5002a5688b',
/* time_stamp */ '2026-07-26T07:21:17Z',
/* author */ (''),
/* organization */ (''),
/* preprocessor_version */ 'ST-DEVELOPER v20',
/* originating_system */ 'ONSHAPE BY PTC INC, 1.218',
/* authorisation */ '  ');

FILE_SCHEMA (('AUTOMOTIVE_DESIGN {1 0 10303 214 3 1 1}'));
ENDSEC;

DATA;
#10=PROPERTY_DEFINITION_REPRESENTATION(#14,#12);
#11=PROPERTY_DEFINITION_REPRESENTATION(#15,#13);
#12=REPRESENTATION('',(#16),#937);
#13=REPRESENTATION('',(#17),#937);
#14=PROPERTY_DEFINITION('pmi validation property','',#942);
#15=PROPERTY_DEFINITION('pmi validation property','',#942);
#16=VALUE_REPRESENTATION_ITEM('number of annotations',COUNT_MEASURE(0.));
#17=VALUE_REPRESENTATION_ITEM('number of views',COUNT_MEASURE(0.));
#18=SHAPE_REPRESENTATION_RELATIONSHIP('','',#567,#19);
#19=ADVANCED_BREP_SHAPE_REPRESENTATION('',(#565),#937);
#20=CYLINDRICAL_SURFACE('',#578,0.00358160792193377);
#21=CYLINDRICAL_SURFACE('',#581,0.00358160792193377);
#22=CYLINDRICAL_SURFACE('',#583,0.00433160792189466);
#23=CYLINDRICAL_SURFACE('',#585,0.00358160792193377);
#24=CYLINDRICAL_SURFACE('',#588,0.00358160792189465);
#25=CYLINDRICAL_SURFACE('',#593,0.00533160792193377);
#26=CYLINDRICAL_SURFACE('',#596,0.00608160792189465);
#27=CYLINDRICAL_SURFACE('',#598,0.00533160792193377);
#28=CYLINDRICAL_SURFACE('',#617,0.00533160792193377);
#29=CYLINDRICAL_SURFACE('',#618,0.00533160792189465);
#30=CIRCLE('',#570,0.00358160792193377);
#31=CIRCLE('',#571,0.00358160792189465);
#32=CIRCLE('',#572,0.00358160792193377);
#33=CIRCLE('',#573,0.00433160792189466);
#34=CIRCLE('',#574,0.00358160792193377);
#35=CIRCLE('',#575,0.00533160792193377);
#36=CIRCLE('',#576,0.00608160792189465);
#37=CIRCLE('',#577,0.00533160792193377);
#38=CIRCLE('',#579,0.00358160792193377);
#39=CIRCLE('',#582,0.00358160792193377);
#40=CIRCLE('',#584,0.00433160792189466);
#41=CIRCLE('',#586,0.00358160792193377);
#42=CIRCLE('',#589,0.00358160792189465);
#43=CIRCLE('',#594,0.00533160792193377);
#44=CIRCLE('',#595,0.00533160792193377);
#45=CIRCLE('',#597,0.00608160792189465);
#46=CIRCLE('',#599,0.00533160792193377);
#47=CIRCLE('',#600,0.00533160792193377);
#48=CIRCLE('',#605,0.00533160792193377);
#49=CIRCLE('',#606,0.00533160792189465);
#50=CIRCLE('',#610,0.00533160792189465);
#51=CIRCLE('',#616,0.00533160792193377);
#52=ORIENTED_EDGE('',*,*,#208,.T.);
#53=ORIENTED_EDGE('',*,*,#209,.T.);
#54=ORIENTED_EDGE('',*,*,#210,.T.);
#55=ORIENTED_EDGE('',*,*,#211,.T.);
#56=ORIENTED_EDGE('',*,*,#212,.T.);
#57=ORIENTED_EDGE('',*,*,#213,.T.);
#58=ORIENTED_EDGE('',*,*,#214,.T.);
#59=ORIENTED_EDGE('',*,*,#215,.T.);
#60=ORIENTED_EDGE('',*,*,#216,.T.);
#61=ORIENTED_EDGE('',*,*,#217,.T.);
#62=ORIENTED_EDGE('',*,*,#218,.T.);
#63=ORIENTED_EDGE('',*,*,#219,.T.);
#64=ORIENTED_EDGE('',*,*,#220,.T.);
#65=ORIENTED_EDGE('',*,*,#221,.T.);
#66=ORIENTED_EDGE('',*,*,#222,.T.);
#67=ORIENTED_EDGE('',*,*,#223,.T.);
#68=ORIENTED_EDGE('',*,*,#224,.F.);
#69=ORIENTED_EDGE('',*,*,#225,.T.);
#70=ORIENTED_EDGE('',*,*,#226,.F.);
#71=ORIENTED_EDGE('',*,*,#227,.T.);
#72=ORIENTED_EDGE('',*,*,#228,.F.);
#73=ORIENTED_EDGE('',*,*,#229,.F.);
#74=ORIENTED_EDGE('',*,*,#230,.F.);
#75=ORIENTED_EDGE('',*,*,#209,.F.);
#76=ORIENTED_EDGE('',*,*,#231,.F.);
#77=ORIENTED_EDGE('',*,*,#232,.F.);
#78=ORIENTED_EDGE('',*,*,#228,.T.);
#79=ORIENTED_EDGE('',*,*,#208,.F.);
#80=ORIENTED_EDGE('',*,*,#233,.F.);
#81=ORIENTED_EDGE('',*,*,#234,.F.);
#82=ORIENTED_EDGE('',*,*,#231,.T.);
#83=ORIENTED_EDGE('',*,*,#217,.F.);
#84=ORIENTED_EDGE('',*,*,#235,.F.);
#85=ORIENTED_EDGE('',*,*,#236,.F.);
#86=ORIENTED_EDGE('',*,*,#237,.F.);
#87=ORIENTED_EDGE('',*,*,#215,.F.);
#88=ORIENTED_EDGE('',*,*,#238,.F.);
#89=ORIENTED_EDGE('',*,*,#239,.F.);
#90=ORIENTED_EDGE('',*,*,#240,.F.);
#91=ORIENTED_EDGE('',*,*,#213,.F.);
#92=ORIENTED_EDGE('',*,*,#241,.F.);
#93=ORIENTED_EDGE('',*,*,#242,.F.);
#94=ORIENTED_EDGE('',*,*,#238,.T.);
#95=ORIENTED_EDGE('',*,*,#212,.F.);
#96=ORIENTED_EDGE('',*,*,#243,.F.);
#97=ORIENTED_EDGE('',*,*,#244,.F.);
#98=ORIENTED_EDGE('',*,*,#241,.T.);
#99=ORIENTED_EDGE('',*,*,#211,.F.);
#100=ORIENTED_EDGE('',*,*,#230,.T.);
#101=ORIENTED_EDGE('',*,*,#245,.F.);
#102=ORIENTED_EDGE('',*,*,#243,.T.);
#103=ORIENTED_EDGE('',*,*,#210,.F.);
#104=ORIENTED_EDGE('',*,*,#246,.T.);
#105=ORIENTED_EDGE('',*,*,#247,.T.);
#106=ORIENTED_EDGE('',*,*,#219,.F.);
#107=ORIENTED_EDGE('',*,*,#248,.T.);
#108=ORIENTED_EDGE('',*,*,#249,.T.);
#109=ORIENTED_EDGE('',*,*,#248,.F.);
#110=ORIENTED_EDGE('',*,*,#218,.F.);
#111=ORIENTED_EDGE('',*,*,#250,.T.);
#112=ORIENTED_EDGE('',*,*,#251,.T.);
#113=ORIENTED_EDGE('',*,*,#252,.T.);
#114=ORIENTED_EDGE('',*,*,#250,.F.);
#115=ORIENTED_EDGE('',*,*,#227,.F.);
#116=ORIENTED_EDGE('',*,*,#253,.T.);
#117=ORIENTED_EDGE('',*,*,#254,.T.);
#118=ORIENTED_EDGE('',*,*,#255,.T.);
#119=ORIENTED_EDGE('',*,*,#256,.T.);
#120=ORIENTED_EDGE('',*,*,#257,.T.);
#121=ORIENTED_EDGE('',*,*,#225,.F.);
#122=ORIENTED_EDGE('',*,*,#258,.T.);
#123=ORIENTED_EDGE('',*,*,#223,.F.);
#124=ORIENTED_EDGE('',*,*,#259,.T.);
#125=ORIENTED_EDGE('',*,*,#260,.T.);
#126=ORIENTED_EDGE('',*,*,#261,.T.);
#127=ORIENTED_EDGE('',*,*,#262,.T.);
#128=ORIENTED_EDGE('',*,*,#263,.T.);
#129=ORIENTED_EDGE('',*,*,#259,.F.);
#130=ORIENTED_EDGE('',*,*,#222,.F.);
#131=ORIENTED_EDGE('',*,*,#264,.T.);
#132=ORIENTED_EDGE('',*,*,#265,.T.);
#133=ORIENTED_EDGE('',*,*,#264,.F.);
#134=ORIENTED_EDGE('',*,*,#221,.F.);
#135=ORIENTED_EDGE('',*,*,#266,.T.);
#136=ORIENTED_EDGE('',*,*,#247,.F.);
#137=ORIENTED_EDGE('',*,*,#267,.T.);
#138=ORIENTED_EDGE('',*,*,#268,.T.);
#139=ORIENTED_EDGE('',*,*,#269,.T.);
#140=ORIENTED_EDGE('',*,*,#270,.T.);
#141=ORIENTED_EDGE('',*,*,#271,.T.);
#142=ORIENTED_EDGE('',*,*,#266,.F.);
#143=ORIENTED_EDGE('',*,*,#220,.F.);
#144=ORIENTED_EDGE('',*,*,#229,.T.);
#145=ORIENTED_EDGE('',*,*,#232,.T.);
#146=ORIENTED_EDGE('',*,*,#234,.T.);
#147=ORIENTED_EDGE('',*,*,#272,.F.);
#148=ORIENTED_EDGE('',*,*,#236,.T.);
#149=ORIENTED_EDGE('',*,*,#273,.F.);
#150=ORIENTED_EDGE('',*,*,#239,.T.);
#151=ORIENTED_EDGE('',*,*,#242,.T.);
#152=ORIENTED_EDGE('',*,*,#244,.T.);
#153=ORIENTED_EDGE('',*,*,#245,.T.);
#154=ORIENTED_EDGE('',*,*,#274,.F.);
#155=ORIENTED_EDGE('',*,*,#269,.F.);
#156=ORIENTED_EDGE('',*,*,#275,.F.);
#157=ORIENTED_EDGE('',*,*,#276,.F.);
#158=ORIENTED_EDGE('',*,*,#254,.F.);
#159=ORIENTED_EDGE('',*,*,#277,.F.);
#160=ORIENTED_EDGE('',*,*,#256,.F.);
#161=ORIENTED_EDGE('',*,*,#278,.F.);
#162=ORIENTED_EDGE('',*,*,#262,.F.);
#163=ORIENTED_EDGE('',*,*,#279,.F.);
#164=ORIENTED_EDGE('',*,*,#237,.T.);
#165=ORIENTED_EDGE('',*,*,#272,.T.);
#166=ORIENTED_EDGE('',*,*,#233,.T.);
#167=ORIENTED_EDGE('',*,*,#216,.F.);
#168=ORIENTED_EDGE('',*,*,#240,.T.);
#169=ORIENTED_EDGE('',*,*,#273,.T.);
#170=ORIENTED_EDGE('',*,*,#235,.T.);
#171=ORIENTED_EDGE('',*,*,#214,.F.);
#172=ORIENTED_EDGE('',*,*,#252,.F.);
#173=ORIENTED_EDGE('',*,*,#280,.T.);
#174=ORIENTED_EDGE('',*,*,#281,.T.);
#175=ORIENTED_EDGE('',*,*,#267,.F.);
#176=ORIENTED_EDGE('',*,*,#246,.F.);
#177=ORIENTED_EDGE('',*,*,#249,.F.);
#178=ORIENTED_EDGE('',*,*,#276,.T.);
#179=ORIENTED_EDGE('',*,*,#282,.T.);
#180=ORIENTED_EDGE('',*,*,#280,.F.);
#181=ORIENTED_EDGE('',*,*,#251,.F.);
#182=ORIENTED_EDGE('',*,*,#257,.F.);
#183=ORIENTED_EDGE('',*,*,#277,.T.);
#184=ORIENTED_EDGE('',*,*,#253,.F.);
#185=ORIENTED_EDGE('',*,*,#226,.T.);
#186=ORIENTED_EDGE('',*,*,#258,.F.);
#187=ORIENTED_EDGE('',*,*,#278,.T.);
#188=ORIENTED_EDGE('',*,*,#255,.F.);
#189=ORIENTED_EDGE('',*,*,#224,.T.);
#190=ORIENTED_EDGE('',*,*,#279,.T.);
#191=ORIENTED_EDGE('',*,*,#261,.F.);
#192=ORIENTED_EDGE('',*,*,#283,.T.);
#193=ORIENTED_EDGE('',*,*,#284,.T.);
#194=ORIENTED_EDGE('',*,*,#265,.F.);
#195=ORIENTED_EDGE('',*,*,#271,.F.);
#196=ORIENTED_EDGE('',*,*,#285,.T.);
#197=ORIENTED_EDGE('',*,*,#283,.F.);
#198=ORIENTED_EDGE('',*,*,#260,.F.);
#199=ORIENTED_EDGE('',*,*,#263,.F.);
#200=ORIENTED_EDGE('',*,*,#274,.T.);
#201=ORIENTED_EDGE('',*,*,#284,.F.);
#202=ORIENTED_EDGE('',*,*,#285,.F.);
#203=ORIENTED_EDGE('',*,*,#270,.F.);
#204=ORIENTED_EDGE('',*,*,#275,.T.);
#205=ORIENTED_EDGE('',*,*,#268,.F.);
#206=ORIENTED_EDGE('',*,*,#281,.F.);
#207=ORIENTED_EDGE('',*,*,#282,.F.);
#208=EDGE_CURVE('',#286,#287,#338,.T.);
#209=EDGE_CURVE('',#287,#288,#30,.F.);
#210=EDGE_CURVE('',#288,#289,#339,.F.);
#211=EDGE_CURVE('',#289,#290,#31,.F.);
#212=EDGE_CURVE('',#290,#291,#340,.F.);
#213=EDGE_CURVE('',#291,#292,#32,.F.);
#214=EDGE_CURVE('',#292,#293,#341,.T.);
#215=EDGE_CURVE('',#293,#294,#33,.F.);
#216=EDGE_CURVE('',#294,#295,#342,.T.);
#217=EDGE_CURVE('',#295,#286,#34,.F.);
#218=EDGE_CURVE('',#296,#297,#343,.F.);
#219=EDGE_CURVE('',#297,#298,#344,.T.);
#220=EDGE_CURVE('',#298,#299,#345,.T.);
#221=EDGE_CURVE('',#299,#300,#346,.F.);
#222=EDGE_CURVE('',#300,#301,#347,.F.);
#223=EDGE_CURVE('',#301,#302,#35,.T.);
#224=EDGE_CURVE('',#303,#302,#348,.T.);
#225=EDGE_CURVE('',#303,#304,#36,.T.);
#226=EDGE_CURVE('',#305,#304,#349,.T.);
#227=EDGE_CURVE('',#305,#296,#37,.T.);
#228=EDGE_CURVE('',#306,#287,#350,.T.);
#229=EDGE_CURVE('',#307,#306,#38,.T.);
#230=EDGE_CURVE('',#288,#307,#351,.F.);
#231=EDGE_CURVE('',#308,#286,#352,.T.);
#232=EDGE_CURVE('',#306,#308,#353,.F.);
#233=EDGE_CURVE('',#309,#295,#354,.T.);
#234=EDGE_CURVE('',#308,#309,#39,.T.);
#235=EDGE_CURVE('',#310,#293,#355,.T.);
#236=EDGE_CURVE('',#311,#310,#40,.T.);
#237=EDGE_CURVE('',#294,#311,#356,.F.);
#238=EDGE_CURVE('',#312,#291,#357,.T.);
#239=EDGE_CURVE('',#313,#312,#41,.T.);
#240=EDGE_CURVE('',#292,#313,#358,.F.);
#241=EDGE_CURVE('',#314,#290,#359,.F.);
#242=EDGE_CURVE('',#312,#314,#360,.T.);
#243=EDGE_CURVE('',#315,#289,#361,.T.);
#244=EDGE_CURVE('',#314,#315,#42,.T.);
#245=EDGE_CURVE('',#315,#307,#362,.T.);
#246=EDGE_CURVE('',#316,#317,#363,.T.);
#247=EDGE_CURVE('',#317,#298,#364,.F.);
#248=EDGE_CURVE('',#297,#316,#365,.T.);
#249=EDGE_CURVE('',#318,#316,#366,.F.);
#250=EDGE_CURVE('',#296,#318,#367,.F.);
#251=EDGE_CURVE('',#319,#320,#368,.T.);
#252=EDGE_CURVE('',#320,#318,#43,.F.);
#253=EDGE_CURVE('',#305,#321,#369,.F.);
#254=EDGE_CURVE('',#321,#319,#44,.T.);
#255=EDGE_CURVE('',#303,#322,#370,.F.);
#256=EDGE_CURVE('',#322,#323,#45,.T.);
#257=EDGE_CURVE('',#323,#304,#371,.T.);
#258=EDGE_CURVE('',#324,#302,#372,.T.);
#259=EDGE_CURVE('',#301,#325,#373,.F.);
#260=EDGE_CURVE('',#325,#326,#46,.F.);
#261=EDGE_CURVE('',#326,#327,#374,.F.);
#262=EDGE_CURVE('',#327,#324,#47,.T.);
#263=EDGE_CURVE('',#328,#325,#375,.F.);
#264=EDGE_CURVE('',#300,#328,#376,.F.);
#265=EDGE_CURVE('',#329,#328,#377,.F.);
#266=EDGE_CURVE('',#299,#329,#378,.F.);
#267=EDGE_CURVE('',#317,#330,#379,.T.);
#268=EDGE_CURVE('',#330,#331,#380,.T.);
#269=EDGE_CURVE('',#331,#332,#381,.T.);
#270=EDGE_CURVE('',#332,#333,#382,.F.);
#271=EDGE_CURVE('',#333,#329,#383,.T.);
#272=EDGE_CURVE('',#311,#309,#384,.T.);
#273=EDGE_CURVE('',#313,#310,#385,.T.);
#274=EDGE_CURVE('',#332,#334,#48,.T.);
#275=EDGE_CURVE('',#335,#331,#49,.T.);
#276=EDGE_CURVE('',#319,#335,#386,.T.);
#277=EDGE_CURVE('',#323,#321,#387,.F.);
#278=EDGE_CURVE('',#324,#322,#388,.F.);
#279=EDGE_CURVE('',#334,#327,#389,.F.);
#280=EDGE_CURVE('',#320,#336,#390,.F.);
#281=EDGE_CURVE('',#336,#330,#50,.T.);
#282=EDGE_CURVE('',#335,#336,#391,.F.);
#283=EDGE_CURVE('',#326,#337,#392,.T.);
#284=EDGE_CURVE('',#337,#334,#393,.F.);
#285=EDGE_CURVE('',#333,#337,#51,.T.);
#286=VERTEX_POINT('',#780);
#287=VERTEX_POINT('',#781);
#288=VERTEX_POINT('',#783);
#289=VERTEX_POINT('',#785);
#290=VERTEX_POINT('',#787);
#291=VERTEX_POINT('',#789);
#292=VERTEX_POINT('',#791);
#293=VERTEX_POINT('',#793);
#294=VERTEX_POINT('',#795);
#295=VERTEX_POINT('',#797);
#296=VERTEX_POINT('',#800);
#297=VERTEX_POINT('',#801);
#298=VERTEX_POINT('',#803);
#299=VERTEX_POINT('',#805);
#300=VERTEX_POINT('',#807);
#301=VERTEX_POINT('',#809);
#302=VERTEX_POINT('',#811);
#303=VERTEX_POINT('',#813);
#304=VERTEX_POINT('',#815);
#305=VERTEX_POINT('',#817);
#306=VERTEX_POINT('',#821);
#307=VERTEX_POINT('',#823);
#308=VERTEX_POINT('',#827);
#309=VERTEX_POINT('',#831);
#310=VERTEX_POINT('',#835);
#311=VERTEX_POINT('',#837);
#312=VERTEX_POINT('',#841);
#313=VERTEX_POINT('',#843);
#314=VERTEX_POINT('',#847);
#315=VERTEX_POINT('',#851);
#316=VERTEX_POINT('',#857);
#317=VERTEX_POINT('',#858);
#318=VERTEX_POINT('',#863);
#319=VERTEX_POINT('',#867);
#320=VERTEX_POINT('',#868);
#321=VERTEX_POINT('',#871);
#322=VERTEX_POINT('',#875);
#323=VERTEX_POINT('',#877);
#324=VERTEX_POINT('',#881);
#325=VERTEX_POINT('',#883);
#326=VERTEX_POINT('',#885);
#327=VERTEX_POINT('',#887);
#328=VERTEX_POINT('',#891);
#329=VERTEX_POINT('',#895);
#330=VERTEX_POINT('',#899);
#331=VERTEX_POINT('',#901);
#332=VERTEX_POINT('',#903);
#333=VERTEX_POINT('',#905);
#334=VERTEX_POINT('',#911);
#335=VERTEX_POINT('',#913);
#336=VERTEX_POINT('',#922);
#337=VERTEX_POINT('',#930);
#338=LINE('',#779,#394);
#339=LINE('',#784,#395);
#340=LINE('',#788,#396);
#341=LINE('',#792,#397);
#342=LINE('',#796,#398);
#343=LINE('',#799,#399);
#344=LINE('',#802,#400);
#345=LINE('',#804,#401);
#346=LINE('',#806,#402);
#347=LINE('',#808,#403);
#348=LINE('',#812,#404);
#349=LINE('',#816,#405);
#350=LINE('',#820,#406);
#351=LINE('',#824,#407);
#352=LINE('',#826,#408);
#353=LINE('',#828,#409);
#354=LINE('',#830,#410);
#355=LINE('',#834,#411);
#356=LINE('',#838,#412);
#357=LINE('',#840,#413);
#358=LINE('',#844,#414);
#359=LINE('',#846,#415);
#360=LINE('',#848,#416);
#361=LINE('',#850,#417);
#362=LINE('',#854,#418);
#363=LINE('',#856,#419);
#364=LINE('',#859,#420);
#365=LINE('',#860,#421);
#366=LINE('',#862,#422);
#367=LINE('',#864,#423);
#368=LINE('',#866,#424);
#369=LINE('',#870,#425);
#370=LINE('',#874,#426);
#371=LINE('',#878,#427);
#372=LINE('',#880,#428);
#373=LINE('',#882,#429);
#374=LINE('',#886,#430);
#375=LINE('',#890,#431);
#376=LINE('',#892,#432);
#377=LINE('',#894,#433);
#378=LINE('',#896,#434);
#379=LINE('',#898,#435);
#380=LINE('',#900,#436);
#381=LINE('',#902,#437);
#382=LINE('',#904,#438);
#383=LINE('',#906,#439);
#384=LINE('',#908,#440);
#385=LINE('',#909,#441);
#386=LINE('',#914,#442);
#387=LINE('',#915,#443);
#388=LINE('',#916,#444);
#389=LINE('',#917,#445);
#390=LINE('',#921,#446);
#391=LINE('',#925,#447);
#392=LINE('',#929,#448);
#393=LINE('',#931,#449);
#394=VECTOR('',#623,1.);
#395=VECTOR('',#626,1.);
#396=VECTOR('',#629,1.);
#397=VECTOR('',#632,1.);
#398=VECTOR('',#635,1.);
#399=VECTOR('',#638,1.);
#400=VECTOR('',#639,1.);
#401=VECTOR('',#640,1.);
#402=VECTOR('',#641,1.);
#403=VECTOR('',#642,1.);
#404=VECTOR('',#645,1.);
#405=VECTOR('',#648,1.);
#406=VECTOR('',#653,1.);
#407=VECTOR('',#656,1.);
#408=VECTOR('',#659,1.);
#409=VECTOR('',#660,1.);
#410=VECTOR('',#663,1.);
#411=VECTOR('',#668,1.);
#412=VECTOR('',#671,1.);
#413=VECTOR('',#674,1.);
#414=VECTOR('',#677,1.);
#415=VECTOR('',#680,1.);
#416=VECTOR('',#681,1.);
#417=VECTOR('',#684,1.);
#418=VECTOR('',#689,1.);
#419=VECTOR('',#692,1.);
#420=VECTOR('',#693,1.);
#421=VECTOR('',#694,1.);
#422=VECTOR('',#697,1.);
#423=VECTOR('',#698,1.);
#424=VECTOR('',#701,1.);
#425=VECTOR('',#704,1.);
#426=VECTOR('',#709,1.);
#427=VECTOR('',#712,1.);
#428=VECTOR('',#715,1.);
#429=VECTOR('',#716,1.);
#430=VECTOR('',#719,1.);
#431=VECTOR('',#724,1.);
#432=VECTOR('',#725,1.);
#433=VECTOR('',#728,1.);
#434=VECTOR('',#729,1.);
#435=VECTOR('',#732,1.);
#436=VECTOR('',#733,1.);
#437=VECTOR('',#734,1.);
#438=VECTOR('',#735,1.);
#439=VECTOR('',#736,1.);
#440=VECTOR('',#739,1.);
#441=VECTOR('',#740,1.);
#442=VECTOR('',#745,1.);
#443=VECTOR('',#746,1.);
#444=VECTOR('',#747,1.);
#445=VECTOR('',#748,1.);
#446=VECTOR('',#755,1.);
#447=VECTOR('',#760,1.);
#448=VECTOR('',#767,1.);
#449=VECTOR('',#768,1.);
#450=EDGE_LOOP('',(#52,#53,#54,#55,#56,#57,#58,#59,#60,#61));
#451=EDGE_LOOP('',(#62,#63,#64,#65,#66,#67,#68,#69,#70,#71));
#452=EDGE_LOOP('',(#72,#73,#74,#75));
#453=EDGE_LOOP('',(#76,#77,#78,#79));
#454=EDGE_LOOP('',(#80,#81,#82,#83));
#455=EDGE_LOOP('',(#84,#85,#86,#87));
#456=EDGE_LOOP('',(#88,#89,#90,#91));
#457=EDGE_LOOP('',(#92,#93,#94,#95));
#458=EDGE_LOOP('',(#96,#97,#98,#99));
#459=EDGE_LOOP('',(#100,#101,#102,#103));
#460=EDGE_LOOP('',(#104,#105,#106,#107));
#461=EDGE_LOOP('',(#108,#109,#110,#111));
#462=EDGE_LOOP('',(#112,#113,#114,#115,#116,#117));
#463=EDGE_LOOP('',(#118,#119,#120,#121));
#464=EDGE_LOOP('',(#122,#123,#124,#125,#126,#127));
#465=EDGE_LOOP('',(#128,#129,#130,#131));
#466=EDGE_LOOP('',(#132,#133,#134,#135));
#467=EDGE_LOOP('',(#136,#137,#138,#139,#140,#141,#142,#143));
#468=EDGE_LOOP('',(#144,#145,#146,#147,#148,#149,#150,#151,#152,#153));
#469=EDGE_LOOP('',(#154,#155,#156,#157,#158,#159,#160,#161,#162,#163));
#470=EDGE_LOOP('',(#164,#165,#166,#167));
#471=EDGE_LOOP('',(#168,#169,#170,#171));
#472=EDGE_LOOP('',(#172,#173,#174,#175,#176,#177));
#473=EDGE_LOOP('',(#178,#179,#180,#181));
#474=EDGE_LOOP('',(#182,#183,#184,#185));
#475=EDGE_LOOP('',(#186,#187,#188,#189));
#476=EDGE_LOOP('',(#190,#191,#192,#193));
#477=EDGE_LOOP('',(#194,#195,#196,#197,#198,#199));
#478=EDGE_LOOP('',(#200,#201,#202,#203));
#479=EDGE_LOOP('',(#204,#205,#206,#207));
#480=FACE_BOUND('',#450,.T.);
#481=FACE_BOUND('',#451,.T.);
#482=FACE_BOUND('',#452,.T.);
#483=FACE_BOUND('',#453,.T.);
#484=FACE_BOUND('',#454,.T.);
#485=FACE_BOUND('',#455,.T.);
#486=FACE_BOUND('',#456,.T.);
#487=FACE_BOUND('',#457,.T.);
#488=FACE_BOUND('',#458,.T.);
#489=FACE_BOUND('',#459,.T.);
#490=FACE_BOUND('',#460,.T.);
#491=FACE_BOUND('',#461,.T.);
#492=FACE_BOUND('',#462,.T.);
#493=FACE_BOUND('',#463,.T.);
#494=FACE_BOUND('',#464,.T.);
#495=FACE_BOUND('',#465,.T.);
#496=FACE_BOUND('',#466,.T.);
#497=FACE_BOUND('',#467,.T.);
#498=FACE_BOUND('',#468,.T.);
#499=FACE_BOUND('',#469,.T.);
#500=FACE_BOUND('',#470,.T.);
#501=FACE_BOUND('',#471,.T.);
#502=FACE_BOUND('',#472,.T.);
#503=FACE_BOUND('',#473,.T.);
#504=FACE_BOUND('',#474,.T.);
#505=FACE_BOUND('',#475,.T.);
#506=FACE_BOUND('',#476,.T.);
#507=FACE_BOUND('',#477,.T.);
#508=FACE_BOUND('',#478,.T.);
#509=FACE_BOUND('',#479,.T.);
#510=PLANE('',#569);
#511=PLANE('',#580);
#512=PLANE('',#587);
#513=PLANE('',#590);
#514=PLANE('',#591);
#515=PLANE('',#592);
#516=PLANE('',#601);
#517=PLANE('',#602);
#518=PLANE('',#603);
#519=PLANE('',#604);
#520=PLANE('',#607);
#521=PLANE('',#608);
#522=PLANE('',#609);
#523=PLANE('',#611);
#524=PLANE('',#612);
#525=PLANE('',#613);
#526=PLANE('',#614);
#527=PLANE('',#615);
#528=ADVANCED_FACE('',(#480,#481),#510,.T.);
#529=ADVANCED_FACE('',(#482),#20,.F.);
#530=ADVANCED_FACE('',(#483),#511,.F.);
#531=ADVANCED_FACE('',(#484),#21,.F.);
#532=ADVANCED_FACE('',(#485),#22,.F.);
#533=ADVANCED_FACE('',(#486),#23,.F.);
#534=ADVANCED_FACE('',(#487),#512,.F.);
#535=ADVANCED_FACE('',(#488),#24,.F.);
#536=ADVANCED_FACE('',(#489),#513,.F.);
#537=ADVANCED_FACE('',(#490),#514,.T.);
#538=ADVANCED_FACE('',(#491),#515,.T.);
#539=ADVANCED_FACE('',(#492),#25,.T.);
#540=ADVANCED_FACE('',(#493),#26,.T.);
#541=ADVANCED_FACE('',(#494),#27,.T.);
#542=ADVANCED_FACE('',(#495),#516,.T.);
#543=ADVANCED_FACE('',(#496),#517,.T.);
#544=ADVANCED_FACE('',(#497),#518,.T.);
#545=ADVANCED_FACE('',(#498,#499),#519,.F.);
#546=ADVANCED_FACE('',(#500),#520,.F.);
#547=ADVANCED_FACE('',(#501),#521,.F.);
#548=ADVANCED_FACE('',(#502),#522,.T.);
#549=ADVANCED_FACE('',(#503),#523,.T.);
#550=ADVANCED_FACE('',(#504),#524,.T.);
#551=ADVANCED_FACE('',(#505),#525,.T.);
#552=ADVANCED_FACE('',(#506),#526,.T.);
#553=ADVANCED_FACE('',(#507),#527,.T.);
#554=ADVANCED_FACE('',(#508),#28,.T.);
#555=ADVANCED_FACE('',(#509),#29,.T.);
#556=CLOSED_SHELL('',(#528,#529,#530,#531,#532,#533,#534,#535,#536,#537,
#538,#539,#540,#541,#542,#543,#544,#545,#546,#547,#548,#549,#550,#551,#552,
#553,#554,#555));
#557=STYLED_ITEM('',(#558),#565);
#558=PRESENTATION_STYLE_ASSIGNMENT((#559));
#559=SURFACE_STYLE_USAGE(.BOTH.,#560);
#560=SURFACE_SIDE_STYLE('',(#561));
#561=SURFACE_STYLE_FILL_AREA(#562);
#562=FILL_AREA_STYLE('',(#563));
#563=FILL_AREA_STYLE_COLOUR('',#564);
#564=COLOUR_RGB('',0.745098039215686,0.745098039215686,0.745098039215686);
#565=MANIFOLD_SOLID_BREP('KP0041-01_PConnectCover',#556);
#566=SHAPE_DEFINITION_REPRESENTATION(#942,#567);
#567=SHAPE_REPRESENTATION('KP0041-01_PConnectCover',(#568),#937);
#568=AXIS2_PLACEMENT_3D('',#777,#619,#620);
#569=AXIS2_PLACEMENT_3D('',#778,#621,#622);
#570=AXIS2_PLACEMENT_3D('',#782,#624,#625);
#571=AXIS2_PLACEMENT_3D('',#786,#627,#628);
#572=AXIS2_PLACEMENT_3D('',#790,#630,#631);
#573=AXIS2_PLACEMENT_3D('',#794,#633,#634);
#574=AXIS2_PLACEMENT_3D('',#798,#636,#637);
#575=AXIS2_PLACEMENT_3D('',#810,#643,#644);
#576=AXIS2_PLACEMENT_3D('',#814,#646,#647);
#577=AXIS2_PLACEMENT_3D('',#818,#649,#650);
#578=AXIS2_PLACEMENT_3D('',#819,#651,#652);
#579=AXIS2_PLACEMENT_3D('',#822,#654,#655);
#580=AXIS2_PLACEMENT_3D('',#825,#657,#658);
#581=AXIS2_PLACEMENT_3D('',#829,#661,#662);
#582=AXIS2_PLACEMENT_3D('',#832,#664,#665);
#583=AXIS2_PLACEMENT_3D('',#833,#666,#667);
#584=AXIS2_PLACEMENT_3D('',#836,#669,#670);
#585=AXIS2_PLACEMENT_3D('',#839,#672,#673);
#586=AXIS2_PLACEMENT_3D('',#842,#675,#676);
#587=AXIS2_PLACEMENT_3D('',#845,#678,#679);
#588=AXIS2_PLACEMENT_3D('',#849,#682,#683);
#589=AXIS2_PLACEMENT_3D('',#852,#685,#686);
#590=AXIS2_PLACEMENT_3D('',#853,#687,#688);
#591=AXIS2_PLACEMENT_3D('',#855,#690,#691);
#592=AXIS2_PLACEMENT_3D('',#861,#695,#696);
#593=AXIS2_PLACEMENT_3D('',#865,#699,#700);
#594=AXIS2_PLACEMENT_3D('',#869,#702,#703);
#595=AXIS2_PLACEMENT_3D('',#872,#705,#706);
#596=AXIS2_PLACEMENT_3D('',#873,#707,#708);
#597=AXIS2_PLACEMENT_3D('',#876,#710,#711);
#598=AXIS2_PLACEMENT_3D('',#879,#713,#714);
#599=AXIS2_PLACEMENT_3D('',#884,#717,#718);
#600=AXIS2_PLACEMENT_3D('',#888,#720,#721);
#601=AXIS2_PLACEMENT_3D('',#889,#722,#723);
#602=AXIS2_PLACEMENT_3D('',#893,#726,#727);
#603=AXIS2_PLACEMENT_3D('',#897,#730,#731);
#604=AXIS2_PLACEMENT_3D('',#907,#737,#738);
#605=AXIS2_PLACEMENT_3D('',#910,#741,#742);
#606=AXIS2_PLACEMENT_3D('',#912,#743,#744);
#607=AXIS2_PLACEMENT_3D('',#918,#749,#750);
#608=AXIS2_PLACEMENT_3D('',#919,#751,#752);
#609=AXIS2_PLACEMENT_3D('',#920,#753,#754);
#610=AXIS2_PLACEMENT_3D('',#923,#756,#757);
#611=AXIS2_PLACEMENT_3D('',#924,#758,#759);
#612=AXIS2_PLACEMENT_3D('',#926,#761,#762);
#613=AXIS2_PLACEMENT_3D('',#927,#763,#764);
#614=AXIS2_PLACEMENT_3D('',#928,#765,#766);
#615=AXIS2_PLACEMENT_3D('',#932,#769,#770);
#616=AXIS2_PLACEMENT_3D('',#933,#771,#772);
#617=AXIS2_PLACEMENT_3D('',#934,#773,#774);
#618=AXIS2_PLACEMENT_3D('',#935,#775,#776);
#619=DIRECTION('',(0.,0.,1.));
#620=DIRECTION('',(1.,0.,0.));
#621=DIRECTION('',(0.,-1.,0.));
#622=DIRECTION('',(1.,0.,0.));
#623=DIRECTION('',(1.,0.,0.));
#624=DIRECTION('',(0.,-1.,0.));
#625=DIRECTION('',(1.,0.,0.));
#626=DIRECTION('',(0.,0.,1.));
#627=DIRECTION('',(0.,-1.,0.));
#628=DIRECTION('',(1.,0.,0.));
#629=DIRECTION('',(1.,0.,0.));
#630=DIRECTION('',(0.,-1.,0.));
#631=DIRECTION('',(1.,0.,0.));
#632=DIRECTION('',(0.,0.,1.));
#633=DIRECTION('',(0.,-1.,0.));
#634=DIRECTION('',(1.,0.,0.));
#635=DIRECTION('',(0.,0.,1.));
#636=DIRECTION('',(0.,-1.,0.));
#637=DIRECTION('',(1.,0.,0.));
#638=DIRECTION('',(0.,0.,1.));
#639=DIRECTION('',(1.,0.,0.));
#640=DIRECTION('',(0.,0.,1.));
#641=DIRECTION('',(1.,0.,0.));
#642=DIRECTION('',(0.,0.,1.));
#643=DIRECTION('',(0.,-1.,0.));
#644=DIRECTION('',(1.,0.,0.));
#645=DIRECTION('',(0.,0.,1.));
#646=DIRECTION('',(0.,-1.,0.));
#647=DIRECTION('',(1.,0.,0.));
#648=DIRECTION('',(0.,0.,1.));
#649=DIRECTION('',(0.,-1.,0.));
#650=DIRECTION('',(1.,0.,0.));
#651=DIRECTION('',(0.,-1.,0.));
#652=DIRECTION('',(1.,0.,0.));
#653=DIRECTION('',(0.,-1.,0.));
#654=DIRECTION('',(0.,-1.,0.));
#655=DIRECTION('',(1.,0.,0.));
#656=DIRECTION('',(0.,-1.,0.));
#657=DIRECTION('',(0.,0.,1.));
#658=DIRECTION('',(0.,-1.,0.));
#659=DIRECTION('',(0.,-1.,0.));
#660=DIRECTION('',(1.,0.,0.));
#661=DIRECTION('',(0.,-1.,0.));
#662=DIRECTION('',(1.,0.,0.));
#663=DIRECTION('',(0.,-1.,0.));
#664=DIRECTION('',(0.,-1.,0.));
#665=DIRECTION('',(1.,0.,0.));
#666=DIRECTION('',(0.,-1.,0.));
#667=DIRECTION('',(1.,0.,0.));
#668=DIRECTION('',(0.,-1.,0.));
#669=DIRECTION('',(0.,-1.,0.));
#670=DIRECTION('',(1.,0.,0.));
#671=DIRECTION('',(0.,-1.,0.));
#672=DIRECTION('',(0.,-1.,0.));
#673=DIRECTION('',(1.,0.,0.));
#674=DIRECTION('',(0.,-1.,0.));
#675=DIRECTION('',(0.,-1.,0.));
#676=DIRECTION('',(1.,0.,0.));
#677=DIRECTION('',(0.,-1.,0.));
#678=DIRECTION('',(0.,0.,-1.));
#679=DIRECTION('',(0.,1.,0.));
#680=DIRECTION('',(0.,1.,0.));
#681=DIRECTION('',(1.,0.,0.));
#682=DIRECTION('',(0.,-1.,0.));
#683=DIRECTION('',(1.,0.,0.));
#684=DIRECTION('',(0.,-1.,0.));
#685=DIRECTION('',(0.,-1.,0.));
#686=DIRECTION('',(1.,0.,0.));
#687=DIRECTION('',(1.,0.,0.));
#688=DIRECTION('',(0.,1.,0.));
#689=DIRECTION('',(0.,0.,1.));
#690=DIRECTION('',(0.,0.,-1.));
#691=DIRECTION('',(0.,1.,0.));
#692=DIRECTION('',(1.,0.,0.));
#693=DIRECTION('',(0.,1.,0.));
#694=DIRECTION('',(0.,1.,0.));
#695=DIRECTION('',(-1.,0.,0.));
#696=DIRECTION('',(0.,-1.,0.));
#697=DIRECTION('',(0.,0.,1.));
#698=DIRECTION('',(0.,-1.,0.));
#699=DIRECTION('',(0.,-1.,0.));
#700=DIRECTION('',(1.,0.,0.));
#701=DIRECTION('',(0.,-1.,0.));
#702=DIRECTION('',(0.,-1.,0.));
#703=DIRECTION('',(1.,0.,0.));
#704=DIRECTION('',(0.,-1.,0.));
#705=DIRECTION('',(0.,-1.,0.));
#706=DIRECTION('',(1.,0.,0.));
#707=DIRECTION('',(0.,-1.,0.));
#708=DIRECTION('',(1.,0.,0.));
#709=DIRECTION('',(0.,-1.,0.));
#710=DIRECTION('',(0.,-1.,0.));
#711=DIRECTION('',(1.,0.,0.));
#712=DIRECTION('',(0.,-1.,0.));
#713=DIRECTION('',(0.,-1.,0.));
#714=DIRECTION('',(1.,0.,0.));
#715=DIRECTION('',(0.,-1.,0.));
#716=DIRECTION('',(0.,-1.,0.));
#717=DIRECTION('',(0.,-1.,0.));
#718=DIRECTION('',(1.,0.,0.));
#719=DIRECTION('',(0.,-1.,0.));
#720=DIRECTION('',(0.,-1.,0.));
#721=DIRECTION('',(1.,0.,0.));
#722=DIRECTION('',(-1.,0.,0.));
#723=DIRECTION('',(0.,-1.,0.));
#724=DIRECTION('',(0.,0.,1.));
#725=DIRECTION('',(0.,-1.,0.));
#726=DIRECTION('',(0.,0.,1.));
#727=DIRECTION('',(0.,-1.,0.));
#728=DIRECTION('',(1.,0.,0.));
#729=DIRECTION('',(0.,-1.,0.));
#730=DIRECTION('',(1.,0.,0.));
#731=DIRECTION('',(0.,1.,0.));
#732=DIRECTION('',(0.,0.,1.));
#733=DIRECTION('',(0.,1.,0.));
#734=DIRECTION('',(0.,0.,1.));
#735=DIRECTION('',(0.,1.,0.));
#736=DIRECTION('',(0.,0.,1.));
#737=DIRECTION('',(0.,-1.,0.));
#738=DIRECTION('',(1.,0.,0.));
#739=DIRECTION('',(0.,0.,1.));
#740=DIRECTION('',(0.,0.,1.));
#741=DIRECTION('',(0.,-1.,0.));
#742=DIRECTION('',(1.,0.,0.));
#743=DIRECTION('',(0.,-1.,0.));
#744=DIRECTION('',(1.,0.,0.));
#745=DIRECTION('',(1.,0.,0.));
#746=DIRECTION('',(0.,0.,1.));
#747=DIRECTION('',(0.,0.,1.));
#748=DIRECTION('',(1.,0.,0.));
#749=DIRECTION('',(-1.,0.,0.));
#750=DIRECTION('',(0.,-1.,0.));
#751=DIRECTION('',(-1.,0.,0.));
#752=DIRECTION('',(0.,-1.,0.));
#753=DIRECTION('',(0.,1.,0.));
#754=DIRECTION('',(-1.,0.,0.));
#755=DIRECTION('',(-1.,0.,0.));
#756=DIRECTION('',(0.,-1.,0.));
#757=DIRECTION('',(1.,0.,0.));
#758=DIRECTION('',(0.,0.,-1.));
#759=DIRECTION('',(0.,1.,0.));
#760=DIRECTION('',(0.,1.,0.));
#761=DIRECTION('',(-1.,0.,0.));
#762=DIRECTION('',(0.,-1.,0.));
#763=DIRECTION('',(-1.,0.,0.));
#764=DIRECTION('',(0.,-1.,0.));
#765=DIRECTION('',(0.,0.,1.));
#766=DIRECTION('',(0.,-1.,0.));
#767=DIRECTION('',(1.,0.,0.));
#768=DIRECTION('',(0.,-1.,0.));
#769=DIRECTION('',(0.,1.,0.));
#770=DIRECTION('',(-1.,0.,0.));
#771=DIRECTION('',(0.,-1.,0.));
#772=DIRECTION('',(1.,0.,0.));
#773=DIRECTION('',(0.,-1.,0.));
#774=DIRECTION('',(1.,0.,0.));
#775=DIRECTION('',(0.,-1.,0.));
#776=DIRECTION('',(1.,0.,0.));
#777=CARTESIAN_POINT('',(0.,0.,0.));
#778=CARTESIAN_POINT('',(0.000151652245069928,-0.01,-5.54999999804218E-5));
#779=CARTESIAN_POINT('',(0.000151652245069928,-0.01,0.00858260792193377));
#780=CARTESIAN_POINT('',(-0.00861999999996857,-0.01,0.00858260792193377));
#781=CARTESIAN_POINT('',(0.00861999999996857,-0.01,0.00858260792193377));
#782=CARTESIAN_POINT('',(0.00862,-0.01,0.005001));
#783=CARTESIAN_POINT('',(0.0122016079219338,-0.01,0.005001));
#784=CARTESIAN_POINT('',(0.0122016079219338,-0.01,-5.54999999804218E-5));
#785=CARTESIAN_POINT('',(0.0122016079219142,-0.01,-0.005112));
#786=CARTESIAN_POINT('',(0.00862,-0.01,-0.005112));
#787=CARTESIAN_POINT('',(0.00861999999996857,-0.01,-0.00869360792193377));
#788=CARTESIAN_POINT('',(0.000151652245069928,-0.01,-0.00869360792193377));
#789=CARTESIAN_POINT('',(-0.00861999999996857,-0.01,-0.00869360792193377));
#790=CARTESIAN_POINT('',(-0.00862,-0.01,-0.005112));
#791=CARTESIAN_POINT('',(-0.0122016079219338,-0.01,-0.00511199999996776));
#792=CARTESIAN_POINT('',(-0.0122016079219338,-0.01,-0.00353373629535781));
#793=CARTESIAN_POINT('',(-0.0122016079219367,-0.01,-0.00353373629536784));
#794=CARTESIAN_POINT('',(-0.00962,-0.01,-5.55E-5));
#795=CARTESIAN_POINT('',(-0.0122016079219447,-0.01,0.00342273629536188));
#796=CARTESIAN_POINT('',(-0.0122016079219338,-0.01,0.0050010000000475));
#797=CARTESIAN_POINT('',(-0.0122016079219338,-0.01,0.00500100000002375));
#798=CARTESIAN_POINT('',(-0.00862,-0.01,0.005001));
#799=CARTESIAN_POINT('',(-0.0119516079219338,-0.01,-5.54999999804218E-5));
#800=CARTESIAN_POINT('',(-0.0119516079219338,-0.01,-0.00927450305558266));
#801=CARTESIAN_POINT('',(-0.0119516079219338,-0.01,-0.021));
#802=CARTESIAN_POINT('',(0.000151652245069928,-0.01,-0.021));
#803=CARTESIAN_POINT('',(0.0139516079218946,-0.01,-0.021));
#804=CARTESIAN_POINT('',(0.0139516079218946,-0.01,-5.54999999804218E-5));
#805=CARTESIAN_POINT('',(0.0139516079218946,-0.01,0.021));
#806=CARTESIAN_POINT('',(0.000151652245069928,-0.01,0.021));
#807=CARTESIAN_POINT('',(-0.0119516079219338,-0.01,0.021));
#808=CARTESIAN_POINT('',(-0.0119516079219338,-0.01,-5.54999999804218E-5));
#809=CARTESIAN_POINT('',(-0.0119516079219338,-0.01,0.00916350305558265));
#810=CARTESIAN_POINT('',(-0.00862,-0.01,0.005001));
#811=CARTESIAN_POINT('',(-0.0139516079219221,-0.01,0.00500100000002375));
#812=CARTESIAN_POINT('',(-0.0139516079219104,-0.01,0.0050010000000475));
#813=CARTESIAN_POINT('',(-0.0139516079219014,-0.01,0.00421335555231997));
#814=CARTESIAN_POINT('',(-0.00962,-0.01,-5.55E-5));
#815=CARTESIAN_POINT('',(-0.0139516079218813,-0.01,-0.00432435555234036));
#816=CARTESIAN_POINT('',(-0.0139516079218947,-0.01,-0.00432435555238044));
#817=CARTESIAN_POINT('',(-0.0139516079219142,-0.01,-0.00511199999996776));
#818=CARTESIAN_POINT('',(-0.00862,-0.01,-0.005112));
#819=CARTESIAN_POINT('',(0.00862,0.01,0.005001));
#820=CARTESIAN_POINT('',(0.00861999999993714,0.01,0.00858260792193377));
#821=CARTESIAN_POINT('',(0.00861999999996857,0.01,0.00858260792193377));
#822=CARTESIAN_POINT('',(0.00862,0.01,0.005001));
#823=CARTESIAN_POINT('',(0.0122016079219338,0.01,0.005001));
#824=CARTESIAN_POINT('',(0.0122016079219338,0.01,0.005001));
#825=CARTESIAN_POINT('',(0.00861999999993714,0.01,0.00858260792193377));
#826=CARTESIAN_POINT('',(-0.00861999999993714,0.01,0.00858260792193377));
#827=CARTESIAN_POINT('',(-0.00861999999996857,0.01,0.00858260792193377));
#828=CARTESIAN_POINT('',(0.00861999999993714,0.01,0.00858260792193377));
#829=CARTESIAN_POINT('',(-0.00862,0.01,0.005001));
#830=CARTESIAN_POINT('',(-0.0122016079219338,0.01,0.0050010000000475));
#831=CARTESIAN_POINT('',(-0.0122016079219338,0.01,0.00500100000002375));
#832=CARTESIAN_POINT('',(-0.00862,0.01,0.005001));
#833=CARTESIAN_POINT('',(-0.00962,0.01,-5.55E-5));
#834=CARTESIAN_POINT('',(-0.0122016079219396,0.01,-0.00353373629536567));
#835=CARTESIAN_POINT('',(-0.0122016079219367,0.01,-0.00353373629536784));
#836=CARTESIAN_POINT('',(-0.00962,0.01,-5.55E-5));
#837=CARTESIAN_POINT('',(-0.0122016079219447,0.01,0.00342273629536188));
#838=CARTESIAN_POINT('',(-0.0122016079219557,0.01,0.00342273629535376));
#839=CARTESIAN_POINT('',(-0.00862,0.01,-0.005112));
#840=CARTESIAN_POINT('',(-0.00861999999993714,0.01,-0.00869360792193377));
#841=CARTESIAN_POINT('',(-0.00861999999996857,0.01,-0.00869360792193377));
#842=CARTESIAN_POINT('',(-0.00862,0.01,-0.005112));
#843=CARTESIAN_POINT('',(-0.0122016079219338,0.01,-0.00511199999996776));
#844=CARTESIAN_POINT('',(-0.0122016079219338,0.01,-0.00511199999993551));
#845=CARTESIAN_POINT('',(-0.00861999999993714,0.01,-0.00869360792193377));
#846=CARTESIAN_POINT('',(0.00861999999993714,0.01,-0.00869360792193377));
#847=CARTESIAN_POINT('',(0.00861999999996857,0.01,-0.00869360792193377));
#848=CARTESIAN_POINT('',(-0.00861999999993714,0.01,-0.00869360792193377));
#849=CARTESIAN_POINT('',(0.00862,0.01,-0.005112));
#850=CARTESIAN_POINT('',(0.0122016079218946,0.01,-0.005112));
#851=CARTESIAN_POINT('',(0.0122016079219142,0.01,-0.005112));
#852=CARTESIAN_POINT('',(0.00862,0.01,-0.005112));
#853=CARTESIAN_POINT('',(0.0122016079219338,0.01,-0.00511199999993551));
#854=CARTESIAN_POINT('',(0.0122016079219338,0.01,-0.00511199999993551));
#855=CARTESIAN_POINT('',(0.0119516079219338,-0.01,-0.021));
#856=CARTESIAN_POINT('',(0.0119516079219338,-0.009,-0.021));
#857=CARTESIAN_POINT('',(-0.0119516079219338,-0.009,-0.021));
#858=CARTESIAN_POINT('',(0.0139516079218946,-0.009,-0.021));
#859=CARTESIAN_POINT('',(0.0139516079218946,-0.01,-0.021));
#860=CARTESIAN_POINT('',(-0.0119516079219338,-0.01,-0.021));
#861=CARTESIAN_POINT('',(-0.0119516079219338,-0.01,-0.021));
#862=CARTESIAN_POINT('',(-0.0119516079219338,-0.009,-0.021));
#863=CARTESIAN_POINT('',(-0.0119516079219338,-0.009,-0.00927450305558266));
#864=CARTESIAN_POINT('',(-0.0119516079219338,-0.01,-0.00927450305558267));
#865=CARTESIAN_POINT('',(-0.00862,0.,-0.005112));
#866=CARTESIAN_POINT('',(-0.00861999999993714,0.,-0.0104436079219338));
#867=CARTESIAN_POINT('',(-0.00861999999996857,0.01,-0.0104436079219142));
#868=CARTESIAN_POINT('',(-0.00861999999996857,-0.009,-0.0104436079219142));
#869=CARTESIAN_POINT('',(-0.00862,-0.009,-0.005112));
#870=CARTESIAN_POINT('',(-0.0139516079219338,0.,-0.00511199999993551));
#871=CARTESIAN_POINT('',(-0.0139516079219142,0.01,-0.00511199999996776));
#872=CARTESIAN_POINT('',(-0.00862,0.01,-0.005112));
#873=CARTESIAN_POINT('',(-0.00962,0.,-5.55E-5));
#874=CARTESIAN_POINT('',(-0.0139516079218923,0.,0.00421335555232912));
#875=CARTESIAN_POINT('',(-0.0139516079219014,0.01,0.00421335555231997));
#876=CARTESIAN_POINT('',(-0.00962,0.01,-5.55E-5));
#877=CARTESIAN_POINT('',(-0.0139516079218813,0.01,-0.00432435555234036));
#878=CARTESIAN_POINT('',(-0.0139516079218679,0.,-0.00432435555235398));
#879=CARTESIAN_POINT('',(-0.00862,0.,0.005001));
#880=CARTESIAN_POINT('',(-0.0139516079219338,0.,0.0050010000000475));
#881=CARTESIAN_POINT('',(-0.0139516079219221,0.01,0.00500100000002375));
#882=CARTESIAN_POINT('',(-0.0119516079219338,0.,0.00916350305558266));
#883=CARTESIAN_POINT('',(-0.0119516079219338,-0.009,0.00916350305558265));
#884=CARTESIAN_POINT('',(-0.00862,-0.009,0.005001));
#885=CARTESIAN_POINT('',(-0.00861999999996857,-0.009,0.0103326079219338));
#886=CARTESIAN_POINT('',(-0.00861999999993714,0.,0.0103326079219338));
#887=CARTESIAN_POINT('',(-0.00861999999996857,0.01,0.0103326079219338));
#888=CARTESIAN_POINT('',(-0.00862,0.01,0.005001));
#889=CARTESIAN_POINT('',(-0.0119516079219338,-0.01,0.00916350305558267));
#890=CARTESIAN_POINT('',(-0.0119516079219338,-0.009,0.00916350305558267));
#891=CARTESIAN_POINT('',(-0.0119516079219338,-0.009,0.021));
#892=CARTESIAN_POINT('',(-0.0119516079219338,-0.01,0.021));
#893=CARTESIAN_POINT('',(0.0119516079219338,-0.01,0.021));
#894=CARTESIAN_POINT('',(0.0119516079219338,-0.009,0.021));
#895=CARTESIAN_POINT('',(0.0139516079218946,-0.009,0.021));
#896=CARTESIAN_POINT('',(0.0139516079218946,-0.01,0.021));
#897=CARTESIAN_POINT('',(0.0139516079218947,0.,-0.00511199999993551));
#898=CARTESIAN_POINT('',(0.0139516079218947,-0.009,-0.00511199999993551));
#899=CARTESIAN_POINT('',(0.0139516079218947,-0.009,-0.005112));
#900=CARTESIAN_POINT('',(0.0139516079218947,0.,-0.005112));
#901=CARTESIAN_POINT('',(0.0139516079218947,0.01,-0.005112));
#902=CARTESIAN_POINT('',(0.0139516079218947,0.01,-0.00511199999993551));
#903=CARTESIAN_POINT('',(0.0139516079218947,0.01,0.00500100000002375));
#904=CARTESIAN_POINT('',(0.0139516079218947,0.,0.0050010000000475));
#905=CARTESIAN_POINT('',(0.0139516079218947,-0.009,0.00500100000002375));
#906=CARTESIAN_POINT('',(0.0139516079218947,-0.009,-0.00511199999993551));
#907=CARTESIAN_POINT('',(0.000151652245069929,0.01,-5.54999999804223E-5));
#908=CARTESIAN_POINT('',(-0.0122016079219338,0.01,-5.54999999804223E-5));
#909=CARTESIAN_POINT('',(-0.0122016079219338,0.01,-5.54999999804223E-5));
#910=CARTESIAN_POINT('',(0.00862,0.01,0.005001));
#911=CARTESIAN_POINT('',(0.00861999999996857,0.01,0.0103326079219338));
#912=CARTESIAN_POINT('',(0.00862,0.01,-0.005112));
#913=CARTESIAN_POINT('',(0.00861999999996857,0.01,-0.0104436079218947));
#914=CARTESIAN_POINT('',(0.000151652245069929,0.01,-0.0104436079218947));
#915=CARTESIAN_POINT('',(-0.0139516079218947,0.01,-5.54999999804223E-5));
#916=CARTESIAN_POINT('',(-0.0139516079219104,0.01,-5.54999999804223E-5));
#917=CARTESIAN_POINT('',(0.000151652245069929,0.01,0.0103326079219338));
#918=CARTESIAN_POINT('',(-0.0122016079219338,0.01,0.0050010000000475));
#919=CARTESIAN_POINT('',(-0.0122016079219338,0.01,-0.00353373629535781));
#920=CARTESIAN_POINT('',(0.0129516079219142,-0.009,0.));
#921=CARTESIAN_POINT('',(0.0129516079219142,-0.009,-0.0104436079218947));
#922=CARTESIAN_POINT('',(0.00861999999996857,-0.009,-0.0104436079218947));
#923=CARTESIAN_POINT('',(0.00862,-0.009,-0.005112));
#924=CARTESIAN_POINT('',(-0.00861999999993714,0.,-0.0104436079218947));
#925=CARTESIAN_POINT('',(0.00861999999993714,0.,-0.0104436079218947));
#926=CARTESIAN_POINT('',(-0.0139516079218947,0.,-0.00432435555238044));
#927=CARTESIAN_POINT('',(-0.0139516079219104,0.,0.0050010000000475));
#928=CARTESIAN_POINT('',(0.00861999999993714,0.,0.0103326079219338));
#929=CARTESIAN_POINT('',(0.00861999999993714,-0.009,0.0103326079219338));
#930=CARTESIAN_POINT('',(0.00861999999996857,-0.009,0.0103326079219338));
#931=CARTESIAN_POINT('',(0.00861999999993714,0.,0.0103326079219338));
#932=CARTESIAN_POINT('',(0.0129516079219142,-0.009,0.));
#933=CARTESIAN_POINT('',(0.00862,-0.009,0.005001));
#934=CARTESIAN_POINT('',(0.00862,0.,0.005001));
#935=CARTESIAN_POINT('',(0.00862,0.,-0.005112));
#936=MECHANICAL_DESIGN_GEOMETRIC_PRESENTATION_REPRESENTATION('',(#557),
#937);
#937=(
GEOMETRIC_REPRESENTATION_CONTEXT(3)
GLOBAL_UNCERTAINTY_ASSIGNED_CONTEXT((#938))
GLOBAL_UNIT_ASSIGNED_CONTEXT((#941,#940,#939))
REPRESENTATION_CONTEXT('KP0041-01_PConnectCover',
'TOP_LEVEL_ASSEMBLY_PART')
);
#938=UNCERTAINTY_MEASURE_WITH_UNIT(LENGTH_MEASURE(1.E-8),#941,
'DISTANCE_ACCURACY_VALUE','Maximum Tolerance applied to model');
#939=(
NAMED_UNIT(*)
SI_UNIT($,.STERADIAN.)
SOLID_ANGLE_UNIT()
);
#940=(
NAMED_UNIT(*)
PLANE_ANGLE_UNIT()
SI_UNIT($,.RADIAN.)
);
#941=(
LENGTH_UNIT()
NAMED_UNIT(*)
SI_UNIT($,.METRE.)
);
#942=PRODUCT_DEFINITION_SHAPE('','',#943);
#943=PRODUCT_DEFINITION('','',#945,#944);
#944=PRODUCT_DEFINITION_CONTEXT('',#951,'design');
#945=PRODUCT_DEFINITION_FORMATION_WITH_SPECIFIED_SOURCE('','',#947,
 .NOT_KNOWN.);
#946=PRODUCT_RELATED_PRODUCT_CATEGORY('','',(#947));
#947=PRODUCT('KP0041-01_PConnectCover','KP0041-01_PConnectCover',
'KP0041-01_PConnectCover',(#949));
#948=PRODUCT_CATEGORY('','');
#949=PRODUCT_CONTEXT('',#951,'mechanical');
#950=APPLICATION_PROTOCOL_DEFINITION('international standard',
'automotive_design',2010,#951);
#951=APPLICATION_CONTEXT(
'core data for automotive mechanical design processes');
ENDSEC;
END-ISO-10303-21;
