ISO-10303-21;
HEADER;
/* Generated by software containing ST-Developer
 * from STEP Tools, Inc. (www.steptools.com) 
 */
/* OPTION: using custom renumber hook */

FILE_DESCRIPTION(
/* description */ ('STEP AP214',
'CAx-IF Rec.Pracs.---User Defined Attributes---1.5---2016-08-15'),
/* implementation_level */ '2;1');

FILE_NAME(
/* name */ '6a65b58b833ca6ec4e163c83',
/* time_stamp */ '2026-07-26T07:21:47Z',
/* author */ (''),
/* organization */ (''),
/* preprocessor_version */ 'ST-DEVELOPER v20',
/* originating_system */ 'ONSHAPE BY PTC INC, 1.218',
/* authorisation */ '  ');

FILE_SCHEMA (('AUTOMOTIVE_DESIGN {1 0 10303 214 3 1 1}'));
ENDSEC;

DATA;
#10=PROPERTY_DEFINITION_REPRESENTATION(#14,#12);
#11=PROPERTY_DEFINITION_REPRESENTATION(#15,#13);
#12=REPRESENTATION('',(#16),#521);
#13=REPRESENTATION('',(#17),#521);
#14=PROPERTY_DEFINITION('pmi validation property','',#526);
#15=PROPERTY_DEFINITION('pmi validation property','',#526);
#16=VALUE_REPRESENTATION_ITEM('number of annotations',COUNT_MEASURE(0.));
#17=VALUE_REPRESENTATION_ITEM('number of views',COUNT_MEASURE(0.));
#18=SHAPE_REPRESENTATION_RELATIONSHIP('','',#227,#19);
#19=ADVANCED_BREP_SHAPE_REPRESENTATION('',(#225),#521);
#20=PLANE('',#234);
#21=PLANE('',#236);
#22=PLANE('',#250);
#23=PLANE('',#251);
#24=B_SPLINE_CURVE_WITH_KNOTS('',3,(#322,#323,#324,#325,#326,#327,#328,
#329,#330,#331,#332,#333,#334,#335,#336,#337,#338,#339,#340,#341,#342,#343,
#344,#345,#346,#347),.UNSPECIFIED.,.F.,.F.,(4,1,1,1,1,1,1,1,1,1,1,1,1,1,
1,1,1,1,1,1,1,1,1,4),(0.,0.0625,0.09375,0.125,0.1875,0.25,0.3125,0.34375,
0.375,0.40625,0.4375,0.46875,0.5,0.53125,0.5625,0.59375,0.625,0.6875,0.75,
0.8125,0.875,0.90625,0.9375,1.),.UNSPECIFIED.);
#25=B_SPLINE_CURVE_WITH_KNOTS('',3,(#350,#351,#352,#353,#354,#355,#356,
#357,#358,#359,#360,#361,#362,#363,#364,#365,#366,#367,#368,#369,#370,#371,
#372,#373,#374,#375),.UNSPECIFIED.,.F.,.F.,(4,1,1,1,1,1,1,1,1,1,1,1,1,1,
1,1,1,1,1,1,1,1,1,4),(0.,0.0625,0.09375,0.125,0.1875,0.25,0.3125,0.34375,
0.375,0.40625,0.4375,0.46875,0.5,0.53125,0.5625,0.59375,0.625,0.6875,0.75,
0.8125,0.875,0.90625,0.9375,1.),.UNSPECIFIED.);
#26=B_SPLINE_CURVE_WITH_KNOTS('',3,(#377,#378,#379,#380,#381,#382,#383,
#384,#385,#386,#387,#388,#389,#390,#391,#392,#393,#394,#395,#396,#397,#398,
#399,#400,#401,#402),.UNSPECIFIED.,.F.,.F.,(4,1,1,1,1,1,1,1,1,1,1,1,1,1,
1,1,1,1,1,1,1,1,1,4),(0.,0.0625,0.09375,0.125,0.1875,0.25,0.3125,0.34375,
0.375,0.40625,0.4375,0.46875,0.5,0.53125,0.5625,0.59375,0.625,0.6875,0.75,
0.8125,0.875,0.90625,0.9375,1.),.UNSPECIFIED.);
#27=B_SPLINE_CURVE_WITH_KNOTS('',3,(#405,#406,#407,#408,#409,#410,#411,
#412,#413,#414,#415,#416,#417,#418,#419,#420,#421,#422,#423,#424,#425,#426,
#427,#428,#429,#430),.UNSPECIFIED.,.F.,.F.,(4,1,1,1,1,1,1,1,1,1,1,1,1,1,
1,1,1,1,1,1,1,1,1,4),(0.,0.0625,0.09375,0.125,0.1875,0.25,0.3125,0.34375,
0.375,0.40625,0.4375,0.46875,0.5,0.53125,0.5625,0.59375,0.625,0.6875,0.75,
0.8125,0.875,0.90625,0.9375,1.),.UNSPECIFIED.);
#28=B_SPLINE_CURVE_WITH_KNOTS('',3,(#456,#457,#458,#459,#460,#461,#462,
#463,#464,#465,#466,#467,#468),.UNSPECIFIED.,.F.,.F.,(4,1,1,1,1,1,1,1,1,
1,4),(0.,0.125,0.1875,0.25,0.375,0.5,0.625,0.75,0.8125,0.875,1.),
 .UNSPECIFIED.);
#29=B_SPLINE_CURVE_WITH_KNOTS('',3,(#471,#472,#473,#474,#475,#476,#477,
#478,#479,#480,#481,#482,#483),.UNSPECIFIED.,.F.,.F.,(4,1,1,1,1,1,1,1,1,
1,4),(0.,0.125,0.1875,0.25,0.375,0.5,0.625,0.75,0.8125,0.875,1.),
 .UNSPECIFIED.);
#30=B_SPLINE_CURVE_WITH_KNOTS('',3,(#485,#486,#487,#488,#489,#490,#491,
#492,#493,#494,#495,#496,#497),.UNSPECIFIED.,.F.,.F.,(4,1,1,1,1,1,1,1,1,
1,4),(0.,0.125,0.1875,0.25,0.375,0.5,0.625,0.75,0.8125,0.875,1.),
 .UNSPECIFIED.);
#31=B_SPLINE_CURVE_WITH_KNOTS('',3,(#500,#501,#502,#503,#504,#505,#506,
#507,#508,#509,#510,#511,#512),.UNSPECIFIED.,.F.,.F.,(4,1,1,1,1,1,1,1,1,
1,4),(0.,0.125,0.1875,0.25,0.375,0.5,0.625,0.75,0.8125,0.875,1.),
 .UNSPECIFIED.);
#32=TOROIDAL_SURFACE('',#232,0.00770000000000001,0.000300000000000001);
#33=TOROIDAL_SURFACE('',#233,0.00770000000000001,0.000300000000000001);
#34=TOROIDAL_SURFACE('',#242,0.00525,0.00165);
#35=TOROIDAL_SURFACE('',#244,0.00525,0.00165);
#36=TOROIDAL_SURFACE('',#252,0.0028,0.000300000000000001);
#37=TOROIDAL_SURFACE('',#254,0.0028,0.000300000000000001);
#38=ORIENTED_EDGE('',*,*,#78,.T.);
#39=ORIENTED_EDGE('',*,*,#79,.T.);
#40=ORIENTED_EDGE('',*,*,#80,.T.);
#41=ORIENTED_EDGE('',*,*,#81,.T.);
#42=ORIENTED_EDGE('',*,*,#78,.F.);
#43=ORIENTED_EDGE('',*,*,#79,.F.);
#44=ORIENTED_EDGE('',*,*,#82,.T.);
#45=ORIENTED_EDGE('',*,*,#83,.T.);
#46=ORIENTED_EDGE('',*,*,#84,.T.);
#47=ORIENTED_EDGE('',*,*,#81,.F.);
#48=ORIENTED_EDGE('',*,*,#80,.F.);
#49=ORIENTED_EDGE('',*,*,#82,.F.);
#50=ORIENTED_EDGE('',*,*,#83,.F.);
#51=ORIENTED_EDGE('',*,*,#85,.T.);
#52=ORIENTED_EDGE('',*,*,#84,.F.);
#53=ORIENTED_EDGE('',*,*,#86,.F.);
#54=ORIENTED_EDGE('',*,*,#87,.F.);
#55=ORIENTED_EDGE('',*,*,#85,.F.);
#56=ORIENTED_EDGE('',*,*,#88,.T.);
#57=ORIENTED_EDGE('',*,*,#86,.T.);
#58=ORIENTED_EDGE('',*,*,#87,.T.);
#59=ORIENTED_EDGE('',*,*,#89,.T.);
#60=ORIENTED_EDGE('',*,*,#88,.F.);
#61=ORIENTED_EDGE('',*,*,#90,.T.);
#62=ORIENTED_EDGE('',*,*,#91,.T.);
#63=ORIENTED_EDGE('',*,*,#89,.F.);
#64=ORIENTED_EDGE('',*,*,#92,.T.);
#65=ORIENTED_EDGE('',*,*,#93,.T.);
#66=ORIENTED_EDGE('',*,*,#90,.F.);
#67=ORIENTED_EDGE('',*,*,#91,.F.);
#68=ORIENTED_EDGE('',*,*,#94,.T.);
#69=ORIENTED_EDGE('',*,*,#95,.T.);
#70=ORIENTED_EDGE('',*,*,#92,.F.);
#71=ORIENTED_EDGE('',*,*,#93,.F.);
#72=ORIENTED_EDGE('',*,*,#96,.T.);
#73=ORIENTED_EDGE('',*,*,#97,.T.);
#74=ORIENTED_EDGE('',*,*,#95,.F.);
#75=ORIENTED_EDGE('',*,*,#94,.F.);
#76=ORIENTED_EDGE('',*,*,#96,.F.);
#77=ORIENTED_EDGE('',*,*,#97,.F.);
#78=EDGE_CURVE('',#98,#98,#118,.F.);
#79=EDGE_CURVE('',#99,#99,#119,.T.);
#80=EDGE_CURVE('',#100,#101,#24,.F.);
#81=EDGE_CURVE('',#101,#100,#25,.F.);
#82=EDGE_CURVE('',#102,#103,#26,.F.);
#83=EDGE_CURVE('',#103,#102,#27,.F.);
#84=EDGE_CURVE('',#104,#104,#120,.F.);
#85=EDGE_CURVE('',#105,#105,#121,.T.);
#86=EDGE_CURVE('',#106,#106,#122,.T.);
#87=EDGE_CURVE('',#107,#107,#123,.F.);
#88=EDGE_CURVE('',#108,#108,#124,.T.);
#89=EDGE_CURVE('',#109,#109,#125,.F.);
#90=EDGE_CURVE('',#110,#110,#126,.F.);
#91=EDGE_CURVE('',#111,#111,#127,.T.);
#92=EDGE_CURVE('',#112,#113,#28,.T.);
#93=EDGE_CURVE('',#113,#112,#29,.T.);
#94=EDGE_CURVE('',#114,#115,#30,.T.);
#95=EDGE_CURVE('',#115,#114,#31,.T.);
#96=EDGE_CURVE('',#116,#116,#128,.F.);
#97=EDGE_CURVE('',#117,#117,#129,.T.);
#98=VERTEX_POINT('',#318);
#99=VERTEX_POINT('',#320);
#100=VERTEX_POINT('',#348);
#101=VERTEX_POINT('',#349);
#102=VERTEX_POINT('',#403);
#103=VERTEX_POINT('',#404);
#104=VERTEX_POINT('',#433);
#105=VERTEX_POINT('',#436);
#106=VERTEX_POINT('',#439);
#107=VERTEX_POINT('',#442);
#108=VERTEX_POINT('',#445);
#109=VERTEX_POINT('',#448);
#110=VERTEX_POINT('',#451);
#111=VERTEX_POINT('',#454);
#112=VERTEX_POINT('',#469);
#113=VERTEX_POINT('',#470);
#114=VERTEX_POINT('',#498);
#115=VERTEX_POINT('',#499);
#116=VERTEX_POINT('',#515);
#117=VERTEX_POINT('',#518);
#118=CIRCLE('',#230,0.008);
#119=CIRCLE('',#231,0.008);
#120=CIRCLE('',#235,0.00635);
#121=CIRCLE('',#237,0.00635);
#122=CIRCLE('',#239,0.00635);
#123=CIRCLE('',#241,0.00635);
#124=CIRCLE('',#243,0.00415);
#125=CIRCLE('',#245,0.00415);
#126=CIRCLE('',#247,0.00415);
#127=CIRCLE('',#249,0.00415);
#128=CIRCLE('',#253,0.0025);
#129=CIRCLE('',#255,0.0025);
#130=EDGE_LOOP('',(#38));
#131=EDGE_LOOP('',(#39));
#132=EDGE_LOOP('',(#40,#41));
#133=EDGE_LOOP('',(#42));
#134=EDGE_LOOP('',(#43));
#135=EDGE_LOOP('',(#44,#45));
#136=EDGE_LOOP('',(#46));
#137=EDGE_LOOP('',(#47,#48));
#138=EDGE_LOOP('',(#49,#50));
#139=EDGE_LOOP('',(#51));
#140=EDGE_LOOP('',(#52));
#141=EDGE_LOOP('',(#53));
#142=EDGE_LOOP('',(#54));
#143=EDGE_LOOP('',(#55));
#144=EDGE_LOOP('',(#56));
#145=EDGE_LOOP('',(#57));
#146=EDGE_LOOP('',(#58));
#147=EDGE_LOOP('',(#59));
#148=EDGE_LOOP('',(#60));
#149=EDGE_LOOP('',(#61));
#150=EDGE_LOOP('',(#62));
#151=EDGE_LOOP('',(#63));
#152=EDGE_LOOP('',(#64,#65));
#153=EDGE_LOOP('',(#66));
#154=EDGE_LOOP('',(#67));
#155=EDGE_LOOP('',(#68,#69));
#156=EDGE_LOOP('',(#70,#71));
#157=EDGE_LOOP('',(#72));
#158=EDGE_LOOP('',(#73));
#159=EDGE_LOOP('',(#74,#75));
#160=EDGE_LOOP('',(#76));
#161=EDGE_LOOP('',(#77));
#162=FACE_BOUND('',#130,.T.);
#163=FACE_BOUND('',#131,.T.);
#164=FACE_BOUND('',#132,.T.);
#165=FACE_BOUND('',#133,.T.);
#166=FACE_BOUND('',#134,.T.);
#167=FACE_BOUND('',#135,.T.);
#168=FACE_BOUND('',#136,.T.);
#169=FACE_BOUND('',#137,.T.);
#170=FACE_BOUND('',#138,.T.);
#171=FACE_BOUND('',#139,.T.);
#172=FACE_BOUND('',#140,.T.);
#173=FACE_BOUND('',#141,.T.);
#174=FACE_BOUND('',#142,.T.);
#175=FACE_BOUND('',#143,.T.);
#176=FACE_BOUND('',#144,.T.);
#177=FACE_BOUND('',#145,.T.);
#178=FACE_BOUND('',#146,.T.);
#179=FACE_BOUND('',#147,.T.);
#180=FACE_BOUND('',#148,.T.);
#181=FACE_BOUND('',#149,.T.);
#182=FACE_BOUND('',#150,.T.);
#183=FACE_BOUND('',#151,.T.);
#184=FACE_BOUND('',#152,.T.);
#185=FACE_BOUND('',#153,.T.);
#186=FACE_BOUND('',#154,.T.);
#187=FACE_BOUND('',#155,.T.);
#188=FACE_BOUND('',#156,.T.);
#189=FACE_BOUND('',#157,.T.);
#190=FACE_BOUND('',#158,.T.);
#191=FACE_BOUND('',#159,.T.);
#192=FACE_BOUND('',#160,.T.);
#193=FACE_BOUND('',#161,.T.);
#194=CYLINDRICAL_SURFACE('',#229,0.008);
#195=CYLINDRICAL_SURFACE('',#238,0.00635);
#196=CYLINDRICAL_SURFACE('',#240,0.00635);
#197=CYLINDRICAL_SURFACE('',#246,0.00415);
#198=CYLINDRICAL_SURFACE('',#248,0.00415);
#199=CYLINDRICAL_SURFACE('',#256,0.0025);
#200=ADVANCED_FACE('',(#162,#163),#194,.T.);
#201=ADVANCED_FACE('',(#164,#165),#32,.T.);
#202=ADVANCED_FACE('',(#166,#167),#33,.T.);
#203=ADVANCED_FACE('',(#168,#169),#20,.T.);
#204=ADVANCED_FACE('',(#170,#171),#21,.T.);
#205=ADVANCED_FACE('',(#172,#173),#195,.F.);
#206=ADVANCED_FACE('',(#174,#175),#196,.F.);
#207=ADVANCED_FACE('',(#176,#177),#34,.T.);
#208=ADVANCED_FACE('',(#178,#179),#35,.T.);
#209=ADVANCED_FACE('',(#180,#181),#197,.T.);
#210=ADVANCED_FACE('',(#182,#183),#198,.T.);
#211=ADVANCED_FACE('',(#184,#185),#22,.T.);
#212=ADVANCED_FACE('',(#186,#187),#23,.T.);
#213=ADVANCED_FACE('',(#188,#189),#36,.T.);
#214=ADVANCED_FACE('',(#190,#191),#37,.T.);
#215=ADVANCED_FACE('',(#192,#193),#199,.F.);
#216=CLOSED_SHELL('',(#200,#201,#202,#203,#204,#205,#206,#207,#208,#209,
#210,#211,#212,#213,#214,#215));
#217=STYLED_ITEM('',(#218),#225);
#218=PRESENTATION_STYLE_ASSIGNMENT((#219));
#219=SURFACE_STYLE_USAGE(.BOTH.,#220);
#220=SURFACE_SIDE_STYLE('',(#221));
#221=SURFACE_STYLE_FILL_AREA(#222);
#222=FILL_AREA_STYLE('',(#223));
#223=FILL_AREA_STYLE_COLOUR('',#224);
#224=COLOUR_RGB('',0.776470588235294,0.756862745098039,0.737254901960784);
#225=MANIFOLD_SOLID_BREP('Part 94',#216);
#226=SHAPE_DEFINITION_REPRESENTATION(#526,#227);
#227=SHAPE_REPRESENTATION('Part 94',(#228),#521);
#228=AXIS2_PLACEMENT_3D('',#315,#257,#258);
#229=AXIS2_PLACEMENT_3D('',#316,#259,#260);
#230=AXIS2_PLACEMENT_3D('',#317,#261,#262);
#231=AXIS2_PLACEMENT_3D('',#319,#263,#264);
#232=AXIS2_PLACEMENT_3D('',#321,#265,#266);
#233=AXIS2_PLACEMENT_3D('',#376,#267,#268);
#234=AXIS2_PLACEMENT_3D('',#431,#269,#270);
#235=AXIS2_PLACEMENT_3D('',#432,#271,#272);
#236=AXIS2_PLACEMENT_3D('',#434,#273,#274);
#237=AXIS2_PLACEMENT_3D('',#435,#275,#276);
#238=AXIS2_PLACEMENT_3D('',#437,#277,#278);
#239=AXIS2_PLACEMENT_3D('',#438,#279,#280);
#240=AXIS2_PLACEMENT_3D('',#440,#281,#282);
#241=AXIS2_PLACEMENT_3D('',#441,#283,#284);
#242=AXIS2_PLACEMENT_3D('',#443,#285,#286);
#243=AXIS2_PLACEMENT_3D('',#444,#287,#288);
#244=AXIS2_PLACEMENT_3D('',#446,#289,#290);
#245=AXIS2_PLACEMENT_3D('',#447,#291,#292);
#246=AXIS2_PLACEMENT_3D('',#449,#293,#294);
#247=AXIS2_PLACEMENT_3D('',#450,#295,#296);
#248=AXIS2_PLACEMENT_3D('',#452,#297,#298);
#249=AXIS2_PLACEMENT_3D('',#453,#299,#300);
#250=AXIS2_PLACEMENT_3D('',#455,#301,#302);
#251=AXIS2_PLACEMENT_3D('',#484,#303,#304);
#252=AXIS2_PLACEMENT_3D('',#513,#305,#306);
#253=AXIS2_PLACEMENT_3D('',#514,#307,#308);
#254=AXIS2_PLACEMENT_3D('',#516,#309,#310);
#255=AXIS2_PLACEMENT_3D('',#517,#311,#312);
#256=AXIS2_PLACEMENT_3D('',#519,#313,#314);
#257=DIRECTION('',(0.,0.,1.));
#258=DIRECTION('',(1.,0.,0.));
#259=DIRECTION('',(0.,0.,1.));
#260=DIRECTION('',(0.,1.,0.));
#261=DIRECTION('',(0.,0.,1.));
#262=DIRECTION('',(0.,1.,0.));
#263=DIRECTION('',(0.,0.,1.));
#264=DIRECTION('',(0.,1.,0.));
#265=DIRECTION('',(0.,0.,1.));
#266=DIRECTION('',(0.,1.,0.));
#267=DIRECTION('',(0.,0.,1.));
#268=DIRECTION('',(0.,1.,0.));
#269=DIRECTION('',(0.,0.,1.));
#270=DIRECTION('',(0.,1.,0.));
#271=DIRECTION('',(0.,0.,1.));
#272=DIRECTION('',(0.,1.,0.));
#273=DIRECTION('',(0.,0.,-1.));
#274=DIRECTION('',(0.,-1.,0.));
#275=DIRECTION('',(0.,0.,1.));
#276=DIRECTION('',(0.,1.,0.));
#277=DIRECTION('',(0.,0.,1.));
#278=DIRECTION('',(0.,1.,0.));
#279=DIRECTION('',(0.,0.,1.));
#280=DIRECTION('',(0.,1.,0.));
#281=DIRECTION('',(0.,0.,1.));
#282=DIRECTION('',(0.,1.,0.));
#283=DIRECTION('',(0.,0.,1.));
#284=DIRECTION('',(0.,1.,0.));
#285=DIRECTION('',(0.,0.,-1.));
#286=DIRECTION('',(0.,-1.,0.));
#287=DIRECTION('',(0.,0.,-1.));
#288=DIRECTION('',(0.,-1.,0.));
#289=DIRECTION('',(0.,0.,-1.));
#290=DIRECTION('',(0.,-1.,0.));
#291=DIRECTION('',(0.,0.,-1.));
#292=DIRECTION('',(0.,-1.,0.));
#293=DIRECTION('',(0.,0.,1.));
#294=DIRECTION('',(0.,1.,0.));
#295=DIRECTION('',(0.,0.,1.));
#296=DIRECTION('',(0.,1.,0.));
#297=DIRECTION('',(0.,0.,1.));
#298=DIRECTION('',(0.,1.,0.));
#299=DIRECTION('',(0.,0.,1.));
#300=DIRECTION('',(0.,1.,0.));
#301=DIRECTION('',(0.,0.,1.));
#302=DIRECTION('',(0.,1.,0.));
#303=DIRECTION('',(0.,0.,-1.));
#304=DIRECTION('',(0.,-1.,0.));
#305=DIRECTION('',(0.,0.,1.));
#306=DIRECTION('',(0.,1.,0.));
#307=DIRECTION('',(0.,0.,1.));
#308=DIRECTION('',(0.,1.,0.));
#309=DIRECTION('',(0.,0.,1.));
#310=DIRECTION('',(0.,1.,0.));
#311=DIRECTION('',(0.,0.,1.));
#312=DIRECTION('',(0.,1.,0.));
#313=DIRECTION('',(0.,0.,1.));
#314=DIRECTION('',(0.,1.,0.));
#315=CARTESIAN_POINT('',(0.,0.,0.));
#316=CARTESIAN_POINT('',(0.0130745766688371,0.0016230382107473,0.0464625));
#317=CARTESIAN_POINT('',(0.0130745766688371,0.0016230382107473,0.0693));
#318=CARTESIAN_POINT('',(0.0130745766688371,0.0096230382107473,0.0693));
#319=CARTESIAN_POINT('',(0.0130745766688371,0.0016230382107473,0.0649));
#320=CARTESIAN_POINT('',(0.0130745766688371,0.0096230382107473,0.0649));
#321=CARTESIAN_POINT('',(0.0130745766688371,0.0016230382107473,0.0693));
#322=CARTESIAN_POINT('',(0.013074576668837,-0.00607696178925271,0.0696));
#323=CARTESIAN_POINT('',(0.0135453686715419,-0.00607696178925271,0.0696));
#324=CARTESIAN_POINT('',(0.0142218435543882,-0.00601884559179341,0.0696));
#325=CARTESIAN_POINT('',(0.0152088810360708,-0.00578817612877442,0.0696));
#326=CARTESIAN_POINT('',(0.0161414305857597,-0.00547054441061213,0.0696));
#327=CARTESIAN_POINT('',(0.0173163085347607,-0.00486919527212011,0.0696));
#328=CARTESIAN_POINT('',(0.0185568614844134,-0.00386336802702696,0.0696));
#329=CARTESIAN_POINT('',(0.0194028426069242,-0.00281675854292681,0.0696));
#330=CARTESIAN_POINT('',(0.0199218373263157,-0.00192859168828126,0.0696));
#331=CARTESIAN_POINT('',(0.0202492310709487,-0.00120627957093588,0.0696));
#332=CARTESIAN_POINT('',(0.0204849179119963,-0.000514036345250011,0.0696));
#333=CARTESIAN_POINT('',(0.0206597475737114,0.000232667267495475,0.0696));
#334=CARTESIAN_POINT('',(0.0207522598270262,0.000914903518310773,0.0696));
#335=CARTESIAN_POINT('',(0.020785704053656,0.00162332161416542,0.0696));
#336=CARTESIAN_POINT('',(0.0207523839713719,0.0023300392895113,0.0696));
#337=CARTESIAN_POINT('',(0.0206595429429928,0.00301419922699563,0.0696));
#338=CARTESIAN_POINT('',(0.0204856122905252,0.00375808608843104,0.0696));
#339=CARTESIAN_POINT('',(0.0201681722414235,0.00468949922145214,0.0696));
#340=CARTESIAN_POINT('',(0.0195675871798287,0.00586458868038132,0.0696));
#341=CARTESIAN_POINT('',(0.0185580146582665,0.00710648381968577,0.0696));
#342=CARTESIAN_POINT('',(0.0173161474909459,0.00811603859617789,0.0696));
#343=CARTESIAN_POINT('',(0.016140979579629,0.00871665949801978,0.0696));
#344=CARTESIAN_POINT('',(0.0152097250558691,0.00903402957111287,0.0696));
#345=CARTESIAN_POINT('',(0.0142212660344134,0.00926505580078168,0.0696));
#346=CARTESIAN_POINT('',(0.0135457242120211,0.0093230382107473,0.0696));
#347=CARTESIAN_POINT('',(0.013074576668837,0.0093230382107473,0.0696));
#348=CARTESIAN_POINT('',(0.0130745766688371,0.0093230382107473,0.0696));
#349=CARTESIAN_POINT('',(0.013074576668837,-0.00607696178925271,0.0696));
#350=CARTESIAN_POINT('',(0.013074576668837,0.0093230382107473,0.0696));
#351=CARTESIAN_POINT('',(0.0126037846661323,0.0093230382107473,0.0696));
#352=CARTESIAN_POINT('',(0.0119273097832876,0.0092649220132883,0.0696));
#353=CARTESIAN_POINT('',(0.0109402723016006,0.00903425255026851,0.0696));
#354=CARTESIAN_POINT('',(0.010007722751916,0.00871662083210708,0.0696));
#355=CARTESIAN_POINT('',(0.00883284480291255,0.00811527169361402,0.0696));
#356=CARTESIAN_POINT('',(0.00759229185326183,0.00710944444852372,0.0696));
#357=CARTESIAN_POINT('',(0.00674631073074692,0.00606283496441513,0.0696));
#358=CARTESIAN_POINT('',(0.00622731601136348,0.00517466810978671,0.0696));
#359=CARTESIAN_POINT('',(0.00589992226672386,0.00445235599242631,0.0696));
#360=CARTESIAN_POINT('',(0.0056642354256791,0.00376011276675037,0.0696));
#361=CARTESIAN_POINT('',(0.0054894057639618,0.00301340915399407,0.0696));
#362=CARTESIAN_POINT('',(0.00539689351065028,0.0023311729031982,0.0696));
#363=CARTESIAN_POINT('',(0.005363449284018,0.00162275480732394,0.0696));
#364=CARTESIAN_POINT('',(0.00539676936630001,0.000916037131989831,0.0696));
#365=CARTESIAN_POINT('',(0.00548961039468143,0.00023187719449802,0.0696));
#366=CARTESIAN_POINT('',(0.00566354104715083,-0.000512009666939225,0.0696));
#367=CARTESIAN_POINT('',(0.00598098109624947,-0.00144342279995594,0.0696));
#368=CARTESIAN_POINT('',(0.00658156615784559,-0.00261851225888726,0.0696));
#369=CARTESIAN_POINT('',(0.00759113867940797,-0.00386040739819112,0.0696));
#370=CARTESIAN_POINT('',(0.00883300584672634,-0.00486996217468302,0.0696));
#371=CARTESIAN_POINT('',(0.0100081737580506,-0.00547058307652614,0.0696));
#372=CARTESIAN_POINT('',(0.0109394282817956,-0.00578795314961663,0.0696));
#373=CARTESIAN_POINT('',(0.0119278873032663,-0.00601897937928809,0.0696));
#374=CARTESIAN_POINT('',(0.0126034291256534,-0.00607696178925271,0.0696));
#375=CARTESIAN_POINT('',(0.013074576668837,-0.00607696178925271,0.0696));
#376=CARTESIAN_POINT('',(0.0130745766688371,0.0016230382107473,0.0649));
#377=CARTESIAN_POINT('',(0.013074576668837,-0.00607696178925271,0.0646));
#378=CARTESIAN_POINT('',(0.0126037846661322,-0.00607696178925271,0.0646));
#379=CARTESIAN_POINT('',(0.0119273097832842,-0.00601884559179308,0.0646));
#380=CARTESIAN_POINT('',(0.0109402723016063,-0.00578817612877497,0.0646));
#381=CARTESIAN_POINT('',(0.0100077227519127,-0.00547054441061185,0.0646));
#382=CARTESIAN_POINT('',(0.00883284480291376,-0.00486919527211986,0.0646));
#383=CARTESIAN_POINT('',(0.00759229185326123,-0.00386336802702828,0.0646));
#384=CARTESIAN_POINT('',(0.00674631073074782,-0.00281675854292287,0.0646));
#385=CARTESIAN_POINT('',(0.00622731601136198,-0.00192859168828809,0.0646));
#386=CARTESIAN_POINT('',(0.00589992226672425,-0.00120627957093269,0.0646));
#387=CARTESIAN_POINT('',(0.00566423542567904,-0.000514036345255887,0.0646));
#388=CARTESIAN_POINT('',(0.00548940576396181,0.000232667267500578,0.0646));
#389=CARTESIAN_POINT('',(0.00539689351065027,0.000914903518296261,0.0646));
#390=CARTESIAN_POINT('',(0.00536344928401804,0.00162332161417154,0.0646));
#391=CARTESIAN_POINT('',(0.00539676936629986,0.00233003928950135,0.0646));
#392=CARTESIAN_POINT('',(0.00548961039468198,0.00301419922699951,0.0646));
#393=CARTESIAN_POINT('',(0.00566354104714879,0.00375808608842549,0.0646));
#394=CARTESIAN_POINT('',(0.00598098109625066,0.00468949922145535,0.0646));
#395=CARTESIAN_POINT('',(0.00658156615784517,0.00586458868038019,0.0646));
#396=CARTESIAN_POINT('',(0.00759113867940817,0.00710648381968623,0.0646));
#397=CARTESIAN_POINT('',(0.00883300584672596,0.0081160385961772,0.0646));
#398=CARTESIAN_POINT('',(0.0100081737580516,0.0087166594980216,0.0646));
#399=CARTESIAN_POINT('',(0.0109394282817938,0.00903402957110973,0.0646));
#400=CARTESIAN_POINT('',(0.0119278873032684,0.00926505580078357,0.0646));
#401=CARTESIAN_POINT('',(0.0126034291256485,0.0093230382107473,0.0646));
#402=CARTESIAN_POINT('',(0.013074576668837,0.0093230382107473,0.0646));
#403=CARTESIAN_POINT('',(0.0130745766688371,0.0093230382107473,0.0646));
#404=CARTESIAN_POINT('',(0.013074576668837,-0.00607696178925271,0.0646));
#405=CARTESIAN_POINT('',(0.013074576668837,0.0093230382107473,0.0646));
#406=CARTESIAN_POINT('',(0.0135453686715415,0.0093230382107473,0.0646));
#407=CARTESIAN_POINT('',(0.0142218435543814,0.00926492201328921,0.0646));
#408=CARTESIAN_POINT('',(0.0152088810360822,0.009034252550267,0.0646));
#409=CARTESIAN_POINT('',(0.0161414305857532,0.00871662083210788,0.0646));
#410=CARTESIAN_POINT('',(0.017316308534763,0.00811527169361435,0.0646));
#411=CARTESIAN_POINT('',(0.0185568614844129,0.0071094444485215,0.0646));
#412=CARTESIAN_POINT('',(0.0194028426069241,0.00606283496442187,0.0646));
#413=CARTESIAN_POINT('',(0.0199218373263161,0.00517466810977502,0.0646));
#414=CARTESIAN_POINT('',(0.0202492310709481,0.00445235599243211,0.0646));
#415=CARTESIAN_POINT('',(0.0204849179119983,0.00376011276673887,0.0646));
#416=CARTESIAN_POINT('',(0.0206597475737108,0.00301340915400193,0.0646));
#417=CARTESIAN_POINT('',(0.0207522598270264,0.00233117290317827,0.0646));
#418=CARTESIAN_POINT('',(0.020785704053656,0.00162275480733064,0.0646));
#419=CARTESIAN_POINT('',(0.020752383971372,0.000916037131982949,0.0646));
#420=CARTESIAN_POINT('',(0.0206595429429925,0.000231877194497972,0.0646));
#421=CARTESIAN_POINT('',(0.020485612290526,-0.000512009666932176,0.0646));
#422=CARTESIAN_POINT('',(0.0201681722414231,-0.00144342279996002,0.0646));
#423=CARTESIAN_POINT('',(0.019567587179829,-0.00261851225888587,0.0646));
#424=CARTESIAN_POINT('',(0.018558014658266,-0.0038604073981915,0.0646));
#425=CARTESIAN_POINT('',(0.0173161474909479,-0.00486996217468288,0.0646));
#426=CARTESIAN_POINT('',(0.0161409795796233,-0.00547058307652625,0.0646));
#427=CARTESIAN_POINT('',(0.015209725055879,-0.00578795314961645,0.0646));
#428=CARTESIAN_POINT('',(0.0142212660344074,-0.00601897937928819,0.0646));
#429=CARTESIAN_POINT('',(0.0135457242120211,-0.00607696178925271,0.0646));
#430=CARTESIAN_POINT('',(0.013074576668837,-0.00607696178925271,0.0646));
#431=CARTESIAN_POINT('',(0.00537457666883705,0.0016230382107473,0.0696));
#432=CARTESIAN_POINT('',(0.0130745766688371,0.0016230382107473,0.0696));
#433=CARTESIAN_POINT('',(0.0130745766688371,0.00797303821074729,0.0696));
#434=CARTESIAN_POINT('',(0.00672457666883705,0.0016230382107473,0.0646));
#435=CARTESIAN_POINT('',(0.0130745766688371,0.0016230382107473,0.0646));
#436=CARTESIAN_POINT('',(0.0130745766688371,0.00797303821074729,0.0646));
#437=CARTESIAN_POINT('',(0.0130745766688371,0.0016230382107473,0.0464625));
#438=CARTESIAN_POINT('',(0.0130745766688371,0.0016230382107473,0.0683298373876249));
#439=CARTESIAN_POINT('',(0.0130745766688371,0.00797303821074729,0.0683298373876249));
#440=CARTESIAN_POINT('',(0.0130745766688371,0.0016230382107473,0.0464625));
#441=CARTESIAN_POINT('',(0.0130745766688371,0.0016230382107473,0.0658701626123751));
#442=CARTESIAN_POINT('',(0.0130745766688371,0.00797303821074729,0.0658701626123751));
#443=CARTESIAN_POINT('',(0.0130745766688371,0.0016230382107473,0.0671));
#444=CARTESIAN_POINT('',(0.0130745766688371,0.0016230382107473,0.0683298373876249));
#445=CARTESIAN_POINT('',(0.0130745766688371,-0.00252696178925271,0.0683298373876249));
#446=CARTESIAN_POINT('',(0.0130745766688371,0.0016230382107473,0.0671));
#447=CARTESIAN_POINT('',(0.0130745766688371,0.0016230382107473,0.0658701626123751));
#448=CARTESIAN_POINT('',(0.0130745766688371,-0.00252696178925271,0.0658701626123751));
#449=CARTESIAN_POINT('',(0.0130745766688371,0.0016230382107473,0.0464625));
#450=CARTESIAN_POINT('',(0.0130745766688371,0.0016230382107473,0.0696));
#451=CARTESIAN_POINT('',(0.0130745766688371,0.00577303821074729,0.0696));
#452=CARTESIAN_POINT('',(0.0130745766688371,0.0016230382107473,0.0464625));
#453=CARTESIAN_POINT('',(0.0130745766688371,0.0016230382107473,0.0646));
#454=CARTESIAN_POINT('',(0.0130745766688371,0.00577303821074729,0.0646));
#455=CARTESIAN_POINT('',(0.010274576668837,0.0016230382107473,0.0696));
#456=CARTESIAN_POINT('',(0.013074576668837,-0.0011769617892527,0.0696));
#457=CARTESIAN_POINT('',(0.0127187004535459,-0.0011769617892527,0.0696));
#458=CARTESIAN_POINT('',(0.0122210535331116,-0.0010891085560218,0.0696));
#459=CARTESIAN_POINT('',(0.0115237450731567,-0.000733605573561962,0.0696));
#460=CARTESIAN_POINT('',(0.0109343731465747,-0.00025253735291871,0.0696));
#461=CARTESIAN_POINT('',(0.0103920815377647,0.000587952395452604,0.0696));
#462=CARTESIAN_POINT('',(0.0102158589357778,0.00162306386462686,0.0696));
#463=CARTESIAN_POINT('',(0.0103919427321463,0.00265802141052372,0.0696));
#464=CARTESIAN_POINT('',(0.0109348126976998,0.00349889596708854,0.0696));
#465=CARTESIAN_POINT('',(0.0115229816422552,0.00397919457134477,0.0696));
#466=CARTESIAN_POINT('',(0.0122215829405006,0.00433547743174346,0.0696));
#467=CARTESIAN_POINT('',(0.0127183437093054,0.0044230382107473,0.0696));
#468=CARTESIAN_POINT('',(0.013074576668837,0.0044230382107473,0.0696));
#469=CARTESIAN_POINT('',(0.0130745766688371,-0.0011769617892527,0.0696));
#470=CARTESIAN_POINT('',(0.0130745766688371,0.00442303821074729,0.0696));
#471=CARTESIAN_POINT('',(0.013074576668837,0.0044230382107473,0.0696));
#472=CARTESIAN_POINT('',(0.0134304528841283,0.0044230382107473,0.0696));
#473=CARTESIAN_POINT('',(0.0139280998045619,0.00433518497751662,0.0696));
#474=CARTESIAN_POINT('',(0.0146254082645182,0.00397968199505617,0.0696));
#475=CARTESIAN_POINT('',(0.0152147801910989,0.00349861377441352,0.0696));
#476=CARTESIAN_POINT('',(0.0157570717999095,0.00265812402604192,0.0696));
#477=CARTESIAN_POINT('',(0.0159332944018962,0.00162301255686773,0.0696));
#478=CARTESIAN_POINT('',(0.0157572106055279,0.000588055010970932,0.0696));
#479=CARTESIAN_POINT('',(0.015214340639974,-0.000252819545594148,0.0696));
#480=CARTESIAN_POINT('',(0.0146261716954194,-0.00073311814984984,0.0696));
#481=CARTESIAN_POINT('',(0.0139275703971731,-0.00108940101024907,0.0696));
#482=CARTESIAN_POINT('',(0.0134308096283689,-0.0011769617892527,0.0696));
#483=CARTESIAN_POINT('',(0.013074576668837,-0.0011769617892527,0.0696));
#484=CARTESIAN_POINT('',(0.00892457666883705,0.0016230382107473,0.0646));
#485=CARTESIAN_POINT('',(0.013074576668837,0.0044230382107473,0.0646));
#486=CARTESIAN_POINT('',(0.0127187004535466,0.0044230382107473,0.0646));
#487=CARTESIAN_POINT('',(0.0122210535331111,0.00433518497751602,0.0646));
#488=CARTESIAN_POINT('',(0.0115237450731573,0.00397968199505717,0.0646));
#489=CARTESIAN_POINT('',(0.0109343731465744,0.00349861377441294,0.0646));
#490=CARTESIAN_POINT('',(0.0103920815377649,0.0026581240260421,0.0646));
#491=CARTESIAN_POINT('',(0.0102158589357778,0.00162301255686771,0.0646));
#492=CARTESIAN_POINT('',(0.0103919427321464,0.000588055010970834,0.0646));
#493=CARTESIAN_POINT('',(0.0109348126976996,-0.00025281954559381,0.0646));
#494=CARTESIAN_POINT('',(0.0115229816422557,-0.000733118149850428,0.0646));
#495=CARTESIAN_POINT('',(0.0122215829405003,-0.00108940101024872,0.0646));
#496=CARTESIAN_POINT('',(0.0127183437093056,-0.0011769617892527,0.0646));
#497=CARTESIAN_POINT('',(0.013074576668837,-0.0011769617892527,0.0646));
#498=CARTESIAN_POINT('',(0.0130745766688371,0.00442303821074729,0.0646));
#499=CARTESIAN_POINT('',(0.0130745766688371,-0.0011769617892527,0.0646));
#500=CARTESIAN_POINT('',(0.013074576668837,-0.0011769617892527,0.0646));
#501=CARTESIAN_POINT('',(0.0134304528841277,-0.0011769617892527,0.0646));
#502=CARTESIAN_POINT('',(0.0139280998045628,-0.00108910855602152,0.0646));
#503=CARTESIAN_POINT('',(0.0146254082645169,-0.000733605573562426,0.0646));
#504=CARTESIAN_POINT('',(0.0152147801910996,-0.000252537352918442,0.0646));
#505=CARTESIAN_POINT('',(0.0157570717999093,0.000587952395452516,0.0646));
#506=CARTESIAN_POINT('',(0.0159332944018963,0.00162306386462686,0.0646));
#507=CARTESIAN_POINT('',(0.0157572106055278,0.0026580214105238,0.0646));
#508=CARTESIAN_POINT('',(0.0152143406399744,0.00349889596708828,0.0646));
#509=CARTESIAN_POINT('',(0.0146261716954186,0.00397919457134523,0.0646));
#510=CARTESIAN_POINT('',(0.0139275703971738,0.00433547743174318,0.0646));
#511=CARTESIAN_POINT('',(0.013430809628368,0.0044230382107473,0.0646));
#512=CARTESIAN_POINT('',(0.013074576668837,0.0044230382107473,0.0646));
#513=CARTESIAN_POINT('',(0.0130745766688371,0.0016230382107473,0.0693));
#514=CARTESIAN_POINT('',(0.0130745766688371,0.0016230382107473,0.0693));
#515=CARTESIAN_POINT('',(0.0130745766688371,0.0041230382107473,0.0693));
#516=CARTESIAN_POINT('',(0.0130745766688371,0.0016230382107473,0.0649));
#517=CARTESIAN_POINT('',(0.0130745766688371,0.0016230382107473,0.0649));
#518=CARTESIAN_POINT('',(0.0130745766688371,0.0041230382107473,0.0649));
#519=CARTESIAN_POINT('',(0.0130745766688371,0.0016230382107473,0.0464625));
#520=MECHANICAL_DESIGN_GEOMETRIC_PRESENTATION_REPRESENTATION('',(#217),
#521);
#521=(
GEOMETRIC_REPRESENTATION_CONTEXT(3)
GLOBAL_UNCERTAINTY_ASSIGNED_CONTEXT((#522))
GLOBAL_UNIT_ASSIGNED_CONTEXT((#525,#524,#523))
REPRESENTATION_CONTEXT('Part 94','TOP_LEVEL_ASSEMBLY_PART')
);
#522=UNCERTAINTY_MEASURE_WITH_UNIT(LENGTH_MEASURE(2.E-5),#525,
'DISTANCE_ACCURACY_VALUE','Maximum Tolerance applied to model');
#523=(
NAMED_UNIT(*)
SI_UNIT($,.STERADIAN.)
SOLID_ANGLE_UNIT()
);
#524=(
NAMED_UNIT(*)
PLANE_ANGLE_UNIT()
SI_UNIT($,.RADIAN.)
);
#525=(
LENGTH_UNIT()
NAMED_UNIT(*)
SI_UNIT($,.METRE.)
);
#526=PRODUCT_DEFINITION_SHAPE('','',#527);
#527=PRODUCT_DEFINITION('','',#529,#528);
#528=PRODUCT_DEFINITION_CONTEXT('',#535,'design');
#529=PRODUCT_DEFINITION_FORMATION_WITH_SPECIFIED_SOURCE('','',#531,
 .NOT_KNOWN.);
#530=PRODUCT_RELATED_PRODUCT_CATEGORY('','',(#531));
#531=PRODUCT('Part 94','Part 94','Part 94',(#533));
#532=PRODUCT_CATEGORY('','');
#533=PRODUCT_CONTEXT('',#535,'mechanical');
#534=APPLICATION_PROTOCOL_DEFINITION('international standard',
'automotive_design',2010,#535);
#535=APPLICATION_CONTEXT(
'core data for automotive mechanical design processes');
ENDSEC;
END-ISO-10303-21;
