ISO-10303-21;
HEADER;
/* Generated by software containing ST-Developer
 * from STEP Tools, Inc. (www.steptools.com) 
 */
/* OPTION: using custom renumber hook */

FILE_DESCRIPTION(
/* description */ ('STEP AP214',
'CAx-IF Rec.Pracs.---User Defined Attributes---1.5---2016-08-15'),
/* implementation_level */ '2;1');

FILE_NAME(
/* name */ '6a65b58b833ca6ec4e163c82',
/* time_stamp */ '2026-07-26T07:21:47Z',
/* author */ (''),
/* organization */ (''),
/* preprocessor_version */ 'ST-DEVELOPER v20',
/* originating_system */ 'ONSHAPE BY PTC INC, 1.218',
/* authorisation */ '  ');

FILE_SCHEMA (('AUTOMOTIVE_DESIGN {1 0 10303 214 3 1 1}'));
ENDSEC;

DATA;
#10=PROPERTY_DEFINITION_REPRESENTATION(#14,#12);
#11=PROPERTY_DEFINITION_REPRESENTATION(#15,#13);
#12=REPRESENTATION('',(#16),#969);
#13=REPRESENTATION('',(#17),#969);
#14=PROPERTY_DEFINITION('pmi validation property','',#974);
#15=PROPERTY_DEFINITION('pmi validation property','',#974);
#16=VALUE_REPRESENTATION_ITEM('number of annotations',COUNT_MEASURE(0.));
#17=VALUE_REPRESENTATION_ITEM('number of views',COUNT_MEASURE(0.));
#18=SHAPE_REPRESENTATION_RELATIONSHIP('','',#557,#19);
#19=ADVANCED_BREP_SHAPE_REPRESENTATION('',(#555),#969);
#20=VERTEX_LOOP('',#386);
#21=B_SPLINE_CURVE_WITH_KNOTS('',3,(#851,#852,#853,#854),.UNSPECIFIED.,
 .F.,.F.,(4,4),(2.50665385119716E-16,0.00201762223411752),.UNSPECIFIED.);
#22=B_SPLINE_CURVE_WITH_KNOTS('',3,(#858,#859,#860,#861),.UNSPECIFIED.,
 .F.,.F.,(4,4),(5.35383599664594E-15,0.0020176206355798),.UNSPECIFIED.);
#23=B_SPLINE_CURVE_WITH_KNOTS('',3,(#869,#870,#871,#872),.UNSPECIFIED.,
 .F.,.F.,(4,4),(2.74496223093086E-15,0.00201762063557719),.UNSPECIFIED.);
#24=B_SPLINE_CURVE_WITH_KNOTS('',3,(#878,#879,#880,#881),.UNSPECIFIED.,
 .F.,.F.,(4,4),(0.,0.00201762223411777),.UNSPECIFIED.);
#25=B_SPLINE_CURVE_WITH_KNOTS('',3,(#944,#945,#946,#947),.UNSPECIFIED.,
 .F.,.F.,(4,4),(2.50648408568886E-16,0.00201762223411753),.UNSPECIFIED.);
#26=B_SPLINE_CURVE_WITH_KNOTS('',3,(#949,#950,#951,#952),.UNSPECIFIED.,
 .F.,.F.,(4,4),(5.35390216318313E-15,0.0020176206355798),.UNSPECIFIED.);
#27=B_SPLINE_CURVE_WITH_KNOTS('',3,(#954,#955,#956,#957),.UNSPECIFIED.,
 .F.,.F.,(4,4),(2.74484981642033E-15,0.00201762063557719),.UNSPECIFIED.);
#28=B_SPLINE_CURVE_WITH_KNOTS('',3,(#959,#960,#961,#962),.UNSPECIFIED.,
 .F.,.F.,(4,4),(0.,0.00201762223411777),.UNSPECIFIED.);
#29=ELLIPSE('',#575,0.00111145965246917,0.00049102902835542);
#30=ELLIPSE('',#603,0.00111145965247233,0.000491029028357085);
#31=ELLIPSE('',#607,0.00111145965247233,0.000491029028357085);
#32=ELLIPSE('',#611,0.00111145965247233,0.000491029028357085);
#33=LINE('',#806,#69);
#34=LINE('',#809,#70);
#35=LINE('',#811,#71);
#36=LINE('',#815,#72);
#37=LINE('',#817,#73);
#38=LINE('',#819,#74);
#39=LINE('',#823,#75);
#40=LINE('',#825,#76);
#41=LINE('',#827,#77);
#42=LINE('',#831,#78);
#43=LINE('',#833,#79);
#44=LINE('',#835,#80);
#45=LINE('',#839,#81);
#46=LINE('',#841,#82);
#47=LINE('',#845,#83);
#48=LINE('',#847,#84);
#49=LINE('',#849,#85);
#50=LINE('',#856,#86);
#51=LINE('',#906,#87);
#52=LINE('',#908,#88);
#53=LINE('',#910,#89);
#54=LINE('',#912,#90);
#55=LINE('',#916,#91);
#56=LINE('',#918,#92);
#57=LINE('',#920,#93);
#58=LINE('',#922,#94);
#59=LINE('',#926,#95);
#60=LINE('',#928,#96);
#61=LINE('',#932,#97);
#62=LINE('',#934,#98);
#63=LINE('',#936,#99);
#64=LINE('',#938,#100);
#65=LINE('',#940,#101);
#66=LINE('',#942,#102);
#67=LINE('',#964,#103);
#68=LINE('',#966,#104);
#69=VECTOR('',#647,1.);
#70=VECTOR('',#648,1.);
#71=VECTOR('',#649,1.);
#72=VECTOR('',#652,1.);
#73=VECTOR('',#653,1.);
#74=VECTOR('',#654,1.);
#75=VECTOR('',#657,1.);
#76=VECTOR('',#658,1.);
#77=VECTOR('',#659,1.);
#78=VECTOR('',#662,1.);
#79=VECTOR('',#663,1.);
#80=VECTOR('',#664,1.);
#81=VECTOR('',#669,1.);
#82=VECTOR('',#670,1.);
#83=VECTOR('',#673,1.);
#84=VECTOR('',#674,1.);
#85=VECTOR('',#677,1.);
#86=VECTOR('',#680,1.);
#87=VECTOR('',#727,1.);
#88=VECTOR('',#728,1.);
#89=VECTOR('',#731,1.);
#90=VECTOR('',#732,1.);
#91=VECTOR('',#739,1.);
#92=VECTOR('',#740,1.);
#93=VECTOR('',#743,1.);
#94=VECTOR('',#744,1.);
#95=VECTOR('',#751,1.);
#96=VECTOR('',#754,1.);
#97=VECTOR('',#761,1.);
#98=VECTOR('',#762,1.);
#99=VECTOR('',#765,1.);
#100=VECTOR('',#766,1.);
#101=VECTOR('',#769,1.);
#102=VECTOR('',#772,1.);
#103=VECTOR('',#783,1.);
#104=VECTOR('',#786,1.);
#105=CONICAL_SURFACE('',#565,0.0027500000001055,0.785398163425431);
#106=CONICAL_SURFACE('',#580,0.000565542809887631,0.0698131700724595);
#107=CONICAL_SURFACE('',#584,0.000696552892009095,0.0698131700800835);
#108=CONICAL_SURFACE('',#586,0.000696552892009095,0.0698131700800835);
#109=CONICAL_SURFACE('',#588,0.000555999999999113,1.25663706143445);
#110=CONICAL_SURFACE('',#602,0.000565543291642712,0.0698131700705501);
#111=CONICAL_SURFACE('',#606,0.000565543291642712,0.0698131700705501);
#112=CONICAL_SURFACE('',#610,0.000565543291642712,0.0698131700705501);
#113=CONICAL_SURFACE('',#618,0.000696552892009095,0.0698131700800835);
#114=CONICAL_SURFACE('',#619,0.000696552892009095,0.0698131700800835);
#115=PLANE('',#564);
#116=PLANE('',#569);
#117=PLANE('',#574);
#118=PLANE('',#576);
#119=PLANE('',#577);
#120=PLANE('',#578);
#121=PLANE('',#582);
#122=PLANE('',#600);
#123=PLANE('',#601);
#124=PLANE('',#604);
#125=PLANE('',#605);
#126=PLANE('',#608);
#127=PLANE('',#609);
#128=PLANE('',#612);
#129=PLANE('',#613);
#130=PLANE('',#614);
#131=PLANE('',#615);
#132=PLANE('',#616);
#133=PLANE('',#617);
#134=PLANE('',#620);
#135=PLANE('',#621);
#136=PLANE('',#622);
#137=TOROIDAL_SURFACE('',#562,0.00229999999999999,0.0008);
#138=ORIENTED_EDGE('',*,*,#284,.T.);
#139=ORIENTED_EDGE('',*,*,#285,.T.);
#140=ORIENTED_EDGE('',*,*,#286,.F.);
#141=ORIENTED_EDGE('',*,*,#285,.F.);
#142=ORIENTED_EDGE('',*,*,#284,.F.);
#143=ORIENTED_EDGE('',*,*,#287,.T.);
#144=ORIENTED_EDGE('',*,*,#286,.T.);
#145=ORIENTED_EDGE('',*,*,#288,.T.);
#146=ORIENTED_EDGE('',*,*,#287,.F.);
#147=ORIENTED_EDGE('',*,*,#289,.F.);
#148=ORIENTED_EDGE('',*,*,#290,.T.);
#149=ORIENTED_EDGE('',*,*,#291,.F.);
#150=ORIENTED_EDGE('',*,*,#292,.T.);
#151=ORIENTED_EDGE('',*,*,#293,.F.);
#152=ORIENTED_EDGE('',*,*,#294,.F.);
#153=ORIENTED_EDGE('',*,*,#295,.F.);
#154=ORIENTED_EDGE('',*,*,#296,.T.);
#155=ORIENTED_EDGE('',*,*,#297,.F.);
#156=ORIENTED_EDGE('',*,*,#298,.F.);
#157=ORIENTED_EDGE('',*,*,#299,.F.);
#158=ORIENTED_EDGE('',*,*,#300,.T.);
#159=ORIENTED_EDGE('',*,*,#301,.F.);
#160=ORIENTED_EDGE('',*,*,#302,.F.);
#161=ORIENTED_EDGE('',*,*,#303,.F.);
#162=ORIENTED_EDGE('',*,*,#304,.T.);
#163=ORIENTED_EDGE('',*,*,#288,.F.);
#164=ORIENTED_EDGE('',*,*,#290,.F.);
#165=ORIENTED_EDGE('',*,*,#305,.T.);
#166=ORIENTED_EDGE('',*,*,#306,.T.);
#167=ORIENTED_EDGE('',*,*,#307,.T.);
#168=ORIENTED_EDGE('',*,*,#308,.T.);
#169=ORIENTED_EDGE('',*,*,#309,.T.);
#170=ORIENTED_EDGE('',*,*,#310,.T.);
#171=ORIENTED_EDGE('',*,*,#305,.F.);
#172=ORIENTED_EDGE('',*,*,#289,.T.);
#173=ORIENTED_EDGE('',*,*,#311,.T.);
#174=ORIENTED_EDGE('',*,*,#291,.T.);
#175=ORIENTED_EDGE('',*,*,#309,.F.);
#176=ORIENTED_EDGE('',*,*,#312,.T.);
#177=ORIENTED_EDGE('',*,*,#313,.T.);
#178=ORIENTED_EDGE('',*,*,#312,.F.);
#179=ORIENTED_EDGE('',*,*,#308,.F.);
#180=ORIENTED_EDGE('',*,*,#314,.F.);
#181=ORIENTED_EDGE('',*,*,#315,.F.);
#182=ORIENTED_EDGE('',*,*,#307,.F.);
#183=ORIENTED_EDGE('',*,*,#306,.F.);
#184=ORIENTED_EDGE('',*,*,#310,.F.);
#185=ORIENTED_EDGE('',*,*,#316,.F.);
#186=ORIENTED_EDGE('',*,*,#311,.F.);
#187=ORIENTED_EDGE('',*,*,#304,.F.);
#188=ORIENTED_EDGE('',*,*,#317,.F.);
#189=ORIENTED_EDGE('',*,*,#318,.F.);
#190=ORIENTED_EDGE('',*,*,#313,.F.);
#191=ORIENTED_EDGE('',*,*,#319,.F.);
#192=ORIENTED_EDGE('',*,*,#320,.F.);
#193=ORIENTED_EDGE('',*,*,#292,.F.);
#194=ORIENTED_EDGE('',*,*,#321,.F.);
#195=ORIENTED_EDGE('',*,*,#322,.F.);
#196=ORIENTED_EDGE('',*,*,#323,.F.);
#197=ORIENTED_EDGE('',*,*,#324,.T.);
#198=ORIENTED_EDGE('',*,*,#325,.F.);
#199=ORIENTED_EDGE('',*,*,#326,.F.);
#200=ORIENTED_EDGE('',*,*,#327,.F.);
#201=ORIENTED_EDGE('',*,*,#319,.T.);
#202=ORIENTED_EDGE('',*,*,#314,.T.);
#203=ORIENTED_EDGE('',*,*,#315,.T.);
#204=ORIENTED_EDGE('',*,*,#316,.T.);
#205=ORIENTED_EDGE('',*,*,#318,.T.);
#206=ORIENTED_EDGE('',*,*,#328,.F.);
#207=ORIENTED_EDGE('',*,*,#329,.F.);
#208=ORIENTED_EDGE('',*,*,#330,.F.);
#209=ORIENTED_EDGE('',*,*,#331,.T.);
#210=ORIENTED_EDGE('',*,*,#303,.T.);
#211=ORIENTED_EDGE('',*,*,#332,.T.);
#212=ORIENTED_EDGE('',*,*,#333,.T.);
#213=ORIENTED_EDGE('',*,*,#317,.T.);
#214=ORIENTED_EDGE('',*,*,#334,.T.);
#215=ORIENTED_EDGE('',*,*,#335,.T.);
#216=ORIENTED_EDGE('',*,*,#293,.T.);
#217=ORIENTED_EDGE('',*,*,#320,.T.);
#218=ORIENTED_EDGE('',*,*,#336,.F.);
#219=ORIENTED_EDGE('',*,*,#322,.T.);
#220=ORIENTED_EDGE('',*,*,#337,.F.);
#221=ORIENTED_EDGE('',*,*,#338,.F.);
#222=ORIENTED_EDGE('',*,*,#323,.T.);
#223=ORIENTED_EDGE('',*,*,#339,.F.);
#224=ORIENTED_EDGE('',*,*,#340,.F.);
#225=ORIENTED_EDGE('',*,*,#325,.T.);
#226=ORIENTED_EDGE('',*,*,#341,.F.);
#227=ORIENTED_EDGE('',*,*,#326,.T.);
#228=ORIENTED_EDGE('',*,*,#342,.F.);
#229=ORIENTED_EDGE('',*,*,#334,.F.);
#230=ORIENTED_EDGE('',*,*,#327,.T.);
#231=ORIENTED_EDGE('',*,*,#333,.F.);
#232=ORIENTED_EDGE('',*,*,#343,.F.);
#233=ORIENTED_EDGE('',*,*,#328,.T.);
#234=ORIENTED_EDGE('',*,*,#344,.F.);
#235=ORIENTED_EDGE('',*,*,#329,.T.);
#236=ORIENTED_EDGE('',*,*,#345,.F.);
#237=ORIENTED_EDGE('',*,*,#346,.F.);
#238=ORIENTED_EDGE('',*,*,#330,.T.);
#239=ORIENTED_EDGE('',*,*,#347,.F.);
#240=ORIENTED_EDGE('',*,*,#348,.F.);
#241=ORIENTED_EDGE('',*,*,#321,.T.);
#242=ORIENTED_EDGE('',*,*,#302,.T.);
#243=ORIENTED_EDGE('',*,*,#349,.T.);
#244=ORIENTED_EDGE('',*,*,#345,.T.);
#245=ORIENTED_EDGE('',*,*,#344,.T.);
#246=ORIENTED_EDGE('',*,*,#343,.T.);
#247=ORIENTED_EDGE('',*,*,#332,.F.);
#248=ORIENTED_EDGE('',*,*,#294,.T.);
#249=ORIENTED_EDGE('',*,*,#335,.F.);
#250=ORIENTED_EDGE('',*,*,#342,.T.);
#251=ORIENTED_EDGE('',*,*,#341,.T.);
#252=ORIENTED_EDGE('',*,*,#340,.T.);
#253=ORIENTED_EDGE('',*,*,#350,.T.);
#254=ORIENTED_EDGE('',*,*,#346,.T.);
#255=ORIENTED_EDGE('',*,*,#349,.F.);
#256=ORIENTED_EDGE('',*,*,#301,.T.);
#257=ORIENTED_EDGE('',*,*,#351,.T.);
#258=ORIENTED_EDGE('',*,*,#295,.T.);
#259=ORIENTED_EDGE('',*,*,#350,.F.);
#260=ORIENTED_EDGE('',*,*,#339,.T.);
#261=ORIENTED_EDGE('',*,*,#352,.T.);
#262=ORIENTED_EDGE('',*,*,#353,.F.);
#263=ORIENTED_EDGE('',*,*,#331,.F.);
#264=ORIENTED_EDGE('',*,*,#351,.F.);
#265=ORIENTED_EDGE('',*,*,#300,.F.);
#266=ORIENTED_EDGE('',*,*,#354,.F.);
#267=ORIENTED_EDGE('',*,*,#296,.F.);
#268=ORIENTED_EDGE('',*,*,#352,.F.);
#269=ORIENTED_EDGE('',*,*,#324,.F.);
#270=ORIENTED_EDGE('',*,*,#299,.T.);
#271=ORIENTED_EDGE('',*,*,#355,.T.);
#272=ORIENTED_EDGE('',*,*,#347,.T.);
#273=ORIENTED_EDGE('',*,*,#353,.T.);
#274=ORIENTED_EDGE('',*,*,#338,.T.);
#275=ORIENTED_EDGE('',*,*,#356,.T.);
#276=ORIENTED_EDGE('',*,*,#297,.T.);
#277=ORIENTED_EDGE('',*,*,#354,.T.);
#278=ORIENTED_EDGE('',*,*,#298,.T.);
#279=ORIENTED_EDGE('',*,*,#356,.F.);
#280=ORIENTED_EDGE('',*,*,#337,.T.);
#281=ORIENTED_EDGE('',*,*,#336,.T.);
#282=ORIENTED_EDGE('',*,*,#348,.T.);
#283=ORIENTED_EDGE('',*,*,#355,.F.);
#284=EDGE_CURVE('',#357,#357,#403,.T.);
#285=EDGE_CURVE('',#358,#358,#404,.F.);
#286=EDGE_CURVE('',#359,#359,#405,.T.);
#287=EDGE_CURVE('',#360,#360,#406,.F.);
#288=EDGE_CURVE('',#361,#361,#407,.F.);
#289=EDGE_CURVE('',#362,#363,#33,.T.);
#290=EDGE_CURVE('',#362,#364,#34,.F.);
#291=EDGE_CURVE('',#365,#364,#35,.T.);
#292=EDGE_CURVE('',#365,#366,#408,.F.);
#293=EDGE_CURVE('',#367,#366,#36,.T.);
#294=EDGE_CURVE('',#368,#367,#37,.T.);
#295=EDGE_CURVE('',#369,#368,#38,.F.);
#296=EDGE_CURVE('',#369,#370,#409,.F.);
#297=EDGE_CURVE('',#371,#370,#39,.T.);
#298=EDGE_CURVE('',#372,#371,#40,.F.);
#299=EDGE_CURVE('',#373,#372,#41,.T.);
#300=EDGE_CURVE('',#373,#374,#410,.F.);
#301=EDGE_CURVE('',#375,#374,#42,.F.);
#302=EDGE_CURVE('',#376,#375,#43,.F.);
#303=EDGE_CURVE('',#377,#376,#44,.T.);
#304=EDGE_CURVE('',#377,#363,#411,.F.);
#305=EDGE_CURVE('',#362,#378,#45,.F.);
#306=EDGE_CURVE('',#378,#379,#46,.F.);
#307=EDGE_CURVE('',#379,#380,#29,.F.);
#308=EDGE_CURVE('',#380,#381,#47,.F.);
#309=EDGE_CURVE('',#381,#364,#48,.T.);
#310=EDGE_CURVE('',#382,#378,#49,.F.);
#311=EDGE_CURVE('',#363,#382,#21,.T.);
#312=EDGE_CURVE('',#381,#383,#50,.F.);
#313=EDGE_CURVE('',#383,#365,#22,.T.);
#314=EDGE_CURVE('',#383,#380,#412,.T.);
#315=EDGE_CURVE('',#380,#379,#413,.T.);
#316=EDGE_CURVE('',#379,#382,#414,.T.);
#317=EDGE_CURVE('',#384,#377,#23,.T.);
#318=EDGE_CURVE('',#382,#384,#415,.T.);
#319=EDGE_CURVE('',#385,#383,#416,.T.);
#320=EDGE_CURVE('',#366,#385,#24,.T.);
#321=EDGE_CURVE('',#387,#388,#417,.F.);
#322=EDGE_CURVE('',#389,#387,#418,.F.);
#323=EDGE_CURVE('',#390,#389,#419,.F.);
#324=EDGE_CURVE('',#390,#391,#420,.T.);
#325=EDGE_CURVE('',#392,#391,#421,.F.);
#326=EDGE_CURVE('',#393,#392,#422,.F.);
#327=EDGE_CURVE('',#385,#393,#423,.F.);
#328=EDGE_CURVE('',#394,#384,#424,.F.);
#329=EDGE_CURVE('',#395,#394,#425,.F.);
#330=EDGE_CURVE('',#396,#395,#426,.F.);
#331=EDGE_CURVE('',#396,#388,#427,.T.);
#332=EDGE_CURVE('',#376,#397,#51,.T.);
#333=EDGE_CURVE('',#397,#384,#52,.F.);
#334=EDGE_CURVE('',#385,#398,#53,.F.);
#335=EDGE_CURVE('',#398,#367,#54,.T.);
#336=EDGE_CURVE('',#389,#387,#30,.F.);
#337=EDGE_CURVE('',#399,#389,#55,.T.);
#338=EDGE_CURVE('',#390,#399,#56,.F.);
#339=EDGE_CURVE('',#400,#391,#57,.T.);
#340=EDGE_CURVE('',#392,#400,#58,.T.);
#341=EDGE_CURVE('',#393,#392,#31,.F.);
#342=EDGE_CURVE('',#398,#393,#59,.T.);
#343=EDGE_CURVE('',#394,#397,#60,.F.);
#344=EDGE_CURVE('',#395,#394,#32,.F.);
#345=EDGE_CURVE('',#401,#395,#61,.F.);
#346=EDGE_CURVE('',#396,#401,#62,.T.);
#347=EDGE_CURVE('',#402,#388,#63,.F.);
#348=EDGE_CURVE('',#387,#402,#64,.T.);
#349=EDGE_CURVE('',#375,#401,#65,.T.);
#350=EDGE_CURVE('',#400,#368,#66,.T.);
#351=EDGE_CURVE('',#374,#396,#25,.T.);
#352=EDGE_CURVE('',#391,#369,#26,.T.);
#353=EDGE_CURVE('',#388,#373,#27,.T.);
#354=EDGE_CURVE('',#370,#390,#28,.T.);
#355=EDGE_CURVE('',#372,#402,#67,.T.);
#356=EDGE_CURVE('',#399,#371,#68,.T.);
#357=VERTEX_POINT('',#792);
#358=VERTEX_POINT('',#794);
#359=VERTEX_POINT('',#797);
#360=VERTEX_POINT('',#801);
#361=VERTEX_POINT('',#804);
#362=VERTEX_POINT('',#807);
#363=VERTEX_POINT('',#808);
#364=VERTEX_POINT('',#810);
#365=VERTEX_POINT('',#812);
#366=VERTEX_POINT('',#814);
#367=VERTEX_POINT('',#816);
#368=VERTEX_POINT('',#818);
#369=VERTEX_POINT('',#820);
#370=VERTEX_POINT('',#822);
#371=VERTEX_POINT('',#824);
#372=VERTEX_POINT('',#826);
#373=VERTEX_POINT('',#828);
#374=VERTEX_POINT('',#830);
#375=VERTEX_POINT('',#832);
#376=VERTEX_POINT('',#834);
#377=VERTEX_POINT('',#836);
#378=VERTEX_POINT('',#840);
#379=VERTEX_POINT('',#842);
#380=VERTEX_POINT('',#844);
#381=VERTEX_POINT('',#846);
#382=VERTEX_POINT('',#850);
#383=VERTEX_POINT('',#857);
#384=VERTEX_POINT('',#873);
#385=VERTEX_POINT('',#877);
#386=VERTEX_POINT('',#883);
#387=VERTEX_POINT('',#885);
#388=VERTEX_POINT('',#886);
#389=VERTEX_POINT('',#888);
#390=VERTEX_POINT('',#890);
#391=VERTEX_POINT('',#892);
#392=VERTEX_POINT('',#894);
#393=VERTEX_POINT('',#896);
#394=VERTEX_POINT('',#899);
#395=VERTEX_POINT('',#901);
#396=VERTEX_POINT('',#903);
#397=VERTEX_POINT('',#907);
#398=VERTEX_POINT('',#911);
#399=VERTEX_POINT('',#917);
#400=VERTEX_POINT('',#921);
#401=VERTEX_POINT('',#933);
#402=VERTEX_POINT('',#937);
#403=CIRCLE('',#560,0.0015);
#404=CIRCLE('',#561,0.0015);
#405=CIRCLE('',#563,0.00173431457505076);
#406=CIRCLE('',#566,0.00274999999999181);
#407=CIRCLE('',#568,0.00275);
#408=CIRCLE('',#570,0.000696552892009095);
#409=CIRCLE('',#571,0.000696552892009095);
#410=CIRCLE('',#572,0.000696552892009095);
#411=CIRCLE('',#573,0.000696552892009095);
#412=CIRCLE('',#579,0.000556);
#413=CIRCLE('',#581,0.00055600000000311);
#414=CIRCLE('',#583,0.000556);
#415=CIRCLE('',#585,0.00055600000000311);
#416=CIRCLE('',#587,0.00055600000000311);
#417=CIRCLE('',#589,0.000556);
#418=CIRCLE('',#590,0.000556);
#419=CIRCLE('',#591,0.000556);
#420=CIRCLE('',#592,0.00055600000000311);
#421=CIRCLE('',#593,0.000556);
#422=CIRCLE('',#594,0.000556);
#423=CIRCLE('',#595,0.000556);
#424=CIRCLE('',#596,0.000556);
#425=CIRCLE('',#597,0.000556);
#426=CIRCLE('',#598,0.000556);
#427=CIRCLE('',#599,0.00055600000000311);
#428=EDGE_LOOP('',(#138));
#429=EDGE_LOOP('',(#139));
#430=EDGE_LOOP('',(#140));
#431=EDGE_LOOP('',(#141));
#432=EDGE_LOOP('',(#142));
#433=EDGE_LOOP('',(#143));
#434=EDGE_LOOP('',(#144));
#435=EDGE_LOOP('',(#145));
#436=EDGE_LOOP('',(#146));
#437=EDGE_LOOP('',(#147,#148,#149,#150,#151,#152,#153,#154,#155,#156,#157,
#158,#159,#160,#161,#162));
#438=EDGE_LOOP('',(#163));
#439=EDGE_LOOP('',(#164,#165,#166,#167,#168,#169));
#440=EDGE_LOOP('',(#170,#171,#172,#173));
#441=EDGE_LOOP('',(#174,#175,#176,#177));
#442=EDGE_LOOP('',(#178,#179,#180));
#443=EDGE_LOOP('',(#181,#182));
#444=EDGE_LOOP('',(#183,#184,#185));
#445=EDGE_LOOP('',(#186,#187,#188,#189));
#446=EDGE_LOOP('',(#190,#191,#192,#193));
#447=EDGE_LOOP('',(#194,#195,#196,#197,#198,#199,#200,#201,#202,#203,#204,
#205,#206,#207,#208,#209));
#448=EDGE_LOOP('',(#210,#211,#212,#213));
#449=EDGE_LOOP('',(#214,#215,#216,#217));
#450=EDGE_LOOP('',(#218,#219));
#451=EDGE_LOOP('',(#220,#221,#222));
#452=EDGE_LOOP('',(#223,#224,#225));
#453=EDGE_LOOP('',(#226,#227));
#454=EDGE_LOOP('',(#228,#229,#230));
#455=EDGE_LOOP('',(#231,#232,#233));
#456=EDGE_LOOP('',(#234,#235));
#457=EDGE_LOOP('',(#236,#237,#238));
#458=EDGE_LOOP('',(#239,#240,#241));
#459=EDGE_LOOP('',(#242,#243,#244,#245,#246,#247));
#460=EDGE_LOOP('',(#248,#249,#250,#251,#252,#253));
#461=EDGE_LOOP('',(#254,#255,#256,#257));
#462=EDGE_LOOP('',(#258,#259,#260,#261));
#463=EDGE_LOOP('',(#262,#263,#264,#265));
#464=EDGE_LOOP('',(#266,#267,#268,#269));
#465=EDGE_LOOP('',(#270,#271,#272,#273));
#466=EDGE_LOOP('',(#274,#275,#276,#277));
#467=EDGE_LOOP('',(#278,#279,#280,#281,#282,#283));
#468=FACE_BOUND('',#428,.T.);
#469=FACE_BOUND('',#429,.T.);
#470=FACE_BOUND('',#430,.T.);
#471=FACE_BOUND('',#431,.T.);
#472=FACE_BOUND('',#432,.T.);
#473=FACE_BOUND('',#433,.T.);
#474=FACE_BOUND('',#434,.T.);
#475=FACE_BOUND('',#435,.T.);
#476=FACE_BOUND('',#436,.T.);
#477=FACE_BOUND('',#437,.T.);
#478=FACE_BOUND('',#438,.T.);
#479=FACE_BOUND('',#439,.T.);
#480=FACE_BOUND('',#440,.T.);
#481=FACE_BOUND('',#441,.T.);
#482=FACE_BOUND('',#442,.T.);
#483=FACE_BOUND('',#443,.T.);
#484=FACE_BOUND('',#444,.T.);
#485=FACE_BOUND('',#445,.T.);
#486=FACE_BOUND('',#446,.T.);
#487=FACE_BOUND('',#20,.T.);
#488=FACE_BOUND('',#447,.T.);
#489=FACE_BOUND('',#448,.T.);
#490=FACE_BOUND('',#449,.T.);
#491=FACE_BOUND('',#450,.T.);
#492=FACE_BOUND('',#451,.T.);
#493=FACE_BOUND('',#452,.T.);
#494=FACE_BOUND('',#453,.T.);
#495=FACE_BOUND('',#454,.T.);
#496=FACE_BOUND('',#455,.T.);
#497=FACE_BOUND('',#456,.T.);
#498=FACE_BOUND('',#457,.T.);
#499=FACE_BOUND('',#458,.T.);
#500=FACE_BOUND('',#459,.T.);
#501=FACE_BOUND('',#460,.T.);
#502=FACE_BOUND('',#461,.T.);
#503=FACE_BOUND('',#462,.T.);
#504=FACE_BOUND('',#463,.T.);
#505=FACE_BOUND('',#464,.T.);
#506=FACE_BOUND('',#465,.T.);
#507=FACE_BOUND('',#466,.T.);
#508=FACE_BOUND('',#467,.T.);
#509=CYLINDRICAL_SURFACE('',#559,0.0015);
#510=CYLINDRICAL_SURFACE('',#567,0.00275);
#511=ADVANCED_FACE('',(#468,#469),#509,.T.);
#512=ADVANCED_FACE('',(#470,#471),#137,.F.);
#513=ADVANCED_FACE('',(#472),#115,.T.);
#514=ADVANCED_FACE('',(#473,#474),#105,.T.);
#515=ADVANCED_FACE('',(#475,#476),#510,.T.);
#516=ADVANCED_FACE('',(#477,#478),#116,.T.);
#517=ADVANCED_FACE('',(#479),#117,.T.);
#518=ADVANCED_FACE('',(#480),#118,.T.);
#519=ADVANCED_FACE('',(#481),#119,.T.);
#520=ADVANCED_FACE('',(#482),#120,.F.);
#521=ADVANCED_FACE('',(#483),#106,.F.);
#522=ADVANCED_FACE('',(#484),#121,.F.);
#523=ADVANCED_FACE('',(#485),#107,.F.);
#524=ADVANCED_FACE('',(#486),#108,.F.);
#525=ADVANCED_FACE('',(#487,#488),#109,.F.);
#526=ADVANCED_FACE('',(#489),#122,.T.);
#527=ADVANCED_FACE('',(#490),#123,.T.);
#528=ADVANCED_FACE('',(#491),#110,.F.);
#529=ADVANCED_FACE('',(#492),#124,.F.);
#530=ADVANCED_FACE('',(#493),#125,.F.);
#531=ADVANCED_FACE('',(#494),#111,.F.);
#532=ADVANCED_FACE('',(#495),#126,.F.);
#533=ADVANCED_FACE('',(#496),#127,.F.);
#534=ADVANCED_FACE('',(#497),#112,.F.);
#535=ADVANCED_FACE('',(#498),#128,.F.);
#536=ADVANCED_FACE('',(#499),#129,.F.);
#537=ADVANCED_FACE('',(#500),#130,.T.);
#538=ADVANCED_FACE('',(#501),#131,.T.);
#539=ADVANCED_FACE('',(#502),#132,.T.);
#540=ADVANCED_FACE('',(#503),#133,.T.);
#541=ADVANCED_FACE('',(#504),#113,.F.);
#542=ADVANCED_FACE('',(#505),#114,.F.);
#543=ADVANCED_FACE('',(#506),#134,.T.);
#544=ADVANCED_FACE('',(#507),#135,.T.);
#545=ADVANCED_FACE('',(#508),#136,.T.);
#546=CLOSED_SHELL('',(#511,#512,#513,#514,#515,#516,#517,#518,#519,#520,
#521,#522,#523,#524,#525,#526,#527,#528,#529,#530,#531,#532,#533,#534,#535,
#536,#537,#538,#539,#540,#541,#542,#543,#544,#545));
#547=STYLED_ITEM('',(#548),#555);
#548=PRESENTATION_STYLE_ASSIGNMENT((#549));
#549=SURFACE_STYLE_USAGE(.BOTH.,#550);
#550=SURFACE_SIDE_STYLE('',(#551));
#551=SURFACE_STYLE_FILL_AREA(#552);
#552=FILL_AREA_STYLE('',(#553));
#553=FILL_AREA_STYLE_COLOUR('',#554);
#554=COLOUR_RGB('',0.776470588235294,0.756862745098039,0.737254901960784);
#555=MANIFOLD_SOLID_BREP('Part 93',#546);
#556=SHAPE_DEFINITION_REPRESENTATION(#974,#557);
#557=SHAPE_REPRESENTATION('Part 93',(#558),#969);
#558=AXIS2_PLACEMENT_3D('',#789,#623,#624);
#559=AXIS2_PLACEMENT_3D('',#790,#625,#626);
#560=AXIS2_PLACEMENT_3D('',#791,#627,#628);
#561=AXIS2_PLACEMENT_3D('',#793,#629,#630);
#562=AXIS2_PLACEMENT_3D('',#795,#631,#632);
#563=AXIS2_PLACEMENT_3D('',#796,#633,#634);
#564=AXIS2_PLACEMENT_3D('',#798,#635,#636);
#565=AXIS2_PLACEMENT_3D('',#799,#637,#638);
#566=AXIS2_PLACEMENT_3D('',#800,#639,#640);
#567=AXIS2_PLACEMENT_3D('',#802,#641,#642);
#568=AXIS2_PLACEMENT_3D('',#803,#643,#644);
#569=AXIS2_PLACEMENT_3D('',#805,#645,#646);
#570=AXIS2_PLACEMENT_3D('',#813,#650,#651);
#571=AXIS2_PLACEMENT_3D('',#821,#655,#656);
#572=AXIS2_PLACEMENT_3D('',#829,#660,#661);
#573=AXIS2_PLACEMENT_3D('',#837,#665,#666);
#574=AXIS2_PLACEMENT_3D('',#838,#667,#668);
#575=AXIS2_PLACEMENT_3D('',#843,#671,#672);
#576=AXIS2_PLACEMENT_3D('',#848,#675,#676);
#577=AXIS2_PLACEMENT_3D('',#855,#678,#679);
#578=AXIS2_PLACEMENT_3D('',#862,#681,#682);
#579=AXIS2_PLACEMENT_3D('',#863,#683,#684);
#580=AXIS2_PLACEMENT_3D('',#864,#685,#686);
#581=AXIS2_PLACEMENT_3D('',#865,#687,#688);
#582=AXIS2_PLACEMENT_3D('',#866,#689,#690);
#583=AXIS2_PLACEMENT_3D('',#867,#691,#692);
#584=AXIS2_PLACEMENT_3D('',#868,#693,#694);
#585=AXIS2_PLACEMENT_3D('',#874,#695,#696);
#586=AXIS2_PLACEMENT_3D('',#875,#697,#698);
#587=AXIS2_PLACEMENT_3D('',#876,#699,#700);
#588=AXIS2_PLACEMENT_3D('',#882,#701,#702);
#589=AXIS2_PLACEMENT_3D('',#884,#703,#704);
#590=AXIS2_PLACEMENT_3D('',#887,#705,#706);
#591=AXIS2_PLACEMENT_3D('',#889,#707,#708);
#592=AXIS2_PLACEMENT_3D('',#891,#709,#710);
#593=AXIS2_PLACEMENT_3D('',#893,#711,#712);
#594=AXIS2_PLACEMENT_3D('',#895,#713,#714);
#595=AXIS2_PLACEMENT_3D('',#897,#715,#716);
#596=AXIS2_PLACEMENT_3D('',#898,#717,#718);
#597=AXIS2_PLACEMENT_3D('',#900,#719,#720);
#598=AXIS2_PLACEMENT_3D('',#902,#721,#722);
#599=AXIS2_PLACEMENT_3D('',#904,#723,#724);
#600=AXIS2_PLACEMENT_3D('',#905,#725,#726);
#601=AXIS2_PLACEMENT_3D('',#909,#729,#730);
#602=AXIS2_PLACEMENT_3D('',#913,#733,#734);
#603=AXIS2_PLACEMENT_3D('',#914,#735,#736);
#604=AXIS2_PLACEMENT_3D('',#915,#737,#738);
#605=AXIS2_PLACEMENT_3D('',#919,#741,#742);
#606=AXIS2_PLACEMENT_3D('',#923,#745,#746);
#607=AXIS2_PLACEMENT_3D('',#924,#747,#748);
#608=AXIS2_PLACEMENT_3D('',#925,#749,#750);
#609=AXIS2_PLACEMENT_3D('',#927,#752,#753);
#610=AXIS2_PLACEMENT_3D('',#929,#755,#756);
#611=AXIS2_PLACEMENT_3D('',#930,#757,#758);
#612=AXIS2_PLACEMENT_3D('',#931,#759,#760);
#613=AXIS2_PLACEMENT_3D('',#935,#763,#764);
#614=AXIS2_PLACEMENT_3D('',#939,#767,#768);
#615=AXIS2_PLACEMENT_3D('',#941,#770,#771);
#616=AXIS2_PLACEMENT_3D('',#943,#773,#774);
#617=AXIS2_PLACEMENT_3D('',#948,#775,#776);
#618=AXIS2_PLACEMENT_3D('',#953,#777,#778);
#619=AXIS2_PLACEMENT_3D('',#958,#779,#780);
#620=AXIS2_PLACEMENT_3D('',#963,#781,#782);
#621=AXIS2_PLACEMENT_3D('',#965,#784,#785);
#622=AXIS2_PLACEMENT_3D('',#967,#787,#788);
#623=DIRECTION('',(0.,0.,1.));
#624=DIRECTION('',(1.,0.,0.));
#625=DIRECTION('',(0.,0.,-1.));
#626=DIRECTION('',(0.546944138603989,0.837169104331222,0.));
#627=DIRECTION('',(0.,0.,-1.));
#628=DIRECTION('',(0.546944138603989,0.837169104331222,0.));
#629=DIRECTION('',(0.,0.,-1.));
#630=DIRECTION('',(0.546944138603989,0.837169104331222,0.));
#631=DIRECTION('',(0.,0.,-1.));
#632=DIRECTION('',(0.546944138603992,0.83716910433122,0.));
#633=DIRECTION('',(0.,0.,-1.));
#634=DIRECTION('',(0.546944138603989,0.837169104331222,0.));
#635=DIRECTION('',(0.,0.,1.));
#636=DIRECTION('',(-0.546944138603989,-0.837169104331222,0.));
#637=DIRECTION('',(0.,0.,-1.));
#638=DIRECTION('',(0.546944138603989,0.837169104331222,0.));
#639=DIRECTION('',(0.,0.,-1.));
#640=DIRECTION('',(0.546944138603989,0.837169104331222,0.));
#641=DIRECTION('',(0.,0.,-1.));
#642=DIRECTION('',(0.546944138603989,0.837169104331222,0.));
#643=DIRECTION('',(0.,0.,-1.));
#644=DIRECTION('',(0.546944138603989,0.837169104331222,0.));
#645=DIRECTION('',(0.,0.,-1.));
#646=DIRECTION('',(0.546944138603989,0.837169104331222,0.));
#647=DIRECTION('',(-0.546944138603986,-0.837169104331224,0.));
#648=DIRECTION('',(0.837169104331222,-0.546944138603989,0.));
#649=DIRECTION('',(0.546944138603986,0.837169104331224,0.));
#650=DIRECTION('',(0.,0.,-1.));
#651=DIRECTION('',(0.546944138603989,0.837169104331222,0.));
#652=DIRECTION('',(0.837169104331222,-0.546944138603989,0.));
#653=DIRECTION('',(0.546944138603989,0.837169104331222,-1.17011126626581E-16));
#654=DIRECTION('',(0.837169104331222,-0.546944138603989,0.));
#655=DIRECTION('',(0.,0.,-1.));
#656=DIRECTION('',(0.546944138603989,0.837169104331222,0.));
#657=DIRECTION('',(0.546944138603986,0.837169104331224,0.));
#658=DIRECTION('',(0.837169104331224,-0.546944138603987,-1.27719933435548E-15));
#659=DIRECTION('',(-0.546944138603986,-0.837169104331224,0.));
#660=DIRECTION('',(0.,0.,-1.));
#661=DIRECTION('',(0.546944138603989,0.837169104331222,0.));
#662=DIRECTION('',(0.837169104331222,-0.546944138603989,0.));
#663=DIRECTION('',(0.546944138603989,0.837169104331222,1.17011126626581E-16));
#664=DIRECTION('',(0.837169104331222,-0.546944138603989,0.));
#665=DIRECTION('',(0.,0.,-1.));
#666=DIRECTION('',(0.546944138603989,0.837169104331222,0.));
#667=DIRECTION('',(-0.489479106876105,-0.749211403084465,-0.446197800778958));
#668=DIRECTION('',(0.244045271794042,0.373543013232681,-0.894934367749961));
#669=DIRECTION('',(0.244045271794042,0.373543013232681,-0.894934367749961));
#670=DIRECTION('',(0.837169104331224,-0.546944138603987,1.27719933435548E-15));
#671=DIRECTION('',(-0.489479106876105,-0.749211403084465,-0.446197800778958));
#672=DIRECTION('',(0.24404527179404,0.373543013232682,-0.894934367749961));
#673=DIRECTION('',(0.837169104331224,-0.546944138603987,1.27719933435548E-15));
#674=DIRECTION('',(0.244045271794042,0.373543013232681,-0.894934367749961));
#675=DIRECTION('',(-0.837169104331224,0.546944138603986,3.23642439547912E-16));
#676=DIRECTION('',(-0.546944138603986,-0.837169104331224,0.));
#677=DIRECTION('',(-0.546944138603986,-0.837169104331224,0.));
#678=DIRECTION('',(0.837169104331224,-0.546944138603986,0.));
#679=DIRECTION('',(0.546944138603986,0.837169104331224,0.));
#680=DIRECTION('',(0.546944138603986,0.837169104331224,0.));
#681=DIRECTION('',(0.,0.,1.));
#682=DIRECTION('',(-0.546944138603989,-0.837169104331222,0.));
#683=DIRECTION('',(0.,0.,-1.));
#684=DIRECTION('',(0.546944138603989,0.837169104331222,0.));
#685=DIRECTION('',(0.,0.,-1.));
#686=DIRECTION('',(0.546944138603989,0.837169104331222,0.));
#687=DIRECTION('',(0.,0.,-1.));
#688=DIRECTION('',(0.546944138603989,0.837169104331222,0.));
#689=DIRECTION('',(0.,0.,1.));
#690=DIRECTION('',(-0.546944138603989,-0.837169104331222,0.));
#691=DIRECTION('',(0.,0.,-1.));
#692=DIRECTION('',(0.546944138603989,0.837169104331222,0.));
#693=DIRECTION('',(0.,0.,-1.));
#694=DIRECTION('',(0.546944138603989,0.837169104331222,0.));
#695=DIRECTION('',(0.,0.,-1.));
#696=DIRECTION('',(0.546944138603989,0.837169104331222,0.));
#697=DIRECTION('',(0.,0.,-1.));
#698=DIRECTION('',(0.546944138603989,0.837169104331222,0.));
#699=DIRECTION('',(0.,0.,-1.));
#700=DIRECTION('',(0.546944138603989,0.837169104331222,0.));
#701=DIRECTION('',(0.,0.,-1.));
#702=DIRECTION('',(0.546944138603989,0.837169104331222,0.));
#703=DIRECTION('',(0.,0.,-1.));
#704=DIRECTION('',(0.546944138603989,0.837169104331222,0.));
#705=DIRECTION('',(0.,0.,-1.));
#706=DIRECTION('',(0.546944138603989,0.837169104331222,0.));
#707=DIRECTION('',(0.,0.,-1.));
#708=DIRECTION('',(0.546944138603989,0.837169104331222,0.));
#709=DIRECTION('',(0.,0.,-1.));
#710=DIRECTION('',(0.546944138603989,0.837169104331222,0.));
#711=DIRECTION('',(0.,0.,-1.));
#712=DIRECTION('',(0.546944138603989,0.837169104331222,0.));
#713=DIRECTION('',(0.,0.,-1.));
#714=DIRECTION('',(0.546944138603989,0.837169104331222,0.));
#715=DIRECTION('',(0.,0.,-1.));
#716=DIRECTION('',(0.546944138603989,0.837169104331222,0.));
#717=DIRECTION('',(0.,0.,-1.));
#718=DIRECTION('',(0.546944138603989,0.837169104331222,0.));
#719=DIRECTION('',(0.,0.,-1.));
#720=DIRECTION('',(0.546944138603989,0.837169104331222,0.));
#721=DIRECTION('',(0.,0.,-1.));
#722=DIRECTION('',(0.546944138603989,0.837169104331222,0.));
#723=DIRECTION('',(0.,0.,-1.));
#724=DIRECTION('',(0.546944138603989,0.837169104331222,0.));
#725=DIRECTION('',(-0.546944138603989,-0.837169104331222,0.));
#726=DIRECTION('',(0.,0.,-1.));
#727=DIRECTION('',(-0.373543013232681,0.244045271794042,0.89493436774996));
#728=DIRECTION('',(0.837169104331222,-0.546944138603989,0.));
#729=DIRECTION('',(-0.546944138603989,-0.837169104331222,0.));
#730=DIRECTION('',(0.,0.,-1.));
#731=DIRECTION('',(0.837169104331222,-0.546944138603989,0.));
#732=DIRECTION('',(-0.373543013232681,0.244045271794042,-0.89493436774996));
#733=DIRECTION('',(0.,0.,-1.));
#734=DIRECTION('',(0.546944138603989,0.837169104331222,0.));
#735=DIRECTION('',(0.489479106876105,0.749211403084465,-0.446197800778958));
#736=DIRECTION('',(-0.24404527179404,-0.373543013232682,-0.894934367749961));
#737=DIRECTION('',(0.,0.,1.));
#738=DIRECTION('',(-0.546944138603989,-0.837169104331222,0.));
#739=DIRECTION('',(0.837169104331224,-0.546944138603987,-1.27719933435548E-15));
#740=DIRECTION('',(0.546944138603986,0.837169104331224,0.));
#741=DIRECTION('',(0.,0.,1.));
#742=DIRECTION('',(-0.546944138603989,-0.837169104331222,0.));
#743=DIRECTION('',(0.837169104331222,-0.546944138603989,0.));
#744=DIRECTION('',(-0.546944138603989,-0.837169104331222,0.));
#745=DIRECTION('',(0.,0.,-1.));
#746=DIRECTION('',(0.546944138603989,0.837169104331222,0.));
#747=DIRECTION('',(0.749211403084463,-0.489479106876108,-0.446197800778958));
#748=DIRECTION('',(-0.373543013232681,0.244045271794042,-0.894934367749961));
#749=DIRECTION('',(0.,0.,1.));
#750=DIRECTION('',(-0.546944138603989,-0.837169104331222,0.));
#751=DIRECTION('',(-0.546944138603989,-0.837169104331222,0.));
#752=DIRECTION('',(0.,0.,1.));
#753=DIRECTION('',(-0.546944138603989,-0.837169104331222,0.));
#754=DIRECTION('',(-0.546944138603989,-0.837169104331222,0.));
#755=DIRECTION('',(0.,0.,-1.));
#756=DIRECTION('',(0.546944138603989,0.837169104331222,0.));
#757=DIRECTION('',(-0.749211403084463,0.489479106876108,-0.446197800778958));
#758=DIRECTION('',(0.373543013232681,-0.244045271794042,-0.894934367749961));
#759=DIRECTION('',(0.,0.,1.));
#760=DIRECTION('',(-0.546944138603989,-0.837169104331222,0.));
#761=DIRECTION('',(-0.546944138603989,-0.837169104331222,0.));
#762=DIRECTION('',(0.837169104331222,-0.546944138603989,0.));
#763=DIRECTION('',(0.,0.,1.));
#764=DIRECTION('',(-0.546944138603989,-0.837169104331222,0.));
#765=DIRECTION('',(-0.546944138603986,-0.837169104331224,0.));
#766=DIRECTION('',(0.837169104331224,-0.546944138603987,-1.27719933435548E-15));
#767=DIRECTION('',(-0.749211403084463,0.489479106876108,-0.446197800778958));
#768=DIRECTION('',(-0.373543013232681,0.244045271794042,0.894934367749961));
#769=DIRECTION('',(-0.373543013232681,0.244045271794042,0.894934367749961));
#770=DIRECTION('',(0.749211403084463,-0.489479106876108,-0.446197800778958));
#771=DIRECTION('',(-0.373543013232681,0.244045271794042,-0.894934367749961));
#772=DIRECTION('',(-0.373543013232681,0.244045271794042,-0.894934367749961));
#773=DIRECTION('',(0.546944138603989,0.837169104331222,3.23642439547912E-16));
#774=DIRECTION('',(-1.77014335314226E-16,-2.70943451239897E-16,1.));
#775=DIRECTION('',(0.546944138603989,0.837169104331222,3.23642439547912E-16));
#776=DIRECTION('',(-1.77014335314226E-16,-2.70943451239897E-16,1.));
#777=DIRECTION('',(0.,0.,-1.));
#778=DIRECTION('',(0.546944138603989,0.837169104331222,0.));
#779=DIRECTION('',(0.,0.,-1.));
#780=DIRECTION('',(0.546944138603989,0.837169104331222,0.));
#781=DIRECTION('',(-0.837169104331224,0.546944138603986,3.23642439547912E-16));
#782=DIRECTION('',(-0.546944138603986,-0.837169104331224,0.));
#783=DIRECTION('',(0.24404527179404,0.373543013232682,0.89493436774996));
#784=DIRECTION('',(0.837169104331224,-0.546944138603986,0.));
#785=DIRECTION('',(0.546944138603986,0.837169104331224,0.));
#786=DIRECTION('',(-0.24404527179404,-0.373543013232682,-0.89493436774996));
#787=DIRECTION('',(0.489479106876105,0.749211403084465,-0.446197800778958));
#788=DIRECTION('',(0.244045271794042,0.373543013232681,0.894934367749961));
#789=CARTESIAN_POINT('',(0.,0.,0.));
#790=CARTESIAN_POINT('',(-0.00233678332666521,0.017211174182987,0.01525));
#791=CARTESIAN_POINT('',(-0.00233678332666521,0.017211174182987,0.0516));
#792=CARTESIAN_POINT('',(-0.00151636711875923,0.0184669278394838,0.0516));
#793=CARTESIAN_POINT('',(-0.00233678332666521,0.017211174182987,0.0235813708498985));
#794=CARTESIAN_POINT('',(-0.00151636711875923,0.0184669278394838,0.0235813708498985));
#795=CARTESIAN_POINT('',(-0.00233678332666521,0.017211174182987,0.0235813708498985));
#796=CARTESIAN_POINT('',(-0.00233678332666521,0.017211174182987,0.0230156854249493));
#797=CARTESIAN_POINT('',(-0.00138821013534573,0.0186630887624108,0.0230156854249493));
#798=CARTESIAN_POINT('',(-0.00108102967016838,0.016390757975081,0.0516));
#799=CARTESIAN_POINT('',(-0.00233678332666521,0.017211174182987,0.0219999999999565));
#800=CARTESIAN_POINT('',(-0.00233678332666521,0.017211174182987,0.0220000000000133));
#801=CARTESIAN_POINT('',(-0.000832686945508722,0.019513389219891,0.0220000000000133));
#802=CARTESIAN_POINT('',(-0.00233678332666521,0.017211174182987,0.01525));
#803=CARTESIAN_POINT('',(-0.00233678332666521,0.017211174182987,0.0216));
#804=CARTESIAN_POINT('',(-0.000832686945504245,0.0195133892198979,0.0216));
#805=CARTESIAN_POINT('',(-0.00233678332666521,0.017211174182987,0.0216));
#806=CARTESIAN_POINT('',(-0.00175473407040632,0.0174255903294663,0.0216));
#807=CARTESIAN_POINT('',(-0.00120661455015668,0.0182645585082004,0.0216));
#808=CARTESIAN_POINT('',(-0.00170424754637525,0.0175028665175095,0.0216));
#809=CARTESIAN_POINT('',(-0.00151636711875923,0.0184669278394839,0.0216));
#810=CARTESIAN_POINT('',(-0.00182611968736179,0.0186692971707673,0.0216));
#811=CARTESIAN_POINT('',(-0.00291883258292411,0.0169967580365077,0.0216));
#812=CARTESIAN_POINT('',(-0.00232375268358035,0.0179076051800765,0.0216));
#813=CARTESIAN_POINT('',(-0.00233678332666521,0.017211174182987,0.0216));
#814=CARTESIAN_POINT('',(-0.00262847566118773,0.017843709963277,0.0216));
#815=CARTESIAN_POINT('',(-0.00255119947314452,0.0177932234392459,0.0216));
#816=CARTESIAN_POINT('',(-0.00339016765187857,0.0183413429594955,0.0216));
#817=CARTESIAN_POINT('',(-0.00379490631444552,0.0177218378222904,0.0216));
#818=CARTESIAN_POINT('',(-0.00379490631444552,0.0177218378222904,0.0216));
#819=CARTESIAN_POINT('',(-0.0021223671801859,0.0166291249267281,0.0216));
#820=CARTESIAN_POINT('',(-0.00303321432375468,0.0172242048260718,0.0216));
#821=CARTESIAN_POINT('',(-0.00233678332666521,0.017211174182987,0.0216));
#822=CARTESIAN_POINT('',(-0.00296931910695518,0.0169194818484645,0.0216));
#823=CARTESIAN_POINT('',(-0.00291883258292411,0.0169967580365077,0.0216));
#824=CARTESIAN_POINT('',(-0.00346695210317375,0.0161577898577736,0.0216));
#825=CARTESIAN_POINT('',(-0.00284744696596864,0.0157530511952067,0.0216));
#826=CARTESIAN_POINT('',(-0.00284744696596864,0.0157530511952067,0.0216));
#827=CARTESIAN_POINT('',(-0.00175473407040632,0.0174255903294663,0.0216));
#828=CARTESIAN_POINT('',(-0.00234981396975007,0.0165147431858975,0.0216));
#829=CARTESIAN_POINT('',(-0.00233678332666521,0.017211174182987,0.0216));
#830=CARTESIAN_POINT('',(-0.00204509099214271,0.0165786384026971,0.0216));
#831=CARTESIAN_POINT('',(-0.0021223671801859,0.0166291249267281,0.0216));
#832=CARTESIAN_POINT('',(-0.00128339900145185,0.0160810054064785,0.0216));
#833=CARTESIAN_POINT('',(-0.000878660338884904,0.0167005105436836,0.0216));
#834=CARTESIAN_POINT('',(-0.000878660338884904,0.0167005105436836,0.0216));
#835=CARTESIAN_POINT('',(-0.00255119947314452,0.0177932234392459,0.0216));
#836=CARTESIAN_POINT('',(-0.00164035232957576,0.0171981435399021,0.0216));
#837=CARTESIAN_POINT('',(-0.00233678332666521,0.017211174182987,0.0216));
#838=CARTESIAN_POINT('',(-0.00237423920761142,0.0178303289920333,0.02361));
#839=CARTESIAN_POINT('',(-0.00175473407040632,0.0174255903294663,0.02361));
#840=CARTESIAN_POINT('',(-0.00175473407040632,0.0174255903294663,0.02361));
#841=CARTESIAN_POINT('',(-0.00237423920761142,0.0178303289920333,0.02361));
#842=CARTESIAN_POINT('',(-0.00185724648080999,0.0174925643275729,0.0236099999999922));
#843=CARTESIAN_POINT('',(-0.0022987406041657,0.0172694035151497,0.0244690288296078));
#844=CARTESIAN_POINT('',(-0.00227172679720347,0.0177633549939333,0.0236099999999922));
#845=CARTESIAN_POINT('',(-0.00237423920761142,0.0178303289920333,0.02361));
#846=CARTESIAN_POINT('',(-0.00237423920761142,0.0178303289920333,0.02361));
#847=CARTESIAN_POINT('',(-0.00237423920761142,0.0178303289920333,0.02361));
#848=CARTESIAN_POINT('',(-0.00175473407040632,0.0174255903294663,0.02361));
#849=CARTESIAN_POINT('',(-0.00175473407040632,0.0174255903294663,0.02361));
#850=CARTESIAN_POINT('',(-0.00180004169199934,0.0173562411248378,0.0236099999999922));
#851=CARTESIAN_POINT('',(-0.00170424754637526,0.0175028665175095,0.0216000000000003));
#852=CARTESIAN_POINT('',(-0.00173450404934148,0.0174565550065148,0.0222702640033208));
#853=CARTESIAN_POINT('',(-0.00176573148786397,0.0174087573524342,0.0229403871570476));
#854=CARTESIAN_POINT('',(-0.00180004169199812,0.0173562411248397,0.0236099999999978));
#855=CARTESIAN_POINT('',(-0.00291883258292411,0.0169967580365077,0.02361));
#856=CARTESIAN_POINT('',(-0.00291883258292411,0.0169967580365077,0.02361));
#857=CARTESIAN_POINT('',(-0.00241954682920445,0.0177609797874047,0.0236099999999922));
#858=CARTESIAN_POINT('',(-0.002419546829204,0.0177609797874054,0.0236099999999977));
#859=CARTESIAN_POINT('',(-0.00238523659638436,0.0178134960589068,0.02294038659721));
#860=CARTESIAN_POINT('',(-0.00235400919961787,0.0178612936490745,0.0222702642928884));
#861=CARTESIAN_POINT('',(-0.00232375268358023,0.0179076051800767,0.0216000000000003));
#862=CARTESIAN_POINT('',(-0.0021223671801859,0.0166291249267281,0.02361));
#863=CARTESIAN_POINT('',(-0.00233678332666521,0.017211174182987,0.02361));
#864=CARTESIAN_POINT('',(-0.00233678332666521,0.017211174182987,0.0234735314606602));
#865=CARTESIAN_POINT('',(-0.00233678332666521,0.017211174182987,0.0236099999999844));
#866=CARTESIAN_POINT('',(-0.0021223671801859,0.0166291249267281,0.02361));
#867=CARTESIAN_POINT('',(-0.00233678332666521,0.017211174182987,0.02361));
#868=CARTESIAN_POINT('',(-0.00233678332666521,0.017211174182987,0.0216));
#869=CARTESIAN_POINT('',(-0.00178697772224656,0.0172939376855256,0.0236099999999951));
#870=CARTESIAN_POINT('',(-0.0017344614507452,0.017259627452706,0.0229403865972074));
#871=CARTESIAN_POINT('',(-0.00168666386057773,0.0172284000559396,0.0222702642928883));
#872=CARTESIAN_POINT('',(-0.00164035232957556,0.017198143539902,0.0216000000000003));
#873=CARTESIAN_POINT('',(-0.00178697772224747,0.0172939376855262,0.0236099999999922));
#874=CARTESIAN_POINT('',(-0.00233678332666521,0.017211174182987,0.0236099999999844));
#875=CARTESIAN_POINT('',(-0.00233678332666521,0.017211174182987,0.0216));
#876=CARTESIAN_POINT('',(-0.00233678332666521,0.017211174182987,0.0236099999999844));
#877=CARTESIAN_POINT('',(-0.00248185026851601,0.0177479158176529,0.0236099999999922));
#878=CARTESIAN_POINT('',(-0.00262847566118771,0.017843709963277,0.0216));
#879=CARTESIAN_POINT('',(-0.00258216415019303,0.0178134534603107,0.0222702640033207));
#880=CARTESIAN_POINT('',(-0.0025343664961126,0.0177822260217884,0.0229403871570447));
#881=CARTESIAN_POINT('',(-0.0024818502685181,0.0177479158176542,0.0236099999999952));
#882=CARTESIAN_POINT('',(-0.00233678332666521,0.017211174182987,0.0236100000000003));
#883=CARTESIAN_POINT('',(-0.00233678332666497,0.0172111741829874,0.0237906553511056));
#884=CARTESIAN_POINT('',(-0.00233678332666521,0.017211174182987,0.02361));
#885=CARTESIAN_POINT('',(-0.00240183985612115,0.0166589933720417,0.02361));
#886=CARTESIAN_POINT('',(-0.00225401982412598,0.0166613685785693,0.0236099999999922));
#887=CARTESIAN_POINT('',(-0.00233678332666521,0.017211174182987,0.02361));
#888=CARTESIAN_POINT('',(-0.00281632017252196,0.0169297840384068,0.02361));
#889=CARTESIAN_POINT('',(-0.00233678332666521,0.017211174182987,0.02361));
#890=CARTESIAN_POINT('',(-0.00287352496133108,0.0170661072411362,0.0236099999999922));
#891=CARTESIAN_POINT('',(-0.00233678332666521,0.017211174182987,0.0236099999999844));
#892=CARTESIAN_POINT('',(-0.00288658893108296,0.0171284106804478,0.0236099999999922));
#893=CARTESIAN_POINT('',(-0.00233678332666521,0.017211174182987,0.02361));
#894=CARTESIAN_POINT('',(-0.00288896413761056,0.0172762307124429,0.02361));
#895=CARTESIAN_POINT('',(-0.00233678332666521,0.017211174182987,0.02361));
#896=CARTESIAN_POINT('',(-0.00261817347124544,0.0176907110288437,0.02361));
#897=CARTESIAN_POINT('',(-0.00233678332666521,0.017211174182987,0.02361));
#898=CARTESIAN_POINT('',(-0.00233678332666521,0.017211174182987,0.02361));
#899=CARTESIAN_POINT('',(-0.00178460251571986,0.0171461176535311,0.02361));
#900=CARTESIAN_POINT('',(-0.00233678332666521,0.017211174182987,0.02361));
#901=CARTESIAN_POINT('',(-0.00205539318208499,0.0167316373371303,0.02361));
#902=CARTESIAN_POINT('',(-0.00233678332666521,0.017211174182987,0.02361));
#903=CARTESIAN_POINT('',(-0.00219171638481441,0.0166744325483211,0.0236099999999922));
#904=CARTESIAN_POINT('',(-0.00233678332666521,0.017211174182987,0.0236099999999844));
#905=CARTESIAN_POINT('',(-0.00255119947314452,0.0177932234392459,0.02361));
#906=CARTESIAN_POINT('',(-0.000878660338884904,0.0167005105436836,0.0216));
#907=CARTESIAN_POINT('',(-0.00171762851761895,0.0172486300639332,0.02361));
#908=CARTESIAN_POINT('',(-0.00255119947314452,0.0177932234392459,0.02361));
#909=CARTESIAN_POINT('',(-0.00255119947314452,0.0177932234392459,0.02361));
#910=CARTESIAN_POINT('',(-0.00255119947314452,0.0177932234392459,0.02361));
#911=CARTESIAN_POINT('',(-0.00255119947314452,0.0177932234392459,0.02361));
#912=CARTESIAN_POINT('',(-0.00255119947314452,0.0177932234392459,0.02361));
#913=CARTESIAN_POINT('',(-0.00233678332666521,0.017211174182987,0.0234735245712378));
#914=CARTESIAN_POINT('',(-0.00237482604916379,0.0171529448508257,0.0244690288296113));
#915=CARTESIAN_POINT('',(-0.0021223671801859,0.0166291249267281,0.02361));
#916=CARTESIAN_POINT('',(-0.002299327445719,0.0165920193739407,0.02361));
#917=CARTESIAN_POINT('',(-0.0029188325829241,0.0169967580365077,0.02361));
#918=CARTESIAN_POINT('',(-0.00291883258292411,0.0169967580365077,0.02361));
#919=CARTESIAN_POINT('',(-0.0021223671801859,0.0166291249267281,0.02361));
#920=CARTESIAN_POINT('',(-0.0021223671801859,0.0166291249267281,0.02361));
#921=CARTESIAN_POINT('',(-0.00295593813571148,0.0171737183020408,0.02361));
#922=CARTESIAN_POINT('',(-0.00295593813571148,0.0171737183020408,0.02361));
#923=CARTESIAN_POINT('',(-0.00233678332666521,0.017211174182987,0.0234735245712378));
#924=CARTESIAN_POINT('',(-0.00239501265882653,0.0172492169054856,0.0244690288296113));
#925=CARTESIAN_POINT('',(-0.0021223671801859,0.0166291249267281,0.02361));
#926=CARTESIAN_POINT('',(-0.00295593813571148,0.0171737183020408,0.02361));
#927=CARTESIAN_POINT('',(-0.0021223671801859,0.0166291249267281,0.02361));
#928=CARTESIAN_POINT('',(-0.0021223671801859,0.0166291249267281,0.02361));
#929=CARTESIAN_POINT('',(-0.00233678332666521,0.017211174182987,0.0234735245712378));
#930=CARTESIAN_POINT('',(-0.0022785539945039,0.0171731314604884,0.0244690288296113));
#931=CARTESIAN_POINT('',(-0.0021223671801859,0.0166291249267281,0.02361));
#932=CARTESIAN_POINT('',(-0.0021223671801859,0.0166291249267281,0.02361));
#933=CARTESIAN_POINT('',(-0.0021223671801859,0.0166291249267281,0.02361));
#934=CARTESIAN_POINT('',(-0.0021223671801859,0.0166291249267281,0.02361));
#935=CARTESIAN_POINT('',(-0.0021223671801859,0.0166291249267281,0.02361));
#936=CARTESIAN_POINT('',(-0.00175473407040632,0.0174255903294663,0.02361));
#937=CARTESIAN_POINT('',(-0.002299327445719,0.0165920193739407,0.02361));
#938=CARTESIAN_POINT('',(-0.002299327445719,0.0165920193739407,0.02361));
#939=CARTESIAN_POINT('',(-0.00171762851761895,0.0172486300639332,0.02361));
#940=CARTESIAN_POINT('',(-0.0021223671801859,0.0166291249267281,0.02361));
#941=CARTESIAN_POINT('',(-0.00295593813571148,0.0171737183020408,0.02361));
#942=CARTESIAN_POINT('',(-0.00295593813571148,0.0171737183020408,0.02361));
#943=CARTESIAN_POINT('',(-0.0021223671801859,0.0166291249267281,0.02361));
#944=CARTESIAN_POINT('',(-0.00204509099214272,0.0165786384026971,0.0216000000000003));
#945=CARTESIAN_POINT('',(-0.00209140250313739,0.0166088949056633,0.0222702640033208));
#946=CARTESIAN_POINT('',(-0.00213920015721804,0.0166401223441857,0.0229403871570476));
#947=CARTESIAN_POINT('',(-0.00219171638481254,0.0166744325483199,0.0236099999999978));
#948=CARTESIAN_POINT('',(-0.0021223671801859,0.0166291249267281,0.02361));
#949=CARTESIAN_POINT('',(-0.00288658893108366,0.0171284106804482,0.0236099999999977));
#950=CARTESIAN_POINT('',(-0.00293910520258503,0.0171627209132678,0.02294038659721));
#951=CARTESIAN_POINT('',(-0.00298690279275269,0.0171939483100344,0.0222702642928884));
#952=CARTESIAN_POINT('',(-0.00303321432375486,0.017224204826072,0.0216000000000003));
#953=CARTESIAN_POINT('',(-0.00233678332666521,0.017211174182987,0.0216));
#954=CARTESIAN_POINT('',(-0.00225401982412657,0.0166613685785684,0.0236099999999951));
#955=CARTESIAN_POINT('',(-0.00228833005694619,0.016608852307067,0.0229403865972074));
#956=CARTESIAN_POINT('',(-0.00231955745371256,0.0165610547168995,0.0222702642928883));
#957=CARTESIAN_POINT('',(-0.0023498139697502,0.0165147431858973,0.0216000000000003));
#958=CARTESIAN_POINT('',(-0.00233678332666521,0.017211174182987,0.0216));
#959=CARTESIAN_POINT('',(-0.00296931910695517,0.0169194818484645,0.0216));
#960=CARTESIAN_POINT('',(-0.00293906260398894,0.0169657933594592,0.0222702640033207));
#961=CARTESIAN_POINT('',(-0.00290783516546659,0.0170135910135396,0.0229403871570447));
#962=CARTESIAN_POINT('',(-0.00287352496133244,0.0170661072411341,0.0236099999999952));
#963=CARTESIAN_POINT('',(-0.00175473407040632,0.0174255903294663,0.02361));
#964=CARTESIAN_POINT('',(-0.00284744696596864,0.0157530511952067,0.0216));
#965=CARTESIAN_POINT('',(-0.00291883258292411,0.0169967580365077,0.02361));
#966=CARTESIAN_POINT('',(-0.00291883258292411,0.0169967580365077,0.02361));
#967=CARTESIAN_POINT('',(-0.002299327445719,0.0165920193739407,0.02361));
#968=MECHANICAL_DESIGN_GEOMETRIC_PRESENTATION_REPRESENTATION('',(#547),
#969);
#969=(
GEOMETRIC_REPRESENTATION_CONTEXT(3)
GLOBAL_UNCERTAINTY_ASSIGNED_CONTEXT((#970))
GLOBAL_UNIT_ASSIGNED_CONTEXT((#973,#972,#971))
REPRESENTATION_CONTEXT('Part 93','TOP_LEVEL_ASSEMBLY_PART')
);
#970=UNCERTAINTY_MEASURE_WITH_UNIT(LENGTH_MEASURE(2.E-5),#973,
'DISTANCE_ACCURACY_VALUE','Maximum Tolerance applied to model');
#971=(
NAMED_UNIT(*)
SI_UNIT($,.STERADIAN.)
SOLID_ANGLE_UNIT()
);
#972=(
NAMED_UNIT(*)
PLANE_ANGLE_UNIT()
SI_UNIT($,.RADIAN.)
);
#973=(
LENGTH_UNIT()
NAMED_UNIT(*)
SI_UNIT($,.METRE.)
);
#974=PRODUCT_DEFINITION_SHAPE('','',#975);
#975=PRODUCT_DEFINITION('','',#977,#976);
#976=PRODUCT_DEFINITION_CONTEXT('',#983,'design');
#977=PRODUCT_DEFINITION_FORMATION_WITH_SPECIFIED_SOURCE('','',#979,
 .NOT_KNOWN.);
#978=PRODUCT_RELATED_PRODUCT_CATEGORY('','',(#979));
#979=PRODUCT('Part 93','Part 93','Part 93',(#981));
#980=PRODUCT_CATEGORY('','');
#981=PRODUCT_CONTEXT('',#983,'mechanical');
#982=APPLICATION_PROTOCOL_DEFINITION('international standard',
'automotive_design',2010,#983);
#983=APPLICATION_CONTEXT(
'core data for automotive mechanical design processes');
ENDSEC;
END-ISO-10303-21;
