ISO-10303-21;
HEADER;
/* Generated by software containing ST-Developer
 * from STEP Tools, Inc. (www.steptools.com) 
 */
/* OPTION: using custom renumber hook */

FILE_DESCRIPTION(
/* description */ ('STEP AP214',
'CAx-IF Rec.Pracs.---User Defined Attributes---1.5---2016-08-15'),
/* implementation_level */ '2;1');

FILE_NAME(
/* name */ '6a65b5443184da9fa51bbead',
/* time_stamp */ '2026-07-26T07:20:36Z',
/* author */ (''),
/* organization */ (''),
/* preprocessor_version */ 'ST-DEVELOPER v20',
/* originating_system */ 'ONSHAPE BY PTC INC, 1.218',
/* authorisation */ '  ');

FILE_SCHEMA (('AUTOMOTIVE_DESIGN {1 0 10303 214 3 1 1}'));
ENDSEC;

DATA;
#10=PROPERTY_DEFINITION_REPRESENTATION(#14,#12);
#11=PROPERTY_DEFINITION_REPRESENTATION(#15,#13);
#12=REPRESENTATION('',(#16),#197);
#13=REPRESENTATION('',(#17),#197);
#14=PROPERTY_DEFINITION('pmi validation property','',#202);
#15=PROPERTY_DEFINITION('pmi validation property','',#202);
#16=VALUE_REPRESENTATION_ITEM('number of annotations',COUNT_MEASURE(0.));
#17=VALUE_REPRESENTATION_ITEM('number of views',COUNT_MEASURE(0.));
#18=SHAPE_REPRESENTATION_RELATIONSHIP('','',#119,#19);
#19=ADVANCED_BREP_SHAPE_REPRESENTATION('',(#117),#197);
#20=TOROIDAL_SURFACE('',#133,0.0040492,4.92E-5);
#21=TOROIDAL_SURFACE('',#134,0.0040492,4.92E-5);
#22=TOROIDAL_SURFACE('',#135,0.0079508,4.92E-5);
#23=TOROIDAL_SURFACE('',#136,0.0079508,4.92E-5);
#24=PLANE('',#124);
#25=PLANE('',#130);
#26=ORIENTED_EDGE('',*,*,#42,.T.);
#27=ORIENTED_EDGE('',*,*,#43,.T.);
#28=ORIENTED_EDGE('',*,*,#44,.T.);
#29=ORIENTED_EDGE('',*,*,#45,.T.);
#30=ORIENTED_EDGE('',*,*,#46,.T.);
#31=ORIENTED_EDGE('',*,*,#47,.T.);
#32=ORIENTED_EDGE('',*,*,#48,.T.);
#33=ORIENTED_EDGE('',*,*,#49,.T.);
#34=ORIENTED_EDGE('',*,*,#48,.F.);
#35=ORIENTED_EDGE('',*,*,#46,.F.);
#36=ORIENTED_EDGE('',*,*,#47,.F.);
#37=ORIENTED_EDGE('',*,*,#44,.F.);
#38=ORIENTED_EDGE('',*,*,#42,.F.);
#39=ORIENTED_EDGE('',*,*,#49,.F.);
#40=ORIENTED_EDGE('',*,*,#45,.F.);
#41=ORIENTED_EDGE('',*,*,#43,.F.);
#42=EDGE_CURVE('',#50,#50,#58,.T.);
#43=EDGE_CURVE('',#51,#51,#59,.T.);
#44=EDGE_CURVE('',#52,#52,#60,.T.);
#45=EDGE_CURVE('',#53,#53,#61,.F.);
#46=EDGE_CURVE('',#54,#54,#62,.F.);
#47=EDGE_CURVE('',#55,#55,#63,.F.);
#48=EDGE_CURVE('',#56,#56,#64,.T.);
#49=EDGE_CURVE('',#57,#57,#65,.F.);
#50=VERTEX_POINT('',#174);
#51=VERTEX_POINT('',#176);
#52=VERTEX_POINT('',#179);
#53=VERTEX_POINT('',#181);
#54=VERTEX_POINT('',#184);
#55=VERTEX_POINT('',#186);
#56=VERTEX_POINT('',#189);
#57=VERTEX_POINT('',#191);
#58=CIRCLE('',#122,0.008);
#59=CIRCLE('',#123,0.008);
#60=CIRCLE('',#125,0.0040492);
#61=CIRCLE('',#126,0.0079508);
#62=CIRCLE('',#128,0.004);
#63=CIRCLE('',#129,0.004);
#64=CIRCLE('',#131,0.0040492);
#65=CIRCLE('',#132,0.0079508);
#66=EDGE_LOOP('',(#26));
#67=EDGE_LOOP('',(#27));
#68=EDGE_LOOP('',(#28));
#69=EDGE_LOOP('',(#29));
#70=EDGE_LOOP('',(#30));
#71=EDGE_LOOP('',(#31));
#72=EDGE_LOOP('',(#32));
#73=EDGE_LOOP('',(#33));
#74=EDGE_LOOP('',(#34));
#75=EDGE_LOOP('',(#35));
#76=EDGE_LOOP('',(#36));
#77=EDGE_LOOP('',(#37));
#78=EDGE_LOOP('',(#38));
#79=EDGE_LOOP('',(#39));
#80=EDGE_LOOP('',(#40));
#81=EDGE_LOOP('',(#41));
#82=FACE_BOUND('',#66,.T.);
#83=FACE_BOUND('',#67,.T.);
#84=FACE_BOUND('',#68,.T.);
#85=FACE_BOUND('',#69,.T.);
#86=FACE_BOUND('',#70,.T.);
#87=FACE_BOUND('',#71,.T.);
#88=FACE_BOUND('',#72,.T.);
#89=FACE_BOUND('',#73,.T.);
#90=FACE_BOUND('',#74,.T.);
#91=FACE_BOUND('',#75,.T.);
#92=FACE_BOUND('',#76,.T.);
#93=FACE_BOUND('',#77,.T.);
#94=FACE_BOUND('',#78,.T.);
#95=FACE_BOUND('',#79,.T.);
#96=FACE_BOUND('',#80,.T.);
#97=FACE_BOUND('',#81,.T.);
#98=CYLINDRICAL_SURFACE('',#121,0.008);
#99=CYLINDRICAL_SURFACE('',#127,0.004);
#100=ADVANCED_FACE('',(#82,#83),#98,.T.);
#101=ADVANCED_FACE('',(#84,#85),#24,.F.);
#102=ADVANCED_FACE('',(#86,#87),#99,.F.);
#103=ADVANCED_FACE('',(#88,#89),#25,.F.);
#104=ADVANCED_FACE('',(#90,#91),#20,.T.);
#105=ADVANCED_FACE('',(#92,#93),#21,.T.);
#106=ADVANCED_FACE('',(#94,#95),#22,.T.);
#107=ADVANCED_FACE('',(#96,#97),#23,.T.);
#108=CLOSED_SHELL('',(#100,#101,#102,#103,#104,#105,#106,#107));
#109=STYLED_ITEM('',(#110),#117);
#110=PRESENTATION_STYLE_ASSIGNMENT((#111));
#111=SURFACE_STYLE_USAGE(.BOTH.,#112);
#112=SURFACE_SIDE_STYLE('',(#113));
#113=SURFACE_STYLE_FILL_AREA(#114);
#114=FILL_AREA_STYLE('',(#115));
#115=FILL_AREA_STYLE_COLOUR('',#116);
#116=COLOUR_RGB('',0.752941176470588,0.752941176470588,0.752941176470588);
#117=MANIFOLD_SOLID_BREP('Part 25',#108);
#118=SHAPE_DEFINITION_REPRESENTATION(#202,#119);
#119=SHAPE_REPRESENTATION('Part 25',(#120),#197);
#120=AXIS2_PLACEMENT_3D('',#171,#137,#138);
#121=AXIS2_PLACEMENT_3D('',#172,#139,#140);
#122=AXIS2_PLACEMENT_3D('',#173,#141,#142);
#123=AXIS2_PLACEMENT_3D('',#175,#143,#144);
#124=AXIS2_PLACEMENT_3D('',#177,#145,#146);
#125=AXIS2_PLACEMENT_3D('',#178,#147,#148);
#126=AXIS2_PLACEMENT_3D('',#180,#149,#150);
#127=AXIS2_PLACEMENT_3D('',#182,#151,#152);
#128=AXIS2_PLACEMENT_3D('',#183,#153,#154);
#129=AXIS2_PLACEMENT_3D('',#185,#155,#156);
#130=AXIS2_PLACEMENT_3D('',#187,#157,#158);
#131=AXIS2_PLACEMENT_3D('',#188,#159,#160);
#132=AXIS2_PLACEMENT_3D('',#190,#161,#162);
#133=AXIS2_PLACEMENT_3D('',#192,#163,#164);
#134=AXIS2_PLACEMENT_3D('',#193,#165,#166);
#135=AXIS2_PLACEMENT_3D('',#194,#167,#168);
#136=AXIS2_PLACEMENT_3D('',#195,#169,#170);
#137=DIRECTION('',(0.,0.,1.));
#138=DIRECTION('',(1.,0.,0.));
#139=DIRECTION('',(0.,0.,-1.));
#140=DIRECTION('',(0.,1.,0.));
#141=DIRECTION('',(0.,0.,1.));
#142=DIRECTION('',(0.,-1.,0.));
#143=DIRECTION('',(0.,0.,-1.));
#144=DIRECTION('',(0.,1.,0.));
#145=DIRECTION('',(0.,0.,-1.));
#146=DIRECTION('',(0.,1.,0.));
#147=DIRECTION('',(0.,0.,-1.));
#148=DIRECTION('',(0.,1.,0.));
#149=DIRECTION('',(0.,0.,-1.));
#150=DIRECTION('',(0.,1.,0.));
#151=DIRECTION('',(0.,0.,-1.));
#152=DIRECTION('',(0.,1.,0.));
#153=DIRECTION('',(0.,0.,1.));
#154=DIRECTION('',(0.,-1.,0.));
#155=DIRECTION('',(0.,0.,-1.));
#156=DIRECTION('',(0.,1.,0.));
#157=DIRECTION('',(0.,0.,1.));
#158=DIRECTION('',(0.,-1.,0.));
#159=DIRECTION('',(0.,0.,1.));
#160=DIRECTION('',(0.,-1.,0.));
#161=DIRECTION('',(0.,0.,1.));
#162=DIRECTION('',(0.,-1.,0.));
#163=DIRECTION('',(0.,0.,1.));
#164=DIRECTION('',(0.,-1.,0.));
#165=DIRECTION('',(0.,0.,-1.));
#166=DIRECTION('',(0.,1.,0.));
#167=DIRECTION('',(0.,0.,1.));
#168=DIRECTION('',(0.,-1.,0.));
#169=DIRECTION('',(0.,0.,-1.));
#170=DIRECTION('',(0.,1.,0.));
#171=CARTESIAN_POINT('',(0.,0.,0.));
#172=CARTESIAN_POINT('',(0.,0.,-0.00246));
#173=CARTESIAN_POINT('',(0.,0.,0.0008692));
#174=CARTESIAN_POINT('',(0.,-0.008,0.0008692));
#175=CARTESIAN_POINT('',(0.,0.,0.0024108));
#176=CARTESIAN_POINT('',(0.,0.008,0.0024108));
#177=CARTESIAN_POINT('',(0.,-0.008,0.00246));
#178=CARTESIAN_POINT('',(0.,0.,0.00246));
#179=CARTESIAN_POINT('',(0.,0.0040492,0.00246));
#180=CARTESIAN_POINT('',(0.,0.,0.00246));
#181=CARTESIAN_POINT('',(0.,0.0079508,0.00246));
#182=CARTESIAN_POINT('',(0.,0.,-0.00246));
#183=CARTESIAN_POINT('',(0.,0.,0.0008692));
#184=CARTESIAN_POINT('',(0.,-0.004,0.0008692));
#185=CARTESIAN_POINT('',(0.,0.,0.0024108));
#186=CARTESIAN_POINT('',(0.,0.004,0.0024108));
#187=CARTESIAN_POINT('',(0.,-0.008,0.00082));
#188=CARTESIAN_POINT('',(0.,0.,0.00082));
#189=CARTESIAN_POINT('',(0.,-0.0040492,0.00082));
#190=CARTESIAN_POINT('',(0.,0.,0.00082));
#191=CARTESIAN_POINT('',(0.,-0.0079508,0.00082));
#192=CARTESIAN_POINT('',(0.,0.,0.0008692));
#193=CARTESIAN_POINT('',(0.,0.,0.0024108));
#194=CARTESIAN_POINT('',(0.,0.,0.0008692));
#195=CARTESIAN_POINT('',(0.,0.,0.0024108));
#196=MECHANICAL_DESIGN_GEOMETRIC_PRESENTATION_REPRESENTATION('',(#109),
#197);
#197=(
GEOMETRIC_REPRESENTATION_CONTEXT(3)
GLOBAL_UNCERTAINTY_ASSIGNED_CONTEXT((#198))
GLOBAL_UNIT_ASSIGNED_CONTEXT((#201,#200,#199))
REPRESENTATION_CONTEXT('Part 25','TOP_LEVEL_ASSEMBLY_PART')
);
#198=UNCERTAINTY_MEASURE_WITH_UNIT(LENGTH_MEASURE(1.E-8),#201,
'DISTANCE_ACCURACY_VALUE','Maximum Tolerance applied to model');
#199=(
NAMED_UNIT(*)
SI_UNIT($,.STERADIAN.)
SOLID_ANGLE_UNIT()
);
#200=(
NAMED_UNIT(*)
PLANE_ANGLE_UNIT()
SI_UNIT($,.RADIAN.)
);
#201=(
LENGTH_UNIT()
NAMED_UNIT(*)
SI_UNIT($,.METRE.)
);
#202=PRODUCT_DEFINITION_SHAPE('','',#203);
#203=PRODUCT_DEFINITION('','',#205,#204);
#204=PRODUCT_DEFINITION_CONTEXT('',#211,'design');
#205=PRODUCT_DEFINITION_FORMATION_WITH_SPECIFIED_SOURCE('','',#207,
 .NOT_KNOWN.);
#206=PRODUCT_RELATED_PRODUCT_CATEGORY('','',(#207));
#207=PRODUCT('Part 25','Part 25','Part 25',(#209));
#208=PRODUCT_CATEGORY('','');
#209=PRODUCT_CONTEXT('',#211,'mechanical');
#210=APPLICATION_PROTOCOL_DEFINITION('international standard',
'automotive_design',2010,#211);
#211=APPLICATION_CONTEXT(
'core data for automotive mechanical design processes');
ENDSEC;
END-ISO-10303-21;
