ISO-10303-21;
HEADER;
/* Generated by software containing ST-Developer
 * from STEP Tools, Inc. (www.steptools.com) 
 */
/* OPTION: using custom renumber hook */

FILE_DESCRIPTION(
/* description */ ('STEP AP214',
'CAx-IF Rec.Pracs.---User Defined Attributes---1.5---2016-08-15'),
/* implementation_level */ '2;1');

FILE_NAME(
/* name */ '6a65b583e8d4adbdd87e10f0',
/* time_stamp */ '2026-07-26T07:21:39Z',
/* author */ (''),
/* organization */ (''),
/* preprocessor_version */ 'ST-DEVELOPER v20',
/* originating_system */ 'ONSHAPE BY PTC INC, 1.218',
/* authorisation */ '  ');

FILE_SCHEMA (('AUTOMOTIVE_DESIGN {1 0 10303 214 3 1 1}'));
ENDSEC;

DATA;
#10=PROPERTY_DEFINITION_REPRESENTATION(#14,#12);
#11=PROPERTY_DEFINITION_REPRESENTATION(#15,#13);
#12=REPRESENTATION('',(#16),#1781);
#13=REPRESENTATION('',(#17),#1781);
#14=PROPERTY_DEFINITION('pmi validation property','',#1786);
#15=PROPERTY_DEFINITION('pmi validation property','',#1786);
#16=VALUE_REPRESENTATION_ITEM('number of annotations',COUNT_MEASURE(0.));
#17=VALUE_REPRESENTATION_ITEM('number of views',COUNT_MEASURE(0.));
#18=SHAPE_REPRESENTATION_RELATIONSHIP('','',#977,#19);
#19=ADVANCED_BREP_SHAPE_REPRESENTATION('',(#975),#1781);
#20=B_SPLINE_CURVE_WITH_KNOTS('',3,(#1601,#1602,#1603,#1604),
 .UNSPECIFIED.,.F.,.F.,(4,4),(0.,1.),.UNSPECIFIED.);
#21=B_SPLINE_CURVE_WITH_KNOTS('',3,(#1608,#1609,#1610,#1611),
 .UNSPECIFIED.,.F.,.F.,(4,4),(0.,1.),.UNSPECIFIED.);
#22=B_SPLINE_CURVE_WITH_KNOTS('',3,(#1615,#1616,#1617,#1618),
 .UNSPECIFIED.,.F.,.F.,(4,4),(0.,1.),.UNSPECIFIED.);
#23=B_SPLINE_CURVE_WITH_KNOTS('',3,(#1619,#1620,#1621,#1622),
 .UNSPECIFIED.,.F.,.F.,(4,4),(0.,1.),.UNSPECIFIED.);
#24=B_SPLINE_CURVE_WITH_KNOTS('',3,(#1626,#1627,#1628,#1629),
 .UNSPECIFIED.,.F.,.F.,(4,4),(0.,1.),.UNSPECIFIED.);
#25=B_SPLINE_CURVE_WITH_KNOTS('',3,(#1632,#1633,#1634,#1635),
 .UNSPECIFIED.,.F.,.F.,(4,4),(0.,1.),.UNSPECIFIED.);
#26=B_SPLINE_CURVE_WITH_KNOTS('',3,(#1636,#1637,#1638,#1639),
 .UNSPECIFIED.,.F.,.F.,(4,4),(0.,1.),.UNSPECIFIED.);
#27=B_SPLINE_CURVE_WITH_KNOTS('',3,(#1643,#1644,#1645,#1646),
 .UNSPECIFIED.,.F.,.F.,(4,4),(0.,1.),.UNSPECIFIED.);
#28=B_SPLINE_CURVE_WITH_KNOTS('',3,(#1678,#1679,#1680,#1681,#1682,#1683,
#1684,#1685,#1686,#1687,#1688,#1689,#1690,#1691),.UNSPECIFIED.,.F.,.F.,
(4,1,1,1,1,1,1,1,1,1,1,4),(0.,0.125,0.25,0.3125,0.375,0.4375,0.5,0.5625,
0.625,0.75,0.875,1.),.UNSPECIFIED.);
#29=B_SPLINE_CURVE_WITH_KNOTS('',3,(#1694,#1695,#1696,#1697,#1698,#1699,
#1700,#1701,#1702,#1703,#1704,#1705,#1706,#1707),.UNSPECIFIED.,.F.,.F.,
(4,1,1,1,1,1,1,1,1,1,1,4),(0.,0.125,0.25,0.3125,0.375,0.4375,0.5,0.5625,
0.625,0.75,0.875,1.),.UNSPECIFIED.);
#30=B_SPLINE_CURVE_WITH_KNOTS('',3,(#1712,#1713,#1714,#1715,#1716,#1717,
#1718,#1719,#1720,#1721,#1722,#1723,#1724,#1725,#1726,#1727,#1728,#1729,
#1730,#1731,#1732,#1733,#1734,#1735,#1736,#1737,#1738,#1739,#1740,#1741,
#1742),.UNSPECIFIED.,.F.,.F.,(4,1,1,1,1,1,1,1,1,1,1,1,1,1,1,1,1,1,1,1,1,
1,1,1,1,1,1,1,4),(0.,0.03125,0.0625,0.09375,0.125,0.15625,0.1875,0.25,0.3125,
0.34375,0.375,0.40625,0.4375,0.46875,0.5,0.53125,0.5625,0.59375,0.625,0.65625,
0.6875,0.75,0.8125,0.84375,0.875,0.90625,0.9375,0.96875,1.),
 .UNSPECIFIED.);
#31=B_SPLINE_CURVE_WITH_KNOTS('',3,(#1745,#1746,#1747,#1748,#1749,#1750,
#1751,#1752,#1753,#1754,#1755,#1756,#1757,#1758,#1759,#1760,#1761,#1762,
#1763,#1764,#1765,#1766,#1767,#1768,#1769,#1770,#1771,#1772,#1773,#1774,
#1775),.UNSPECIFIED.,.F.,.F.,(4,1,1,1,1,1,1,1,1,1,1,1,1,1,1,1,1,1,1,1,1,
1,1,1,1,1,1,1,4),(0.,0.03125,0.0625,0.09375,0.125,0.15625,0.1875,0.25,0.3125,
0.34375,0.375,0.40625,0.4375,0.46875,0.5,0.53125,0.5625,0.59375,0.625,0.65625,
0.6875,0.75,0.8125,0.84375,0.875,0.90625,0.9375,0.96875,1.),
 .UNSPECIFIED.);
#32=TOROIDAL_SURFACE('',#1062,0.0015,0.0005);
#33=TOROIDAL_SURFACE('',#1067,0.00150000000000002,0.0005);
#34=TOROIDAL_SURFACE('',#1069,0.0015,0.0005);
#35=TOROIDAL_SURFACE('',#1072,0.0015,0.0005);
#36=TOROIDAL_SURFACE('',#1075,0.0015,0.0005);
#37=TOROIDAL_SURFACE('',#1077,0.00150000000000001,0.0005);
#38=TOROIDAL_SURFACE('',#1079,0.00150000000000005,0.0005);
#39=TOROIDAL_SURFACE('',#1081,0.0015,0.0005);
#40=TOROIDAL_SURFACE('',#1091,0.00415,0.0005);
#41=TOROIDAL_SURFACE('',#1097,0.0105,0.0005);
#42=CONICAL_SURFACE('',#1051,0.0015500000000402,0.785398163397448);
#43=CONICAL_SURFACE('',#1053,0.0015500000000402,0.785398163397448);
#44=CONICAL_SURFACE('',#1055,0.00154999999997744,0.78539816330271);
#45=CONICAL_SURFACE('',#1057,0.00154999999997744,0.78539816330271);
#46=CYLINDRICAL_SURFACE('',#989,0.0256);
#47=CYLINDRICAL_SURFACE('',#992,0.0256);
#48=CYLINDRICAL_SURFACE('',#995,0.0256);
#49=CYLINDRICAL_SURFACE('',#998,0.0256);
#50=CYLINDRICAL_SURFACE('',#1001,0.00125000000000001);
#51=CYLINDRICAL_SURFACE('',#1003,0.00125000000000001);
#52=CYLINDRICAL_SURFACE('',#1005,0.00125000000000001);
#53=CYLINDRICAL_SURFACE('',#1007,0.00125000000000001);
#54=CYLINDRICAL_SURFACE('',#1009,0.008);
#55=CYLINDRICAL_SURFACE('',#1014,0.002);
#56=CYLINDRICAL_SURFACE('',#1016,0.0005);
#57=CYLINDRICAL_SURFACE('',#1019,0.002);
#58=CYLINDRICAL_SURFACE('',#1024,0.002);
#59=CYLINDRICAL_SURFACE('',#1026,0.0005);
#60=CYLINDRICAL_SURFACE('',#1029,0.002);
#61=CYLINDRICAL_SURFACE('',#1034,0.002);
#62=CYLINDRICAL_SURFACE('',#1037,0.0005);
#63=CYLINDRICAL_SURFACE('',#1040,0.002);
#64=CYLINDRICAL_SURFACE('',#1044,0.002);
#65=CYLINDRICAL_SURFACE('',#1046,0.0005);
#66=CYLINDRICAL_SURFACE('',#1049,0.002);
#67=CYLINDRICAL_SURFACE('',#1083,0.00365);
#68=CYLINDRICAL_SURFACE('',#1085,0.0005);
#69=CYLINDRICAL_SURFACE('',#1086,0.0165);
#70=CYLINDRICAL_SURFACE('',#1088,0.0005);
#71=CYLINDRICAL_SURFACE('',#1089,0.0005);
#72=CYLINDRICAL_SURFACE('',#1090,0.0005);
#73=CYLINDRICAL_SURFACE('',#1095,0.011);
#74=CIRCLE('',#980,0.0256);
#75=CIRCLE('',#981,0.0256);
#76=CIRCLE('',#982,0.0256);
#77=CIRCLE('',#983,0.0256);
#78=CIRCLE('',#984,0.00125000000000001);
#79=CIRCLE('',#985,0.00125000000000001);
#80=CIRCLE('',#986,0.00125000000000001);
#81=CIRCLE('',#987,0.00125000000000001);
#82=CIRCLE('',#988,0.008);
#83=CIRCLE('',#990,0.0256);
#84=CIRCLE('',#993,0.0256);
#85=CIRCLE('',#996,0.0256);
#86=CIRCLE('',#999,0.0256);
#87=CIRCLE('',#1002,0.00125000000000001);
#88=CIRCLE('',#1004,0.00125000000000001);
#89=CIRCLE('',#1006,0.00125000000000001);
#90=CIRCLE('',#1008,0.00125000000000001);
#91=CIRCLE('',#1010,0.008);
#92=CIRCLE('',#1012,0.002);
#93=CIRCLE('',#1013,0.002);
#94=CIRCLE('',#1015,0.002);
#95=CIRCLE('',#1017,0.0005);
#96=CIRCLE('',#1018,0.0005);
#97=CIRCLE('',#1020,0.002);
#98=CIRCLE('',#1021,0.002);
#99=CIRCLE('',#1023,0.002);
#100=CIRCLE('',#1025,0.002);
#101=CIRCLE('',#1027,0.0005);
#102=CIRCLE('',#1028,0.0005);
#103=CIRCLE('',#1030,0.002);
#104=CIRCLE('',#1031,0.002);
#105=CIRCLE('',#1033,0.002);
#106=CIRCLE('',#1035,0.002);
#107=CIRCLE('',#1036,0.002);
#108=CIRCLE('',#1038,0.0005);
#109=CIRCLE('',#1039,0.0005);
#110=CIRCLE('',#1041,0.002);
#111=CIRCLE('',#1043,0.002);
#112=CIRCLE('',#1045,0.002);
#113=CIRCLE('',#1047,0.0005);
#114=CIRCLE('',#1048,0.0005);
#115=CIRCLE('',#1050,0.002);
#116=CIRCLE('',#1052,0.0015500000000402);
#117=CIRCLE('',#1054,0.0015500000000402);
#118=CIRCLE('',#1056,0.00154999999997744);
#119=CIRCLE('',#1058,0.00154999999997744);
#120=CIRCLE('',#1060,0.00365);
#121=CIRCLE('',#1063,0.0005);
#122=CIRCLE('',#1065,0.0165);
#123=CIRCLE('',#1068,0.0005);
#124=CIRCLE('',#1070,0.0005);
#125=CIRCLE('',#1073,0.0005);
#126=CIRCLE('',#1076,0.0005);
#127=CIRCLE('',#1078,0.0005);
#128=CIRCLE('',#1080,0.0005);
#129=CIRCLE('',#1082,0.0005);
#130=CIRCLE('',#1084,0.00365);
#131=CIRCLE('',#1087,0.0165);
#132=CIRCLE('',#1093,0.011);
#133=CIRCLE('',#1096,0.011);
#134=ORIENTED_EDGE('',*,*,#390,.F.);
#135=ORIENTED_EDGE('',*,*,#391,.F.);
#136=ORIENTED_EDGE('',*,*,#392,.F.);
#137=ORIENTED_EDGE('',*,*,#393,.F.);
#138=ORIENTED_EDGE('',*,*,#394,.F.);
#139=ORIENTED_EDGE('',*,*,#395,.F.);
#140=ORIENTED_EDGE('',*,*,#396,.F.);
#141=ORIENTED_EDGE('',*,*,#397,.F.);
#142=ORIENTED_EDGE('',*,*,#398,.F.);
#143=ORIENTED_EDGE('',*,*,#399,.F.);
#144=ORIENTED_EDGE('',*,*,#400,.F.);
#145=ORIENTED_EDGE('',*,*,#401,.F.);
#146=ORIENTED_EDGE('',*,*,#402,.F.);
#147=ORIENTED_EDGE('',*,*,#403,.F.);
#148=ORIENTED_EDGE('',*,*,#404,.F.);
#149=ORIENTED_EDGE('',*,*,#405,.F.);
#150=ORIENTED_EDGE('',*,*,#397,.T.);
#151=ORIENTED_EDGE('',*,*,#406,.F.);
#152=ORIENTED_EDGE('',*,*,#407,.F.);
#153=ORIENTED_EDGE('',*,*,#408,.T.);
#154=ORIENTED_EDGE('',*,*,#409,.F.);
#155=ORIENTED_EDGE('',*,*,#390,.T.);
#156=ORIENTED_EDGE('',*,*,#405,.T.);
#157=ORIENTED_EDGE('',*,*,#410,.F.);
#158=ORIENTED_EDGE('',*,*,#411,.F.);
#159=ORIENTED_EDGE('',*,*,#409,.T.);
#160=ORIENTED_EDGE('',*,*,#412,.F.);
#161=ORIENTED_EDGE('',*,*,#413,.F.);
#162=ORIENTED_EDGE('',*,*,#391,.T.);
#163=ORIENTED_EDGE('',*,*,#414,.F.);
#164=ORIENTED_EDGE('',*,*,#415,.F.);
#165=ORIENTED_EDGE('',*,*,#416,.T.);
#166=ORIENTED_EDGE('',*,*,#417,.F.);
#167=ORIENTED_EDGE('',*,*,#392,.T.);
#168=ORIENTED_EDGE('',*,*,#413,.T.);
#169=ORIENTED_EDGE('',*,*,#418,.F.);
#170=ORIENTED_EDGE('',*,*,#419,.F.);
#171=ORIENTED_EDGE('',*,*,#417,.T.);
#172=ORIENTED_EDGE('',*,*,#420,.F.);
#173=ORIENTED_EDGE('',*,*,#421,.F.);
#174=ORIENTED_EDGE('',*,*,#393,.T.);
#175=ORIENTED_EDGE('',*,*,#421,.T.);
#176=ORIENTED_EDGE('',*,*,#422,.T.);
#177=ORIENTED_EDGE('',*,*,#423,.T.);
#178=ORIENTED_EDGE('',*,*,#424,.T.);
#179=ORIENTED_EDGE('',*,*,#425,.T.);
#180=ORIENTED_EDGE('',*,*,#426,.T.);
#181=ORIENTED_EDGE('',*,*,#427,.T.);
#182=ORIENTED_EDGE('',*,*,#394,.T.);
#183=ORIENTED_EDGE('',*,*,#427,.F.);
#184=ORIENTED_EDGE('',*,*,#428,.F.);
#185=ORIENTED_EDGE('',*,*,#429,.F.);
#186=ORIENTED_EDGE('',*,*,#395,.T.);
#187=ORIENTED_EDGE('',*,*,#429,.T.);
#188=ORIENTED_EDGE('',*,*,#430,.T.);
#189=ORIENTED_EDGE('',*,*,#431,.T.);
#190=ORIENTED_EDGE('',*,*,#432,.T.);
#191=ORIENTED_EDGE('',*,*,#433,.T.);
#192=ORIENTED_EDGE('',*,*,#434,.T.);
#193=ORIENTED_EDGE('',*,*,#403,.T.);
#194=ORIENTED_EDGE('',*,*,#396,.T.);
#195=ORIENTED_EDGE('',*,*,#398,.T.);
#196=ORIENTED_EDGE('',*,*,#435,.F.);
#197=ORIENTED_EDGE('',*,*,#399,.T.);
#198=ORIENTED_EDGE('',*,*,#436,.F.);
#199=ORIENTED_EDGE('',*,*,#400,.T.);
#200=ORIENTED_EDGE('',*,*,#437,.F.);
#201=ORIENTED_EDGE('',*,*,#401,.T.);
#202=ORIENTED_EDGE('',*,*,#438,.F.);
#203=ORIENTED_EDGE('',*,*,#439,.F.);
#204=ORIENTED_EDGE('',*,*,#402,.T.);
#205=ORIENTED_EDGE('',*,*,#440,.F.);
#206=ORIENTED_EDGE('',*,*,#441,.F.);
#207=ORIENTED_EDGE('',*,*,#442,.F.);
#208=ORIENTED_EDGE('',*,*,#410,.T.);
#209=ORIENTED_EDGE('',*,*,#404,.T.);
#210=ORIENTED_EDGE('',*,*,#434,.F.);
#211=ORIENTED_EDGE('',*,*,#411,.T.);
#212=ORIENTED_EDGE('',*,*,#442,.T.);
#213=ORIENTED_EDGE('',*,*,#443,.T.);
#214=ORIENTED_EDGE('',*,*,#444,.T.);
#215=ORIENTED_EDGE('',*,*,#445,.F.);
#216=ORIENTED_EDGE('',*,*,#406,.T.);
#217=ORIENTED_EDGE('',*,*,#446,.T.);
#218=ORIENTED_EDGE('',*,*,#447,.T.);
#219=ORIENTED_EDGE('',*,*,#448,.T.);
#220=ORIENTED_EDGE('',*,*,#449,.T.);
#221=ORIENTED_EDGE('',*,*,#407,.T.);
#222=ORIENTED_EDGE('',*,*,#450,.T.);
#223=ORIENTED_EDGE('',*,*,#449,.F.);
#224=ORIENTED_EDGE('',*,*,#451,.F.);
#225=ORIENTED_EDGE('',*,*,#452,.F.);
#226=ORIENTED_EDGE('',*,*,#418,.T.);
#227=ORIENTED_EDGE('',*,*,#412,.T.);
#228=ORIENTED_EDGE('',*,*,#408,.F.);
#229=ORIENTED_EDGE('',*,*,#419,.T.);
#230=ORIENTED_EDGE('',*,*,#452,.T.);
#231=ORIENTED_EDGE('',*,*,#453,.T.);
#232=ORIENTED_EDGE('',*,*,#454,.T.);
#233=ORIENTED_EDGE('',*,*,#455,.F.);
#234=ORIENTED_EDGE('',*,*,#414,.T.);
#235=ORIENTED_EDGE('',*,*,#456,.T.);
#236=ORIENTED_EDGE('',*,*,#457,.T.);
#237=ORIENTED_EDGE('',*,*,#458,.T.);
#238=ORIENTED_EDGE('',*,*,#459,.T.);
#239=ORIENTED_EDGE('',*,*,#415,.T.);
#240=ORIENTED_EDGE('',*,*,#460,.T.);
#241=ORIENTED_EDGE('',*,*,#459,.F.);
#242=ORIENTED_EDGE('',*,*,#461,.F.);
#243=ORIENTED_EDGE('',*,*,#462,.F.);
#244=ORIENTED_EDGE('',*,*,#422,.F.);
#245=ORIENTED_EDGE('',*,*,#420,.T.);
#246=ORIENTED_EDGE('',*,*,#416,.F.);
#247=ORIENTED_EDGE('',*,*,#463,.T.);
#248=ORIENTED_EDGE('',*,*,#464,.T.);
#249=ORIENTED_EDGE('',*,*,#425,.F.);
#250=ORIENTED_EDGE('',*,*,#465,.T.);
#251=ORIENTED_EDGE('',*,*,#466,.F.);
#252=ORIENTED_EDGE('',*,*,#467,.T.);
#253=ORIENTED_EDGE('',*,*,#468,.T.);
#254=ORIENTED_EDGE('',*,*,#424,.F.);
#255=ORIENTED_EDGE('',*,*,#423,.F.);
#256=ORIENTED_EDGE('',*,*,#462,.T.);
#257=ORIENTED_EDGE('',*,*,#469,.T.);
#258=ORIENTED_EDGE('',*,*,#470,.T.);
#259=ORIENTED_EDGE('',*,*,#464,.F.);
#260=ORIENTED_EDGE('',*,*,#471,.F.);
#261=ORIENTED_EDGE('',*,*,#472,.F.);
#262=ORIENTED_EDGE('',*,*,#430,.F.);
#263=ORIENTED_EDGE('',*,*,#428,.T.);
#264=ORIENTED_EDGE('',*,*,#426,.F.);
#265=ORIENTED_EDGE('',*,*,#473,.T.);
#266=ORIENTED_EDGE('',*,*,#440,.T.);
#267=ORIENTED_EDGE('',*,*,#433,.F.);
#268=ORIENTED_EDGE('',*,*,#474,.T.);
#269=ORIENTED_EDGE('',*,*,#475,.F.);
#270=ORIENTED_EDGE('',*,*,#476,.T.);
#271=ORIENTED_EDGE('',*,*,#477,.T.);
#272=ORIENTED_EDGE('',*,*,#432,.F.);
#273=ORIENTED_EDGE('',*,*,#431,.F.);
#274=ORIENTED_EDGE('',*,*,#472,.T.);
#275=ORIENTED_EDGE('',*,*,#478,.T.);
#276=ORIENTED_EDGE('',*,*,#479,.T.);
#277=ORIENTED_EDGE('',*,*,#480,.F.);
#278=ORIENTED_EDGE('',*,*,#435,.T.);
#279=ORIENTED_EDGE('',*,*,#481,.F.);
#280=ORIENTED_EDGE('',*,*,#436,.T.);
#281=ORIENTED_EDGE('',*,*,#482,.F.);
#282=ORIENTED_EDGE('',*,*,#437,.T.);
#283=ORIENTED_EDGE('',*,*,#483,.F.);
#284=ORIENTED_EDGE('',*,*,#438,.T.);
#285=ORIENTED_EDGE('',*,*,#439,.T.);
#286=ORIENTED_EDGE('',*,*,#484,.T.);
#287=ORIENTED_EDGE('',*,*,#443,.F.);
#288=ORIENTED_EDGE('',*,*,#441,.T.);
#289=ORIENTED_EDGE('',*,*,#473,.F.);
#290=ORIENTED_EDGE('',*,*,#485,.T.);
#291=ORIENTED_EDGE('',*,*,#446,.F.);
#292=ORIENTED_EDGE('',*,*,#444,.F.);
#293=ORIENTED_EDGE('',*,*,#486,.T.);
#294=ORIENTED_EDGE('',*,*,#487,.T.);
#295=ORIENTED_EDGE('',*,*,#488,.T.);
#296=ORIENTED_EDGE('',*,*,#467,.F.);
#297=ORIENTED_EDGE('',*,*,#489,.T.);
#298=ORIENTED_EDGE('',*,*,#490,.T.);
#299=ORIENTED_EDGE('',*,*,#491,.T.);
#300=ORIENTED_EDGE('',*,*,#457,.F.);
#301=ORIENTED_EDGE('',*,*,#492,.T.);
#302=ORIENTED_EDGE('',*,*,#493,.T.);
#303=ORIENTED_EDGE('',*,*,#494,.T.);
#304=ORIENTED_EDGE('',*,*,#447,.F.);
#305=ORIENTED_EDGE('',*,*,#487,.F.);
#306=ORIENTED_EDGE('',*,*,#495,.T.);
#307=ORIENTED_EDGE('',*,*,#496,.T.);
#308=ORIENTED_EDGE('',*,*,#476,.F.);
#309=ORIENTED_EDGE('',*,*,#497,.T.);
#310=ORIENTED_EDGE('',*,*,#498,.T.);
#311=ORIENTED_EDGE('',*,*,#499,.T.);
#312=ORIENTED_EDGE('',*,*,#481,.T.);
#313=ORIENTED_EDGE('',*,*,#482,.T.);
#314=ORIENTED_EDGE('',*,*,#483,.T.);
#315=ORIENTED_EDGE('',*,*,#480,.T.);
#316=ORIENTED_EDGE('',*,*,#500,.F.);
#317=ORIENTED_EDGE('',*,*,#453,.F.);
#318=ORIENTED_EDGE('',*,*,#451,.T.);
#319=ORIENTED_EDGE('',*,*,#448,.F.);
#320=ORIENTED_EDGE('',*,*,#501,.T.);
#321=ORIENTED_EDGE('',*,*,#450,.F.);
#322=ORIENTED_EDGE('',*,*,#445,.T.);
#323=ORIENTED_EDGE('',*,*,#494,.F.);
#324=ORIENTED_EDGE('',*,*,#456,.F.);
#325=ORIENTED_EDGE('',*,*,#454,.F.);
#326=ORIENTED_EDGE('',*,*,#502,.T.);
#327=ORIENTED_EDGE('',*,*,#492,.F.);
#328=ORIENTED_EDGE('',*,*,#503,.F.);
#329=ORIENTED_EDGE('',*,*,#469,.F.);
#330=ORIENTED_EDGE('',*,*,#461,.T.);
#331=ORIENTED_EDGE('',*,*,#458,.F.);
#332=ORIENTED_EDGE('',*,*,#455,.T.);
#333=ORIENTED_EDGE('',*,*,#491,.F.);
#334=ORIENTED_EDGE('',*,*,#504,.T.);
#335=ORIENTED_EDGE('',*,*,#460,.F.);
#336=ORIENTED_EDGE('',*,*,#478,.F.);
#337=ORIENTED_EDGE('',*,*,#471,.T.);
#338=ORIENTED_EDGE('',*,*,#463,.F.);
#339=ORIENTED_EDGE('',*,*,#505,.T.);
#340=ORIENTED_EDGE('',*,*,#468,.F.);
#341=ORIENTED_EDGE('',*,*,#499,.F.);
#342=ORIENTED_EDGE('',*,*,#506,.T.);
#343=ORIENTED_EDGE('',*,*,#465,.F.);
#344=ORIENTED_EDGE('',*,*,#507,.T.);
#345=ORIENTED_EDGE('',*,*,#489,.F.);
#346=ORIENTED_EDGE('',*,*,#466,.T.);
#347=ORIENTED_EDGE('',*,*,#470,.F.);
#348=ORIENTED_EDGE('',*,*,#477,.F.);
#349=ORIENTED_EDGE('',*,*,#496,.F.);
#350=ORIENTED_EDGE('',*,*,#508,.T.);
#351=ORIENTED_EDGE('',*,*,#474,.F.);
#352=ORIENTED_EDGE('',*,*,#509,.T.);
#353=ORIENTED_EDGE('',*,*,#497,.F.);
#354=ORIENTED_EDGE('',*,*,#475,.T.);
#355=ORIENTED_EDGE('',*,*,#479,.F.);
#356=ORIENTED_EDGE('',*,*,#484,.F.);
#357=ORIENTED_EDGE('',*,*,#510,.F.);
#358=ORIENTED_EDGE('',*,*,#486,.F.);
#359=ORIENTED_EDGE('',*,*,#485,.F.);
#360=ORIENTED_EDGE('',*,*,#508,.F.);
#361=ORIENTED_EDGE('',*,*,#495,.F.);
#362=ORIENTED_EDGE('',*,*,#488,.F.);
#363=ORIENTED_EDGE('',*,*,#511,.F.);
#364=ORIENTED_EDGE('',*,*,#506,.F.);
#365=ORIENTED_EDGE('',*,*,#498,.F.);
#366=ORIENTED_EDGE('',*,*,#509,.F.);
#367=ORIENTED_EDGE('',*,*,#505,.F.);
#368=ORIENTED_EDGE('',*,*,#502,.F.);
#369=ORIENTED_EDGE('',*,*,#500,.T.);
#370=ORIENTED_EDGE('',*,*,#501,.F.);
#371=ORIENTED_EDGE('',*,*,#493,.F.);
#372=ORIENTED_EDGE('',*,*,#504,.F.);
#373=ORIENTED_EDGE('',*,*,#490,.F.);
#374=ORIENTED_EDGE('',*,*,#507,.F.);
#375=ORIENTED_EDGE('',*,*,#503,.T.);
#376=ORIENTED_EDGE('',*,*,#512,.T.);
#377=ORIENTED_EDGE('',*,*,#513,.T.);
#378=ORIENTED_EDGE('',*,*,#510,.T.);
#379=ORIENTED_EDGE('',*,*,#511,.T.);
#380=ORIENTED_EDGE('',*,*,#514,.T.);
#381=ORIENTED_EDGE('',*,*,#515,.T.);
#382=ORIENTED_EDGE('',*,*,#516,.T.);
#383=ORIENTED_EDGE('',*,*,#513,.F.);
#384=ORIENTED_EDGE('',*,*,#512,.F.);
#385=ORIENTED_EDGE('',*,*,#514,.F.);
#386=ORIENTED_EDGE('',*,*,#517,.T.);
#387=ORIENTED_EDGE('',*,*,#517,.F.);
#388=ORIENTED_EDGE('',*,*,#516,.F.);
#389=ORIENTED_EDGE('',*,*,#515,.F.);
#390=EDGE_CURVE('',#518,#519,#606,.F.);
#391=EDGE_CURVE('',#520,#518,#74,.T.);
#392=EDGE_CURVE('',#521,#520,#607,.T.);
#393=EDGE_CURVE('',#522,#521,#75,.T.);
#394=EDGE_CURVE('',#523,#522,#608,.T.);
#395=EDGE_CURVE('',#524,#523,#76,.T.);
#396=EDGE_CURVE('',#525,#524,#609,.F.);
#397=EDGE_CURVE('',#519,#525,#77,.T.);
#398=EDGE_CURVE('',#526,#526,#78,.T.);
#399=EDGE_CURVE('',#527,#527,#79,.T.);
#400=EDGE_CURVE('',#528,#528,#80,.T.);
#401=EDGE_CURVE('',#529,#529,#81,.T.);
#402=EDGE_CURVE('',#530,#530,#82,.T.);
#403=EDGE_CURVE('',#531,#525,#610,.T.);
#404=EDGE_CURVE('',#532,#531,#83,.T.);
#405=EDGE_CURVE('',#519,#532,#611,.F.);
#406=EDGE_CURVE('',#533,#534,#612,.F.);
#407=EDGE_CURVE('',#535,#533,#613,.T.);
#408=EDGE_CURVE('',#535,#536,#614,.F.);
#409=EDGE_CURVE('',#518,#536,#615,.F.);
#410=EDGE_CURVE('',#537,#532,#616,.T.);
#411=EDGE_CURVE('',#534,#537,#617,.F.);
#412=EDGE_CURVE('',#538,#536,#84,.T.);
#413=EDGE_CURVE('',#520,#538,#618,.F.);
#414=EDGE_CURVE('',#539,#540,#619,.F.);
#415=EDGE_CURVE('',#541,#539,#620,.T.);
#416=EDGE_CURVE('',#541,#542,#621,.T.);
#417=EDGE_CURVE('',#521,#542,#622,.F.);
#418=EDGE_CURVE('',#543,#538,#623,.T.);
#419=EDGE_CURVE('',#540,#543,#624,.F.);
#420=EDGE_CURVE('',#544,#542,#85,.T.);
#421=EDGE_CURVE('',#522,#544,#625,.F.);
#422=EDGE_CURVE('',#544,#545,#626,.T.);
#423=EDGE_CURVE('',#545,#546,#627,.T.);
#424=EDGE_CURVE('',#546,#547,#628,.F.);
#425=EDGE_CURVE('',#547,#548,#629,.F.);
#426=EDGE_CURVE('',#548,#549,#630,.T.);
#427=EDGE_CURVE('',#549,#523,#631,.T.);
#428=EDGE_CURVE('',#550,#549,#86,.T.);
#429=EDGE_CURVE('',#524,#550,#632,.F.);
#430=EDGE_CURVE('',#550,#551,#633,.T.);
#431=EDGE_CURVE('',#551,#552,#634,.T.);
#432=EDGE_CURVE('',#552,#553,#635,.F.);
#433=EDGE_CURVE('',#553,#554,#636,.F.);
#434=EDGE_CURVE('',#554,#531,#637,.T.);
#435=EDGE_CURVE('',#555,#555,#87,.T.);
#436=EDGE_CURVE('',#556,#556,#88,.T.);
#437=EDGE_CURVE('',#557,#557,#89,.T.);
#438=EDGE_CURVE('',#558,#558,#90,.T.);
#439=EDGE_CURVE('',#559,#559,#91,.T.);
#440=EDGE_CURVE('',#560,#554,#92,.F.);
#441=EDGE_CURVE('',#561,#560,#638,.T.);
#442=EDGE_CURVE('',#537,#561,#93,.T.);
#443=EDGE_CURVE('',#561,#562,#639,.T.);
#444=EDGE_CURVE('',#562,#534,#94,.F.);
#445=EDGE_CURVE('',#533,#563,#95,.F.);
#446=EDGE_CURVE('',#534,#564,#96,.T.);
#447=EDGE_CURVE('',#564,#563,#640,.T.);
#448=EDGE_CURVE('',#565,#566,#641,.T.);
#449=EDGE_CURVE('',#566,#535,#97,.F.);
#450=EDGE_CURVE('',#533,#565,#98,.T.);
#451=EDGE_CURVE('',#567,#566,#642,.T.);
#452=EDGE_CURVE('',#543,#567,#99,.F.);
#453=EDGE_CURVE('',#567,#568,#643,.F.);
#454=EDGE_CURVE('',#568,#540,#100,.T.);
#455=EDGE_CURVE('',#539,#569,#101,.F.);
#456=EDGE_CURVE('',#540,#570,#102,.T.);
#457=EDGE_CURVE('',#570,#569,#644,.T.);
#458=EDGE_CURVE('',#571,#572,#645,.T.);
#459=EDGE_CURVE('',#572,#541,#103,.F.);
#460=EDGE_CURVE('',#539,#571,#104,.T.);
#461=EDGE_CURVE('',#573,#572,#646,.T.);
#462=EDGE_CURVE('',#545,#573,#105,.T.);
#463=EDGE_CURVE('',#574,#575,#647,.T.);
#464=EDGE_CURVE('',#575,#548,#106,.F.);
#465=EDGE_CURVE('',#547,#574,#107,.T.);
#466=EDGE_CURVE('',#576,#546,#108,.T.);
#467=EDGE_CURVE('',#576,#577,#648,.T.);
#468=EDGE_CURVE('',#577,#547,#109,.F.);
#469=EDGE_CURVE('',#573,#578,#649,.T.);
#470=EDGE_CURVE('',#578,#546,#110,.F.);
#471=EDGE_CURVE('',#579,#575,#650,.T.);
#472=EDGE_CURVE('',#551,#579,#111,.F.);
#473=EDGE_CURVE('',#580,#560,#651,.T.);
#474=EDGE_CURVE('',#553,#580,#112,.T.);
#475=EDGE_CURVE('',#581,#552,#113,.T.);
#476=EDGE_CURVE('',#581,#582,#652,.T.);
#477=EDGE_CURVE('',#582,#553,#114,.F.);
#478=EDGE_CURVE('',#579,#583,#653,.F.);
#479=EDGE_CURVE('',#583,#552,#115,.T.);
#480=EDGE_CURVE('',#584,#584,#116,.F.);
#481=EDGE_CURVE('',#585,#585,#117,.F.);
#482=EDGE_CURVE('',#586,#586,#118,.F.);
#483=EDGE_CURVE('',#587,#587,#119,.F.);
#484=EDGE_CURVE('',#588,#588,#120,.F.);
#485=EDGE_CURVE('',#580,#562,#654,.F.);
#486=EDGE_CURVE('',#562,#589,#121,.F.);
#487=EDGE_CURVE('',#589,#564,#20,.F.);
#488=EDGE_CURVE('',#590,#590,#122,.T.);
#489=EDGE_CURVE('',#576,#591,#21,.T.);
#490=EDGE_CURVE('',#591,#592,#655,.T.);
#491=EDGE_CURVE('',#592,#569,#22,.T.);
#492=EDGE_CURVE('',#570,#593,#23,.T.);
#493=EDGE_CURVE('',#593,#594,#656,.T.);
#494=EDGE_CURVE('',#594,#563,#24,.T.);
#495=EDGE_CURVE('',#589,#595,#657,.T.);
#496=EDGE_CURVE('',#595,#582,#25,.T.);
#497=EDGE_CURVE('',#581,#596,#26,.T.);
#498=EDGE_CURVE('',#596,#597,#658,.T.);
#499=EDGE_CURVE('',#597,#577,#27,.T.);
#500=EDGE_CURVE('',#568,#565,#659,.F.);
#501=EDGE_CURVE('',#594,#565,#123,.T.);
#502=EDGE_CURVE('',#568,#593,#124,.F.);
#503=EDGE_CURVE('',#578,#571,#660,.F.);
#504=EDGE_CURVE('',#592,#571,#125,.T.);
#505=EDGE_CURVE('',#574,#583,#661,.F.);
#506=EDGE_CURVE('',#597,#574,#126,.T.);
#507=EDGE_CURVE('',#578,#591,#127,.F.);
#508=EDGE_CURVE('',#595,#580,#128,.T.);
#509=EDGE_CURVE('',#583,#596,#129,.F.);
#510=EDGE_CURVE('',#598,#598,#130,.T.);
#511=EDGE_CURVE('',#599,#599,#131,.F.);
#512=EDGE_CURVE('',#600,#601,#28,.F.);
#513=EDGE_CURVE('',#601,#600,#29,.F.);
#514=EDGE_CURVE('',#602,#602,#132,.T.);
#515=EDGE_CURVE('',#603,#604,#30,.T.);
#516=EDGE_CURVE('',#604,#603,#31,.T.);
#517=EDGE_CURVE('',#605,#605,#133,.T.);
#518=VERTEX_POINT('',#1397);
#519=VERTEX_POINT('',#1398);
#520=VERTEX_POINT('',#1400);
#521=VERTEX_POINT('',#1402);
#522=VERTEX_POINT('',#1404);
#523=VERTEX_POINT('',#1406);
#524=VERTEX_POINT('',#1408);
#525=VERTEX_POINT('',#1410);
#526=VERTEX_POINT('',#1413);
#527=VERTEX_POINT('',#1415);
#528=VERTEX_POINT('',#1417);
#529=VERTEX_POINT('',#1419);
#530=VERTEX_POINT('',#1421);
#531=VERTEX_POINT('',#1424);
#532=VERTEX_POINT('',#1426);
#533=VERTEX_POINT('',#1430);
#534=VERTEX_POINT('',#1431);
#535=VERTEX_POINT('',#1433);
#536=VERTEX_POINT('',#1435);
#537=VERTEX_POINT('',#1438);
#538=VERTEX_POINT('',#1442);
#539=VERTEX_POINT('',#1446);
#540=VERTEX_POINT('',#1447);
#541=VERTEX_POINT('',#1449);
#542=VERTEX_POINT('',#1451);
#543=VERTEX_POINT('',#1454);
#544=VERTEX_POINT('',#1458);
#545=VERTEX_POINT('',#1462);
#546=VERTEX_POINT('',#1464);
#547=VERTEX_POINT('',#1466);
#548=VERTEX_POINT('',#1468);
#549=VERTEX_POINT('',#1470);
#550=VERTEX_POINT('',#1474);
#551=VERTEX_POINT('',#1478);
#552=VERTEX_POINT('',#1480);
#553=VERTEX_POINT('',#1482);
#554=VERTEX_POINT('',#1484);
#555=VERTEX_POINT('',#1488);
#556=VERTEX_POINT('',#1491);
#557=VERTEX_POINT('',#1494);
#558=VERTEX_POINT('',#1497);
#559=VERTEX_POINT('',#1500);
#560=VERTEX_POINT('',#1503);
#561=VERTEX_POINT('',#1505);
#562=VERTEX_POINT('',#1509);
#563=VERTEX_POINT('',#1513);
#564=VERTEX_POINT('',#1515);
#565=VERTEX_POINT('',#1519);
#566=VERTEX_POINT('',#1520);
#567=VERTEX_POINT('',#1525);
#568=VERTEX_POINT('',#1529);
#569=VERTEX_POINT('',#1533);
#570=VERTEX_POINT('',#1535);
#571=VERTEX_POINT('',#1539);
#572=VERTEX_POINT('',#1540);
#573=VERTEX_POINT('',#1545);
#574=VERTEX_POINT('',#1549);
#575=VERTEX_POINT('',#1550);
#576=VERTEX_POINT('',#1555);
#577=VERTEX_POINT('',#1557);
#578=VERTEX_POINT('',#1561);
#579=VERTEX_POINT('',#1565);
#580=VERTEX_POINT('',#1569);
#581=VERTEX_POINT('',#1573);
#582=VERTEX_POINT('',#1575);
#583=VERTEX_POINT('',#1579);
#584=VERTEX_POINT('',#1583);
#585=VERTEX_POINT('',#1586);
#586=VERTEX_POINT('',#1589);
#587=VERTEX_POINT('',#1592);
#588=VERTEX_POINT('',#1595);
#589=VERTEX_POINT('',#1600);
#590=VERTEX_POINT('',#1607);
#591=VERTEX_POINT('',#1612);
#592=VERTEX_POINT('',#1614);
#593=VERTEX_POINT('',#1623);
#594=VERTEX_POINT('',#1625);
#595=VERTEX_POINT('',#1631);
#596=VERTEX_POINT('',#1640);
#597=VERTEX_POINT('',#1642);
#598=VERTEX_POINT('',#1669);
#599=VERTEX_POINT('',#1673);
#600=VERTEX_POINT('',#1692);
#601=VERTEX_POINT('',#1693);
#602=VERTEX_POINT('',#1710);
#603=VERTEX_POINT('',#1743);
#604=VERTEX_POINT('',#1744);
#605=VERTEX_POINT('',#1778);
#606=LINE('',#1396,#662);
#607=LINE('',#1401,#663);
#608=LINE('',#1405,#664);
#609=LINE('',#1409,#665);
#610=LINE('',#1423,#666);
#611=LINE('',#1427,#667);
#612=LINE('',#1429,#668);
#613=LINE('',#1432,#669);
#614=LINE('',#1434,#670);
#615=LINE('',#1436,#671);
#616=LINE('',#1437,#672);
#617=LINE('',#1439,#673);
#618=LINE('',#1443,#674);
#619=LINE('',#1445,#675);
#620=LINE('',#1448,#676);
#621=LINE('',#1450,#677);
#622=LINE('',#1452,#678);
#623=LINE('',#1453,#679);
#624=LINE('',#1455,#680);
#625=LINE('',#1459,#681);
#626=LINE('',#1461,#682);
#627=LINE('',#1463,#683);
#628=LINE('',#1465,#684);
#629=LINE('',#1467,#685);
#630=LINE('',#1469,#686);
#631=LINE('',#1471,#687);
#632=LINE('',#1475,#688);
#633=LINE('',#1477,#689);
#634=LINE('',#1479,#690);
#635=LINE('',#1481,#691);
#636=LINE('',#1483,#692);
#637=LINE('',#1485,#693);
#638=LINE('',#1504,#694);
#639=LINE('',#1508,#695);
#640=LINE('',#1516,#696);
#641=LINE('',#1518,#697);
#642=LINE('',#1524,#698);
#643=LINE('',#1528,#699);
#644=LINE('',#1536,#700);
#645=LINE('',#1538,#701);
#646=LINE('',#1544,#702);
#647=LINE('',#1548,#703);
#648=LINE('',#1556,#704);
#649=LINE('',#1560,#705);
#650=LINE('',#1564,#706);
#651=LINE('',#1568,#707);
#652=LINE('',#1574,#708);
#653=LINE('',#1578,#709);
#654=LINE('',#1597,#710);
#655=LINE('',#1613,#711);
#656=LINE('',#1624,#712);
#657=LINE('',#1630,#713);
#658=LINE('',#1641,#714);
#659=LINE('',#1648,#715);
#660=LINE('',#1654,#716);
#661=LINE('',#1658,#717);
#662=VECTOR('',#1102,1.);
#663=VECTOR('',#1105,1.);
#664=VECTOR('',#1108,1.);
#665=VECTOR('',#1111,1.);
#666=VECTOR('',#1126,1.);
#667=VECTOR('',#1129,1.);
#668=VECTOR('',#1132,1.);
#669=VECTOR('',#1133,1.);
#670=VECTOR('',#1134,1.);
#671=VECTOR('',#1135,1.);
#672=VECTOR('',#1136,1.);
#673=VECTOR('',#1137,1.);
#674=VECTOR('',#1142,1.);
#675=VECTOR('',#1145,1.);
#676=VECTOR('',#1146,1.);
#677=VECTOR('',#1147,1.);
#678=VECTOR('',#1148,1.);
#679=VECTOR('',#1149,1.);
#680=VECTOR('',#1150,1.);
#681=VECTOR('',#1155,1.);
#682=VECTOR('',#1158,1.);
#683=VECTOR('',#1159,1.);
#684=VECTOR('',#1160,1.);
#685=VECTOR('',#1161,1.);
#686=VECTOR('',#1162,1.);
#687=VECTOR('',#1163,1.);
#688=VECTOR('',#1168,1.);
#689=VECTOR('',#1171,1.);
#690=VECTOR('',#1172,1.);
#691=VECTOR('',#1173,1.);
#692=VECTOR('',#1174,1.);
#693=VECTOR('',#1175,1.);
#694=VECTOR('',#1200,1.);
#695=VECTOR('',#1205,1.);
#696=VECTOR('',#1214,1.);
#697=VECTOR('',#1217,1.);
#698=VECTOR('',#1224,1.);
#699=VECTOR('',#1229,1.);
#700=VECTOR('',#1238,1.);
#701=VECTOR('',#1241,1.);
#702=VECTOR('',#1248,1.);
#703=VECTOR('',#1253,1.);
#704=VECTOR('',#1262,1.);
#705=VECTOR('',#1267,1.);
#706=VECTOR('',#1272,1.);
#707=VECTOR('',#1277,1.);
#708=VECTOR('',#1284,1.);
#709=VECTOR('',#1289,1.);
#710=VECTOR('',#1314,1.);
#711=VECTOR('',#1323,1.);
#712=VECTOR('',#1324,1.);
#713=VECTOR('',#1325,1.);
#714=VECTOR('',#1326,1.);
#715=VECTOR('',#1329,1.);
#716=VECTOR('',#1340,1.);
#717=VECTOR('',#1347,1.);
#718=EDGE_LOOP('',(#134,#135,#136,#137,#138,#139,#140,#141));
#719=EDGE_LOOP('',(#142));
#720=EDGE_LOOP('',(#143));
#721=EDGE_LOOP('',(#144));
#722=EDGE_LOOP('',(#145));
#723=EDGE_LOOP('',(#146));
#724=EDGE_LOOP('',(#147,#148,#149,#150));
#725=EDGE_LOOP('',(#151,#152,#153,#154,#155,#156,#157,#158));
#726=EDGE_LOOP('',(#159,#160,#161,#162));
#727=EDGE_LOOP('',(#163,#164,#165,#166,#167,#168,#169,#170));
#728=EDGE_LOOP('',(#171,#172,#173,#174));
#729=EDGE_LOOP('',(#175,#176,#177,#178,#179,#180,#181,#182));
#730=EDGE_LOOP('',(#183,#184,#185,#186));
#731=EDGE_LOOP('',(#187,#188,#189,#190,#191,#192,#193,#194));
#732=EDGE_LOOP('',(#195));
#733=EDGE_LOOP('',(#196));
#734=EDGE_LOOP('',(#197));
#735=EDGE_LOOP('',(#198));
#736=EDGE_LOOP('',(#199));
#737=EDGE_LOOP('',(#200));
#738=EDGE_LOOP('',(#201));
#739=EDGE_LOOP('',(#202));
#740=EDGE_LOOP('',(#203));
#741=EDGE_LOOP('',(#204));
#742=EDGE_LOOP('',(#205,#206,#207,#208,#209,#210));
#743=EDGE_LOOP('',(#211,#212,#213,#214));
#744=EDGE_LOOP('',(#215,#216,#217,#218));
#745=EDGE_LOOP('',(#219,#220,#221,#222));
#746=EDGE_LOOP('',(#223,#224,#225,#226,#227,#228));
#747=EDGE_LOOP('',(#229,#230,#231,#232));
#748=EDGE_LOOP('',(#233,#234,#235,#236));
#749=EDGE_LOOP('',(#237,#238,#239,#240));
#750=EDGE_LOOP('',(#241,#242,#243,#244,#245,#246));
#751=EDGE_LOOP('',(#247,#248,#249,#250));
#752=EDGE_LOOP('',(#251,#252,#253,#254));
#753=EDGE_LOOP('',(#255,#256,#257,#258));
#754=EDGE_LOOP('',(#259,#260,#261,#262,#263,#264));
#755=EDGE_LOOP('',(#265,#266,#267,#268));
#756=EDGE_LOOP('',(#269,#270,#271,#272));
#757=EDGE_LOOP('',(#273,#274,#275,#276));
#758=EDGE_LOOP('',(#277));
#759=EDGE_LOOP('',(#278));
#760=EDGE_LOOP('',(#279));
#761=EDGE_LOOP('',(#280));
#762=EDGE_LOOP('',(#281));
#763=EDGE_LOOP('',(#282));
#764=EDGE_LOOP('',(#283));
#765=EDGE_LOOP('',(#284));
#766=EDGE_LOOP('',(#285));
#767=EDGE_LOOP('',(#286));
#768=EDGE_LOOP('',(#287,#288,#289,#290));
#769=EDGE_LOOP('',(#291,#292,#293,#294));
#770=EDGE_LOOP('',(#295));
#771=EDGE_LOOP('',(#296,#297,#298,#299,#300,#301,#302,#303,#304,#305,#306,
#307,#308,#309,#310,#311));
#772=EDGE_LOOP('',(#312));
#773=EDGE_LOOP('',(#313));
#774=EDGE_LOOP('',(#314));
#775=EDGE_LOOP('',(#315));
#776=EDGE_LOOP('',(#316,#317,#318,#319));
#777=EDGE_LOOP('',(#320,#321,#322,#323));
#778=EDGE_LOOP('',(#324,#325,#326,#327));
#779=EDGE_LOOP('',(#328,#329,#330,#331));
#780=EDGE_LOOP('',(#332,#333,#334,#335));
#781=EDGE_LOOP('',(#336,#337,#338,#339));
#782=EDGE_LOOP('',(#340,#341,#342,#343));
#783=EDGE_LOOP('',(#344,#345,#346,#347));
#784=EDGE_LOOP('',(#348,#349,#350,#351));
#785=EDGE_LOOP('',(#352,#353,#354,#355));
#786=EDGE_LOOP('',(#356));
#787=EDGE_LOOP('',(#357));
#788=EDGE_LOOP('',(#358,#359,#360,#361));
#789=EDGE_LOOP('',(#362));
#790=EDGE_LOOP('',(#363));
#791=EDGE_LOOP('',(#364,#365,#366,#367));
#792=EDGE_LOOP('',(#368,#369,#370,#371));
#793=EDGE_LOOP('',(#372,#373,#374,#375));
#794=EDGE_LOOP('',(#376,#377));
#795=EDGE_LOOP('',(#378));
#796=EDGE_LOOP('',(#379));
#797=EDGE_LOOP('',(#380));
#798=EDGE_LOOP('',(#381,#382));
#799=EDGE_LOOP('',(#383,#384));
#800=EDGE_LOOP('',(#385));
#801=EDGE_LOOP('',(#386));
#802=EDGE_LOOP('',(#387));
#803=EDGE_LOOP('',(#388,#389));
#804=FACE_BOUND('',#718,.T.);
#805=FACE_BOUND('',#719,.T.);
#806=FACE_BOUND('',#720,.T.);
#807=FACE_BOUND('',#721,.T.);
#808=FACE_BOUND('',#722,.T.);
#809=FACE_BOUND('',#723,.T.);
#810=FACE_BOUND('',#724,.T.);
#811=FACE_BOUND('',#725,.T.);
#812=FACE_BOUND('',#726,.T.);
#813=FACE_BOUND('',#727,.T.);
#814=FACE_BOUND('',#728,.T.);
#815=FACE_BOUND('',#729,.T.);
#816=FACE_BOUND('',#730,.T.);
#817=FACE_BOUND('',#731,.T.);
#818=FACE_BOUND('',#732,.T.);
#819=FACE_BOUND('',#733,.T.);
#820=FACE_BOUND('',#734,.T.);
#821=FACE_BOUND('',#735,.T.);
#822=FACE_BOUND('',#736,.T.);
#823=FACE_BOUND('',#737,.T.);
#824=FACE_BOUND('',#738,.T.);
#825=FACE_BOUND('',#739,.T.);
#826=FACE_BOUND('',#740,.T.);
#827=FACE_BOUND('',#741,.T.);
#828=FACE_BOUND('',#742,.T.);
#829=FACE_BOUND('',#743,.T.);
#830=FACE_BOUND('',#744,.T.);
#831=FACE_BOUND('',#745,.T.);
#832=FACE_BOUND('',#746,.T.);
#833=FACE_BOUND('',#747,.T.);
#834=FACE_BOUND('',#748,.T.);
#835=FACE_BOUND('',#749,.T.);
#836=FACE_BOUND('',#750,.T.);
#837=FACE_BOUND('',#751,.T.);
#838=FACE_BOUND('',#752,.T.);
#839=FACE_BOUND('',#753,.T.);
#840=FACE_BOUND('',#754,.T.);
#841=FACE_BOUND('',#755,.T.);
#842=FACE_BOUND('',#756,.T.);
#843=FACE_BOUND('',#757,.T.);
#844=FACE_BOUND('',#758,.T.);
#845=FACE_BOUND('',#759,.T.);
#846=FACE_BOUND('',#760,.T.);
#847=FACE_BOUND('',#761,.T.);
#848=FACE_BOUND('',#762,.T.);
#849=FACE_BOUND('',#763,.T.);
#850=FACE_BOUND('',#764,.T.);
#851=FACE_BOUND('',#765,.T.);
#852=FACE_BOUND('',#766,.T.);
#853=FACE_BOUND('',#767,.T.);
#854=FACE_BOUND('',#768,.T.);
#855=FACE_BOUND('',#769,.T.);
#856=FACE_BOUND('',#770,.T.);
#857=FACE_BOUND('',#771,.T.);
#858=FACE_BOUND('',#772,.T.);
#859=FACE_BOUND('',#773,.T.);
#860=FACE_BOUND('',#774,.T.);
#861=FACE_BOUND('',#775,.T.);
#862=FACE_BOUND('',#776,.T.);
#863=FACE_BOUND('',#777,.T.);
#864=FACE_BOUND('',#778,.T.);
#865=FACE_BOUND('',#779,.T.);
#866=FACE_BOUND('',#780,.T.);
#867=FACE_BOUND('',#781,.T.);
#868=FACE_BOUND('',#782,.T.);
#869=FACE_BOUND('',#783,.T.);
#870=FACE_BOUND('',#784,.T.);
#871=FACE_BOUND('',#785,.T.);
#872=FACE_BOUND('',#786,.T.);
#873=FACE_BOUND('',#787,.T.);
#874=FACE_BOUND('',#788,.T.);
#875=FACE_BOUND('',#789,.T.);
#876=FACE_BOUND('',#790,.T.);
#877=FACE_BOUND('',#791,.T.);
#878=FACE_BOUND('',#792,.T.);
#879=FACE_BOUND('',#793,.T.);
#880=FACE_BOUND('',#794,.T.);
#881=FACE_BOUND('',#795,.T.);
#882=FACE_BOUND('',#796,.T.);
#883=FACE_BOUND('',#797,.T.);
#884=FACE_BOUND('',#798,.T.);
#885=FACE_BOUND('',#799,.T.);
#886=FACE_BOUND('',#800,.T.);
#887=FACE_BOUND('',#801,.T.);
#888=FACE_BOUND('',#802,.T.);
#889=FACE_BOUND('',#803,.T.);
#890=PLANE('',#979);
#891=PLANE('',#991);
#892=PLANE('',#994);
#893=PLANE('',#997);
#894=PLANE('',#1000);
#895=PLANE('',#1011);
#896=PLANE('',#1022);
#897=PLANE('',#1032);
#898=PLANE('',#1042);
#899=PLANE('',#1059);
#900=PLANE('',#1061);
#901=PLANE('',#1064);
#902=PLANE('',#1066);
#903=PLANE('',#1071);
#904=PLANE('',#1074);
#905=PLANE('',#1092);
#906=PLANE('',#1094);
#907=ADVANCED_FACE('',(#804,#805,#806,#807,#808,#809),#890,.F.);
#908=ADVANCED_FACE('',(#810),#46,.F.);
#909=ADVANCED_FACE('',(#811),#891,.F.);
#910=ADVANCED_FACE('',(#812),#47,.F.);
#911=ADVANCED_FACE('',(#813),#892,.F.);
#912=ADVANCED_FACE('',(#814),#48,.F.);
#913=ADVANCED_FACE('',(#815),#893,.T.);
#914=ADVANCED_FACE('',(#816),#49,.F.);
#915=ADVANCED_FACE('',(#817),#894,.T.);
#916=ADVANCED_FACE('',(#818,#819),#50,.F.);
#917=ADVANCED_FACE('',(#820,#821),#51,.F.);
#918=ADVANCED_FACE('',(#822,#823),#52,.F.);
#919=ADVANCED_FACE('',(#824,#825),#53,.F.);
#920=ADVANCED_FACE('',(#826,#827),#54,.F.);
#921=ADVANCED_FACE('',(#828),#895,.F.);
#922=ADVANCED_FACE('',(#829),#55,.T.);
#923=ADVANCED_FACE('',(#830),#56,.T.);
#924=ADVANCED_FACE('',(#831),#57,.T.);
#925=ADVANCED_FACE('',(#832),#896,.F.);
#926=ADVANCED_FACE('',(#833),#58,.T.);
#927=ADVANCED_FACE('',(#834),#59,.T.);
#928=ADVANCED_FACE('',(#835),#60,.T.);
#929=ADVANCED_FACE('',(#836),#897,.F.);
#930=ADVANCED_FACE('',(#837),#61,.T.);
#931=ADVANCED_FACE('',(#838),#62,.T.);
#932=ADVANCED_FACE('',(#839),#63,.T.);
#933=ADVANCED_FACE('',(#840),#898,.F.);
#934=ADVANCED_FACE('',(#841),#64,.T.);
#935=ADVANCED_FACE('',(#842),#65,.T.);
#936=ADVANCED_FACE('',(#843),#66,.T.);
#937=ADVANCED_FACE('',(#844,#845),#42,.F.);
#938=ADVANCED_FACE('',(#846,#847),#43,.F.);
#939=ADVANCED_FACE('',(#848,#849),#44,.F.);
#940=ADVANCED_FACE('',(#850,#851),#45,.F.);
#941=ADVANCED_FACE('',(#852,#853),#899,.T.);
#942=ADVANCED_FACE('',(#854),#900,.T.);
#943=ADVANCED_FACE('',(#855),#32,.T.);
#944=ADVANCED_FACE('',(#856,#857,#858,#859,#860,#861),#901,.T.);
#945=ADVANCED_FACE('',(#862),#902,.F.);
#946=ADVANCED_FACE('',(#863),#33,.T.);
#947=ADVANCED_FACE('',(#864),#34,.T.);
#948=ADVANCED_FACE('',(#865),#903,.F.);
#949=ADVANCED_FACE('',(#866),#35,.T.);
#950=ADVANCED_FACE('',(#867),#904,.T.);
#951=ADVANCED_FACE('',(#868),#36,.T.);
#952=ADVANCED_FACE('',(#869),#37,.T.);
#953=ADVANCED_FACE('',(#870),#38,.T.);
#954=ADVANCED_FACE('',(#871),#39,.T.);
#955=ADVANCED_FACE('',(#872,#873),#67,.F.);
#956=ADVANCED_FACE('',(#874),#68,.T.);
#957=ADVANCED_FACE('',(#875,#876),#69,.F.);
#958=ADVANCED_FACE('',(#877),#70,.T.);
#959=ADVANCED_FACE('',(#878),#71,.T.);
#960=ADVANCED_FACE('',(#879),#72,.T.);
#961=ADVANCED_FACE('',(#880,#881),#40,.T.);
#962=ADVANCED_FACE('',(#882,#883),#905,.T.);
#963=ADVANCED_FACE('',(#884,#885),#906,.T.);
#964=ADVANCED_FACE('',(#886,#887),#73,.T.);
#965=ADVANCED_FACE('',(#888,#889),#41,.T.);
#966=CLOSED_SHELL('',(#907,#908,#909,#910,#911,#912,#913,#914,#915,#916,
#917,#918,#919,#920,#921,#922,#923,#924,#925,#926,#927,#928,#929,#930,#931,
#932,#933,#934,#935,#936,#937,#938,#939,#940,#941,#942,#943,#944,#945,#946,
#947,#948,#949,#950,#951,#952,#953,#954,#955,#956,#957,#958,#959,#960,#961,
#962,#963,#964,#965));
#967=STYLED_ITEM('',(#968),#975);
#968=PRESENTATION_STYLE_ASSIGNMENT((#969));
#969=SURFACE_STYLE_USAGE(.BOTH.,#970);
#970=SURFACE_SIDE_STYLE('',(#971));
#971=SURFACE_STYLE_FILL_AREA(#972);
#972=FILL_AREA_STYLE('',(#973));
#973=FILL_AREA_STYLE_COLOUR('',#974);
#974=COLOUR_RGB('',0.6,0.6,0.6);
#975=MANIFOLD_SOLID_BREP('Part 87',#966);
#976=SHAPE_DEFINITION_REPRESENTATION(#1786,#977);
#977=SHAPE_REPRESENTATION('Part 87',(#978),#1781);
#978=AXIS2_PLACEMENT_3D('',#1394,#1098,#1099);
#979=AXIS2_PLACEMENT_3D('',#1395,#1100,#1101);
#980=AXIS2_PLACEMENT_3D('',#1399,#1103,#1104);
#981=AXIS2_PLACEMENT_3D('',#1403,#1106,#1107);
#982=AXIS2_PLACEMENT_3D('',#1407,#1109,#1110);
#983=AXIS2_PLACEMENT_3D('',#1411,#1112,#1113);
#984=AXIS2_PLACEMENT_3D('',#1412,#1114,#1115);
#985=AXIS2_PLACEMENT_3D('',#1414,#1116,#1117);
#986=AXIS2_PLACEMENT_3D('',#1416,#1118,#1119);
#987=AXIS2_PLACEMENT_3D('',#1418,#1120,#1121);
#988=AXIS2_PLACEMENT_3D('',#1420,#1122,#1123);
#989=AXIS2_PLACEMENT_3D('',#1422,#1124,#1125);
#990=AXIS2_PLACEMENT_3D('',#1425,#1127,#1128);
#991=AXIS2_PLACEMENT_3D('',#1428,#1130,#1131);
#992=AXIS2_PLACEMENT_3D('',#1440,#1138,#1139);
#993=AXIS2_PLACEMENT_3D('',#1441,#1140,#1141);
#994=AXIS2_PLACEMENT_3D('',#1444,#1143,#1144);
#995=AXIS2_PLACEMENT_3D('',#1456,#1151,#1152);
#996=AXIS2_PLACEMENT_3D('',#1457,#1153,#1154);
#997=AXIS2_PLACEMENT_3D('',#1460,#1156,#1157);
#998=AXIS2_PLACEMENT_3D('',#1472,#1164,#1165);
#999=AXIS2_PLACEMENT_3D('',#1473,#1166,#1167);
#1000=AXIS2_PLACEMENT_3D('',#1476,#1169,#1170);
#1001=AXIS2_PLACEMENT_3D('',#1486,#1176,#1177);
#1002=AXIS2_PLACEMENT_3D('',#1487,#1178,#1179);
#1003=AXIS2_PLACEMENT_3D('',#1489,#1180,#1181);
#1004=AXIS2_PLACEMENT_3D('',#1490,#1182,#1183);
#1005=AXIS2_PLACEMENT_3D('',#1492,#1184,#1185);
#1006=AXIS2_PLACEMENT_3D('',#1493,#1186,#1187);
#1007=AXIS2_PLACEMENT_3D('',#1495,#1188,#1189);
#1008=AXIS2_PLACEMENT_3D('',#1496,#1190,#1191);
#1009=AXIS2_PLACEMENT_3D('',#1498,#1192,#1193);
#1010=AXIS2_PLACEMENT_3D('',#1499,#1194,#1195);
#1011=AXIS2_PLACEMENT_3D('',#1501,#1196,#1197);
#1012=AXIS2_PLACEMENT_3D('',#1502,#1198,#1199);
#1013=AXIS2_PLACEMENT_3D('',#1506,#1201,#1202);
#1014=AXIS2_PLACEMENT_3D('',#1507,#1203,#1204);
#1015=AXIS2_PLACEMENT_3D('',#1510,#1206,#1207);
#1016=AXIS2_PLACEMENT_3D('',#1511,#1208,#1209);
#1017=AXIS2_PLACEMENT_3D('',#1512,#1210,#1211);
#1018=AXIS2_PLACEMENT_3D('',#1514,#1212,#1213);
#1019=AXIS2_PLACEMENT_3D('',#1517,#1215,#1216);
#1020=AXIS2_PLACEMENT_3D('',#1521,#1218,#1219);
#1021=AXIS2_PLACEMENT_3D('',#1522,#1220,#1221);
#1022=AXIS2_PLACEMENT_3D('',#1523,#1222,#1223);
#1023=AXIS2_PLACEMENT_3D('',#1526,#1225,#1226);
#1024=AXIS2_PLACEMENT_3D('',#1527,#1227,#1228);
#1025=AXIS2_PLACEMENT_3D('',#1530,#1230,#1231);
#1026=AXIS2_PLACEMENT_3D('',#1531,#1232,#1233);
#1027=AXIS2_PLACEMENT_3D('',#1532,#1234,#1235);
#1028=AXIS2_PLACEMENT_3D('',#1534,#1236,#1237);
#1029=AXIS2_PLACEMENT_3D('',#1537,#1239,#1240);
#1030=AXIS2_PLACEMENT_3D('',#1541,#1242,#1243);
#1031=AXIS2_PLACEMENT_3D('',#1542,#1244,#1245);
#1032=AXIS2_PLACEMENT_3D('',#1543,#1246,#1247);
#1033=AXIS2_PLACEMENT_3D('',#1546,#1249,#1250);
#1034=AXIS2_PLACEMENT_3D('',#1547,#1251,#1252);
#1035=AXIS2_PLACEMENT_3D('',#1551,#1254,#1255);
#1036=AXIS2_PLACEMENT_3D('',#1552,#1256,#1257);
#1037=AXIS2_PLACEMENT_3D('',#1553,#1258,#1259);
#1038=AXIS2_PLACEMENT_3D('',#1554,#1260,#1261);
#1039=AXIS2_PLACEMENT_3D('',#1558,#1263,#1264);
#1040=AXIS2_PLACEMENT_3D('',#1559,#1265,#1266);
#1041=AXIS2_PLACEMENT_3D('',#1562,#1268,#1269);
#1042=AXIS2_PLACEMENT_3D('',#1563,#1270,#1271);
#1043=AXIS2_PLACEMENT_3D('',#1566,#1273,#1274);
#1044=AXIS2_PLACEMENT_3D('',#1567,#1275,#1276);
#1045=AXIS2_PLACEMENT_3D('',#1570,#1278,#1279);
#1046=AXIS2_PLACEMENT_3D('',#1571,#1280,#1281);
#1047=AXIS2_PLACEMENT_3D('',#1572,#1282,#1283);
#1048=AXIS2_PLACEMENT_3D('',#1576,#1285,#1286);
#1049=AXIS2_PLACEMENT_3D('',#1577,#1287,#1288);
#1050=AXIS2_PLACEMENT_3D('',#1580,#1290,#1291);
#1051=AXIS2_PLACEMENT_3D('',#1581,#1292,#1293);
#1052=AXIS2_PLACEMENT_3D('',#1582,#1294,#1295);
#1053=AXIS2_PLACEMENT_3D('',#1584,#1296,#1297);
#1054=AXIS2_PLACEMENT_3D('',#1585,#1298,#1299);
#1055=AXIS2_PLACEMENT_3D('',#1587,#1300,#1301);
#1056=AXIS2_PLACEMENT_3D('',#1588,#1302,#1303);
#1057=AXIS2_PLACEMENT_3D('',#1590,#1304,#1305);
#1058=AXIS2_PLACEMENT_3D('',#1591,#1306,#1307);
#1059=AXIS2_PLACEMENT_3D('',#1593,#1308,#1309);
#1060=AXIS2_PLACEMENT_3D('',#1594,#1310,#1311);
#1061=AXIS2_PLACEMENT_3D('',#1596,#1312,#1313);
#1062=AXIS2_PLACEMENT_3D('',#1598,#1315,#1316);
#1063=AXIS2_PLACEMENT_3D('',#1599,#1317,#1318);
#1064=AXIS2_PLACEMENT_3D('',#1605,#1319,#1320);
#1065=AXIS2_PLACEMENT_3D('',#1606,#1321,#1322);
#1066=AXIS2_PLACEMENT_3D('',#1647,#1327,#1328);
#1067=AXIS2_PLACEMENT_3D('',#1649,#1330,#1331);
#1068=AXIS2_PLACEMENT_3D('',#1650,#1332,#1333);
#1069=AXIS2_PLACEMENT_3D('',#1651,#1334,#1335);
#1070=AXIS2_PLACEMENT_3D('',#1652,#1336,#1337);
#1071=AXIS2_PLACEMENT_3D('',#1653,#1338,#1339);
#1072=AXIS2_PLACEMENT_3D('',#1655,#1341,#1342);
#1073=AXIS2_PLACEMENT_3D('',#1656,#1343,#1344);
#1074=AXIS2_PLACEMENT_3D('',#1657,#1345,#1346);
#1075=AXIS2_PLACEMENT_3D('',#1659,#1348,#1349);
#1076=AXIS2_PLACEMENT_3D('',#1660,#1350,#1351);
#1077=AXIS2_PLACEMENT_3D('',#1661,#1352,#1353);
#1078=AXIS2_PLACEMENT_3D('',#1662,#1354,#1355);
#1079=AXIS2_PLACEMENT_3D('',#1663,#1356,#1357);
#1080=AXIS2_PLACEMENT_3D('',#1664,#1358,#1359);
#1081=AXIS2_PLACEMENT_3D('',#1665,#1360,#1361);
#1082=AXIS2_PLACEMENT_3D('',#1666,#1362,#1363);
#1083=AXIS2_PLACEMENT_3D('',#1667,#1364,#1365);
#1084=AXIS2_PLACEMENT_3D('',#1668,#1366,#1367);
#1085=AXIS2_PLACEMENT_3D('',#1670,#1368,#1369);
#1086=AXIS2_PLACEMENT_3D('',#1671,#1370,#1371);
#1087=AXIS2_PLACEMENT_3D('',#1672,#1372,#1373);
#1088=AXIS2_PLACEMENT_3D('',#1674,#1374,#1375);
#1089=AXIS2_PLACEMENT_3D('',#1675,#1376,#1377);
#1090=AXIS2_PLACEMENT_3D('',#1676,#1378,#1379);
#1091=AXIS2_PLACEMENT_3D('',#1677,#1380,#1381);
#1092=AXIS2_PLACEMENT_3D('',#1708,#1382,#1383);
#1093=AXIS2_PLACEMENT_3D('',#1709,#1384,#1385);
#1094=AXIS2_PLACEMENT_3D('',#1711,#1386,#1387);
#1095=AXIS2_PLACEMENT_3D('',#1776,#1388,#1389);
#1096=AXIS2_PLACEMENT_3D('',#1777,#1390,#1391);
#1097=AXIS2_PLACEMENT_3D('',#1779,#1392,#1393);
#1098=DIRECTION('',(0.,0.,1.));
#1099=DIRECTION('',(1.,0.,0.));
#1100=DIRECTION('',(0.,0.,1.));
#1101=DIRECTION('',(-0.00570245086249845,-0.999983740894901,0.));
#1102=DIRECTION('',(-0.00570245086249845,-0.999983740894901,0.));
#1103=DIRECTION('',(0.,0.,1.));
#1104=DIRECTION('',(-0.00570245086249845,-0.999983740894901,0.));
#1105=DIRECTION('',(0.999983740894901,-0.00570245086249845,0.));
#1106=DIRECTION('',(0.,0.,1.));
#1107=DIRECTION('',(-0.00570245086249845,-0.999983740894901,0.));
#1108=DIRECTION('',(-0.00570245086249845,-0.999983740894901,0.));
#1109=DIRECTION('',(0.,0.,1.));
#1110=DIRECTION('',(-0.00570245086249845,-0.999983740894901,0.));
#1111=DIRECTION('',(0.999983740894901,-0.00570245086249845,0.));
#1112=DIRECTION('',(0.,0.,1.));
#1113=DIRECTION('',(-0.00570245086249845,-0.999983740894901,0.));
#1114=DIRECTION('',(0.,0.,-1.));
#1115=DIRECTION('',(0.00570245086249845,0.999983740894901,0.));
#1116=DIRECTION('',(0.,0.,-1.));
#1117=DIRECTION('',(0.00570245086249845,0.999983740894901,0.));
#1118=DIRECTION('',(0.,0.,-1.));
#1119=DIRECTION('',(0.00570245086249845,0.999983740894901,0.));
#1120=DIRECTION('',(0.,0.,-1.));
#1121=DIRECTION('',(0.00570245086249845,0.999983740894901,0.));
#1122=DIRECTION('',(0.,0.,-1.));
#1123=DIRECTION('',(0.00570245086249845,0.999983740894901,0.));
#1124=DIRECTION('',(0.,0.,1.));
#1125=DIRECTION('',(-0.00570245086249845,-0.999983740894901,0.));
#1126=DIRECTION('',(0.,0.,1.));
#1127=DIRECTION('',(0.,0.,1.));
#1128=DIRECTION('',(-0.00570245086249845,-0.999983740894901,0.));
#1129=DIRECTION('',(0.,0.,1.));
#1130=DIRECTION('',(-0.999983740894901,0.00570245086249845,0.));
#1131=DIRECTION('',(-0.00570245086249845,-0.999983740894901,0.));
#1132=DIRECTION('',(-0.00570245086249845,-0.999983740894901,0.));
#1133=DIRECTION('',(0.,0.,1.));
#1134=DIRECTION('',(-0.00570245086249845,-0.999983740894901,0.));
#1135=DIRECTION('',(0.,0.,1.));
#1136=DIRECTION('',(-0.00570245086249845,-0.999983740894901,0.));
#1137=DIRECTION('',(0.,0.,1.));
#1138=DIRECTION('',(0.,0.,1.));
#1139=DIRECTION('',(-0.00570245086249845,-0.999983740894901,0.));
#1140=DIRECTION('',(0.,0.,1.));
#1141=DIRECTION('',(-0.00570245086249845,-0.999983740894901,0.));
#1142=DIRECTION('',(0.,0.,1.));
#1143=DIRECTION('',(0.00570245086249845,0.999983740894901,0.));
#1144=DIRECTION('',(-0.999983740894901,0.00570245086249845,0.));
#1145=DIRECTION('',(-0.999983740894901,0.00570245086249845,0.));
#1146=DIRECTION('',(0.,0.,1.));
#1147=DIRECTION('',(0.999983740894901,-0.00570245086249845,0.));
#1148=DIRECTION('',(0.,0.,1.));
#1149=DIRECTION('',(-0.999983740894901,0.00570245086249845,0.));
#1150=DIRECTION('',(0.,0.,1.));
#1151=DIRECTION('',(0.,0.,1.));
#1152=DIRECTION('',(-0.00570245086249845,-0.999983740894901,0.));
#1153=DIRECTION('',(0.,0.,1.));
#1154=DIRECTION('',(-0.00570245086249845,-0.999983740894901,0.));
#1155=DIRECTION('',(0.,0.,1.));
#1156=DIRECTION('',(-0.999983740894901,0.00570245086249845,0.));
#1157=DIRECTION('',(-0.00570245086249845,-0.999983740894901,0.));
#1158=DIRECTION('',(-0.00570245086249845,-0.999983740894901,0.));
#1159=DIRECTION('',(0.,0.,1.));
#1160=DIRECTION('',(-0.00570245086249845,-0.999983740894901,0.));
#1161=DIRECTION('',(0.,0.,1.));
#1162=DIRECTION('',(-0.00570245086249845,-0.999983740894901,0.));
#1163=DIRECTION('',(0.,0.,1.));
#1164=DIRECTION('',(0.,0.,1.));
#1165=DIRECTION('',(-0.00570245086249845,-0.999983740894901,0.));
#1166=DIRECTION('',(0.,0.,1.));
#1167=DIRECTION('',(-0.00570245086249845,-0.999983740894901,0.));
#1168=DIRECTION('',(0.,0.,1.));
#1169=DIRECTION('',(0.00570245086249845,0.999983740894901,0.));
#1170=DIRECTION('',(-0.999983740894901,0.00570245086249845,0.));
#1171=DIRECTION('',(-0.999983740894901,0.00570245086249845,0.));
#1172=DIRECTION('',(0.,0.,1.));
#1173=DIRECTION('',(-0.999983740894901,0.00570245086249845,0.));
#1174=DIRECTION('',(0.,0.,1.));
#1175=DIRECTION('',(-0.999983740894901,0.00570245086249845,0.));
#1176=DIRECTION('',(0.,0.,-1.));
#1177=DIRECTION('',(0.00570245086249845,0.999983740894901,0.));
#1178=DIRECTION('',(0.,0.,-1.));
#1179=DIRECTION('',(0.00570245086249845,0.999983740894901,0.));
#1180=DIRECTION('',(0.,0.,-1.));
#1181=DIRECTION('',(0.00570245086249845,0.999983740894901,0.));
#1182=DIRECTION('',(0.,0.,-1.));
#1183=DIRECTION('',(0.00570245086249845,0.999983740894901,0.));
#1184=DIRECTION('',(0.,0.,-1.));
#1185=DIRECTION('',(0.00570245086249845,0.999983740894901,0.));
#1186=DIRECTION('',(0.,0.,-1.));
#1187=DIRECTION('',(0.00570245086249845,0.999983740894901,0.));
#1188=DIRECTION('',(0.,0.,-1.));
#1189=DIRECTION('',(0.00570245086249845,0.999983740894901,0.));
#1190=DIRECTION('',(0.,0.,-1.));
#1191=DIRECTION('',(0.00570245086249845,0.999983740894901,0.));
#1192=DIRECTION('',(0.,0.,-1.));
#1193=DIRECTION('',(0.00570245086249845,0.999983740894901,0.));
#1194=DIRECTION('',(0.,0.,-1.));
#1195=DIRECTION('',(0.00570245086249845,0.999983740894901,0.));
#1196=DIRECTION('',(0.,0.,1.));
#1197=DIRECTION('',(-0.00570245086249845,-0.999983740894901,0.));
#1198=DIRECTION('',(0.,0.,-1.));
#1199=DIRECTION('',(0.00570245086249845,0.999983740894901,0.));
#1200=DIRECTION('',(-0.703063042588821,0.711127525937332,0.));
#1201=DIRECTION('',(0.,0.,1.));
#1202=DIRECTION('',(-0.00570245086249845,-0.999983740894901,0.));
#1203=DIRECTION('',(0.,0.,1.));
#1204=DIRECTION('',(-0.00570245086249845,-0.999983740894901,0.));
#1205=DIRECTION('',(0.,0.,1.));
#1206=DIRECTION('',(0.,0.,1.));
#1207=DIRECTION('',(-0.00570245086249845,-0.999983740894901,0.));
#1208=DIRECTION('',(-0.00570245086249845,-0.999983740894901,0.));
#1209=DIRECTION('',(0.999983740894901,-0.00570245086249845,0.));
#1210=DIRECTION('',(0.00570245086249851,0.999983740894901,0.));
#1211=DIRECTION('',(0.999983740894901,-0.00570245086249851,0.));
#1212=DIRECTION('',(-0.00570245086249845,-0.999983740894901,0.));
#1213=DIRECTION('',(0.999983740894901,-0.00570245086249845,0.));
#1214=DIRECTION('',(-0.00570245086249845,-0.999983740894901,0.));
#1215=DIRECTION('',(0.,0.,-1.));
#1216=DIRECTION('',(0.00570245086249845,0.999983740894901,0.));
#1217=DIRECTION('',(0.,0.,-1.));
#1218=DIRECTION('',(0.,0.,-1.));
#1219=DIRECTION('',(0.00570245086249845,0.999983740894901,0.));
#1220=DIRECTION('',(0.,0.,-1.));
#1221=DIRECTION('',(0.00570245086249845,0.999983740894901,0.));
#1222=DIRECTION('',(0.,0.,1.));
#1223=DIRECTION('',(-0.00570245086249845,-0.999983740894901,0.));
#1224=DIRECTION('',(0.711127525937332,0.703063042588821,0.));
#1225=DIRECTION('',(0.,0.,-1.));
#1226=DIRECTION('',(0.00570245086249845,0.999983740894901,0.));
#1227=DIRECTION('',(0.,0.,-1.));
#1228=DIRECTION('',(0.00570245086249845,0.999983740894901,0.));
#1229=DIRECTION('',(0.,0.,-1.));
#1230=DIRECTION('',(0.,0.,-1.));
#1231=DIRECTION('',(0.00570245086249845,0.999983740894901,0.));
#1232=DIRECTION('',(-0.999983740894901,0.00570245086249845,0.));
#1233=DIRECTION('',(-0.00570245086249845,-0.999983740894901,0.));
#1234=DIRECTION('',(0.999983740894901,-0.00570245086249845,0.));
#1235=DIRECTION('',(-0.00570245086249845,-0.999983740894901,0.));
#1236=DIRECTION('',(-0.999983740894901,0.00570245086249845,0.));
#1237=DIRECTION('',(-0.00570245086249845,-0.999983740894901,0.));
#1238=DIRECTION('',(-0.999983740894901,0.00570245086249845,0.));
#1239=DIRECTION('',(0.,0.,-1.));
#1240=DIRECTION('',(0.00570245086249845,0.999983740894901,0.));
#1241=DIRECTION('',(0.,0.,-1.));
#1242=DIRECTION('',(0.,0.,-1.));
#1243=DIRECTION('',(0.00570245086249845,0.999983740894901,0.));
#1244=DIRECTION('',(0.,0.,-1.));
#1245=DIRECTION('',(0.00570245086249845,0.999983740894901,0.));
#1246=DIRECTION('',(0.,0.,1.));
#1247=DIRECTION('',(-0.00570245086249845,-0.999983740894901,0.));
#1248=DIRECTION('',(0.703063042588821,-0.711127525937332,0.));
#1249=DIRECTION('',(0.,0.,1.));
#1250=DIRECTION('',(-0.00570245086249845,-0.999983740894901,0.));
#1251=DIRECTION('',(0.,0.,-1.));
#1252=DIRECTION('',(0.00570245086249845,0.999983740894901,0.));
#1253=DIRECTION('',(0.,0.,-1.));
#1254=DIRECTION('',(0.,0.,-1.));
#1255=DIRECTION('',(0.00570245086249845,0.999983740894901,0.));
#1256=DIRECTION('',(0.,0.,-1.));
#1257=DIRECTION('',(0.00570245086249845,0.999983740894901,0.));
#1258=DIRECTION('',(0.00570245086249845,0.999983740894901,0.));
#1259=DIRECTION('',(-0.999983740894901,0.00570245086249845,0.));
#1260=DIRECTION('',(-0.00570245086249864,-0.999983740894901,0.));
#1261=DIRECTION('',(-0.999983740894901,0.00570245086249864,0.));
#1262=DIRECTION('',(0.00570245086249845,0.999983740894901,0.));
#1263=DIRECTION('',(0.00570245086249845,0.999983740894901,0.));
#1264=DIRECTION('',(-0.999983740894901,0.00570245086249845,0.));
#1265=DIRECTION('',(0.,0.,1.));
#1266=DIRECTION('',(-0.00570245086249845,-0.999983740894901,0.));
#1267=DIRECTION('',(0.,0.,1.));
#1268=DIRECTION('',(0.,0.,1.));
#1269=DIRECTION('',(-0.00570245086249845,-0.999983740894901,0.));
#1270=DIRECTION('',(0.,0.,1.));
#1271=DIRECTION('',(-0.00570245086249845,-0.999983740894901,0.));
#1272=DIRECTION('',(-0.711127525937332,-0.703063042588821,0.));
#1273=DIRECTION('',(0.,0.,-1.));
#1274=DIRECTION('',(0.00570245086249845,0.999983740894901,0.));
#1275=DIRECTION('',(0.,0.,-1.));
#1276=DIRECTION('',(0.00570245086249845,0.999983740894901,0.));
#1277=DIRECTION('',(0.,0.,-1.));
#1278=DIRECTION('',(0.,0.,-1.));
#1279=DIRECTION('',(0.00570245086249845,0.999983740894901,0.));
#1280=DIRECTION('',(0.999983740894901,-0.00570245086249845,0.));
#1281=DIRECTION('',(0.00570245086249845,0.999983740894901,0.));
#1282=DIRECTION('',(-0.999983740894901,0.00570245086249857,0.));
#1283=DIRECTION('',(0.00570245086249857,0.999983740894901,0.));
#1284=DIRECTION('',(0.999983740894901,-0.00570245086249845,0.));
#1285=DIRECTION('',(0.999983740894901,-0.00570245086249845,0.));
#1286=DIRECTION('',(0.00570245086249845,0.999983740894901,0.));
#1287=DIRECTION('',(0.,0.,-1.));
#1288=DIRECTION('',(0.00570245086249845,0.999983740894901,0.));
#1289=DIRECTION('',(0.,0.,-1.));
#1290=DIRECTION('',(0.,0.,-1.));
#1291=DIRECTION('',(0.00570245086249845,0.999983740894901,0.));
#1292=DIRECTION('',(0.,0.,1.));
#1293=DIRECTION('',(-0.00570245086249845,-0.999983740894901,0.));
#1294=DIRECTION('',(0.,0.,1.));
#1295=DIRECTION('',(-0.00570245086249845,-0.999983740894901,0.));
#1296=DIRECTION('',(0.,0.,1.));
#1297=DIRECTION('',(-0.00570245086249845,-0.999983740894901,0.));
#1298=DIRECTION('',(0.,0.,1.));
#1299=DIRECTION('',(-0.00570245086249845,-0.999983740894901,0.));
#1300=DIRECTION('',(0.,0.,1.));
#1301=DIRECTION('',(-0.00570245086249845,-0.999983740894901,0.));
#1302=DIRECTION('',(0.,0.,1.));
#1303=DIRECTION('',(-0.00570245086249845,-0.999983740894901,0.));
#1304=DIRECTION('',(0.,0.,1.));
#1305=DIRECTION('',(-0.00570245086249845,-0.999983740894901,0.));
#1306=DIRECTION('',(0.,0.,1.));
#1307=DIRECTION('',(-0.00570245086249845,-0.999983740894901,0.));
#1308=DIRECTION('',(0.,0.,-1.));
#1309=DIRECTION('',(0.00570245086249845,0.999983740894901,0.));
#1310=DIRECTION('',(0.,0.,-1.));
#1311=DIRECTION('',(0.00570245086249845,0.999983740894901,0.));
#1312=DIRECTION('',(0.711127525937332,0.70306304258882,0.));
#1313=DIRECTION('',(-0.70306304258882,0.711127525937332,0.));
#1314=DIRECTION('',(-0.70306304258882,0.711127525937332,0.));
#1315=DIRECTION('',(0.,0.,1.));
#1316=DIRECTION('',(-0.0057024508625034,-0.999983740894901,0.));
#1317=DIRECTION('',(-0.70306304258882,0.711127525937332,0.));
#1318=DIRECTION('',(0.711127525937332,0.70306304258882,0.));
#1319=DIRECTION('',(0.,0.,1.));
#1320=DIRECTION('',(-0.00570245086249845,-0.999983740894901,0.));
#1321=DIRECTION('',(0.,0.,-1.));
#1322=DIRECTION('',(0.00570245086249845,0.999983740894901,0.));
#1323=DIRECTION('',(0.70306304258882,-0.711127525937332,0.));
#1324=DIRECTION('',(0.711127525937332,0.70306304258882,0.));
#1325=DIRECTION('',(-0.70306304258882,0.711127525937332,0.));
#1326=DIRECTION('',(-0.711127525937332,-0.70306304258882,0.));
#1327=DIRECTION('',(-0.70306304258882,0.711127525937332,0.));
#1328=DIRECTION('',(-0.711127525937332,-0.70306304258882,0.));
#1329=DIRECTION('',(-0.711127525937332,-0.70306304258882,0.));
#1330=DIRECTION('',(0.,0.,1.));
#1331=DIRECTION('',(-0.00570245086245471,-0.999983740894901,0.));
#1332=DIRECTION('',(0.711127525937333,0.703063042588819,0.));
#1333=DIRECTION('',(0.703063042588819,-0.711127525937333,0.));
#1334=DIRECTION('',(0.,0.,1.));
#1335=DIRECTION('',(-0.00570245086245136,-0.999983740894901,0.));
#1336=DIRECTION('',(0.711127525937332,0.70306304258882,0.));
#1337=DIRECTION('',(0.70306304258882,-0.711127525937332,0.));
#1338=DIRECTION('',(0.711127525937332,0.70306304258882,0.));
#1339=DIRECTION('',(-0.70306304258882,0.711127525937332,0.));
#1340=DIRECTION('',(-0.70306304258882,0.711127525937332,0.));
#1341=DIRECTION('',(0.,0.,1.));
#1342=DIRECTION('',(-0.005702450862496,-0.999983740894901,0.));
#1343=DIRECTION('',(0.703063042588819,-0.711127525937333,0.));
#1344=DIRECTION('',(-0.711127525937333,-0.703063042588819,0.));
#1345=DIRECTION('',(-0.70306304258882,0.711127525937332,0.));
#1346=DIRECTION('',(-0.711127525937332,-0.70306304258882,0.));
#1347=DIRECTION('',(-0.711127525937332,-0.70306304258882,0.));
#1348=DIRECTION('',(0.,0.,1.));
#1349=DIRECTION('',(-0.00570245086250079,-0.999983740894901,0.));
#1350=DIRECTION('',(-0.711127525937333,-0.703063042588819,0.));
#1351=DIRECTION('',(-0.703063042588819,0.711127525937333,0.));
#1352=DIRECTION('',(0.,0.,1.));
#1353=DIRECTION('',(-0.00570245086249031,-0.999983740894901,0.));
#1354=DIRECTION('',(0.70306304258882,-0.711127525937332,0.));
#1355=DIRECTION('',(-0.711127525937332,-0.70306304258882,0.));
#1356=DIRECTION('',(0.,0.,1.));
#1357=DIRECTION('',(-0.00570245086250312,-0.999983740894901,0.));
#1358=DIRECTION('',(-0.703063042588819,0.711127525937333,0.));
#1359=DIRECTION('',(0.711127525937333,0.703063042588819,0.));
#1360=DIRECTION('',(0.,0.,1.));
#1361=DIRECTION('',(-0.00570245086249602,-0.999983740894901,0.));
#1362=DIRECTION('',(-0.711127525937332,-0.70306304258882,0.));
#1363=DIRECTION('',(-0.70306304258882,0.711127525937332,0.));
#1364=DIRECTION('',(0.,0.,-1.));
#1365=DIRECTION('',(0.00570245086249845,0.999983740894901,0.));
#1366=DIRECTION('',(0.,0.,-1.));
#1367=DIRECTION('',(0.00570245086249845,0.999983740894901,0.));
#1368=DIRECTION('',(0.70306304258882,-0.711127525937332,0.));
#1369=DIRECTION('',(0.711127525937332,0.70306304258882,0.));
#1370=DIRECTION('',(0.,0.,-1.));
#1371=DIRECTION('',(0.00570245086249845,0.999983740894901,0.));
#1372=DIRECTION('',(0.,0.,-1.));
#1373=DIRECTION('',(0.00570245086249845,0.999983740894901,0.));
#1374=DIRECTION('',(0.711127525937332,0.70306304258882,0.));
#1375=DIRECTION('',(-0.70306304258882,0.711127525937332,0.));
#1376=DIRECTION('',(-0.711127525937332,-0.70306304258882,0.));
#1377=DIRECTION('',(0.70306304258882,-0.711127525937332,0.));
#1378=DIRECTION('',(-0.70306304258882,0.711127525937332,0.));
#1379=DIRECTION('',(-0.711127525937332,-0.70306304258882,0.));
#1380=DIRECTION('',(0.,0.,1.));
#1381=DIRECTION('',(-0.00570245086250109,-0.999983740894901,0.));
#1382=DIRECTION('',(0.,0.,1.));
#1383=DIRECTION('',(-0.00570245086249845,-0.999983740894901,0.));
#1384=DIRECTION('',(0.,0.,-1.));
#1385=DIRECTION('',(0.00570245086249845,0.999983740894901,0.));
#1386=DIRECTION('',(0.,0.,1.));
#1387=DIRECTION('',(-0.00570245086249845,-0.999983740894901,0.));
#1388=DIRECTION('',(0.,0.,-1.));
#1389=DIRECTION('',(0.00570245086249845,0.999983740894901,0.));
#1390=DIRECTION('',(0.,0.,-1.));
#1391=DIRECTION('',(0.00570245086249845,0.999983740894901,0.));
#1392=DIRECTION('',(0.,0.,1.));
#1393=DIRECTION('',(-0.00570245086249903,-0.999983740894901,0.));
#1394=CARTESIAN_POINT('',(0.,0.,0.));
#1395=CARTESIAN_POINT('',(0.0130745766688371,0.0016230382107473,0.061));
#1396=CARTESIAN_POINT('',(0.0340742352276299,0.00150328674263483,0.061));
#1397=CARTESIAN_POINT('',(0.0339907454266355,-0.0131375134217392,0.061));
#1398=CARTESIAN_POINT('',(0.0341577250286244,0.0161440869070088,0.061));
#1399=CARTESIAN_POINT('',(0.0130745766688371,0.00162303821074727,0.061));
#1400=CARTESIAN_POINT('',(0.0275956253650986,-0.0194601101490401,0.061));
#1401=CARTESIAN_POINT('',(0.0129548252007246,-0.0193766203480457,0.061));
#1402=CARTESIAN_POINT('',(-0.00168597496364932,-0.0192931305470512,0.061));
#1403=CARTESIAN_POINT('',(0.0130745766688371,0.00162303821074727,0.061));
#1404=CARTESIAN_POINT('',(-0.00800857169095032,-0.0128980104855141,0.061));
#1405=CARTESIAN_POINT('',(-0.00792508188995586,0.00174278967885976,0.061));
#1406=CARTESIAN_POINT('',(-0.00784159208896141,0.0163835898432336,0.061));
#1407=CARTESIAN_POINT('',(0.0130745766688371,0.00162303821074727,0.061));
#1408=CARTESIAN_POINT('',(-0.00144647202742432,0.0227061865705347,0.061));
#1409=CARTESIAN_POINT('',(0.0131943281369495,0.0226226967695402,0.061));
#1410=CARTESIAN_POINT('',(0.0278351283013234,0.0225392069685458,0.061));
#1411=CARTESIAN_POINT('',(0.0130745766688371,0.00162303821074727,0.061));
#1412=CARTESIAN_POINT('',(-0.00251355930340265,-0.0137883217847549,0.061));
#1413=CARTESIAN_POINT('',(-0.00250643123982453,-0.0125383421086363,0.061));
#1414=CARTESIAN_POINT('',(0.0284859366643393,-0.0139650977614924,0.061));
#1415=CARTESIAN_POINT('',(0.0284930647279174,-0.0127151180853738,0.061));
#1416=CARTESIAN_POINT('',(0.0286627126410768,0.0170343982062495,0.061));
#1417=CARTESIAN_POINT('',(0.0286698407046549,0.0182843778823682,0.061));
#1418=CARTESIAN_POINT('',(-0.0023367833266652,0.017211174182987,0.061));
#1419=CARTESIAN_POINT('',(-0.00232965526308708,0.0184611538591056,0.061));
#1420=CARTESIAN_POINT('',(0.0130745766688371,0.0016230382107473,0.061));
#1421=CARTESIAN_POINT('',(0.013120196275737,0.0096229081379065,0.061));
#1422=CARTESIAN_POINT('',(0.0130745766688371,0.00162303821074727,0.0584));
#1423=CARTESIAN_POINT('',(0.0278351283013234,0.0225392069685458,0.0584));
#1424=CARTESIAN_POINT('',(0.0278351283013234,0.0225392069685458,0.0584));
#1425=CARTESIAN_POINT('',(0.0130745766688371,0.00162303821074727,0.0584));
#1426=CARTESIAN_POINT('',(0.0341577250286244,0.0161440869070088,0.0584));
#1427=CARTESIAN_POINT('',(0.0341577250286244,0.0161440869070088,0.0584));
#1428=CARTESIAN_POINT('',(0.0340742352276299,0.00150328674263483,0.069));
#1429=CARTESIAN_POINT('',(0.0340742352276299,0.00150328674263483,0.0685));
#1430=CARTESIAN_POINT('',(0.033980877137767,-0.014868019945495,0.0685));
#1431=CARTESIAN_POINT('',(0.0341675933174929,0.0178745934307646,0.0685));
#1432=CARTESIAN_POINT('',(0.033980877137767,-0.014868019945495,0.069));
#1433=CARTESIAN_POINT('',(0.033980877137767,-0.014868019945495,0.0584));
#1434=CARTESIAN_POINT('',(0.0340742352276299,0.00150328674263483,0.0584));
#1435=CARTESIAN_POINT('',(0.0339907454266355,-0.0131375134217392,0.0584));
#1436=CARTESIAN_POINT('',(0.0339907454266355,-0.0131375134217392,0.069));
#1437=CARTESIAN_POINT('',(0.0340742352276299,0.00150328674263483,0.0584));
#1438=CARTESIAN_POINT('',(0.0341675933174929,0.0178745934307646,0.0584));
#1439=CARTESIAN_POINT('',(0.0341675933174929,0.0178745934307646,0.069));
#1440=CARTESIAN_POINT('',(0.0130745766688371,0.00162303821074727,0.0584));
#1441=CARTESIAN_POINT('',(0.0130745766688371,0.00162303821074727,0.0584));
#1442=CARTESIAN_POINT('',(0.0275956253650986,-0.0194601101490401,0.0584));
#1443=CARTESIAN_POINT('',(0.0275956253650986,-0.0194601101490401,0.0584));
#1444=CARTESIAN_POINT('',(0.0129548252007246,-0.0193766203480457,0.069));
#1445=CARTESIAN_POINT('',(0.0129548252007246,-0.0193766203480457,0.0685));
#1446=CARTESIAN_POINT('',(-0.0034164814874052,-0.0192832622581827,0.0685));
#1447=CARTESIAN_POINT('',(0.0293261318888544,-0.0194699784379086,0.0685));
#1448=CARTESIAN_POINT('',(-0.0034164814874052,-0.0192832622581827,0.069));
#1449=CARTESIAN_POINT('',(-0.0034164814874052,-0.0192832622581827,0.0584));
#1450=CARTESIAN_POINT('',(0.0129548252007246,-0.0193766203480457,0.0584));
#1451=CARTESIAN_POINT('',(-0.00168597496364932,-0.0192931305470512,0.0584));
#1452=CARTESIAN_POINT('',(-0.00168597496364932,-0.0192931305470512,0.069));
#1453=CARTESIAN_POINT('',(0.0129548252007246,-0.0193766203480457,0.0584));
#1454=CARTESIAN_POINT('',(0.0293261318888544,-0.0194699784379086,0.0584));
#1455=CARTESIAN_POINT('',(0.0293261318888544,-0.0194699784379086,0.069));
#1456=CARTESIAN_POINT('',(0.0130745766688371,0.00162303821074727,0.0584));
#1457=CARTESIAN_POINT('',(0.0130745766688371,0.00162303821074727,0.0584));
#1458=CARTESIAN_POINT('',(-0.00800857169095032,-0.0128980104855141,0.0584));
#1459=CARTESIAN_POINT('',(-0.00800857169095032,-0.0128980104855141,0.0584));
#1460=CARTESIAN_POINT('',(-0.00792508188995586,0.00174278967885976,0.069));
#1461=CARTESIAN_POINT('',(-0.00792508188995586,0.00174278967885976,0.0584));
#1462=CARTESIAN_POINT('',(-0.00801843997981881,-0.01462851700927,0.0584));
#1463=CARTESIAN_POINT('',(-0.00801843997981881,-0.01462851700927,0.069));
#1464=CARTESIAN_POINT('',(-0.00801843997981881,-0.01462851700927,0.0685));
#1465=CARTESIAN_POINT('',(-0.00792508188995586,0.00174278967885976,0.0685));
#1466=CARTESIAN_POINT('',(-0.00783172380009291,0.0181140963669896,0.0685));
#1467=CARTESIAN_POINT('',(-0.00783172380009291,0.0181140963669896,0.069));
#1468=CARTESIAN_POINT('',(-0.00783172380009291,0.0181140963669896,0.0584));
#1469=CARTESIAN_POINT('',(-0.00792508188995586,0.00174278967885976,0.0584));
#1470=CARTESIAN_POINT('',(-0.00784159208896141,0.0163835898432336,0.0584));
#1471=CARTESIAN_POINT('',(-0.00784159208896141,0.0163835898432336,0.069));
#1472=CARTESIAN_POINT('',(0.0130745766688371,0.00162303821074727,0.0584));
#1473=CARTESIAN_POINT('',(0.0130745766688371,0.00162303821074727,0.0584));
#1474=CARTESIAN_POINT('',(-0.00144647202742432,0.0227061865705347,0.0584));
#1475=CARTESIAN_POINT('',(-0.00144647202742432,0.0227061865705347,0.0584));
#1476=CARTESIAN_POINT('',(0.0131943281369495,0.0226226967695402,0.069));
#1477=CARTESIAN_POINT('',(0.0131943281369495,0.0226226967695402,0.0584));
#1478=CARTESIAN_POINT('',(-0.00317697855118027,0.0227160548594032,0.0584));
#1479=CARTESIAN_POINT('',(-0.00317697855118027,0.0227160548594032,0.069));
#1480=CARTESIAN_POINT('',(-0.00317697855118027,0.0227160548594032,0.0685));
#1481=CARTESIAN_POINT('',(0.0131943281369495,0.0226226967695402,0.0685));
#1482=CARTESIAN_POINT('',(0.0295656348250793,0.0225293386796773,0.0685));
#1483=CARTESIAN_POINT('',(0.0295656348250793,0.0225293386796773,0.069));
#1484=CARTESIAN_POINT('',(0.0295656348250793,0.0225293386796773,0.0584));
#1485=CARTESIAN_POINT('',(0.0131943281369495,0.0226226967695402,0.0584));
#1486=CARTESIAN_POINT('',(-0.00251355930340265,-0.0137883217847549,0.069));
#1487=CARTESIAN_POINT('',(-0.00251355930340265,-0.0137883217847549,0.0687));
#1488=CARTESIAN_POINT('',(-0.00250643123982453,-0.0125383421086363,0.0687));
#1489=CARTESIAN_POINT('',(0.0284859366643393,-0.0139650977614924,0.069));
#1490=CARTESIAN_POINT('',(0.0284859366643393,-0.0139650977614924,0.0687));
#1491=CARTESIAN_POINT('',(0.0284930647279174,-0.0127151180853738,0.0687));
#1492=CARTESIAN_POINT('',(0.0286627126410768,0.0170343982062495,0.069));
#1493=CARTESIAN_POINT('',(0.0286627126410768,0.0170343982062495,0.0687));
#1494=CARTESIAN_POINT('',(0.0286698407046549,0.0182843778823682,0.0687));
#1495=CARTESIAN_POINT('',(-0.0023367833266652,0.017211174182987,0.069));
#1496=CARTESIAN_POINT('',(-0.0023367833266652,0.017211174182987,0.0687));
#1497=CARTESIAN_POINT('',(-0.00232965526308708,0.0184611538591056,0.0687));
#1498=CARTESIAN_POINT('',(0.0130745766688371,0.0016230382107473,0.0696));
#1499=CARTESIAN_POINT('',(0.0130745766688371,0.0016230382107473,0.0696));
#1500=CARTESIAN_POINT('',(0.013120196275737,0.0096229081379065,0.0696));
#1501=CARTESIAN_POINT('',(0.0130745766688371,0.0016230382107473,0.0584));
#1502=CARTESIAN_POINT('',(0.0295542299233543,0.0205293711978875,0.0584));
#1503=CARTESIAN_POINT('',(0.030976484975229,0.0219354972830651,0.0584));
#1504=CARTESIAN_POINT('',(0.0335898808875777,0.0192921244176672,0.0584));
#1505=CARTESIAN_POINT('',(0.0335898808875778,0.0192921244176672,0.0584));
#1506=CARTESIAN_POINT('',(0.0321676258357031,0.0178859983324897,0.0584));
#1507=CARTESIAN_POINT('',(0.0321676258357031,0.0178859983324897,0.069));
#1508=CARTESIAN_POINT('',(0.0335898808875778,0.0192921244176672,0.069));
#1509=CARTESIAN_POINT('',(0.0335898808875778,0.0192921244176672,0.0685));
#1510=CARTESIAN_POINT('',(0.0321676258357031,0.0178859983324897,0.0685));
#1511=CARTESIAN_POINT('',(0.0335742433571825,0.00150613796806608,0.0685));
#1512=CARTESIAN_POINT('',(0.0334808852673196,-0.0148651687200637,0.0685));
#1513=CARTESIAN_POINT('',(0.0334808852673196,-0.0148651687200637,0.069));
#1514=CARTESIAN_POINT('',(0.0336676014470454,0.0178774446561959,0.0685));
#1515=CARTESIAN_POINT('',(0.0336676014470454,0.0178774446561959,0.069));
#1516=CARTESIAN_POINT('',(0.0335742433571825,0.00150613796806608,0.069));
#1517=CARTESIAN_POINT('',(0.0319809096559772,-0.01485661504377,0.069));
#1518=CARTESIAN_POINT('',(0.0333870357411548,-0.0162788700956447,0.069));
#1519=CARTESIAN_POINT('',(0.0333870357411548,-0.0162788700956447,0.0685));
#1520=CARTESIAN_POINT('',(0.0333870357411548,-0.0162788700956447,0.0584));
#1521=CARTESIAN_POINT('',(0.0319809096559772,-0.01485661504377,0.0584));
#1522=CARTESIAN_POINT('',(0.0319809096559772,-0.01485661504377,0.0685));
#1523=CARTESIAN_POINT('',(0.0130745766688371,0.0016230382107473,0.0584));
#1524=CARTESIAN_POINT('',(0.030743662875757,-0.0188922660079935,0.0584));
#1525=CARTESIAN_POINT('',(0.030743662875757,-0.0188922660079935,0.0584));
#1526=CARTESIAN_POINT('',(0.0293375367905793,-0.0174700109561188,0.0584));
#1527=CARTESIAN_POINT('',(0.0293375367905793,-0.0174700109561188,0.069));
#1528=CARTESIAN_POINT('',(0.030743662875757,-0.0188922660079935,0.069));
#1529=CARTESIAN_POINT('',(0.030743662875757,-0.0188922660079935,0.0685));
#1530=CARTESIAN_POINT('',(0.0293375367905793,-0.0174700109561188,0.0685));
#1531=CARTESIAN_POINT('',(0.0129576764261558,-0.0188766284775982,0.0685));
#1532=CARTESIAN_POINT('',(-0.00341363026197395,-0.0187832703877353,0.0685));
#1533=CARTESIAN_POINT('',(-0.00341363026197395,-0.0187832703877353,0.069));
#1534=CARTESIAN_POINT('',(0.0293289831142856,-0.0189699865674611,0.0685));
#1535=CARTESIAN_POINT('',(0.0293289831142856,-0.0189699865674611,0.069));
#1536=CARTESIAN_POINT('',(0.0129576764261558,-0.0188766284775982,0.069));
#1537=CARTESIAN_POINT('',(-0.0034050765856802,-0.0172832947763929,0.069));
#1538=CARTESIAN_POINT('',(-0.00482733163755487,-0.0186894208615705,0.069));
#1539=CARTESIAN_POINT('',(-0.00482733163755487,-0.0186894208615705,0.0685));
#1540=CARTESIAN_POINT('',(-0.00482733163755487,-0.0186894208615705,0.0584));
#1541=CARTESIAN_POINT('',(-0.0034050765856802,-0.0172832947763929,0.0584));
#1542=CARTESIAN_POINT('',(-0.0034050765856802,-0.0172832947763929,0.0685));
#1543=CARTESIAN_POINT('',(0.0130745766688371,0.0016230382107473,0.0584));
#1544=CARTESIAN_POINT('',(-0.00744072754990366,-0.0160460479961726,0.0584));
#1545=CARTESIAN_POINT('',(-0.00744072754990367,-0.0160460479961727,0.0584));
#1546=CARTESIAN_POINT('',(-0.00601847249802901,-0.014639921910995,0.0584));
#1547=CARTESIAN_POINT('',(-0.00583175631830311,0.0181026914652645,0.069));
#1548=CARTESIAN_POINT('',(-0.00723788240348075,0.0195249465171392,0.069));
#1549=CARTESIAN_POINT('',(-0.00723788240348075,0.0195249465171392,0.0685));
#1550=CARTESIAN_POINT('',(-0.00723788240348075,0.0195249465171392,0.0584));
#1551=CARTESIAN_POINT('',(-0.00583175631830311,0.0181026914652645,0.0584));
#1552=CARTESIAN_POINT('',(-0.00583175631830311,0.0181026914652645,0.0685));
#1553=CARTESIAN_POINT('',(-0.00742509001950841,0.00173993845342852,0.0685));
#1554=CARTESIAN_POINT('',(-0.00751844810937136,-0.0146313682347013,0.0685));
#1555=CARTESIAN_POINT('',(-0.00751844810937136,-0.0146313682347013,0.069));
#1556=CARTESIAN_POINT('',(-0.00742509001950841,0.00173993845342852,0.069));
#1557=CARTESIAN_POINT('',(-0.00733173192964546,0.0181112451415583,0.069));
#1558=CARTESIAN_POINT('',(-0.00733173192964546,0.0181112451415583,0.0685));
#1559=CARTESIAN_POINT('',(-0.00601847249802901,-0.014639921910995,0.069));
#1560=CARTESIAN_POINT('',(-0.00744072754990367,-0.0160460479961727,0.069));
#1561=CARTESIAN_POINT('',(-0.00744072754990367,-0.0160460479961727,0.0685));
#1562=CARTESIAN_POINT('',(-0.00601847249802901,-0.014639921910995,0.0685));
#1563=CARTESIAN_POINT('',(0.0130745766688371,0.0016230382107473,0.0584));
#1564=CARTESIAN_POINT('',(-0.0045945095380829,0.0221383424294881,0.0584));
#1565=CARTESIAN_POINT('',(-0.00459450953808291,0.0221383424294881,0.0584));
#1566=CARTESIAN_POINT('',(-0.00318838345290526,0.0207160873776134,0.0584));
#1567=CARTESIAN_POINT('',(0.0295542299233543,0.0205293711978875,0.069));
#1568=CARTESIAN_POINT('',(0.030976484975229,0.0219354972830651,0.069));
#1569=CARTESIAN_POINT('',(0.030976484975229,0.0219354972830651,0.0685));
#1570=CARTESIAN_POINT('',(0.0295542299233543,0.0205293711978875,0.0685));
#1571=CARTESIAN_POINT('',(0.0131914769115183,0.0221227048990928,0.0685));
#1572=CARTESIAN_POINT('',(-0.00317982977661152,0.0222160629889557,0.0685));
#1573=CARTESIAN_POINT('',(-0.00317982977661152,0.0222160629889557,0.069));
#1574=CARTESIAN_POINT('',(0.0131914769115183,0.0221227048990928,0.069));
#1575=CARTESIAN_POINT('',(0.029562783599648,0.0220293468092298,0.069));
#1576=CARTESIAN_POINT('',(0.029562783599648,0.0220293468092298,0.0685));
#1577=CARTESIAN_POINT('',(-0.00318838345290526,0.0207160873776134,0.069));
#1578=CARTESIAN_POINT('',(-0.00459450953808291,0.0221383424294881,0.069));
#1579=CARTESIAN_POINT('',(-0.00459450953808291,0.0221383424294881,0.0685));
#1580=CARTESIAN_POINT('',(-0.00318838345290526,0.0207160873776134,0.0685));
#1581=CARTESIAN_POINT('',(-0.00251355930340265,-0.0137883217847549,0.0690000000000382));
#1582=CARTESIAN_POINT('',(-0.00251355930340265,-0.0137883217847549,0.0690000000000382));
#1583=CARTESIAN_POINT('',(-0.00252239810223976,-0.0153382965831822,0.0690000000000382));
#1584=CARTESIAN_POINT('',(0.0284859366643393,-0.0139650977614924,0.0690000000000382));
#1585=CARTESIAN_POINT('',(0.0284859366643393,-0.0139650977614924,0.0690000000000382));
#1586=CARTESIAN_POINT('',(0.0284770978655022,-0.0155150725599197,0.0690000000000382));
#1587=CARTESIAN_POINT('',(0.0286627126410768,0.0170343982062495,0.0689999999999245));
#1588=CARTESIAN_POINT('',(0.0286627126410768,0.0170343982062495,0.0689999999999245));
#1589=CARTESIAN_POINT('',(0.02865387384224,0.015484423407885,0.0689999999999245));
#1590=CARTESIAN_POINT('',(-0.0023367833266652,0.017211174182987,0.0689999999999245));
#1591=CARTESIAN_POINT('',(-0.0023367833266652,0.017211174182987,0.0689999999999245));
#1592=CARTESIAN_POINT('',(-0.00234562212550194,0.0156611993846225,0.0689999999999245));
#1593=CARTESIAN_POINT('',(0.0130745766688371,0.0016230382107473,0.0696));
#1594=CARTESIAN_POINT('',(0.0130745766688371,0.00162303821074727,0.0696));
#1595=CARTESIAN_POINT('',(0.0130953906144852,0.00527297886501366,0.0696));
#1596=CARTESIAN_POINT('',(0.0322831829314034,0.0206138108503662,0.069));
#1597=CARTESIAN_POINT('',(0.0322831829314034,0.0206138108503662,0.0685));
#1598=CARTESIAN_POINT('',(0.0321676258357031,0.0178859983324897,0.0685));
#1599=CARTESIAN_POINT('',(0.0332343171246091,0.0189405928963729,0.0685));
#1600=CARTESIAN_POINT('',(0.0332343171246091,0.0189405928963729,0.069));
#1601=CARTESIAN_POINT('',(0.0336676014470455,0.0178774446561959,0.069));
#1602=CARTESIAN_POINT('',(0.0336698679336455,0.0182748965244668,0.069));
#1603=CARTESIAN_POINT('',(0.0335142701606245,0.0186574286595682,0.069));
#1604=CARTESIAN_POINT('',(0.0332343171246091,0.0189405928963729,0.069));
#1605=CARTESIAN_POINT('',(0.0130745766688371,0.0016230382107473,0.069));
#1606=CARTESIAN_POINT('',(0.0130745766688371,0.00162303821074727,0.069));
#1607=CARTESIAN_POINT('',(0.0131686671080683,0.0181227699355131,0.069));
#1608=CARTESIAN_POINT('',(-0.00751844810937136,-0.0146313682347013,0.069));
#1609=CARTESIAN_POINT('',(-0.00752071459597146,-0.0150288201029773,0.069));
#1610=CARTESIAN_POINT('',(-0.00736511682294684,-0.0154113522380771,0.069));
#1611=CARTESIAN_POINT('',(-0.00708516378693498,-0.0156945164748783,0.069));
#1612=CARTESIAN_POINT('',(-0.00708516378693501,-0.0156945164748782,0.069));
#1613=CARTESIAN_POINT('',(-0.007085163786935,-0.0156945164748782,0.069));
#1614=CARTESIAN_POINT('',(-0.0044717678745862,-0.0183378893402761,0.069));
#1615=CARTESIAN_POINT('',(-0.00447176787458623,-0.0183378893402761,0.069));
#1616=CARTESIAN_POINT('',(-0.00419232961137902,-0.018620532899572,0.069));
#1617=CARTESIAN_POINT('',(-0.00381181430418562,-0.0187809997258814,0.069));
#1618=CARTESIAN_POINT('',(-0.00341363026197395,-0.0187832703877352,0.069));
#1619=CARTESIAN_POINT('',(0.0293289831142856,-0.0189699865674611,0.069));
#1620=CARTESIAN_POINT('',(0.0297264349825566,-0.0189722530540612,0.069));
#1621=CARTESIAN_POINT('',(0.0301089671176579,-0.0188166552810402,0.069));
#1622=CARTESIAN_POINT('',(0.0303921313544626,-0.0185367022450248,0.069));
#1623=CARTESIAN_POINT('',(0.0303921313544626,-0.0185367022450248,0.069));
#1624=CARTESIAN_POINT('',(0.0303921313544626,-0.0185367022450248,0.069));
#1625=CARTESIAN_POINT('',(0.0330355042198604,-0.015923306332676,0.069));
#1626=CARTESIAN_POINT('',(0.0330355042198604,-0.015923306332676,0.069));
#1627=CARTESIAN_POINT('',(0.0333181477791564,-0.0156438680694688,0.069));
#1628=CARTESIAN_POINT('',(0.0334786146054657,-0.0152633527622754,0.069));
#1629=CARTESIAN_POINT('',(0.0334808852673196,-0.0148651687200637,0.069));
#1630=CARTESIAN_POINT('',(0.0332343171246091,0.0189405928963729,0.069));
#1631=CARTESIAN_POINT('',(0.0306209212122603,0.0215839657617707,0.069));
#1632=CARTESIAN_POINT('',(0.0306209212122603,0.0215839657617707,0.069));
#1633=CARTESIAN_POINT('',(0.0303414829490541,0.0218666093210657,0.069));
#1634=CARTESIAN_POINT('',(0.0299609676418611,0.0220270761473759,0.069));
#1635=CARTESIAN_POINT('',(0.0295627835996481,0.0220293468092298,0.069));
#1636=CARTESIAN_POINT('',(-0.00317982977661151,0.0222160629889557,0.069));
#1637=CARTESIAN_POINT('',(-0.00357728164488694,0.0222183294755558,0.069));
#1638=CARTESIAN_POINT('',(-0.00395981377998696,0.0220627317025316,0.069));
#1639=CARTESIAN_POINT('',(-0.00424297801678852,0.0217827786665194,0.069));
#1640=CARTESIAN_POINT('',(-0.0042429780167885,0.0217827786665193,0.069));
#1641=CARTESIAN_POINT('',(-0.0042429780167885,0.0217827786665193,0.069));
#1642=CARTESIAN_POINT('',(-0.00688635088218634,0.0191693827541705,0.069));
#1643=CARTESIAN_POINT('',(-0.00688635088218632,0.0191693827541706,0.069));
#1644=CARTESIAN_POINT('',(-0.00716899444148324,0.0188899444909624,0.069));
#1645=CARTESIAN_POINT('',(-0.0073294612677916,0.0185094291837687,0.069));
#1646=CARTESIAN_POINT('',(-0.00733173192964547,0.0181112451415583,0.069));
#1647=CARTESIAN_POINT('',(0.0320653493084559,-0.017585568051819,0.069));
#1648=CARTESIAN_POINT('',(0.0320653493084559,-0.017585568051819,0.0685));
#1649=CARTESIAN_POINT('',(0.0319809096559772,-0.01485661504377,0.0685));
#1650=CARTESIAN_POINT('',(0.0330355042198604,-0.015923306332676,0.0685));
#1651=CARTESIAN_POINT('',(0.0293375367905793,-0.0174700109561188,0.0685));
#1652=CARTESIAN_POINT('',(0.0303921313544626,-0.0185367022450248,0.0685));
#1653=CARTESIAN_POINT('',(-0.00613402959372927,-0.0173677344288716,0.069));
#1654=CARTESIAN_POINT('',(-0.00613402959372927,-0.0173677344288716,0.0685));
#1655=CARTESIAN_POINT('',(-0.0034050765856802,-0.0172832947763929,0.0685));
#1656=CARTESIAN_POINT('',(-0.0044717678745862,-0.0183378893402761,0.0685));
#1657=CARTESIAN_POINT('',(-0.00591619597078183,0.0208316444733137,0.069));
#1658=CARTESIAN_POINT('',(-0.00591619597078183,0.0208316444733137,0.0685));
#1659=CARTESIAN_POINT('',(-0.00583175631830311,0.0181026914652645,0.0685));
#1660=CARTESIAN_POINT('',(-0.00688635088218634,0.0191693827541705,0.0685));
#1661=CARTESIAN_POINT('',(-0.00601847249802901,-0.014639921910995,0.0685));
#1662=CARTESIAN_POINT('',(-0.00708516378693501,-0.0156945164748782,0.0685));
#1663=CARTESIAN_POINT('',(0.0295542299233543,0.0205293711978875,0.0685));
#1664=CARTESIAN_POINT('',(0.0306209212122603,0.0215839657617707,0.0685));
#1665=CARTESIAN_POINT('',(-0.00318838345290526,0.0207160873776134,0.0685));
#1666=CARTESIAN_POINT('',(-0.0042429780167885,0.0217827786665193,0.0685));
#1667=CARTESIAN_POINT('',(0.0130745766688371,0.00162303821074727,0.071));
#1668=CARTESIAN_POINT('',(0.0130745766688371,0.00162303821074727,0.0705));
#1669=CARTESIAN_POINT('',(0.0130953906144852,0.00527297886501366,0.0705));
#1670=CARTESIAN_POINT('',(0.0319276191684347,0.0202622793290718,0.0685));
#1671=CARTESIAN_POINT('',(0.0130745766688371,0.00162303821074727,0.069));
#1672=CARTESIAN_POINT('',(0.0130745766688371,0.00162303821074727,0.0685));
#1673=CARTESIAN_POINT('',(0.0131686671080683,0.0181227699355131,0.0685));
#1674=CARTESIAN_POINT('',(-0.00556466444948742,0.020476080710345,0.0685));
#1675=CARTESIAN_POINT('',(0.0317138177871615,-0.0172300042888504,0.0685));
#1676=CARTESIAN_POINT('',(-0.00577846583076061,-0.0170162029075772,0.0685));
#1677=CARTESIAN_POINT('',(0.0130745766688371,0.00162303821074727,0.0705));
#1678=CARTESIAN_POINT('',(0.0130982418399165,0.00577297073546113,0.071));
#1679=CARTESIAN_POINT('',(0.0136257787154667,0.00576996243343785,0.071));
#1680=CARTESIAN_POINT('',(0.0146249341886025,0.0055875722134874,0.071));
#1681=CARTESIAN_POINT('',(0.015869949964186,0.00478615286185973,0.071));
#1682=CARTESIAN_POINT('',(0.0165863709311757,0.00388965991842762,0.071));
#1683=CARTESIAN_POINT('',(0.0169714693272418,0.00312401543345935,0.071));
#1684=CARTESIAN_POINT('',(0.017178830188595,0.00238589526126064,0.071));
#1685=CARTESIAN_POINT('',(0.0172495180999935,0.00159877623139216,0.071));
#1686=CARTESIAN_POINT('',(0.0171701525727364,0.000815238051178131,0.071));
#1687=CARTESIAN_POINT('',(0.0168813755520203,-0.000172414641295489,0.071));
#1688=CARTESIAN_POINT('',(0.0160832225117247,-0.00142246242199448,0.071));
#1689=CARTESIAN_POINT('',(0.0145798335665057,-0.00235659135822237,0.071));
#1690=CARTESIAN_POINT('',(0.0135788051117132,-0.00252990465030613,0.071));
#1691=CARTESIAN_POINT('',(0.0130509114977577,-0.00252689431396654,0.071));
#1692=CARTESIAN_POINT('',(0.0130509114977577,-0.00252689431396656,0.071));
#1693=CARTESIAN_POINT('',(0.0130982418399165,0.00577297073546112,0.071));
#1694=CARTESIAN_POINT('',(0.0130509114977577,-0.00252689431396654,0.071));
#1695=CARTESIAN_POINT('',(0.012523374622208,-0.00252388601194327,0.071));
#1696=CARTESIAN_POINT('',(0.0115242191490715,-0.00234149579199294,0.071));
#1697=CARTESIAN_POINT('',(0.0102792033734882,-0.00154007644036507,0.071));
#1698=CARTESIAN_POINT('',(0.00956278240649851,-0.000643583496933301,0.071));
#1699=CARTESIAN_POINT('',(0.0091776840104322,0.000122060988035997,0.071));
#1700=CARTESIAN_POINT('',(0.00897032314907964,0.000860181160230881,0.071));
#1701=CARTESIAN_POINT('',(0.0088996352376806,0.00164730019010393,0.071));
#1702=CARTESIAN_POINT('',(0.00897900076493728,0.00243083837031321,0.071));
#1703=CARTESIAN_POINT('',(0.00926777778565417,0.00341849106279187,0.071));
#1704=CARTESIAN_POINT('',(0.0100659308259492,0.00466853884348839,0.071));
#1705=CARTESIAN_POINT('',(0.011569319771169,0.00560266777971706,0.071));
#1706=CARTESIAN_POINT('',(0.0125703482259599,0.00577598107180072,0.071));
#1707=CARTESIAN_POINT('',(0.0130982418399165,0.00577297073546113,0.071));
#1708=CARTESIAN_POINT('',(0.0130745766688371,0.0016230382107473,0.0685));
#1709=CARTESIAN_POINT('',(0.0130745766688371,0.00162303821074727,0.0685));
#1710=CARTESIAN_POINT('',(0.0131373036283246,0.0126228593605912,0.0685));
#1711=CARTESIAN_POINT('',(0.0130745766688371,0.0016230382107473,0.071));
#1712=CARTESIAN_POINT('',(0.0130147009347809,-0.00887679106864917,0.071));
#1713=CARTESIAN_POINT('',(0.0133357226039379,-0.0088786217087079,0.071));
#1714=CARTESIAN_POINT('',(0.0139797699324788,-0.00885193653989733,0.071));
#1715=CARTESIAN_POINT('',(0.014911992844725,-0.00873091830445999,0.071));
#1716=CARTESIAN_POINT('',(0.0159299478301438,-0.00849876299311329,0.071));
#1717=CARTESIAN_POINT('',(0.0168774344796025,-0.00818219106839418,0.071));
#1718=CARTESIAN_POINT('',(0.0178633333765027,-0.0077421936772634,0.071));
#1719=CARTESIAN_POINT('',(0.019080319035283,-0.00704001292830757,0.071));
#1720=CARTESIAN_POINT('',(0.0205115108814252,-0.00589946051396101,0.071));
#1721=CARTESIAN_POINT('',(0.02166884140054,-0.004480609587783,0.071));
#1722=CARTESIAN_POINT('',(0.0223841494785052,-0.0032730701405585,0.071));
#1723=CARTESIAN_POINT('',(0.0228359791969012,-0.00229094379879498,0.071));
#1724=CARTESIAN_POINT('',(0.0231628646641025,-0.0013485455963282,0.071));
#1725=CARTESIAN_POINT('',(0.0234069927492763,-0.000331970096579517,0.071));
#1726=CARTESIAN_POINT('',(0.0235384843111377,0.000597912549805249,0.071));
#1727=CARTESIAN_POINT('',(0.0235895913327611,0.00156333957446889,0.071));
#1728=CARTESIAN_POINT('',(0.023549586047219,0.00252770401246538,0.071));
#1729=CARTESIAN_POINT('',(0.0234285239056637,0.00346059571845998,0.071));
#1730=CARTESIAN_POINT('',(0.0231963803584831,0.00447837150667837,0.071));
#1731=CARTESIAN_POINT('',(0.0228798052832265,0.00542590615117518,0.071));
#1732=CARTESIAN_POINT('',(0.0224398087300706,0.00641179226513858,0.071));
#1733=CARTESIAN_POINT('',(0.0217376277126148,0.00762878210623164,0.071));
#1734=CARTESIAN_POINT('',(0.0205970753849251,0.00905997192836107,0.071));
#1735=CARTESIAN_POINT('',(0.0191782245885053,0.0102173028983345,0.071));
#1736=CARTESIAN_POINT('',(0.0179706848038186,0.0109326111988185,0.071));
#1737=CARTESIAN_POINT('',(0.0169885595068972,0.0113844400136809,0.071));
#1738=CARTESIAN_POINT('',(0.0160461573781653,0.0117113289281316,0.071));
#1739=CARTESIAN_POINT('',(0.0150295965386657,0.0119554441278357,0.071));
#1740=CARTESIAN_POINT('',(0.014099659177519,0.0120869837843319,0.071));
#1741=CARTESIAN_POINT('',(0.0134556518393887,0.012121035836359,0.071));
#1742=CARTESIAN_POINT('',(0.0131344524028933,0.0121228674901438,0.071));
#1743=CARTESIAN_POINT('',(0.0130147009347808,-0.0088767910686492,0.071));
#1744=CARTESIAN_POINT('',(0.0131344524028933,0.0121228674901437,0.071));
#1745=CARTESIAN_POINT('',(0.0131344524028933,0.0121228674901438,0.071));
#1746=CARTESIAN_POINT('',(0.0128134307337369,0.0121246981302025,0.071));
#1747=CARTESIAN_POINT('',(0.0121693834051965,0.0120980129613919,0.071));
#1748=CARTESIAN_POINT('',(0.0112371604929497,0.0119769947259546,0.071));
#1749=CARTESIAN_POINT('',(0.0102192055075271,0.0117448394146075,0.071));
#1750=CARTESIAN_POINT('',(0.0092717188580726,0.0114282674898891,0.071));
#1751=CARTESIAN_POINT('',(0.00828581996117102,0.0109882700987568,0.071));
#1752=CARTESIAN_POINT('',(0.00706883430239147,0.0102860893498029,0.071));
#1753=CARTESIAN_POINT('',(0.00563764245624828,0.00914553693545374,0.071));
#1754=CARTESIAN_POINT('',(0.00448031193713606,0.00772668600928212,0.071));
#1755=CARTESIAN_POINT('',(0.00376500385916566,0.00651914656204512,0.071));
#1756=CARTESIAN_POINT('',(0.00331317414077427,0.00553702022029284,0.071));
#1757=CARTESIAN_POINT('',(0.00298628867356959,0.00459462201781736,0.071));
#1758=CARTESIAN_POINT('',(0.00274216058839817,0.00357804651807481,0.071));
#1759=CARTESIAN_POINT('',(0.0026106690265376,0.00264816387169162,0.071));
#1760=CARTESIAN_POINT('',(0.002559562004913,0.00168273684702404,0.071));
#1761=CARTESIAN_POINT('',(0.00259956729045398,0.000718372409033247,0.071));
#1762=CARTESIAN_POINT('',(0.00272062943201056,-0.000214519296965802,0.071));
#1763=CARTESIAN_POINT('',(0.00295277297919214,-0.00123229508518653,0.071));
#1764=CARTESIAN_POINT('',(0.00326934805444772,-0.00217982972968071,0.071));
#1765=CARTESIAN_POINT('',(0.00370934460760253,-0.0031657158436411,0.071));
#1766=CARTESIAN_POINT('',(0.00441152562505999,-0.00438270568473882,0.071));
#1767=CARTESIAN_POINT('',(0.00555207795274857,-0.00581389550686593,0.071));
#1768=CARTESIAN_POINT('',(0.00697092874916978,-0.00697122647684012,0.071));
#1769=CARTESIAN_POINT('',(0.00817846853385406,-0.00768653477732382,0.071));
#1770=CARTESIAN_POINT('',(0.00916059383077559,-0.00813836359218588,0.071));
#1771=CARTESIAN_POINT('',(0.0101029959595159,-0.00846525250663927,0.071));
#1772=CARTESIAN_POINT('',(0.0111195567990056,-0.00870936770634058,0.071));
#1773=CARTESIAN_POINT('',(0.0120494941601598,-0.00884090736283752,0.071));
#1774=CARTESIAN_POINT('',(0.0126935014982872,-0.00887495941486445,0.071));
#1775=CARTESIAN_POINT('',(0.0130147009347809,-0.00887679106864917,0.071));
#1776=CARTESIAN_POINT('',(0.0130745766688371,0.00162303821074727,0.071));
#1777=CARTESIAN_POINT('',(0.0130745766688371,0.00162303821074727,0.0705));
#1778=CARTESIAN_POINT('',(0.0131373036283246,0.0126228593605912,0.0705));
#1779=CARTESIAN_POINT('',(0.0130745766688371,0.00162303821074727,0.0705));
#1780=MECHANICAL_DESIGN_GEOMETRIC_PRESENTATION_REPRESENTATION('',(#967),
#1781);
#1781=(
GEOMETRIC_REPRESENTATION_CONTEXT(3)
GLOBAL_UNCERTAINTY_ASSIGNED_CONTEXT((#1782))
GLOBAL_UNIT_ASSIGNED_CONTEXT((#1785,#1784,#1783))
REPRESENTATION_CONTEXT('Part 87','TOP_LEVEL_ASSEMBLY_PART')
);
#1782=UNCERTAINTY_MEASURE_WITH_UNIT(LENGTH_MEASURE(2.E-5),#1785,
'DISTANCE_ACCURACY_VALUE','Maximum Tolerance applied to model');
#1783=(
NAMED_UNIT(*)
SI_UNIT($,.STERADIAN.)
SOLID_ANGLE_UNIT()
);
#1784=(
NAMED_UNIT(*)
PLANE_ANGLE_UNIT()
SI_UNIT($,.RADIAN.)
);
#1785=(
LENGTH_UNIT()
NAMED_UNIT(*)
SI_UNIT($,.METRE.)
);
#1786=PRODUCT_DEFINITION_SHAPE('','',#1787);
#1787=PRODUCT_DEFINITION('','',#1789,#1788);
#1788=PRODUCT_DEFINITION_CONTEXT('',#1795,'design');
#1789=PRODUCT_DEFINITION_FORMATION_WITH_SPECIFIED_SOURCE('','',#1791,
 .NOT_KNOWN.);
#1790=PRODUCT_RELATED_PRODUCT_CATEGORY('','',(#1791));
#1791=PRODUCT('Part 87','Part 87','Part 87',(#1793));
#1792=PRODUCT_CATEGORY('','');
#1793=PRODUCT_CONTEXT('',#1795,'mechanical');
#1794=APPLICATION_PROTOCOL_DEFINITION('international standard',
'automotive_design',2010,#1795);
#1795=APPLICATION_CONTEXT(
'core data for automotive mechanical design processes');
ENDSEC;
END-ISO-10303-21;
