ISO-10303-21;
HEADER;
/* Generated by software containing ST-Developer
 * from STEP Tools, Inc. (www.steptools.com) 
 */
/* OPTION: using custom renumber hook */

FILE_DESCRIPTION(
/* description */ ('STEP AP214',
'CAx-IF Rec.Pracs.---User Defined Attributes---1.5---2016-08-15'),
/* implementation_level */ '2;1');

FILE_NAME(
/* name */ '6a65b583e8d4adbdd87e10f6',
/* time_stamp */ '2026-07-26T07:21:39Z',
/* author */ (''),
/* organization */ (''),
/* preprocessor_version */ 'ST-DEVELOPER v20',
/* originating_system */ 'ONSHAPE BY PTC INC, 1.218',
/* authorisation */ '  ');

FILE_SCHEMA (('AUTOMOTIVE_DESIGN {1 0 10303 214 3 1 1}'));
ENDSEC;

DATA;
#10=PROPERTY_DEFINITION_REPRESENTATION(#14,#12);
#11=PROPERTY_DEFINITION_REPRESENTATION(#15,#13);
#12=REPRESENTATION('',(#16),#775);
#13=REPRESENTATION('',(#17),#775);
#14=PROPERTY_DEFINITION('pmi validation property','',#780);
#15=PROPERTY_DEFINITION('pmi validation property','',#780);
#16=VALUE_REPRESENTATION_ITEM('number of annotations',COUNT_MEASURE(0.));
#17=VALUE_REPRESENTATION_ITEM('number of views',COUNT_MEASURE(0.));
#18=SHAPE_REPRESENTATION_RELATIONSHIP('','',#451,#19);
#19=ADVANCED_BREP_SHAPE_REPRESENTATION('',(#449),#775);
#20=LINE('',#661,#44);
#21=LINE('',#670,#45);
#22=LINE('',#678,#46);
#23=LINE('',#686,#47);
#24=LINE('',#709,#48);
#25=LINE('',#717,#49);
#26=LINE('',#725,#50);
#27=LINE('',#733,#51);
#28=LINE('',#741,#52);
#29=LINE('',#742,#53);
#30=LINE('',#744,#54);
#31=LINE('',#746,#55);
#32=LINE('',#748,#56);
#33=LINE('',#750,#57);
#34=LINE('',#752,#58);
#35=LINE('',#754,#59);
#36=LINE('',#756,#60);
#37=LINE('',#758,#61);
#38=LINE('',#760,#62);
#39=LINE('',#762,#63);
#40=LINE('',#764,#64);
#41=LINE('',#766,#65);
#42=LINE('',#768,#66);
#43=LINE('',#770,#67);
#44=VECTOR('',#524,1.);
#45=VECTOR('',#531,1.);
#46=VECTOR('',#538,1.);
#47=VECTOR('',#545,1.);
#48=VECTOR('',#568,1.);
#49=VECTOR('',#575,1.);
#50=VECTOR('',#582,1.);
#51=VECTOR('',#589,1.);
#52=VECTOR('',#600,1.);
#53=VECTOR('',#601,1.);
#54=VECTOR('',#604,1.);
#55=VECTOR('',#607,1.);
#56=VECTOR('',#610,1.);
#57=VECTOR('',#613,1.);
#58=VECTOR('',#616,1.);
#59=VECTOR('',#619,1.);
#60=VECTOR('',#622,1.);
#61=VECTOR('',#625,1.);
#62=VECTOR('',#628,1.);
#63=VECTOR('',#631,1.);
#64=VECTOR('',#634,1.);
#65=VECTOR('',#637,1.);
#66=VECTOR('',#640,1.);
#67=VECTOR('',#643,1.);
#68=PLANE('',#456);
#69=PLANE('',#473);
#70=PLANE('',#493);
#71=PLANE('',#497);
#72=PLANE('',#501);
#73=PLANE('',#505);
#74=ORIENTED_EDGE('',*,*,#190,.F.);
#75=ORIENTED_EDGE('',*,*,#191,.F.);
#76=ORIENTED_EDGE('',*,*,#192,.T.);
#77=ORIENTED_EDGE('',*,*,#193,.T.);
#78=ORIENTED_EDGE('',*,*,#191,.T.);
#79=ORIENTED_EDGE('',*,*,#194,.T.);
#80=ORIENTED_EDGE('',*,*,#195,.T.);
#81=ORIENTED_EDGE('',*,*,#196,.T.);
#82=ORIENTED_EDGE('',*,*,#197,.T.);
#83=ORIENTED_EDGE('',*,*,#198,.T.);
#84=ORIENTED_EDGE('',*,*,#199,.T.);
#85=ORIENTED_EDGE('',*,*,#200,.T.);
#86=ORIENTED_EDGE('',*,*,#201,.T.);
#87=ORIENTED_EDGE('',*,*,#202,.T.);
#88=ORIENTED_EDGE('',*,*,#203,.T.);
#89=ORIENTED_EDGE('',*,*,#204,.T.);
#90=ORIENTED_EDGE('',*,*,#205,.T.);
#91=ORIENTED_EDGE('',*,*,#206,.T.);
#92=ORIENTED_EDGE('',*,*,#207,.T.);
#93=ORIENTED_EDGE('',*,*,#208,.T.);
#94=ORIENTED_EDGE('',*,*,#209,.T.);
#95=ORIENTED_EDGE('',*,*,#210,.T.);
#96=ORIENTED_EDGE('',*,*,#211,.T.);
#97=ORIENTED_EDGE('',*,*,#212,.F.);
#98=ORIENTED_EDGE('',*,*,#213,.F.);
#99=ORIENTED_EDGE('',*,*,#190,.T.);
#100=ORIENTED_EDGE('',*,*,#214,.F.);
#101=ORIENTED_EDGE('',*,*,#215,.F.);
#102=ORIENTED_EDGE('',*,*,#216,.F.);
#103=ORIENTED_EDGE('',*,*,#217,.F.);
#104=ORIENTED_EDGE('',*,*,#218,.F.);
#105=ORIENTED_EDGE('',*,*,#219,.F.);
#106=ORIENTED_EDGE('',*,*,#220,.F.);
#107=ORIENTED_EDGE('',*,*,#221,.F.);
#108=ORIENTED_EDGE('',*,*,#222,.F.);
#109=ORIENTED_EDGE('',*,*,#223,.F.);
#110=ORIENTED_EDGE('',*,*,#224,.F.);
#111=ORIENTED_EDGE('',*,*,#225,.F.);
#112=ORIENTED_EDGE('',*,*,#226,.F.);
#113=ORIENTED_EDGE('',*,*,#227,.F.);
#114=ORIENTED_EDGE('',*,*,#228,.F.);
#115=ORIENTED_EDGE('',*,*,#229,.F.);
#116=ORIENTED_EDGE('',*,*,#230,.F.);
#117=ORIENTED_EDGE('',*,*,#231,.F.);
#118=ORIENTED_EDGE('',*,*,#192,.F.);
#119=ORIENTED_EDGE('',*,*,#212,.T.);
#120=ORIENTED_EDGE('',*,*,#193,.F.);
#121=ORIENTED_EDGE('',*,*,#213,.T.);
#122=ORIENTED_EDGE('',*,*,#216,.T.);
#123=ORIENTED_EDGE('',*,*,#232,.T.);
#124=ORIENTED_EDGE('',*,*,#195,.F.);
#125=ORIENTED_EDGE('',*,*,#233,.T.);
#126=ORIENTED_EDGE('',*,*,#233,.F.);
#127=ORIENTED_EDGE('',*,*,#194,.F.);
#128=ORIENTED_EDGE('',*,*,#234,.F.);
#129=ORIENTED_EDGE('',*,*,#217,.T.);
#130=ORIENTED_EDGE('',*,*,#218,.T.);
#131=ORIENTED_EDGE('',*,*,#234,.T.);
#132=ORIENTED_EDGE('',*,*,#209,.F.);
#133=ORIENTED_EDGE('',*,*,#235,.T.);
#134=ORIENTED_EDGE('',*,*,#208,.F.);
#135=ORIENTED_EDGE('',*,*,#236,.T.);
#136=ORIENTED_EDGE('',*,*,#219,.T.);
#137=ORIENTED_EDGE('',*,*,#235,.F.);
#138=ORIENTED_EDGE('',*,*,#220,.T.);
#139=ORIENTED_EDGE('',*,*,#236,.F.);
#140=ORIENTED_EDGE('',*,*,#207,.F.);
#141=ORIENTED_EDGE('',*,*,#237,.T.);
#142=ORIENTED_EDGE('',*,*,#237,.F.);
#143=ORIENTED_EDGE('',*,*,#206,.F.);
#144=ORIENTED_EDGE('',*,*,#238,.F.);
#145=ORIENTED_EDGE('',*,*,#221,.T.);
#146=ORIENTED_EDGE('',*,*,#222,.T.);
#147=ORIENTED_EDGE('',*,*,#238,.T.);
#148=ORIENTED_EDGE('',*,*,#205,.F.);
#149=ORIENTED_EDGE('',*,*,#239,.T.);
#150=ORIENTED_EDGE('',*,*,#204,.F.);
#151=ORIENTED_EDGE('',*,*,#240,.T.);
#152=ORIENTED_EDGE('',*,*,#223,.T.);
#153=ORIENTED_EDGE('',*,*,#239,.F.);
#154=ORIENTED_EDGE('',*,*,#224,.T.);
#155=ORIENTED_EDGE('',*,*,#240,.F.);
#156=ORIENTED_EDGE('',*,*,#203,.F.);
#157=ORIENTED_EDGE('',*,*,#241,.T.);
#158=ORIENTED_EDGE('',*,*,#241,.F.);
#159=ORIENTED_EDGE('',*,*,#202,.F.);
#160=ORIENTED_EDGE('',*,*,#242,.F.);
#161=ORIENTED_EDGE('',*,*,#225,.T.);
#162=ORIENTED_EDGE('',*,*,#226,.T.);
#163=ORIENTED_EDGE('',*,*,#242,.T.);
#164=ORIENTED_EDGE('',*,*,#201,.F.);
#165=ORIENTED_EDGE('',*,*,#243,.T.);
#166=ORIENTED_EDGE('',*,*,#200,.F.);
#167=ORIENTED_EDGE('',*,*,#244,.T.);
#168=ORIENTED_EDGE('',*,*,#227,.T.);
#169=ORIENTED_EDGE('',*,*,#243,.F.);
#170=ORIENTED_EDGE('',*,*,#228,.T.);
#171=ORIENTED_EDGE('',*,*,#244,.F.);
#172=ORIENTED_EDGE('',*,*,#199,.F.);
#173=ORIENTED_EDGE('',*,*,#245,.T.);
#174=ORIENTED_EDGE('',*,*,#246,.F.);
#175=ORIENTED_EDGE('',*,*,#229,.T.);
#176=ORIENTED_EDGE('',*,*,#245,.F.);
#177=ORIENTED_EDGE('',*,*,#198,.F.);
#178=ORIENTED_EDGE('',*,*,#214,.T.);
#179=ORIENTED_EDGE('',*,*,#246,.T.);
#180=ORIENTED_EDGE('',*,*,#197,.F.);
#181=ORIENTED_EDGE('',*,*,#247,.T.);
#182=ORIENTED_EDGE('',*,*,#196,.F.);
#183=ORIENTED_EDGE('',*,*,#232,.F.);
#184=ORIENTED_EDGE('',*,*,#215,.T.);
#185=ORIENTED_EDGE('',*,*,#247,.F.);
#186=ORIENTED_EDGE('',*,*,#210,.F.);
#187=ORIENTED_EDGE('',*,*,#230,.T.);
#188=ORIENTED_EDGE('',*,*,#211,.F.);
#189=ORIENTED_EDGE('',*,*,#231,.T.);
#190=EDGE_CURVE('',#248,#248,#290,.F.);
#191=EDGE_CURVE('',#249,#249,#291,.T.);
#192=EDGE_CURVE('',#250,#250,#292,.T.);
#193=EDGE_CURVE('',#251,#251,#293,.T.);
#194=EDGE_CURVE('',#252,#253,#20,.F.);
#195=EDGE_CURVE('',#253,#254,#294,.F.);
#196=EDGE_CURVE('',#254,#255,#295,.F.);
#197=EDGE_CURVE('',#255,#256,#296,.F.);
#198=EDGE_CURVE('',#256,#257,#21,.T.);
#199=EDGE_CURVE('',#257,#258,#297,.F.);
#200=EDGE_CURVE('',#258,#259,#298,.F.);
#201=EDGE_CURVE('',#259,#260,#299,.F.);
#202=EDGE_CURVE('',#260,#261,#22,.T.);
#203=EDGE_CURVE('',#261,#262,#300,.F.);
#204=EDGE_CURVE('',#262,#263,#301,.F.);
#205=EDGE_CURVE('',#263,#264,#302,.F.);
#206=EDGE_CURVE('',#264,#265,#23,.F.);
#207=EDGE_CURVE('',#265,#266,#303,.F.);
#208=EDGE_CURVE('',#266,#267,#304,.F.);
#209=EDGE_CURVE('',#267,#252,#305,.F.);
#210=EDGE_CURVE('',#268,#268,#306,.T.);
#211=EDGE_CURVE('',#269,#269,#307,.T.);
#212=EDGE_CURVE('',#270,#270,#308,.T.);
#213=EDGE_CURVE('',#271,#271,#309,.T.);
#214=EDGE_CURVE('',#272,#273,#310,.F.);
#215=EDGE_CURVE('',#274,#272,#311,.F.);
#216=EDGE_CURVE('',#275,#274,#312,.F.);
#217=EDGE_CURVE('',#276,#275,#24,.F.);
#218=EDGE_CURVE('',#277,#276,#313,.F.);
#219=EDGE_CURVE('',#278,#277,#314,.F.);
#220=EDGE_CURVE('',#279,#278,#315,.F.);
#221=EDGE_CURVE('',#280,#279,#25,.F.);
#222=EDGE_CURVE('',#281,#280,#316,.F.);
#223=EDGE_CURVE('',#282,#281,#317,.F.);
#224=EDGE_CURVE('',#283,#282,#318,.F.);
#225=EDGE_CURVE('',#284,#283,#26,.T.);
#226=EDGE_CURVE('',#285,#284,#319,.F.);
#227=EDGE_CURVE('',#286,#285,#320,.F.);
#228=EDGE_CURVE('',#287,#286,#321,.F.);
#229=EDGE_CURVE('',#273,#287,#27,.T.);
#230=EDGE_CURVE('',#288,#288,#322,.T.);
#231=EDGE_CURVE('',#289,#289,#323,.T.);
#232=EDGE_CURVE('',#274,#254,#28,.F.);
#233=EDGE_CURVE('',#253,#275,#29,.T.);
#234=EDGE_CURVE('',#276,#252,#30,.T.);
#235=EDGE_CURVE('',#267,#277,#31,.T.);
#236=EDGE_CURVE('',#266,#278,#32,.T.);
#237=EDGE_CURVE('',#265,#279,#33,.T.);
#238=EDGE_CURVE('',#280,#264,#34,.T.);
#239=EDGE_CURVE('',#263,#281,#35,.T.);
#240=EDGE_CURVE('',#262,#282,#36,.T.);
#241=EDGE_CURVE('',#261,#283,#37,.T.);
#242=EDGE_CURVE('',#284,#260,#38,.T.);
#243=EDGE_CURVE('',#259,#285,#39,.T.);
#244=EDGE_CURVE('',#258,#286,#40,.T.);
#245=EDGE_CURVE('',#257,#287,#41,.T.);
#246=EDGE_CURVE('',#273,#256,#42,.T.);
#247=EDGE_CURVE('',#255,#272,#43,.T.);
#248=VERTEX_POINT('',#653);
#249=VERTEX_POINT('',#655);
#250=VERTEX_POINT('',#658);
#251=VERTEX_POINT('',#660);
#252=VERTEX_POINT('',#662);
#253=VERTEX_POINT('',#663);
#254=VERTEX_POINT('',#665);
#255=VERTEX_POINT('',#667);
#256=VERTEX_POINT('',#669);
#257=VERTEX_POINT('',#671);
#258=VERTEX_POINT('',#673);
#259=VERTEX_POINT('',#675);
#260=VERTEX_POINT('',#677);
#261=VERTEX_POINT('',#679);
#262=VERTEX_POINT('',#681);
#263=VERTEX_POINT('',#683);
#264=VERTEX_POINT('',#685);
#265=VERTEX_POINT('',#687);
#266=VERTEX_POINT('',#689);
#267=VERTEX_POINT('',#691);
#268=VERTEX_POINT('',#694);
#269=VERTEX_POINT('',#696);
#270=VERTEX_POINT('',#699);
#271=VERTEX_POINT('',#701);
#272=VERTEX_POINT('',#703);
#273=VERTEX_POINT('',#704);
#274=VERTEX_POINT('',#706);
#275=VERTEX_POINT('',#708);
#276=VERTEX_POINT('',#710);
#277=VERTEX_POINT('',#712);
#278=VERTEX_POINT('',#714);
#279=VERTEX_POINT('',#716);
#280=VERTEX_POINT('',#718);
#281=VERTEX_POINT('',#720);
#282=VERTEX_POINT('',#722);
#283=VERTEX_POINT('',#724);
#284=VERTEX_POINT('',#726);
#285=VERTEX_POINT('',#728);
#286=VERTEX_POINT('',#730);
#287=VERTEX_POINT('',#732);
#288=VERTEX_POINT('',#735);
#289=VERTEX_POINT('',#737);
#290=CIRCLE('',#454,0.0155);
#291=CIRCLE('',#455,0.0155);
#292=CIRCLE('',#457,0.00125);
#293=CIRCLE('',#458,0.00125000000000001);
#294=CIRCLE('',#459,0.004);
#295=CIRCLE('',#460,0.0256);
#296=CIRCLE('',#461,0.004);
#297=CIRCLE('',#462,0.004);
#298=CIRCLE('',#463,0.0256);
#299=CIRCLE('',#464,0.004);
#300=CIRCLE('',#465,0.004);
#301=CIRCLE('',#466,0.0256);
#302=CIRCLE('',#467,0.004);
#303=CIRCLE('',#468,0.004);
#304=CIRCLE('',#469,0.0256);
#305=CIRCLE('',#470,0.004);
#306=CIRCLE('',#471,0.00125000000000001);
#307=CIRCLE('',#472,0.00125000000000001);
#308=CIRCLE('',#474,0.00125);
#309=CIRCLE('',#475,0.00125000000000001);
#310=CIRCLE('',#476,0.004);
#311=CIRCLE('',#477,0.0256);
#312=CIRCLE('',#478,0.004);
#313=CIRCLE('',#479,0.004);
#314=CIRCLE('',#480,0.0256);
#315=CIRCLE('',#481,0.004);
#316=CIRCLE('',#482,0.004);
#317=CIRCLE('',#483,0.0256);
#318=CIRCLE('',#484,0.004);
#319=CIRCLE('',#485,0.004);
#320=CIRCLE('',#486,0.0256);
#321=CIRCLE('',#487,0.004);
#322=CIRCLE('',#488,0.00125000000000001);
#323=CIRCLE('',#489,0.00125000000000001);
#324=EDGE_LOOP('',(#74));
#325=EDGE_LOOP('',(#75));
#326=EDGE_LOOP('',(#76));
#327=EDGE_LOOP('',(#77));
#328=EDGE_LOOP('',(#78));
#329=EDGE_LOOP('',(#79,#80,#81,#82,#83,#84,#85,#86,#87,#88,#89,#90,#91,
#92,#93,#94));
#330=EDGE_LOOP('',(#95));
#331=EDGE_LOOP('',(#96));
#332=EDGE_LOOP('',(#97));
#333=EDGE_LOOP('',(#98));
#334=EDGE_LOOP('',(#99));
#335=EDGE_LOOP('',(#100,#101,#102,#103,#104,#105,#106,#107,#108,#109,#110,
#111,#112,#113,#114,#115));
#336=EDGE_LOOP('',(#116));
#337=EDGE_LOOP('',(#117));
#338=EDGE_LOOP('',(#118));
#339=EDGE_LOOP('',(#119));
#340=EDGE_LOOP('',(#120));
#341=EDGE_LOOP('',(#121));
#342=EDGE_LOOP('',(#122,#123,#124,#125));
#343=EDGE_LOOP('',(#126,#127,#128,#129));
#344=EDGE_LOOP('',(#130,#131,#132,#133));
#345=EDGE_LOOP('',(#134,#135,#136,#137));
#346=EDGE_LOOP('',(#138,#139,#140,#141));
#347=EDGE_LOOP('',(#142,#143,#144,#145));
#348=EDGE_LOOP('',(#146,#147,#148,#149));
#349=EDGE_LOOP('',(#150,#151,#152,#153));
#350=EDGE_LOOP('',(#154,#155,#156,#157));
#351=EDGE_LOOP('',(#158,#159,#160,#161));
#352=EDGE_LOOP('',(#162,#163,#164,#165));
#353=EDGE_LOOP('',(#166,#167,#168,#169));
#354=EDGE_LOOP('',(#170,#171,#172,#173));
#355=EDGE_LOOP('',(#174,#175,#176,#177));
#356=EDGE_LOOP('',(#178,#179,#180,#181));
#357=EDGE_LOOP('',(#182,#183,#184,#185));
#358=EDGE_LOOP('',(#186));
#359=EDGE_LOOP('',(#187));
#360=EDGE_LOOP('',(#188));
#361=EDGE_LOOP('',(#189));
#362=FACE_BOUND('',#324,.T.);
#363=FACE_BOUND('',#325,.T.);
#364=FACE_BOUND('',#326,.T.);
#365=FACE_BOUND('',#327,.T.);
#366=FACE_BOUND('',#328,.T.);
#367=FACE_BOUND('',#329,.T.);
#368=FACE_BOUND('',#330,.T.);
#369=FACE_BOUND('',#331,.T.);
#370=FACE_BOUND('',#332,.T.);
#371=FACE_BOUND('',#333,.T.);
#372=FACE_BOUND('',#334,.T.);
#373=FACE_BOUND('',#335,.T.);
#374=FACE_BOUND('',#336,.T.);
#375=FACE_BOUND('',#337,.T.);
#376=FACE_BOUND('',#338,.T.);
#377=FACE_BOUND('',#339,.T.);
#378=FACE_BOUND('',#340,.T.);
#379=FACE_BOUND('',#341,.T.);
#380=FACE_BOUND('',#342,.T.);
#381=FACE_BOUND('',#343,.T.);
#382=FACE_BOUND('',#344,.T.);
#383=FACE_BOUND('',#345,.T.);
#384=FACE_BOUND('',#346,.T.);
#385=FACE_BOUND('',#347,.T.);
#386=FACE_BOUND('',#348,.T.);
#387=FACE_BOUND('',#349,.T.);
#388=FACE_BOUND('',#350,.T.);
#389=FACE_BOUND('',#351,.T.);
#390=FACE_BOUND('',#352,.T.);
#391=FACE_BOUND('',#353,.T.);
#392=FACE_BOUND('',#354,.T.);
#393=FACE_BOUND('',#355,.T.);
#394=FACE_BOUND('',#356,.T.);
#395=FACE_BOUND('',#357,.T.);
#396=FACE_BOUND('',#358,.T.);
#397=FACE_BOUND('',#359,.T.);
#398=FACE_BOUND('',#360,.T.);
#399=FACE_BOUND('',#361,.T.);
#400=CYLINDRICAL_SURFACE('',#453,0.0155);
#401=CYLINDRICAL_SURFACE('',#490,0.00125);
#402=CYLINDRICAL_SURFACE('',#491,0.00125000000000001);
#403=CYLINDRICAL_SURFACE('',#492,0.004);
#404=CYLINDRICAL_SURFACE('',#494,0.004);
#405=CYLINDRICAL_SURFACE('',#495,0.0256);
#406=CYLINDRICAL_SURFACE('',#496,0.004);
#407=CYLINDRICAL_SURFACE('',#498,0.004);
#408=CYLINDRICAL_SURFACE('',#499,0.0256);
#409=CYLINDRICAL_SURFACE('',#500,0.004);
#410=CYLINDRICAL_SURFACE('',#502,0.004);
#411=CYLINDRICAL_SURFACE('',#503,0.0256);
#412=CYLINDRICAL_SURFACE('',#504,0.004);
#413=CYLINDRICAL_SURFACE('',#506,0.004);
#414=CYLINDRICAL_SURFACE('',#507,0.0256);
#415=CYLINDRICAL_SURFACE('',#508,0.00125000000000001);
#416=CYLINDRICAL_SURFACE('',#509,0.00125000000000001);
#417=ADVANCED_FACE('',(#362,#363),#400,.F.);
#418=ADVANCED_FACE('',(#364,#365,#366,#367,#368,#369),#68,.T.);
#419=ADVANCED_FACE('',(#370,#371,#372,#373,#374,#375),#69,.F.);
#420=ADVANCED_FACE('',(#376,#377),#401,.F.);
#421=ADVANCED_FACE('',(#378,#379),#402,.F.);
#422=ADVANCED_FACE('',(#380),#403,.T.);
#423=ADVANCED_FACE('',(#381),#70,.F.);
#424=ADVANCED_FACE('',(#382),#404,.T.);
#425=ADVANCED_FACE('',(#383),#405,.T.);
#426=ADVANCED_FACE('',(#384),#406,.T.);
#427=ADVANCED_FACE('',(#385),#71,.F.);
#428=ADVANCED_FACE('',(#386),#407,.T.);
#429=ADVANCED_FACE('',(#387),#408,.T.);
#430=ADVANCED_FACE('',(#388),#409,.T.);
#431=ADVANCED_FACE('',(#389),#72,.F.);
#432=ADVANCED_FACE('',(#390),#410,.T.);
#433=ADVANCED_FACE('',(#391),#411,.T.);
#434=ADVANCED_FACE('',(#392),#412,.T.);
#435=ADVANCED_FACE('',(#393),#73,.F.);
#436=ADVANCED_FACE('',(#394),#413,.T.);
#437=ADVANCED_FACE('',(#395),#414,.T.);
#438=ADVANCED_FACE('',(#396,#397),#415,.F.);
#439=ADVANCED_FACE('',(#398,#399),#416,.F.);
#440=CLOSED_SHELL('',(#417,#418,#419,#420,#421,#422,#423,#424,#425,#426,
#427,#428,#429,#430,#431,#432,#433,#434,#435,#436,#437,#438,#439));
#441=STYLED_ITEM('',(#442),#449);
#442=PRESENTATION_STYLE_ASSIGNMENT((#443));
#443=SURFACE_STYLE_USAGE(.BOTH.,#444);
#444=SURFACE_SIDE_STYLE('',(#445));
#445=SURFACE_STYLE_FILL_AREA(#446);
#446=FILL_AREA_STYLE('',(#447));
#447=FILL_AREA_STYLE_COLOUR('',#448);
#448=COLOUR_RGB('',0.188235294117647,0.188235294117647,0.188235294117647);
#449=MANIFOLD_SOLID_BREP('Part 88',#440);
#450=SHAPE_DEFINITION_REPRESENTATION(#780,#451);
#451=SHAPE_REPRESENTATION('Part 88',(#452),#775);
#452=AXIS2_PLACEMENT_3D('',#650,#510,#511);
#453=AXIS2_PLACEMENT_3D('',#651,#512,#513);
#454=AXIS2_PLACEMENT_3D('',#652,#514,#515);
#455=AXIS2_PLACEMENT_3D('',#654,#516,#517);
#456=AXIS2_PLACEMENT_3D('',#656,#518,#519);
#457=AXIS2_PLACEMENT_3D('',#657,#520,#521);
#458=AXIS2_PLACEMENT_3D('',#659,#522,#523);
#459=AXIS2_PLACEMENT_3D('',#664,#525,#526);
#460=AXIS2_PLACEMENT_3D('',#666,#527,#528);
#461=AXIS2_PLACEMENT_3D('',#668,#529,#530);
#462=AXIS2_PLACEMENT_3D('',#672,#532,#533);
#463=AXIS2_PLACEMENT_3D('',#674,#534,#535);
#464=AXIS2_PLACEMENT_3D('',#676,#536,#537);
#465=AXIS2_PLACEMENT_3D('',#680,#539,#540);
#466=AXIS2_PLACEMENT_3D('',#682,#541,#542);
#467=AXIS2_PLACEMENT_3D('',#684,#543,#544);
#468=AXIS2_PLACEMENT_3D('',#688,#546,#547);
#469=AXIS2_PLACEMENT_3D('',#690,#548,#549);
#470=AXIS2_PLACEMENT_3D('',#692,#550,#551);
#471=AXIS2_PLACEMENT_3D('',#693,#552,#553);
#472=AXIS2_PLACEMENT_3D('',#695,#554,#555);
#473=AXIS2_PLACEMENT_3D('',#697,#556,#557);
#474=AXIS2_PLACEMENT_3D('',#698,#558,#559);
#475=AXIS2_PLACEMENT_3D('',#700,#560,#561);
#476=AXIS2_PLACEMENT_3D('',#702,#562,#563);
#477=AXIS2_PLACEMENT_3D('',#705,#564,#565);
#478=AXIS2_PLACEMENT_3D('',#707,#566,#567);
#479=AXIS2_PLACEMENT_3D('',#711,#569,#570);
#480=AXIS2_PLACEMENT_3D('',#713,#571,#572);
#481=AXIS2_PLACEMENT_3D('',#715,#573,#574);
#482=AXIS2_PLACEMENT_3D('',#719,#576,#577);
#483=AXIS2_PLACEMENT_3D('',#721,#578,#579);
#484=AXIS2_PLACEMENT_3D('',#723,#580,#581);
#485=AXIS2_PLACEMENT_3D('',#727,#583,#584);
#486=AXIS2_PLACEMENT_3D('',#729,#585,#586);
#487=AXIS2_PLACEMENT_3D('',#731,#587,#588);
#488=AXIS2_PLACEMENT_3D('',#734,#590,#591);
#489=AXIS2_PLACEMENT_3D('',#736,#592,#593);
#490=AXIS2_PLACEMENT_3D('',#738,#594,#595);
#491=AXIS2_PLACEMENT_3D('',#739,#596,#597);
#492=AXIS2_PLACEMENT_3D('',#740,#598,#599);
#493=AXIS2_PLACEMENT_3D('',#743,#602,#603);
#494=AXIS2_PLACEMENT_3D('',#745,#605,#606);
#495=AXIS2_PLACEMENT_3D('',#747,#608,#609);
#496=AXIS2_PLACEMENT_3D('',#749,#611,#612);
#497=AXIS2_PLACEMENT_3D('',#751,#614,#615);
#498=AXIS2_PLACEMENT_3D('',#753,#617,#618);
#499=AXIS2_PLACEMENT_3D('',#755,#620,#621);
#500=AXIS2_PLACEMENT_3D('',#757,#623,#624);
#501=AXIS2_PLACEMENT_3D('',#759,#626,#627);
#502=AXIS2_PLACEMENT_3D('',#761,#629,#630);
#503=AXIS2_PLACEMENT_3D('',#763,#632,#633);
#504=AXIS2_PLACEMENT_3D('',#765,#635,#636);
#505=AXIS2_PLACEMENT_3D('',#767,#638,#639);
#506=AXIS2_PLACEMENT_3D('',#769,#641,#642);
#507=AXIS2_PLACEMENT_3D('',#771,#644,#645);
#508=AXIS2_PLACEMENT_3D('',#772,#646,#647);
#509=AXIS2_PLACEMENT_3D('',#773,#648,#649);
#510=DIRECTION('',(0.,0.,1.));
#511=DIRECTION('',(1.,0.,0.));
#512=DIRECTION('',(0.,0.,-1.));
#513=DIRECTION('',(0.00570245086249838,0.999983740894901,0.));
#514=DIRECTION('',(0.,0.,-1.));
#515=DIRECTION('',(0.00570245086249838,0.999983740894901,0.));
#516=DIRECTION('',(0.,0.,-1.));
#517=DIRECTION('',(0.00570245086249838,0.999983740894901,0.));
#518=DIRECTION('',(0.,0.,1.));
#519=DIRECTION('',(-0.00570245086249838,-0.999983740894901,0.));
#520=DIRECTION('',(0.,0.,-1.));
#521=DIRECTION('',(0.00570245086249838,0.999983740894901,0.));
#522=DIRECTION('',(0.,0.,-1.));
#523=DIRECTION('',(0.00570245086249838,0.999983740894901,0.));
#524=DIRECTION('',(0.999983740894901,-0.00570245086249838,0.));
#525=DIRECTION('',(0.,0.,-1.));
#526=DIRECTION('',(0.00570245086249838,0.999983740894901,0.));
#527=DIRECTION('',(0.,0.,-1.));
#528=DIRECTION('',(0.00570245086249838,0.999983740894901,0.));
#529=DIRECTION('',(0.,0.,-1.));
#530=DIRECTION('',(0.00570245086249838,0.999983740894901,0.));
#531=DIRECTION('',(-0.00570245086249838,-0.999983740894901,0.));
#532=DIRECTION('',(0.,0.,-1.));
#533=DIRECTION('',(0.00570245086249838,0.999983740894901,0.));
#534=DIRECTION('',(0.,0.,-1.));
#535=DIRECTION('',(0.00570245086249838,0.999983740894901,0.));
#536=DIRECTION('',(0.,0.,-1.));
#537=DIRECTION('',(0.00570245086249838,0.999983740894901,0.));
#538=DIRECTION('',(0.999983740894901,-0.00570245086249838,0.));
#539=DIRECTION('',(0.,0.,-1.));
#540=DIRECTION('',(0.00570245086249838,0.999983740894901,0.));
#541=DIRECTION('',(0.,0.,-1.));
#542=DIRECTION('',(0.00570245086249838,0.999983740894901,0.));
#543=DIRECTION('',(0.,0.,-1.));
#544=DIRECTION('',(0.00570245086249838,0.999983740894901,0.));
#545=DIRECTION('',(-0.00570245086249838,-0.999983740894901,0.));
#546=DIRECTION('',(0.,0.,-1.));
#547=DIRECTION('',(0.00570245086249838,0.999983740894901,0.));
#548=DIRECTION('',(0.,0.,-1.));
#549=DIRECTION('',(0.00570245086249838,0.999983740894901,0.));
#550=DIRECTION('',(0.,0.,-1.));
#551=DIRECTION('',(0.00570245086249838,0.999983740894901,0.));
#552=DIRECTION('',(0.,0.,-1.));
#553=DIRECTION('',(0.00570245086249838,0.999983740894901,0.));
#554=DIRECTION('',(0.,0.,-1.));
#555=DIRECTION('',(0.00570245086249838,0.999983740894901,0.));
#556=DIRECTION('',(0.,0.,1.));
#557=DIRECTION('',(-0.00570245086249838,-0.999983740894901,0.));
#558=DIRECTION('',(0.,0.,-1.));
#559=DIRECTION('',(0.00570245086249838,0.999983740894901,0.));
#560=DIRECTION('',(0.,0.,-1.));
#561=DIRECTION('',(0.00570245086249838,0.999983740894901,0.));
#562=DIRECTION('',(0.,0.,-1.));
#563=DIRECTION('',(0.00570245086249838,0.999983740894901,0.));
#564=DIRECTION('',(0.,0.,-1.));
#565=DIRECTION('',(0.00570245086249838,0.999983740894901,0.));
#566=DIRECTION('',(0.,0.,-1.));
#567=DIRECTION('',(0.00570245086249838,0.999983740894901,0.));
#568=DIRECTION('',(0.999983740894901,-0.00570245086249838,0.));
#569=DIRECTION('',(0.,0.,-1.));
#570=DIRECTION('',(0.00570245086249838,0.999983740894901,0.));
#571=DIRECTION('',(0.,0.,-1.));
#572=DIRECTION('',(0.00570245086249838,0.999983740894901,0.));
#573=DIRECTION('',(0.,0.,-1.));
#574=DIRECTION('',(0.00570245086249838,0.999983740894901,0.));
#575=DIRECTION('',(-0.00570245086249838,-0.999983740894901,0.));
#576=DIRECTION('',(0.,0.,-1.));
#577=DIRECTION('',(0.00570245086249838,0.999983740894901,0.));
#578=DIRECTION('',(0.,0.,-1.));
#579=DIRECTION('',(0.00570245086249838,0.999983740894901,0.));
#580=DIRECTION('',(0.,0.,-1.));
#581=DIRECTION('',(0.00570245086249838,0.999983740894901,0.));
#582=DIRECTION('',(0.999983740894901,-0.00570245086249838,0.));
#583=DIRECTION('',(0.,0.,-1.));
#584=DIRECTION('',(0.00570245086249838,0.999983740894901,0.));
#585=DIRECTION('',(0.,0.,-1.));
#586=DIRECTION('',(0.00570245086249838,0.999983740894901,0.));
#587=DIRECTION('',(0.,0.,-1.));
#588=DIRECTION('',(0.00570245086249838,0.999983740894901,0.));
#589=DIRECTION('',(-0.00570245086249838,-0.999983740894901,0.));
#590=DIRECTION('',(0.,0.,-1.));
#591=DIRECTION('',(0.00570245086249838,0.999983740894901,0.));
#592=DIRECTION('',(0.,0.,-1.));
#593=DIRECTION('',(0.00570245086249838,0.999983740894901,0.));
#594=DIRECTION('',(0.,0.,-1.));
#595=DIRECTION('',(0.00570245086249838,0.999983740894901,0.));
#596=DIRECTION('',(0.,0.,-1.));
#597=DIRECTION('',(0.00570245086249838,0.999983740894901,0.));
#598=DIRECTION('',(0.,0.,-1.));
#599=DIRECTION('',(0.00570245086249838,0.999983740894901,0.));
#600=DIRECTION('',(0.,0.,-1.));
#601=DIRECTION('',(0.,0.,-1.));
#602=DIRECTION('',(-0.00570245086249838,-0.999983740894901,0.));
#603=DIRECTION('',(0.999983740894901,-0.00570245086249838,0.));
#604=DIRECTION('',(0.,0.,1.));
#605=DIRECTION('',(0.,0.,-1.));
#606=DIRECTION('',(0.00570245086249838,0.999983740894901,0.));
#607=DIRECTION('',(0.,0.,-1.));
#608=DIRECTION('',(0.,0.,-1.));
#609=DIRECTION('',(0.00570245086249838,0.999983740894901,0.));
#610=DIRECTION('',(0.,0.,-1.));
#611=DIRECTION('',(0.,0.,-1.));
#612=DIRECTION('',(0.00570245086249838,0.999983740894901,0.));
#613=DIRECTION('',(0.,0.,-1.));
#614=DIRECTION('',(-0.999983740894901,0.00570245086249838,0.));
#615=DIRECTION('',(-0.00570245086249838,-0.999983740894901,0.));
#616=DIRECTION('',(0.,0.,1.));
#617=DIRECTION('',(0.,0.,-1.));
#618=DIRECTION('',(0.00570245086249838,0.999983740894901,0.));
#619=DIRECTION('',(0.,0.,-1.));
#620=DIRECTION('',(0.,0.,-1.));
#621=DIRECTION('',(0.00570245086249838,0.999983740894901,0.));
#622=DIRECTION('',(0.,0.,-1.));
#623=DIRECTION('',(0.,0.,-1.));
#624=DIRECTION('',(0.00570245086249838,0.999983740894901,0.));
#625=DIRECTION('',(0.,0.,-1.));
#626=DIRECTION('',(0.0057024508624985,0.999983740894901,0.));
#627=DIRECTION('',(-0.999983740894901,0.0057024508624985,0.));
#628=DIRECTION('',(0.,0.,1.));
#629=DIRECTION('',(0.,0.,-1.));
#630=DIRECTION('',(0.00570245086249838,0.999983740894901,0.));
#631=DIRECTION('',(0.,0.,-1.));
#632=DIRECTION('',(0.,0.,-1.));
#633=DIRECTION('',(0.00570245086249838,0.999983740894901,0.));
#634=DIRECTION('',(0.,0.,-1.));
#635=DIRECTION('',(0.,0.,-1.));
#636=DIRECTION('',(0.00570245086249838,0.999983740894901,0.));
#637=DIRECTION('',(0.,0.,-1.));
#638=DIRECTION('',(0.999983740894901,-0.00570245086249838,0.));
#639=DIRECTION('',(0.00570245086249838,0.999983740894901,0.));
#640=DIRECTION('',(0.,0.,1.));
#641=DIRECTION('',(0.,0.,-1.));
#642=DIRECTION('',(0.00570245086249838,0.999983740894901,0.));
#643=DIRECTION('',(0.,0.,-1.));
#644=DIRECTION('',(0.,0.,-1.));
#645=DIRECTION('',(0.00570245086249838,0.999983740894901,0.));
#646=DIRECTION('',(0.,0.,-1.));
#647=DIRECTION('',(0.00570245086249838,0.999983740894901,0.));
#648=DIRECTION('',(0.,0.,-1.));
#649=DIRECTION('',(0.00570245086249838,0.999983740894901,0.));
#650=CARTESIAN_POINT('',(0.,0.,0.));
#651=CARTESIAN_POINT('',(0.013074576668837,0.00162303821074732,0.061));
#652=CARTESIAN_POINT('',(0.013074576668837,0.00162303821074732,0.0295));
#653=CARTESIAN_POINT('',(0.0131629646572057,0.0171227861946183,0.0295));
#654=CARTESIAN_POINT('',(0.013074576668837,0.00162303821074732,0.061));
#655=CARTESIAN_POINT('',(0.0131629646572057,0.0171227861946183,0.061));
#656=CARTESIAN_POINT('',(0.013074576668837,0.00162303821074732,0.061));
#657=CARTESIAN_POINT('',(-0.00251355930340265,-0.0137883217847549,0.061));
#658=CARTESIAN_POINT('',(-0.00250643123982453,-0.0125383421086363,0.061));
#659=CARTESIAN_POINT('',(0.0286627126410768,0.0170343982062495,0.061));
#660=CARTESIAN_POINT('',(0.0286698407046549,0.0182843778823682,0.061));
#661=CARTESIAN_POINT('',(0.0131943281369495,0.0226226967695402,0.061));
#662=CARTESIAN_POINT('',(0.0265192756457968,0.0225467106756598,0.061));
#663=CARTESIAN_POINT('',(-0.000130619371897872,0.0226986828634207,0.061));
#664=CARTESIAN_POINT('',(-0.000153429175347867,0.0186987478998411,0.061));
#665=CARTESIAN_POINT('',(-0.00260305988723396,0.0218609163607844,0.061));
#666=CARTESIAN_POINT('',(0.013074576668837,0.00162303821074732,0.061));
#667=CARTESIAN_POINT('',(-0.00698318629570561,0.0175304624163886,0.061));
#668=CARTESIAN_POINT('',(-0.00384916083249583,0.0150449273842572,0.061));
#669=CARTESIAN_POINT('',(-0.00784909579607543,0.0150677371877071,0.061));
#670=CARTESIAN_POINT('',(-0.00792508188995589,0.00174278967885978,0.061));
#671=CARTESIAN_POINT('',(-0.00800106798383635,-0.0115821578299876,0.061));
#672=CARTESIAN_POINT('',(-0.00400113302025675,-0.0116049676334376,0.061));
#673=CARTESIAN_POINT('',(-0.00716330148120003,-0.0140545983453237,0.061));
#674=CARTESIAN_POINT('',(0.013074576668837,0.00162303821074732,0.061));
#675=CARTESIAN_POINT('',(-0.00283284753680424,-0.0184347247537953,0.061));
#676=CARTESIAN_POINT('',(-0.000347312504672794,-0.0153006992905856,0.061));
#677=CARTESIAN_POINT('',(-0.000370122308122788,-0.0193006342541652,0.061));
#678=CARTESIAN_POINT('',(0.0129548252007246,-0.0193766203480456,0.061));
#679=CARTESIAN_POINT('',(0.0262797727095719,-0.0194526064419261,0.061));
#680=CARTESIAN_POINT('',(0.0263025825130219,-0.0154526714783465,0.061));
#681=CARTESIAN_POINT('',(0.028752213224908,-0.0186148399392898,0.061));
#682=CARTESIAN_POINT('',(0.013074576668837,0.00162303821074732,0.061));
#683=CARTESIAN_POINT('',(0.0331323396333797,-0.0142843859948939,0.061));
#684=CARTESIAN_POINT('',(0.0299983141701699,-0.0117988509627625,0.061));
#685=CARTESIAN_POINT('',(0.0339982491337495,-0.0118216607662125,0.061));
#686=CARTESIAN_POINT('',(0.03407423522763,0.00150328674263485,0.061));
#687=CARTESIAN_POINT('',(0.0341502213215105,0.0148282342514822,0.061));
#688=CARTESIAN_POINT('',(0.0301502863579308,0.0148510440549322,0.061));
#689=CARTESIAN_POINT('',(0.0333124548188742,0.0173006747668182,0.061));
#690=CARTESIAN_POINT('',(0.013074576668837,0.00162303821074732,0.061));
#691=CARTESIAN_POINT('',(0.0289820008744784,0.02168080117529,0.061));
#692=CARTESIAN_POINT('',(0.0264964658423469,0.0185467757120802,0.061));
#693=CARTESIAN_POINT('',(-0.0023367833266652,0.017211174182987,0.061));
#694=CARTESIAN_POINT('',(-0.00232965526308708,0.0184611538591056,0.061));
#695=CARTESIAN_POINT('',(0.0284859366643393,-0.0139650977614924,0.061));
#696=CARTESIAN_POINT('',(0.0284930647279174,-0.0127151180853738,0.061));
#697=CARTESIAN_POINT('',(0.013074576668837,0.00162303821074732,0.0295));
#698=CARTESIAN_POINT('',(-0.00251355930340265,-0.0137883217847549,0.0295));
#699=CARTESIAN_POINT('',(-0.00250643123982453,-0.0125383421086363,0.0295));
#700=CARTESIAN_POINT('',(0.0286627126410768,0.0170343982062495,0.0295));
#701=CARTESIAN_POINT('',(0.0286698407046549,0.0182843778823682,0.0295));
#702=CARTESIAN_POINT('',(-0.00384916083249583,0.0150449273842572,0.0295));
#703=CARTESIAN_POINT('',(-0.00698318629570561,0.0175304624163886,0.0295));
#704=CARTESIAN_POINT('',(-0.00784909579607543,0.0150677371877071,0.0295));
#705=CARTESIAN_POINT('',(0.013074576668837,0.00162303821074732,0.0295));
#706=CARTESIAN_POINT('',(-0.00260305988723396,0.0218609163607844,0.0295));
#707=CARTESIAN_POINT('',(-0.000153429175347867,0.0186987478998411,0.0295));
#708=CARTESIAN_POINT('',(-0.000130619371897872,0.0226986828634207,0.0295));
#709=CARTESIAN_POINT('',(0.0131943281369495,0.0226226967695402,0.0295));
#710=CARTESIAN_POINT('',(0.0265192756457968,0.0225467106756598,0.0295));
#711=CARTESIAN_POINT('',(0.0264964658423469,0.0185467757120802,0.0295));
#712=CARTESIAN_POINT('',(0.0289820008744784,0.02168080117529,0.0295));
#713=CARTESIAN_POINT('',(0.013074576668837,0.00162303821074732,0.0295));
#714=CARTESIAN_POINT('',(0.0333124548188742,0.0173006747668182,0.0295));
#715=CARTESIAN_POINT('',(0.0301502863579308,0.0148510440549322,0.0295));
#716=CARTESIAN_POINT('',(0.0341502213215105,0.0148282342514822,0.0295));
#717=CARTESIAN_POINT('',(0.03407423522763,0.00150328674263485,0.0295));
#718=CARTESIAN_POINT('',(0.0339982491337495,-0.0118216607662125,0.0295));
#719=CARTESIAN_POINT('',(0.0299983141701699,-0.0117988509627625,0.0295));
#720=CARTESIAN_POINT('',(0.0331323396333797,-0.0142843859948939,0.0295));
#721=CARTESIAN_POINT('',(0.013074576668837,0.00162303821074732,0.0295));
#722=CARTESIAN_POINT('',(0.028752213224908,-0.0186148399392898,0.0295));
#723=CARTESIAN_POINT('',(0.0263025825130219,-0.0154526714783465,0.0295));
#724=CARTESIAN_POINT('',(0.0262797727095719,-0.0194526064419261,0.0295));
#725=CARTESIAN_POINT('',(0.0129548252007246,-0.0193766203480456,0.0295));
#726=CARTESIAN_POINT('',(-0.000370122308122788,-0.0193006342541652,0.0295));
#727=CARTESIAN_POINT('',(-0.000347312504672794,-0.0153006992905856,0.0295));
#728=CARTESIAN_POINT('',(-0.00283284753680424,-0.0184347247537953,0.0295));
#729=CARTESIAN_POINT('',(0.013074576668837,0.00162303821074732,0.0295));
#730=CARTESIAN_POINT('',(-0.00716330148120003,-0.0140545983453237,0.0295));
#731=CARTESIAN_POINT('',(-0.00400113302025675,-0.0116049676334376,0.0295));
#732=CARTESIAN_POINT('',(-0.00800106798383635,-0.0115821578299876,0.0295));
#733=CARTESIAN_POINT('',(-0.00792508188995589,0.00174278967885978,0.0295));
#734=CARTESIAN_POINT('',(-0.0023367833266652,0.017211174182987,0.0295));
#735=CARTESIAN_POINT('',(-0.00232965526308708,0.0184611538591056,0.0295));
#736=CARTESIAN_POINT('',(0.0284859366643393,-0.0139650977614924,0.0295));
#737=CARTESIAN_POINT('',(0.0284930647279174,-0.0127151180853738,0.0295));
#738=CARTESIAN_POINT('',(-0.00251355930340265,-0.0137883217847549,0.061));
#739=CARTESIAN_POINT('',(0.0286627126410768,0.0170343982062495,0.061));
#740=CARTESIAN_POINT('',(-0.000153429175347867,0.0186987478998411,0.061));
#741=CARTESIAN_POINT('',(-0.00260305988723396,0.0218609163607844,0.061));
#742=CARTESIAN_POINT('',(-0.000130619371897872,0.0226986828634207,0.061));
#743=CARTESIAN_POINT('',(-0.00144647202742441,0.0227061865705347,0.061));
#744=CARTESIAN_POINT('',(0.0265192756457968,0.0225467106756598,0.061));
#745=CARTESIAN_POINT('',(0.0264964658423469,0.0185467757120802,0.061));
#746=CARTESIAN_POINT('',(0.0289820008744784,0.02168080117529,0.061));
#747=CARTESIAN_POINT('',(0.013074576668837,0.00162303821074732,0.061));
#748=CARTESIAN_POINT('',(0.0333124548188742,0.0173006747668182,0.061));
#749=CARTESIAN_POINT('',(0.0301502863579308,0.0148510440549322,0.061));
#750=CARTESIAN_POINT('',(0.0341502213215105,0.0148282342514822,0.061));
#751=CARTESIAN_POINT('',(0.0339907454266355,-0.013137513421739,0.061));
#752=CARTESIAN_POINT('',(0.0339982491337495,-0.0118216607662125,0.061));
#753=CARTESIAN_POINT('',(0.0299983141701699,-0.0117988509627625,0.061));
#754=CARTESIAN_POINT('',(0.0331323396333797,-0.0142843859948939,0.061));
#755=CARTESIAN_POINT('',(0.013074576668837,0.00162303821074732,0.061));
#756=CARTESIAN_POINT('',(0.028752213224908,-0.0186148399392898,0.061));
#757=CARTESIAN_POINT('',(0.0263025825130219,-0.0154526714783465,0.061));
#758=CARTESIAN_POINT('',(0.0262797727095719,-0.0194526064419261,0.061));
#759=CARTESIAN_POINT('',(-0.00168597496364934,-0.0192931305470512,0.061));
#760=CARTESIAN_POINT('',(-0.000370122308122788,-0.0193006342541652,0.061));
#761=CARTESIAN_POINT('',(-0.000347312504672794,-0.0153006992905856,0.061));
#762=CARTESIAN_POINT('',(-0.00283284753680424,-0.0184347247537953,0.061));
#763=CARTESIAN_POINT('',(0.013074576668837,0.00162303821074732,0.061));
#764=CARTESIAN_POINT('',(-0.00716330148120003,-0.0140545983453237,0.061));
#765=CARTESIAN_POINT('',(-0.00400113302025675,-0.0116049676334376,0.061));
#766=CARTESIAN_POINT('',(-0.00800106798383635,-0.0115821578299876,0.061));
#767=CARTESIAN_POINT('',(-0.00800857169095034,-0.0128980104855141,0.061));
#768=CARTESIAN_POINT('',(-0.00784909579607543,0.0150677371877071,0.061));
#769=CARTESIAN_POINT('',(-0.00384916083249583,0.0150449273842572,0.061));
#770=CARTESIAN_POINT('',(-0.00698318629570562,0.0175304624163886,0.061));
#771=CARTESIAN_POINT('',(0.013074576668837,0.00162303821074732,0.061));
#772=CARTESIAN_POINT('',(-0.0023367833266652,0.017211174182987,0.061));
#773=CARTESIAN_POINT('',(0.0284859366643393,-0.0139650977614924,0.061));
#774=MECHANICAL_DESIGN_GEOMETRIC_PRESENTATION_REPRESENTATION('',(#441),
#775);
#775=(
GEOMETRIC_REPRESENTATION_CONTEXT(3)
GLOBAL_UNCERTAINTY_ASSIGNED_CONTEXT((#776))
GLOBAL_UNIT_ASSIGNED_CONTEXT((#779,#778,#777))
REPRESENTATION_CONTEXT('Part 88','TOP_LEVEL_ASSEMBLY_PART')
);
#776=UNCERTAINTY_MEASURE_WITH_UNIT(LENGTH_MEASURE(1.E-8),#779,
'DISTANCE_ACCURACY_VALUE','Maximum Tolerance applied to model');
#777=(
NAMED_UNIT(*)
SI_UNIT($,.STERADIAN.)
SOLID_ANGLE_UNIT()
);
#778=(
NAMED_UNIT(*)
PLANE_ANGLE_UNIT()
SI_UNIT($,.RADIAN.)
);
#779=(
LENGTH_UNIT()
NAMED_UNIT(*)
SI_UNIT($,.METRE.)
);
#780=PRODUCT_DEFINITION_SHAPE('','',#781);
#781=PRODUCT_DEFINITION('','',#783,#782);
#782=PRODUCT_DEFINITION_CONTEXT('',#789,'design');
#783=PRODUCT_DEFINITION_FORMATION_WITH_SPECIFIED_SOURCE('','',#785,
 .NOT_KNOWN.);
#784=PRODUCT_RELATED_PRODUCT_CATEGORY('','',(#785));
#785=PRODUCT('Part 88','Part 88','Part 88',(#787));
#786=PRODUCT_CATEGORY('','');
#787=PRODUCT_CONTEXT('',#789,'mechanical');
#788=APPLICATION_PROTOCOL_DEFINITION('international standard',
'automotive_design',2010,#789);
#789=APPLICATION_CONTEXT(
'core data for automotive mechanical design processes');
ENDSEC;
END-ISO-10303-21;
