ISO-10303-21;
HEADER;
/* Generated by software containing ST-Developer
 * from STEP Tools, Inc. (www.steptools.com) 
 */
/* OPTION: using custom renumber hook */

FILE_DESCRIPTION(
/* description */ ('STEP AP214',
'CAx-IF Rec.Pracs.---User Defined Attributes---1.5---2016-08-15'),
/* implementation_level */ '2;1');

FILE_NAME(
/* name */ '6a65b59a8ce625604a87546d',
/* time_stamp */ '2026-07-26T07:22:02Z',
/* author */ (''),
/* organization */ (''),
/* preprocessor_version */ 'ST-DEVELOPER v20',
/* originating_system */ 'ONSHAPE BY PTC INC, 1.218',
/* authorisation */ '  ');

FILE_SCHEMA (('AUTOMOTIVE_DESIGN {1 0 10303 214 3 1 1}'));
ENDSEC;

DATA;
#10=PROPERTY_DEFINITION_REPRESENTATION(#14,#12);
#11=PROPERTY_DEFINITION_REPRESENTATION(#15,#13);
#12=REPRESENTATION('',(#16),#154);
#13=REPRESENTATION('',(#17),#154);
#14=PROPERTY_DEFINITION('pmi validation property','',#159);
#15=PROPERTY_DEFINITION('pmi validation property','',#159);
#16=VALUE_REPRESENTATION_ITEM('number of annotations',COUNT_MEASURE(0.));
#17=VALUE_REPRESENTATION_ITEM('number of views',COUNT_MEASURE(0.));
#18=SHAPE_REPRESENTATION_RELATIONSHIP('','',#100,#19);
#19=ADVANCED_BREP_SHAPE_REPRESENTATION('',(#98),#154);
#20=PLANE('',#105);
#21=PLANE('',#106);
#22=PLANE('',#107);
#23=PLANE('',#108);
#24=CIRCLE('',#104,0.004);
#25=LINE('',#137,#32);
#26=LINE('',#141,#33);
#27=LINE('',#143,#34);
#28=LINE('',#145,#35);
#29=LINE('',#147,#36);
#30=LINE('',#149,#37);
#31=LINE('',#151,#38);
#32=VECTOR('',#115,1.);
#33=VECTOR('',#120,1.);
#34=VECTOR('',#121,1.);
#35=VECTOR('',#122,1.);
#36=VECTOR('',#125,1.);
#37=VECTOR('',#126,1.);
#38=VECTOR('',#129,1.);
#39=ORIENTED_EDGE('',*,*,#57,.F.);
#40=ORIENTED_EDGE('',*,*,#58,.F.);
#41=ORIENTED_EDGE('',*,*,#59,.T.);
#42=ORIENTED_EDGE('',*,*,#60,.F.);
#43=ORIENTED_EDGE('',*,*,#61,.T.);
#44=ORIENTED_EDGE('',*,*,#62,.T.);
#45=ORIENTED_EDGE('',*,*,#58,.T.);
#46=ORIENTED_EDGE('',*,*,#63,.F.);
#47=ORIENTED_EDGE('',*,*,#59,.F.);
#48=ORIENTED_EDGE('',*,*,#62,.F.);
#49=ORIENTED_EDGE('',*,*,#64,.T.);
#50=ORIENTED_EDGE('',*,*,#65,.F.);
#51=ORIENTED_EDGE('',*,*,#64,.F.);
#52=ORIENTED_EDGE('',*,*,#61,.F.);
#53=ORIENTED_EDGE('',*,*,#63,.T.);
#54=ORIENTED_EDGE('',*,*,#65,.T.);
#55=ORIENTED_EDGE('',*,*,#60,.T.);
#56=ORIENTED_EDGE('',*,*,#57,.T.);
#57=EDGE_CURVE('',#66,#67,#72,.F.);
#58=EDGE_CURVE('',#68,#66,#25,.F.);
#59=EDGE_CURVE('',#68,#67,#24,.T.);
#60=EDGE_CURVE('',#69,#66,#26,.F.);
#61=EDGE_CURVE('',#69,#70,#27,.T.);
#62=EDGE_CURVE('',#70,#68,#28,.F.);
#63=EDGE_CURVE('',#67,#71,#29,.T.);
#64=EDGE_CURVE('',#70,#71,#30,.T.);
#65=EDGE_CURVE('',#71,#69,#31,.T.);
#66=VERTEX_POINT('',#135);
#67=VERTEX_POINT('',#136);
#68=VERTEX_POINT('',#138);
#69=VERTEX_POINT('',#142);
#70=VERTEX_POINT('',#144);
#71=VERTEX_POINT('',#148);
#72=ELLIPSE('',#103,15.1541227998678,0.004);
#73=EDGE_LOOP('',(#39,#40,#41));
#74=EDGE_LOOP('',(#42,#43,#44,#45));
#75=EDGE_LOOP('',(#46,#47,#48,#49));
#76=EDGE_LOOP('',(#50,#51,#52));
#77=EDGE_LOOP('',(#53,#54,#55,#56));
#78=FACE_BOUND('',#73,.T.);
#79=FACE_BOUND('',#74,.T.);
#80=FACE_BOUND('',#75,.T.);
#81=FACE_BOUND('',#76,.T.);
#82=FACE_BOUND('',#77,.T.);
#83=CYLINDRICAL_SURFACE('',#102,0.004);
#84=ADVANCED_FACE('',(#78),#83,.T.);
#85=ADVANCED_FACE('',(#79),#20,.T.);
#86=ADVANCED_FACE('',(#80),#21,.T.);
#87=ADVANCED_FACE('',(#81),#22,.T.);
#88=ADVANCED_FACE('',(#82),#23,.F.);
#89=CLOSED_SHELL('',(#84,#85,#86,#87,#88));
#90=STYLED_ITEM('',(#91),#98);
#91=PRESENTATION_STYLE_ASSIGNMENT((#92));
#92=SURFACE_STYLE_USAGE(.BOTH.,#93);
#93=SURFACE_SIDE_STYLE('',(#94));
#94=SURFACE_STYLE_FILL_AREA(#95);
#95=FILL_AREA_STYLE('',(#96));
#96=FILL_AREA_STYLE_COLOUR('',#97);
#97=COLOUR_RGB('',0.745098039215686,0.745098039215686,0.745098039215686);
#98=MANIFOLD_SOLID_BREP('Part 110',#89);
#99=SHAPE_DEFINITION_REPRESENTATION(#159,#100);
#100=SHAPE_REPRESENTATION('Part 110',(#101),#154);
#101=AXIS2_PLACEMENT_3D('',#132,#109,#110);
#102=AXIS2_PLACEMENT_3D('',#133,#111,#112);
#103=AXIS2_PLACEMENT_3D('',#134,#113,#114);
#104=AXIS2_PLACEMENT_3D('',#139,#116,#117);
#105=AXIS2_PLACEMENT_3D('',#140,#118,#119);
#106=AXIS2_PLACEMENT_3D('',#146,#123,#124);
#107=AXIS2_PLACEMENT_3D('',#150,#127,#128);
#108=AXIS2_PLACEMENT_3D('',#152,#130,#131);
#109=DIRECTION('',(0.,0.,1.));
#110=DIRECTION('',(1.,0.,0.));
#111=DIRECTION('',(-1.,3.53191988766583E-31,0.));
#112=DIRECTION('',(-3.53191988766583E-31,-1.,0.));
#113=DIRECTION('',(0.000263954572153453,1.88825326744156E-14,-0.999999965163991));
#114=DIRECTION('',(-0.999999965163991,4.98413100687656E-18,-0.000263954572153453));
#115=DIRECTION('',(1.,0.,0.));
#116=DIRECTION('',(-1.,3.53191988766583E-31,0.));
#117=DIRECTION('',(-3.53191988766583E-31,-1.,0.));
#118=DIRECTION('',(0.,0.,-1.));
#119=DIRECTION('',(0.,1.,0.));
#120=DIRECTION('',(0.,1.,0.));
#121=DIRECTION('',(1.,0.,0.));
#122=DIRECTION('',(0.,1.,0.));
#123=DIRECTION('',(1.,0.,0.));
#124=DIRECTION('',(0.,1.,0.));
#125=DIRECTION('',(0.,1.,1.88825333322077E-14));
#126=DIRECTION('',(0.,0.,1.));
#127=DIRECTION('',(-4.54216170821161E-29,1.,1.88825333322077E-14));
#128=DIRECTION('',(0.,-1.88825333322077E-14,1.));
#129=DIRECTION('',(-0.999999965163991,0.,-0.000263954572153453));
#130=DIRECTION('',(0.000263954572153453,1.88825326744156E-14,-0.999999965163991));
#131=DIRECTION('',(0.999999965163991,0.,0.000263954572153453));
#132=CARTESIAN_POINT('',(0.,0.,0.));
#133=CARTESIAN_POINT('',(0.0203687680827481,-0.058,-0.083));
#134=CARTESIAN_POINT('',(15.1777411981676,-0.058,-0.083));
#135=CARTESIAN_POINT('',(0.023618926208255,-0.058,-0.087));
#136=CARTESIAN_POINT('',(0.0237,-0.058013084262715,-0.0869999786002014));
#137=CARTESIAN_POINT('',(0.,-0.058,-0.087));
#138=CARTESIAN_POINT('',(0.0237,-0.058,-0.087));
#139=CARTESIAN_POINT('',(0.0237,-0.058,-0.083));
#140=CARTESIAN_POINT('',(0.,-0.088,-0.087));
#141=CARTESIAN_POINT('',(0.023618926208255,-0.088,-0.087));
#142=CARTESIAN_POINT('',(0.023618926208255,-0.0498019999999982,-0.087));
#143=CARTESIAN_POINT('',(0.,-0.0498019999999981,-0.087));
#144=CARTESIAN_POINT('',(0.0237,-0.0498019999999992,-0.087));
#145=CARTESIAN_POINT('',(0.0237,-0.088,-0.087));
#146=CARTESIAN_POINT('',(0.0237,-0.0498020000000013,-0.0833));
#147=CARTESIAN_POINT('',(0.0237,-0.0498020000000012,-0.0869999786002013));
#148=CARTESIAN_POINT('',(0.0237,-0.0498019999999982,-0.0869999786002013));
#149=CARTESIAN_POINT('',(0.0237,-0.0498020000000014,-0.0833));
#150=CARTESIAN_POINT('',(0.0368030667573113,-0.049802,-6.69851812870178E-34));
#151=CARTESIAN_POINT('',(0.0663,-0.0498019999999982,-0.0869887341350358));
#152=CARTESIAN_POINT('',(0.0663,-0.122971136721647,-0.0869887341350372));
#153=MECHANICAL_DESIGN_GEOMETRIC_PRESENTATION_REPRESENTATION('',(#90),#154);
#154=(
GEOMETRIC_REPRESENTATION_CONTEXT(3)
GLOBAL_UNCERTAINTY_ASSIGNED_CONTEXT((#155))
GLOBAL_UNIT_ASSIGNED_CONTEXT((#158,#157,#156))
REPRESENTATION_CONTEXT('Part 110','TOP_LEVEL_ASSEMBLY_PART')
);
#155=UNCERTAINTY_MEASURE_WITH_UNIT(LENGTH_MEASURE(1.E-8),#158,
'DISTANCE_ACCURACY_VALUE','Maximum Tolerance applied to model');
#156=(
NAMED_UNIT(*)
SI_UNIT($,.STERADIAN.)
SOLID_ANGLE_UNIT()
);
#157=(
NAMED_UNIT(*)
PLANE_ANGLE_UNIT()
SI_UNIT($,.RADIAN.)
);
#158=(
LENGTH_UNIT()
NAMED_UNIT(*)
SI_UNIT($,.METRE.)
);
#159=PRODUCT_DEFINITION_SHAPE('','',#160);
#160=PRODUCT_DEFINITION('','',#162,#161);
#161=PRODUCT_DEFINITION_CONTEXT('',#168,'design');
#162=PRODUCT_DEFINITION_FORMATION_WITH_SPECIFIED_SOURCE('','',#164,
 .NOT_KNOWN.);
#163=PRODUCT_RELATED_PRODUCT_CATEGORY('','',(#164));
#164=PRODUCT('Part 110','Part 110','Part 110',(#166));
#165=PRODUCT_CATEGORY('','');
#166=PRODUCT_CONTEXT('',#168,'mechanical');
#167=APPLICATION_PROTOCOL_DEFINITION('international standard',
'automotive_design',2010,#168);
#168=APPLICATION_CONTEXT(
'core data for automotive mechanical design processes');
ENDSEC;
END-ISO-10303-21;
