ISO-10303-21;
HEADER;
/* Generated by software containing ST-Developer
 * from STEP Tools, Inc. (www.steptools.com) 
 */
/* OPTION: using custom renumber hook */

FILE_DESCRIPTION(
/* description */ ('STEP AP214',
'CAx-IF Rec.Pracs.---User Defined Attributes---1.5---2016-08-15'),
/* implementation_level */ '2;1');

FILE_NAME(
/* name */ '6a65b53948685660edb6d794',
/* time_stamp */ '2026-07-26T07:20:25Z',
/* author */ (''),
/* organization */ (''),
/* preprocessor_version */ 'ST-DEVELOPER v20',
/* originating_system */ 'ONSHAPE BY PTC INC, 1.218',
/* authorisation */ '  ');

FILE_SCHEMA (('AUTOMOTIVE_DESIGN {1 0 10303 214 3 1 1}'));
ENDSEC;

DATA;
#10=PROPERTY_DEFINITION_REPRESENTATION(#14,#12);
#11=PROPERTY_DEFINITION_REPRESENTATION(#15,#13);
#12=REPRESENTATION('',(#16),#469);
#13=REPRESENTATION('',(#17),#469);
#14=PROPERTY_DEFINITION('pmi validation property','',#474);
#15=PROPERTY_DEFINITION('pmi validation property','',#474);
#16=VALUE_REPRESENTATION_ITEM('number of annotations',COUNT_MEASURE(0.));
#17=VALUE_REPRESENTATION_ITEM('number of views',COUNT_MEASURE(0.));
#18=SHAPE_REPRESENTATION_RELATIONSHIP('','',#279,#19);
#19=ADVANCED_BREP_SHAPE_REPRESENTATION('',(#277),#469);
#20=TOROIDAL_SURFACE('',#317,0.0040492,4.92E-5);
#21=TOROIDAL_SURFACE('',#318,0.0040492,4.92E-5);
#22=TOROIDAL_SURFACE('',#319,0.0079508,4.92E-5);
#23=TOROIDAL_SURFACE('',#320,0.0079508,4.92E-5);
#24=SPHERICAL_SURFACE('',#309,0.00082);
#25=SPHERICAL_SURFACE('',#310,0.00082);
#26=SPHERICAL_SURFACE('',#311,0.00082);
#27=SPHERICAL_SURFACE('',#312,0.00082);
#28=SPHERICAL_SURFACE('',#313,0.00082);
#29=SPHERICAL_SURFACE('',#314,0.00082);
#30=SPHERICAL_SURFACE('',#315,0.00082);
#31=SPHERICAL_SURFACE('',#316,0.00082);
#32=PLANE('',#284);
#33=PLANE('',#298);
#34=ORIENTED_EDGE('',*,*,#82,.T.);
#35=ORIENTED_EDGE('',*,*,#83,.T.);
#36=ORIENTED_EDGE('',*,*,#84,.T.);
#37=ORIENTED_EDGE('',*,*,#85,.T.);
#38=ORIENTED_EDGE('',*,*,#86,.T.);
#39=ORIENTED_EDGE('',*,*,#87,.T.);
#40=ORIENTED_EDGE('',*,*,#88,.T.);
#41=ORIENTED_EDGE('',*,*,#89,.T.);
#42=ORIENTED_EDGE('',*,*,#90,.T.);
#43=ORIENTED_EDGE('',*,*,#91,.T.);
#44=ORIENTED_EDGE('',*,*,#92,.T.);
#45=ORIENTED_EDGE('',*,*,#93,.T.);
#46=ORIENTED_EDGE('',*,*,#94,.T.);
#47=ORIENTED_EDGE('',*,*,#95,.T.);
#48=ORIENTED_EDGE('',*,*,#96,.T.);
#49=ORIENTED_EDGE('',*,*,#97,.T.);
#50=ORIENTED_EDGE('',*,*,#98,.T.);
#51=ORIENTED_EDGE('',*,*,#99,.T.);
#52=ORIENTED_EDGE('',*,*,#100,.T.);
#53=ORIENTED_EDGE('',*,*,#101,.T.);
#54=ORIENTED_EDGE('',*,*,#102,.T.);
#55=ORIENTED_EDGE('',*,*,#103,.T.);
#56=ORIENTED_EDGE('',*,*,#104,.T.);
#57=ORIENTED_EDGE('',*,*,#105,.T.);
#58=ORIENTED_EDGE('',*,*,#105,.F.);
#59=ORIENTED_EDGE('',*,*,#93,.F.);
#60=ORIENTED_EDGE('',*,*,#104,.F.);
#61=ORIENTED_EDGE('',*,*,#92,.F.);
#62=ORIENTED_EDGE('',*,*,#103,.F.);
#63=ORIENTED_EDGE('',*,*,#91,.F.);
#64=ORIENTED_EDGE('',*,*,#102,.F.);
#65=ORIENTED_EDGE('',*,*,#90,.F.);
#66=ORIENTED_EDGE('',*,*,#101,.F.);
#67=ORIENTED_EDGE('',*,*,#89,.F.);
#68=ORIENTED_EDGE('',*,*,#100,.F.);
#69=ORIENTED_EDGE('',*,*,#88,.F.);
#70=ORIENTED_EDGE('',*,*,#99,.F.);
#71=ORIENTED_EDGE('',*,*,#87,.F.);
#72=ORIENTED_EDGE('',*,*,#98,.F.);
#73=ORIENTED_EDGE('',*,*,#86,.F.);
#74=ORIENTED_EDGE('',*,*,#84,.F.);
#75=ORIENTED_EDGE('',*,*,#94,.F.);
#76=ORIENTED_EDGE('',*,*,#95,.F.);
#77=ORIENTED_EDGE('',*,*,#96,.F.);
#78=ORIENTED_EDGE('',*,*,#82,.F.);
#79=ORIENTED_EDGE('',*,*,#85,.F.);
#80=ORIENTED_EDGE('',*,*,#97,.F.);
#81=ORIENTED_EDGE('',*,*,#83,.F.);
#82=EDGE_CURVE('',#106,#106,#130,.T.);
#83=EDGE_CURVE('',#107,#107,#131,.T.);
#84=EDGE_CURVE('',#108,#108,#132,.T.);
#85=EDGE_CURVE('',#109,#109,#133,.F.);
#86=EDGE_CURVE('',#110,#110,#134,.T.);
#87=EDGE_CURVE('',#111,#111,#135,.T.);
#88=EDGE_CURVE('',#112,#112,#136,.T.);
#89=EDGE_CURVE('',#113,#113,#137,.T.);
#90=EDGE_CURVE('',#114,#114,#138,.T.);
#91=EDGE_CURVE('',#115,#115,#139,.T.);
#92=EDGE_CURVE('',#116,#116,#140,.T.);
#93=EDGE_CURVE('',#117,#117,#141,.T.);
#94=EDGE_CURVE('',#118,#118,#142,.F.);
#95=EDGE_CURVE('',#119,#119,#143,.F.);
#96=EDGE_CURVE('',#120,#120,#144,.T.);
#97=EDGE_CURVE('',#121,#121,#145,.F.);
#98=EDGE_CURVE('',#122,#122,#146,.T.);
#99=EDGE_CURVE('',#123,#123,#147,.T.);
#100=EDGE_CURVE('',#124,#124,#148,.T.);
#101=EDGE_CURVE('',#125,#125,#149,.T.);
#102=EDGE_CURVE('',#126,#126,#150,.T.);
#103=EDGE_CURVE('',#127,#127,#151,.T.);
#104=EDGE_CURVE('',#128,#128,#152,.T.);
#105=EDGE_CURVE('',#129,#129,#153,.T.);
#106=VERTEX_POINT('',#406);
#107=VERTEX_POINT('',#408);
#108=VERTEX_POINT('',#411);
#109=VERTEX_POINT('',#413);
#110=VERTEX_POINT('',#415);
#111=VERTEX_POINT('',#417);
#112=VERTEX_POINT('',#419);
#113=VERTEX_POINT('',#421);
#114=VERTEX_POINT('',#423);
#115=VERTEX_POINT('',#425);
#116=VERTEX_POINT('',#427);
#117=VERTEX_POINT('',#429);
#118=VERTEX_POINT('',#432);
#119=VERTEX_POINT('',#434);
#120=VERTEX_POINT('',#437);
#121=VERTEX_POINT('',#439);
#122=VERTEX_POINT('',#441);
#123=VERTEX_POINT('',#443);
#124=VERTEX_POINT('',#445);
#125=VERTEX_POINT('',#447);
#126=VERTEX_POINT('',#449);
#127=VERTEX_POINT('',#451);
#128=VERTEX_POINT('',#453);
#129=VERTEX_POINT('',#455);
#130=CIRCLE('',#282,0.008);
#131=CIRCLE('',#283,0.008);
#132=CIRCLE('',#285,0.0040492);
#133=CIRCLE('',#286,0.0079508);
#134=CIRCLE('',#287,0.000640112294835835);
#135=CIRCLE('',#288,0.000640112294835835);
#136=CIRCLE('',#289,0.000640112294835835);
#137=CIRCLE('',#290,0.000640112294835835);
#138=CIRCLE('',#291,0.000640112294835835);
#139=CIRCLE('',#292,0.000640112294835835);
#140=CIRCLE('',#293,0.000640112294835835);
#141=CIRCLE('',#294,0.000640112294835835);
#142=CIRCLE('',#296,0.004);
#143=CIRCLE('',#297,0.004);
#144=CIRCLE('',#299,0.0040492);
#145=CIRCLE('',#300,0.0079508);
#146=CIRCLE('',#301,0.000640112294835838);
#147=CIRCLE('',#302,0.000640112294835838);
#148=CIRCLE('',#303,0.000640112294835838);
#149=CIRCLE('',#304,0.000640112294835838);
#150=CIRCLE('',#305,0.000640112294835838);
#151=CIRCLE('',#306,0.000640112294835838);
#152=CIRCLE('',#307,0.000640112294835838);
#153=CIRCLE('',#308,0.000640112294835838);
#154=EDGE_LOOP('',(#34));
#155=EDGE_LOOP('',(#35));
#156=EDGE_LOOP('',(#36));
#157=EDGE_LOOP('',(#37));
#158=EDGE_LOOP('',(#38));
#159=EDGE_LOOP('',(#39));
#160=EDGE_LOOP('',(#40));
#161=EDGE_LOOP('',(#41));
#162=EDGE_LOOP('',(#42));
#163=EDGE_LOOP('',(#43));
#164=EDGE_LOOP('',(#44));
#165=EDGE_LOOP('',(#45));
#166=EDGE_LOOP('',(#46));
#167=EDGE_LOOP('',(#47));
#168=EDGE_LOOP('',(#48));
#169=EDGE_LOOP('',(#49));
#170=EDGE_LOOP('',(#50));
#171=EDGE_LOOP('',(#51));
#172=EDGE_LOOP('',(#52));
#173=EDGE_LOOP('',(#53));
#174=EDGE_LOOP('',(#54));
#175=EDGE_LOOP('',(#55));
#176=EDGE_LOOP('',(#56));
#177=EDGE_LOOP('',(#57));
#178=EDGE_LOOP('',(#58));
#179=EDGE_LOOP('',(#59));
#180=EDGE_LOOP('',(#60));
#181=EDGE_LOOP('',(#61));
#182=EDGE_LOOP('',(#62));
#183=EDGE_LOOP('',(#63));
#184=EDGE_LOOP('',(#64));
#185=EDGE_LOOP('',(#65));
#186=EDGE_LOOP('',(#66));
#187=EDGE_LOOP('',(#67));
#188=EDGE_LOOP('',(#68));
#189=EDGE_LOOP('',(#69));
#190=EDGE_LOOP('',(#70));
#191=EDGE_LOOP('',(#71));
#192=EDGE_LOOP('',(#72));
#193=EDGE_LOOP('',(#73));
#194=EDGE_LOOP('',(#74));
#195=EDGE_LOOP('',(#75));
#196=EDGE_LOOP('',(#76));
#197=EDGE_LOOP('',(#77));
#198=EDGE_LOOP('',(#78));
#199=EDGE_LOOP('',(#79));
#200=EDGE_LOOP('',(#80));
#201=EDGE_LOOP('',(#81));
#202=FACE_BOUND('',#154,.T.);
#203=FACE_BOUND('',#155,.T.);
#204=FACE_BOUND('',#156,.T.);
#205=FACE_BOUND('',#157,.T.);
#206=FACE_BOUND('',#158,.T.);
#207=FACE_BOUND('',#159,.T.);
#208=FACE_BOUND('',#160,.T.);
#209=FACE_BOUND('',#161,.T.);
#210=FACE_BOUND('',#162,.T.);
#211=FACE_BOUND('',#163,.T.);
#212=FACE_BOUND('',#164,.T.);
#213=FACE_BOUND('',#165,.T.);
#214=FACE_BOUND('',#166,.T.);
#215=FACE_BOUND('',#167,.T.);
#216=FACE_BOUND('',#168,.T.);
#217=FACE_BOUND('',#169,.T.);
#218=FACE_BOUND('',#170,.T.);
#219=FACE_BOUND('',#171,.T.);
#220=FACE_BOUND('',#172,.T.);
#221=FACE_BOUND('',#173,.T.);
#222=FACE_BOUND('',#174,.T.);
#223=FACE_BOUND('',#175,.T.);
#224=FACE_BOUND('',#176,.T.);
#225=FACE_BOUND('',#177,.T.);
#226=FACE_BOUND('',#178,.T.);
#227=FACE_BOUND('',#179,.T.);
#228=FACE_BOUND('',#180,.T.);
#229=FACE_BOUND('',#181,.T.);
#230=FACE_BOUND('',#182,.T.);
#231=FACE_BOUND('',#183,.T.);
#232=FACE_BOUND('',#184,.T.);
#233=FACE_BOUND('',#185,.T.);
#234=FACE_BOUND('',#186,.T.);
#235=FACE_BOUND('',#187,.T.);
#236=FACE_BOUND('',#188,.T.);
#237=FACE_BOUND('',#189,.T.);
#238=FACE_BOUND('',#190,.T.);
#239=FACE_BOUND('',#191,.T.);
#240=FACE_BOUND('',#192,.T.);
#241=FACE_BOUND('',#193,.T.);
#242=FACE_BOUND('',#194,.T.);
#243=FACE_BOUND('',#195,.T.);
#244=FACE_BOUND('',#196,.T.);
#245=FACE_BOUND('',#197,.T.);
#246=FACE_BOUND('',#198,.T.);
#247=FACE_BOUND('',#199,.T.);
#248=FACE_BOUND('',#200,.T.);
#249=FACE_BOUND('',#201,.T.);
#250=CYLINDRICAL_SURFACE('',#281,0.008);
#251=CYLINDRICAL_SURFACE('',#295,0.004);
#252=ADVANCED_FACE('',(#202,#203),#250,.T.);
#253=ADVANCED_FACE('',(#204,#205,#206,#207,#208,#209,#210,#211,#212,#213),
#32,.F.);
#254=ADVANCED_FACE('',(#214,#215),#251,.F.);
#255=ADVANCED_FACE('',(#216,#217,#218,#219,#220,#221,#222,#223,#224,#225),
#33,.F.);
#256=ADVANCED_FACE('',(#226,#227),#24,.F.);
#257=ADVANCED_FACE('',(#228,#229),#25,.F.);
#258=ADVANCED_FACE('',(#230,#231),#26,.F.);
#259=ADVANCED_FACE('',(#232,#233),#27,.F.);
#260=ADVANCED_FACE('',(#234,#235),#28,.F.);
#261=ADVANCED_FACE('',(#236,#237),#29,.F.);
#262=ADVANCED_FACE('',(#238,#239),#30,.F.);
#263=ADVANCED_FACE('',(#240,#241),#31,.F.);
#264=ADVANCED_FACE('',(#242,#243),#20,.T.);
#265=ADVANCED_FACE('',(#244,#245),#21,.T.);
#266=ADVANCED_FACE('',(#246,#247),#22,.T.);
#267=ADVANCED_FACE('',(#248,#249),#23,.T.);
#268=CLOSED_SHELL('',(#252,#253,#254,#255,#256,#257,#258,#259,#260,#261,
#262,#263,#264,#265,#266,#267));
#269=STYLED_ITEM('',(#270),#277);
#270=PRESENTATION_STYLE_ASSIGNMENT((#271));
#271=SURFACE_STYLE_USAGE(.BOTH.,#272);
#272=SURFACE_SIDE_STYLE('',(#273));
#273=SURFACE_STYLE_FILL_AREA(#274);
#274=FILL_AREA_STYLE('',(#275));
#275=FILL_AREA_STYLE_COLOUR('',#276);
#276=COLOUR_RGB('',0.752941176470588,0.752941176470588,0.752941176470588);
#277=MANIFOLD_SOLID_BREP('Part 16',#268);
#278=SHAPE_DEFINITION_REPRESENTATION(#474,#279);
#279=SHAPE_REPRESENTATION('Part 16',(#280),#469);
#280=AXIS2_PLACEMENT_3D('',#403,#321,#322);
#281=AXIS2_PLACEMENT_3D('',#404,#323,#324);
#282=AXIS2_PLACEMENT_3D('',#405,#325,#326);
#283=AXIS2_PLACEMENT_3D('',#407,#327,#328);
#284=AXIS2_PLACEMENT_3D('',#409,#329,#330);
#285=AXIS2_PLACEMENT_3D('',#410,#331,#332);
#286=AXIS2_PLACEMENT_3D('',#412,#333,#334);
#287=AXIS2_PLACEMENT_3D('',#414,#335,#336);
#288=AXIS2_PLACEMENT_3D('',#416,#337,#338);
#289=AXIS2_PLACEMENT_3D('',#418,#339,#340);
#290=AXIS2_PLACEMENT_3D('',#420,#341,#342);
#291=AXIS2_PLACEMENT_3D('',#422,#343,#344);
#292=AXIS2_PLACEMENT_3D('',#424,#345,#346);
#293=AXIS2_PLACEMENT_3D('',#426,#347,#348);
#294=AXIS2_PLACEMENT_3D('',#428,#349,#350);
#295=AXIS2_PLACEMENT_3D('',#430,#351,#352);
#296=AXIS2_PLACEMENT_3D('',#431,#353,#354);
#297=AXIS2_PLACEMENT_3D('',#433,#355,#356);
#298=AXIS2_PLACEMENT_3D('',#435,#357,#358);
#299=AXIS2_PLACEMENT_3D('',#436,#359,#360);
#300=AXIS2_PLACEMENT_3D('',#438,#361,#362);
#301=AXIS2_PLACEMENT_3D('',#440,#363,#364);
#302=AXIS2_PLACEMENT_3D('',#442,#365,#366);
#303=AXIS2_PLACEMENT_3D('',#444,#367,#368);
#304=AXIS2_PLACEMENT_3D('',#446,#369,#370);
#305=AXIS2_PLACEMENT_3D('',#448,#371,#372);
#306=AXIS2_PLACEMENT_3D('',#450,#373,#374);
#307=AXIS2_PLACEMENT_3D('',#452,#375,#376);
#308=AXIS2_PLACEMENT_3D('',#454,#377,#378);
#309=AXIS2_PLACEMENT_3D('',#456,#379,#380);
#310=AXIS2_PLACEMENT_3D('',#457,#381,#382);
#311=AXIS2_PLACEMENT_3D('',#458,#383,#384);
#312=AXIS2_PLACEMENT_3D('',#459,#385,#386);
#313=AXIS2_PLACEMENT_3D('',#460,#387,#388);
#314=AXIS2_PLACEMENT_3D('',#461,#389,#390);
#315=AXIS2_PLACEMENT_3D('',#462,#391,#392);
#316=AXIS2_PLACEMENT_3D('',#463,#393,#394);
#317=AXIS2_PLACEMENT_3D('',#464,#395,#396);
#318=AXIS2_PLACEMENT_3D('',#465,#397,#398);
#319=AXIS2_PLACEMENT_3D('',#466,#399,#400);
#320=AXIS2_PLACEMENT_3D('',#467,#401,#402);
#321=DIRECTION('',(0.,0.,1.));
#322=DIRECTION('',(1.,0.,0.));
#323=DIRECTION('',(0.,0.,-1.));
#324=DIRECTION('',(0.,1.,0.));
#325=DIRECTION('',(0.,0.,1.));
#326=DIRECTION('',(0.,-1.,0.));
#327=DIRECTION('',(0.,0.,-1.));
#328=DIRECTION('',(0.,1.,0.));
#329=DIRECTION('',(0.,0.,1.));
#330=DIRECTION('',(0.,-1.,0.));
#331=DIRECTION('',(0.,0.,1.));
#332=DIRECTION('',(0.,-1.,0.));
#333=DIRECTION('',(0.,0.,1.));
#334=DIRECTION('',(0.,-1.,0.));
#335=DIRECTION('',(0.,0.,1.));
#336=DIRECTION('',(-0.707106781186539,-0.707106781186556,0.));
#337=DIRECTION('',(0.,0.,1.));
#338=DIRECTION('',(-1.,-1.04744500833281E-14,0.));
#339=DIRECTION('',(0.,0.,1.));
#340=DIRECTION('',(-0.707106781186554,0.707106781186541,0.));
#341=DIRECTION('',(0.,0.,1.));
#342=DIRECTION('',(-6.98296672221876E-15,1.,0.));
#343=DIRECTION('',(0.,0.,1.));
#344=DIRECTION('',(0.707106781186544,0.707106781186551,0.));
#345=DIRECTION('',(0.,0.,1.));
#346=DIRECTION('',(1.,3.49148336110938E-15,0.));
#347=DIRECTION('',(0.,0.,1.));
#348=DIRECTION('',(0.707106781186549,-0.707106781186546,0.));
#349=DIRECTION('',(0.,0.,1.));
#350=DIRECTION('',(0.,-1.,0.));
#351=DIRECTION('',(0.,0.,-1.));
#352=DIRECTION('',(0.,1.,0.));
#353=DIRECTION('',(0.,0.,1.));
#354=DIRECTION('',(0.,-1.,0.));
#355=DIRECTION('',(0.,0.,-1.));
#356=DIRECTION('',(0.,1.,0.));
#357=DIRECTION('',(0.,0.,-1.));
#358=DIRECTION('',(0.,1.,0.));
#359=DIRECTION('',(0.,0.,-1.));
#360=DIRECTION('',(0.,1.,0.));
#361=DIRECTION('',(0.,0.,-1.));
#362=DIRECTION('',(0.,1.,0.));
#363=DIRECTION('',(0.,0.,-1.));
#364=DIRECTION('',(0.707106781186539,0.707106781186556,0.));
#365=DIRECTION('',(0.,0.,-1.));
#366=DIRECTION('',(1.,1.04744500833281E-14,0.));
#367=DIRECTION('',(0.,0.,-1.));
#368=DIRECTION('',(0.707106781186554,-0.707106781186541,0.));
#369=DIRECTION('',(0.,0.,-1.));
#370=DIRECTION('',(6.98296672221876E-15,-1.,0.));
#371=DIRECTION('',(0.,0.,-1.));
#372=DIRECTION('',(-0.707106781186544,-0.707106781186551,0.));
#373=DIRECTION('',(0.,0.,-1.));
#374=DIRECTION('',(-1.,-3.49148336110938E-15,0.));
#375=DIRECTION('',(0.,0.,-1.));
#376=DIRECTION('',(-0.707106781186549,0.707106781186546,0.));
#377=DIRECTION('',(0.,0.,-1.));
#378=DIRECTION('',(0.,1.,0.));
#379=DIRECTION('',(0.,0.,1.));
#380=DIRECTION('',(0.,1.,0.));
#381=DIRECTION('',(0.,0.,1.));
#382=DIRECTION('',(-0.707106781186549,0.707106781186546,0.));
#383=DIRECTION('',(0.,0.,1.));
#384=DIRECTION('',(-1.,-3.49148336110938E-15,0.));
#385=DIRECTION('',(0.,0.,1.));
#386=DIRECTION('',(-0.707106781186544,-0.707106781186551,0.));
#387=DIRECTION('',(0.,0.,1.));
#388=DIRECTION('',(6.98296672221876E-15,-1.,0.));
#389=DIRECTION('',(0.,0.,1.));
#390=DIRECTION('',(0.707106781186554,-0.707106781186541,0.));
#391=DIRECTION('',(0.,0.,1.));
#392=DIRECTION('',(1.,1.04744500833281E-14,0.));
#393=DIRECTION('',(0.,0.,1.));
#394=DIRECTION('',(0.707106781186539,0.707106781186556,0.));
#395=DIRECTION('',(0.,0.,1.));
#396=DIRECTION('',(0.,-1.,0.));
#397=DIRECTION('',(0.,0.,-1.));
#398=DIRECTION('',(0.,1.,0.));
#399=DIRECTION('',(0.,0.,1.));
#400=DIRECTION('',(0.,-1.,0.));
#401=DIRECTION('',(0.,0.,-1.));
#402=DIRECTION('',(0.,1.,0.));
#403=CARTESIAN_POINT('',(0.,0.,0.));
#404=CARTESIAN_POINT('',(0.,0.,-0.00246));
#405=CARTESIAN_POINT('',(0.,0.,-0.0004633));
#406=CARTESIAN_POINT('',(0.,-0.008,-0.0004633));
#407=CARTESIAN_POINT('',(0.,0.,0.0004633));
#408=CARTESIAN_POINT('',(0.,0.008,0.0004633));
#409=CARTESIAN_POINT('',(0.,-0.008,-0.0005125));
#410=CARTESIAN_POINT('',(0.,0.,-0.0005125));
#411=CARTESIAN_POINT('',(0.,-0.0040492,-0.0005125));
#412=CARTESIAN_POINT('',(0.,0.,-0.0005125));
#413=CARTESIAN_POINT('',(0.,-0.0079508,-0.0005125));
#414=CARTESIAN_POINT('',(-0.00424264068711923,-0.00424264068711934,-0.0005125));
#415=CARTESIAN_POINT('',(-0.00469526843151853,-0.00469526843151865,-0.0005125));
#416=CARTESIAN_POINT('',(-0.006,-6.28467004999689E-17,-0.0005125));
#417=CARTESIAN_POINT('',(-0.00664011229483583,-6.95515247799515E-17,-0.0005125));
#418=CARTESIAN_POINT('',(-0.00424264068711932,0.00424264068711925,-0.0005125));
#419=CARTESIAN_POINT('',(-0.00469526843151863,0.00469526843151855,-0.0005125));
#420=CARTESIAN_POINT('',(-4.18978003333126E-17,0.006,-0.0005125));
#421=CARTESIAN_POINT('',(-4.63676831866343E-17,0.00664011229483583,-0.0005125));
#422=CARTESIAN_POINT('',(0.00424264068711926,0.00424264068711931,-0.0005125));
#423=CARTESIAN_POINT('',(0.00469526843151856,0.00469526843151861,-0.0005125));
#424=CARTESIAN_POINT('',(0.006,2.09489001666563E-17,-0.0005125));
#425=CARTESIAN_POINT('',(0.00664011229483583,2.31838415933172E-17,-0.0005125));
#426=CARTESIAN_POINT('',(0.00424264068711929,-0.00424264068711928,-0.0005125));
#427=CARTESIAN_POINT('',(0.0046952684315186,-0.00469526843151858,-0.0005125));
#428=CARTESIAN_POINT('',(0.,-0.006,-0.0005125));
#429=CARTESIAN_POINT('',(0.,-0.00664011229483583,-0.0005125));
#430=CARTESIAN_POINT('',(0.,0.,-0.00246));
#431=CARTESIAN_POINT('',(0.,0.,-0.0004633));
#432=CARTESIAN_POINT('',(0.,-0.004,-0.0004633));
#433=CARTESIAN_POINT('',(0.,0.,0.0004633));
#434=CARTESIAN_POINT('',(0.,0.004,0.0004633));
#435=CARTESIAN_POINT('',(0.,-0.008,0.0005125));
#436=CARTESIAN_POINT('',(0.,0.,0.0005125));
#437=CARTESIAN_POINT('',(0.,0.0040492,0.0005125));
#438=CARTESIAN_POINT('',(0.,0.,0.0005125));
#439=CARTESIAN_POINT('',(0.,0.0079508,0.0005125));
#440=CARTESIAN_POINT('',(-0.00424264068711923,-0.00424264068711934,0.0005125));
#441=CARTESIAN_POINT('',(-0.00379001294271994,-0.00379001294272003,0.0005125));
#442=CARTESIAN_POINT('',(-0.006,-6.28467004999689E-17,0.0005125));
#443=CARTESIAN_POINT('',(-0.00535988770516416,-5.61418762199863E-17,0.0005125));
#444=CARTESIAN_POINT('',(-0.00424264068711932,0.00424264068711925,0.0005125));
#445=CARTESIAN_POINT('',(-0.00379001294272002,0.00379001294271995,0.0005125));
#446=CARTESIAN_POINT('',(-4.18978003333126E-17,0.006,0.0005125));
#447=CARTESIAN_POINT('',(-3.74279174799909E-17,0.00535988770516416,0.0005125));
#448=CARTESIAN_POINT('',(0.00424264068711926,0.00424264068711931,0.0005125));
#449=CARTESIAN_POINT('',(0.00379001294271996,0.00379001294272,0.0005125));
#450=CARTESIAN_POINT('',(0.006,2.09489001666563E-17,0.0005125));
#451=CARTESIAN_POINT('',(0.00535988770516416,1.87139587399954E-17,0.0005125));
#452=CARTESIAN_POINT('',(0.00424264068711929,-0.00424264068711928,0.0005125));
#453=CARTESIAN_POINT('',(0.00379001294271999,-0.00379001294271998,0.0005125));
#454=CARTESIAN_POINT('',(0.,-0.006,0.0005125));
#455=CARTESIAN_POINT('',(0.,-0.00535988770516416,0.0005125));
#456=CARTESIAN_POINT('',(0.,-0.006,0.));
#457=CARTESIAN_POINT('',(0.00424264068711929,-0.00424264068711928,0.));
#458=CARTESIAN_POINT('',(0.006,2.09489001666563E-17,0.));
#459=CARTESIAN_POINT('',(0.00424264068711926,0.00424264068711931,0.));
#460=CARTESIAN_POINT('',(-4.18978003333126E-17,0.006,0.));
#461=CARTESIAN_POINT('',(-0.00424264068711932,0.00424264068711925,0.));
#462=CARTESIAN_POINT('',(-0.006,-6.28467004999689E-17,0.));
#463=CARTESIAN_POINT('',(-0.00424264068711923,-0.00424264068711934,0.));
#464=CARTESIAN_POINT('',(0.,0.,-0.0004633));
#465=CARTESIAN_POINT('',(0.,0.,0.0004633));
#466=CARTESIAN_POINT('',(0.,0.,-0.0004633));
#467=CARTESIAN_POINT('',(0.,0.,0.0004633));
#468=MECHANICAL_DESIGN_GEOMETRIC_PRESENTATION_REPRESENTATION('',(#269),
#469);
#469=(
GEOMETRIC_REPRESENTATION_CONTEXT(3)
GLOBAL_UNCERTAINTY_ASSIGNED_CONTEXT((#470))
GLOBAL_UNIT_ASSIGNED_CONTEXT((#473,#472,#471))
REPRESENTATION_CONTEXT('Part 16','TOP_LEVEL_ASSEMBLY_PART')
);
#470=UNCERTAINTY_MEASURE_WITH_UNIT(LENGTH_MEASURE(1.E-8),#473,
'DISTANCE_ACCURACY_VALUE','Maximum Tolerance applied to model');
#471=(
NAMED_UNIT(*)
SI_UNIT($,.STERADIAN.)
SOLID_ANGLE_UNIT()
);
#472=(
NAMED_UNIT(*)
PLANE_ANGLE_UNIT()
SI_UNIT($,.RADIAN.)
);
#473=(
LENGTH_UNIT()
NAMED_UNIT(*)
SI_UNIT($,.METRE.)
);
#474=PRODUCT_DEFINITION_SHAPE('','',#475);
#475=PRODUCT_DEFINITION('','',#477,#476);
#476=PRODUCT_DEFINITION_CONTEXT('',#483,'design');
#477=PRODUCT_DEFINITION_FORMATION_WITH_SPECIFIED_SOURCE('','',#479,
 .NOT_KNOWN.);
#478=PRODUCT_RELATED_PRODUCT_CATEGORY('','',(#479));
#479=PRODUCT('Part 16','Part 16','Part 16',(#481));
#480=PRODUCT_CATEGORY('','');
#481=PRODUCT_CONTEXT('',#483,'mechanical');
#482=APPLICATION_PROTOCOL_DEFINITION('international standard',
'automotive_design',2010,#483);
#483=APPLICATION_CONTEXT(
'core data for automotive mechanical design processes');
ENDSEC;
END-ISO-10303-21;
