ISO-10303-21;
HEADER;
/* Generated by software containing ST-Developer
 * from STEP Tools, Inc. (www.steptools.com) 
 */
/* OPTION: using custom renumber hook */

FILE_DESCRIPTION(
/* description */ ('STEP AP214',
'CAx-IF Rec.Pracs.---User Defined Attributes---1.5---2016-08-15'),
/* implementation_level */ '2;1');

FILE_NAME(
/* name */ '6a65b583e8d4adbdd87e10f5',
/* time_stamp */ '2026-07-26T07:21:39Z',
/* author */ (''),
/* organization */ (''),
/* preprocessor_version */ 'ST-DEVELOPER v20',
/* originating_system */ 'ONSHAPE BY PTC INC, 1.218',
/* authorisation */ '  ');

FILE_SCHEMA (('AUTOMOTIVE_DESIGN {1 0 10303 214 3 1 1}'));
ENDSEC;

DATA;
#10=PROPERTY_DEFINITION_REPRESENTATION(#14,#12);
#11=PROPERTY_DEFINITION_REPRESENTATION(#15,#13);
#12=REPRESENTATION('',(#16),#1567);
#13=REPRESENTATION('',(#17),#1567);
#14=PROPERTY_DEFINITION('pmi validation property','',#1572);
#15=PROPERTY_DEFINITION('pmi validation property','',#1572);
#16=VALUE_REPRESENTATION_ITEM('number of annotations',COUNT_MEASURE(0.));
#17=VALUE_REPRESENTATION_ITEM('number of views',COUNT_MEASURE(0.));
#18=SHAPE_REPRESENTATION_RELATIONSHIP('','',#901,#19);
#19=ADVANCED_BREP_SHAPE_REPRESENTATION('',(#899),#1567);
#20=TOROIDAL_SURFACE('',#988,0.00150000000000003,0.0005);
#21=TOROIDAL_SURFACE('',#990,0.0015,0.0005);
#22=TOROIDAL_SURFACE('',#993,0.0015,0.0005);
#23=TOROIDAL_SURFACE('',#995,0.0015,0.0005);
#24=TOROIDAL_SURFACE('',#998,0.00150000000000001,0.0005);
#25=TOROIDAL_SURFACE('',#1001,0.0015,0.0005);
#26=TOROIDAL_SURFACE('',#1003,0.0015,0.0005);
#27=TOROIDAL_SURFACE('',#1005,0.0015,0.0005);
#28=B_SPLINE_CURVE_WITH_KNOTS('',3,(#1493,#1494,#1495,#1496),
 .UNSPECIFIED.,.F.,.F.,(4,4),(0.,1.),.UNSPECIFIED.);
#29=B_SPLINE_CURVE_WITH_KNOTS('',3,(#1500,#1501,#1502,#1503),
 .UNSPECIFIED.,.F.,.F.,(4,4),(0.,1.),.UNSPECIFIED.);
#30=B_SPLINE_CURVE_WITH_KNOTS('',3,(#1504,#1505,#1506,#1507),
 .UNSPECIFIED.,.F.,.F.,(4,4),(0.,1.),.UNSPECIFIED.);
#31=B_SPLINE_CURVE_WITH_KNOTS('',3,(#1511,#1512,#1513,#1514),
 .UNSPECIFIED.,.F.,.F.,(4,4),(0.,1.),.UNSPECIFIED.);
#32=B_SPLINE_CURVE_WITH_KNOTS('',3,(#1515,#1516,#1517,#1518),
 .UNSPECIFIED.,.F.,.F.,(4,4),(0.,1.),.UNSPECIFIED.);
#33=B_SPLINE_CURVE_WITH_KNOTS('',3,(#1522,#1523,#1524,#1525),
 .UNSPECIFIED.,.F.,.F.,(4,4),(0.,1.),.UNSPECIFIED.);
#34=B_SPLINE_CURVE_WITH_KNOTS('',3,(#1526,#1527,#1528,#1529),
 .UNSPECIFIED.,.F.,.F.,(4,4),(0.,1.),.UNSPECIFIED.);
#35=B_SPLINE_CURVE_WITH_KNOTS('',3,(#1533,#1534,#1535,#1536),
 .UNSPECIFIED.,.F.,.F.,(4,4),(0.,1.),.UNSPECIFIED.);
#36=CONICAL_SURFACE('',#935,0.00375000000005048,0.785398163397448);
#37=CONICAL_SURFACE('',#937,0.00374999999993679,0.785398163397448);
#38=CONICAL_SURFACE('',#939,0.00375000000005639,0.785398163397448);
#39=CONICAL_SURFACE('',#941,0.00374999999999955,0.785398163397448);
#40=CYLINDRICAL_SURFACE('',#913,0.00125);
#41=CYLINDRICAL_SURFACE('',#915,0.00125);
#42=CYLINDRICAL_SURFACE('',#917,0.00125);
#43=CYLINDRICAL_SURFACE('',#919,0.00125);
#44=CYLINDRICAL_SURFACE('',#921,0.0256);
#45=CYLINDRICAL_SURFACE('',#924,0.0256);
#46=CYLINDRICAL_SURFACE('',#927,0.0256);
#47=CYLINDRICAL_SURFACE('',#930,0.0256);
#48=CYLINDRICAL_SURFACE('',#933,0.008);
#49=CYLINDRICAL_SURFACE('',#946,0.002);
#50=CYLINDRICAL_SURFACE('',#948,0.0005);
#51=CYLINDRICAL_SURFACE('',#951,0.002);
#52=CYLINDRICAL_SURFACE('',#956,0.002);
#53=CYLINDRICAL_SURFACE('',#958,0.0005);
#54=CYLINDRICAL_SURFACE('',#961,0.002);
#55=CYLINDRICAL_SURFACE('',#966,0.002);
#56=CYLINDRICAL_SURFACE('',#969,0.0005);
#57=CYLINDRICAL_SURFACE('',#972,0.002);
#58=CYLINDRICAL_SURFACE('',#976,0.002);
#59=CYLINDRICAL_SURFACE('',#978,0.0005);
#60=CYLINDRICAL_SURFACE('',#981,0.002);
#61=CYLINDRICAL_SURFACE('',#1007,0.0045);
#62=CYLINDRICAL_SURFACE('',#1008,0.0005);
#63=CYLINDRICAL_SURFACE('',#1009,0.0005);
#64=CYLINDRICAL_SURFACE('',#1010,0.0005);
#65=CYLINDRICAL_SURFACE('',#1011,0.0005);
#66=LINE('',#1298,#122);
#67=LINE('',#1303,#123);
#68=LINE('',#1307,#124);
#69=LINE('',#1311,#125);
#70=LINE('',#1329,#126);
#71=LINE('',#1333,#127);
#72=LINE('',#1335,#128);
#73=LINE('',#1337,#129);
#74=LINE('',#1339,#130);
#75=LINE('',#1341,#131);
#76=LINE('',#1343,#132);
#77=LINE('',#1345,#133);
#78=LINE('',#1347,#134);
#79=LINE('',#1351,#135);
#80=LINE('',#1353,#136);
#81=LINE('',#1355,#137);
#82=LINE('',#1357,#138);
#83=LINE('',#1359,#139);
#84=LINE('',#1361,#140);
#85=LINE('',#1363,#141);
#86=LINE('',#1367,#142);
#87=LINE('',#1370,#143);
#88=LINE('',#1372,#144);
#89=LINE('',#1373,#145);
#90=LINE('',#1375,#146);
#91=LINE('',#1377,#147);
#92=LINE('',#1379,#148);
#93=LINE('',#1383,#149);
#94=LINE('',#1386,#150);
#95=LINE('',#1388,#151);
#96=LINE('',#1389,#152);
#97=LINE('',#1391,#153);
#98=LINE('',#1410,#154);
#99=LINE('',#1414,#155);
#100=LINE('',#1422,#156);
#101=LINE('',#1426,#157);
#102=LINE('',#1432,#158);
#103=LINE('',#1434,#159);
#104=LINE('',#1442,#160);
#105=LINE('',#1446,#161);
#106=LINE('',#1452,#162);
#107=LINE('',#1456,#163);
#108=LINE('',#1462,#164);
#109=LINE('',#1466,#165);
#110=LINE('',#1472,#166);
#111=LINE('',#1474,#167);
#112=LINE('',#1480,#168);
#113=LINE('',#1484,#169);
#114=LINE('',#1498,#170);
#115=LINE('',#1509,#171);
#116=LINE('',#1520,#172);
#117=LINE('',#1531,#173);
#118=LINE('',#1538,#174);
#119=LINE('',#1544,#175);
#120=LINE('',#1550,#176);
#121=LINE('',#1554,#177);
#122=VECTOR('',#1024,1.);
#123=VECTOR('',#1027,1.);
#124=VECTOR('',#1030,1.);
#125=VECTOR('',#1033,1.);
#126=VECTOR('',#1056,1.);
#127=VECTOR('',#1059,1.);
#128=VECTOR('',#1062,1.);
#129=VECTOR('',#1063,1.);
#130=VECTOR('',#1064,1.);
#131=VECTOR('',#1065,1.);
#132=VECTOR('',#1066,1.);
#133=VECTOR('',#1067,1.);
#134=VECTOR('',#1070,1.);
#135=VECTOR('',#1075,1.);
#136=VECTOR('',#1076,1.);
#137=VECTOR('',#1077,1.);
#138=VECTOR('',#1078,1.);
#139=VECTOR('',#1079,1.);
#140=VECTOR('',#1080,1.);
#141=VECTOR('',#1083,1.);
#142=VECTOR('',#1088,1.);
#143=VECTOR('',#1089,1.);
#144=VECTOR('',#1090,1.);
#145=VECTOR('',#1091,1.);
#146=VECTOR('',#1092,1.);
#147=VECTOR('',#1093,1.);
#148=VECTOR('',#1096,1.);
#149=VECTOR('',#1101,1.);
#150=VECTOR('',#1102,1.);
#151=VECTOR('',#1103,1.);
#152=VECTOR('',#1104,1.);
#153=VECTOR('',#1105,1.);
#154=VECTOR('',#1130,1.);
#155=VECTOR('',#1135,1.);
#156=VECTOR('',#1144,1.);
#157=VECTOR('',#1149,1.);
#158=VECTOR('',#1156,1.);
#159=VECTOR('',#1159,1.);
#160=VECTOR('',#1168,1.);
#161=VECTOR('',#1173,1.);
#162=VECTOR('',#1180,1.);
#163=VECTOR('',#1185,1.);
#164=VECTOR('',#1192,1.);
#165=VECTOR('',#1197,1.);
#166=VECTOR('',#1204,1.);
#167=VECTOR('',#1207,1.);
#168=VECTOR('',#1214,1.);
#169=VECTOR('',#1219,1.);
#170=VECTOR('',#1230,1.);
#171=VECTOR('',#1231,1.);
#172=VECTOR('',#1232,1.);
#173=VECTOR('',#1233,1.);
#174=VECTOR('',#1236,1.);
#175=VECTOR('',#1247,1.);
#176=VECTOR('',#1258,1.);
#177=VECTOR('',#1265,1.);
#178=ORIENTED_EDGE('',*,*,#418,.T.);
#179=ORIENTED_EDGE('',*,*,#419,.T.);
#180=ORIENTED_EDGE('',*,*,#420,.T.);
#181=ORIENTED_EDGE('',*,*,#421,.T.);
#182=ORIENTED_EDGE('',*,*,#422,.T.);
#183=ORIENTED_EDGE('',*,*,#423,.T.);
#184=ORIENTED_EDGE('',*,*,#424,.T.);
#185=ORIENTED_EDGE('',*,*,#425,.T.);
#186=ORIENTED_EDGE('',*,*,#426,.T.);
#187=ORIENTED_EDGE('',*,*,#427,.T.);
#188=ORIENTED_EDGE('',*,*,#428,.T.);
#189=ORIENTED_EDGE('',*,*,#429,.T.);
#190=ORIENTED_EDGE('',*,*,#430,.T.);
#191=ORIENTED_EDGE('',*,*,#418,.F.);
#192=ORIENTED_EDGE('',*,*,#431,.F.);
#193=ORIENTED_EDGE('',*,*,#419,.F.);
#194=ORIENTED_EDGE('',*,*,#432,.F.);
#195=ORIENTED_EDGE('',*,*,#420,.F.);
#196=ORIENTED_EDGE('',*,*,#433,.F.);
#197=ORIENTED_EDGE('',*,*,#421,.F.);
#198=ORIENTED_EDGE('',*,*,#434,.F.);
#199=ORIENTED_EDGE('',*,*,#423,.F.);
#200=ORIENTED_EDGE('',*,*,#435,.F.);
#201=ORIENTED_EDGE('',*,*,#436,.F.);
#202=ORIENTED_EDGE('',*,*,#437,.F.);
#203=ORIENTED_EDGE('',*,*,#438,.T.);
#204=ORIENTED_EDGE('',*,*,#439,.F.);
#205=ORIENTED_EDGE('',*,*,#440,.T.);
#206=ORIENTED_EDGE('',*,*,#441,.T.);
#207=ORIENTED_EDGE('',*,*,#442,.T.);
#208=ORIENTED_EDGE('',*,*,#443,.T.);
#209=ORIENTED_EDGE('',*,*,#435,.T.);
#210=ORIENTED_EDGE('',*,*,#422,.F.);
#211=ORIENTED_EDGE('',*,*,#429,.F.);
#212=ORIENTED_EDGE('',*,*,#444,.F.);
#213=ORIENTED_EDGE('',*,*,#445,.F.);
#214=ORIENTED_EDGE('',*,*,#438,.F.);
#215=ORIENTED_EDGE('',*,*,#446,.T.);
#216=ORIENTED_EDGE('',*,*,#447,.F.);
#217=ORIENTED_EDGE('',*,*,#448,.T.);
#218=ORIENTED_EDGE('',*,*,#449,.T.);
#219=ORIENTED_EDGE('',*,*,#450,.T.);
#220=ORIENTED_EDGE('',*,*,#451,.T.);
#221=ORIENTED_EDGE('',*,*,#444,.T.);
#222=ORIENTED_EDGE('',*,*,#428,.F.);
#223=ORIENTED_EDGE('',*,*,#427,.F.);
#224=ORIENTED_EDGE('',*,*,#452,.F.);
#225=ORIENTED_EDGE('',*,*,#453,.F.);
#226=ORIENTED_EDGE('',*,*,#446,.F.);
#227=ORIENTED_EDGE('',*,*,#454,.F.);
#228=ORIENTED_EDGE('',*,*,#455,.F.);
#229=ORIENTED_EDGE('',*,*,#456,.F.);
#230=ORIENTED_EDGE('',*,*,#452,.T.);
#231=ORIENTED_EDGE('',*,*,#426,.F.);
#232=ORIENTED_EDGE('',*,*,#457,.F.);
#233=ORIENTED_EDGE('',*,*,#458,.F.);
#234=ORIENTED_EDGE('',*,*,#459,.F.);
#235=ORIENTED_EDGE('',*,*,#425,.F.);
#236=ORIENTED_EDGE('',*,*,#460,.F.);
#237=ORIENTED_EDGE('',*,*,#461,.F.);
#238=ORIENTED_EDGE('',*,*,#457,.T.);
#239=ORIENTED_EDGE('',*,*,#462,.F.);
#240=ORIENTED_EDGE('',*,*,#463,.F.);
#241=ORIENTED_EDGE('',*,*,#464,.F.);
#242=ORIENTED_EDGE('',*,*,#460,.T.);
#243=ORIENTED_EDGE('',*,*,#424,.F.);
#244=ORIENTED_EDGE('',*,*,#437,.T.);
#245=ORIENTED_EDGE('',*,*,#465,.F.);
#246=ORIENTED_EDGE('',*,*,#466,.F.);
#247=ORIENTED_EDGE('',*,*,#430,.F.);
#248=ORIENTED_EDGE('',*,*,#467,.F.);
#249=ORIENTED_EDGE('',*,*,#431,.T.);
#250=ORIENTED_EDGE('',*,*,#468,.F.);
#251=ORIENTED_EDGE('',*,*,#432,.T.);
#252=ORIENTED_EDGE('',*,*,#469,.F.);
#253=ORIENTED_EDGE('',*,*,#433,.T.);
#254=ORIENTED_EDGE('',*,*,#470,.F.);
#255=ORIENTED_EDGE('',*,*,#434,.T.);
#256=ORIENTED_EDGE('',*,*,#471,.F.);
#257=ORIENTED_EDGE('',*,*,#443,.F.);
#258=ORIENTED_EDGE('',*,*,#472,.T.);
#259=ORIENTED_EDGE('',*,*,#473,.T.);
#260=ORIENTED_EDGE('',*,*,#474,.T.);
#261=ORIENTED_EDGE('',*,*,#465,.T.);
#262=ORIENTED_EDGE('',*,*,#436,.T.);
#263=ORIENTED_EDGE('',*,*,#475,.T.);
#264=ORIENTED_EDGE('',*,*,#472,.F.);
#265=ORIENTED_EDGE('',*,*,#442,.F.);
#266=ORIENTED_EDGE('',*,*,#476,.T.);
#267=ORIENTED_EDGE('',*,*,#477,.T.);
#268=ORIENTED_EDGE('',*,*,#441,.F.);
#269=ORIENTED_EDGE('',*,*,#478,.F.);
#270=ORIENTED_EDGE('',*,*,#479,.T.);
#271=ORIENTED_EDGE('',*,*,#440,.F.);
#272=ORIENTED_EDGE('',*,*,#480,.T.);
#273=ORIENTED_EDGE('',*,*,#481,.T.);
#274=ORIENTED_EDGE('',*,*,#482,.T.);
#275=ORIENTED_EDGE('',*,*,#451,.F.);
#276=ORIENTED_EDGE('',*,*,#483,.T.);
#277=ORIENTED_EDGE('',*,*,#484,.T.);
#278=ORIENTED_EDGE('',*,*,#480,.F.);
#279=ORIENTED_EDGE('',*,*,#439,.T.);
#280=ORIENTED_EDGE('',*,*,#445,.T.);
#281=ORIENTED_EDGE('',*,*,#485,.T.);
#282=ORIENTED_EDGE('',*,*,#483,.F.);
#283=ORIENTED_EDGE('',*,*,#450,.F.);
#284=ORIENTED_EDGE('',*,*,#486,.T.);
#285=ORIENTED_EDGE('',*,*,#487,.T.);
#286=ORIENTED_EDGE('',*,*,#449,.F.);
#287=ORIENTED_EDGE('',*,*,#488,.F.);
#288=ORIENTED_EDGE('',*,*,#489,.T.);
#289=ORIENTED_EDGE('',*,*,#448,.F.);
#290=ORIENTED_EDGE('',*,*,#490,.T.);
#291=ORIENTED_EDGE('',*,*,#491,.T.);
#292=ORIENTED_EDGE('',*,*,#492,.T.);
#293=ORIENTED_EDGE('',*,*,#456,.T.);
#294=ORIENTED_EDGE('',*,*,#493,.T.);
#295=ORIENTED_EDGE('',*,*,#494,.T.);
#296=ORIENTED_EDGE('',*,*,#490,.F.);
#297=ORIENTED_EDGE('',*,*,#447,.T.);
#298=ORIENTED_EDGE('',*,*,#453,.T.);
#299=ORIENTED_EDGE('',*,*,#459,.T.);
#300=ORIENTED_EDGE('',*,*,#495,.T.);
#301=ORIENTED_EDGE('',*,*,#496,.T.);
#302=ORIENTED_EDGE('',*,*,#497,.T.);
#303=ORIENTED_EDGE('',*,*,#498,.T.);
#304=ORIENTED_EDGE('',*,*,#499,.T.);
#305=ORIENTED_EDGE('',*,*,#500,.F.);
#306=ORIENTED_EDGE('',*,*,#454,.T.);
#307=ORIENTED_EDGE('',*,*,#501,.T.);
#308=ORIENTED_EDGE('',*,*,#493,.F.);
#309=ORIENTED_EDGE('',*,*,#455,.T.);
#310=ORIENTED_EDGE('',*,*,#502,.T.);
#311=ORIENTED_EDGE('',*,*,#464,.T.);
#312=ORIENTED_EDGE('',*,*,#503,.T.);
#313=ORIENTED_EDGE('',*,*,#504,.T.);
#314=ORIENTED_EDGE('',*,*,#495,.F.);
#315=ORIENTED_EDGE('',*,*,#458,.T.);
#316=ORIENTED_EDGE('',*,*,#461,.T.);
#317=ORIENTED_EDGE('',*,*,#466,.T.);
#318=ORIENTED_EDGE('',*,*,#474,.F.);
#319=ORIENTED_EDGE('',*,*,#505,.T.);
#320=ORIENTED_EDGE('',*,*,#506,.T.);
#321=ORIENTED_EDGE('',*,*,#507,.T.);
#322=ORIENTED_EDGE('',*,*,#508,.T.);
#323=ORIENTED_EDGE('',*,*,#509,.F.);
#324=ORIENTED_EDGE('',*,*,#462,.T.);
#325=ORIENTED_EDGE('',*,*,#510,.T.);
#326=ORIENTED_EDGE('',*,*,#503,.F.);
#327=ORIENTED_EDGE('',*,*,#463,.T.);
#328=ORIENTED_EDGE('',*,*,#511,.T.);
#329=ORIENTED_EDGE('',*,*,#467,.T.);
#330=ORIENTED_EDGE('',*,*,#512,.T.);
#331=ORIENTED_EDGE('',*,*,#513,.F.);
#332=ORIENTED_EDGE('',*,*,#468,.T.);
#333=ORIENTED_EDGE('',*,*,#469,.T.);
#334=ORIENTED_EDGE('',*,*,#470,.T.);
#335=ORIENTED_EDGE('',*,*,#471,.T.);
#336=ORIENTED_EDGE('',*,*,#514,.F.);
#337=ORIENTED_EDGE('',*,*,#515,.F.);
#338=ORIENTED_EDGE('',*,*,#516,.F.);
#339=ORIENTED_EDGE('',*,*,#479,.F.);
#340=ORIENTED_EDGE('',*,*,#517,.F.);
#341=ORIENTED_EDGE('',*,*,#518,.F.);
#342=ORIENTED_EDGE('',*,*,#519,.F.);
#343=ORIENTED_EDGE('',*,*,#489,.F.);
#344=ORIENTED_EDGE('',*,*,#520,.F.);
#345=ORIENTED_EDGE('',*,*,#521,.F.);
#346=ORIENTED_EDGE('',*,*,#522,.F.);
#347=ORIENTED_EDGE('',*,*,#499,.F.);
#348=ORIENTED_EDGE('',*,*,#523,.F.);
#349=ORIENTED_EDGE('',*,*,#524,.F.);
#350=ORIENTED_EDGE('',*,*,#525,.F.);
#351=ORIENTED_EDGE('',*,*,#508,.F.);
#352=ORIENTED_EDGE('',*,*,#526,.F.);
#353=ORIENTED_EDGE('',*,*,#505,.F.);
#354=ORIENTED_EDGE('',*,*,#473,.F.);
#355=ORIENTED_EDGE('',*,*,#475,.F.);
#356=ORIENTED_EDGE('',*,*,#527,.T.);
#357=ORIENTED_EDGE('',*,*,#476,.F.);
#358=ORIENTED_EDGE('',*,*,#477,.F.);
#359=ORIENTED_EDGE('',*,*,#516,.T.);
#360=ORIENTED_EDGE('',*,*,#478,.T.);
#361=ORIENTED_EDGE('',*,*,#482,.F.);
#362=ORIENTED_EDGE('',*,*,#528,.T.);
#363=ORIENTED_EDGE('',*,*,#517,.T.);
#364=ORIENTED_EDGE('',*,*,#481,.F.);
#365=ORIENTED_EDGE('',*,*,#484,.F.);
#366=ORIENTED_EDGE('',*,*,#485,.F.);
#367=ORIENTED_EDGE('',*,*,#529,.T.);
#368=ORIENTED_EDGE('',*,*,#530,.T.);
#369=ORIENTED_EDGE('',*,*,#486,.F.);
#370=ORIENTED_EDGE('',*,*,#487,.F.);
#371=ORIENTED_EDGE('',*,*,#519,.T.);
#372=ORIENTED_EDGE('',*,*,#531,.T.);
#373=ORIENTED_EDGE('',*,*,#520,.T.);
#374=ORIENTED_EDGE('',*,*,#488,.T.);
#375=ORIENTED_EDGE('',*,*,#492,.F.);
#376=ORIENTED_EDGE('',*,*,#491,.F.);
#377=ORIENTED_EDGE('',*,*,#494,.F.);
#378=ORIENTED_EDGE('',*,*,#501,.F.);
#379=ORIENTED_EDGE('',*,*,#532,.T.);
#380=ORIENTED_EDGE('',*,*,#533,.T.);
#381=ORIENTED_EDGE('',*,*,#523,.T.);
#382=ORIENTED_EDGE('',*,*,#498,.F.);
#383=ORIENTED_EDGE('',*,*,#497,.F.);
#384=ORIENTED_EDGE('',*,*,#534,.F.);
#385=ORIENTED_EDGE('',*,*,#496,.F.);
#386=ORIENTED_EDGE('',*,*,#504,.F.);
#387=ORIENTED_EDGE('',*,*,#510,.F.);
#388=ORIENTED_EDGE('',*,*,#500,.T.);
#389=ORIENTED_EDGE('',*,*,#522,.T.);
#390=ORIENTED_EDGE('',*,*,#535,.T.);
#391=ORIENTED_EDGE('',*,*,#502,.F.);
#392=ORIENTED_EDGE('',*,*,#536,.T.);
#393=ORIENTED_EDGE('',*,*,#514,.T.);
#394=ORIENTED_EDGE('',*,*,#507,.F.);
#395=ORIENTED_EDGE('',*,*,#506,.F.);
#396=ORIENTED_EDGE('',*,*,#509,.T.);
#397=ORIENTED_EDGE('',*,*,#525,.T.);
#398=ORIENTED_EDGE('',*,*,#537,.T.);
#399=ORIENTED_EDGE('',*,*,#511,.F.);
#400=ORIENTED_EDGE('',*,*,#512,.F.);
#401=ORIENTED_EDGE('',*,*,#513,.T.);
#402=ORIENTED_EDGE('',*,*,#536,.F.);
#403=ORIENTED_EDGE('',*,*,#526,.T.);
#404=ORIENTED_EDGE('',*,*,#527,.F.);
#405=ORIENTED_EDGE('',*,*,#515,.T.);
#406=ORIENTED_EDGE('',*,*,#528,.F.);
#407=ORIENTED_EDGE('',*,*,#529,.F.);
#408=ORIENTED_EDGE('',*,*,#530,.F.);
#409=ORIENTED_EDGE('',*,*,#518,.T.);
#410=ORIENTED_EDGE('',*,*,#535,.F.);
#411=ORIENTED_EDGE('',*,*,#521,.T.);
#412=ORIENTED_EDGE('',*,*,#531,.F.);
#413=ORIENTED_EDGE('',*,*,#532,.F.);
#414=ORIENTED_EDGE('',*,*,#537,.F.);
#415=ORIENTED_EDGE('',*,*,#524,.T.);
#416=ORIENTED_EDGE('',*,*,#533,.F.);
#417=ORIENTED_EDGE('',*,*,#534,.T.);
#418=EDGE_CURVE('',#538,#538,#618,.T.);
#419=EDGE_CURVE('',#539,#539,#619,.T.);
#420=EDGE_CURVE('',#540,#540,#620,.T.);
#421=EDGE_CURVE('',#541,#541,#621,.T.);
#422=EDGE_CURVE('',#542,#543,#66,.T.);
#423=EDGE_CURVE('',#543,#544,#622,.F.);
#424=EDGE_CURVE('',#544,#545,#67,.T.);
#425=EDGE_CURVE('',#545,#546,#623,.F.);
#426=EDGE_CURVE('',#546,#547,#68,.F.);
#427=EDGE_CURVE('',#547,#548,#624,.F.);
#428=EDGE_CURVE('',#548,#549,#69,.F.);
#429=EDGE_CURVE('',#549,#542,#625,.F.);
#430=EDGE_CURVE('',#550,#550,#626,.F.);
#431=EDGE_CURVE('',#551,#551,#627,.F.);
#432=EDGE_CURVE('',#552,#552,#628,.F.);
#433=EDGE_CURVE('',#553,#553,#629,.F.);
#434=EDGE_CURVE('',#554,#554,#630,.F.);
#435=EDGE_CURVE('',#555,#543,#70,.T.);
#436=EDGE_CURVE('',#556,#555,#631,.T.);
#437=EDGE_CURVE('',#544,#556,#71,.F.);
#438=EDGE_CURVE('',#542,#557,#72,.T.);
#439=EDGE_CURVE('',#558,#557,#73,.T.);
#440=EDGE_CURVE('',#558,#559,#74,.F.);
#441=EDGE_CURVE('',#559,#560,#75,.T.);
#442=EDGE_CURVE('',#560,#561,#76,.T.);
#443=EDGE_CURVE('',#561,#555,#77,.F.);
#444=EDGE_CURVE('',#562,#549,#78,.T.);
#445=EDGE_CURVE('',#557,#562,#632,.T.);
#446=EDGE_CURVE('',#548,#563,#79,.T.);
#447=EDGE_CURVE('',#564,#563,#80,.F.);
#448=EDGE_CURVE('',#564,#565,#81,.F.);
#449=EDGE_CURVE('',#565,#566,#82,.T.);
#450=EDGE_CURVE('',#566,#567,#83,.T.);
#451=EDGE_CURVE('',#567,#562,#84,.F.);
#452=EDGE_CURVE('',#568,#547,#85,.T.);
#453=EDGE_CURVE('',#563,#568,#633,.T.);
#454=EDGE_CURVE('',#569,#570,#86,.T.);
#455=EDGE_CURVE('',#571,#569,#87,.F.);
#456=EDGE_CURVE('',#568,#571,#88,.F.);
#457=EDGE_CURVE('',#572,#546,#89,.F.);
#458=EDGE_CURVE('',#573,#572,#90,.F.);
#459=EDGE_CURVE('',#570,#573,#91,.T.);
#460=EDGE_CURVE('',#574,#545,#92,.T.);
#461=EDGE_CURVE('',#572,#574,#634,.T.);
#462=EDGE_CURVE('',#575,#576,#93,.T.);
#463=EDGE_CURVE('',#577,#575,#94,.F.);
#464=EDGE_CURVE('',#574,#577,#95,.F.);
#465=EDGE_CURVE('',#578,#556,#96,.F.);
#466=EDGE_CURVE('',#576,#578,#97,.T.);
#467=EDGE_CURVE('',#579,#579,#635,.T.);
#468=EDGE_CURVE('',#580,#580,#636,.F.);
#469=EDGE_CURVE('',#581,#581,#637,.F.);
#470=EDGE_CURVE('',#582,#582,#638,.F.);
#471=EDGE_CURVE('',#583,#583,#639,.F.);
#472=EDGE_CURVE('',#561,#584,#640,.T.);
#473=EDGE_CURVE('',#584,#585,#98,.T.);
#474=EDGE_CURVE('',#585,#578,#641,.F.);
#475=EDGE_CURVE('',#586,#584,#99,.T.);
#476=EDGE_CURVE('',#560,#586,#642,.T.);
#477=EDGE_CURVE('',#587,#560,#643,.F.);
#478=EDGE_CURVE('',#588,#559,#644,.F.);
#479=EDGE_CURVE('',#588,#587,#100,.T.);
#480=EDGE_CURVE('',#558,#589,#645,.T.);
#481=EDGE_CURVE('',#589,#590,#101,.T.);
#482=EDGE_CURVE('',#590,#559,#646,.F.);
#483=EDGE_CURVE('',#567,#591,#647,.F.);
#484=EDGE_CURVE('',#591,#589,#102,.T.);
#485=EDGE_CURVE('',#592,#591,#103,.F.);
#486=EDGE_CURVE('',#566,#592,#648,.F.);
#487=EDGE_CURVE('',#593,#566,#649,.F.);
#488=EDGE_CURVE('',#594,#565,#650,.F.);
#489=EDGE_CURVE('',#594,#593,#104,.T.);
#490=EDGE_CURVE('',#564,#595,#651,.T.);
#491=EDGE_CURVE('',#595,#596,#105,.T.);
#492=EDGE_CURVE('',#596,#565,#652,.F.);
#493=EDGE_CURVE('',#571,#597,#653,.T.);
#494=EDGE_CURVE('',#597,#595,#106,.T.);
#495=EDGE_CURVE('',#573,#598,#654,.T.);
#496=EDGE_CURVE('',#598,#599,#107,.T.);
#497=EDGE_CURVE('',#599,#570,#655,.F.);
#498=EDGE_CURVE('',#570,#600,#656,.T.);
#499=EDGE_CURVE('',#600,#601,#108,.T.);
#500=EDGE_CURVE('',#569,#601,#657,.T.);
#501=EDGE_CURVE('',#602,#597,#109,.T.);
#502=EDGE_CURVE('',#569,#602,#658,.T.);
#503=EDGE_CURVE('',#577,#603,#659,.F.);
#504=EDGE_CURVE('',#603,#598,#110,.T.);
#505=EDGE_CURVE('',#585,#604,#111,.T.);
#506=EDGE_CURVE('',#604,#576,#660,.F.);
#507=EDGE_CURVE('',#576,#605,#661,.T.);
#508=EDGE_CURVE('',#605,#606,#112,.T.);
#509=EDGE_CURVE('',#575,#606,#662,.T.);
#510=EDGE_CURVE('',#607,#603,#113,.F.);
#511=EDGE_CURVE('',#575,#607,#663,.F.);
#512=EDGE_CURVE('',#608,#608,#664,.T.);
#513=EDGE_CURVE('',#609,#609,#665,.T.);
#514=EDGE_CURVE('',#610,#605,#28,.T.);
#515=EDGE_CURVE('',#611,#610,#114,.T.);
#516=EDGE_CURVE('',#587,#611,#29,.T.);
#517=EDGE_CURVE('',#612,#588,#30,.T.);
#518=EDGE_CURVE('',#613,#612,#115,.T.);
#519=EDGE_CURVE('',#593,#613,#31,.T.);
#520=EDGE_CURVE('',#614,#594,#32,.T.);
#521=EDGE_CURVE('',#615,#614,#116,.T.);
#522=EDGE_CURVE('',#601,#615,#33,.T.);
#523=EDGE_CURVE('',#616,#600,#34,.T.);
#524=EDGE_CURVE('',#617,#616,#117,.T.);
#525=EDGE_CURVE('',#606,#617,#35,.T.);
#526=EDGE_CURVE('',#604,#586,#118,.T.);
#527=EDGE_CURVE('',#611,#586,#666,.F.);
#528=EDGE_CURVE('',#590,#612,#667,.T.);
#529=EDGE_CURVE('',#592,#590,#119,.T.);
#530=EDGE_CURVE('',#613,#592,#668,.F.);
#531=EDGE_CURVE('',#596,#614,#669,.T.);
#532=EDGE_CURVE('',#602,#596,#120,.T.);
#533=EDGE_CURVE('',#599,#616,#670,.T.);
#534=EDGE_CURVE('',#599,#607,#121,.T.);
#535=EDGE_CURVE('',#615,#602,#671,.F.);
#536=EDGE_CURVE('',#604,#610,#672,.T.);
#537=EDGE_CURVE('',#617,#607,#673,.F.);
#538=VERTEX_POINT('',#1291);
#539=VERTEX_POINT('',#1293);
#540=VERTEX_POINT('',#1295);
#541=VERTEX_POINT('',#1297);
#542=VERTEX_POINT('',#1299);
#543=VERTEX_POINT('',#1300);
#544=VERTEX_POINT('',#1302);
#545=VERTEX_POINT('',#1304);
#546=VERTEX_POINT('',#1306);
#547=VERTEX_POINT('',#1308);
#548=VERTEX_POINT('',#1310);
#549=VERTEX_POINT('',#1312);
#550=VERTEX_POINT('',#1315);
#551=VERTEX_POINT('',#1318);
#552=VERTEX_POINT('',#1321);
#553=VERTEX_POINT('',#1324);
#554=VERTEX_POINT('',#1327);
#555=VERTEX_POINT('',#1330);
#556=VERTEX_POINT('',#1332);
#557=VERTEX_POINT('',#1336);
#558=VERTEX_POINT('',#1338);
#559=VERTEX_POINT('',#1340);
#560=VERTEX_POINT('',#1342);
#561=VERTEX_POINT('',#1344);
#562=VERTEX_POINT('',#1348);
#563=VERTEX_POINT('',#1352);
#564=VERTEX_POINT('',#1354);
#565=VERTEX_POINT('',#1356);
#566=VERTEX_POINT('',#1358);
#567=VERTEX_POINT('',#1360);
#568=VERTEX_POINT('',#1364);
#569=VERTEX_POINT('',#1368);
#570=VERTEX_POINT('',#1369);
#571=VERTEX_POINT('',#1371);
#572=VERTEX_POINT('',#1374);
#573=VERTEX_POINT('',#1376);
#574=VERTEX_POINT('',#1380);
#575=VERTEX_POINT('',#1384);
#576=VERTEX_POINT('',#1385);
#577=VERTEX_POINT('',#1387);
#578=VERTEX_POINT('',#1390);
#579=VERTEX_POINT('',#1394);
#580=VERTEX_POINT('',#1397);
#581=VERTEX_POINT('',#1400);
#582=VERTEX_POINT('',#1403);
#583=VERTEX_POINT('',#1406);
#584=VERTEX_POINT('',#1409);
#585=VERTEX_POINT('',#1411);
#586=VERTEX_POINT('',#1415);
#587=VERTEX_POINT('',#1419);
#588=VERTEX_POINT('',#1421);
#589=VERTEX_POINT('',#1425);
#590=VERTEX_POINT('',#1427);
#591=VERTEX_POINT('',#1431);
#592=VERTEX_POINT('',#1435);
#593=VERTEX_POINT('',#1439);
#594=VERTEX_POINT('',#1441);
#595=VERTEX_POINT('',#1445);
#596=VERTEX_POINT('',#1447);
#597=VERTEX_POINT('',#1451);
#598=VERTEX_POINT('',#1455);
#599=VERTEX_POINT('',#1457);
#600=VERTEX_POINT('',#1461);
#601=VERTEX_POINT('',#1463);
#602=VERTEX_POINT('',#1467);
#603=VERTEX_POINT('',#1471);
#604=VERTEX_POINT('',#1475);
#605=VERTEX_POINT('',#1479);
#606=VERTEX_POINT('',#1481);
#607=VERTEX_POINT('',#1485);
#608=VERTEX_POINT('',#1489);
#609=VERTEX_POINT('',#1492);
#610=VERTEX_POINT('',#1497);
#611=VERTEX_POINT('',#1499);
#612=VERTEX_POINT('',#1508);
#613=VERTEX_POINT('',#1510);
#614=VERTEX_POINT('',#1519);
#615=VERTEX_POINT('',#1521);
#616=VERTEX_POINT('',#1530);
#617=VERTEX_POINT('',#1532);
#618=CIRCLE('',#904,0.00125);
#619=CIRCLE('',#905,0.00125);
#620=CIRCLE('',#906,0.00125);
#621=CIRCLE('',#907,0.00125);
#622=CIRCLE('',#908,0.0256);
#623=CIRCLE('',#909,0.0256);
#624=CIRCLE('',#910,0.0256);
#625=CIRCLE('',#911,0.0256);
#626=CIRCLE('',#912,0.008);
#627=CIRCLE('',#914,0.00125);
#628=CIRCLE('',#916,0.00125);
#629=CIRCLE('',#918,0.00125);
#630=CIRCLE('',#920,0.00125);
#631=CIRCLE('',#922,0.0256);
#632=CIRCLE('',#925,0.0256);
#633=CIRCLE('',#928,0.0256);
#634=CIRCLE('',#931,0.0256);
#635=CIRCLE('',#934,0.008);
#636=CIRCLE('',#936,0.00375000000005048);
#637=CIRCLE('',#938,0.00374999999999363);
#638=CIRCLE('',#940,0.00375000000005639);
#639=CIRCLE('',#942,0.00374999999999955);
#640=CIRCLE('',#944,0.002);
#641=CIRCLE('',#945,0.002);
#642=CIRCLE('',#947,0.002);
#643=CIRCLE('',#949,0.0005);
#644=CIRCLE('',#950,0.0005);
#645=CIRCLE('',#952,0.002);
#646=CIRCLE('',#953,0.002);
#647=CIRCLE('',#955,0.002);
#648=CIRCLE('',#957,0.002);
#649=CIRCLE('',#959,0.0005);
#650=CIRCLE('',#960,0.0005);
#651=CIRCLE('',#962,0.002);
#652=CIRCLE('',#963,0.002);
#653=CIRCLE('',#965,0.002);
#654=CIRCLE('',#967,0.002);
#655=CIRCLE('',#968,0.002);
#656=CIRCLE('',#970,0.0005);
#657=CIRCLE('',#971,0.0005);
#658=CIRCLE('',#973,0.002);
#659=CIRCLE('',#975,0.002);
#660=CIRCLE('',#977,0.002);
#661=CIRCLE('',#979,0.0005);
#662=CIRCLE('',#980,0.0005);
#663=CIRCLE('',#982,0.002);
#664=CIRCLE('',#984,0.0045);
#665=CIRCLE('',#986,0.0045);
#666=CIRCLE('',#989,0.0005);
#667=CIRCLE('',#991,0.0005);
#668=CIRCLE('',#994,0.0005);
#669=CIRCLE('',#996,0.0005);
#670=CIRCLE('',#999,0.0005);
#671=CIRCLE('',#1002,0.0005);
#672=CIRCLE('',#1004,0.0005);
#673=CIRCLE('',#1006,0.0005);
#674=EDGE_LOOP('',(#178));
#675=EDGE_LOOP('',(#179));
#676=EDGE_LOOP('',(#180));
#677=EDGE_LOOP('',(#181));
#678=EDGE_LOOP('',(#182,#183,#184,#185,#186,#187,#188,#189));
#679=EDGE_LOOP('',(#190));
#680=EDGE_LOOP('',(#191));
#681=EDGE_LOOP('',(#192));
#682=EDGE_LOOP('',(#193));
#683=EDGE_LOOP('',(#194));
#684=EDGE_LOOP('',(#195));
#685=EDGE_LOOP('',(#196));
#686=EDGE_LOOP('',(#197));
#687=EDGE_LOOP('',(#198));
#688=EDGE_LOOP('',(#199,#200,#201,#202));
#689=EDGE_LOOP('',(#203,#204,#205,#206,#207,#208,#209,#210));
#690=EDGE_LOOP('',(#211,#212,#213,#214));
#691=EDGE_LOOP('',(#215,#216,#217,#218,#219,#220,#221,#222));
#692=EDGE_LOOP('',(#223,#224,#225,#226));
#693=EDGE_LOOP('',(#227,#228,#229,#230,#231,#232,#233,#234));
#694=EDGE_LOOP('',(#235,#236,#237,#238));
#695=EDGE_LOOP('',(#239,#240,#241,#242,#243,#244,#245,#246));
#696=EDGE_LOOP('',(#247));
#697=EDGE_LOOP('',(#248));
#698=EDGE_LOOP('',(#249));
#699=EDGE_LOOP('',(#250));
#700=EDGE_LOOP('',(#251));
#701=EDGE_LOOP('',(#252));
#702=EDGE_LOOP('',(#253));
#703=EDGE_LOOP('',(#254));
#704=EDGE_LOOP('',(#255));
#705=EDGE_LOOP('',(#256));
#706=EDGE_LOOP('',(#257,#258,#259,#260,#261,#262));
#707=EDGE_LOOP('',(#263,#264,#265,#266));
#708=EDGE_LOOP('',(#267,#268,#269,#270));
#709=EDGE_LOOP('',(#271,#272,#273,#274));
#710=EDGE_LOOP('',(#275,#276,#277,#278,#279,#280));
#711=EDGE_LOOP('',(#281,#282,#283,#284));
#712=EDGE_LOOP('',(#285,#286,#287,#288));
#713=EDGE_LOOP('',(#289,#290,#291,#292));
#714=EDGE_LOOP('',(#293,#294,#295,#296,#297,#298));
#715=EDGE_LOOP('',(#299,#300,#301,#302));
#716=EDGE_LOOP('',(#303,#304,#305,#306));
#717=EDGE_LOOP('',(#307,#308,#309,#310));
#718=EDGE_LOOP('',(#311,#312,#313,#314,#315,#316));
#719=EDGE_LOOP('',(#317,#318,#319,#320));
#720=EDGE_LOOP('',(#321,#322,#323,#324));
#721=EDGE_LOOP('',(#325,#326,#327,#328));
#722=EDGE_LOOP('',(#329));
#723=EDGE_LOOP('',(#330));
#724=EDGE_LOOP('',(#331));
#725=EDGE_LOOP('',(#332));
#726=EDGE_LOOP('',(#333));
#727=EDGE_LOOP('',(#334));
#728=EDGE_LOOP('',(#335));
#729=EDGE_LOOP('',(#336,#337,#338,#339,#340,#341,#342,#343,#344,#345,#346,
#347,#348,#349,#350,#351));
#730=EDGE_LOOP('',(#352,#353,#354,#355));
#731=EDGE_LOOP('',(#356,#357,#358,#359));
#732=EDGE_LOOP('',(#360,#361,#362,#363));
#733=EDGE_LOOP('',(#364,#365,#366,#367));
#734=EDGE_LOOP('',(#368,#369,#370,#371));
#735=EDGE_LOOP('',(#372,#373,#374,#375));
#736=EDGE_LOOP('',(#376,#377,#378,#379));
#737=EDGE_LOOP('',(#380,#381,#382,#383));
#738=EDGE_LOOP('',(#384,#385,#386,#387));
#739=EDGE_LOOP('',(#388,#389,#390,#391));
#740=EDGE_LOOP('',(#392,#393,#394,#395));
#741=EDGE_LOOP('',(#396,#397,#398,#399));
#742=EDGE_LOOP('',(#400));
#743=EDGE_LOOP('',(#401));
#744=EDGE_LOOP('',(#402,#403,#404,#405));
#745=EDGE_LOOP('',(#406,#407,#408,#409));
#746=EDGE_LOOP('',(#410,#411,#412,#413));
#747=EDGE_LOOP('',(#414,#415,#416,#417));
#748=FACE_BOUND('',#674,.T.);
#749=FACE_BOUND('',#675,.T.);
#750=FACE_BOUND('',#676,.T.);
#751=FACE_BOUND('',#677,.T.);
#752=FACE_BOUND('',#678,.T.);
#753=FACE_BOUND('',#679,.T.);
#754=FACE_BOUND('',#680,.T.);
#755=FACE_BOUND('',#681,.T.);
#756=FACE_BOUND('',#682,.T.);
#757=FACE_BOUND('',#683,.T.);
#758=FACE_BOUND('',#684,.T.);
#759=FACE_BOUND('',#685,.T.);
#760=FACE_BOUND('',#686,.T.);
#761=FACE_BOUND('',#687,.T.);
#762=FACE_BOUND('',#688,.T.);
#763=FACE_BOUND('',#689,.T.);
#764=FACE_BOUND('',#690,.T.);
#765=FACE_BOUND('',#691,.T.);
#766=FACE_BOUND('',#692,.T.);
#767=FACE_BOUND('',#693,.T.);
#768=FACE_BOUND('',#694,.T.);
#769=FACE_BOUND('',#695,.T.);
#770=FACE_BOUND('',#696,.T.);
#771=FACE_BOUND('',#697,.T.);
#772=FACE_BOUND('',#698,.T.);
#773=FACE_BOUND('',#699,.T.);
#774=FACE_BOUND('',#700,.T.);
#775=FACE_BOUND('',#701,.T.);
#776=FACE_BOUND('',#702,.T.);
#777=FACE_BOUND('',#703,.T.);
#778=FACE_BOUND('',#704,.T.);
#779=FACE_BOUND('',#705,.T.);
#780=FACE_BOUND('',#706,.T.);
#781=FACE_BOUND('',#707,.T.);
#782=FACE_BOUND('',#708,.T.);
#783=FACE_BOUND('',#709,.T.);
#784=FACE_BOUND('',#710,.T.);
#785=FACE_BOUND('',#711,.T.);
#786=FACE_BOUND('',#712,.T.);
#787=FACE_BOUND('',#713,.T.);
#788=FACE_BOUND('',#714,.T.);
#789=FACE_BOUND('',#715,.T.);
#790=FACE_BOUND('',#716,.T.);
#791=FACE_BOUND('',#717,.T.);
#792=FACE_BOUND('',#718,.T.);
#793=FACE_BOUND('',#719,.T.);
#794=FACE_BOUND('',#720,.T.);
#795=FACE_BOUND('',#721,.T.);
#796=FACE_BOUND('',#722,.T.);
#797=FACE_BOUND('',#723,.T.);
#798=FACE_BOUND('',#724,.T.);
#799=FACE_BOUND('',#725,.T.);
#800=FACE_BOUND('',#726,.T.);
#801=FACE_BOUND('',#727,.T.);
#802=FACE_BOUND('',#728,.T.);
#803=FACE_BOUND('',#729,.T.);
#804=FACE_BOUND('',#730,.T.);
#805=FACE_BOUND('',#731,.T.);
#806=FACE_BOUND('',#732,.T.);
#807=FACE_BOUND('',#733,.T.);
#808=FACE_BOUND('',#734,.T.);
#809=FACE_BOUND('',#735,.T.);
#810=FACE_BOUND('',#736,.T.);
#811=FACE_BOUND('',#737,.T.);
#812=FACE_BOUND('',#738,.T.);
#813=FACE_BOUND('',#739,.T.);
#814=FACE_BOUND('',#740,.T.);
#815=FACE_BOUND('',#741,.T.);
#816=FACE_BOUND('',#742,.T.);
#817=FACE_BOUND('',#743,.T.);
#818=FACE_BOUND('',#744,.T.);
#819=FACE_BOUND('',#745,.T.);
#820=FACE_BOUND('',#746,.T.);
#821=FACE_BOUND('',#747,.T.);
#822=PLANE('',#903);
#823=PLANE('',#923);
#824=PLANE('',#926);
#825=PLANE('',#929);
#826=PLANE('',#932);
#827=PLANE('',#943);
#828=PLANE('',#954);
#829=PLANE('',#964);
#830=PLANE('',#974);
#831=PLANE('',#983);
#832=PLANE('',#985);
#833=PLANE('',#987);
#834=PLANE('',#992);
#835=PLANE('',#997);
#836=PLANE('',#1000);
#837=ADVANCED_FACE('',(#748,#749,#750,#751,#752,#753),#822,.T.);
#838=ADVANCED_FACE('',(#754,#755),#40,.F.);
#839=ADVANCED_FACE('',(#756,#757),#41,.F.);
#840=ADVANCED_FACE('',(#758,#759),#42,.F.);
#841=ADVANCED_FACE('',(#760,#761),#43,.F.);
#842=ADVANCED_FACE('',(#762),#44,.F.);
#843=ADVANCED_FACE('',(#763),#823,.T.);
#844=ADVANCED_FACE('',(#764),#45,.F.);
#845=ADVANCED_FACE('',(#765),#824,.T.);
#846=ADVANCED_FACE('',(#766),#46,.F.);
#847=ADVANCED_FACE('',(#767),#825,.F.);
#848=ADVANCED_FACE('',(#768),#47,.F.);
#849=ADVANCED_FACE('',(#769),#826,.F.);
#850=ADVANCED_FACE('',(#770,#771),#48,.F.);
#851=ADVANCED_FACE('',(#772,#773),#36,.F.);
#852=ADVANCED_FACE('',(#774,#775),#37,.F.);
#853=ADVANCED_FACE('',(#776,#777),#38,.F.);
#854=ADVANCED_FACE('',(#778,#779),#39,.F.);
#855=ADVANCED_FACE('',(#780),#827,.T.);
#856=ADVANCED_FACE('',(#781),#49,.T.);
#857=ADVANCED_FACE('',(#782),#50,.T.);
#858=ADVANCED_FACE('',(#783),#51,.T.);
#859=ADVANCED_FACE('',(#784),#828,.T.);
#860=ADVANCED_FACE('',(#785),#52,.T.);
#861=ADVANCED_FACE('',(#786),#53,.T.);
#862=ADVANCED_FACE('',(#787),#54,.T.);
#863=ADVANCED_FACE('',(#788),#829,.T.);
#864=ADVANCED_FACE('',(#789),#55,.T.);
#865=ADVANCED_FACE('',(#790),#56,.T.);
#866=ADVANCED_FACE('',(#791),#57,.T.);
#867=ADVANCED_FACE('',(#792),#830,.T.);
#868=ADVANCED_FACE('',(#793),#58,.T.);
#869=ADVANCED_FACE('',(#794),#59,.T.);
#870=ADVANCED_FACE('',(#795),#60,.T.);
#871=ADVANCED_FACE('',(#796,#797),#831,.T.);
#872=ADVANCED_FACE('',(#798,#799,#800,#801,#802,#803),#832,.F.);
#873=ADVANCED_FACE('',(#804),#833,.F.);
#874=ADVANCED_FACE('',(#805),#20,.T.);
#875=ADVANCED_FACE('',(#806),#21,.T.);
#876=ADVANCED_FACE('',(#807),#834,.T.);
#877=ADVANCED_FACE('',(#808),#22,.T.);
#878=ADVANCED_FACE('',(#809),#23,.T.);
#879=ADVANCED_FACE('',(#810),#835,.T.);
#880=ADVANCED_FACE('',(#811),#24,.T.);
#881=ADVANCED_FACE('',(#812),#836,.F.);
#882=ADVANCED_FACE('',(#813),#25,.T.);
#883=ADVANCED_FACE('',(#814),#26,.T.);
#884=ADVANCED_FACE('',(#815),#27,.T.);
#885=ADVANCED_FACE('',(#816,#817),#61,.F.);
#886=ADVANCED_FACE('',(#818),#62,.T.);
#887=ADVANCED_FACE('',(#819),#63,.T.);
#888=ADVANCED_FACE('',(#820),#64,.T.);
#889=ADVANCED_FACE('',(#821),#65,.T.);
#890=CLOSED_SHELL('',(#837,#838,#839,#840,#841,#842,#843,#844,#845,#846,
#847,#848,#849,#850,#851,#852,#853,#854,#855,#856,#857,#858,#859,#860,#861,
#862,#863,#864,#865,#866,#867,#868,#869,#870,#871,#872,#873,#874,#875,#876,
#877,#878,#879,#880,#881,#882,#883,#884,#885,#886,#887,#888,#889));
#891=STYLED_ITEM('',(#892),#899);
#892=PRESENTATION_STYLE_ASSIGNMENT((#893));
#893=SURFACE_STYLE_USAGE(.BOTH.,#894);
#894=SURFACE_SIDE_STYLE('',(#895));
#895=SURFACE_STYLE_FILL_AREA(#896);
#896=FILL_AREA_STYLE('',(#897));
#897=FILL_AREA_STYLE_COLOUR('',#898);
#898=COLOUR_RGB('',0.6,0.6,0.6);
#899=MANIFOLD_SOLID_BREP('Part 89',#890);
#900=SHAPE_DEFINITION_REPRESENTATION(#1572,#901);
#901=SHAPE_REPRESENTATION('Part 89',(#902),#1567);
#902=AXIS2_PLACEMENT_3D('',#1288,#1012,#1013);
#903=AXIS2_PLACEMENT_3D('',#1289,#1014,#1015);
#904=AXIS2_PLACEMENT_3D('',#1290,#1016,#1017);
#905=AXIS2_PLACEMENT_3D('',#1292,#1018,#1019);
#906=AXIS2_PLACEMENT_3D('',#1294,#1020,#1021);
#907=AXIS2_PLACEMENT_3D('',#1296,#1022,#1023);
#908=AXIS2_PLACEMENT_3D('',#1301,#1025,#1026);
#909=AXIS2_PLACEMENT_3D('',#1305,#1028,#1029);
#910=AXIS2_PLACEMENT_3D('',#1309,#1031,#1032);
#911=AXIS2_PLACEMENT_3D('',#1313,#1034,#1035);
#912=AXIS2_PLACEMENT_3D('',#1314,#1036,#1037);
#913=AXIS2_PLACEMENT_3D('',#1316,#1038,#1039);
#914=AXIS2_PLACEMENT_3D('',#1317,#1040,#1041);
#915=AXIS2_PLACEMENT_3D('',#1319,#1042,#1043);
#916=AXIS2_PLACEMENT_3D('',#1320,#1044,#1045);
#917=AXIS2_PLACEMENT_3D('',#1322,#1046,#1047);
#918=AXIS2_PLACEMENT_3D('',#1323,#1048,#1049);
#919=AXIS2_PLACEMENT_3D('',#1325,#1050,#1051);
#920=AXIS2_PLACEMENT_3D('',#1326,#1052,#1053);
#921=AXIS2_PLACEMENT_3D('',#1328,#1054,#1055);
#922=AXIS2_PLACEMENT_3D('',#1331,#1057,#1058);
#923=AXIS2_PLACEMENT_3D('',#1334,#1060,#1061);
#924=AXIS2_PLACEMENT_3D('',#1346,#1068,#1069);
#925=AXIS2_PLACEMENT_3D('',#1349,#1071,#1072);
#926=AXIS2_PLACEMENT_3D('',#1350,#1073,#1074);
#927=AXIS2_PLACEMENT_3D('',#1362,#1081,#1082);
#928=AXIS2_PLACEMENT_3D('',#1365,#1084,#1085);
#929=AXIS2_PLACEMENT_3D('',#1366,#1086,#1087);
#930=AXIS2_PLACEMENT_3D('',#1378,#1094,#1095);
#931=AXIS2_PLACEMENT_3D('',#1381,#1097,#1098);
#932=AXIS2_PLACEMENT_3D('',#1382,#1099,#1100);
#933=AXIS2_PLACEMENT_3D('',#1392,#1106,#1107);
#934=AXIS2_PLACEMENT_3D('',#1393,#1108,#1109);
#935=AXIS2_PLACEMENT_3D('',#1395,#1110,#1111);
#936=AXIS2_PLACEMENT_3D('',#1396,#1112,#1113);
#937=AXIS2_PLACEMENT_3D('',#1398,#1114,#1115);
#938=AXIS2_PLACEMENT_3D('',#1399,#1116,#1117);
#939=AXIS2_PLACEMENT_3D('',#1401,#1118,#1119);
#940=AXIS2_PLACEMENT_3D('',#1402,#1120,#1121);
#941=AXIS2_PLACEMENT_3D('',#1404,#1122,#1123);
#942=AXIS2_PLACEMENT_3D('',#1405,#1124,#1125);
#943=AXIS2_PLACEMENT_3D('',#1407,#1126,#1127);
#944=AXIS2_PLACEMENT_3D('',#1408,#1128,#1129);
#945=AXIS2_PLACEMENT_3D('',#1412,#1131,#1132);
#946=AXIS2_PLACEMENT_3D('',#1413,#1133,#1134);
#947=AXIS2_PLACEMENT_3D('',#1416,#1136,#1137);
#948=AXIS2_PLACEMENT_3D('',#1417,#1138,#1139);
#949=AXIS2_PLACEMENT_3D('',#1418,#1140,#1141);
#950=AXIS2_PLACEMENT_3D('',#1420,#1142,#1143);
#951=AXIS2_PLACEMENT_3D('',#1423,#1145,#1146);
#952=AXIS2_PLACEMENT_3D('',#1424,#1147,#1148);
#953=AXIS2_PLACEMENT_3D('',#1428,#1150,#1151);
#954=AXIS2_PLACEMENT_3D('',#1429,#1152,#1153);
#955=AXIS2_PLACEMENT_3D('',#1430,#1154,#1155);
#956=AXIS2_PLACEMENT_3D('',#1433,#1157,#1158);
#957=AXIS2_PLACEMENT_3D('',#1436,#1160,#1161);
#958=AXIS2_PLACEMENT_3D('',#1437,#1162,#1163);
#959=AXIS2_PLACEMENT_3D('',#1438,#1164,#1165);
#960=AXIS2_PLACEMENT_3D('',#1440,#1166,#1167);
#961=AXIS2_PLACEMENT_3D('',#1443,#1169,#1170);
#962=AXIS2_PLACEMENT_3D('',#1444,#1171,#1172);
#963=AXIS2_PLACEMENT_3D('',#1448,#1174,#1175);
#964=AXIS2_PLACEMENT_3D('',#1449,#1176,#1177);
#965=AXIS2_PLACEMENT_3D('',#1450,#1178,#1179);
#966=AXIS2_PLACEMENT_3D('',#1453,#1181,#1182);
#967=AXIS2_PLACEMENT_3D('',#1454,#1183,#1184);
#968=AXIS2_PLACEMENT_3D('',#1458,#1186,#1187);
#969=AXIS2_PLACEMENT_3D('',#1459,#1188,#1189);
#970=AXIS2_PLACEMENT_3D('',#1460,#1190,#1191);
#971=AXIS2_PLACEMENT_3D('',#1464,#1193,#1194);
#972=AXIS2_PLACEMENT_3D('',#1465,#1195,#1196);
#973=AXIS2_PLACEMENT_3D('',#1468,#1198,#1199);
#974=AXIS2_PLACEMENT_3D('',#1469,#1200,#1201);
#975=AXIS2_PLACEMENT_3D('',#1470,#1202,#1203);
#976=AXIS2_PLACEMENT_3D('',#1473,#1205,#1206);
#977=AXIS2_PLACEMENT_3D('',#1476,#1208,#1209);
#978=AXIS2_PLACEMENT_3D('',#1477,#1210,#1211);
#979=AXIS2_PLACEMENT_3D('',#1478,#1212,#1213);
#980=AXIS2_PLACEMENT_3D('',#1482,#1215,#1216);
#981=AXIS2_PLACEMENT_3D('',#1483,#1217,#1218);
#982=AXIS2_PLACEMENT_3D('',#1486,#1220,#1221);
#983=AXIS2_PLACEMENT_3D('',#1487,#1222,#1223);
#984=AXIS2_PLACEMENT_3D('',#1488,#1224,#1225);
#985=AXIS2_PLACEMENT_3D('',#1490,#1226,#1227);
#986=AXIS2_PLACEMENT_3D('',#1491,#1228,#1229);
#987=AXIS2_PLACEMENT_3D('',#1537,#1234,#1235);
#988=AXIS2_PLACEMENT_3D('',#1539,#1237,#1238);
#989=AXIS2_PLACEMENT_3D('',#1540,#1239,#1240);
#990=AXIS2_PLACEMENT_3D('',#1541,#1241,#1242);
#991=AXIS2_PLACEMENT_3D('',#1542,#1243,#1244);
#992=AXIS2_PLACEMENT_3D('',#1543,#1245,#1246);
#993=AXIS2_PLACEMENT_3D('',#1545,#1248,#1249);
#994=AXIS2_PLACEMENT_3D('',#1546,#1250,#1251);
#995=AXIS2_PLACEMENT_3D('',#1547,#1252,#1253);
#996=AXIS2_PLACEMENT_3D('',#1548,#1254,#1255);
#997=AXIS2_PLACEMENT_3D('',#1549,#1256,#1257);
#998=AXIS2_PLACEMENT_3D('',#1551,#1259,#1260);
#999=AXIS2_PLACEMENT_3D('',#1552,#1261,#1262);
#1000=AXIS2_PLACEMENT_3D('',#1553,#1263,#1264);
#1001=AXIS2_PLACEMENT_3D('',#1555,#1266,#1267);
#1002=AXIS2_PLACEMENT_3D('',#1556,#1268,#1269);
#1003=AXIS2_PLACEMENT_3D('',#1557,#1270,#1271);
#1004=AXIS2_PLACEMENT_3D('',#1558,#1272,#1273);
#1005=AXIS2_PLACEMENT_3D('',#1559,#1274,#1275);
#1006=AXIS2_PLACEMENT_3D('',#1560,#1276,#1277);
#1007=AXIS2_PLACEMENT_3D('',#1561,#1278,#1279);
#1008=AXIS2_PLACEMENT_3D('',#1562,#1280,#1281);
#1009=AXIS2_PLACEMENT_3D('',#1563,#1282,#1283);
#1010=AXIS2_PLACEMENT_3D('',#1564,#1284,#1285);
#1011=AXIS2_PLACEMENT_3D('',#1565,#1286,#1287);
#1012=DIRECTION('',(0.,0.,1.));
#1013=DIRECTION('',(1.,0.,0.));
#1014=DIRECTION('',(0.,0.,1.));
#1015=DIRECTION('',(-0.00570245086249815,-0.999983740894901,0.));
#1016=DIRECTION('',(0.,0.,-1.));
#1017=DIRECTION('',(0.00570245086249815,0.999983740894901,0.));
#1018=DIRECTION('',(0.,0.,-1.));
#1019=DIRECTION('',(0.00570245086249815,0.999983740894901,0.));
#1020=DIRECTION('',(0.,0.,-1.));
#1021=DIRECTION('',(0.00570245086249815,0.999983740894901,0.));
#1022=DIRECTION('',(0.,0.,-1.));
#1023=DIRECTION('',(0.00570245086249815,0.999983740894901,0.));
#1024=DIRECTION('',(-0.00570245086249815,-0.999983740894901,0.));
#1025=DIRECTION('',(0.,0.,-1.));
#1026=DIRECTION('',(0.00570245086249815,0.999983740894901,0.));
#1027=DIRECTION('',(0.999983740894901,-0.00570245086249815,0.));
#1028=DIRECTION('',(0.,0.,-1.));
#1029=DIRECTION('',(0.00570245086249815,0.999983740894901,0.));
#1030=DIRECTION('',(-0.00570245086249815,-0.999983740894901,0.));
#1031=DIRECTION('',(0.,0.,-1.));
#1032=DIRECTION('',(0.00570245086249815,0.999983740894901,0.));
#1033=DIRECTION('',(0.999983740894901,-0.00570245086249815,0.));
#1034=DIRECTION('',(0.,0.,-1.));
#1035=DIRECTION('',(0.00570245086249815,0.999983740894901,0.));
#1036=DIRECTION('',(0.,0.,1.));
#1037=DIRECTION('',(-0.00570245086249815,-0.999983740894901,0.));
#1038=DIRECTION('',(0.,0.,-1.));
#1039=DIRECTION('',(0.00570245086249815,0.999983740894901,0.));
#1040=DIRECTION('',(0.,0.,-1.));
#1041=DIRECTION('',(0.00570245086249815,0.999983740894901,0.));
#1042=DIRECTION('',(0.,0.,-1.));
#1043=DIRECTION('',(0.00570245086249815,0.999983740894901,0.));
#1044=DIRECTION('',(0.,0.,-1.));
#1045=DIRECTION('',(0.00570245086249815,0.999983740894901,0.));
#1046=DIRECTION('',(0.,0.,-1.));
#1047=DIRECTION('',(0.00570245086249815,0.999983740894901,0.));
#1048=DIRECTION('',(0.,0.,-1.));
#1049=DIRECTION('',(0.00570245086249815,0.999983740894901,0.));
#1050=DIRECTION('',(0.,0.,-1.));
#1051=DIRECTION('',(0.00570245086249815,0.999983740894901,0.));
#1052=DIRECTION('',(0.,0.,-1.));
#1053=DIRECTION('',(0.00570245086249815,0.999983740894901,0.));
#1054=DIRECTION('',(0.,0.,-1.));
#1055=DIRECTION('',(0.00570245086249815,0.999983740894901,0.));
#1056=DIRECTION('',(0.,0.,-1.));
#1057=DIRECTION('',(0.,0.,-1.));
#1058=DIRECTION('',(0.00570245086249815,0.999983740894901,0.));
#1059=DIRECTION('',(0.,0.,-1.));
#1060=DIRECTION('',(-0.999983740894901,0.00570245086249815,0.));
#1061=DIRECTION('',(-0.00570245086249815,-0.999983740894901,0.));
#1062=DIRECTION('',(0.,0.,1.));
#1063=DIRECTION('',(-0.00570245086249815,-0.999983740894901,0.));
#1064=DIRECTION('',(0.,0.,1.));
#1065=DIRECTION('',(-0.00570245086249815,-0.999983740894901,0.));
#1066=DIRECTION('',(0.,0.,1.));
#1067=DIRECTION('',(-0.00570245086249815,-0.999983740894901,0.));
#1068=DIRECTION('',(0.,0.,-1.));
#1069=DIRECTION('',(0.00570245086249815,0.999983740894901,0.));
#1070=DIRECTION('',(0.,0.,-1.));
#1071=DIRECTION('',(0.,0.,-1.));
#1072=DIRECTION('',(0.00570245086249815,0.999983740894901,0.));
#1073=DIRECTION('',(0.00570245086249815,0.999983740894901,0.));
#1074=DIRECTION('',(-0.999983740894901,0.00570245086249815,0.));
#1075=DIRECTION('',(0.,0.,1.));
#1076=DIRECTION('',(0.999983740894901,-0.00570245086249815,0.));
#1077=DIRECTION('',(0.,0.,1.));
#1078=DIRECTION('',(-0.999983740894901,0.00570245086249815,0.));
#1079=DIRECTION('',(0.,0.,1.));
#1080=DIRECTION('',(-0.999983740894901,0.00570245086249815,0.));
#1081=DIRECTION('',(0.,0.,-1.));
#1082=DIRECTION('',(0.00570245086249815,0.999983740894901,0.));
#1083=DIRECTION('',(0.,0.,-1.));
#1084=DIRECTION('',(0.,0.,-1.));
#1085=DIRECTION('',(0.00570245086249815,0.999983740894901,0.));
#1086=DIRECTION('',(-0.999983740894901,0.00570245086249815,0.));
#1087=DIRECTION('',(-0.00570245086249815,-0.999983740894901,0.));
#1088=DIRECTION('',(-0.00570245086249815,-0.999983740894901,0.));
#1089=DIRECTION('',(0.,0.,1.));
#1090=DIRECTION('',(-0.00570245086249815,-0.999983740894901,0.));
#1091=DIRECTION('',(0.,0.,1.));
#1092=DIRECTION('',(-0.00570245086249815,-0.999983740894901,0.));
#1093=DIRECTION('',(0.,0.,1.));
#1094=DIRECTION('',(0.,0.,-1.));
#1095=DIRECTION('',(0.00570245086249815,0.999983740894901,0.));
#1096=DIRECTION('',(0.,0.,-1.));
#1097=DIRECTION('',(0.,0.,-1.));
#1098=DIRECTION('',(0.00570245086249815,0.999983740894901,0.));
#1099=DIRECTION('',(0.00570245086249815,0.999983740894901,0.));
#1100=DIRECTION('',(-0.999983740894901,0.00570245086249815,0.));
#1101=DIRECTION('',(-0.999983740894901,0.00570245086249815,0.));
#1102=DIRECTION('',(0.,0.,1.));
#1103=DIRECTION('',(-0.999983740894901,0.00570245086249815,0.));
#1104=DIRECTION('',(-0.999983740894901,0.00570245086249815,0.));
#1105=DIRECTION('',(0.,0.,1.));
#1106=DIRECTION('',(0.,0.,1.));
#1107=DIRECTION('',(-0.00570245086249815,-0.999983740894901,0.));
#1108=DIRECTION('',(0.,0.,1.));
#1109=DIRECTION('',(-0.00570245086249815,-0.999983740894901,0.));
#1110=DIRECTION('',(0.,0.,-1.));
#1111=DIRECTION('',(0.00570245086249815,0.999983740894901,0.));
#1112=DIRECTION('',(0.,0.,-1.));
#1113=DIRECTION('',(0.00570245086249815,0.999983740894901,0.));
#1114=DIRECTION('',(0.,0.,-1.));
#1115=DIRECTION('',(0.00570245086249815,0.999983740894901,0.));
#1116=DIRECTION('',(0.,0.,-1.));
#1117=DIRECTION('',(0.00570245086249815,0.999983740894901,0.));
#1118=DIRECTION('',(0.,0.,-1.));
#1119=DIRECTION('',(0.00570245086249815,0.999983740894901,0.));
#1120=DIRECTION('',(0.,0.,-1.));
#1121=DIRECTION('',(0.00570245086249815,0.999983740894901,0.));
#1122=DIRECTION('',(0.,0.,-1.));
#1123=DIRECTION('',(0.00570245086249815,0.999983740894901,0.));
#1124=DIRECTION('',(0.,0.,-1.));
#1125=DIRECTION('',(0.00570245086249815,0.999983740894901,0.));
#1126=DIRECTION('',(0.,0.,1.));
#1127=DIRECTION('',(-0.00570245086249815,-0.999983740894901,0.));
#1128=DIRECTION('',(0.,0.,1.));
#1129=DIRECTION('',(-0.00570245086249815,-0.999983740894901,0.));
#1130=DIRECTION('',(0.703063042588821,-0.711127525937332,0.));
#1131=DIRECTION('',(0.,0.,-1.));
#1132=DIRECTION('',(0.00570245086249815,0.999983740894901,0.));
#1133=DIRECTION('',(0.,0.,1.));
#1134=DIRECTION('',(-0.00570245086249815,-0.999983740894901,0.));
#1135=DIRECTION('',(0.,0.,1.));
#1136=DIRECTION('',(0.,0.,1.));
#1137=DIRECTION('',(-0.00570245086249815,-0.999983740894901,0.));
#1138=DIRECTION('',(-0.00570245086249815,-0.999983740894901,0.));
#1139=DIRECTION('',(0.999983740894901,-0.00570245086249815,0.));
#1140=DIRECTION('',(-0.00570245086249815,-0.999983740894901,0.));
#1141=DIRECTION('',(0.999983740894901,-0.00570245086249815,0.));
#1142=DIRECTION('',(-0.00570245086249834,-0.999983740894901,0.));
#1143=DIRECTION('',(-0.999983740894901,0.00570245086249834,0.));
#1144=DIRECTION('',(-0.00570245086249815,-0.999983740894901,0.));
#1145=DIRECTION('',(0.,0.,-1.));
#1146=DIRECTION('',(0.00570245086249815,0.999983740894901,0.));
#1147=DIRECTION('',(0.,0.,-1.));
#1148=DIRECTION('',(0.00570245086249815,0.999983740894901,0.));
#1149=DIRECTION('',(0.,0.,-1.));
#1150=DIRECTION('',(0.,0.,-1.));
#1151=DIRECTION('',(0.00570245086249815,0.999983740894901,0.));
#1152=DIRECTION('',(0.,0.,1.));
#1153=DIRECTION('',(-0.00570245086249815,-0.999983740894901,0.));
#1154=DIRECTION('',(0.,0.,-1.));
#1155=DIRECTION('',(0.00570245086249815,0.999983740894901,0.));
#1156=DIRECTION('',(-0.711127525937332,-0.703063042588821,0.));
#1157=DIRECTION('',(0.,0.,-1.));
#1158=DIRECTION('',(0.00570245086249815,0.999983740894901,0.));
#1159=DIRECTION('',(0.,0.,-1.));
#1160=DIRECTION('',(0.,0.,-1.));
#1161=DIRECTION('',(0.00570245086249815,0.999983740894901,0.));
#1162=DIRECTION('',(-0.999983740894901,0.00570245086249815,0.));
#1163=DIRECTION('',(-0.00570245086249815,-0.999983740894901,0.));
#1164=DIRECTION('',(-0.999983740894901,0.00570245086249815,0.));
#1165=DIRECTION('',(-0.00570245086249815,-0.999983740894901,0.));
#1166=DIRECTION('',(-0.999983740894901,0.00570245086249828,0.));
#1167=DIRECTION('',(0.00570245086249828,0.999983740894901,0.));
#1168=DIRECTION('',(-0.999983740894901,0.00570245086249815,0.));
#1169=DIRECTION('',(0.,0.,-1.));
#1170=DIRECTION('',(0.00570245086249815,0.999983740894901,0.));
#1171=DIRECTION('',(0.,0.,-1.));
#1172=DIRECTION('',(0.00570245086249815,0.999983740894901,0.));
#1173=DIRECTION('',(0.,0.,-1.));
#1174=DIRECTION('',(0.,0.,-1.));
#1175=DIRECTION('',(0.00570245086249815,0.999983740894901,0.));
#1176=DIRECTION('',(0.,0.,1.));
#1177=DIRECTION('',(-0.00570245086249815,-0.999983740894901,0.));
#1178=DIRECTION('',(0.,0.,1.));
#1179=DIRECTION('',(-0.00570245086249815,-0.999983740894901,0.));
#1180=DIRECTION('',(-0.703063042588821,0.711127525937332,0.));
#1181=DIRECTION('',(0.,0.,-1.));
#1182=DIRECTION('',(0.00570245086249815,0.999983740894901,0.));
#1183=DIRECTION('',(0.,0.,-1.));
#1184=DIRECTION('',(0.00570245086249815,0.999983740894901,0.));
#1185=DIRECTION('',(0.,0.,-1.));
#1186=DIRECTION('',(0.,0.,-1.));
#1187=DIRECTION('',(0.00570245086249815,0.999983740894901,0.));
#1188=DIRECTION('',(0.00570245086249815,0.999983740894901,0.));
#1189=DIRECTION('',(-0.999983740894901,0.00570245086249815,0.));
#1190=DIRECTION('',(0.00570245086249815,0.999983740894901,0.));
#1191=DIRECTION('',(-0.999983740894901,0.00570245086249815,0.));
#1192=DIRECTION('',(0.00570245086249815,0.999983740894901,0.));
#1193=DIRECTION('',(0.00570245086249822,0.999983740894901,0.));
#1194=DIRECTION('',(0.999983740894901,-0.00570245086249822,0.));
#1195=DIRECTION('',(0.,0.,1.));
#1196=DIRECTION('',(-0.00570245086249815,-0.999983740894901,0.));
#1197=DIRECTION('',(0.,0.,1.));
#1198=DIRECTION('',(0.,0.,1.));
#1199=DIRECTION('',(-0.00570245086249815,-0.999983740894901,0.));
#1200=DIRECTION('',(0.,0.,1.));
#1201=DIRECTION('',(-0.00570245086249815,-0.999983740894901,0.));
#1202=DIRECTION('',(0.,0.,-1.));
#1203=DIRECTION('',(0.00570245086249815,0.999983740894901,0.));
#1204=DIRECTION('',(0.711127525937332,0.703063042588821,0.));
#1205=DIRECTION('',(0.,0.,-1.));
#1206=DIRECTION('',(0.00570245086249815,0.999983740894901,0.));
#1207=DIRECTION('',(0.,0.,-1.));
#1208=DIRECTION('',(0.,0.,-1.));
#1209=DIRECTION('',(0.00570245086249815,0.999983740894901,0.));
#1210=DIRECTION('',(0.999983740894901,-0.00570245086249815,0.));
#1211=DIRECTION('',(0.00570245086249815,0.999983740894901,0.));
#1212=DIRECTION('',(0.999983740894901,-0.00570245086249815,0.));
#1213=DIRECTION('',(0.00570245086249815,0.999983740894901,0.));
#1214=DIRECTION('',(0.999983740894901,-0.00570245086249815,0.));
#1215=DIRECTION('',(0.999983740894901,-0.00570245086249815,0.));
#1216=DIRECTION('',(-0.00570245086249815,-0.999983740894901,0.));
#1217=DIRECTION('',(0.,0.,-1.));
#1218=DIRECTION('',(0.00570245086249815,0.999983740894901,0.));
#1219=DIRECTION('',(0.,0.,-1.));
#1220=DIRECTION('',(0.,0.,-1.));
#1221=DIRECTION('',(0.00570245086249815,0.999983740894901,0.));
#1222=DIRECTION('',(0.,0.,1.));
#1223=DIRECTION('',(-0.00570245086249815,-0.999983740894901,0.));
#1224=DIRECTION('',(0.,0.,-1.));
#1225=DIRECTION('',(0.00570245086249815,0.999983740894901,0.));
#1226=DIRECTION('',(0.,0.,1.));
#1227=DIRECTION('',(-0.00570245086249815,-0.999983740894901,0.));
#1228=DIRECTION('',(0.,0.,-1.));
#1229=DIRECTION('',(0.00570245086249815,0.999983740894901,0.));
#1230=DIRECTION('',(0.703063042588821,-0.711127525937332,0.));
#1231=DIRECTION('',(-0.711127525937331,-0.703063042588821,0.));
#1232=DIRECTION('',(-0.703063042588821,0.711127525937332,0.));
#1233=DIRECTION('',(0.711127525937332,0.703063042588821,0.));
#1234=DIRECTION('',(0.711127525937332,0.703063042588821,0.));
#1235=DIRECTION('',(-0.703063042588821,0.711127525937332,0.));
#1236=DIRECTION('',(-0.703063042588821,0.711127525937332,0.));
#1237=DIRECTION('',(0.,0.,1.));
#1238=DIRECTION('',(-0.00570245086249019,-0.999983740894901,0.));
#1239=DIRECTION('',(0.703063042588822,-0.711127525937331,0.));
#1240=DIRECTION('',(-0.711127525937331,-0.703063042588822,0.));
#1241=DIRECTION('',(0.,0.,1.));
#1242=DIRECTION('',(-0.00570245086249993,-0.999983740894901,0.));
#1243=DIRECTION('',(-0.711127525937333,-0.70306304258882,0.));
#1244=DIRECTION('',(-0.70306304258882,0.711127525937333,0.));
#1245=DIRECTION('',(-0.70306304258882,0.711127525937332,0.));
#1246=DIRECTION('',(-0.711127525937332,-0.70306304258882,0.));
#1247=DIRECTION('',(-0.711127525937332,-0.70306304258882,0.));
#1248=DIRECTION('',(0.,0.,1.));
#1249=DIRECTION('',(-0.00570245086249602,-0.999983740894901,0.));
#1250=DIRECTION('',(-0.711127525937332,-0.703063042588821,0.));
#1251=DIRECTION('',(-0.703063042588821,0.711127525937332,0.));
#1252=DIRECTION('',(0.,0.,1.));
#1253=DIRECTION('',(-0.0057024508625034,-0.999983740894901,0.));
#1254=DIRECTION('',(-0.703063042588821,0.711127525937332,0.));
#1255=DIRECTION('',(0.711127525937332,0.703063042588821,0.));
#1256=DIRECTION('',(0.711127525937331,0.703063042588821,0.));
#1257=DIRECTION('',(-0.703063042588821,0.711127525937331,0.));
#1258=DIRECTION('',(-0.703063042588821,0.711127525937331,0.));
#1259=DIRECTION('',(0.,0.,1.));
#1260=DIRECTION('',(-0.00570245086250334,-0.999983740894901,0.));
#1261=DIRECTION('',(0.711127525937331,0.703063042588822,0.));
#1262=DIRECTION('',(0.703063042588822,-0.711127525937331,0.));
#1263=DIRECTION('',(-0.703063042588821,0.711127525937332,0.));
#1264=DIRECTION('',(-0.711127525937332,-0.703063042588821,0.));
#1265=DIRECTION('',(-0.711127525937332,-0.703063042588821,0.));
#1266=DIRECTION('',(0.,0.,1.));
#1267=DIRECTION('',(-0.0057024508625034,-0.999983740894901,0.));
#1268=DIRECTION('',(-0.703063042588823,0.711127525937329,0.));
#1269=DIRECTION('',(0.711127525937329,0.703063042588823,0.));
#1270=DIRECTION('',(0.,0.,1.));
#1271=DIRECTION('',(-0.005702450862496,-0.999983740894901,0.));
#1272=DIRECTION('',(0.703063042588821,-0.711127525937331,0.));
#1273=DIRECTION('',(-0.711127525937331,-0.703063042588821,0.));
#1274=DIRECTION('',(0.,0.,1.));
#1275=DIRECTION('',(-0.0057024508625034,-0.999983740894901,0.));
#1276=DIRECTION('',(0.711127525937331,0.703063042588822,0.));
#1277=DIRECTION('',(0.703063042588822,-0.711127525937331,0.));
#1278=DIRECTION('',(0.,0.,-1.));
#1279=DIRECTION('',(0.00570245086249815,0.999983740894901,0.));
#1280=DIRECTION('',(0.703063042588821,-0.711127525937332,0.));
#1281=DIRECTION('',(0.711127525937332,0.703063042588821,0.));
#1282=DIRECTION('',(-0.711127525937332,-0.70306304258882,0.));
#1283=DIRECTION('',(0.70306304258882,-0.711127525937332,0.));
#1284=DIRECTION('',(-0.703063042588821,0.711127525937331,0.));
#1285=DIRECTION('',(-0.711127525937331,-0.703063042588821,0.));
#1286=DIRECTION('',(0.711127525937332,0.703063042588821,0.));
#1287=DIRECTION('',(-0.703063042588821,0.711127525937332,0.));
#1288=CARTESIAN_POINT('',(0.,0.,0.));
#1289=CARTESIAN_POINT('',(0.013074576668837,0.00162303821074731,0.0295));
#1290=CARTESIAN_POINT('',(-0.00251355930340265,-0.0137883217847549,0.0295));
#1291=CARTESIAN_POINT('',(-0.00250643123982453,-0.0125383421086363,0.0295));
#1292=CARTESIAN_POINT('',(0.0284859366643393,-0.0139650977614924,0.0295));
#1293=CARTESIAN_POINT('',(0.0284930647279174,-0.0127151180853738,0.0295));
#1294=CARTESIAN_POINT('',(0.0286627126410768,0.0170343982062495,0.0295));
#1295=CARTESIAN_POINT('',(0.0286698407046549,0.0182843778823682,0.0295));
#1296=CARTESIAN_POINT('',(-0.00233678332666521,0.017211174182987,0.0295));
#1297=CARTESIAN_POINT('',(-0.00232965526308709,0.0184611538591056,0.0295));
#1298=CARTESIAN_POINT('',(-0.00792508188995588,0.00174278967885977,0.0295));
#1299=CARTESIAN_POINT('',(-0.00784159208896144,0.0163835898432337,0.0295));
#1300=CARTESIAN_POINT('',(-0.00800857169095033,-0.0128980104855141,0.0295));
#1301=CARTESIAN_POINT('',(0.013074576668837,0.0016230382107473,0.0295));
#1302=CARTESIAN_POINT('',(-0.00168597496364929,-0.0192931305470512,0.0295));
#1303=CARTESIAN_POINT('',(0.0129548252007246,-0.0193766203480457,0.0295));
#1304=CARTESIAN_POINT('',(0.0275956253650985,-0.0194601101490401,0.0295));
#1305=CARTESIAN_POINT('',(0.013074576668837,0.0016230382107473,0.0295));
#1306=CARTESIAN_POINT('',(0.0339907454266355,-0.013137513421739,0.0295));
#1307=CARTESIAN_POINT('',(0.03407423522763,0.00150328674263485,0.0295));
#1308=CARTESIAN_POINT('',(0.0341577250286244,0.0161440869070087,0.0295));
#1309=CARTESIAN_POINT('',(0.013074576668837,0.0016230382107473,0.0295));
#1310=CARTESIAN_POINT('',(0.0278351283013234,0.0225392069685458,0.0295));
#1311=CARTESIAN_POINT('',(0.0131943281369495,0.0226226967695402,0.0295));
#1312=CARTESIAN_POINT('',(-0.00144647202742439,0.0227061865705347,0.0295));
#1313=CARTESIAN_POINT('',(0.013074576668837,0.0016230382107473,0.0295));
#1314=CARTESIAN_POINT('',(0.013074576668837,0.0016230382107473,0.0295));
#1315=CARTESIAN_POINT('',(0.0130289570619371,-0.00637683171641191,0.0295));
#1316=CARTESIAN_POINT('',(-0.00251355930340265,-0.0137883217847549,0.0295));
#1317=CARTESIAN_POINT('',(-0.00251355930340265,-0.0137883217847549,0.0235));
#1318=CARTESIAN_POINT('',(-0.00250643123982453,-0.0125383421086363,0.0235));
#1319=CARTESIAN_POINT('',(0.0284859366643393,-0.0139650977614924,0.0295));
#1320=CARTESIAN_POINT('',(0.0284859366643393,-0.0139650977614924,0.0235));
#1321=CARTESIAN_POINT('',(0.0284930647279174,-0.0127151180853738,0.0235));
#1322=CARTESIAN_POINT('',(0.0286627126410768,0.0170343982062495,0.0295));
#1323=CARTESIAN_POINT('',(0.0286627126410768,0.0170343982062495,0.0235));
#1324=CARTESIAN_POINT('',(0.0286698407046549,0.0182843778823682,0.0235));
#1325=CARTESIAN_POINT('',(-0.00233678332666521,0.017211174182987,0.0295));
#1326=CARTESIAN_POINT('',(-0.00233678332666521,0.017211174182987,0.0235));
#1327=CARTESIAN_POINT('',(-0.00232965526308709,0.0184611538591056,0.0235));
#1328=CARTESIAN_POINT('',(0.013074576668837,0.0016230382107473,0.033));
#1329=CARTESIAN_POINT('',(-0.00800857169095032,-0.0128980104855141,0.033));
#1330=CARTESIAN_POINT('',(-0.00800857169095033,-0.0128980104855141,0.033));
#1331=CARTESIAN_POINT('',(0.013074576668837,0.0016230382107473,0.033));
#1332=CARTESIAN_POINT('',(-0.00168597496364929,-0.0192931305470512,0.033));
#1333=CARTESIAN_POINT('',(-0.00168597496364929,-0.0192931305470512,0.033));
#1334=CARTESIAN_POINT('',(-0.00792508188995588,0.00174278967885977,0.0295));
#1335=CARTESIAN_POINT('',(-0.00784159208896144,0.0163835898432337,0.0295));
#1336=CARTESIAN_POINT('',(-0.00784159208896144,0.0163835898432337,0.033));
#1337=CARTESIAN_POINT('',(-0.00792508188995588,0.00174278967885977,0.033));
#1338=CARTESIAN_POINT('',(-0.00783172380009294,0.0181140963669896,0.033));
#1339=CARTESIAN_POINT('',(-0.00783172380009294,0.0181140963669896,0.0295));
#1340=CARTESIAN_POINT('',(-0.00783172380009295,0.0181140963669896,0.0215));
#1341=CARTESIAN_POINT('',(-0.00792508188995588,0.00174278967885977,0.0215));
#1342=CARTESIAN_POINT('',(-0.00801843997981883,-0.01462851700927,0.0215));
#1343=CARTESIAN_POINT('',(-0.00801843997981883,-0.01462851700927,0.0295));
#1344=CARTESIAN_POINT('',(-0.00801843997981883,-0.01462851700927,0.033));
#1345=CARTESIAN_POINT('',(-0.00792508188995588,0.00174278967885977,0.033));
#1346=CARTESIAN_POINT('',(0.013074576668837,0.0016230382107473,0.033));
#1347=CARTESIAN_POINT('',(-0.0014464720274244,0.0227061865705347,0.033));
#1348=CARTESIAN_POINT('',(-0.00144647202742439,0.0227061865705347,0.033));
#1349=CARTESIAN_POINT('',(0.013074576668837,0.0016230382107473,0.033));
#1350=CARTESIAN_POINT('',(0.0131943281369495,0.0226226967695402,0.0295));
#1351=CARTESIAN_POINT('',(0.0278351283013234,0.0225392069685458,0.0295));
#1352=CARTESIAN_POINT('',(0.0278351283013234,0.0225392069685458,0.033));
#1353=CARTESIAN_POINT('',(0.0131943281369495,0.0226226967695402,0.033));
#1354=CARTESIAN_POINT('',(0.0295656348250793,0.0225293386796773,0.033));
#1355=CARTESIAN_POINT('',(0.0295656348250793,0.0225293386796773,0.0295));
#1356=CARTESIAN_POINT('',(0.0295656348250793,0.0225293386796773,0.0215));
#1357=CARTESIAN_POINT('',(0.0131943281369495,0.0226226967695402,0.0215));
#1358=CARTESIAN_POINT('',(-0.00317697855118029,0.0227160548594032,0.0215));
#1359=CARTESIAN_POINT('',(-0.00317697855118029,0.0227160548594032,0.0295));
#1360=CARTESIAN_POINT('',(-0.00317697855118029,0.0227160548594032,0.033));
#1361=CARTESIAN_POINT('',(0.0131943281369495,0.0226226967695402,0.033));
#1362=CARTESIAN_POINT('',(0.013074576668837,0.0016230382107473,0.033));
#1363=CARTESIAN_POINT('',(0.0341577250286244,0.0161440869070087,0.033));
#1364=CARTESIAN_POINT('',(0.0341577250286244,0.0161440869070087,0.033));
#1365=CARTESIAN_POINT('',(0.013074576668837,0.0016230382107473,0.033));
#1366=CARTESIAN_POINT('',(0.03407423522763,0.00150328674263485,0.0295));
#1367=CARTESIAN_POINT('',(0.03407423522763,0.00150328674263485,0.0215));
#1368=CARTESIAN_POINT('',(0.0341675933174929,0.0178745934307646,0.0215));
#1369=CARTESIAN_POINT('',(0.0339808771377671,-0.0148680199454949,0.0215));
#1370=CARTESIAN_POINT('',(0.0341675933174929,0.0178745934307646,0.0295));
#1371=CARTESIAN_POINT('',(0.0341675933174929,0.0178745934307646,0.033));
#1372=CARTESIAN_POINT('',(0.03407423522763,0.00150328674263485,0.033));
#1373=CARTESIAN_POINT('',(0.0339907454266355,-0.013137513421739,0.0295));
#1374=CARTESIAN_POINT('',(0.0339907454266355,-0.013137513421739,0.033));
#1375=CARTESIAN_POINT('',(0.03407423522763,0.00150328674263485,0.033));
#1376=CARTESIAN_POINT('',(0.0339808771377671,-0.0148680199454949,0.033));
#1377=CARTESIAN_POINT('',(0.0339808771377671,-0.0148680199454949,0.0295));
#1378=CARTESIAN_POINT('',(0.013074576668837,0.0016230382107473,0.033));
#1379=CARTESIAN_POINT('',(0.0275956253650985,-0.0194601101490401,0.033));
#1380=CARTESIAN_POINT('',(0.0275956253650985,-0.0194601101490401,0.033));
#1381=CARTESIAN_POINT('',(0.013074576668837,0.0016230382107473,0.033));
#1382=CARTESIAN_POINT('',(0.0129548252007246,-0.0193766203480457,0.0295));
#1383=CARTESIAN_POINT('',(0.0129548252007246,-0.0193766203480457,0.0215));
#1384=CARTESIAN_POINT('',(0.0293261318888544,-0.0194699784379085,0.0215));
#1385=CARTESIAN_POINT('',(-0.00341648148740521,-0.0192832622581827,0.0215));
#1386=CARTESIAN_POINT('',(0.0293261318888544,-0.0194699784379085,0.0295));
#1387=CARTESIAN_POINT('',(0.0293261318888544,-0.0194699784379085,0.033));
#1388=CARTESIAN_POINT('',(0.0129548252007246,-0.0193766203480457,0.033));
#1389=CARTESIAN_POINT('',(0.0129548252007246,-0.0193766203480457,0.033));
#1390=CARTESIAN_POINT('',(-0.00341648148740521,-0.0192832622581827,0.033));
#1391=CARTESIAN_POINT('',(-0.00341648148740521,-0.0192832622581827,0.0295));
#1392=CARTESIAN_POINT('',(0.013074576668837,0.0016230382107473,0.0235));
#1393=CARTESIAN_POINT('',(0.013074576668837,0.0016230382107473,0.0235));
#1394=CARTESIAN_POINT('',(0.0130289570619371,-0.00637683171641191,0.0235));
#1395=CARTESIAN_POINT('',(-0.00251355930340265,-0.0137883217847549,0.0209999999999432));
#1396=CARTESIAN_POINT('',(-0.00251355930340265,-0.0137883217847549,0.0209999999999432));
#1397=CARTESIAN_POINT('',(-0.00249217511266799,-0.0100383827563486,0.0209999999999432));
#1398=CARTESIAN_POINT('',(0.0284859366643393,-0.0139650977614924,0.0210000000001137));
#1399=CARTESIAN_POINT('',(0.0284859366643393,-0.0139650977614924,0.0210000000000569));
#1400=CARTESIAN_POINT('',(0.0285073208550736,-0.0102151587331429,0.0210000000000569));
#1401=CARTESIAN_POINT('',(0.0286627126410768,0.0170343982062495,0.021));
#1402=CARTESIAN_POINT('',(0.0286627126410768,0.0170343982062495,0.021));
#1403=CARTESIAN_POINT('',(0.0286840968318114,0.0207843372346618,0.021));
#1404=CARTESIAN_POINT('',(-0.00233678332666521,0.017211174182987,0.021));
#1405=CARTESIAN_POINT('',(-0.00233678332666521,0.017211174182987,0.021));
#1406=CARTESIAN_POINT('',(-0.00231539913593084,0.0209611132113424,0.021));
#1407=CARTESIAN_POINT('',(0.013074576668837,0.00162303821074731,0.033));
#1408=CARTESIAN_POINT('',(-0.00601847249802903,-0.014639921910995,0.033));
#1409=CARTESIAN_POINT('',(-0.00744072754990369,-0.0160460479961726,0.033));
#1410=CARTESIAN_POINT('',(-0.00744072754990369,-0.0160460479961726,0.033));
#1411=CARTESIAN_POINT('',(-0.00482733163755488,-0.0186894208615705,0.033));
#1412=CARTESIAN_POINT('',(-0.00340507658568021,-0.0172832947763929,0.033));
#1413=CARTESIAN_POINT('',(-0.00601847249802903,-0.014639921910995,0.033));
#1414=CARTESIAN_POINT('',(-0.00744072754990369,-0.0160460479961726,0.033));
#1415=CARTESIAN_POINT('',(-0.00744072754990369,-0.0160460479961726,0.0215));
#1416=CARTESIAN_POINT('',(-0.00601847249802903,-0.014639921910995,0.0215));
#1417=CARTESIAN_POINT('',(-0.00742509001950843,0.00173993845342852,0.0215));
#1418=CARTESIAN_POINT('',(-0.00751844810937137,-0.0146313682347013,0.0215));
#1419=CARTESIAN_POINT('',(-0.00751844810937138,-0.0146313682347013,0.021));
#1420=CARTESIAN_POINT('',(-0.00733173192964549,0.0181112451415583,0.0215));
#1421=CARTESIAN_POINT('',(-0.00733173192964549,0.0181112451415583,0.021));
#1422=CARTESIAN_POINT('',(-0.00742509001950844,0.00173993845342852,0.021));
#1423=CARTESIAN_POINT('',(-0.00583175631830314,0.0181026914652645,0.0295));
#1424=CARTESIAN_POINT('',(-0.00583175631830314,0.0181026914652645,0.033));
#1425=CARTESIAN_POINT('',(-0.00723788240348078,0.0195249465171392,0.033));
#1426=CARTESIAN_POINT('',(-0.00723788240348078,0.0195249465171392,0.0295));
#1427=CARTESIAN_POINT('',(-0.00723788240348077,0.0195249465171392,0.0215));
#1428=CARTESIAN_POINT('',(-0.00583175631830314,0.0181026914652645,0.0215));
#1429=CARTESIAN_POINT('',(0.013074576668837,0.00162303821074731,0.033));
#1430=CARTESIAN_POINT('',(-0.00318838345290529,0.0207160873776134,0.033));
#1431=CARTESIAN_POINT('',(-0.00459450953808293,0.0221383424294881,0.033));
#1432=CARTESIAN_POINT('',(-0.00459450953808293,0.0221383424294881,0.033));
#1433=CARTESIAN_POINT('',(-0.00318838345290529,0.0207160873776134,0.033));
#1434=CARTESIAN_POINT('',(-0.00459450953808293,0.0221383424294881,0.033));
#1435=CARTESIAN_POINT('',(-0.00459450953808293,0.0221383424294881,0.0215));
#1436=CARTESIAN_POINT('',(-0.00318838345290529,0.0207160873776134,0.0215));
#1437=CARTESIAN_POINT('',(0.0131914769115183,0.0221227048990928,0.0215));
#1438=CARTESIAN_POINT('',(-0.00317982977661154,0.0222160629889557,0.0215));
#1439=CARTESIAN_POINT('',(-0.00317982977661154,0.0222160629889557,0.021));
#1440=CARTESIAN_POINT('',(0.029562783599648,0.0220293468092298,0.0215));
#1441=CARTESIAN_POINT('',(0.029562783599648,0.0220293468092298,0.021));
#1442=CARTESIAN_POINT('',(0.0131914769115183,0.0221227048990928,0.021));
#1443=CARTESIAN_POINT('',(0.0295542299233543,0.0205293711978875,0.0295));
#1444=CARTESIAN_POINT('',(0.0295542299233543,0.0205293711978875,0.033));
#1445=CARTESIAN_POINT('',(0.030976484975229,0.0219354972830651,0.033));
#1446=CARTESIAN_POINT('',(0.030976484975229,0.0219354972830651,0.0295));
#1447=CARTESIAN_POINT('',(0.030976484975229,0.0219354972830651,0.0215));
#1448=CARTESIAN_POINT('',(0.0295542299233543,0.0205293711978875,0.0215));
#1449=CARTESIAN_POINT('',(0.013074576668837,0.00162303821074731,0.033));
#1450=CARTESIAN_POINT('',(0.0321676258357031,0.0178859983324897,0.033));
#1451=CARTESIAN_POINT('',(0.0335898808875778,0.0192921244176673,0.033));
#1452=CARTESIAN_POINT('',(0.0335898808875778,0.0192921244176673,0.033));
#1453=CARTESIAN_POINT('',(0.0319809096559773,-0.0148566150437699,0.0295));
#1454=CARTESIAN_POINT('',(0.0319809096559773,-0.0148566150437699,0.033));
#1455=CARTESIAN_POINT('',(0.0333870357411548,-0.0162788700956446,0.033));
#1456=CARTESIAN_POINT('',(0.0333870357411548,-0.0162788700956446,0.0295));
#1457=CARTESIAN_POINT('',(0.0333870357411548,-0.0162788700956446,0.0215));
#1458=CARTESIAN_POINT('',(0.0319809096559773,-0.0148566150437699,0.0215));
#1459=CARTESIAN_POINT('',(0.0335742433571826,0.0015061379680661,0.0215));
#1460=CARTESIAN_POINT('',(0.0334808852673196,-0.0148651687200637,0.0215));
#1461=CARTESIAN_POINT('',(0.0334808852673196,-0.0148651687200637,0.021));
#1462=CARTESIAN_POINT('',(0.0335742433571826,0.0015061379680661,0.021));
#1463=CARTESIAN_POINT('',(0.0336676014470454,0.0178774446561959,0.021));
#1464=CARTESIAN_POINT('',(0.0336676014470454,0.0178774446561959,0.0215));
#1465=CARTESIAN_POINT('',(0.0321676258357031,0.0178859983324897,0.033));
#1466=CARTESIAN_POINT('',(0.0335898808875778,0.0192921244176673,0.033));
#1467=CARTESIAN_POINT('',(0.0335898808875778,0.0192921244176673,0.0215));
#1468=CARTESIAN_POINT('',(0.0321676258357031,0.0178859983324897,0.0215));
#1469=CARTESIAN_POINT('',(0.013074576668837,0.00162303821074731,0.033));
#1470=CARTESIAN_POINT('',(0.0293375367905794,-0.0174700109561188,0.033));
#1471=CARTESIAN_POINT('',(0.030743662875757,-0.0188922660079935,0.033));
#1472=CARTESIAN_POINT('',(0.030743662875757,-0.0188922660079934,0.033));
#1473=CARTESIAN_POINT('',(-0.00340507658568021,-0.0172832947763929,0.0295));
#1474=CARTESIAN_POINT('',(-0.00482733163755488,-0.0186894208615705,0.0295));
#1475=CARTESIAN_POINT('',(-0.00482733163755488,-0.0186894208615705,0.0215));
#1476=CARTESIAN_POINT('',(-0.00340507658568021,-0.0172832947763929,0.0215));
#1477=CARTESIAN_POINT('',(0.0129576764261558,-0.0188766284775982,0.0215));
#1478=CARTESIAN_POINT('',(-0.00341363026197396,-0.0187832703877353,0.0215));
#1479=CARTESIAN_POINT('',(-0.00341363026197396,-0.0187832703877353,0.021));
#1480=CARTESIAN_POINT('',(0.0129576764261558,-0.0188766284775982,0.021));
#1481=CARTESIAN_POINT('',(0.0293289831142856,-0.0189699865674611,0.021));
#1482=CARTESIAN_POINT('',(0.0293289831142856,-0.0189699865674611,0.0215));
#1483=CARTESIAN_POINT('',(0.0293375367905794,-0.0174700109561188,0.033));
#1484=CARTESIAN_POINT('',(0.030743662875757,-0.0188922660079935,0.033));
#1485=CARTESIAN_POINT('',(0.030743662875757,-0.0188922660079935,0.0215));
#1486=CARTESIAN_POINT('',(0.0293375367905794,-0.0174700109561188,0.0215));
#1487=CARTESIAN_POINT('',(0.013074576668837,0.0016230382107473,0.0235));
#1488=CARTESIAN_POINT('',(0.013074576668837,0.0016230382107473,0.0235));
#1489=CARTESIAN_POINT('',(0.0131002376977183,0.00612296504477435,0.0235));
#1490=CARTESIAN_POINT('',(0.013074576668837,0.00162303821074731,0.021));
#1491=CARTESIAN_POINT('',(0.013074576668837,0.0016230382107473,0.021));
#1492=CARTESIAN_POINT('',(0.0131002376977183,0.00612296504477435,0.021));
#1493=CARTESIAN_POINT('',(-0.00447176787458624,-0.0183378893402761,0.021));
#1494=CARTESIAN_POINT('',(-0.00419232961138089,-0.0186205328995702,0.021));
#1495=CARTESIAN_POINT('',(-0.00381181430418823,-0.0187809997258813,0.021));
#1496=CARTESIAN_POINT('',(-0.00341363026197396,-0.0187832703877352,0.021));
#1497=CARTESIAN_POINT('',(-0.00447176787458621,-0.0183378893402761,0.021));
#1498=CARTESIAN_POINT('',(-0.00708516378693502,-0.0156945164748782,0.021));
#1499=CARTESIAN_POINT('',(-0.00708516378693502,-0.0156945164748782,0.021));
#1500=CARTESIAN_POINT('',(-0.00751844810937138,-0.0146313682347013,0.021));
#1501=CARTESIAN_POINT('',(-0.00752071459597148,-0.0150288201029786,0.021));
#1502=CARTESIAN_POINT('',(-0.00736511682294598,-0.015411352238078,0.021));
#1503=CARTESIAN_POINT('',(-0.00708516378693505,-0.0156945164748783,0.021));
#1504=CARTESIAN_POINT('',(-0.0068863508821864,0.0191693827541706,0.021));
#1505=CARTESIAN_POINT('',(-0.00716899444148364,0.0188899444909621,0.021));
#1506=CARTESIAN_POINT('',(-0.00732946126779163,0.0185094291837682,0.021));
#1507=CARTESIAN_POINT('',(-0.00733173192964549,0.0181112451415583,0.021));
#1508=CARTESIAN_POINT('',(-0.00688635088218637,0.0191693827541705,0.021));
#1509=CARTESIAN_POINT('',(-0.00424297801678852,0.0217827786665193,0.021));
#1510=CARTESIAN_POINT('',(-0.00424297801678852,0.0217827786665193,0.021));
#1511=CARTESIAN_POINT('',(-0.00317982977661154,0.0222160629889557,0.021));
#1512=CARTESIAN_POINT('',(-0.00357728164488756,0.0222183294755558,0.021));
#1513=CARTESIAN_POINT('',(-0.00395981377998739,0.0220627317025312,0.021));
#1514=CARTESIAN_POINT('',(-0.00424297801678854,0.0217827786665193,0.021));
#1515=CARTESIAN_POINT('',(0.0306209212122603,0.0215839657617707,0.021));
#1516=CARTESIAN_POINT('',(0.0303414829490527,0.0218666093210671,0.021));
#1517=CARTESIAN_POINT('',(0.0299609676418592,0.022027076147376,0.021));
#1518=CARTESIAN_POINT('',(0.029562783599648,0.0220293468092298,0.021));
#1519=CARTESIAN_POINT('',(0.0306209212122603,0.0215839657617707,0.021));
#1520=CARTESIAN_POINT('',(0.0332343171246091,0.0189405928963729,0.021));
#1521=CARTESIAN_POINT('',(0.0332343171246091,0.0189405928963729,0.021));
#1522=CARTESIAN_POINT('',(0.0336676014470455,0.0178774446561959,0.021));
#1523=CARTESIAN_POINT('',(0.0336698679336455,0.0182748965244706,0.021));
#1524=CARTESIAN_POINT('',(0.0335142701606218,0.0186574286595708,0.021));
#1525=CARTESIAN_POINT('',(0.0332343171246091,0.0189405928963729,0.021));
#1526=CARTESIAN_POINT('',(0.0330355042198605,-0.015923306332676,0.021));
#1527=CARTESIAN_POINT('',(0.0333181477791587,-0.0156438680694666,0.021));
#1528=CARTESIAN_POINT('',(0.0334786146054657,-0.0152633527622722,0.021));
#1529=CARTESIAN_POINT('',(0.0334808852673196,-0.0148651687200637,0.021));
#1530=CARTESIAN_POINT('',(0.0330355042198604,-0.015923306332676,0.021));
#1531=CARTESIAN_POINT('',(0.0303921313544626,-0.0185367022450248,0.021));
#1532=CARTESIAN_POINT('',(0.0303921313544626,-0.0185367022450248,0.021));
#1533=CARTESIAN_POINT('',(0.0293289831142856,-0.0189699865674611,0.021));
#1534=CARTESIAN_POINT('',(0.0297264349825648,-0.0189722530540612,0.021));
#1535=CARTESIAN_POINT('',(0.0301089671176637,-0.0188166552810344,0.021));
#1536=CARTESIAN_POINT('',(0.0303921313544626,-0.0185367022450248,0.021));
#1537=CARTESIAN_POINT('',(-0.00613402959372928,-0.0173677344288716,0.033));
#1538=CARTESIAN_POINT('',(-0.00613402959372928,-0.0173677344288716,0.0215));
#1539=CARTESIAN_POINT('',(-0.00601847249802903,-0.014639921910995,0.0215));
#1540=CARTESIAN_POINT('',(-0.00708516378693502,-0.0156945164748782,0.0215));
#1541=CARTESIAN_POINT('',(-0.00583175631830314,0.0181026914652645,0.0215));
#1542=CARTESIAN_POINT('',(-0.00688635088218637,0.0191693827541705,0.0215));
#1543=CARTESIAN_POINT('',(-0.00591619597078185,0.0208316444733137,0.033));
#1544=CARTESIAN_POINT('',(-0.00591619597078185,0.0208316444733137,0.0215));
#1545=CARTESIAN_POINT('',(-0.00318838345290529,0.0207160873776134,0.0215));
#1546=CARTESIAN_POINT('',(-0.00424297801678852,0.0217827786665193,0.0215));
#1547=CARTESIAN_POINT('',(0.0295542299233543,0.0205293711978875,0.0215));
#1548=CARTESIAN_POINT('',(0.0306209212122603,0.0215839657617707,0.0215));
#1549=CARTESIAN_POINT('',(0.0322831829314034,0.0206138108503662,0.033));
#1550=CARTESIAN_POINT('',(0.0322831829314034,0.0206138108503662,0.0215));
#1551=CARTESIAN_POINT('',(0.0319809096559773,-0.0148566150437699,0.0215));
#1552=CARTESIAN_POINT('',(0.0330355042198604,-0.015923306332676,0.0215));
#1553=CARTESIAN_POINT('',(0.0320653493084559,-0.017585568051819,0.033));
#1554=CARTESIAN_POINT('',(0.0320653493084559,-0.017585568051819,0.0215));
#1555=CARTESIAN_POINT('',(0.0321676258357031,0.0178859983324897,0.0215));
#1556=CARTESIAN_POINT('',(0.0332343171246091,0.0189405928963729,0.0215));
#1557=CARTESIAN_POINT('',(-0.00340507658568021,-0.0172832947763929,0.0215));
#1558=CARTESIAN_POINT('',(-0.00447176787458621,-0.0183378893402761,0.0215));
#1559=CARTESIAN_POINT('',(0.0293375367905794,-0.0174700109561188,0.0215));
#1560=CARTESIAN_POINT('',(0.0303921313544626,-0.0185367022450248,0.0215));
#1561=CARTESIAN_POINT('',(0.013074576668837,0.0016230382107473,0.0295));
#1562=CARTESIAN_POINT('',(-0.00577846583076062,-0.0170162029075772,0.0215));
#1563=CARTESIAN_POINT('',(-0.00556466444948744,0.020476080710345,0.0215));
#1564=CARTESIAN_POINT('',(0.0319276191684347,0.0202622793290718,0.0215));
#1565=CARTESIAN_POINT('',(0.0317138177871615,-0.0172300042888504,0.0215));
#1566=MECHANICAL_DESIGN_GEOMETRIC_PRESENTATION_REPRESENTATION('',(#891),
#1567);
#1567=(
GEOMETRIC_REPRESENTATION_CONTEXT(3)
GLOBAL_UNCERTAINTY_ASSIGNED_CONTEXT((#1568))
GLOBAL_UNIT_ASSIGNED_CONTEXT((#1571,#1570,#1569))
REPRESENTATION_CONTEXT('Part 89','TOP_LEVEL_ASSEMBLY_PART')
);
#1568=UNCERTAINTY_MEASURE_WITH_UNIT(LENGTH_MEASURE(2.E-5),#1571,
'DISTANCE_ACCURACY_VALUE','Maximum Tolerance applied to model');
#1569=(
NAMED_UNIT(*)
SI_UNIT($,.STERADIAN.)
SOLID_ANGLE_UNIT()
);
#1570=(
NAMED_UNIT(*)
PLANE_ANGLE_UNIT()
SI_UNIT($,.RADIAN.)
);
#1571=(
LENGTH_UNIT()
NAMED_UNIT(*)
SI_UNIT($,.METRE.)
);
#1572=PRODUCT_DEFINITION_SHAPE('','',#1573);
#1573=PRODUCT_DEFINITION('','',#1575,#1574);
#1574=PRODUCT_DEFINITION_CONTEXT('',#1581,'design');
#1575=PRODUCT_DEFINITION_FORMATION_WITH_SPECIFIED_SOURCE('','',#1577,
 .NOT_KNOWN.);
#1576=PRODUCT_RELATED_PRODUCT_CATEGORY('','',(#1577));
#1577=PRODUCT('Part 89','Part 89','Part 89',(#1579));
#1578=PRODUCT_CATEGORY('','');
#1579=PRODUCT_CONTEXT('',#1581,'mechanical');
#1580=APPLICATION_PROTOCOL_DEFINITION('international standard',
'automotive_design',2010,#1581);
#1581=APPLICATION_CONTEXT(
'core data for automotive mechanical design processes');
ENDSEC;
END-ISO-10303-21;
