ISO-10303-21;
HEADER;
/* Generated by software containing ST-Developer
 * from STEP Tools, Inc. (www.steptools.com) 
 */
/* OPTION: using custom renumber hook */

FILE_DESCRIPTION(
/* description */ ('STEP AP214',
'CAx-IF Rec.Pracs.---User Defined Attributes---1.5---2016-08-15'),
/* implementation_level */ '2;1');

FILE_NAME(
/* name */ '6a65b58b833ca6ec4e163c85',
/* time_stamp */ '2026-07-26T07:21:47Z',
/* author */ (''),
/* organization */ (''),
/* preprocessor_version */ 'ST-DEVELOPER v20',
/* originating_system */ 'ONSHAPE BY PTC INC, 1.218',
/* authorisation */ '  ');

FILE_SCHEMA (('AUTOMOTIVE_DESIGN {1 0 10303 214 3 1 1}'));
ENDSEC;

DATA;
#10=PROPERTY_DEFINITION_REPRESENTATION(#14,#12);
#11=PROPERTY_DEFINITION_REPRESENTATION(#15,#13);
#12=REPRESENTATION('',(#16),#188);
#13=REPRESENTATION('',(#17),#188);
#14=PROPERTY_DEFINITION('pmi validation property','',#193);
#15=PROPERTY_DEFINITION('pmi validation property','',#193);
#16=VALUE_REPRESENTATION_ITEM('number of annotations',COUNT_MEASURE(0.));
#17=VALUE_REPRESENTATION_ITEM('number of views',COUNT_MEASURE(0.));
#18=SHAPE_REPRESENTATION_RELATIONSHIP('','',#113,#19);
#19=ADVANCED_BREP_SHAPE_REPRESENTATION('',(#111),#188);
#20=CONICAL_SURFACE('',#120,0.00249999999994089,0.785398163397448);
#21=CONICAL_SURFACE('',#122,0.00249999999994089,0.785398163397448);
#22=B_SPLINE_CURVE_WITH_KNOTS('',3,(#169,#170,#171,#172),.UNSPECIFIED.,
 .F.,.F.,(4,4),(5.89219034761838E-16,0.00159455054341736),.UNSPECIFIED.);
#23=B_SPLINE_CURVE_WITH_KNOTS('',3,(#175,#176,#177,#178),.UNSPECIFIED.,
 .F.,.F.,(4,4),(8.17994613826185E-16,0.00159228402372901),.UNSPECIFIED.);
#24=PLANE('',#119);
#25=PLANE('',#124);
#26=PLANE('',#125);
#27=PLANE('',#126);
#28=LINE('',#163,#31);
#29=LINE('',#167,#32);
#30=LINE('',#174,#33);
#31=VECTOR('',#135,1.);
#32=VECTOR('',#138,1.);
#33=VECTOR('',#141,1.);
#34=ORIENTED_EDGE('',*,*,#54,.T.);
#35=ORIENTED_EDGE('',*,*,#55,.T.);
#36=ORIENTED_EDGE('',*,*,#56,.T.);
#37=ORIENTED_EDGE('',*,*,#57,.T.);
#38=ORIENTED_EDGE('',*,*,#58,.T.);
#39=ORIENTED_EDGE('',*,*,#59,.F.);
#40=ORIENTED_EDGE('',*,*,#56,.F.);
#41=ORIENTED_EDGE('',*,*,#60,.F.);
#42=ORIENTED_EDGE('',*,*,#58,.F.);
#43=ORIENTED_EDGE('',*,*,#61,.F.);
#44=ORIENTED_EDGE('',*,*,#54,.F.);
#45=ORIENTED_EDGE('',*,*,#62,.T.);
#46=ORIENTED_EDGE('',*,*,#57,.F.);
#47=ORIENTED_EDGE('',*,*,#59,.T.);
#48=ORIENTED_EDGE('',*,*,#63,.T.);
#49=ORIENTED_EDGE('',*,*,#61,.T.);
#50=ORIENTED_EDGE('',*,*,#55,.F.);
#51=ORIENTED_EDGE('',*,*,#60,.T.);
#52=ORIENTED_EDGE('',*,*,#62,.F.);
#53=ORIENTED_EDGE('',*,*,#63,.F.);
#54=EDGE_CURVE('',#64,#64,#71,.F.);
#55=EDGE_CURVE('',#65,#66,#72,.T.);
#56=EDGE_CURVE('',#66,#67,#28,.F.);
#57=EDGE_CURVE('',#67,#68,#73,.T.);
#58=EDGE_CURVE('',#68,#65,#29,.F.);
#59=EDGE_CURVE('',#67,#69,#22,.T.);
#60=EDGE_CURVE('',#65,#66,#30,.T.);
#61=EDGE_CURVE('',#69,#68,#23,.T.);
#62=EDGE_CURVE('',#70,#70,#74,.T.);
#63=EDGE_CURVE('',#69,#69,#75,.T.);
#64=VERTEX_POINT('',#159);
#65=VERTEX_POINT('',#161);
#66=VERTEX_POINT('',#162);
#67=VERTEX_POINT('',#164);
#68=VERTEX_POINT('',#166);
#69=VERTEX_POINT('',#173);
#70=VERTEX_POINT('',#181);
#71=CIRCLE('',#116,0.0025);
#72=CIRCLE('',#117,0.0025);
#73=CIRCLE('',#118,0.0025);
#74=CIRCLE('',#121,0.00200000000000955);
#75=CIRCLE('',#123,0.00200000000000955);
#76=EDGE_LOOP('',(#34));
#77=EDGE_LOOP('',(#35,#36,#37,#38));
#78=EDGE_LOOP('',(#39,#40,#41,#42,#43));
#79=EDGE_LOOP('',(#44));
#80=EDGE_LOOP('',(#45));
#81=EDGE_LOOP('',(#46,#47,#48,#49));
#82=EDGE_LOOP('',(#50,#51));
#83=EDGE_LOOP('',(#52));
#84=EDGE_LOOP('',(#53));
#85=FACE_BOUND('',#76,.T.);
#86=FACE_BOUND('',#77,.T.);
#87=FACE_BOUND('',#78,.T.);
#88=FACE_BOUND('',#79,.T.);
#89=FACE_BOUND('',#80,.T.);
#90=FACE_BOUND('',#81,.T.);
#91=FACE_BOUND('',#82,.T.);
#92=FACE_BOUND('',#83,.T.);
#93=FACE_BOUND('',#84,.T.);
#94=CYLINDRICAL_SURFACE('',#115,0.0025);
#95=ADVANCED_FACE('',(#85,#86),#94,.T.);
#96=ADVANCED_FACE('',(#87),#24,.F.);
#97=ADVANCED_FACE('',(#88,#89),#20,.T.);
#98=ADVANCED_FACE('',(#90),#21,.T.);
#99=ADVANCED_FACE('',(#91),#25,.T.);
#100=ADVANCED_FACE('',(#92),#26,.F.);
#101=ADVANCED_FACE('',(#93),#27,.T.);
#102=CLOSED_SHELL('',(#95,#96,#97,#98,#99,#100,#101));
#103=STYLED_ITEM('',(#104),#111);
#104=PRESENTATION_STYLE_ASSIGNMENT((#105));
#105=SURFACE_STYLE_USAGE(.BOTH.,#106);
#106=SURFACE_SIDE_STYLE('',(#107));
#107=SURFACE_STYLE_FILL_AREA(#108);
#108=FILL_AREA_STYLE('',(#109));
#109=FILL_AREA_STYLE_COLOUR('',#110);
#110=COLOUR_RGB('',0.776470588235294,0.756862745098039,0.737254901960784);
#111=MANIFOLD_SOLID_BREP('Part 96',#102);
#112=SHAPE_DEFINITION_REPRESENTATION(#193,#113);
#113=SHAPE_REPRESENTATION('Part 96',(#114),#188);
#114=AXIS2_PLACEMENT_3D('',#156,#127,#128);
#115=AXIS2_PLACEMENT_3D('',#157,#129,#130);
#116=AXIS2_PLACEMENT_3D('',#158,#131,#132);
#117=AXIS2_PLACEMENT_3D('',#160,#133,#134);
#118=AXIS2_PLACEMENT_3D('',#165,#136,#137);
#119=AXIS2_PLACEMENT_3D('',#168,#139,#140);
#120=AXIS2_PLACEMENT_3D('',#179,#142,#143);
#121=AXIS2_PLACEMENT_3D('',#180,#144,#145);
#122=AXIS2_PLACEMENT_3D('',#182,#146,#147);
#123=AXIS2_PLACEMENT_3D('',#183,#148,#149);
#124=AXIS2_PLACEMENT_3D('',#184,#150,#151);
#125=AXIS2_PLACEMENT_3D('',#185,#152,#153);
#126=AXIS2_PLACEMENT_3D('',#186,#154,#155);
#127=DIRECTION('',(0.,0.,1.));
#128=DIRECTION('',(1.,0.,0.));
#129=DIRECTION('',(0.,0.,-1.));
#130=DIRECTION('',(0.910850004418159,-0.412737530946048,0.));
#131=DIRECTION('',(0.,0.,-1.));
#132=DIRECTION('',(0.910850004418159,-0.412737530946048,0.));
#133=DIRECTION('',(0.,0.,-1.));
#134=DIRECTION('',(0.910850004418159,-0.412737530946048,0.));
#135=DIRECTION('',(0.,0.,-1.));
#136=DIRECTION('',(0.,0.,-1.));
#137=DIRECTION('',(0.910850004418159,-0.412737530946048,0.));
#138=DIRECTION('',(0.,0.,1.));
#139=DIRECTION('',(-0.910850004418159,0.412737530946048,0.));
#140=DIRECTION('',(-0.412737530946048,-0.910850004418159,0.));
#141=DIRECTION('',(-0.412737530946048,-0.910850004418159,0.));
#142=DIRECTION('',(0.,0.,1.));
#143=DIRECTION('',(-0.910850004418159,0.412737530946048,0.));
#144=DIRECTION('',(0.,0.,1.));
#145=DIRECTION('',(-0.910850004418159,0.412737530946048,0.));
#146=DIRECTION('',(0.,0.,-1.));
#147=DIRECTION('',(0.910850004418159,-0.412737530946048,0.));
#148=DIRECTION('',(0.,0.,-1.));
#149=DIRECTION('',(0.910850004418159,-0.412737530946048,0.));
#150=DIRECTION('',(0.,0.,1.));
#151=DIRECTION('',(-0.910850004418159,0.412737530946048,0.));
#152=DIRECTION('',(0.,0.,1.));
#153=DIRECTION('',(-0.910850004418159,0.412737530946048,0.));
#154=DIRECTION('',(0.,0.,1.));
#155=DIRECTION('',(-0.910850004418159,0.412737530946048,0.));
#156=CARTESIAN_POINT('',(0.,0.,0.));
#157=CARTESIAN_POINT('',(0.0130745766688371,0.00162303821074727,0.093));
#158=CARTESIAN_POINT('',(0.0130745766688371,0.00162303821074727,0.0215));
#159=CARTESIAN_POINT('',(0.0153517016798825,0.00059119438338215,0.0215));
#160=CARTESIAN_POINT('',(0.0130745766688371,0.00162303821074727,0.078));
#161=CARTESIAN_POINT('',(0.0155153829740925,0.00216383815548241,0.078));
#162=CARTESIAN_POINT('',(0.0142771703812543,-0.000568711857772066,0.078));
#163=CARTESIAN_POINT('',(0.0142771703812543,-0.000568711857772066,0.093));
#164=CARTESIAN_POINT('',(0.0142771703812532,-0.000568711857774533,0.0925000000000045));
#165=CARTESIAN_POINT('',(0.0130745766688371,0.00162303821074727,0.0925));
#166=CARTESIAN_POINT('',(0.0155153829740945,0.00216383815548689,0.0925000000000032));
#167=CARTESIAN_POINT('',(0.0155153829740925,0.00216383815548241,0.078));
#168=CARTESIAN_POINT('',(0.0155153829740925,0.00216383815548241,0.078));
#169=CARTESIAN_POINT('',(0.0142771703812521,-0.000568711857777,0.092500000000009));
#170=CARTESIAN_POINT('',(0.0144664840770543,-0.000150924843684471,0.0927752069026167));
#171=CARTESIAN_POINT('',(0.0146740045789154,0.000307041868486811,0.0930000000000123));
#172=CARTESIAN_POINT('',(0.0148962766776734,0.00079756314885517,0.0930000000000123));
#173=CARTESIAN_POINT('',(0.0148962766776777,0.000797563148853203,0.0930000000000075));
#174=CARTESIAN_POINT('',(0.0155153829740925,0.00216383815548241,0.078));
#175=CARTESIAN_POINT('',(0.0148962766776734,0.000797563148855174,0.0930000000000123));
#176=CARTESIAN_POINT('',(0.0151186232275626,0.0012882487317357,0.0930000000000123));
#177=CARTESIAN_POINT('',(0.0153258852612995,0.0017456450434116,0.0927754744096587));
#178=CARTESIAN_POINT('',(0.0155153829740966,0.00216383815549137,0.0925000000000064));
#179=CARTESIAN_POINT('',(0.0130745766688371,0.00162303821074727,0.0214999999999882));
#180=CARTESIAN_POINT('',(0.0130745766688371,0.00162303821074727,0.0210000000000569));
#181=CARTESIAN_POINT('',(0.0112528766599921,0.00244851327264331,0.0210000000000569));
#182=CARTESIAN_POINT('',(0.0130745766688371,0.00162303821074727,0.0925000000000714));
#183=CARTESIAN_POINT('',(0.0130745766688371,0.00162303821074727,0.0930000000000027));
#184=CARTESIAN_POINT('',(0.0130745766688371,0.00162303821074727,0.078));
#185=CARTESIAN_POINT('',(0.0130745766688371,0.00162303821074727,0.021));
#186=CARTESIAN_POINT('',(0.0130745766688371,0.00162303821074727,0.093));
#187=MECHANICAL_DESIGN_GEOMETRIC_PRESENTATION_REPRESENTATION('',(#103),
#188);
#188=(
GEOMETRIC_REPRESENTATION_CONTEXT(3)
GLOBAL_UNCERTAINTY_ASSIGNED_CONTEXT((#189))
GLOBAL_UNIT_ASSIGNED_CONTEXT((#192,#191,#190))
REPRESENTATION_CONTEXT('Part 96','TOP_LEVEL_ASSEMBLY_PART')
);
#189=UNCERTAINTY_MEASURE_WITH_UNIT(LENGTH_MEASURE(2.E-5),#192,
'DISTANCE_ACCURACY_VALUE','Maximum Tolerance applied to model');
#190=(
NAMED_UNIT(*)
SI_UNIT($,.STERADIAN.)
SOLID_ANGLE_UNIT()
);
#191=(
NAMED_UNIT(*)
PLANE_ANGLE_UNIT()
SI_UNIT($,.RADIAN.)
);
#192=(
LENGTH_UNIT()
NAMED_UNIT(*)
SI_UNIT($,.METRE.)
);
#193=PRODUCT_DEFINITION_SHAPE('','',#194);
#194=PRODUCT_DEFINITION('','',#196,#195);
#195=PRODUCT_DEFINITION_CONTEXT('',#202,'design');
#196=PRODUCT_DEFINITION_FORMATION_WITH_SPECIFIED_SOURCE('','',#198,
 .NOT_KNOWN.);
#197=PRODUCT_RELATED_PRODUCT_CATEGORY('','',(#198));
#198=PRODUCT('Part 96','Part 96','Part 96',(#200));
#199=PRODUCT_CATEGORY('','');
#200=PRODUCT_CONTEXT('',#202,'mechanical');
#201=APPLICATION_PROTOCOL_DEFINITION('international standard',
'automotive_design',2010,#202);
#202=APPLICATION_CONTEXT(
'core data for automotive mechanical design processes');
ENDSEC;
END-ISO-10303-21;
