ISO-10303-21;
HEADER;
/* Generated by software containing ST-Developer
 * from STEP Tools, Inc. (www.steptools.com) 
 */
/* OPTION: using custom renumber hook */

FILE_DESCRIPTION(
/* description */ ('STEP AP214',
'CAx-IF Rec.Pracs.---User Defined Attributes---1.5---2016-08-15'),
/* implementation_level */ '2;1');

FILE_NAME(
/* name */ '6a65b59a8ce625604a87546f',
/* time_stamp */ '2026-07-26T07:22:02Z',
/* author */ (''),
/* organization */ (''),
/* preprocessor_version */ 'ST-DEVELOPER v20',
/* originating_system */ 'ONSHAPE BY PTC INC, 1.218',
/* authorisation */ '  ');

FILE_SCHEMA (('AUTOMOTIVE_DESIGN {1 0 10303 214 3 1 1}'));
ENDSEC;

DATA;
#10=PROPERTY_DEFINITION_REPRESENTATION(#14,#12);
#11=PROPERTY_DEFINITION_REPRESENTATION(#15,#13);
#12=REPRESENTATION('',(#16),#154);
#13=REPRESENTATION('',(#17),#154);
#14=PROPERTY_DEFINITION('pmi validation property','',#159);
#15=PROPERTY_DEFINITION('pmi validation property','',#159);
#16=VALUE_REPRESENTATION_ITEM('number of annotations',COUNT_MEASURE(0.));
#17=VALUE_REPRESENTATION_ITEM('number of views',COUNT_MEASURE(0.));
#18=SHAPE_REPRESENTATION_RELATIONSHIP('','',#100,#19);
#19=ADVANCED_BREP_SHAPE_REPRESENTATION('',(#98),#154);
#20=ELLIPSE('',#107,15.1541227999053,0.004);
#21=CYLINDRICAL_SURFACE('',#106,0.004);
#22=CIRCLE('',#105,0.004);
#23=ORIENTED_EDGE('',*,*,#41,.F.);
#24=ORIENTED_EDGE('',*,*,#42,.F.);
#25=ORIENTED_EDGE('',*,*,#43,.T.);
#26=ORIENTED_EDGE('',*,*,#44,.T.);
#27=ORIENTED_EDGE('',*,*,#45,.F.);
#28=ORIENTED_EDGE('',*,*,#44,.F.);
#29=ORIENTED_EDGE('',*,*,#46,.T.);
#30=ORIENTED_EDGE('',*,*,#47,.F.);
#31=ORIENTED_EDGE('',*,*,#48,.T.);
#32=ORIENTED_EDGE('',*,*,#46,.F.);
#33=ORIENTED_EDGE('',*,*,#43,.F.);
#34=ORIENTED_EDGE('',*,*,#49,.F.);
#35=ORIENTED_EDGE('',*,*,#47,.T.);
#36=ORIENTED_EDGE('',*,*,#42,.T.);
#37=ORIENTED_EDGE('',*,*,#49,.T.);
#38=ORIENTED_EDGE('',*,*,#41,.T.);
#39=ORIENTED_EDGE('',*,*,#45,.T.);
#40=ORIENTED_EDGE('',*,*,#48,.F.);
#41=EDGE_CURVE('',#50,#51,#56,.T.);
#42=EDGE_CURVE('',#52,#50,#57,.F.);
#43=EDGE_CURVE('',#52,#53,#58,.F.);
#44=EDGE_CURVE('',#53,#51,#59,.F.);
#45=EDGE_CURVE('',#51,#54,#60,.T.);
#46=EDGE_CURVE('',#53,#54,#61,.F.);
#47=EDGE_CURVE('',#55,#52,#22,.F.);
#48=EDGE_CURVE('',#55,#54,#62,.T.);
#49=EDGE_CURVE('',#55,#50,#20,.F.);
#50=VERTEX_POINT('',#135);
#51=VERTEX_POINT('',#136);
#52=VERTEX_POINT('',#138);
#53=VERTEX_POINT('',#140);
#54=VERTEX_POINT('',#144);
#55=VERTEX_POINT('',#148);
#56=LINE('',#134,#63);
#57=LINE('',#137,#64);
#58=LINE('',#139,#65);
#59=LINE('',#141,#66);
#60=LINE('',#143,#67);
#61=LINE('',#145,#68);
#62=LINE('',#149,#69);
#63=VECTOR('',#113,1.);
#64=VECTOR('',#114,1.);
#65=VECTOR('',#115,1.);
#66=VECTOR('',#116,1.);
#67=VECTOR('',#119,1.);
#68=VECTOR('',#120,1.);
#69=VECTOR('',#125,1.);
#70=EDGE_LOOP('',(#23,#24,#25,#26));
#71=EDGE_LOOP('',(#27,#28,#29));
#72=EDGE_LOOP('',(#30,#31,#32,#33));
#73=EDGE_LOOP('',(#34,#35,#36));
#74=EDGE_LOOP('',(#37,#38,#39,#40));
#75=FACE_BOUND('',#70,.T.);
#76=FACE_BOUND('',#71,.T.);
#77=FACE_BOUND('',#72,.T.);
#78=FACE_BOUND('',#73,.T.);
#79=FACE_BOUND('',#74,.T.);
#80=PLANE('',#102);
#81=PLANE('',#103);
#82=PLANE('',#104);
#83=PLANE('',#108);
#84=ADVANCED_FACE('',(#75),#80,.T.);
#85=ADVANCED_FACE('',(#76),#81,.T.);
#86=ADVANCED_FACE('',(#77),#82,.F.);
#87=ADVANCED_FACE('',(#78),#21,.T.);
#88=ADVANCED_FACE('',(#79),#83,.F.);
#89=CLOSED_SHELL('',(#84,#85,#86,#87,#88));
#90=STYLED_ITEM('',(#91),#98);
#91=PRESENTATION_STYLE_ASSIGNMENT((#92));
#92=SURFACE_STYLE_USAGE(.BOTH.,#93);
#93=SURFACE_SIDE_STYLE('',(#94));
#94=SURFACE_STYLE_FILL_AREA(#95);
#95=FILL_AREA_STYLE('',(#96));
#96=FILL_AREA_STYLE_COLOUR('',#97);
#97=COLOUR_RGB('',0.745098039215686,0.745098039215686,0.745098039215686);
#98=MANIFOLD_SOLID_BREP('Part 109',#89);
#99=SHAPE_DEFINITION_REPRESENTATION(#159,#100);
#100=SHAPE_REPRESENTATION('Part 109',(#101),#154);
#101=AXIS2_PLACEMENT_3D('',#132,#109,#110);
#102=AXIS2_PLACEMENT_3D('',#133,#111,#112);
#103=AXIS2_PLACEMENT_3D('',#142,#117,#118);
#104=AXIS2_PLACEMENT_3D('',#146,#121,#122);
#105=AXIS2_PLACEMENT_3D('',#147,#123,#124);
#106=AXIS2_PLACEMENT_3D('',#150,#126,#127);
#107=AXIS2_PLACEMENT_3D('',#151,#128,#129);
#108=AXIS2_PLACEMENT_3D('',#152,#130,#131);
#109=DIRECTION('',(0.,0.,1.));
#110=DIRECTION('',(1.,0.,0.));
#111=DIRECTION('',(0.,0.,1.));
#112=DIRECTION('',(0.,-1.,0.));
#113=DIRECTION('',(0.,1.,0.));
#114=DIRECTION('',(1.,-8.58062629687797E-31,0.));
#115=DIRECTION('',(0.,-1.,0.));
#116=DIRECTION('',(1.,0.,0.));
#117=DIRECTION('',(-4.54216170821161E-29,1.,1.88825333322077E-14));
#118=DIRECTION('',(0.,-1.88825333322077E-14,1.));
#119=DIRECTION('',(0.999999965163991,0.,-0.000263954572152801));
#120=DIRECTION('',(0.,0.,1.));
#121=DIRECTION('',(-1.,0.,0.));
#122=DIRECTION('',(0.,-1.,0.));
#123=DIRECTION('',(1.,-8.58062629687797E-31,0.));
#124=DIRECTION('',(8.58062629687797E-31,1.,0.));
#125=DIRECTION('',(0.,1.,1.88825333322077E-14));
#126=DIRECTION('',(1.,-8.58062629687797E-31,0.));
#127=DIRECTION('',(8.58062629687797E-31,1.,0.));
#128=DIRECTION('',(0.000263954572152801,-1.88825326744156E-14,0.999999965163991));
#129=DIRECTION('',(0.999999965163991,4.98413100686302E-18,-0.000263954572152801));
#130=DIRECTION('',(0.000263954572152801,-1.88825326744156E-14,0.999999965163991));
#131=DIRECTION('',(-0.999999965163991,0.,0.000263954572152801));
#132=CARTESIAN_POINT('',(0.,0.,0.));
#133=CARTESIAN_POINT('',(0.07,-0.088,0.087));
#134=CARTESIAN_POINT('',(0.0236189262082546,-0.088,0.087));
#135=CARTESIAN_POINT('',(0.0236189262082546,-0.058,0.087));
#136=CARTESIAN_POINT('',(0.0236189262082546,-0.0498020000000015,0.087));
#137=CARTESIAN_POINT('',(0.055368768082748,-0.058,0.087));
#138=CARTESIAN_POINT('',(0.0237,-0.058,0.087));
#139=CARTESIAN_POINT('',(0.0237,-0.0498020000000013,0.087));
#140=CARTESIAN_POINT('',(0.0237,-0.0498020000000014,0.087));
#141=CARTESIAN_POINT('',(0.07,-0.0498020000000014,0.087));
#142=CARTESIAN_POINT('',(0.0368030667573113,-0.049802,-6.69851812870178E-34));
#143=CARTESIAN_POINT('',(0.0236189262082546,-0.0498020000000015,0.087));
#144=CARTESIAN_POINT('',(0.0237,-0.0498020000000015,0.0869999786002013));
#145=CARTESIAN_POINT('',(0.0237,-0.0498020000000014,0.0833));
#146=CARTESIAN_POINT('',(0.0237,-0.0498020000000013,0.0833));
#147=CARTESIAN_POINT('',(0.0237,-0.058,0.083));
#148=CARTESIAN_POINT('',(0.0237,-0.0580130842628144,0.0869999786002011));
#149=CARTESIAN_POINT('',(0.0237,-0.0498020000000014,0.0869999786002012));
#150=CARTESIAN_POINT('',(0.055368768082748,-0.058,0.083));
#151=CARTESIAN_POINT('',(15.1777411982038,-0.058,0.083));
#152=CARTESIAN_POINT('',(0.0236189262082546,-0.122971136721648,0.0869999999999986));
#153=MECHANICAL_DESIGN_GEOMETRIC_PRESENTATION_REPRESENTATION('',(#90),#154);
#154=(
GEOMETRIC_REPRESENTATION_CONTEXT(3)
GLOBAL_UNCERTAINTY_ASSIGNED_CONTEXT((#155))
GLOBAL_UNIT_ASSIGNED_CONTEXT((#158,#157,#156))
REPRESENTATION_CONTEXT('Part 109','TOP_LEVEL_ASSEMBLY_PART')
);
#155=UNCERTAINTY_MEASURE_WITH_UNIT(LENGTH_MEASURE(1.E-8),#158,
'DISTANCE_ACCURACY_VALUE','Maximum Tolerance applied to model');
#156=(
NAMED_UNIT(*)
SI_UNIT($,.STERADIAN.)
SOLID_ANGLE_UNIT()
);
#157=(
NAMED_UNIT(*)
PLANE_ANGLE_UNIT()
SI_UNIT($,.RADIAN.)
);
#158=(
LENGTH_UNIT()
NAMED_UNIT(*)
SI_UNIT($,.METRE.)
);
#159=PRODUCT_DEFINITION_SHAPE('','',#160);
#160=PRODUCT_DEFINITION('','',#162,#161);
#161=PRODUCT_DEFINITION_CONTEXT('',#168,'design');
#162=PRODUCT_DEFINITION_FORMATION_WITH_SPECIFIED_SOURCE('','',#164,
 .NOT_KNOWN.);
#163=PRODUCT_RELATED_PRODUCT_CATEGORY('','',(#164));
#164=PRODUCT('Part 109','Part 109','Part 109',(#166));
#165=PRODUCT_CATEGORY('','');
#166=PRODUCT_CONTEXT('',#168,'mechanical');
#167=APPLICATION_PROTOCOL_DEFINITION('international standard',
'automotive_design',2010,#168);
#168=APPLICATION_CONTEXT(
'core data for automotive mechanical design processes');
ENDSEC;
END-ISO-10303-21;
