ISO-10303-21;
HEADER;
/* Generated by software containing ST-Developer
 * from STEP Tools, Inc. (www.steptools.com) 
 */
/* OPTION: using custom renumber hook */

FILE_DESCRIPTION(
/* description */ ('STEP AP214',
'CAx-IF Rec.Pracs.---User Defined Attributes---1.5---2016-08-15'),
/* implementation_level */ '2;1');

FILE_NAME(
/* name */ '6a65b5a88ce625604a8754a3',
/* time_stamp */ '2026-07-26T07:22:16Z',
/* author */ (''),
/* organization */ (''),
/* preprocessor_version */ 'ST-DEVELOPER v20',
/* originating_system */ 'ONSHAPE BY PTC INC, 1.218',
/* authorisation */ '  ');

FILE_SCHEMA (('AUTOMOTIVE_DESIGN {1 0 10303 214 3 1 1}'));
ENDSEC;

DATA;
#10=PROPERTY_DEFINITION_REPRESENTATION(#14,#12);
#11=PROPERTY_DEFINITION_REPRESENTATION(#15,#13);
#12=REPRESENTATION('',(#16),#655);
#13=REPRESENTATION('',(#17),#655);
#14=PROPERTY_DEFINITION('pmi validation property','',#660);
#15=PROPERTY_DEFINITION('pmi validation property','',#660);
#16=VALUE_REPRESENTATION_ITEM('number of annotations',COUNT_MEASURE(0.));
#17=VALUE_REPRESENTATION_ITEM('number of views',COUNT_MEASURE(0.));
#18=SHAPE_REPRESENTATION_RELATIONSHIP('','',#409,#19);
#19=ADVANCED_BREP_SHAPE_REPRESENTATION('',(#407),#655);
#20=CIRCLE('',#414,0.0374904);
#21=CIRCLE('',#415,0.0374904);
#22=CIRCLE('',#417,0.03648456);
#23=CIRCLE('',#418,0.03648456);
#24=CIRCLE('',#420,0.000381);
#25=CIRCLE('',#421,0.000381);
#26=CIRCLE('',#423,0.000381);
#27=CIRCLE('',#424,0.000381);
#28=CYLINDRICAL_SURFACE('',#413,0.0374904);
#29=CYLINDRICAL_SURFACE('',#416,0.03648456);
#30=CYLINDRICAL_SURFACE('',#437,0.000381);
#31=CYLINDRICAL_SURFACE('',#438,0.000381);
#32=ORIENTED_EDGE('',*,*,#140,.F.);
#33=ORIENTED_EDGE('',*,*,#141,.T.);
#34=ORIENTED_EDGE('',*,*,#142,.T.);
#35=ORIENTED_EDGE('',*,*,#143,.F.);
#36=ORIENTED_EDGE('',*,*,#144,.T.);
#37=ORIENTED_EDGE('',*,*,#145,.F.);
#38=ORIENTED_EDGE('',*,*,#146,.F.);
#39=ORIENTED_EDGE('',*,*,#147,.F.);
#40=ORIENTED_EDGE('',*,*,#148,.T.);
#41=ORIENTED_EDGE('',*,*,#149,.T.);
#42=ORIENTED_EDGE('',*,*,#150,.F.);
#43=ORIENTED_EDGE('',*,*,#151,.F.);
#44=ORIENTED_EDGE('',*,*,#152,.F.);
#45=ORIENTED_EDGE('',*,*,#153,.T.);
#46=ORIENTED_EDGE('',*,*,#154,.T.);
#47=ORIENTED_EDGE('',*,*,#155,.F.);
#48=ORIENTED_EDGE('',*,*,#156,.T.);
#49=ORIENTED_EDGE('',*,*,#153,.F.);
#50=ORIENTED_EDGE('',*,*,#157,.F.);
#51=ORIENTED_EDGE('',*,*,#145,.T.);
#52=ORIENTED_EDGE('',*,*,#158,.T.);
#53=ORIENTED_EDGE('',*,*,#159,.T.);
#54=ORIENTED_EDGE('',*,*,#160,.F.);
#55=ORIENTED_EDGE('',*,*,#161,.T.);
#56=ORIENTED_EDGE('',*,*,#160,.T.);
#57=ORIENTED_EDGE('',*,*,#162,.T.);
#58=ORIENTED_EDGE('',*,*,#140,.T.);
#59=ORIENTED_EDGE('',*,*,#163,.F.);
#60=ORIENTED_EDGE('',*,*,#164,.F.);
#61=ORIENTED_EDGE('',*,*,#165,.F.);
#62=ORIENTED_EDGE('',*,*,#166,.T.);
#63=ORIENTED_EDGE('',*,*,#167,.F.);
#64=ORIENTED_EDGE('',*,*,#150,.T.);
#65=ORIENTED_EDGE('',*,*,#168,.T.);
#66=ORIENTED_EDGE('',*,*,#142,.F.);
#67=ORIENTED_EDGE('',*,*,#169,.T.);
#68=ORIENTED_EDGE('',*,*,#158,.F.);
#69=ORIENTED_EDGE('',*,*,#170,.T.);
#70=ORIENTED_EDGE('',*,*,#148,.F.);
#71=ORIENTED_EDGE('',*,*,#171,.T.);
#72=ORIENTED_EDGE('',*,*,#172,.T.);
#73=ORIENTED_EDGE('',*,*,#173,.F.);
#74=ORIENTED_EDGE('',*,*,#174,.F.);
#75=ORIENTED_EDGE('',*,*,#175,.T.);
#76=ORIENTED_EDGE('',*,*,#176,.F.);
#77=ORIENTED_EDGE('',*,*,#177,.T.);
#78=ORIENTED_EDGE('',*,*,#165,.T.);
#79=ORIENTED_EDGE('',*,*,#178,.F.);
#80=ORIENTED_EDGE('',*,*,#176,.T.);
#81=ORIENTED_EDGE('',*,*,#179,.F.);
#82=ORIENTED_EDGE('',*,*,#180,.T.);
#83=ORIENTED_EDGE('',*,*,#146,.T.);
#84=ORIENTED_EDGE('',*,*,#157,.T.);
#85=ORIENTED_EDGE('',*,*,#152,.T.);
#86=ORIENTED_EDGE('',*,*,#181,.T.);
#87=ORIENTED_EDGE('',*,*,#182,.T.);
#88=ORIENTED_EDGE('',*,*,#173,.T.);
#89=ORIENTED_EDGE('',*,*,#183,.T.);
#90=ORIENTED_EDGE('',*,*,#184,.T.);
#91=ORIENTED_EDGE('',*,*,#185,.F.);
#92=ORIENTED_EDGE('',*,*,#184,.F.);
#93=ORIENTED_EDGE('',*,*,#186,.T.);
#94=ORIENTED_EDGE('',*,*,#187,.F.);
#95=ORIENTED_EDGE('',*,*,#154,.F.);
#96=ORIENTED_EDGE('',*,*,#156,.F.);
#97=ORIENTED_EDGE('',*,*,#144,.F.);
#98=ORIENTED_EDGE('',*,*,#188,.F.);
#99=ORIENTED_EDGE('',*,*,#189,.F.);
#100=ORIENTED_EDGE('',*,*,#166,.F.);
#101=ORIENTED_EDGE('',*,*,#177,.F.);
#102=ORIENTED_EDGE('',*,*,#182,.F.);
#103=ORIENTED_EDGE('',*,*,#190,.F.);
#104=ORIENTED_EDGE('',*,*,#181,.F.);
#105=ORIENTED_EDGE('',*,*,#151,.T.);
#106=ORIENTED_EDGE('',*,*,#167,.T.);
#107=ORIENTED_EDGE('',*,*,#190,.T.);
#108=ORIENTED_EDGE('',*,*,#163,.T.);
#109=ORIENTED_EDGE('',*,*,#147,.T.);
#110=ORIENTED_EDGE('',*,*,#180,.F.);
#111=ORIENTED_EDGE('',*,*,#191,.F.);
#112=ORIENTED_EDGE('',*,*,#164,.T.);
#113=ORIENTED_EDGE('',*,*,#191,.T.);
#114=ORIENTED_EDGE('',*,*,#179,.T.);
#115=ORIENTED_EDGE('',*,*,#178,.T.);
#116=ORIENTED_EDGE('',*,*,#172,.F.);
#117=ORIENTED_EDGE('',*,*,#192,.F.);
#118=ORIENTED_EDGE('',*,*,#186,.F.);
#119=ORIENTED_EDGE('',*,*,#183,.F.);
#120=ORIENTED_EDGE('',*,*,#171,.F.);
#121=ORIENTED_EDGE('',*,*,#155,.T.);
#122=ORIENTED_EDGE('',*,*,#187,.T.);
#123=ORIENTED_EDGE('',*,*,#192,.T.);
#124=ORIENTED_EDGE('',*,*,#188,.T.);
#125=ORIENTED_EDGE('',*,*,#143,.T.);
#126=ORIENTED_EDGE('',*,*,#175,.F.);
#127=ORIENTED_EDGE('',*,*,#193,.F.);
#128=ORIENTED_EDGE('',*,*,#174,.T.);
#129=ORIENTED_EDGE('',*,*,#185,.T.);
#130=ORIENTED_EDGE('',*,*,#189,.T.);
#131=ORIENTED_EDGE('',*,*,#193,.T.);
#132=ORIENTED_EDGE('',*,*,#162,.F.);
#133=ORIENTED_EDGE('',*,*,#159,.F.);
#134=ORIENTED_EDGE('',*,*,#169,.F.);
#135=ORIENTED_EDGE('',*,*,#141,.F.);
#136=ORIENTED_EDGE('',*,*,#168,.F.);
#137=ORIENTED_EDGE('',*,*,#149,.F.);
#138=ORIENTED_EDGE('',*,*,#170,.F.);
#139=ORIENTED_EDGE('',*,*,#161,.F.);
#140=EDGE_CURVE('',#194,#195,#230,.T.);
#141=EDGE_CURVE('',#194,#196,#231,.T.);
#142=EDGE_CURVE('',#196,#197,#232,.T.);
#143=EDGE_CURVE('',#198,#197,#233,.T.);
#144=EDGE_CURVE('',#198,#199,#234,.T.);
#145=EDGE_CURVE('',#200,#199,#235,.T.);
#146=EDGE_CURVE('',#201,#200,#236,.T.);
#147=EDGE_CURVE('',#195,#201,#237,.T.);
#148=EDGE_CURVE('',#202,#203,#238,.T.);
#149=EDGE_CURVE('',#203,#204,#239,.F.);
#150=EDGE_CURVE('',#205,#204,#240,.T.);
#151=EDGE_CURVE('',#206,#205,#241,.T.);
#152=EDGE_CURVE('',#207,#206,#242,.T.);
#153=EDGE_CURVE('',#207,#208,#243,.T.);
#154=EDGE_CURVE('',#208,#209,#244,.T.);
#155=EDGE_CURVE('',#202,#209,#245,.T.);
#156=EDGE_CURVE('',#199,#208,#20,.F.);
#157=EDGE_CURVE('',#200,#207,#21,.F.);
#158=EDGE_CURVE('',#210,#211,#22,.T.);
#159=EDGE_CURVE('',#211,#212,#246,.F.);
#160=EDGE_CURVE('',#213,#212,#23,.T.);
#161=EDGE_CURVE('',#213,#210,#247,.T.);
#162=EDGE_CURVE('',#212,#194,#24,.T.);
#163=EDGE_CURVE('',#214,#195,#248,.T.);
#164=EDGE_CURVE('',#215,#214,#249,.T.);
#165=EDGE_CURVE('',#216,#215,#250,.T.);
#166=EDGE_CURVE('',#216,#217,#251,.T.);
#167=EDGE_CURVE('',#205,#217,#252,.T.);
#168=EDGE_CURVE('',#204,#213,#25,.T.);
#169=EDGE_CURVE('',#196,#211,#26,.F.);
#170=EDGE_CURVE('',#210,#203,#27,.F.);
#171=EDGE_CURVE('',#202,#218,#253,.T.);
#172=EDGE_CURVE('',#218,#219,#254,.T.);
#173=EDGE_CURVE('',#220,#219,#255,.T.);
#174=EDGE_CURVE('',#221,#220,#256,.T.);
#175=EDGE_CURVE('',#221,#197,#257,.T.);
#176=EDGE_CURVE('',#222,#223,#258,.T.);
#177=EDGE_CURVE('',#222,#216,#259,.T.);
#178=EDGE_CURVE('',#223,#215,#260,.T.);
#179=EDGE_CURVE('',#224,#223,#261,.T.);
#180=EDGE_CURVE('',#224,#201,#262,.T.);
#181=EDGE_CURVE('',#206,#225,#263,.T.);
#182=EDGE_CURVE('',#225,#222,#264,.T.);
#183=EDGE_CURVE('',#219,#226,#265,.T.);
#184=EDGE_CURVE('',#226,#227,#266,.T.);
#185=EDGE_CURVE('',#220,#227,#267,.T.);
#186=EDGE_CURVE('',#226,#228,#268,.T.);
#187=EDGE_CURVE('',#209,#228,#269,.T.);
#188=EDGE_CURVE('',#229,#198,#270,.T.);
#189=EDGE_CURVE('',#227,#229,#271,.T.);
#190=EDGE_CURVE('',#217,#225,#272,.T.);
#191=EDGE_CURVE('',#214,#224,#273,.T.);
#192=EDGE_CURVE('',#228,#218,#274,.T.);
#193=EDGE_CURVE('',#229,#221,#275,.T.);
#194=VERTEX_POINT('',#546);
#195=VERTEX_POINT('',#547);
#196=VERTEX_POINT('',#549);
#197=VERTEX_POINT('',#551);
#198=VERTEX_POINT('',#553);
#199=VERTEX_POINT('',#555);
#200=VERTEX_POINT('',#557);
#201=VERTEX_POINT('',#559);
#202=VERTEX_POINT('',#563);
#203=VERTEX_POINT('',#564);
#204=VERTEX_POINT('',#566);
#205=VERTEX_POINT('',#568);
#206=VERTEX_POINT('',#570);
#207=VERTEX_POINT('',#572);
#208=VERTEX_POINT('',#574);
#209=VERTEX_POINT('',#576);
#210=VERTEX_POINT('',#583);
#211=VERTEX_POINT('',#584);
#212=VERTEX_POINT('',#586);
#213=VERTEX_POINT('',#588);
#214=VERTEX_POINT('',#593);
#215=VERTEX_POINT('',#595);
#216=VERTEX_POINT('',#597);
#217=VERTEX_POINT('',#599);
#218=VERTEX_POINT('',#606);
#219=VERTEX_POINT('',#608);
#220=VERTEX_POINT('',#610);
#221=VERTEX_POINT('',#612);
#222=VERTEX_POINT('',#616);
#223=VERTEX_POINT('',#617);
#224=VERTEX_POINT('',#622);
#225=VERTEX_POINT('',#625);
#226=VERTEX_POINT('',#629);
#227=VERTEX_POINT('',#631);
#228=VERTEX_POINT('',#635);
#229=VERTEX_POINT('',#638);
#230=LINE('',#545,#276);
#231=LINE('',#548,#277);
#232=LINE('',#550,#278);
#233=LINE('',#552,#279);
#234=LINE('',#554,#280);
#235=LINE('',#556,#281);
#236=LINE('',#558,#282);
#237=LINE('',#560,#283);
#238=LINE('',#562,#284);
#239=LINE('',#565,#285);
#240=LINE('',#567,#286);
#241=LINE('',#569,#287);
#242=LINE('',#571,#288);
#243=LINE('',#573,#289);
#244=LINE('',#575,#290);
#245=LINE('',#577,#291);
#246=LINE('',#585,#292);
#247=LINE('',#589,#293);
#248=LINE('',#592,#294);
#249=LINE('',#594,#295);
#250=LINE('',#596,#296);
#251=LINE('',#598,#297);
#252=LINE('',#600,#298);
#253=LINE('',#605,#299);
#254=LINE('',#607,#300);
#255=LINE('',#609,#301);
#256=LINE('',#611,#302);
#257=LINE('',#613,#303);
#258=LINE('',#615,#304);
#259=LINE('',#618,#305);
#260=LINE('',#619,#306);
#261=LINE('',#621,#307);
#262=LINE('',#623,#308);
#263=LINE('',#624,#309);
#264=LINE('',#626,#310);
#265=LINE('',#628,#311);
#266=LINE('',#630,#312);
#267=LINE('',#632,#313);
#268=LINE('',#634,#314);
#269=LINE('',#636,#315);
#270=LINE('',#637,#316);
#271=LINE('',#639,#317);
#272=LINE('',#641,#318);
#273=LINE('',#644,#319);
#274=LINE('',#647,#320);
#275=LINE('',#650,#321);
#276=VECTOR('',#443,1.);
#277=VECTOR('',#444,1.);
#278=VECTOR('',#445,1.);
#279=VECTOR('',#446,1.);
#280=VECTOR('',#447,1.);
#281=VECTOR('',#448,1.);
#282=VECTOR('',#449,1.);
#283=VECTOR('',#450,1.);
#284=VECTOR('',#453,1.);
#285=VECTOR('',#454,1.);
#286=VECTOR('',#455,1.);
#287=VECTOR('',#456,1.);
#288=VECTOR('',#457,1.);
#289=VECTOR('',#458,1.);
#290=VECTOR('',#459,1.);
#291=VECTOR('',#460,1.);
#292=VECTOR('',#471,1.);
#293=VECTOR('',#474,1.);
#294=VECTOR('',#479,1.);
#295=VECTOR('',#480,1.);
#296=VECTOR('',#481,1.);
#297=VECTOR('',#482,1.);
#298=VECTOR('',#483,1.);
#299=VECTOR('',#492,1.);
#300=VECTOR('',#493,1.);
#301=VECTOR('',#494,1.);
#302=VECTOR('',#495,1.);
#303=VECTOR('',#496,1.);
#304=VECTOR('',#499,1.);
#305=VECTOR('',#500,1.);
#306=VECTOR('',#501,1.);
#307=VECTOR('',#504,1.);
#308=VECTOR('',#505,1.);
#309=VECTOR('',#506,1.);
#310=VECTOR('',#507,1.);
#311=VECTOR('',#510,1.);
#312=VECTOR('',#511,1.);
#313=VECTOR('',#512,1.);
#314=VECTOR('',#515,1.);
#315=VECTOR('',#516,1.);
#316=VECTOR('',#517,1.);
#317=VECTOR('',#518,1.);
#318=VECTOR('',#521,1.);
#319=VECTOR('',#526,1.);
#320=VECTOR('',#531,1.);
#321=VECTOR('',#536,1.);
#322=EDGE_LOOP('',(#32,#33,#34,#35,#36,#37,#38,#39));
#323=EDGE_LOOP('',(#40,#41,#42,#43,#44,#45,#46,#47));
#324=EDGE_LOOP('',(#48,#49,#50,#51));
#325=EDGE_LOOP('',(#52,#53,#54,#55));
#326=EDGE_LOOP('',(#56,#57,#58,#59,#60,#61,#62,#63,#64,#65));
#327=EDGE_LOOP('',(#66,#67,#68,#69,#70,#71,#72,#73,#74,#75));
#328=EDGE_LOOP('',(#76,#77,#78,#79));
#329=EDGE_LOOP('',(#80,#81,#82,#83,#84,#85,#86,#87));
#330=EDGE_LOOP('',(#88,#89,#90,#91));
#331=EDGE_LOOP('',(#92,#93,#94,#95,#96,#97,#98,#99));
#332=EDGE_LOOP('',(#100,#101,#102,#103));
#333=EDGE_LOOP('',(#104,#105,#106,#107));
#334=EDGE_LOOP('',(#108,#109,#110,#111));
#335=EDGE_LOOP('',(#112,#113,#114,#115));
#336=EDGE_LOOP('',(#116,#117,#118,#119));
#337=EDGE_LOOP('',(#120,#121,#122,#123));
#338=EDGE_LOOP('',(#124,#125,#126,#127));
#339=EDGE_LOOP('',(#128,#129,#130,#131));
#340=EDGE_LOOP('',(#132,#133,#134,#135));
#341=EDGE_LOOP('',(#136,#137,#138,#139));
#342=FACE_BOUND('',#322,.T.);
#343=FACE_BOUND('',#323,.T.);
#344=FACE_BOUND('',#324,.T.);
#345=FACE_BOUND('',#325,.T.);
#346=FACE_BOUND('',#326,.T.);
#347=FACE_BOUND('',#327,.T.);
#348=FACE_BOUND('',#328,.T.);
#349=FACE_BOUND('',#329,.T.);
#350=FACE_BOUND('',#330,.T.);
#351=FACE_BOUND('',#331,.T.);
#352=FACE_BOUND('',#332,.T.);
#353=FACE_BOUND('',#333,.T.);
#354=FACE_BOUND('',#334,.T.);
#355=FACE_BOUND('',#335,.T.);
#356=FACE_BOUND('',#336,.T.);
#357=FACE_BOUND('',#337,.T.);
#358=FACE_BOUND('',#338,.T.);
#359=FACE_BOUND('',#339,.T.);
#360=FACE_BOUND('',#340,.T.);
#361=FACE_BOUND('',#341,.T.);
#362=PLANE('',#411);
#363=PLANE('',#412);
#364=PLANE('',#419);
#365=PLANE('',#422);
#366=PLANE('',#425);
#367=PLANE('',#426);
#368=PLANE('',#427);
#369=PLANE('',#428);
#370=PLANE('',#429);
#371=PLANE('',#430);
#372=PLANE('',#431);
#373=PLANE('',#432);
#374=PLANE('',#433);
#375=PLANE('',#434);
#376=PLANE('',#435);
#377=PLANE('',#436);
#378=ADVANCED_FACE('',(#342),#362,.F.);
#379=ADVANCED_FACE('',(#343),#363,.F.);
#380=ADVANCED_FACE('',(#344),#28,.T.);
#381=ADVANCED_FACE('',(#345),#29,.F.);
#382=ADVANCED_FACE('',(#346),#364,.T.);
#383=ADVANCED_FACE('',(#347),#365,.F.);
#384=ADVANCED_FACE('',(#348),#366,.F.);
#385=ADVANCED_FACE('',(#349),#367,.T.);
#386=ADVANCED_FACE('',(#350),#368,.F.);
#387=ADVANCED_FACE('',(#351),#369,.F.);
#388=ADVANCED_FACE('',(#352),#370,.F.);
#389=ADVANCED_FACE('',(#353),#371,.F.);
#390=ADVANCED_FACE('',(#354),#372,.F.);
#391=ADVANCED_FACE('',(#355),#373,.T.);
#392=ADVANCED_FACE('',(#356),#374,.T.);
#393=ADVANCED_FACE('',(#357),#375,.F.);
#394=ADVANCED_FACE('',(#358),#376,.F.);
#395=ADVANCED_FACE('',(#359),#377,.F.);
#396=ADVANCED_FACE('',(#360),#30,.T.);
#397=ADVANCED_FACE('',(#361),#31,.T.);
#398=CLOSED_SHELL('',(#378,#379,#380,#381,#382,#383,#384,#385,#386,#387,
#388,#389,#390,#391,#392,#393,#394,#395,#396,#397));
#399=STYLED_ITEM('',(#400),#407);
#400=PRESENTATION_STYLE_ASSIGNMENT((#401));
#401=SURFACE_STYLE_USAGE(.BOTH.,#402);
#402=SURFACE_SIDE_STYLE('',(#403));
#403=SURFACE_STYLE_FILL_AREA(#404);
#404=FILL_AREA_STYLE('',(#405));
#405=FILL_AREA_STYLE_COLOUR('',#406);
#406=COLOUR_RGB('',0.752941176470588,0.752941176470588,0.752941176470588);
#407=MANIFOLD_SOLID_BREP('Part 128',#398);
#408=SHAPE_DEFINITION_REPRESENTATION(#660,#409);
#409=SHAPE_REPRESENTATION('Part 128',(#410),#655);
#410=AXIS2_PLACEMENT_3D('',#543,#439,#440);
#411=AXIS2_PLACEMENT_3D('',#544,#441,#442);
#412=AXIS2_PLACEMENT_3D('',#561,#451,#452);
#413=AXIS2_PLACEMENT_3D('',#578,#461,#462);
#414=AXIS2_PLACEMENT_3D('',#579,#463,#464);
#415=AXIS2_PLACEMENT_3D('',#580,#465,#466);
#416=AXIS2_PLACEMENT_3D('',#581,#467,#468);
#417=AXIS2_PLACEMENT_3D('',#582,#469,#470);
#418=AXIS2_PLACEMENT_3D('',#587,#472,#473);
#419=AXIS2_PLACEMENT_3D('',#590,#475,#476);
#420=AXIS2_PLACEMENT_3D('',#591,#477,#478);
#421=AXIS2_PLACEMENT_3D('',#601,#484,#485);
#422=AXIS2_PLACEMENT_3D('',#602,#486,#487);
#423=AXIS2_PLACEMENT_3D('',#603,#488,#489);
#424=AXIS2_PLACEMENT_3D('',#604,#490,#491);
#425=AXIS2_PLACEMENT_3D('',#614,#497,#498);
#426=AXIS2_PLACEMENT_3D('',#620,#502,#503);
#427=AXIS2_PLACEMENT_3D('',#627,#508,#509);
#428=AXIS2_PLACEMENT_3D('',#633,#513,#514);
#429=AXIS2_PLACEMENT_3D('',#640,#519,#520);
#430=AXIS2_PLACEMENT_3D('',#642,#522,#523);
#431=AXIS2_PLACEMENT_3D('',#643,#524,#525);
#432=AXIS2_PLACEMENT_3D('',#645,#527,#528);
#433=AXIS2_PLACEMENT_3D('',#646,#529,#530);
#434=AXIS2_PLACEMENT_3D('',#648,#532,#533);
#435=AXIS2_PLACEMENT_3D('',#649,#534,#535);
#436=AXIS2_PLACEMENT_3D('',#651,#537,#538);
#437=AXIS2_PLACEMENT_3D('',#652,#539,#540);
#438=AXIS2_PLACEMENT_3D('',#653,#541,#542);
#439=DIRECTION('',(0.,0.,1.));
#440=DIRECTION('',(1.,0.,0.));
#441=DIRECTION('',(-1.,0.,0.));
#442=DIRECTION('',(0.,-1.,0.));
#443=DIRECTION('',(0.,0.,1.));
#444=DIRECTION('',(0.,1.,0.));
#445=DIRECTION('',(0.,0.,1.));
#446=DIRECTION('',(0.,1.,0.));
#447=DIRECTION('',(-1.11579405751784E-15,0.,-1.));
#448=DIRECTION('',(0.,1.,0.));
#449=DIRECTION('',(0.,0.,-1.));
#450=DIRECTION('',(0.,1.,0.));
#451=DIRECTION('',(1.,0.,-8.54152327705829E-16));
#452=DIRECTION('',(8.54152327705829E-16,0.,1.));
#453=DIRECTION('',(-8.54152327705829E-16,0.,-1.));
#454=DIRECTION('',(0.,1.,0.));
#455=DIRECTION('',(-8.54152327705829E-16,0.,-1.));
#456=DIRECTION('',(0.,-1.,0.));
#457=DIRECTION('',(0.,0.,1.));
#458=DIRECTION('',(0.,1.,0.));
#459=DIRECTION('',(3.71931352505949E-16,0.,1.));
#460=DIRECTION('',(0.,-1.,0.));
#461=DIRECTION('',(0.,1.,0.));
#462=DIRECTION('',(-1.,0.,0.));
#463=DIRECTION('',(0.,1.,0.));
#464=DIRECTION('',(-1.,0.,0.));
#465=DIRECTION('',(0.,1.,0.));
#466=DIRECTION('',(-1.,0.,0.));
#467=DIRECTION('',(0.,1.,0.));
#468=DIRECTION('',(-1.,0.,0.));
#469=DIRECTION('',(0.,1.,0.));
#470=DIRECTION('',(1.,0.,0.));
#471=DIRECTION('',(0.,1.,0.));
#472=DIRECTION('',(0.,1.,0.));
#473=DIRECTION('',(1.,0.,0.));
#474=DIRECTION('',(0.,1.,0.));
#475=DIRECTION('',(0.,-1.,0.));
#476=DIRECTION('',(1.,0.,0.));
#477=DIRECTION('',(0.,-1.,0.));
#478=DIRECTION('',(1.,0.,0.));
#479=DIRECTION('',(-1.,0.,0.));
#480=DIRECTION('',(0.,-1.31170678312945E-15,-1.));
#481=DIRECTION('',(1.,0.,0.));
#482=DIRECTION('',(0.,-1.31170678312945E-15,-1.));
#483=DIRECTION('',(-1.,0.,0.));
#484=DIRECTION('',(0.,-1.,0.));
#485=DIRECTION('',(1.,0.,0.));
#486=DIRECTION('',(0.,-1.,0.));
#487=DIRECTION('',(1.,0.,0.));
#488=DIRECTION('',(0.,-1.,0.));
#489=DIRECTION('',(1.,0.,0.));
#490=DIRECTION('',(0.,-1.,0.));
#491=DIRECTION('',(1.,0.,0.));
#492=DIRECTION('',(-1.,0.,0.));
#493=DIRECTION('',(0.,-8.74471188752966E-16,1.));
#494=DIRECTION('',(-1.,0.,0.));
#495=DIRECTION('',(0.,-8.74471188752966E-16,1.));
#496=DIRECTION('',(-1.,0.,0.));
#497=DIRECTION('',(0.,0.,-1.));
#498=DIRECTION('',(0.,1.,0.));
#499=DIRECTION('',(1.,0.,0.));
#500=DIRECTION('',(0.,-1.,0.));
#501=DIRECTION('',(0.,-1.,0.));
#502=DIRECTION('',(0.,1.,0.));
#503=DIRECTION('',(-1.,0.,0.));
#504=DIRECTION('',(0.,0.,1.));
#505=DIRECTION('',(-1.,0.,0.));
#506=DIRECTION('',(-1.,0.,0.));
#507=DIRECTION('',(0.,0.,1.));
#508=DIRECTION('',(0.,0.,-1.));
#509=DIRECTION('',(0.,1.,0.));
#510=DIRECTION('',(0.,-1.,-1.43404094155604E-14));
#511=DIRECTION('',(1.,0.,0.));
#512=DIRECTION('',(0.,-1.,-1.43404094155604E-14));
#513=DIRECTION('',(0.,1.,0.));
#514=DIRECTION('',(-1.,0.,0.));
#515=DIRECTION('',(0.,1.48660102088005E-14,-1.));
#516=DIRECTION('',(-1.,0.,0.));
#517=DIRECTION('',(-1.,0.,0.));
#518=DIRECTION('',(0.,1.48660102088005E-14,-1.));
#519=DIRECTION('',(1.,0.,0.));
#520=DIRECTION('',(0.,1.,0.));
#521=DIRECTION('',(0.,1.,0.));
#522=DIRECTION('',(0.,0.,1.));
#523=DIRECTION('',(0.,-1.,0.));
#524=DIRECTION('',(0.,0.,1.));
#525=DIRECTION('',(0.,-1.,0.));
#526=DIRECTION('',(0.,1.,0.));
#527=DIRECTION('',(1.,0.,0.));
#528=DIRECTION('',(0.,1.,0.));
#529=DIRECTION('',(-1.,0.,0.));
#530=DIRECTION('',(0.,-1.,0.));
#531=DIRECTION('',(0.,1.,0.));
#532=DIRECTION('',(0.,0.,1.));
#533=DIRECTION('',(0.,-1.,0.));
#534=DIRECTION('',(0.,0.,1.));
#535=DIRECTION('',(0.,-1.,0.));
#536=DIRECTION('',(0.,1.,0.));
#537=DIRECTION('',(-1.,0.,0.));
#538=DIRECTION('',(0.,-1.,0.));
#539=DIRECTION('',(0.,1.,0.));
#540=DIRECTION('',(-1.,0.,0.));
#541=DIRECTION('',(0.,1.,0.));
#542=DIRECTION('',(-1.,0.,0.));
#543=CARTESIAN_POINT('',(0.,0.,0.));
#544=CARTESIAN_POINT('',(0.00508,-0.00731774,0.0361291671422634));
#545=CARTESIAN_POINT('',(0.00508,-0.00731774,0.0361291671422634));
#546=CARTESIAN_POINT('',(0.00508,-0.00731774,0.0365648589921197));
#547=CARTESIAN_POINT('',(0.00508,-0.00731774,0.03749294));
#548=CARTESIAN_POINT('',(0.00508,-0.00731774,0.0365648589921197));
#549=CARTESIAN_POINT('',(0.00508,0.00731774,0.0365648589921197));
#550=CARTESIAN_POINT('',(0.00508,0.00731774,0.0361291671422634));
#551=CARTESIAN_POINT('',(0.00508,0.00731774,0.03749294));
#552=CARTESIAN_POINT('',(0.00508,-0.00731774,0.03749294));
#553=CARTESIAN_POINT('',(0.00508,0.00635,0.03749294));
#554=CARTESIAN_POINT('',(0.00508,0.00635,0.0371446320773271));
#555=CARTESIAN_POINT('',(0.00508,0.00635,0.0371446320773271));
#556=CARTESIAN_POINT('',(0.00508,-0.00731774,0.0371446320773271));
#557=CARTESIAN_POINT('',(0.00508,-0.00635,0.0371446320773271));
#558=CARTESIAN_POINT('',(0.00508,-0.00635,0.0371446320773271));
#559=CARTESIAN_POINT('',(0.00508,-0.00635,0.03749294));
#560=CARTESIAN_POINT('',(0.00508,-0.00731774,0.03749294));
#561=CARTESIAN_POINT('',(-0.00508,-0.00731774,0.0361291671422634));
#562=CARTESIAN_POINT('',(-0.00508,0.00731774,0.0361291671422634));
#563=CARTESIAN_POINT('',(-0.00508,0.00731774,0.03749294));
#564=CARTESIAN_POINT('',(-0.00508,0.00731774,0.0365648589921197));
#565=CARTESIAN_POINT('',(-0.00508,-0.00731774,0.0365648589921197));
#566=CARTESIAN_POINT('',(-0.00508,-0.00731774,0.0365648589921197));
#567=CARTESIAN_POINT('',(-0.00508,-0.00731774,0.0361291671422634));
#568=CARTESIAN_POINT('',(-0.00508,-0.00731774,0.03749294));
#569=CARTESIAN_POINT('',(-0.00508,-0.00731774,0.03749294));
#570=CARTESIAN_POINT('',(-0.00508,-0.00635,0.03749294));
#571=CARTESIAN_POINT('',(-0.00508,-0.00635,0.03947668));
#572=CARTESIAN_POINT('',(-0.00508,-0.00635,0.0371446320773271));
#573=CARTESIAN_POINT('',(-0.00508,-0.00731774,0.0371446320773271));
#574=CARTESIAN_POINT('',(-0.00508,0.00635,0.0371446320773271));
#575=CARTESIAN_POINT('',(-0.00508,0.00635,0.0371446320773271));
#576=CARTESIAN_POINT('',(-0.00508,0.00635,0.03749294));
#577=CARTESIAN_POINT('',(-0.00508,-0.00731774,0.03749294));
#578=CARTESIAN_POINT('',(0.,-0.00731774,0.));
#579=CARTESIAN_POINT('',(0.,0.00635,0.));
#580=CARTESIAN_POINT('',(0.,-0.00635,0.));
#581=CARTESIAN_POINT('',(0.,-0.00731774,0.));
#582=CARTESIAN_POINT('',(0.,0.00731774,0.));
#583=CARTESIAN_POINT('',(-0.00465043654402646,0.00731774,0.0361869666916638));
#584=CARTESIAN_POINT('',(0.00465043654402646,0.00731774,0.0361869666916638));
#585=CARTESIAN_POINT('',(0.00465043654402646,-0.00731774,0.0361869666916638));
#586=CARTESIAN_POINT('',(0.00465043654402646,-0.00731774,0.0361869666916638));
#587=CARTESIAN_POINT('',(0.,-0.00731774,0.));
#588=CARTESIAN_POINT('',(-0.00465043654402646,-0.00731774,0.0361869666916638));
#589=CARTESIAN_POINT('',(-0.00465043654402646,-0.00731774,0.0361869666916638));
#590=CARTESIAN_POINT('',(0.,-0.00731774,0.));
#591=CARTESIAN_POINT('',(0.004699,-0.00731774,0.0365648589921197));
#592=CARTESIAN_POINT('',(0.00714375,-0.00731774,0.03749294));
#593=CARTESIAN_POINT('',(0.00714375,-0.00731774,0.03749294));
#594=CARTESIAN_POINT('',(0.00714375,-0.00731774,0.03947668));
#595=CARTESIAN_POINT('',(0.00714375,-0.00731774,0.03947668));
#596=CARTESIAN_POINT('',(0.00508,-0.00731774,0.03947668));
#597=CARTESIAN_POINT('',(-0.00714375,-0.00731774,0.03947668));
#598=CARTESIAN_POINT('',(-0.00714375,-0.00731774,0.03947668));
#599=CARTESIAN_POINT('',(-0.00714375,-0.00731774,0.03749294));
#600=CARTESIAN_POINT('',(0.00714375,-0.00731774,0.03749294));
#601=CARTESIAN_POINT('',(-0.004699,-0.00731774,0.0365648589921197));
#602=CARTESIAN_POINT('',(0.,0.00731774,0.));
#603=CARTESIAN_POINT('',(0.004699,0.00731774,0.0365648589921197));
#604=CARTESIAN_POINT('',(-0.004699,0.00731774,0.0365648589921197));
#605=CARTESIAN_POINT('',(0.00714375,0.00731774,0.03749294));
#606=CARTESIAN_POINT('',(-0.00714375,0.00731774,0.03749294));
#607=CARTESIAN_POINT('',(-0.00714375,0.00731774,0.03947668));
#608=CARTESIAN_POINT('',(-0.00714375,0.00731774,0.03947668));
#609=CARTESIAN_POINT('',(0.00508,0.00731774,0.03947668));
#610=CARTESIAN_POINT('',(0.00714375,0.00731774,0.03947668));
#611=CARTESIAN_POINT('',(0.00714375,0.00731774,0.03947668));
#612=CARTESIAN_POINT('',(0.00714375,0.00731774,0.03749294));
#613=CARTESIAN_POINT('',(0.00714375,0.00731774,0.03749294));
#614=CARTESIAN_POINT('',(0.00508,0.00407420488639986,0.03947668));
#615=CARTESIAN_POINT('',(0.00508,-0.00635,0.03947668));
#616=CARTESIAN_POINT('',(-0.00714375,-0.00635,0.03947668));
#617=CARTESIAN_POINT('',(0.00714375,-0.00635,0.03947668));
#618=CARTESIAN_POINT('',(-0.00714375,-0.00731774,0.03947668));
#619=CARTESIAN_POINT('',(0.00714375,-0.00731774,0.03947668));
#620=CARTESIAN_POINT('',(0.,-0.00635,0.));
#621=CARTESIAN_POINT('',(0.00714375,-0.00635,0.03947668));
#622=CARTESIAN_POINT('',(0.00714375,-0.00635,0.03749294));
#623=CARTESIAN_POINT('',(0.00714375,-0.00635,0.03749294));
#624=CARTESIAN_POINT('',(0.00714375,-0.00635,0.03749294));
#625=CARTESIAN_POINT('',(-0.00714375,-0.00635,0.03749294));
#626=CARTESIAN_POINT('',(-0.00714375,-0.00635,0.03947668));
#627=CARTESIAN_POINT('',(0.00508,-0.00407420488639986,0.03947668));
#628=CARTESIAN_POINT('',(-0.00714375,0.00731774,0.03947668));
#629=CARTESIAN_POINT('',(-0.00714375,0.00635,0.03947668));
#630=CARTESIAN_POINT('',(0.00508,0.00635,0.03947668));
#631=CARTESIAN_POINT('',(0.00714375,0.00635,0.03947668));
#632=CARTESIAN_POINT('',(0.00714375,0.00731774,0.03947668));
#633=CARTESIAN_POINT('',(0.,0.00635,0.));
#634=CARTESIAN_POINT('',(-0.00714375,0.00635,0.03947668));
#635=CARTESIAN_POINT('',(-0.00714375,0.00635,0.03749294));
#636=CARTESIAN_POINT('',(0.00714375,0.00635,0.03749294));
#637=CARTESIAN_POINT('',(0.00714375,0.00635,0.03749294));
#638=CARTESIAN_POINT('',(0.00714375,0.00635,0.03749294));
#639=CARTESIAN_POINT('',(0.00714375,0.00635,0.03947668));
#640=CARTESIAN_POINT('',(-0.00714375,-0.00731774,0.03749294));
#641=CARTESIAN_POINT('',(-0.00714375,-0.00731774,0.03749294));
#642=CARTESIAN_POINT('',(0.00714375,-0.00731774,0.03749294));
#643=CARTESIAN_POINT('',(0.00714375,-0.00731774,0.03749294));
#644=CARTESIAN_POINT('',(0.00714375,-0.00731774,0.03749294));
#645=CARTESIAN_POINT('',(0.00714375,-0.00731774,0.03749294));
#646=CARTESIAN_POINT('',(-0.00714375,0.00731774,0.03749294));
#647=CARTESIAN_POINT('',(-0.00714375,0.00731774,0.03749294));
#648=CARTESIAN_POINT('',(0.00714375,0.00731774,0.03749294));
#649=CARTESIAN_POINT('',(0.00714375,0.00731774,0.03749294));
#650=CARTESIAN_POINT('',(0.00714375,0.00731774,0.03749294));
#651=CARTESIAN_POINT('',(0.00714375,0.00731774,0.03749294));
#652=CARTESIAN_POINT('',(0.004699,-0.00731774,0.0365648589921197));
#653=CARTESIAN_POINT('',(-0.004699,-0.00731774,0.0365648589921197));
#654=MECHANICAL_DESIGN_GEOMETRIC_PRESENTATION_REPRESENTATION('',(#399),
#655);
#655=(
GEOMETRIC_REPRESENTATION_CONTEXT(3)
GLOBAL_UNCERTAINTY_ASSIGNED_CONTEXT((#656))
GLOBAL_UNIT_ASSIGNED_CONTEXT((#659,#658,#657))
REPRESENTATION_CONTEXT('Part 128','TOP_LEVEL_ASSEMBLY_PART')
);
#656=UNCERTAINTY_MEASURE_WITH_UNIT(LENGTH_MEASURE(1.E-8),#659,
'DISTANCE_ACCURACY_VALUE','Maximum Tolerance applied to model');
#657=(
NAMED_UNIT(*)
SI_UNIT($,.STERADIAN.)
SOLID_ANGLE_UNIT()
);
#658=(
NAMED_UNIT(*)
PLANE_ANGLE_UNIT()
SI_UNIT($,.RADIAN.)
);
#659=(
LENGTH_UNIT()
NAMED_UNIT(*)
SI_UNIT($,.METRE.)
);
#660=PRODUCT_DEFINITION_SHAPE('','',#661);
#661=PRODUCT_DEFINITION('','',#663,#662);
#662=PRODUCT_DEFINITION_CONTEXT('',#669,'design');
#663=PRODUCT_DEFINITION_FORMATION_WITH_SPECIFIED_SOURCE('','',#665,
 .NOT_KNOWN.);
#664=PRODUCT_RELATED_PRODUCT_CATEGORY('','',(#665));
#665=PRODUCT('Part 128','Part 128','Part 128',(#667));
#666=PRODUCT_CATEGORY('','');
#667=PRODUCT_CONTEXT('',#669,'mechanical');
#668=APPLICATION_PROTOCOL_DEFINITION('international standard',
'automotive_design',2010,#669);
#669=APPLICATION_CONTEXT(
'core data for automotive mechanical design processes');
ENDSEC;
END-ISO-10303-21;
