ISO-10303-21;
HEADER;
/* Generated by software containing ST-Developer
 * from STEP Tools, Inc. (www.steptools.com) 
 */

FILE_DESCRIPTION(
/* description */ (''),
/* implementation_level */ '2;1');

FILE_NAME(
/* name */ 
'C:/Users/Noah/3D Objects/ToolInterface/STEP/RollDriver.step',
/* time_stamp */ '2020-03-12T10:55:52-07:00',
/* author */ (''),
/* organization */ (''),
/* preprocessor_version */ 'ST-DEVELOPER v18',
/* originating_system */ 'Autodesk Translation Framework v8.12.0.6',
/* authorisation */ '');

FILE_SCHEMA (('AUTOMOTIVE_DESIGN { 1 0 10303 214 3 1 1 }'));
ENDSEC;

DATA;
#10=MECHANICAL_DESIGN_GEOMETRIC_PRESENTATION_REPRESENTATION('',(#13),#1012);
#11=SHAPE_REPRESENTATION_RELATIONSHIP('SRR','None',#1019,#12);
#12=ADVANCED_BREP_SHAPE_REPRESENTATION('',(#14),#1011);
#13=STYLED_ITEM('',(#1029),#14);
#14=MANIFOLD_SOLID_BREP('TI1-200-002_RollDriver',#559);
#15=LINE('',#908,#34);
#16=LINE('',#910,#35);
#17=LINE('',#912,#36);
#18=LINE('',#914,#37);
#19=LINE('',#919,#38);
#20=LINE('',#930,#39);
#21=LINE('',#941,#40);
#22=LINE('',#952,#41);
#23=LINE('',#960,#42);
#24=LINE('',#962,#43);
#25=LINE('',#964,#44);
#26=LINE('',#966,#45);
#27=LINE('',#975,#46);
#28=LINE('',#998,#47);
#29=LINE('',#1000,#48);
#30=LINE('',#1002,#49);
#31=LINE('',#1004,#50);
#32=LINE('',#1006,#51);
#33=LINE('',#1008,#52);
#34=VECTOR('',#724,0.5);
#35=VECTOR('',#727,0.499999999999999);
#36=VECTOR('',#730,0.5);
#37=VECTOR('',#733,0.5);
#38=VECTOR('',#738,2.);
#39=VECTOR('',#751,2.);
#40=VECTOR('',#764,2.);
#41=VECTOR('',#777,2.);
#42=VECTOR('',#788,1.);
#43=VECTOR('',#791,1.);
#44=VECTOR('',#794,1.);
#45=VECTOR('',#797,1.);
#46=VECTOR('',#808,9.);
#47=VECTOR('',#833,2.8);
#48=VECTOR('',#836,8.5);
#49=VECTOR('',#839,1.9);
#50=VECTOR('',#842,1.9);
#51=VECTOR('',#845,1.9);
#52=VECTOR('',#848,1.9);
#53=CYLINDRICAL_SURFACE('',#604,0.5);
#54=CYLINDRICAL_SURFACE('',#605,0.499999999999999);
#55=CYLINDRICAL_SURFACE('',#606,0.5);
#56=CYLINDRICAL_SURFACE('',#607,0.5);
#57=CYLINDRICAL_SURFACE('',#608,2.);
#58=CYLINDRICAL_SURFACE('',#614,2.);
#59=CYLINDRICAL_SURFACE('',#620,2.);
#60=CYLINDRICAL_SURFACE('',#626,2.);
#61=CYLINDRICAL_SURFACE('',#632,1.);
#62=CYLINDRICAL_SURFACE('',#633,1.);
#63=CYLINDRICAL_SURFACE('',#634,1.);
#64=CYLINDRICAL_SURFACE('',#635,1.);
#65=CYLINDRICAL_SURFACE('',#639,9.);
#66=CYLINDRICAL_SURFACE('',#652,2.8);
#67=CYLINDRICAL_SURFACE('',#653,8.5);
#68=CYLINDRICAL_SURFACE('',#654,1.9);
#69=CYLINDRICAL_SURFACE('',#655,1.9);
#70=CYLINDRICAL_SURFACE('',#656,1.9);
#71=CYLINDRICAL_SURFACE('',#657,1.9);
#72=FACE_BOUND('',#130,.T.);
#73=FACE_BOUND('',#131,.T.);
#74=FACE_BOUND('',#132,.T.);
#75=FACE_BOUND('',#133,.T.);
#76=FACE_BOUND('',#134,.T.);
#77=FACE_BOUND('',#135,.T.);
#78=FACE_BOUND('',#136,.T.);
#79=FACE_BOUND('',#137,.T.);
#80=FACE_BOUND('',#138,.T.);
#81=FACE_BOUND('',#140,.T.);
#82=FACE_BOUND('',#142,.T.);
#83=FACE_BOUND('',#144,.T.);
#84=FACE_BOUND('',#146,.T.);
#85=FACE_BOUND('',#153,.T.);
#86=FACE_BOUND('',#156,.T.);
#87=FACE_BOUND('',#159,.T.);
#88=FACE_BOUND('',#162,.T.);
#89=FACE_BOUND('',#168,.T.);
#90=FACE_BOUND('',#171,.T.);
#91=FACE_BOUND('',#172,.T.);
#92=FACE_BOUND('',#173,.T.);
#93=FACE_BOUND('',#174,.T.);
#94=FACE_BOUND('',#175,.T.);
#95=FACE_BOUND('',#176,.T.);
#96=FACE_BOUND('',#177,.T.);
#97=FACE_BOUND('',#178,.T.);
#98=FACE_BOUND('',#179,.T.);
#99=FACE_OUTER_BOUND('',#129,.T.);
#100=FACE_OUTER_BOUND('',#139,.T.);
#101=FACE_OUTER_BOUND('',#141,.T.);
#102=FACE_OUTER_BOUND('',#143,.T.);
#103=FACE_OUTER_BOUND('',#145,.T.);
#104=FACE_OUTER_BOUND('',#147,.T.);
#105=FACE_OUTER_BOUND('',#148,.T.);
#106=FACE_OUTER_BOUND('',#149,.T.);
#107=FACE_OUTER_BOUND('',#150,.T.);
#108=FACE_OUTER_BOUND('',#151,.T.);
#109=FACE_OUTER_BOUND('',#152,.T.);
#110=FACE_OUTER_BOUND('',#154,.T.);
#111=FACE_OUTER_BOUND('',#155,.T.);
#112=FACE_OUTER_BOUND('',#157,.T.);
#113=FACE_OUTER_BOUND('',#158,.T.);
#114=FACE_OUTER_BOUND('',#160,.T.);
#115=FACE_OUTER_BOUND('',#161,.T.);
#116=FACE_OUTER_BOUND('',#163,.T.);
#117=FACE_OUTER_BOUND('',#164,.T.);
#118=FACE_OUTER_BOUND('',#165,.T.);
#119=FACE_OUTER_BOUND('',#166,.T.);
#120=FACE_OUTER_BOUND('',#167,.T.);
#121=FACE_OUTER_BOUND('',#169,.T.);
#122=FACE_OUTER_BOUND('',#170,.T.);
#123=FACE_OUTER_BOUND('',#180,.T.);
#124=FACE_OUTER_BOUND('',#181,.T.);
#125=FACE_OUTER_BOUND('',#182,.T.);
#126=FACE_OUTER_BOUND('',#183,.T.);
#127=FACE_OUTER_BOUND('',#184,.T.);
#128=FACE_OUTER_BOUND('',#185,.T.);
#129=EDGE_LOOP('',(#370));
#130=EDGE_LOOP('',(#371));
#131=EDGE_LOOP('',(#372));
#132=EDGE_LOOP('',(#373));
#133=EDGE_LOOP('',(#374));
#134=EDGE_LOOP('',(#375));
#135=EDGE_LOOP('',(#376,#377));
#136=EDGE_LOOP('',(#378,#379));
#137=EDGE_LOOP('',(#380,#381));
#138=EDGE_LOOP('',(#382,#383));
#139=EDGE_LOOP('',(#384,#385));
#140=EDGE_LOOP('',(#386));
#141=EDGE_LOOP('',(#387,#388));
#142=EDGE_LOOP('',(#389));
#143=EDGE_LOOP('',(#390,#391));
#144=EDGE_LOOP('',(#392));
#145=EDGE_LOOP('',(#393,#394));
#146=EDGE_LOOP('',(#395));
#147=EDGE_LOOP('',(#396,#397,#398,#399,#400));
#148=EDGE_LOOP('',(#401,#402,#403,#404,#405));
#149=EDGE_LOOP('',(#406,#407,#408,#409,#410));
#150=EDGE_LOOP('',(#411,#412,#413,#414,#415));
#151=EDGE_LOOP('',(#416,#417,#418,#419));
#152=EDGE_LOOP('',(#420));
#153=EDGE_LOOP('',(#421,#422));
#154=EDGE_LOOP('',(#423,#424,#425,#426));
#155=EDGE_LOOP('',(#427));
#156=EDGE_LOOP('',(#428,#429));
#157=EDGE_LOOP('',(#430,#431,#432,#433));
#158=EDGE_LOOP('',(#434));
#159=EDGE_LOOP('',(#435,#436));
#160=EDGE_LOOP('',(#437,#438,#439,#440));
#161=EDGE_LOOP('',(#441));
#162=EDGE_LOOP('',(#442,#443));
#163=EDGE_LOOP('',(#444,#445,#446,#447,#448));
#164=EDGE_LOOP('',(#449,#450,#451,#452,#453));
#165=EDGE_LOOP('',(#454,#455,#456,#457,#458));
#166=EDGE_LOOP('',(#459,#460,#461,#462,#463));
#167=EDGE_LOOP('',(#464));
#168=EDGE_LOOP('',(#465));
#169=EDGE_LOOP('',(#466,#467,#468,#469));
#170=EDGE_LOOP('',(#470));
#171=EDGE_LOOP('',(#471));
#172=EDGE_LOOP('',(#472));
#173=EDGE_LOOP('',(#473));
#174=EDGE_LOOP('',(#474));
#175=EDGE_LOOP('',(#475,#476));
#176=EDGE_LOOP('',(#477,#478));
#177=EDGE_LOOP('',(#479,#480));
#178=EDGE_LOOP('',(#481,#482));
#179=EDGE_LOOP('',(#483,#484));
#180=EDGE_LOOP('',(#485,#486,#487,#488,#489));
#181=EDGE_LOOP('',(#490,#491,#492,#493));
#182=EDGE_LOOP('',(#494,#495,#496,#497,#498,#499));
#183=EDGE_LOOP('',(#500,#501,#502,#503,#504,#505));
#184=EDGE_LOOP('',(#506,#507,#508,#509,#510,#511));
#185=EDGE_LOOP('',(#512,#513,#514,#515,#516,#517));
#186=CIRCLE('',#574,8.5);
#187=CIRCLE('',#575,2.8);
#188=CIRCLE('',#576,1.);
#189=CIRCLE('',#577,1.);
#190=CIRCLE('',#578,1.);
#191=CIRCLE('',#579,1.);
#192=CIRCLE('',#580,0.5);
#193=CIRCLE('',#581,0.5);
#194=CIRCLE('',#582,0.499999999999999);
#195=CIRCLE('',#583,0.499999999999999);
#196=CIRCLE('',#584,0.5);
#197=CIRCLE('',#585,0.5);
#198=CIRCLE('',#586,0.5);
#199=CIRCLE('',#587,0.5);
#200=CIRCLE('',#589,1.9);
#201=CIRCLE('',#590,1.9);
#202=CIRCLE('',#591,0.5);
#203=CIRCLE('',#593,1.9);
#204=CIRCLE('',#594,1.9);
#205=CIRCLE('',#595,0.5);
#206=CIRCLE('',#597,1.9);
#207=CIRCLE('',#598,1.9);
#208=CIRCLE('',#599,0.499999999999999);
#209=CIRCLE('',#601,1.9);
#210=CIRCLE('',#602,1.9);
#211=CIRCLE('',#603,0.5);
#212=CIRCLE('',#609,2.);
#213=CIRCLE('',#610,2.);
#214=CIRCLE('',#612,1.);
#215=CIRCLE('',#613,1.);
#216=CIRCLE('',#615,2.);
#217=CIRCLE('',#616,2.);
#218=CIRCLE('',#618,1.);
#219=CIRCLE('',#619,1.);
#220=CIRCLE('',#621,2.);
#221=CIRCLE('',#622,2.);
#222=CIRCLE('',#624,1.);
#223=CIRCLE('',#625,1.);
#224=CIRCLE('',#627,2.);
#225=CIRCLE('',#628,2.);
#226=CIRCLE('',#630,1.);
#227=CIRCLE('',#631,1.);
#228=CIRCLE('',#637,9.);
#229=CIRCLE('',#638,8.5);
#230=CIRCLE('',#640,9.);
#231=CIRCLE('',#642,2.8);
#232=CIRCLE('',#643,2.8);
#233=CIRCLE('',#644,1.9);
#234=CIRCLE('',#645,1.9);
#235=CIRCLE('',#646,1.9);
#236=CIRCLE('',#647,1.9);
#237=CIRCLE('',#648,1.9);
#238=CIRCLE('',#649,1.9);
#239=CIRCLE('',#650,1.9);
#240=CIRCLE('',#651,1.9);
#241=VERTEX_POINT('',#851);
#242=VERTEX_POINT('',#853);
#243=VERTEX_POINT('',#855);
#244=VERTEX_POINT('',#857);
#245=VERTEX_POINT('',#859);
#246=VERTEX_POINT('',#861);
#247=VERTEX_POINT('',#863);
#248=VERTEX_POINT('',#864);
#249=VERTEX_POINT('',#867);
#250=VERTEX_POINT('',#868);
#251=VERTEX_POINT('',#871);
#252=VERTEX_POINT('',#872);
#253=VERTEX_POINT('',#875);
#254=VERTEX_POINT('',#876);
#255=VERTEX_POINT('',#880);
#256=VERTEX_POINT('',#881);
#257=VERTEX_POINT('',#884);
#258=VERTEX_POINT('',#887);
#259=VERTEX_POINT('',#888);
#260=VERTEX_POINT('',#891);
#261=VERTEX_POINT('',#894);
#262=VERTEX_POINT('',#895);
#263=VERTEX_POINT('',#898);
#264=VERTEX_POINT('',#901);
#265=VERTEX_POINT('',#902);
#266=VERTEX_POINT('',#905);
#267=VERTEX_POINT('',#916);
#268=VERTEX_POINT('',#918);
#269=VERTEX_POINT('',#922);
#270=VERTEX_POINT('',#923);
#271=VERTEX_POINT('',#927);
#272=VERTEX_POINT('',#929);
#273=VERTEX_POINT('',#933);
#274=VERTEX_POINT('',#934);
#275=VERTEX_POINT('',#938);
#276=VERTEX_POINT('',#940);
#277=VERTEX_POINT('',#944);
#278=VERTEX_POINT('',#945);
#279=VERTEX_POINT('',#949);
#280=VERTEX_POINT('',#951);
#281=VERTEX_POINT('',#955);
#282=VERTEX_POINT('',#956);
#283=VERTEX_POINT('',#968);
#284=VERTEX_POINT('',#970);
#285=VERTEX_POINT('',#973);
#286=VERTEX_POINT('',#977);
#287=VERTEX_POINT('',#978);
#288=VERTEX_POINT('',#981);
#289=VERTEX_POINT('',#982);
#290=VERTEX_POINT('',#985);
#291=VERTEX_POINT('',#986);
#292=VERTEX_POINT('',#989);
#293=VERTEX_POINT('',#990);
#294=VERTEX_POINT('',#993);
#295=VERTEX_POINT('',#994);
#296=EDGE_CURVE('',#241,#241,#186,.T.);
#297=EDGE_CURVE('',#242,#242,#187,.T.);
#298=EDGE_CURVE('',#243,#243,#188,.T.);
#299=EDGE_CURVE('',#244,#244,#189,.T.);
#300=EDGE_CURVE('',#245,#245,#190,.T.);
#301=EDGE_CURVE('',#246,#246,#191,.T.);
#302=EDGE_CURVE('',#247,#248,#192,.T.);
#303=EDGE_CURVE('',#248,#247,#193,.T.);
#304=EDGE_CURVE('',#249,#250,#194,.T.);
#305=EDGE_CURVE('',#250,#249,#195,.T.);
#306=EDGE_CURVE('',#251,#252,#196,.T.);
#307=EDGE_CURVE('',#252,#251,#197,.T.);
#308=EDGE_CURVE('',#253,#254,#198,.T.);
#309=EDGE_CURVE('',#254,#253,#199,.T.);
#310=EDGE_CURVE('',#255,#256,#200,.T.);
#311=EDGE_CURVE('',#256,#255,#201,.T.);
#312=EDGE_CURVE('',#257,#257,#202,.T.);
#313=EDGE_CURVE('',#258,#259,#203,.T.);
#314=EDGE_CURVE('',#259,#258,#204,.T.);
#315=EDGE_CURVE('',#260,#260,#205,.T.);
#316=EDGE_CURVE('',#261,#262,#206,.T.);
#317=EDGE_CURVE('',#262,#261,#207,.T.);
#318=EDGE_CURVE('',#263,#263,#208,.T.);
#319=EDGE_CURVE('',#264,#265,#209,.T.);
#320=EDGE_CURVE('',#265,#264,#210,.T.);
#321=EDGE_CURVE('',#266,#266,#211,.T.);
#322=EDGE_CURVE('',#257,#248,#15,.T.);
#323=EDGE_CURVE('',#263,#250,#16,.T.);
#324=EDGE_CURVE('',#266,#252,#17,.T.);
#325=EDGE_CURVE('',#260,#254,#18,.T.);
#326=EDGE_CURVE('',#267,#267,#212,.T.);
#327=EDGE_CURVE('',#267,#268,#19,.T.);
#328=EDGE_CURVE('',#268,#268,#213,.T.);
#329=EDGE_CURVE('',#269,#270,#214,.T.);
#330=EDGE_CURVE('',#270,#269,#215,.T.);
#331=EDGE_CURVE('',#271,#271,#216,.T.);
#332=EDGE_CURVE('',#271,#272,#20,.T.);
#333=EDGE_CURVE('',#272,#272,#217,.T.);
#334=EDGE_CURVE('',#273,#274,#218,.T.);
#335=EDGE_CURVE('',#274,#273,#219,.T.);
#336=EDGE_CURVE('',#275,#275,#220,.T.);
#337=EDGE_CURVE('',#275,#276,#21,.T.);
#338=EDGE_CURVE('',#276,#276,#221,.T.);
#339=EDGE_CURVE('',#277,#278,#222,.T.);
#340=EDGE_CURVE('',#278,#277,#223,.T.);
#341=EDGE_CURVE('',#279,#279,#224,.T.);
#342=EDGE_CURVE('',#279,#280,#22,.T.);
#343=EDGE_CURVE('',#280,#280,#225,.T.);
#344=EDGE_CURVE('',#281,#282,#226,.T.);
#345=EDGE_CURVE('',#282,#281,#227,.T.);
#346=EDGE_CURVE('',#243,#282,#23,.T.);
#347=EDGE_CURVE('',#244,#278,#24,.T.);
#348=EDGE_CURVE('',#245,#270,#25,.T.);
#349=EDGE_CURVE('',#246,#274,#26,.T.);
#350=EDGE_CURVE('',#283,#283,#228,.T.);
#351=EDGE_CURVE('',#284,#284,#229,.T.);
#352=EDGE_CURVE('',#285,#285,#230,.T.);
#353=EDGE_CURVE('',#285,#283,#27,.T.);
#354=EDGE_CURVE('',#286,#287,#231,.T.);
#355=EDGE_CURVE('',#287,#286,#232,.T.);
#356=EDGE_CURVE('',#288,#289,#233,.T.);
#357=EDGE_CURVE('',#289,#288,#234,.T.);
#358=EDGE_CURVE('',#290,#291,#235,.T.);
#359=EDGE_CURVE('',#291,#290,#236,.T.);
#360=EDGE_CURVE('',#292,#293,#237,.T.);
#361=EDGE_CURVE('',#293,#292,#238,.T.);
#362=EDGE_CURVE('',#294,#295,#239,.T.);
#363=EDGE_CURVE('',#295,#294,#240,.T.);
#364=EDGE_CURVE('',#287,#242,#28,.T.);
#365=EDGE_CURVE('',#241,#284,#29,.T.);
#366=EDGE_CURVE('',#289,#265,#30,.T.);
#367=EDGE_CURVE('',#291,#262,#31,.T.);
#368=EDGE_CURVE('',#293,#259,#32,.T.);
#369=EDGE_CURVE('',#295,#256,#33,.T.);
#370=ORIENTED_EDGE('',*,*,#296,.F.);
#371=ORIENTED_EDGE('',*,*,#297,.F.);
#372=ORIENTED_EDGE('',*,*,#298,.F.);
#373=ORIENTED_EDGE('',*,*,#299,.F.);
#374=ORIENTED_EDGE('',*,*,#300,.F.);
#375=ORIENTED_EDGE('',*,*,#301,.F.);
#376=ORIENTED_EDGE('',*,*,#302,.F.);
#377=ORIENTED_EDGE('',*,*,#303,.F.);
#378=ORIENTED_EDGE('',*,*,#304,.F.);
#379=ORIENTED_EDGE('',*,*,#305,.F.);
#380=ORIENTED_EDGE('',*,*,#306,.F.);
#381=ORIENTED_EDGE('',*,*,#307,.F.);
#382=ORIENTED_EDGE('',*,*,#308,.F.);
#383=ORIENTED_EDGE('',*,*,#309,.F.);
#384=ORIENTED_EDGE('',*,*,#310,.F.);
#385=ORIENTED_EDGE('',*,*,#311,.F.);
#386=ORIENTED_EDGE('',*,*,#312,.F.);
#387=ORIENTED_EDGE('',*,*,#313,.F.);
#388=ORIENTED_EDGE('',*,*,#314,.F.);
#389=ORIENTED_EDGE('',*,*,#315,.F.);
#390=ORIENTED_EDGE('',*,*,#316,.F.);
#391=ORIENTED_EDGE('',*,*,#317,.F.);
#392=ORIENTED_EDGE('',*,*,#318,.F.);
#393=ORIENTED_EDGE('',*,*,#319,.F.);
#394=ORIENTED_EDGE('',*,*,#320,.F.);
#395=ORIENTED_EDGE('',*,*,#321,.F.);
#396=ORIENTED_EDGE('',*,*,#312,.T.);
#397=ORIENTED_EDGE('',*,*,#322,.T.);
#398=ORIENTED_EDGE('',*,*,#303,.T.);
#399=ORIENTED_EDGE('',*,*,#302,.T.);
#400=ORIENTED_EDGE('',*,*,#322,.F.);
#401=ORIENTED_EDGE('',*,*,#318,.T.);
#402=ORIENTED_EDGE('',*,*,#323,.T.);
#403=ORIENTED_EDGE('',*,*,#305,.T.);
#404=ORIENTED_EDGE('',*,*,#304,.T.);
#405=ORIENTED_EDGE('',*,*,#323,.F.);
#406=ORIENTED_EDGE('',*,*,#321,.T.);
#407=ORIENTED_EDGE('',*,*,#324,.T.);
#408=ORIENTED_EDGE('',*,*,#307,.T.);
#409=ORIENTED_EDGE('',*,*,#306,.T.);
#410=ORIENTED_EDGE('',*,*,#324,.F.);
#411=ORIENTED_EDGE('',*,*,#315,.T.);
#412=ORIENTED_EDGE('',*,*,#325,.T.);
#413=ORIENTED_EDGE('',*,*,#309,.T.);
#414=ORIENTED_EDGE('',*,*,#308,.T.);
#415=ORIENTED_EDGE('',*,*,#325,.F.);
#416=ORIENTED_EDGE('',*,*,#326,.F.);
#417=ORIENTED_EDGE('',*,*,#327,.T.);
#418=ORIENTED_EDGE('',*,*,#328,.T.);
#419=ORIENTED_EDGE('',*,*,#327,.F.);
#420=ORIENTED_EDGE('',*,*,#328,.F.);
#421=ORIENTED_EDGE('',*,*,#329,.F.);
#422=ORIENTED_EDGE('',*,*,#330,.F.);
#423=ORIENTED_EDGE('',*,*,#331,.F.);
#424=ORIENTED_EDGE('',*,*,#332,.T.);
#425=ORIENTED_EDGE('',*,*,#333,.T.);
#426=ORIENTED_EDGE('',*,*,#332,.F.);
#427=ORIENTED_EDGE('',*,*,#333,.F.);
#428=ORIENTED_EDGE('',*,*,#334,.F.);
#429=ORIENTED_EDGE('',*,*,#335,.F.);
#430=ORIENTED_EDGE('',*,*,#336,.F.);
#431=ORIENTED_EDGE('',*,*,#337,.T.);
#432=ORIENTED_EDGE('',*,*,#338,.T.);
#433=ORIENTED_EDGE('',*,*,#337,.F.);
#434=ORIENTED_EDGE('',*,*,#338,.F.);
#435=ORIENTED_EDGE('',*,*,#339,.F.);
#436=ORIENTED_EDGE('',*,*,#340,.F.);
#437=ORIENTED_EDGE('',*,*,#341,.F.);
#438=ORIENTED_EDGE('',*,*,#342,.T.);
#439=ORIENTED_EDGE('',*,*,#343,.T.);
#440=ORIENTED_EDGE('',*,*,#342,.F.);
#441=ORIENTED_EDGE('',*,*,#343,.F.);
#442=ORIENTED_EDGE('',*,*,#344,.F.);
#443=ORIENTED_EDGE('',*,*,#345,.F.);
#444=ORIENTED_EDGE('',*,*,#298,.T.);
#445=ORIENTED_EDGE('',*,*,#346,.T.);
#446=ORIENTED_EDGE('',*,*,#345,.T.);
#447=ORIENTED_EDGE('',*,*,#344,.T.);
#448=ORIENTED_EDGE('',*,*,#346,.F.);
#449=ORIENTED_EDGE('',*,*,#299,.T.);
#450=ORIENTED_EDGE('',*,*,#347,.T.);
#451=ORIENTED_EDGE('',*,*,#340,.T.);
#452=ORIENTED_EDGE('',*,*,#339,.T.);
#453=ORIENTED_EDGE('',*,*,#347,.F.);
#454=ORIENTED_EDGE('',*,*,#300,.T.);
#455=ORIENTED_EDGE('',*,*,#348,.T.);
#456=ORIENTED_EDGE('',*,*,#330,.T.);
#457=ORIENTED_EDGE('',*,*,#329,.T.);
#458=ORIENTED_EDGE('',*,*,#348,.F.);
#459=ORIENTED_EDGE('',*,*,#301,.T.);
#460=ORIENTED_EDGE('',*,*,#349,.T.);
#461=ORIENTED_EDGE('',*,*,#335,.T.);
#462=ORIENTED_EDGE('',*,*,#334,.T.);
#463=ORIENTED_EDGE('',*,*,#349,.F.);
#464=ORIENTED_EDGE('',*,*,#350,.T.);
#465=ORIENTED_EDGE('',*,*,#351,.T.);
#466=ORIENTED_EDGE('',*,*,#352,.F.);
#467=ORIENTED_EDGE('',*,*,#353,.T.);
#468=ORIENTED_EDGE('',*,*,#350,.F.);
#469=ORIENTED_EDGE('',*,*,#353,.F.);
#470=ORIENTED_EDGE('',*,*,#352,.T.);
#471=ORIENTED_EDGE('',*,*,#326,.T.);
#472=ORIENTED_EDGE('',*,*,#331,.T.);
#473=ORIENTED_EDGE('',*,*,#336,.T.);
#474=ORIENTED_EDGE('',*,*,#341,.T.);
#475=ORIENTED_EDGE('',*,*,#354,.T.);
#476=ORIENTED_EDGE('',*,*,#355,.T.);
#477=ORIENTED_EDGE('',*,*,#356,.F.);
#478=ORIENTED_EDGE('',*,*,#357,.F.);
#479=ORIENTED_EDGE('',*,*,#358,.F.);
#480=ORIENTED_EDGE('',*,*,#359,.F.);
#481=ORIENTED_EDGE('',*,*,#360,.F.);
#482=ORIENTED_EDGE('',*,*,#361,.F.);
#483=ORIENTED_EDGE('',*,*,#362,.F.);
#484=ORIENTED_EDGE('',*,*,#363,.F.);
#485=ORIENTED_EDGE('',*,*,#354,.F.);
#486=ORIENTED_EDGE('',*,*,#355,.F.);
#487=ORIENTED_EDGE('',*,*,#364,.T.);
#488=ORIENTED_EDGE('',*,*,#297,.T.);
#489=ORIENTED_EDGE('',*,*,#364,.F.);
#490=ORIENTED_EDGE('',*,*,#296,.T.);
#491=ORIENTED_EDGE('',*,*,#365,.T.);
#492=ORIENTED_EDGE('',*,*,#351,.F.);
#493=ORIENTED_EDGE('',*,*,#365,.F.);
#494=ORIENTED_EDGE('',*,*,#356,.T.);
#495=ORIENTED_EDGE('',*,*,#366,.T.);
#496=ORIENTED_EDGE('',*,*,#320,.T.);
#497=ORIENTED_EDGE('',*,*,#319,.T.);
#498=ORIENTED_EDGE('',*,*,#366,.F.);
#499=ORIENTED_EDGE('',*,*,#357,.T.);
#500=ORIENTED_EDGE('',*,*,#358,.T.);
#501=ORIENTED_EDGE('',*,*,#367,.T.);
#502=ORIENTED_EDGE('',*,*,#317,.T.);
#503=ORIENTED_EDGE('',*,*,#316,.T.);
#504=ORIENTED_EDGE('',*,*,#367,.F.);
#505=ORIENTED_EDGE('',*,*,#359,.T.);
#506=ORIENTED_EDGE('',*,*,#360,.T.);
#507=ORIENTED_EDGE('',*,*,#368,.T.);
#508=ORIENTED_EDGE('',*,*,#314,.T.);
#509=ORIENTED_EDGE('',*,*,#313,.T.);
#510=ORIENTED_EDGE('',*,*,#368,.F.);
#511=ORIENTED_EDGE('',*,*,#361,.T.);
#512=ORIENTED_EDGE('',*,*,#362,.T.);
#513=ORIENTED_EDGE('',*,*,#369,.T.);
#514=ORIENTED_EDGE('',*,*,#311,.T.);
#515=ORIENTED_EDGE('',*,*,#310,.T.);
#516=ORIENTED_EDGE('',*,*,#369,.F.);
#517=ORIENTED_EDGE('',*,*,#363,.T.);
#518=PLANE('',#573);
#519=PLANE('',#588);
#520=PLANE('',#592);
#521=PLANE('',#596);
#522=PLANE('',#600);
#523=PLANE('',#611);
#524=PLANE('',#617);
#525=PLANE('',#623);
#526=PLANE('',#629);
#527=PLANE('',#636);
#528=PLANE('',#641);
#529=ADVANCED_FACE('',(#99,#72,#73,#74,#75,#76,#77,#78,#79,#80),#518,.T.);
#530=ADVANCED_FACE('',(#100,#81),#519,.F.);
#531=ADVANCED_FACE('',(#101,#82),#520,.F.);
#532=ADVANCED_FACE('',(#102,#83),#521,.F.);
#533=ADVANCED_FACE('',(#103,#84),#522,.F.);
#534=ADVANCED_FACE('',(#104),#53,.F.);
#535=ADVANCED_FACE('',(#105),#54,.F.);
#536=ADVANCED_FACE('',(#106),#55,.F.);
#537=ADVANCED_FACE('',(#107),#56,.F.);
#538=ADVANCED_FACE('',(#108),#57,.F.);
#539=ADVANCED_FACE('',(#109,#85),#523,.F.);
#540=ADVANCED_FACE('',(#110),#58,.F.);
#541=ADVANCED_FACE('',(#111,#86),#524,.F.);
#542=ADVANCED_FACE('',(#112),#59,.F.);
#543=ADVANCED_FACE('',(#113,#87),#525,.F.);
#544=ADVANCED_FACE('',(#114),#60,.F.);
#545=ADVANCED_FACE('',(#115,#88),#526,.F.);
#546=ADVANCED_FACE('',(#116),#61,.F.);
#547=ADVANCED_FACE('',(#117),#62,.F.);
#548=ADVANCED_FACE('',(#118),#63,.F.);
#549=ADVANCED_FACE('',(#119),#64,.F.);
#550=ADVANCED_FACE('',(#120,#89),#527,.T.);
#551=ADVANCED_FACE('',(#121),#65,.T.);
#552=ADVANCED_FACE('',(#122,#90,#91,#92,#93,#94,#95,#96,#97,#98),#528,.F.);
#553=ADVANCED_FACE('',(#123),#66,.F.);
#554=ADVANCED_FACE('',(#124),#67,.T.);
#555=ADVANCED_FACE('',(#125),#68,.T.);
#556=ADVANCED_FACE('',(#126),#69,.T.);
#557=ADVANCED_FACE('',(#127),#70,.T.);
#558=ADVANCED_FACE('',(#128),#71,.T.);
#559=CLOSED_SHELL('',(#529,#530,#531,#532,#533,#534,#535,#536,#537,#538,
#539,#540,#541,#542,#543,#544,#545,#546,#547,#548,#549,#550,#551,#552,#553,
#554,#555,#556,#557,#558));
#560=DERIVED_UNIT_ELEMENT(#562,1.);
#561=DERIVED_UNIT_ELEMENT(#1014,3.);
#562=(
MASS_UNIT()
NAMED_UNIT(*)
SI_UNIT(.KILO.,.GRAM.)
);
#563=DERIVED_UNIT((#560,#561));
#564=MEASURE_REPRESENTATION_ITEM('density measure',
POSITIVE_RATIO_MEASURE(1000.),#563);
#565=PROPERTY_DEFINITION_REPRESENTATION(#570,#567);
#566=PROPERTY_DEFINITION_REPRESENTATION(#571,#568);
#567=REPRESENTATION('material name',(#569),#1011);
#568=REPRESENTATION('density',(#564),#1011);
#569=DESCRIPTIVE_REPRESENTATION_ITEM('Generic','Generic');
#570=PROPERTY_DEFINITION('material property','material name',#1021);
#571=PROPERTY_DEFINITION('material property','density of part',#1021);
#572=AXIS2_PLACEMENT_3D('placement',#849,#658,#659);
#573=AXIS2_PLACEMENT_3D('',#850,#660,#661);
#574=AXIS2_PLACEMENT_3D('',#852,#662,#663);
#575=AXIS2_PLACEMENT_3D('',#854,#664,#665);
#576=AXIS2_PLACEMENT_3D('',#856,#666,#667);
#577=AXIS2_PLACEMENT_3D('',#858,#668,#669);
#578=AXIS2_PLACEMENT_3D('',#860,#670,#671);
#579=AXIS2_PLACEMENT_3D('',#862,#672,#673);
#580=AXIS2_PLACEMENT_3D('',#865,#674,#675);
#581=AXIS2_PLACEMENT_3D('',#866,#676,#677);
#582=AXIS2_PLACEMENT_3D('',#869,#678,#679);
#583=AXIS2_PLACEMENT_3D('',#870,#680,#681);
#584=AXIS2_PLACEMENT_3D('',#873,#682,#683);
#585=AXIS2_PLACEMENT_3D('',#874,#684,#685);
#586=AXIS2_PLACEMENT_3D('',#877,#686,#687);
#587=AXIS2_PLACEMENT_3D('',#878,#688,#689);
#588=AXIS2_PLACEMENT_3D('',#879,#690,#691);
#589=AXIS2_PLACEMENT_3D('',#882,#692,#693);
#590=AXIS2_PLACEMENT_3D('',#883,#694,#695);
#591=AXIS2_PLACEMENT_3D('',#885,#696,#697);
#592=AXIS2_PLACEMENT_3D('',#886,#698,#699);
#593=AXIS2_PLACEMENT_3D('',#889,#700,#701);
#594=AXIS2_PLACEMENT_3D('',#890,#702,#703);
#595=AXIS2_PLACEMENT_3D('',#892,#704,#705);
#596=AXIS2_PLACEMENT_3D('',#893,#706,#707);
#597=AXIS2_PLACEMENT_3D('',#896,#708,#709);
#598=AXIS2_PLACEMENT_3D('',#897,#710,#711);
#599=AXIS2_PLACEMENT_3D('',#899,#712,#713);
#600=AXIS2_PLACEMENT_3D('',#900,#714,#715);
#601=AXIS2_PLACEMENT_3D('',#903,#716,#717);
#602=AXIS2_PLACEMENT_3D('',#904,#718,#719);
#603=AXIS2_PLACEMENT_3D('',#906,#720,#721);
#604=AXIS2_PLACEMENT_3D('',#907,#722,#723);
#605=AXIS2_PLACEMENT_3D('',#909,#725,#726);
#606=AXIS2_PLACEMENT_3D('',#911,#728,#729);
#607=AXIS2_PLACEMENT_3D('',#913,#731,#732);
#608=AXIS2_PLACEMENT_3D('',#915,#734,#735);
#609=AXIS2_PLACEMENT_3D('',#917,#736,#737);
#610=AXIS2_PLACEMENT_3D('',#920,#739,#740);
#611=AXIS2_PLACEMENT_3D('',#921,#741,#742);
#612=AXIS2_PLACEMENT_3D('',#924,#743,#744);
#613=AXIS2_PLACEMENT_3D('',#925,#745,#746);
#614=AXIS2_PLACEMENT_3D('',#926,#747,#748);
#615=AXIS2_PLACEMENT_3D('',#928,#749,#750);
#616=AXIS2_PLACEMENT_3D('',#931,#752,#753);
#617=AXIS2_PLACEMENT_3D('',#932,#754,#755);
#618=AXIS2_PLACEMENT_3D('',#935,#756,#757);
#619=AXIS2_PLACEMENT_3D('',#936,#758,#759);
#620=AXIS2_PLACEMENT_3D('',#937,#760,#761);
#621=AXIS2_PLACEMENT_3D('',#939,#762,#763);
#622=AXIS2_PLACEMENT_3D('',#942,#765,#766);
#623=AXIS2_PLACEMENT_3D('',#943,#767,#768);
#624=AXIS2_PLACEMENT_3D('',#946,#769,#770);
#625=AXIS2_PLACEMENT_3D('',#947,#771,#772);
#626=AXIS2_PLACEMENT_3D('',#948,#773,#774);
#627=AXIS2_PLACEMENT_3D('',#950,#775,#776);
#628=AXIS2_PLACEMENT_3D('',#953,#778,#779);
#629=AXIS2_PLACEMENT_3D('',#954,#780,#781);
#630=AXIS2_PLACEMENT_3D('',#957,#782,#783);
#631=AXIS2_PLACEMENT_3D('',#958,#784,#785);
#632=AXIS2_PLACEMENT_3D('',#959,#786,#787);
#633=AXIS2_PLACEMENT_3D('',#961,#789,#790);
#634=AXIS2_PLACEMENT_3D('',#963,#792,#793);
#635=AXIS2_PLACEMENT_3D('',#965,#795,#796);
#636=AXIS2_PLACEMENT_3D('',#967,#798,#799);
#637=AXIS2_PLACEMENT_3D('',#969,#800,#801);
#638=AXIS2_PLACEMENT_3D('',#971,#802,#803);
#639=AXIS2_PLACEMENT_3D('',#972,#804,#805);
#640=AXIS2_PLACEMENT_3D('',#974,#806,#807);
#641=AXIS2_PLACEMENT_3D('',#976,#809,#810);
#642=AXIS2_PLACEMENT_3D('',#979,#811,#812);
#643=AXIS2_PLACEMENT_3D('',#980,#813,#814);
#644=AXIS2_PLACEMENT_3D('',#983,#815,#816);
#645=AXIS2_PLACEMENT_3D('',#984,#817,#818);
#646=AXIS2_PLACEMENT_3D('',#987,#819,#820);
#647=AXIS2_PLACEMENT_3D('',#988,#821,#822);
#648=AXIS2_PLACEMENT_3D('',#991,#823,#824);
#649=AXIS2_PLACEMENT_3D('',#992,#825,#826);
#650=AXIS2_PLACEMENT_3D('',#995,#827,#828);
#651=AXIS2_PLACEMENT_3D('',#996,#829,#830);
#652=AXIS2_PLACEMENT_3D('',#997,#831,#832);
#653=AXIS2_PLACEMENT_3D('',#999,#834,#835);
#654=AXIS2_PLACEMENT_3D('',#1001,#837,#838);
#655=AXIS2_PLACEMENT_3D('',#1003,#840,#841);
#656=AXIS2_PLACEMENT_3D('',#1005,#843,#844);
#657=AXIS2_PLACEMENT_3D('',#1007,#846,#847);
#658=DIRECTION('axis',(0.,0.,1.));
#659=DIRECTION('refdir',(1.,0.,0.));
#660=DIRECTION('center_axis',(-5.82724404620766E-17,-7.0742830261609E-19,
1.));
#661=DIRECTION('ref_axis',(1.,0.,5.82724404620766E-17));
#662=DIRECTION('center_axis',(5.82724404620766E-17,7.0742830261609E-19,
-1.));
#663=DIRECTION('ref_axis',(-1.,0.,0.));
#664=DIRECTION('center_axis',(-5.82724404620766E-17,-7.0742830261609E-19,
1.));
#665=DIRECTION('ref_axis',(-1.,0.,0.));
#666=DIRECTION('center_axis',(-5.82724404620766E-17,-7.0742830261609E-19,
1.));
#667=DIRECTION('ref_axis',(-1.,0.,0.));
#668=DIRECTION('center_axis',(-5.82724404620766E-17,-7.0742830261609E-19,
1.));
#669=DIRECTION('ref_axis',(-1.,0.,0.));
#670=DIRECTION('center_axis',(-5.82724404620766E-17,-7.0742830261609E-19,
1.));
#671=DIRECTION('ref_axis',(-1.,0.,0.));
#672=DIRECTION('center_axis',(-5.82724404620766E-17,-7.0742830261609E-19,
1.));
#673=DIRECTION('ref_axis',(-1.,0.,0.));
#674=DIRECTION('center_axis',(-5.82724404620766E-17,-7.0742830261609E-19,
1.));
#675=DIRECTION('ref_axis',(-1.,0.,0.));
#676=DIRECTION('center_axis',(-5.82724404620766E-17,-7.0742830261609E-19,
1.));
#677=DIRECTION('ref_axis',(-1.,0.,0.));
#678=DIRECTION('center_axis',(-5.82724404620766E-17,-7.0742830261609E-19,
1.));
#679=DIRECTION('ref_axis',(-1.,0.,0.));
#680=DIRECTION('center_axis',(-5.82724404620766E-17,-7.0742830261609E-19,
1.));
#681=DIRECTION('ref_axis',(-1.,0.,0.));
#682=DIRECTION('center_axis',(-5.82724404620766E-17,-7.0742830261609E-19,
1.));
#683=DIRECTION('ref_axis',(-1.,0.,0.));
#684=DIRECTION('center_axis',(-5.82724404620766E-17,-7.0742830261609E-19,
1.));
#685=DIRECTION('ref_axis',(-1.,0.,0.));
#686=DIRECTION('center_axis',(-5.82724404620766E-17,-7.0742830261609E-19,
1.));
#687=DIRECTION('ref_axis',(-1.,0.,0.));
#688=DIRECTION('center_axis',(-5.82724404620766E-17,-7.0742830261609E-19,
1.));
#689=DIRECTION('ref_axis',(-1.,0.,0.));
#690=DIRECTION('center_axis',(0.,0.,1.));
#691=DIRECTION('ref_axis',(1.,0.,0.));
#692=DIRECTION('center_axis',(0.,0.,1.));
#693=DIRECTION('ref_axis',(-1.,0.,0.));
#694=DIRECTION('center_axis',(0.,0.,1.));
#695=DIRECTION('ref_axis',(-1.,0.,0.));
#696=DIRECTION('center_axis',(0.,0.,-1.));
#697=DIRECTION('ref_axis',(1.,0.,0.));
#698=DIRECTION('center_axis',(0.,0.,1.));
#699=DIRECTION('ref_axis',(1.,0.,0.));
#700=DIRECTION('center_axis',(0.,0.,1.));
#701=DIRECTION('ref_axis',(-1.,0.,0.));
#702=DIRECTION('center_axis',(0.,0.,1.));
#703=DIRECTION('ref_axis',(-1.,0.,0.));
#704=DIRECTION('center_axis',(0.,0.,-1.));
#705=DIRECTION('ref_axis',(1.,0.,0.));
#706=DIRECTION('center_axis',(0.,0.,1.));
#707=DIRECTION('ref_axis',(1.,0.,0.));
#708=DIRECTION('center_axis',(0.,0.,1.));
#709=DIRECTION('ref_axis',(-1.,0.,0.));
#710=DIRECTION('center_axis',(0.,0.,1.));
#711=DIRECTION('ref_axis',(-1.,0.,0.));
#712=DIRECTION('center_axis',(0.,0.,-1.));
#713=DIRECTION('ref_axis',(1.,0.,0.));
#714=DIRECTION('center_axis',(0.,0.,1.));
#715=DIRECTION('ref_axis',(1.,0.,0.));
#716=DIRECTION('center_axis',(0.,0.,1.));
#717=DIRECTION('ref_axis',(-1.,0.,0.));
#718=DIRECTION('center_axis',(0.,0.,1.));
#719=DIRECTION('ref_axis',(-1.,0.,0.));
#720=DIRECTION('center_axis',(0.,0.,-1.));
#721=DIRECTION('ref_axis',(1.,0.,0.));
#722=DIRECTION('center_axis',(0.,0.,1.));
#723=DIRECTION('ref_axis',(1.,0.,0.));
#724=DIRECTION('',(0.,0.,1.));
#725=DIRECTION('center_axis',(0.,0.,1.));
#726=DIRECTION('ref_axis',(1.,0.,0.));
#727=DIRECTION('',(0.,0.,1.));
#728=DIRECTION('center_axis',(0.,0.,1.));
#729=DIRECTION('ref_axis',(1.,0.,0.));
#730=DIRECTION('',(0.,0.,1.));
#731=DIRECTION('center_axis',(0.,0.,1.));
#732=DIRECTION('ref_axis',(1.,0.,0.));
#733=DIRECTION('',(0.,0.,1.));
#734=DIRECTION('center_axis',(0.,0.,1.));
#735=DIRECTION('ref_axis',(1.,0.,0.));
#736=DIRECTION('center_axis',(0.,0.,1.));
#737=DIRECTION('ref_axis',(1.,0.,0.));
#738=DIRECTION('',(0.,0.,1.));
#739=DIRECTION('center_axis',(0.,0.,1.));
#740=DIRECTION('ref_axis',(1.,0.,0.));
#741=DIRECTION('center_axis',(0.,0.,1.));
#742=DIRECTION('ref_axis',(1.,0.,0.));
#743=DIRECTION('center_axis',(0.,0.,-1.));
#744=DIRECTION('ref_axis',(-1.,0.,0.));
#745=DIRECTION('center_axis',(0.,0.,-1.));
#746=DIRECTION('ref_axis',(-1.,0.,0.));
#747=DIRECTION('center_axis',(0.,0.,1.));
#748=DIRECTION('ref_axis',(1.,0.,0.));
#749=DIRECTION('center_axis',(0.,0.,1.));
#750=DIRECTION('ref_axis',(1.,0.,0.));
#751=DIRECTION('',(0.,0.,1.));
#752=DIRECTION('center_axis',(0.,0.,1.));
#753=DIRECTION('ref_axis',(1.,0.,0.));
#754=DIRECTION('center_axis',(0.,0.,1.));
#755=DIRECTION('ref_axis',(1.,0.,0.));
#756=DIRECTION('center_axis',(0.,0.,-1.));
#757=DIRECTION('ref_axis',(-1.,0.,0.));
#758=DIRECTION('center_axis',(0.,0.,-1.));
#759=DIRECTION('ref_axis',(-1.,0.,0.));
#760=DIRECTION('center_axis',(0.,0.,1.));
#761=DIRECTION('ref_axis',(1.,0.,0.));
#762=DIRECTION('center_axis',(0.,0.,1.));
#763=DIRECTION('ref_axis',(1.,0.,0.));
#764=DIRECTION('',(0.,0.,1.));
#765=DIRECTION('center_axis',(0.,0.,1.));
#766=DIRECTION('ref_axis',(1.,0.,0.));
#767=DIRECTION('center_axis',(0.,0.,1.));
#768=DIRECTION('ref_axis',(1.,0.,0.));
#769=DIRECTION('center_axis',(0.,0.,-1.));
#770=DIRECTION('ref_axis',(-1.,0.,0.));
#771=DIRECTION('center_axis',(0.,0.,-1.));
#772=DIRECTION('ref_axis',(-1.,0.,0.));
#773=DIRECTION('center_axis',(0.,0.,1.));
#774=DIRECTION('ref_axis',(1.,0.,0.));
#775=DIRECTION('center_axis',(0.,0.,1.));
#776=DIRECTION('ref_axis',(1.,0.,0.));
#777=DIRECTION('',(0.,0.,1.));
#778=DIRECTION('center_axis',(0.,0.,1.));
#779=DIRECTION('ref_axis',(1.,0.,0.));
#780=DIRECTION('center_axis',(0.,0.,1.));
#781=DIRECTION('ref_axis',(1.,0.,0.));
#782=DIRECTION('center_axis',(0.,0.,-1.));
#783=DIRECTION('ref_axis',(-1.,0.,0.));
#784=DIRECTION('center_axis',(0.,0.,-1.));
#785=DIRECTION('ref_axis',(-1.,0.,0.));
#786=DIRECTION('center_axis',(0.,0.,-1.));
#787=DIRECTION('ref_axis',(-1.,0.,0.));
#788=DIRECTION('',(0.,0.,-1.));
#789=DIRECTION('center_axis',(0.,0.,-1.));
#790=DIRECTION('ref_axis',(-1.,0.,0.));
#791=DIRECTION('',(0.,0.,-1.));
#792=DIRECTION('center_axis',(0.,0.,-1.));
#793=DIRECTION('ref_axis',(-1.,0.,0.));
#794=DIRECTION('',(0.,0.,-1.));
#795=DIRECTION('center_axis',(0.,0.,-1.));
#796=DIRECTION('ref_axis',(-1.,0.,0.));
#797=DIRECTION('',(0.,0.,-1.));
#798=DIRECTION('center_axis',(0.,0.,1.));
#799=DIRECTION('ref_axis',(1.,0.,0.));
#800=DIRECTION('center_axis',(0.,0.,1.));
#801=DIRECTION('ref_axis',(1.,0.,0.));
#802=DIRECTION('center_axis',(0.,0.,-1.));
#803=DIRECTION('ref_axis',(-1.,0.,0.));
#804=DIRECTION('center_axis',(0.,0.,-1.));
#805=DIRECTION('ref_axis',(1.,0.,0.));
#806=DIRECTION('center_axis',(0.,0.,-1.));
#807=DIRECTION('ref_axis',(1.,0.,0.));
#808=DIRECTION('',(0.,0.,1.));
#809=DIRECTION('center_axis',(0.,0.,1.));
#810=DIRECTION('ref_axis',(1.,0.,0.));
#811=DIRECTION('center_axis',(0.,0.,1.));
#812=DIRECTION('ref_axis',(1.,0.,0.));
#813=DIRECTION('center_axis',(0.,0.,1.));
#814=DIRECTION('ref_axis',(1.,0.,0.));
#815=DIRECTION('center_axis',(0.,0.,-1.));
#816=DIRECTION('ref_axis',(-1.,0.,0.));
#817=DIRECTION('center_axis',(0.,0.,-1.));
#818=DIRECTION('ref_axis',(-1.,0.,0.));
#819=DIRECTION('center_axis',(0.,0.,-1.));
#820=DIRECTION('ref_axis',(-1.,0.,0.));
#821=DIRECTION('center_axis',(0.,0.,-1.));
#822=DIRECTION('ref_axis',(-1.,0.,0.));
#823=DIRECTION('center_axis',(0.,0.,-1.));
#824=DIRECTION('ref_axis',(-1.,0.,0.));
#825=DIRECTION('center_axis',(0.,0.,-1.));
#826=DIRECTION('ref_axis',(-1.,0.,0.));
#827=DIRECTION('center_axis',(0.,0.,-1.));
#828=DIRECTION('ref_axis',(-1.,0.,0.));
#829=DIRECTION('center_axis',(0.,0.,-1.));
#830=DIRECTION('ref_axis',(-1.,0.,0.));
#831=DIRECTION('center_axis',(0.,0.,1.));
#832=DIRECTION('ref_axis',(-1.,0.,0.));
#833=DIRECTION('',(0.,0.,1.));
#834=DIRECTION('center_axis',(0.,0.,1.));
#835=DIRECTION('ref_axis',(-1.,0.,0.));
#836=DIRECTION('',(0.,0.,-1.));
#837=DIRECTION('center_axis',(0.,0.,1.));
#838=DIRECTION('ref_axis',(-1.,0.,0.));
#839=DIRECTION('',(0.,0.,-1.));
#840=DIRECTION('center_axis',(0.,0.,1.));
#841=DIRECTION('ref_axis',(-1.,0.,0.));
#842=DIRECTION('',(0.,0.,-1.));
#843=DIRECTION('center_axis',(0.,0.,1.));
#844=DIRECTION('ref_axis',(-1.,0.,0.));
#845=DIRECTION('',(0.,0.,-1.));
#846=DIRECTION('center_axis',(0.,0.,1.));
#847=DIRECTION('ref_axis',(-1.,0.,0.));
#848=DIRECTION('',(0.,0.,-1.));
#849=CARTESIAN_POINT('',(0.,0.,0.));
#850=CARTESIAN_POINT('Origin',(0.,0.,21.));
#851=CARTESIAN_POINT('',(8.5,-1.04094977927525E-15,21.));
#852=CARTESIAN_POINT('Origin',(0.,0.,21.));
#853=CARTESIAN_POINT('',(2.8,3.42901103761259E-16,21.));
#854=CARTESIAN_POINT('Origin',(0.,0.,21.));
#855=CARTESIAN_POINT('',(5.242640687119,4.242640687119,21.));
#856=CARTESIAN_POINT('Origin',(4.242640687119,4.242640687119,21.));
#857=CARTESIAN_POINT('',(5.242640687119,-4.242640687119,21.));
#858=CARTESIAN_POINT('Origin',(4.242640687119,-4.242640687119,21.));
#859=CARTESIAN_POINT('',(-3.242640687119,4.242640687119,21.));
#860=CARTESIAN_POINT('Origin',(-4.242640687119,4.242640687119,21.));
#861=CARTESIAN_POINT('',(-3.242640687119,-4.242640687119,21.));
#862=CARTESIAN_POINT('Origin',(-4.242640687119,-4.242640687119,21.));
#863=CARTESIAN_POINT('',(-5.5,6.12323399573677E-17,21.));
#864=CARTESIAN_POINT('',(-6.5,-6.12323399573677E-17,21.));
#865=CARTESIAN_POINT('Origin',(-6.,0.,21.));
#866=CARTESIAN_POINT('Origin',(-6.,0.,21.));
#867=CARTESIAN_POINT('',(0.499999999999999,6.,21.));
#868=CARTESIAN_POINT('',(-0.499999999999999,6.,21.));
#869=CARTESIAN_POINT('Origin',(0.,6.,21.));
#870=CARTESIAN_POINT('Origin',(0.,6.,21.));
#871=CARTESIAN_POINT('',(0.5,-6.,21.));
#872=CARTESIAN_POINT('',(-0.5,-6.,21.));
#873=CARTESIAN_POINT('Origin',(0.,-6.,21.));
#874=CARTESIAN_POINT('Origin',(0.,-6.,21.));
#875=CARTESIAN_POINT('',(6.5,6.12323399573677E-17,21.));
#876=CARTESIAN_POINT('',(5.5,-6.12323399573677E-17,21.));
#877=CARTESIAN_POINT('Origin',(6.,0.,21.));
#878=CARTESIAN_POINT('Origin',(6.,0.,21.));
#879=CARTESIAN_POINT('Origin',(-6.,0.,4.5));
#880=CARTESIAN_POINT('',(-7.9,2.32682891837997E-16,4.5));
#881=CARTESIAN_POINT('',(-4.1,2.32682891837997E-16,4.5));
#882=CARTESIAN_POINT('Origin',(-6.,0.,4.5));
#883=CARTESIAN_POINT('Origin',(-6.,0.,4.5));
#884=CARTESIAN_POINT('',(-6.5,6.12323399573677E-17,4.5));
#885=CARTESIAN_POINT('Origin',(-6.,0.,4.5));
#886=CARTESIAN_POINT('Origin',(6.,0.,4.5));
#887=CARTESIAN_POINT('',(4.1,2.32682891837997E-16,4.5));
#888=CARTESIAN_POINT('',(7.9,2.32682891837997E-16,4.5));
#889=CARTESIAN_POINT('Origin',(6.,0.,4.5));
#890=CARTESIAN_POINT('Origin',(6.,0.,4.5));
#891=CARTESIAN_POINT('',(5.5,6.12323399573677E-17,4.5));
#892=CARTESIAN_POINT('Origin',(6.,0.,4.5));
#893=CARTESIAN_POINT('Origin',(1.41125221756802E-16,6.,4.5));
#894=CARTESIAN_POINT('',(-1.9,6.,4.5));
#895=CARTESIAN_POINT('',(1.9,6.,4.5));
#896=CARTESIAN_POINT('Origin',(0.,6.,4.5));
#897=CARTESIAN_POINT('Origin',(0.,6.,4.5));
#898=CARTESIAN_POINT('',(-0.499999999999999,6.,4.5));
#899=CARTESIAN_POINT('Origin',(0.,6.,4.5));
#900=CARTESIAN_POINT('Origin',(1.41125221756802E-16,-6.,4.5));
#901=CARTESIAN_POINT('',(-1.9,-6.,4.5));
#902=CARTESIAN_POINT('',(1.9,-6.,4.5));
#903=CARTESIAN_POINT('Origin',(0.,-6.,4.5));
#904=CARTESIAN_POINT('Origin',(0.,-6.,4.5));
#905=CARTESIAN_POINT('',(-0.5,-6.,4.5));
#906=CARTESIAN_POINT('Origin',(0.,-6.,4.5));
#907=CARTESIAN_POINT('Origin',(-6.,0.,0.));
#908=CARTESIAN_POINT('',(-6.5,-6.12323399573677E-17,0.));
#909=CARTESIAN_POINT('Origin',(0.,6.,0.));
#910=CARTESIAN_POINT('',(-0.499999999999999,6.,0.));
#911=CARTESIAN_POINT('Origin',(0.,-6.,0.));
#912=CARTESIAN_POINT('',(-0.5,-6.,0.));
#913=CARTESIAN_POINT('Origin',(6.,0.,0.));
#914=CARTESIAN_POINT('',(5.5,-6.12323399573677E-17,0.));
#915=CARTESIAN_POINT('Origin',(-4.242640687119,4.242640687119,7.3));
#916=CARTESIAN_POINT('',(-6.242640687119,4.242640687119,7.3));
#917=CARTESIAN_POINT('Origin',(-4.242640687119,4.242640687119,7.3));
#918=CARTESIAN_POINT('',(-6.242640687119,4.242640687119,9.3));
#919=CARTESIAN_POINT('',(-6.242640687119,4.242640687119,7.3));
#920=CARTESIAN_POINT('Origin',(-4.242640687119,4.242640687119,9.3));
#921=CARTESIAN_POINT('Origin',(-4.242640687119,4.242640687119,9.3));
#922=CARTESIAN_POINT('',(-5.242640687119,4.242640687119,9.3));
#923=CARTESIAN_POINT('',(-3.242640687119,4.242640687119,9.3));
#924=CARTESIAN_POINT('Origin',(-4.242640687119,4.242640687119,9.3));
#925=CARTESIAN_POINT('Origin',(-4.242640687119,4.242640687119,9.3));
#926=CARTESIAN_POINT('Origin',(-4.242640687119,-4.242640687119,7.3));
#927=CARTESIAN_POINT('',(-6.242640687119,-4.242640687119,7.3));
#928=CARTESIAN_POINT('Origin',(-4.242640687119,-4.242640687119,7.3));
#929=CARTESIAN_POINT('',(-6.242640687119,-4.242640687119,9.3));
#930=CARTESIAN_POINT('',(-6.242640687119,-4.242640687119,7.3));
#931=CARTESIAN_POINT('Origin',(-4.242640687119,-4.242640687119,9.3));
#932=CARTESIAN_POINT('Origin',(-4.242640687119,-4.242640687119,9.3));
#933=CARTESIAN_POINT('',(-5.242640687119,-4.242640687119,9.3));
#934=CARTESIAN_POINT('',(-3.242640687119,-4.242640687119,9.3));
#935=CARTESIAN_POINT('Origin',(-4.242640687119,-4.242640687119,9.3));
#936=CARTESIAN_POINT('Origin',(-4.242640687119,-4.242640687119,9.3));
#937=CARTESIAN_POINT('Origin',(4.242640687119,-4.242640687119,7.3));
#938=CARTESIAN_POINT('',(2.242640687119,-4.242640687119,7.3));
#939=CARTESIAN_POINT('Origin',(4.242640687119,-4.242640687119,7.3));
#940=CARTESIAN_POINT('',(2.242640687119,-4.242640687119,9.3));
#941=CARTESIAN_POINT('',(2.242640687119,-4.242640687119,7.3));
#942=CARTESIAN_POINT('Origin',(4.242640687119,-4.242640687119,9.3));
#943=CARTESIAN_POINT('Origin',(4.242640687119,-4.242640687119,9.3));
#944=CARTESIAN_POINT('',(3.242640687119,-4.242640687119,9.3));
#945=CARTESIAN_POINT('',(5.242640687119,-4.242640687119,9.3));
#946=CARTESIAN_POINT('Origin',(4.242640687119,-4.242640687119,9.3));
#947=CARTESIAN_POINT('Origin',(4.242640687119,-4.242640687119,9.3));
#948=CARTESIAN_POINT('Origin',(4.242640687119,4.242640687119,7.3));
#949=CARTESIAN_POINT('',(2.242640687119,4.242640687119,7.3));
#950=CARTESIAN_POINT('Origin',(4.242640687119,4.242640687119,7.3));
#951=CARTESIAN_POINT('',(2.242640687119,4.242640687119,9.3));
#952=CARTESIAN_POINT('',(2.242640687119,4.242640687119,7.3));
#953=CARTESIAN_POINT('Origin',(4.242640687119,4.242640687119,9.3));
#954=CARTESIAN_POINT('Origin',(4.242640687119,4.242640687119,9.3));
#955=CARTESIAN_POINT('',(3.242640687119,4.242640687119,9.3));
#956=CARTESIAN_POINT('',(5.242640687119,4.242640687119,9.3));
#957=CARTESIAN_POINT('Origin',(4.242640687119,4.242640687119,9.3));
#958=CARTESIAN_POINT('Origin',(4.242640687119,4.242640687119,9.3));
#959=CARTESIAN_POINT('Origin',(4.242640687119,4.242640687119,13.));
#960=CARTESIAN_POINT('',(5.242640687119,4.242640687119,13.));
#961=CARTESIAN_POINT('Origin',(4.242640687119,-4.242640687119,13.));
#962=CARTESIAN_POINT('',(5.242640687119,-4.242640687119,13.));
#963=CARTESIAN_POINT('Origin',(-4.242640687119,4.242640687119,13.));
#964=CARTESIAN_POINT('',(-3.242640687119,4.242640687119,13.));
#965=CARTESIAN_POINT('Origin',(-4.242640687119,-4.242640687119,13.));
#966=CARTESIAN_POINT('',(-3.242640687119,-4.242640687119,13.));
#967=CARTESIAN_POINT('Origin',(5.03042222760184E-16,2.05596856412066E-16,
8.));
#968=CARTESIAN_POINT('',(-9.,1.10218211923262E-15,8.));
#969=CARTESIAN_POINT('Origin',(0.,0.,8.));
#970=CARTESIAN_POINT('',(8.5,1.04094977927525E-15,8.));
#971=CARTESIAN_POINT('Origin',(0.,0.,8.));
#972=CARTESIAN_POINT('Origin',(0.,0.,8.));
#973=CARTESIAN_POINT('',(-9.,1.10218211923262E-15,7.3));
#974=CARTESIAN_POINT('Origin',(0.,0.,7.3));
#975=CARTESIAN_POINT('',(-9.,1.10218211923262E-15,8.));
#976=CARTESIAN_POINT('Origin',(5.03042222760184E-16,2.05596856412066E-16,
7.3));
#977=CARTESIAN_POINT('',(-2.8,3.42901103761259E-16,7.3));
#978=CARTESIAN_POINT('',(2.8,3.42901103761259E-16,7.3));
#979=CARTESIAN_POINT('Origin',(0.,0.,7.3));
#980=CARTESIAN_POINT('Origin',(0.,0.,7.3));
#981=CARTESIAN_POINT('',(-1.9,-6.,7.3));
#982=CARTESIAN_POINT('',(1.9,-6.,7.3));
#983=CARTESIAN_POINT('Origin',(0.,-6.,7.3));
#984=CARTESIAN_POINT('Origin',(0.,-6.,7.3));
#985=CARTESIAN_POINT('',(-1.9,6.,7.3));
#986=CARTESIAN_POINT('',(1.9,6.,7.3));
#987=CARTESIAN_POINT('Origin',(0.,6.,7.3));
#988=CARTESIAN_POINT('Origin',(0.,6.,7.3));
#989=CARTESIAN_POINT('',(4.1,2.32682891837997E-16,7.3));
#990=CARTESIAN_POINT('',(7.9,2.32682891837997E-16,7.3));
#991=CARTESIAN_POINT('Origin',(6.,0.,7.3));
#992=CARTESIAN_POINT('Origin',(6.,0.,7.3));
#993=CARTESIAN_POINT('',(-7.9,2.32682891837997E-16,7.3));
#994=CARTESIAN_POINT('',(-4.1,2.32682891837997E-16,7.3));
#995=CARTESIAN_POINT('Origin',(-6.,0.,7.3));
#996=CARTESIAN_POINT('Origin',(-6.,0.,7.3));
#997=CARTESIAN_POINT('Origin',(0.,0.,8.));
#998=CARTESIAN_POINT('',(2.8,3.42901103761259E-16,8.));
#999=CARTESIAN_POINT('Origin',(0.,0.,8.));
#1000=CARTESIAN_POINT('',(8.5,1.04094977927525E-15,8.));
#1001=CARTESIAN_POINT('Origin',(0.,-6.,0.));
#1002=CARTESIAN_POINT('',(1.9,-6.,0.));
#1003=CARTESIAN_POINT('Origin',(0.,6.,0.));
#1004=CARTESIAN_POINT('',(1.9,6.,0.));
#1005=CARTESIAN_POINT('Origin',(6.,0.,0.));
#1006=CARTESIAN_POINT('',(7.9,2.32682891837997E-16,0.));
#1007=CARTESIAN_POINT('Origin',(-6.,0.,0.));
#1008=CARTESIAN_POINT('',(-4.1,2.32682891837997E-16,0.));
#1009=UNCERTAINTY_MEASURE_WITH_UNIT(LENGTH_MEASURE(0.01),#1013,
'DISTANCE_ACCURACY_VALUE',
'Maximum model space distance between geometric entities at asserted c
onnectivities');
#1010=UNCERTAINTY_MEASURE_WITH_UNIT(LENGTH_MEASURE(0.01),#1013,
'DISTANCE_ACCURACY_VALUE',
'Maximum model space distance between geometric entities at asserted c
onnectivities');
#1011=(
GEOMETRIC_REPRESENTATION_CONTEXT(3)
GLOBAL_UNCERTAINTY_ASSIGNED_CONTEXT((#1009))
GLOBAL_UNIT_ASSIGNED_CONTEXT((#1013,#1015,#1016))
REPRESENTATION_CONTEXT('','3D')
);
#1012=(
GEOMETRIC_REPRESENTATION_CONTEXT(3)
GLOBAL_UNCERTAINTY_ASSIGNED_CONTEXT((#1010))
GLOBAL_UNIT_ASSIGNED_CONTEXT((#1013,#1015,#1016))
REPRESENTATION_CONTEXT('','3D')
);
#1013=(
LENGTH_UNIT()
NAMED_UNIT(*)
SI_UNIT(.MILLI.,.METRE.)
);
#1014=(
LENGTH_UNIT()
NAMED_UNIT(*)
SI_UNIT($,.METRE.)
);
#1015=(
NAMED_UNIT(*)
PLANE_ANGLE_UNIT()
SI_UNIT($,.RADIAN.)
);
#1016=(
NAMED_UNIT(*)
SI_UNIT($,.STERADIAN.)
SOLID_ANGLE_UNIT()
);
#1017=SHAPE_DEFINITION_REPRESENTATION(#1018,#1019);
#1018=PRODUCT_DEFINITION_SHAPE('',$,#1021);
#1019=SHAPE_REPRESENTATION('',(#572),#1011);
#1020=PRODUCT_DEFINITION_CONTEXT('part definition',#1025,'design');
#1021=PRODUCT_DEFINITION('TI1-200-002_RollDriver',
'TI1-200-002_RollDriver v3',#1022,#1020);
#1022=PRODUCT_DEFINITION_FORMATION('',$,#1027);
#1023=PRODUCT_RELATED_PRODUCT_CATEGORY('TI1-200-002_RollDriver v3',
'TI1-200-002_RollDriver v3',(#1027));
#1024=APPLICATION_PROTOCOL_DEFINITION('international standard',
'automotive_design',2009,#1025);
#1025=APPLICATION_CONTEXT(
'Core Data for Automotive Mechanical Design Process');
#1026=PRODUCT_CONTEXT('part definition',#1025,'mechanical');
#1027=PRODUCT('TI1-200-002_RollDriver','TI1-200-002_RollDriver v3',$,(#1026));
#1028=PRESENTATION_STYLE_ASSIGNMENT((#1030));
#1029=PRESENTATION_STYLE_ASSIGNMENT((#1031));
#1030=SURFACE_STYLE_USAGE(.BOTH.,#1032);
#1031=SURFACE_STYLE_USAGE(.BOTH.,#1033);
#1032=SURFACE_SIDE_STYLE('',(#1034));
#1033=SURFACE_SIDE_STYLE('',(#1035));
#1034=SURFACE_STYLE_FILL_AREA(#1036);
#1035=SURFACE_STYLE_FILL_AREA(#1037);
#1036=FILL_AREA_STYLE('Default',(#1038));
#1037=FILL_AREA_STYLE('Steel - Satin',(#1039));
#1038=FILL_AREA_STYLE_COLOUR('Default',#1040);
#1039=FILL_AREA_STYLE_COLOUR('Steel - Satin',#1041);
#1040=COLOUR_RGB('Default',0.749019607843137,0.749019607843137,0.749019607843137);
#1041=COLOUR_RGB('Steel - Satin',0.627450980392157,0.627450980392157,0.627450980392157);
ENDSEC;
END-ISO-10303-21;
