ISO-10303-21;
HEADER;
/* Generated by software containing ST-Developer
 * from STEP Tools, Inc. (www.steptools.com) 
 */

FILE_DESCRIPTION(
/* description */ (''),
/* implementation_level */ '2;1');

FILE_NAME(
/* name */ 
'C:/Users/Noah/3D Objects/ToolInterface/STEP/SpanDriver.step',
/* time_stamp */ '2020-03-12T10:56:54-07:00',
/* author */ (''),
/* organization */ (''),
/* preprocessor_version */ 'ST-DEVELOPER v18',
/* originating_system */ 'Autodesk Translation Framework v8.12.0.6',
/* authorisation */ '');

FILE_SCHEMA (('AUTOMOTIVE_DESIGN { 1 0 10303 214 3 1 1 }'));
ENDSEC;

DATA;
#10=MECHANICAL_DESIGN_GEOMETRIC_PRESENTATION_REPRESENTATION('',(#13),#1961);
#11=SHAPE_REPRESENTATION_RELATIONSHIP('SRR','None',#1968,#12);
#12=ADVANCED_BREP_SHAPE_REPRESENTATION('',(#14),#1960);
#13=STYLED_ITEM('',(#1977),#14);
#14=MANIFOLD_SOLID_BREP('Body1',#1209);
#15=CYLINDRICAL_SURFACE('',#1228,1.30000000000001);
#16=CYLINDRICAL_SURFACE('',#1232,0.5);
#17=CYLINDRICAL_SURFACE('',#1236,3.25);
#18=CYLINDRICAL_SURFACE('',#1241,2.75);
#19=CYLINDRICAL_SURFACE('',#1258,5.5);
#20=CYLINDRICAL_SURFACE('',#1262,4.);
#21=CYLINDRICAL_SURFACE('',#1302,3.875);
#22=FACE_BOUND('',#391,.T.);
#23=FACE_BOUND('',#399,.T.);
#24=FACE_BOUND('',#402,.T.);
#25=FACE_BOUND('',#404,.T.);
#26=FACE_BOUND('',#413,.T.);
#27=FACE_BOUND('',#416,.T.);
#28=LINE('',#1623,#178);
#29=LINE('',#1625,#179);
#30=LINE('',#1627,#180);
#31=LINE('',#1629,#181);
#32=LINE('',#1631,#182);
#33=LINE('',#1633,#183);
#34=LINE('',#1635,#184);
#35=LINE('',#1637,#185);
#36=LINE('',#1639,#186);
#37=LINE('',#1641,#187);
#38=LINE('',#1643,#188);
#39=LINE('',#1645,#189);
#40=LINE('',#1647,#190);
#41=LINE('',#1649,#191);
#42=LINE('',#1651,#192);
#43=LINE('',#1653,#193);
#44=LINE('',#1655,#194);
#45=LINE('',#1657,#195);
#46=LINE('',#1659,#196);
#47=LINE('',#1661,#197);
#48=LINE('',#1663,#198);
#49=LINE('',#1665,#199);
#50=LINE('',#1667,#200);
#51=LINE('',#1669,#201);
#52=LINE('',#1671,#202);
#53=LINE('',#1673,#203);
#54=LINE('',#1675,#204);
#55=LINE('',#1677,#205);
#56=LINE('',#1679,#206);
#57=LINE('',#1681,#207);
#58=LINE('',#1683,#208);
#59=LINE('',#1685,#209);
#60=LINE('',#1687,#210);
#61=LINE('',#1689,#211);
#62=LINE('',#1691,#212);
#63=LINE('',#1693,#213);
#64=LINE('',#1695,#214);
#65=LINE('',#1697,#215);
#66=LINE('',#1699,#216);
#67=LINE('',#1700,#217);
#68=LINE('',#1703,#218);
#69=LINE('',#1705,#219);
#70=LINE('',#1706,#220);
#71=LINE('',#1710,#221);
#72=LINE('',#1712,#222);
#73=LINE('',#1714,#223);
#74=LINE('',#1715,#224);
#75=LINE('',#1721,#225);
#76=LINE('',#1724,#226);
#77=LINE('',#1726,#227);
#78=LINE('',#1727,#228);
#79=LINE('',#1732,#229);
#80=LINE('',#1738,#230);
#81=LINE('',#1745,#231);
#82=LINE('',#1750,#232);
#83=LINE('',#1752,#233);
#84=LINE('',#1754,#234);
#85=LINE('',#1758,#235);
#86=LINE('',#1759,#236);
#87=LINE('',#1764,#237);
#88=LINE('',#1765,#238);
#89=LINE('',#1766,#239);
#90=LINE('',#1769,#240);
#91=LINE('',#1770,#241);
#92=LINE('',#1773,#242);
#93=LINE('',#1774,#243);
#94=LINE('',#1778,#244);
#95=LINE('',#1779,#245);
#96=LINE('',#1780,#246);
#97=LINE('',#1782,#247);
#98=LINE('',#1790,#248);
#99=LINE('',#1792,#249);
#100=LINE('',#1794,#250);
#101=LINE('',#1796,#251);
#102=LINE('',#1798,#252);
#103=LINE('',#1800,#253);
#104=LINE('',#1802,#254);
#105=LINE('',#1804,#255);
#106=LINE('',#1806,#256);
#107=LINE('',#1808,#257);
#108=LINE('',#1810,#258);
#109=LINE('',#1812,#259);
#110=LINE('',#1814,#260);
#111=LINE('',#1816,#261);
#112=LINE('',#1818,#262);
#113=LINE('',#1820,#263);
#114=LINE('',#1822,#264);
#115=LINE('',#1824,#265);
#116=LINE('',#1826,#266);
#117=LINE('',#1828,#267);
#118=LINE('',#1830,#268);
#119=LINE('',#1832,#269);
#120=LINE('',#1834,#270);
#121=LINE('',#1835,#271);
#122=LINE('',#1837,#272);
#123=LINE('',#1839,#273);
#124=LINE('',#1841,#274);
#125=LINE('',#1843,#275);
#126=LINE('',#1845,#276);
#127=LINE('',#1847,#277);
#128=LINE('',#1849,#278);
#129=LINE('',#1851,#279);
#130=LINE('',#1853,#280);
#131=LINE('',#1855,#281);
#132=LINE('',#1857,#282);
#133=LINE('',#1859,#283);
#134=LINE('',#1861,#284);
#135=LINE('',#1863,#285);
#136=LINE('',#1864,#286);
#137=LINE('',#1871,#287);
#138=LINE('',#1878,#288);
#139=LINE('',#1880,#289);
#140=LINE('',#1881,#290);
#141=LINE('',#1883,#291);
#142=LINE('',#1885,#292);
#143=LINE('',#1887,#293);
#144=LINE('',#1889,#294);
#145=LINE('',#1891,#295);
#146=LINE('',#1893,#296);
#147=LINE('',#1895,#297);
#148=LINE('',#1897,#298);
#149=LINE('',#1899,#299);
#150=LINE('',#1901,#300);
#151=LINE('',#1903,#301);
#152=LINE('',#1905,#302);
#153=LINE('',#1907,#303);
#154=LINE('',#1909,#304);
#155=LINE('',#1912,#305);
#156=LINE('',#1914,#306);
#157=LINE('',#1916,#307);
#158=LINE('',#1918,#308);
#159=LINE('',#1920,#309);
#160=LINE('',#1922,#310);
#161=LINE('',#1924,#311);
#162=LINE('',#1926,#312);
#163=LINE('',#1928,#313);
#164=LINE('',#1930,#314);
#165=LINE('',#1932,#315);
#166=LINE('',#1934,#316);
#167=LINE('',#1936,#317);
#168=LINE('',#1938,#318);
#169=LINE('',#1940,#319);
#170=LINE('',#1942,#320);
#171=LINE('',#1944,#321);
#172=LINE('',#1946,#322);
#173=LINE('',#1948,#323);
#174=LINE('',#1950,#324);
#175=LINE('',#1952,#325);
#176=LINE('',#1954,#326);
#177=LINE('',#1957,#327);
#178=VECTOR('',#1311,10.);
#179=VECTOR('',#1312,10.);
#180=VECTOR('',#1313,10.);
#181=VECTOR('',#1314,10.);
#182=VECTOR('',#1315,10.);
#183=VECTOR('',#1316,10.);
#184=VECTOR('',#1317,10.);
#185=VECTOR('',#1318,10.);
#186=VECTOR('',#1319,10.);
#187=VECTOR('',#1320,10.);
#188=VECTOR('',#1321,10.);
#189=VECTOR('',#1322,10.);
#190=VECTOR('',#1323,10.);
#191=VECTOR('',#1324,10.);
#192=VECTOR('',#1325,10.);
#193=VECTOR('',#1326,10.);
#194=VECTOR('',#1327,10.);
#195=VECTOR('',#1328,10.);
#196=VECTOR('',#1329,10.);
#197=VECTOR('',#1330,10.);
#198=VECTOR('',#1331,10.);
#199=VECTOR('',#1332,10.);
#200=VECTOR('',#1333,10.);
#201=VECTOR('',#1334,10.);
#202=VECTOR('',#1335,10.);
#203=VECTOR('',#1336,10.);
#204=VECTOR('',#1337,10.);
#205=VECTOR('',#1338,10.);
#206=VECTOR('',#1339,10.);
#207=VECTOR('',#1340,10.);
#208=VECTOR('',#1341,10.);
#209=VECTOR('',#1342,10.);
#210=VECTOR('',#1343,10.);
#211=VECTOR('',#1344,10.);
#212=VECTOR('',#1345,10.);
#213=VECTOR('',#1346,10.);
#214=VECTOR('',#1347,10.);
#215=VECTOR('',#1348,10.);
#216=VECTOR('',#1349,10.);
#217=VECTOR('',#1350,10.);
#218=VECTOR('',#1353,10.);
#219=VECTOR('',#1354,10.);
#220=VECTOR('',#1355,10.);
#221=VECTOR('',#1358,10.);
#222=VECTOR('',#1359,10.);
#223=VECTOR('',#1360,10.);
#224=VECTOR('',#1361,10.);
#225=VECTOR('',#1368,10.);
#226=VECTOR('',#1371,10.);
#227=VECTOR('',#1372,10.);
#228=VECTOR('',#1373,10.);
#229=VECTOR('',#1380,10.);
#230=VECTOR('',#1387,3.25);
#231=VECTOR('',#1396,2.75);
#232=VECTOR('',#1401,10.);
#233=VECTOR('',#1402,10.);
#234=VECTOR('',#1403,10.);
#235=VECTOR('',#1406,10.);
#236=VECTOR('',#1407,10.);
#237=VECTOR('',#1412,10.);
#238=VECTOR('',#1413,10.);
#239=VECTOR('',#1414,10.);
#240=VECTOR('',#1417,10.);
#241=VECTOR('',#1418,10.);
#242=VECTOR('',#1421,10.);
#243=VECTOR('',#1422,10.);
#244=VECTOR('',#1425,10.);
#245=VECTOR('',#1426,10.);
#246=VECTOR('',#1427,10.);
#247=VECTOR('',#1430,10.);
#248=VECTOR('',#1439,10.);
#249=VECTOR('',#1440,10.);
#250=VECTOR('',#1441,10.);
#251=VECTOR('',#1442,10.);
#252=VECTOR('',#1443,10.);
#253=VECTOR('',#1444,10.);
#254=VECTOR('',#1445,10.);
#255=VECTOR('',#1446,10.);
#256=VECTOR('',#1447,10.);
#257=VECTOR('',#1448,10.);
#258=VECTOR('',#1449,10.);
#259=VECTOR('',#1450,10.);
#260=VECTOR('',#1451,10.);
#261=VECTOR('',#1452,10.);
#262=VECTOR('',#1453,10.);
#263=VECTOR('',#1454,10.);
#264=VECTOR('',#1455,10.);
#265=VECTOR('',#1456,10.);
#266=VECTOR('',#1457,10.);
#267=VECTOR('',#1458,10.);
#268=VECTOR('',#1459,10.);
#269=VECTOR('',#1460,10.);
#270=VECTOR('',#1461,10.);
#271=VECTOR('',#1462,10.);
#272=VECTOR('',#1463,10.);
#273=VECTOR('',#1464,10.);
#274=VECTOR('',#1465,10.);
#275=VECTOR('',#1466,10.);
#276=VECTOR('',#1467,10.);
#277=VECTOR('',#1468,10.);
#278=VECTOR('',#1469,10.);
#279=VECTOR('',#1470,10.);
#280=VECTOR('',#1471,10.);
#281=VECTOR('',#1472,10.);
#282=VECTOR('',#1473,10.);
#283=VECTOR('',#1474,10.);
#284=VECTOR('',#1475,10.);
#285=VECTOR('',#1476,10.);
#286=VECTOR('',#1477,10.);
#287=VECTOR('',#1486,5.5);
#288=VECTOR('',#1495,4.);
#289=VECTOR('',#1498,10.);
#290=VECTOR('',#1499,10.);
#291=VECTOR('',#1502,10.);
#292=VECTOR('',#1505,10.);
#293=VECTOR('',#1508,10.);
#294=VECTOR('',#1511,10.);
#295=VECTOR('',#1514,10.);
#296=VECTOR('',#1517,10.);
#297=VECTOR('',#1520,10.);
#298=VECTOR('',#1523,10.);
#299=VECTOR('',#1526,10.);
#300=VECTOR('',#1529,10.);
#301=VECTOR('',#1532,10.);
#302=VECTOR('',#1535,10.);
#303=VECTOR('',#1538,10.);
#304=VECTOR('',#1541,10.);
#305=VECTOR('',#1546,10.);
#306=VECTOR('',#1549,10.);
#307=VECTOR('',#1552,10.);
#308=VECTOR('',#1555,10.);
#309=VECTOR('',#1558,10.);
#310=VECTOR('',#1561,10.);
#311=VECTOR('',#1564,10.);
#312=VECTOR('',#1567,10.);
#313=VECTOR('',#1570,10.);
#314=VECTOR('',#1573,10.);
#315=VECTOR('',#1576,10.);
#316=VECTOR('',#1579,10.);
#317=VECTOR('',#1582,10.);
#318=VECTOR('',#1585,10.);
#319=VECTOR('',#1588,10.);
#320=VECTOR('',#1591,10.);
#321=VECTOR('',#1594,10.);
#322=VECTOR('',#1597,10.);
#323=VECTOR('',#1600,10.);
#324=VECTOR('',#1603,10.);
#325=VECTOR('',#1606,10.);
#326=VECTOR('',#1609,10.);
#327=VECTOR('',#1614,3.875);
#328=FACE_OUTER_BOUND('',#390,.T.);
#329=FACE_OUTER_BOUND('',#392,.T.);
#330=FACE_OUTER_BOUND('',#393,.T.);
#331=FACE_OUTER_BOUND('',#394,.T.);
#332=FACE_OUTER_BOUND('',#395,.T.);
#333=FACE_OUTER_BOUND('',#396,.T.);
#334=FACE_OUTER_BOUND('',#397,.T.);
#335=FACE_OUTER_BOUND('',#398,.T.);
#336=FACE_OUTER_BOUND('',#400,.T.);
#337=FACE_OUTER_BOUND('',#401,.T.);
#338=FACE_OUTER_BOUND('',#403,.T.);
#339=FACE_OUTER_BOUND('',#405,.T.);
#340=FACE_OUTER_BOUND('',#406,.T.);
#341=FACE_OUTER_BOUND('',#407,.T.);
#342=FACE_OUTER_BOUND('',#408,.T.);
#343=FACE_OUTER_BOUND('',#409,.T.);
#344=FACE_OUTER_BOUND('',#410,.T.);
#345=FACE_OUTER_BOUND('',#411,.T.);
#346=FACE_OUTER_BOUND('',#412,.T.);
#347=FACE_OUTER_BOUND('',#414,.T.);
#348=FACE_OUTER_BOUND('',#415,.T.);
#349=FACE_OUTER_BOUND('',#417,.T.);
#350=FACE_OUTER_BOUND('',#418,.T.);
#351=FACE_OUTER_BOUND('',#419,.T.);
#352=FACE_OUTER_BOUND('',#420,.T.);
#353=FACE_OUTER_BOUND('',#421,.T.);
#354=FACE_OUTER_BOUND('',#422,.T.);
#355=FACE_OUTER_BOUND('',#423,.T.);
#356=FACE_OUTER_BOUND('',#424,.T.);
#357=FACE_OUTER_BOUND('',#425,.T.);
#358=FACE_OUTER_BOUND('',#426,.T.);
#359=FACE_OUTER_BOUND('',#427,.T.);
#360=FACE_OUTER_BOUND('',#428,.T.);
#361=FACE_OUTER_BOUND('',#429,.T.);
#362=FACE_OUTER_BOUND('',#430,.T.);
#363=FACE_OUTER_BOUND('',#431,.T.);
#364=FACE_OUTER_BOUND('',#432,.T.);
#365=FACE_OUTER_BOUND('',#433,.T.);
#366=FACE_OUTER_BOUND('',#434,.T.);
#367=FACE_OUTER_BOUND('',#435,.T.);
#368=FACE_OUTER_BOUND('',#436,.T.);
#369=FACE_OUTER_BOUND('',#437,.T.);
#370=FACE_OUTER_BOUND('',#438,.T.);
#371=FACE_OUTER_BOUND('',#439,.T.);
#372=FACE_OUTER_BOUND('',#440,.T.);
#373=FACE_OUTER_BOUND('',#441,.T.);
#374=FACE_OUTER_BOUND('',#442,.T.);
#375=FACE_OUTER_BOUND('',#443,.T.);
#376=FACE_OUTER_BOUND('',#444,.T.);
#377=FACE_OUTER_BOUND('',#445,.T.);
#378=FACE_OUTER_BOUND('',#446,.T.);
#379=FACE_OUTER_BOUND('',#447,.T.);
#380=FACE_OUTER_BOUND('',#448,.T.);
#381=FACE_OUTER_BOUND('',#449,.T.);
#382=FACE_OUTER_BOUND('',#450,.T.);
#383=FACE_OUTER_BOUND('',#451,.T.);
#384=FACE_OUTER_BOUND('',#452,.T.);
#385=FACE_OUTER_BOUND('',#453,.T.);
#386=FACE_OUTER_BOUND('',#454,.T.);
#387=FACE_OUTER_BOUND('',#455,.T.);
#388=FACE_OUTER_BOUND('',#456,.T.);
#389=FACE_OUTER_BOUND('',#457,.T.);
#390=EDGE_LOOP('',(#756));
#391=EDGE_LOOP('',(#757,#758,#759,#760,#761,#762,#763,#764,#765,#766,#767,
#768,#769,#770,#771,#772,#773,#774,#775,#776,#777,#778,#779,#780,#781,#782,
#783,#784,#785,#786,#787,#788,#789,#790,#791,#792,#793,#794,#795,#796,#797));
#392=EDGE_LOOP('',(#798,#799,#800,#801));
#393=EDGE_LOOP('',(#802,#803,#804,#805));
#394=EDGE_LOOP('',(#806,#807,#808,#809));
#395=EDGE_LOOP('',(#810,#811,#812,#813));
#396=EDGE_LOOP('',(#814,#815,#816,#817,#818,#819,#820,#821));
#397=EDGE_LOOP('',(#822,#823,#824,#825));
#398=EDGE_LOOP('',(#826));
#399=EDGE_LOOP('',(#827));
#400=EDGE_LOOP('',(#828,#829,#830,#831));
#401=EDGE_LOOP('',(#832,#833,#834,#835,#836,#837));
#402=EDGE_LOOP('',(#838));
#403=EDGE_LOOP('',(#839));
#404=EDGE_LOOP('',(#840,#841,#842,#843));
#405=EDGE_LOOP('',(#844,#845,#846,#847));
#406=EDGE_LOOP('',(#848,#849,#850,#851));
#407=EDGE_LOOP('',(#852,#853,#854,#855));
#408=EDGE_LOOP('',(#856,#857,#858,#859));
#409=EDGE_LOOP('',(#860,#861,#862,#863));
#410=EDGE_LOOP('',(#864,#865,#866,#867,#868,#869,#870));
#411=EDGE_LOOP('',(#871,#872,#873,#874,#875,#876,#877,#878,#879,#880,#881,
#882,#883,#884,#885,#886,#887,#888,#889,#890,#891,#892,#893,#894,#895,#896,
#897,#898,#899,#900,#901,#902,#903,#904,#905,#906,#907,#908,#909,#910,#911,
#912,#913,#914,#915));
#412=EDGE_LOOP('',(#916));
#413=EDGE_LOOP('',(#917));
#414=EDGE_LOOP('',(#918,#919,#920,#921,#922,#923,#924,#925));
#415=EDGE_LOOP('',(#926));
#416=EDGE_LOOP('',(#927));
#417=EDGE_LOOP('',(#928,#929,#930,#931));
#418=EDGE_LOOP('',(#932,#933,#934,#935));
#419=EDGE_LOOP('',(#936,#937,#938,#939));
#420=EDGE_LOOP('',(#940,#941,#942,#943));
#421=EDGE_LOOP('',(#944,#945,#946,#947));
#422=EDGE_LOOP('',(#948,#949,#950,#951));
#423=EDGE_LOOP('',(#952,#953,#954,#955));
#424=EDGE_LOOP('',(#956,#957,#958,#959));
#425=EDGE_LOOP('',(#960,#961,#962,#963));
#426=EDGE_LOOP('',(#964,#965,#966,#967));
#427=EDGE_LOOP('',(#968,#969,#970,#971));
#428=EDGE_LOOP('',(#972,#973,#974,#975));
#429=EDGE_LOOP('',(#976,#977,#978,#979));
#430=EDGE_LOOP('',(#980,#981,#982,#983));
#431=EDGE_LOOP('',(#984,#985,#986,#987));
#432=EDGE_LOOP('',(#988,#989,#990,#991));
#433=EDGE_LOOP('',(#992,#993,#994,#995));
#434=EDGE_LOOP('',(#996,#997,#998,#999));
#435=EDGE_LOOP('',(#1000,#1001,#1002,#1003));
#436=EDGE_LOOP('',(#1004,#1005,#1006,#1007));
#437=EDGE_LOOP('',(#1008,#1009,#1010,#1011));
#438=EDGE_LOOP('',(#1012,#1013,#1014,#1015));
#439=EDGE_LOOP('',(#1016,#1017,#1018,#1019));
#440=EDGE_LOOP('',(#1020,#1021,#1022,#1023));
#441=EDGE_LOOP('',(#1024,#1025,#1026,#1027));
#442=EDGE_LOOP('',(#1028,#1029,#1030,#1031));
#443=EDGE_LOOP('',(#1032,#1033,#1034,#1035));
#444=EDGE_LOOP('',(#1036,#1037,#1038,#1039));
#445=EDGE_LOOP('',(#1040,#1041,#1042,#1043));
#446=EDGE_LOOP('',(#1044,#1045,#1046,#1047));
#447=EDGE_LOOP('',(#1048,#1049,#1050,#1051));
#448=EDGE_LOOP('',(#1052,#1053,#1054,#1055));
#449=EDGE_LOOP('',(#1056,#1057,#1058,#1059));
#450=EDGE_LOOP('',(#1060,#1061,#1062,#1063));
#451=EDGE_LOOP('',(#1064,#1065,#1066,#1067));
#452=EDGE_LOOP('',(#1068,#1069,#1070,#1071));
#453=EDGE_LOOP('',(#1072,#1073,#1074,#1075));
#454=EDGE_LOOP('',(#1076,#1077,#1078,#1079));
#455=EDGE_LOOP('',(#1080,#1081,#1082,#1083));
#456=EDGE_LOOP('',(#1084,#1085,#1086,#1087));
#457=EDGE_LOOP('',(#1088,#1089,#1090,#1091));
#458=CIRCLE('',#1224,3.875);
#459=CIRCLE('',#1225,0.5);
#460=CIRCLE('',#1229,1.30000000000001);
#461=CIRCLE('',#1230,1.30000000000001);
#462=CIRCLE('',#1233,0.5);
#463=CIRCLE('',#1234,0.5);
#464=CIRCLE('',#1235,0.5);
#465=CIRCLE('',#1237,3.25);
#466=CIRCLE('',#1238,3.25);
#467=CIRCLE('',#1240,2.75);
#468=CIRCLE('',#1242,2.75);
#469=CIRCLE('',#1244,5.5);
#470=CIRCLE('',#1252,5.5);
#471=CIRCLE('',#1253,5.5);
#472=CIRCLE('',#1256,5.5);
#473=CIRCLE('',#1257,4.);
#474=CIRCLE('',#1260,4.);
#475=CIRCLE('',#1261,3.875);
#476=VERTEX_POINT('',#1617);
#477=VERTEX_POINT('',#1619);
#478=VERTEX_POINT('',#1620);
#479=VERTEX_POINT('',#1622);
#480=VERTEX_POINT('',#1624);
#481=VERTEX_POINT('',#1626);
#482=VERTEX_POINT('',#1628);
#483=VERTEX_POINT('',#1630);
#484=VERTEX_POINT('',#1632);
#485=VERTEX_POINT('',#1634);
#486=VERTEX_POINT('',#1636);
#487=VERTEX_POINT('',#1638);
#488=VERTEX_POINT('',#1640);
#489=VERTEX_POINT('',#1642);
#490=VERTEX_POINT('',#1644);
#491=VERTEX_POINT('',#1646);
#492=VERTEX_POINT('',#1648);
#493=VERTEX_POINT('',#1650);
#494=VERTEX_POINT('',#1652);
#495=VERTEX_POINT('',#1654);
#496=VERTEX_POINT('',#1656);
#497=VERTEX_POINT('',#1658);
#498=VERTEX_POINT('',#1660);
#499=VERTEX_POINT('',#1662);
#500=VERTEX_POINT('',#1664);
#501=VERTEX_POINT('',#1666);
#502=VERTEX_POINT('',#1668);
#503=VERTEX_POINT('',#1670);
#504=VERTEX_POINT('',#1672);
#505=VERTEX_POINT('',#1674);
#506=VERTEX_POINT('',#1676);
#507=VERTEX_POINT('',#1678);
#508=VERTEX_POINT('',#1680);
#509=VERTEX_POINT('',#1682);
#510=VERTEX_POINT('',#1684);
#511=VERTEX_POINT('',#1686);
#512=VERTEX_POINT('',#1688);
#513=VERTEX_POINT('',#1690);
#514=VERTEX_POINT('',#1692);
#515=VERTEX_POINT('',#1694);
#516=VERTEX_POINT('',#1696);
#517=VERTEX_POINT('',#1698);
#518=VERTEX_POINT('',#1702);
#519=VERTEX_POINT('',#1704);
#520=VERTEX_POINT('',#1708);
#521=VERTEX_POINT('',#1709);
#522=VERTEX_POINT('',#1711);
#523=VERTEX_POINT('',#1713);
#524=VERTEX_POINT('',#1717);
#525=VERTEX_POINT('',#1719);
#526=VERTEX_POINT('',#1723);
#527=VERTEX_POINT('',#1725);
#528=VERTEX_POINT('',#1731);
#529=VERTEX_POINT('',#1735);
#530=VERTEX_POINT('',#1737);
#531=VERTEX_POINT('',#1741);
#532=VERTEX_POINT('',#1744);
#533=VERTEX_POINT('',#1748);
#534=VERTEX_POINT('',#1749);
#535=VERTEX_POINT('',#1751);
#536=VERTEX_POINT('',#1753);
#537=VERTEX_POINT('',#1755);
#538=VERTEX_POINT('',#1757);
#539=VERTEX_POINT('',#1762);
#540=VERTEX_POINT('',#1763);
#541=VERTEX_POINT('',#1768);
#542=VERTEX_POINT('',#1772);
#543=VERTEX_POINT('',#1776);
#544=VERTEX_POINT('',#1777);
#545=VERTEX_POINT('',#1784);
#546=VERTEX_POINT('',#1788);
#547=VERTEX_POINT('',#1789);
#548=VERTEX_POINT('',#1791);
#549=VERTEX_POINT('',#1793);
#550=VERTEX_POINT('',#1795);
#551=VERTEX_POINT('',#1797);
#552=VERTEX_POINT('',#1799);
#553=VERTEX_POINT('',#1801);
#554=VERTEX_POINT('',#1803);
#555=VERTEX_POINT('',#1805);
#556=VERTEX_POINT('',#1807);
#557=VERTEX_POINT('',#1809);
#558=VERTEX_POINT('',#1811);
#559=VERTEX_POINT('',#1813);
#560=VERTEX_POINT('',#1815);
#561=VERTEX_POINT('',#1817);
#562=VERTEX_POINT('',#1819);
#563=VERTEX_POINT('',#1821);
#564=VERTEX_POINT('',#1823);
#565=VERTEX_POINT('',#1825);
#566=VERTEX_POINT('',#1827);
#567=VERTEX_POINT('',#1829);
#568=VERTEX_POINT('',#1831);
#569=VERTEX_POINT('',#1833);
#570=VERTEX_POINT('',#1836);
#571=VERTEX_POINT('',#1838);
#572=VERTEX_POINT('',#1840);
#573=VERTEX_POINT('',#1842);
#574=VERTEX_POINT('',#1844);
#575=VERTEX_POINT('',#1846);
#576=VERTEX_POINT('',#1848);
#577=VERTEX_POINT('',#1850);
#578=VERTEX_POINT('',#1852);
#579=VERTEX_POINT('',#1854);
#580=VERTEX_POINT('',#1856);
#581=VERTEX_POINT('',#1858);
#582=VERTEX_POINT('',#1860);
#583=VERTEX_POINT('',#1862);
#584=VERTEX_POINT('',#1866);
#585=VERTEX_POINT('',#1868);
#586=VERTEX_POINT('',#1873);
#587=VERTEX_POINT('',#1875);
#588=EDGE_CURVE('',#476,#476,#458,.T.);
#589=EDGE_CURVE('',#477,#478,#459,.T.);
#590=EDGE_CURVE('',#479,#478,#28,.T.);
#591=EDGE_CURVE('',#480,#479,#29,.T.);
#592=EDGE_CURVE('',#481,#480,#30,.T.);
#593=EDGE_CURVE('',#482,#481,#31,.T.);
#594=EDGE_CURVE('',#483,#482,#32,.T.);
#595=EDGE_CURVE('',#484,#483,#33,.T.);
#596=EDGE_CURVE('',#485,#484,#34,.T.);
#597=EDGE_CURVE('',#486,#485,#35,.T.);
#598=EDGE_CURVE('',#487,#486,#36,.T.);
#599=EDGE_CURVE('',#488,#487,#37,.T.);
#600=EDGE_CURVE('',#489,#488,#38,.T.);
#601=EDGE_CURVE('',#490,#489,#39,.T.);
#602=EDGE_CURVE('',#491,#490,#40,.T.);
#603=EDGE_CURVE('',#492,#491,#41,.T.);
#604=EDGE_CURVE('',#493,#492,#42,.T.);
#605=EDGE_CURVE('',#494,#493,#43,.T.);
#606=EDGE_CURVE('',#495,#494,#44,.T.);
#607=EDGE_CURVE('',#496,#495,#45,.T.);
#608=EDGE_CURVE('',#497,#496,#46,.T.);
#609=EDGE_CURVE('',#498,#497,#47,.T.);
#610=EDGE_CURVE('',#499,#498,#48,.T.);
#611=EDGE_CURVE('',#500,#499,#49,.T.);
#612=EDGE_CURVE('',#501,#500,#50,.T.);
#613=EDGE_CURVE('',#502,#501,#51,.T.);
#614=EDGE_CURVE('',#503,#502,#52,.T.);
#615=EDGE_CURVE('',#504,#503,#53,.T.);
#616=EDGE_CURVE('',#505,#504,#54,.T.);
#617=EDGE_CURVE('',#506,#505,#55,.T.);
#618=EDGE_CURVE('',#507,#506,#56,.T.);
#619=EDGE_CURVE('',#508,#507,#57,.T.);
#620=EDGE_CURVE('',#509,#508,#58,.T.);
#621=EDGE_CURVE('',#510,#509,#59,.T.);
#622=EDGE_CURVE('',#511,#510,#60,.T.);
#623=EDGE_CURVE('',#512,#511,#61,.T.);
#624=EDGE_CURVE('',#513,#512,#62,.T.);
#625=EDGE_CURVE('',#514,#513,#63,.T.);
#626=EDGE_CURVE('',#515,#514,#64,.T.);
#627=EDGE_CURVE('',#516,#515,#65,.T.);
#628=EDGE_CURVE('',#517,#516,#66,.T.);
#629=EDGE_CURVE('',#477,#517,#67,.T.);
#630=EDGE_CURVE('',#478,#518,#68,.T.);
#631=EDGE_CURVE('',#519,#518,#69,.T.);
#632=EDGE_CURVE('',#479,#519,#70,.T.);
#633=EDGE_CURVE('',#520,#521,#71,.T.);
#634=EDGE_CURVE('',#521,#522,#72,.T.);
#635=EDGE_CURVE('',#522,#523,#73,.T.);
#636=EDGE_CURVE('',#520,#523,#74,.T.);
#637=EDGE_CURVE('',#524,#520,#460,.T.);
#638=EDGE_CURVE('',#523,#525,#461,.T.);
#639=EDGE_CURVE('',#524,#525,#75,.T.);
#640=EDGE_CURVE('',#526,#524,#76,.T.);
#641=EDGE_CURVE('',#525,#527,#77,.T.);
#642=EDGE_CURVE('',#526,#527,#78,.T.);
#643=EDGE_CURVE('',#521,#526,#462,.T.);
#644=EDGE_CURVE('',#527,#518,#463,.T.);
#645=EDGE_CURVE('',#528,#477,#79,.T.);
#646=EDGE_CURVE('',#528,#522,#464,.T.);
#647=EDGE_CURVE('',#529,#529,#465,.T.);
#648=EDGE_CURVE('',#529,#530,#80,.T.);
#649=EDGE_CURVE('',#530,#530,#466,.T.);
#650=EDGE_CURVE('',#531,#531,#467,.T.);
#651=EDGE_CURVE('',#531,#532,#81,.T.);
#652=EDGE_CURVE('',#532,#532,#468,.T.);
#653=EDGE_CURVE('',#533,#534,#82,.T.);
#654=EDGE_CURVE('',#534,#535,#83,.T.);
#655=EDGE_CURVE('',#535,#536,#84,.T.);
#656=EDGE_CURVE('',#536,#537,#469,.T.);
#657=EDGE_CURVE('',#537,#538,#85,.T.);
#658=EDGE_CURVE('',#538,#533,#86,.T.);
#659=EDGE_CURVE('',#539,#540,#87,.T.);
#660=EDGE_CURVE('',#539,#534,#88,.T.);
#661=EDGE_CURVE('',#540,#533,#89,.T.);
#662=EDGE_CURVE('',#540,#541,#90,.T.);
#663=EDGE_CURVE('',#541,#538,#91,.T.);
#664=EDGE_CURVE('',#541,#542,#92,.T.);
#665=EDGE_CURVE('',#542,#537,#93,.T.);
#666=EDGE_CURVE('',#543,#544,#94,.T.);
#667=EDGE_CURVE('',#543,#536,#95,.T.);
#668=EDGE_CURVE('',#544,#535,#96,.T.);
#669=EDGE_CURVE('',#544,#539,#97,.T.);
#670=EDGE_CURVE('',#542,#545,#470,.T.);
#671=EDGE_CURVE('',#545,#543,#471,.T.);
#672=EDGE_CURVE('',#546,#547,#98,.T.);
#673=EDGE_CURVE('',#547,#548,#99,.T.);
#674=EDGE_CURVE('',#548,#549,#100,.T.);
#675=EDGE_CURVE('',#549,#550,#101,.T.);
#676=EDGE_CURVE('',#550,#551,#102,.T.);
#677=EDGE_CURVE('',#551,#552,#103,.T.);
#678=EDGE_CURVE('',#552,#553,#104,.T.);
#679=EDGE_CURVE('',#553,#554,#105,.T.);
#680=EDGE_CURVE('',#554,#555,#106,.T.);
#681=EDGE_CURVE('',#555,#556,#107,.T.);
#682=EDGE_CURVE('',#556,#557,#108,.T.);
#683=EDGE_CURVE('',#557,#558,#109,.T.);
#684=EDGE_CURVE('',#558,#559,#110,.T.);
#685=EDGE_CURVE('',#559,#560,#111,.T.);
#686=EDGE_CURVE('',#560,#561,#112,.T.);
#687=EDGE_CURVE('',#561,#562,#113,.T.);
#688=EDGE_CURVE('',#562,#563,#114,.T.);
#689=EDGE_CURVE('',#563,#564,#115,.T.);
#690=EDGE_CURVE('',#564,#565,#116,.T.);
#691=EDGE_CURVE('',#565,#566,#117,.T.);
#692=EDGE_CURVE('',#566,#567,#118,.T.);
#693=EDGE_CURVE('',#567,#568,#119,.T.);
#694=EDGE_CURVE('',#568,#569,#120,.T.);
#695=EDGE_CURVE('',#569,#519,#121,.T.);
#696=EDGE_CURVE('',#528,#570,#122,.T.);
#697=EDGE_CURVE('',#570,#571,#123,.T.);
#698=EDGE_CURVE('',#571,#572,#124,.T.);
#699=EDGE_CURVE('',#572,#573,#125,.T.);
#700=EDGE_CURVE('',#573,#574,#126,.T.);
#701=EDGE_CURVE('',#574,#575,#127,.T.);
#702=EDGE_CURVE('',#575,#576,#128,.T.);
#703=EDGE_CURVE('',#576,#577,#129,.T.);
#704=EDGE_CURVE('',#577,#578,#130,.T.);
#705=EDGE_CURVE('',#578,#579,#131,.T.);
#706=EDGE_CURVE('',#579,#580,#132,.T.);
#707=EDGE_CURVE('',#580,#581,#133,.T.);
#708=EDGE_CURVE('',#581,#582,#134,.T.);
#709=EDGE_CURVE('',#582,#583,#135,.T.);
#710=EDGE_CURVE('',#583,#546,#136,.T.);
#711=EDGE_CURVE('',#584,#584,#472,.T.);
#712=EDGE_CURVE('',#585,#585,#473,.T.);
#713=EDGE_CURVE('',#545,#584,#137,.T.);
#714=EDGE_CURVE('',#586,#586,#474,.T.);
#715=EDGE_CURVE('',#587,#587,#475,.T.);
#716=EDGE_CURVE('',#585,#586,#138,.T.);
#717=EDGE_CURVE('',#502,#547,#139,.T.);
#718=EDGE_CURVE('',#503,#546,#140,.T.);
#719=EDGE_CURVE('',#504,#583,#141,.T.);
#720=EDGE_CURVE('',#505,#582,#142,.T.);
#721=EDGE_CURVE('',#506,#581,#143,.T.);
#722=EDGE_CURVE('',#507,#580,#144,.T.);
#723=EDGE_CURVE('',#508,#579,#145,.T.);
#724=EDGE_CURVE('',#509,#578,#146,.T.);
#725=EDGE_CURVE('',#510,#577,#147,.T.);
#726=EDGE_CURVE('',#511,#576,#148,.T.);
#727=EDGE_CURVE('',#512,#575,#149,.T.);
#728=EDGE_CURVE('',#513,#574,#150,.T.);
#729=EDGE_CURVE('',#514,#573,#151,.T.);
#730=EDGE_CURVE('',#515,#572,#152,.T.);
#731=EDGE_CURVE('',#516,#571,#153,.T.);
#732=EDGE_CURVE('',#517,#570,#154,.T.);
#733=EDGE_CURVE('',#480,#569,#155,.T.);
#734=EDGE_CURVE('',#481,#568,#156,.T.);
#735=EDGE_CURVE('',#482,#567,#157,.T.);
#736=EDGE_CURVE('',#483,#566,#158,.T.);
#737=EDGE_CURVE('',#484,#565,#159,.T.);
#738=EDGE_CURVE('',#485,#564,#160,.T.);
#739=EDGE_CURVE('',#486,#563,#161,.T.);
#740=EDGE_CURVE('',#487,#562,#162,.T.);
#741=EDGE_CURVE('',#488,#561,#163,.T.);
#742=EDGE_CURVE('',#489,#560,#164,.T.);
#743=EDGE_CURVE('',#490,#559,#165,.T.);
#744=EDGE_CURVE('',#491,#558,#166,.T.);
#745=EDGE_CURVE('',#492,#557,#167,.T.);
#746=EDGE_CURVE('',#493,#556,#168,.T.);
#747=EDGE_CURVE('',#494,#555,#169,.T.);
#748=EDGE_CURVE('',#495,#554,#170,.T.);
#749=EDGE_CURVE('',#496,#553,#171,.T.);
#750=EDGE_CURVE('',#497,#552,#172,.T.);
#751=EDGE_CURVE('',#498,#551,#173,.T.);
#752=EDGE_CURVE('',#499,#550,#174,.T.);
#753=EDGE_CURVE('',#500,#549,#175,.T.);
#754=EDGE_CURVE('',#501,#548,#176,.T.);
#755=EDGE_CURVE('',#587,#476,#177,.T.);
#756=ORIENTED_EDGE('',*,*,#588,.F.);
#757=ORIENTED_EDGE('',*,*,#589,.T.);
#758=ORIENTED_EDGE('',*,*,#590,.F.);
#759=ORIENTED_EDGE('',*,*,#591,.F.);
#760=ORIENTED_EDGE('',*,*,#592,.F.);
#761=ORIENTED_EDGE('',*,*,#593,.F.);
#762=ORIENTED_EDGE('',*,*,#594,.F.);
#763=ORIENTED_EDGE('',*,*,#595,.F.);
#764=ORIENTED_EDGE('',*,*,#596,.F.);
#765=ORIENTED_EDGE('',*,*,#597,.F.);
#766=ORIENTED_EDGE('',*,*,#598,.F.);
#767=ORIENTED_EDGE('',*,*,#599,.F.);
#768=ORIENTED_EDGE('',*,*,#600,.F.);
#769=ORIENTED_EDGE('',*,*,#601,.F.);
#770=ORIENTED_EDGE('',*,*,#602,.F.);
#771=ORIENTED_EDGE('',*,*,#603,.F.);
#772=ORIENTED_EDGE('',*,*,#604,.F.);
#773=ORIENTED_EDGE('',*,*,#605,.F.);
#774=ORIENTED_EDGE('',*,*,#606,.F.);
#775=ORIENTED_EDGE('',*,*,#607,.F.);
#776=ORIENTED_EDGE('',*,*,#608,.F.);
#777=ORIENTED_EDGE('',*,*,#609,.F.);
#778=ORIENTED_EDGE('',*,*,#610,.F.);
#779=ORIENTED_EDGE('',*,*,#611,.F.);
#780=ORIENTED_EDGE('',*,*,#612,.F.);
#781=ORIENTED_EDGE('',*,*,#613,.F.);
#782=ORIENTED_EDGE('',*,*,#614,.F.);
#783=ORIENTED_EDGE('',*,*,#615,.F.);
#784=ORIENTED_EDGE('',*,*,#616,.F.);
#785=ORIENTED_EDGE('',*,*,#617,.F.);
#786=ORIENTED_EDGE('',*,*,#618,.F.);
#787=ORIENTED_EDGE('',*,*,#619,.F.);
#788=ORIENTED_EDGE('',*,*,#620,.F.);
#789=ORIENTED_EDGE('',*,*,#621,.F.);
#790=ORIENTED_EDGE('',*,*,#622,.F.);
#791=ORIENTED_EDGE('',*,*,#623,.F.);
#792=ORIENTED_EDGE('',*,*,#624,.F.);
#793=ORIENTED_EDGE('',*,*,#625,.F.);
#794=ORIENTED_EDGE('',*,*,#626,.F.);
#795=ORIENTED_EDGE('',*,*,#627,.F.);
#796=ORIENTED_EDGE('',*,*,#628,.F.);
#797=ORIENTED_EDGE('',*,*,#629,.F.);
#798=ORIENTED_EDGE('',*,*,#630,.T.);
#799=ORIENTED_EDGE('',*,*,#631,.F.);
#800=ORIENTED_EDGE('',*,*,#632,.F.);
#801=ORIENTED_EDGE('',*,*,#590,.T.);
#802=ORIENTED_EDGE('',*,*,#633,.T.);
#803=ORIENTED_EDGE('',*,*,#634,.T.);
#804=ORIENTED_EDGE('',*,*,#635,.T.);
#805=ORIENTED_EDGE('',*,*,#636,.F.);
#806=ORIENTED_EDGE('',*,*,#637,.T.);
#807=ORIENTED_EDGE('',*,*,#636,.T.);
#808=ORIENTED_EDGE('',*,*,#638,.T.);
#809=ORIENTED_EDGE('',*,*,#639,.F.);
#810=ORIENTED_EDGE('',*,*,#640,.T.);
#811=ORIENTED_EDGE('',*,*,#639,.T.);
#812=ORIENTED_EDGE('',*,*,#641,.T.);
#813=ORIENTED_EDGE('',*,*,#642,.F.);
#814=ORIENTED_EDGE('',*,*,#643,.T.);
#815=ORIENTED_EDGE('',*,*,#642,.T.);
#816=ORIENTED_EDGE('',*,*,#644,.T.);
#817=ORIENTED_EDGE('',*,*,#630,.F.);
#818=ORIENTED_EDGE('',*,*,#589,.F.);
#819=ORIENTED_EDGE('',*,*,#645,.F.);
#820=ORIENTED_EDGE('',*,*,#646,.T.);
#821=ORIENTED_EDGE('',*,*,#634,.F.);
#822=ORIENTED_EDGE('',*,*,#647,.F.);
#823=ORIENTED_EDGE('',*,*,#648,.T.);
#824=ORIENTED_EDGE('',*,*,#649,.T.);
#825=ORIENTED_EDGE('',*,*,#648,.F.);
#826=ORIENTED_EDGE('',*,*,#649,.F.);
#827=ORIENTED_EDGE('',*,*,#650,.F.);
#828=ORIENTED_EDGE('',*,*,#650,.T.);
#829=ORIENTED_EDGE('',*,*,#651,.T.);
#830=ORIENTED_EDGE('',*,*,#652,.F.);
#831=ORIENTED_EDGE('',*,*,#651,.F.);
#832=ORIENTED_EDGE('',*,*,#653,.T.);
#833=ORIENTED_EDGE('',*,*,#654,.T.);
#834=ORIENTED_EDGE('',*,*,#655,.T.);
#835=ORIENTED_EDGE('',*,*,#656,.T.);
#836=ORIENTED_EDGE('',*,*,#657,.T.);
#837=ORIENTED_EDGE('',*,*,#658,.T.);
#838=ORIENTED_EDGE('',*,*,#647,.T.);
#839=ORIENTED_EDGE('',*,*,#652,.T.);
#840=ORIENTED_EDGE('',*,*,#637,.F.);
#841=ORIENTED_EDGE('',*,*,#640,.F.);
#842=ORIENTED_EDGE('',*,*,#643,.F.);
#843=ORIENTED_EDGE('',*,*,#633,.F.);
#844=ORIENTED_EDGE('',*,*,#659,.F.);
#845=ORIENTED_EDGE('',*,*,#660,.T.);
#846=ORIENTED_EDGE('',*,*,#653,.F.);
#847=ORIENTED_EDGE('',*,*,#661,.F.);
#848=ORIENTED_EDGE('',*,*,#662,.F.);
#849=ORIENTED_EDGE('',*,*,#661,.T.);
#850=ORIENTED_EDGE('',*,*,#658,.F.);
#851=ORIENTED_EDGE('',*,*,#663,.F.);
#852=ORIENTED_EDGE('',*,*,#664,.F.);
#853=ORIENTED_EDGE('',*,*,#663,.T.);
#854=ORIENTED_EDGE('',*,*,#657,.F.);
#855=ORIENTED_EDGE('',*,*,#665,.F.);
#856=ORIENTED_EDGE('',*,*,#666,.F.);
#857=ORIENTED_EDGE('',*,*,#667,.T.);
#858=ORIENTED_EDGE('',*,*,#655,.F.);
#859=ORIENTED_EDGE('',*,*,#668,.F.);
#860=ORIENTED_EDGE('',*,*,#669,.F.);
#861=ORIENTED_EDGE('',*,*,#668,.T.);
#862=ORIENTED_EDGE('',*,*,#654,.F.);
#863=ORIENTED_EDGE('',*,*,#660,.F.);
#864=ORIENTED_EDGE('',*,*,#664,.T.);
#865=ORIENTED_EDGE('',*,*,#670,.T.);
#866=ORIENTED_EDGE('',*,*,#671,.T.);
#867=ORIENTED_EDGE('',*,*,#666,.T.);
#868=ORIENTED_EDGE('',*,*,#669,.T.);
#869=ORIENTED_EDGE('',*,*,#659,.T.);
#870=ORIENTED_EDGE('',*,*,#662,.T.);
#871=ORIENTED_EDGE('',*,*,#672,.T.);
#872=ORIENTED_EDGE('',*,*,#673,.T.);
#873=ORIENTED_EDGE('',*,*,#674,.T.);
#874=ORIENTED_EDGE('',*,*,#675,.T.);
#875=ORIENTED_EDGE('',*,*,#676,.T.);
#876=ORIENTED_EDGE('',*,*,#677,.T.);
#877=ORIENTED_EDGE('',*,*,#678,.T.);
#878=ORIENTED_EDGE('',*,*,#679,.T.);
#879=ORIENTED_EDGE('',*,*,#680,.T.);
#880=ORIENTED_EDGE('',*,*,#681,.T.);
#881=ORIENTED_EDGE('',*,*,#682,.T.);
#882=ORIENTED_EDGE('',*,*,#683,.T.);
#883=ORIENTED_EDGE('',*,*,#684,.T.);
#884=ORIENTED_EDGE('',*,*,#685,.T.);
#885=ORIENTED_EDGE('',*,*,#686,.T.);
#886=ORIENTED_EDGE('',*,*,#687,.T.);
#887=ORIENTED_EDGE('',*,*,#688,.T.);
#888=ORIENTED_EDGE('',*,*,#689,.T.);
#889=ORIENTED_EDGE('',*,*,#690,.T.);
#890=ORIENTED_EDGE('',*,*,#691,.T.);
#891=ORIENTED_EDGE('',*,*,#692,.T.);
#892=ORIENTED_EDGE('',*,*,#693,.T.);
#893=ORIENTED_EDGE('',*,*,#694,.T.);
#894=ORIENTED_EDGE('',*,*,#695,.T.);
#895=ORIENTED_EDGE('',*,*,#631,.T.);
#896=ORIENTED_EDGE('',*,*,#644,.F.);
#897=ORIENTED_EDGE('',*,*,#641,.F.);
#898=ORIENTED_EDGE('',*,*,#638,.F.);
#899=ORIENTED_EDGE('',*,*,#635,.F.);
#900=ORIENTED_EDGE('',*,*,#646,.F.);
#901=ORIENTED_EDGE('',*,*,#696,.T.);
#902=ORIENTED_EDGE('',*,*,#697,.T.);
#903=ORIENTED_EDGE('',*,*,#698,.T.);
#904=ORIENTED_EDGE('',*,*,#699,.T.);
#905=ORIENTED_EDGE('',*,*,#700,.T.);
#906=ORIENTED_EDGE('',*,*,#701,.T.);
#907=ORIENTED_EDGE('',*,*,#702,.T.);
#908=ORIENTED_EDGE('',*,*,#703,.T.);
#909=ORIENTED_EDGE('',*,*,#704,.T.);
#910=ORIENTED_EDGE('',*,*,#705,.T.);
#911=ORIENTED_EDGE('',*,*,#706,.T.);
#912=ORIENTED_EDGE('',*,*,#707,.T.);
#913=ORIENTED_EDGE('',*,*,#708,.T.);
#914=ORIENTED_EDGE('',*,*,#709,.T.);
#915=ORIENTED_EDGE('',*,*,#710,.T.);
#916=ORIENTED_EDGE('',*,*,#711,.F.);
#917=ORIENTED_EDGE('',*,*,#712,.T.);
#918=ORIENTED_EDGE('',*,*,#670,.F.);
#919=ORIENTED_EDGE('',*,*,#665,.T.);
#920=ORIENTED_EDGE('',*,*,#656,.F.);
#921=ORIENTED_EDGE('',*,*,#667,.F.);
#922=ORIENTED_EDGE('',*,*,#671,.F.);
#923=ORIENTED_EDGE('',*,*,#713,.T.);
#924=ORIENTED_EDGE('',*,*,#711,.T.);
#925=ORIENTED_EDGE('',*,*,#713,.F.);
#926=ORIENTED_EDGE('',*,*,#714,.F.);
#927=ORIENTED_EDGE('',*,*,#715,.T.);
#928=ORIENTED_EDGE('',*,*,#712,.F.);
#929=ORIENTED_EDGE('',*,*,#716,.T.);
#930=ORIENTED_EDGE('',*,*,#714,.T.);
#931=ORIENTED_EDGE('',*,*,#716,.F.);
#932=ORIENTED_EDGE('',*,*,#614,.T.);
#933=ORIENTED_EDGE('',*,*,#717,.T.);
#934=ORIENTED_EDGE('',*,*,#672,.F.);
#935=ORIENTED_EDGE('',*,*,#718,.F.);
#936=ORIENTED_EDGE('',*,*,#615,.T.);
#937=ORIENTED_EDGE('',*,*,#718,.T.);
#938=ORIENTED_EDGE('',*,*,#710,.F.);
#939=ORIENTED_EDGE('',*,*,#719,.F.);
#940=ORIENTED_EDGE('',*,*,#616,.T.);
#941=ORIENTED_EDGE('',*,*,#719,.T.);
#942=ORIENTED_EDGE('',*,*,#709,.F.);
#943=ORIENTED_EDGE('',*,*,#720,.F.);
#944=ORIENTED_EDGE('',*,*,#617,.T.);
#945=ORIENTED_EDGE('',*,*,#720,.T.);
#946=ORIENTED_EDGE('',*,*,#708,.F.);
#947=ORIENTED_EDGE('',*,*,#721,.F.);
#948=ORIENTED_EDGE('',*,*,#618,.T.);
#949=ORIENTED_EDGE('',*,*,#721,.T.);
#950=ORIENTED_EDGE('',*,*,#707,.F.);
#951=ORIENTED_EDGE('',*,*,#722,.F.);
#952=ORIENTED_EDGE('',*,*,#619,.T.);
#953=ORIENTED_EDGE('',*,*,#722,.T.);
#954=ORIENTED_EDGE('',*,*,#706,.F.);
#955=ORIENTED_EDGE('',*,*,#723,.F.);
#956=ORIENTED_EDGE('',*,*,#620,.T.);
#957=ORIENTED_EDGE('',*,*,#723,.T.);
#958=ORIENTED_EDGE('',*,*,#705,.F.);
#959=ORIENTED_EDGE('',*,*,#724,.F.);
#960=ORIENTED_EDGE('',*,*,#621,.T.);
#961=ORIENTED_EDGE('',*,*,#724,.T.);
#962=ORIENTED_EDGE('',*,*,#704,.F.);
#963=ORIENTED_EDGE('',*,*,#725,.F.);
#964=ORIENTED_EDGE('',*,*,#622,.T.);
#965=ORIENTED_EDGE('',*,*,#725,.T.);
#966=ORIENTED_EDGE('',*,*,#703,.F.);
#967=ORIENTED_EDGE('',*,*,#726,.F.);
#968=ORIENTED_EDGE('',*,*,#623,.T.);
#969=ORIENTED_EDGE('',*,*,#726,.T.);
#970=ORIENTED_EDGE('',*,*,#702,.F.);
#971=ORIENTED_EDGE('',*,*,#727,.F.);
#972=ORIENTED_EDGE('',*,*,#624,.T.);
#973=ORIENTED_EDGE('',*,*,#727,.T.);
#974=ORIENTED_EDGE('',*,*,#701,.F.);
#975=ORIENTED_EDGE('',*,*,#728,.F.);
#976=ORIENTED_EDGE('',*,*,#625,.T.);
#977=ORIENTED_EDGE('',*,*,#728,.T.);
#978=ORIENTED_EDGE('',*,*,#700,.F.);
#979=ORIENTED_EDGE('',*,*,#729,.F.);
#980=ORIENTED_EDGE('',*,*,#626,.T.);
#981=ORIENTED_EDGE('',*,*,#729,.T.);
#982=ORIENTED_EDGE('',*,*,#699,.F.);
#983=ORIENTED_EDGE('',*,*,#730,.F.);
#984=ORIENTED_EDGE('',*,*,#627,.T.);
#985=ORIENTED_EDGE('',*,*,#730,.T.);
#986=ORIENTED_EDGE('',*,*,#698,.F.);
#987=ORIENTED_EDGE('',*,*,#731,.F.);
#988=ORIENTED_EDGE('',*,*,#628,.T.);
#989=ORIENTED_EDGE('',*,*,#731,.T.);
#990=ORIENTED_EDGE('',*,*,#697,.F.);
#991=ORIENTED_EDGE('',*,*,#732,.F.);
#992=ORIENTED_EDGE('',*,*,#645,.T.);
#993=ORIENTED_EDGE('',*,*,#629,.T.);
#994=ORIENTED_EDGE('',*,*,#732,.T.);
#995=ORIENTED_EDGE('',*,*,#696,.F.);
#996=ORIENTED_EDGE('',*,*,#591,.T.);
#997=ORIENTED_EDGE('',*,*,#632,.T.);
#998=ORIENTED_EDGE('',*,*,#695,.F.);
#999=ORIENTED_EDGE('',*,*,#733,.F.);
#1000=ORIENTED_EDGE('',*,*,#592,.T.);
#1001=ORIENTED_EDGE('',*,*,#733,.T.);
#1002=ORIENTED_EDGE('',*,*,#694,.F.);
#1003=ORIENTED_EDGE('',*,*,#734,.F.);
#1004=ORIENTED_EDGE('',*,*,#593,.T.);
#1005=ORIENTED_EDGE('',*,*,#734,.T.);
#1006=ORIENTED_EDGE('',*,*,#693,.F.);
#1007=ORIENTED_EDGE('',*,*,#735,.F.);
#1008=ORIENTED_EDGE('',*,*,#594,.T.);
#1009=ORIENTED_EDGE('',*,*,#735,.T.);
#1010=ORIENTED_EDGE('',*,*,#692,.F.);
#1011=ORIENTED_EDGE('',*,*,#736,.F.);
#1012=ORIENTED_EDGE('',*,*,#595,.T.);
#1013=ORIENTED_EDGE('',*,*,#736,.T.);
#1014=ORIENTED_EDGE('',*,*,#691,.F.);
#1015=ORIENTED_EDGE('',*,*,#737,.F.);
#1016=ORIENTED_EDGE('',*,*,#596,.T.);
#1017=ORIENTED_EDGE('',*,*,#737,.T.);
#1018=ORIENTED_EDGE('',*,*,#690,.F.);
#1019=ORIENTED_EDGE('',*,*,#738,.F.);
#1020=ORIENTED_EDGE('',*,*,#597,.T.);
#1021=ORIENTED_EDGE('',*,*,#738,.T.);
#1022=ORIENTED_EDGE('',*,*,#689,.F.);
#1023=ORIENTED_EDGE('',*,*,#739,.F.);
#1024=ORIENTED_EDGE('',*,*,#598,.T.);
#1025=ORIENTED_EDGE('',*,*,#739,.T.);
#1026=ORIENTED_EDGE('',*,*,#688,.F.);
#1027=ORIENTED_EDGE('',*,*,#740,.F.);
#1028=ORIENTED_EDGE('',*,*,#599,.T.);
#1029=ORIENTED_EDGE('',*,*,#740,.T.);
#1030=ORIENTED_EDGE('',*,*,#687,.F.);
#1031=ORIENTED_EDGE('',*,*,#741,.F.);
#1032=ORIENTED_EDGE('',*,*,#600,.T.);
#1033=ORIENTED_EDGE('',*,*,#741,.T.);
#1034=ORIENTED_EDGE('',*,*,#686,.F.);
#1035=ORIENTED_EDGE('',*,*,#742,.F.);
#1036=ORIENTED_EDGE('',*,*,#601,.T.);
#1037=ORIENTED_EDGE('',*,*,#742,.T.);
#1038=ORIENTED_EDGE('',*,*,#685,.F.);
#1039=ORIENTED_EDGE('',*,*,#743,.F.);
#1040=ORIENTED_EDGE('',*,*,#602,.T.);
#1041=ORIENTED_EDGE('',*,*,#743,.T.);
#1042=ORIENTED_EDGE('',*,*,#684,.F.);
#1043=ORIENTED_EDGE('',*,*,#744,.F.);
#1044=ORIENTED_EDGE('',*,*,#603,.T.);
#1045=ORIENTED_EDGE('',*,*,#744,.T.);
#1046=ORIENTED_EDGE('',*,*,#683,.F.);
#1047=ORIENTED_EDGE('',*,*,#745,.F.);
#1048=ORIENTED_EDGE('',*,*,#604,.T.);
#1049=ORIENTED_EDGE('',*,*,#745,.T.);
#1050=ORIENTED_EDGE('',*,*,#682,.F.);
#1051=ORIENTED_EDGE('',*,*,#746,.F.);
#1052=ORIENTED_EDGE('',*,*,#605,.T.);
#1053=ORIENTED_EDGE('',*,*,#746,.T.);
#1054=ORIENTED_EDGE('',*,*,#681,.F.);
#1055=ORIENTED_EDGE('',*,*,#747,.F.);
#1056=ORIENTED_EDGE('',*,*,#606,.T.);
#1057=ORIENTED_EDGE('',*,*,#747,.T.);
#1058=ORIENTED_EDGE('',*,*,#680,.F.);
#1059=ORIENTED_EDGE('',*,*,#748,.F.);
#1060=ORIENTED_EDGE('',*,*,#607,.T.);
#1061=ORIENTED_EDGE('',*,*,#748,.T.);
#1062=ORIENTED_EDGE('',*,*,#679,.F.);
#1063=ORIENTED_EDGE('',*,*,#749,.F.);
#1064=ORIENTED_EDGE('',*,*,#608,.T.);
#1065=ORIENTED_EDGE('',*,*,#749,.T.);
#1066=ORIENTED_EDGE('',*,*,#678,.F.);
#1067=ORIENTED_EDGE('',*,*,#750,.F.);
#1068=ORIENTED_EDGE('',*,*,#609,.T.);
#1069=ORIENTED_EDGE('',*,*,#750,.T.);
#1070=ORIENTED_EDGE('',*,*,#677,.F.);
#1071=ORIENTED_EDGE('',*,*,#751,.F.);
#1072=ORIENTED_EDGE('',*,*,#610,.T.);
#1073=ORIENTED_EDGE('',*,*,#751,.T.);
#1074=ORIENTED_EDGE('',*,*,#676,.F.);
#1075=ORIENTED_EDGE('',*,*,#752,.F.);
#1076=ORIENTED_EDGE('',*,*,#611,.T.);
#1077=ORIENTED_EDGE('',*,*,#752,.T.);
#1078=ORIENTED_EDGE('',*,*,#675,.F.);
#1079=ORIENTED_EDGE('',*,*,#753,.F.);
#1080=ORIENTED_EDGE('',*,*,#612,.T.);
#1081=ORIENTED_EDGE('',*,*,#753,.T.);
#1082=ORIENTED_EDGE('',*,*,#674,.F.);
#1083=ORIENTED_EDGE('',*,*,#754,.F.);
#1084=ORIENTED_EDGE('',*,*,#613,.T.);
#1085=ORIENTED_EDGE('',*,*,#754,.T.);
#1086=ORIENTED_EDGE('',*,*,#673,.F.);
#1087=ORIENTED_EDGE('',*,*,#717,.F.);
#1088=ORIENTED_EDGE('',*,*,#715,.F.);
#1089=ORIENTED_EDGE('',*,*,#755,.T.);
#1090=ORIENTED_EDGE('',*,*,#588,.T.);
#1091=ORIENTED_EDGE('',*,*,#755,.F.);
#1092=PLANE('',#1223);
#1093=PLANE('',#1226);
#1094=PLANE('',#1227);
#1095=PLANE('',#1231);
#1096=PLANE('',#1239);
#1097=PLANE('',#1243);
#1098=PLANE('',#1245);
#1099=PLANE('',#1246);
#1100=PLANE('',#1247);
#1101=PLANE('',#1248);
#1102=PLANE('',#1249);
#1103=PLANE('',#1250);
#1104=PLANE('',#1251);
#1105=PLANE('',#1254);
#1106=PLANE('',#1255);
#1107=PLANE('',#1259);
#1108=PLANE('',#1263);
#1109=PLANE('',#1264);
#1110=PLANE('',#1265);
#1111=PLANE('',#1266);
#1112=PLANE('',#1267);
#1113=PLANE('',#1268);
#1114=PLANE('',#1269);
#1115=PLANE('',#1270);
#1116=PLANE('',#1271);
#1117=PLANE('',#1272);
#1118=PLANE('',#1273);
#1119=PLANE('',#1274);
#1120=PLANE('',#1275);
#1121=PLANE('',#1276);
#1122=PLANE('',#1277);
#1123=PLANE('',#1278);
#1124=PLANE('',#1279);
#1125=PLANE('',#1280);
#1126=PLANE('',#1281);
#1127=PLANE('',#1282);
#1128=PLANE('',#1283);
#1129=PLANE('',#1284);
#1130=PLANE('',#1285);
#1131=PLANE('',#1286);
#1132=PLANE('',#1287);
#1133=PLANE('',#1288);
#1134=PLANE('',#1289);
#1135=PLANE('',#1290);
#1136=PLANE('',#1291);
#1137=PLANE('',#1292);
#1138=PLANE('',#1293);
#1139=PLANE('',#1294);
#1140=PLANE('',#1295);
#1141=PLANE('',#1296);
#1142=PLANE('',#1297);
#1143=PLANE('',#1298);
#1144=PLANE('',#1299);
#1145=PLANE('',#1300);
#1146=PLANE('',#1301);
#1147=ADVANCED_FACE('',(#328,#22),#1092,.F.);
#1148=ADVANCED_FACE('',(#329),#1093,.T.);
#1149=ADVANCED_FACE('',(#330),#1094,.F.);
#1150=ADVANCED_FACE('',(#331),#15,.F.);
#1151=ADVANCED_FACE('',(#332),#1095,.F.);
#1152=ADVANCED_FACE('',(#333),#16,.F.);
#1153=ADVANCED_FACE('',(#334),#17,.F.);
#1154=ADVANCED_FACE('',(#335,#23),#1096,.T.);
#1155=ADVANCED_FACE('',(#336),#18,.F.);
#1156=ADVANCED_FACE('',(#337,#24),#1097,.T.);
#1157=ADVANCED_FACE('',(#338,#25),#1098,.T.);
#1158=ADVANCED_FACE('',(#339),#1099,.T.);
#1159=ADVANCED_FACE('',(#340),#1100,.T.);
#1160=ADVANCED_FACE('',(#341),#1101,.T.);
#1161=ADVANCED_FACE('',(#342),#1102,.T.);
#1162=ADVANCED_FACE('',(#343),#1103,.T.);
#1163=ADVANCED_FACE('',(#344),#1104,.T.);
#1164=ADVANCED_FACE('',(#345),#1105,.F.);
#1165=ADVANCED_FACE('',(#346,#26),#1106,.F.);
#1166=ADVANCED_FACE('',(#347),#19,.T.);
#1167=ADVANCED_FACE('',(#348,#27),#1107,.F.);
#1168=ADVANCED_FACE('',(#349),#20,.T.);
#1169=ADVANCED_FACE('',(#350),#1108,.T.);
#1170=ADVANCED_FACE('',(#351),#1109,.T.);
#1171=ADVANCED_FACE('',(#352),#1110,.T.);
#1172=ADVANCED_FACE('',(#353),#1111,.T.);
#1173=ADVANCED_FACE('',(#354),#1112,.T.);
#1174=ADVANCED_FACE('',(#355),#1113,.T.);
#1175=ADVANCED_FACE('',(#356),#1114,.T.);
#1176=ADVANCED_FACE('',(#357),#1115,.T.);
#1177=ADVANCED_FACE('',(#358),#1116,.T.);
#1178=ADVANCED_FACE('',(#359),#1117,.T.);
#1179=ADVANCED_FACE('',(#360),#1118,.T.);
#1180=ADVANCED_FACE('',(#361),#1119,.T.);
#1181=ADVANCED_FACE('',(#362),#1120,.T.);
#1182=ADVANCED_FACE('',(#363),#1121,.T.);
#1183=ADVANCED_FACE('',(#364),#1122,.T.);
#1184=ADVANCED_FACE('',(#365),#1123,.T.);
#1185=ADVANCED_FACE('',(#366),#1124,.T.);
#1186=ADVANCED_FACE('',(#367),#1125,.T.);
#1187=ADVANCED_FACE('',(#368),#1126,.T.);
#1188=ADVANCED_FACE('',(#369),#1127,.T.);
#1189=ADVANCED_FACE('',(#370),#1128,.T.);
#1190=ADVANCED_FACE('',(#371),#1129,.T.);
#1191=ADVANCED_FACE('',(#372),#1130,.T.);
#1192=ADVANCED_FACE('',(#373),#1131,.T.);
#1193=ADVANCED_FACE('',(#374),#1132,.T.);
#1194=ADVANCED_FACE('',(#375),#1133,.T.);
#1195=ADVANCED_FACE('',(#376),#1134,.T.);
#1196=ADVANCED_FACE('',(#377),#1135,.T.);
#1197=ADVANCED_FACE('',(#378),#1136,.T.);
#1198=ADVANCED_FACE('',(#379),#1137,.T.);
#1199=ADVANCED_FACE('',(#380),#1138,.T.);
#1200=ADVANCED_FACE('',(#381),#1139,.T.);
#1201=ADVANCED_FACE('',(#382),#1140,.T.);
#1202=ADVANCED_FACE('',(#383),#1141,.T.);
#1203=ADVANCED_FACE('',(#384),#1142,.T.);
#1204=ADVANCED_FACE('',(#385),#1143,.T.);
#1205=ADVANCED_FACE('',(#386),#1144,.T.);
#1206=ADVANCED_FACE('',(#387),#1145,.T.);
#1207=ADVANCED_FACE('',(#388),#1146,.T.);
#1208=ADVANCED_FACE('',(#389),#21,.T.);
#1209=CLOSED_SHELL('',(#1147,#1148,#1149,#1150,#1151,#1152,#1153,#1154,
#1155,#1156,#1157,#1158,#1159,#1160,#1161,#1162,#1163,#1164,#1165,#1166,
#1167,#1168,#1169,#1170,#1171,#1172,#1173,#1174,#1175,#1176,#1177,#1178,
#1179,#1180,#1181,#1182,#1183,#1184,#1185,#1186,#1187,#1188,#1189,#1190,
#1191,#1192,#1193,#1194,#1195,#1196,#1197,#1198,#1199,#1200,#1201,#1202,
#1203,#1204,#1205,#1206,#1207,#1208));
#1210=DERIVED_UNIT_ELEMENT(#1212,1.);
#1211=DERIVED_UNIT_ELEMENT(#1963,3.);
#1212=(
MASS_UNIT()
NAMED_UNIT(*)
SI_UNIT(.KILO.,.GRAM.)
);
#1213=DERIVED_UNIT((#1210,#1211));
#1214=MEASURE_REPRESENTATION_ITEM('density measure',
POSITIVE_RATIO_MEASURE(7850.),#1213);
#1215=PROPERTY_DEFINITION_REPRESENTATION(#1220,#1217);
#1216=PROPERTY_DEFINITION_REPRESENTATION(#1221,#1218);
#1217=REPRESENTATION('material name',(#1219),#1960);
#1218=REPRESENTATION('density',(#1214),#1960);
#1219=DESCRIPTIVE_REPRESENTATION_ITEM('Steel','Steel');
#1220=PROPERTY_DEFINITION('material property','material name',#1970);
#1221=PROPERTY_DEFINITION('material property','density of part',#1970);
#1222=AXIS2_PLACEMENT_3D('placement',#1615,#1303,#1304);
#1223=AXIS2_PLACEMENT_3D('',#1616,#1305,#1306);
#1224=AXIS2_PLACEMENT_3D('',#1618,#1307,#1308);
#1225=AXIS2_PLACEMENT_3D('',#1621,#1309,#1310);
#1226=AXIS2_PLACEMENT_3D('',#1701,#1351,#1352);
#1227=AXIS2_PLACEMENT_3D('',#1707,#1356,#1357);
#1228=AXIS2_PLACEMENT_3D('',#1716,#1362,#1363);
#1229=AXIS2_PLACEMENT_3D('',#1718,#1364,#1365);
#1230=AXIS2_PLACEMENT_3D('',#1720,#1366,#1367);
#1231=AXIS2_PLACEMENT_3D('',#1722,#1369,#1370);
#1232=AXIS2_PLACEMENT_3D('',#1728,#1374,#1375);
#1233=AXIS2_PLACEMENT_3D('',#1729,#1376,#1377);
#1234=AXIS2_PLACEMENT_3D('',#1730,#1378,#1379);
#1235=AXIS2_PLACEMENT_3D('',#1733,#1381,#1382);
#1236=AXIS2_PLACEMENT_3D('',#1734,#1383,#1384);
#1237=AXIS2_PLACEMENT_3D('',#1736,#1385,#1386);
#1238=AXIS2_PLACEMENT_3D('',#1739,#1388,#1389);
#1239=AXIS2_PLACEMENT_3D('',#1740,#1390,#1391);
#1240=AXIS2_PLACEMENT_3D('',#1742,#1392,#1393);
#1241=AXIS2_PLACEMENT_3D('',#1743,#1394,#1395);
#1242=AXIS2_PLACEMENT_3D('',#1746,#1397,#1398);
#1243=AXIS2_PLACEMENT_3D('',#1747,#1399,#1400);
#1244=AXIS2_PLACEMENT_3D('',#1756,#1404,#1405);
#1245=AXIS2_PLACEMENT_3D('',#1760,#1408,#1409);
#1246=AXIS2_PLACEMENT_3D('',#1761,#1410,#1411);
#1247=AXIS2_PLACEMENT_3D('',#1767,#1415,#1416);
#1248=AXIS2_PLACEMENT_3D('',#1771,#1419,#1420);
#1249=AXIS2_PLACEMENT_3D('',#1775,#1423,#1424);
#1250=AXIS2_PLACEMENT_3D('',#1781,#1428,#1429);
#1251=AXIS2_PLACEMENT_3D('',#1783,#1431,#1432);
#1252=AXIS2_PLACEMENT_3D('',#1785,#1433,#1434);
#1253=AXIS2_PLACEMENT_3D('',#1786,#1435,#1436);
#1254=AXIS2_PLACEMENT_3D('',#1787,#1437,#1438);
#1255=AXIS2_PLACEMENT_3D('',#1865,#1478,#1479);
#1256=AXIS2_PLACEMENT_3D('',#1867,#1480,#1481);
#1257=AXIS2_PLACEMENT_3D('',#1869,#1482,#1483);
#1258=AXIS2_PLACEMENT_3D('',#1870,#1484,#1485);
#1259=AXIS2_PLACEMENT_3D('',#1872,#1487,#1488);
#1260=AXIS2_PLACEMENT_3D('',#1874,#1489,#1490);
#1261=AXIS2_PLACEMENT_3D('',#1876,#1491,#1492);
#1262=AXIS2_PLACEMENT_3D('',#1877,#1493,#1494);
#1263=AXIS2_PLACEMENT_3D('',#1879,#1496,#1497);
#1264=AXIS2_PLACEMENT_3D('',#1882,#1500,#1501);
#1265=AXIS2_PLACEMENT_3D('',#1884,#1503,#1504);
#1266=AXIS2_PLACEMENT_3D('',#1886,#1506,#1507);
#1267=AXIS2_PLACEMENT_3D('',#1888,#1509,#1510);
#1268=AXIS2_PLACEMENT_3D('',#1890,#1512,#1513);
#1269=AXIS2_PLACEMENT_3D('',#1892,#1515,#1516);
#1270=AXIS2_PLACEMENT_3D('',#1894,#1518,#1519);
#1271=AXIS2_PLACEMENT_3D('',#1896,#1521,#1522);
#1272=AXIS2_PLACEMENT_3D('',#1898,#1524,#1525);
#1273=AXIS2_PLACEMENT_3D('',#1900,#1527,#1528);
#1274=AXIS2_PLACEMENT_3D('',#1902,#1530,#1531);
#1275=AXIS2_PLACEMENT_3D('',#1904,#1533,#1534);
#1276=AXIS2_PLACEMENT_3D('',#1906,#1536,#1537);
#1277=AXIS2_PLACEMENT_3D('',#1908,#1539,#1540);
#1278=AXIS2_PLACEMENT_3D('',#1910,#1542,#1543);
#1279=AXIS2_PLACEMENT_3D('',#1911,#1544,#1545);
#1280=AXIS2_PLACEMENT_3D('',#1913,#1547,#1548);
#1281=AXIS2_PLACEMENT_3D('',#1915,#1550,#1551);
#1282=AXIS2_PLACEMENT_3D('',#1917,#1553,#1554);
#1283=AXIS2_PLACEMENT_3D('',#1919,#1556,#1557);
#1284=AXIS2_PLACEMENT_3D('',#1921,#1559,#1560);
#1285=AXIS2_PLACEMENT_3D('',#1923,#1562,#1563);
#1286=AXIS2_PLACEMENT_3D('',#1925,#1565,#1566);
#1287=AXIS2_PLACEMENT_3D('',#1927,#1568,#1569);
#1288=AXIS2_PLACEMENT_3D('',#1929,#1571,#1572);
#1289=AXIS2_PLACEMENT_3D('',#1931,#1574,#1575);
#1290=AXIS2_PLACEMENT_3D('',#1933,#1577,#1578);
#1291=AXIS2_PLACEMENT_3D('',#1935,#1580,#1581);
#1292=AXIS2_PLACEMENT_3D('',#1937,#1583,#1584);
#1293=AXIS2_PLACEMENT_3D('',#1939,#1586,#1587);
#1294=AXIS2_PLACEMENT_3D('',#1941,#1589,#1590);
#1295=AXIS2_PLACEMENT_3D('',#1943,#1592,#1593);
#1296=AXIS2_PLACEMENT_3D('',#1945,#1595,#1596);
#1297=AXIS2_PLACEMENT_3D('',#1947,#1598,#1599);
#1298=AXIS2_PLACEMENT_3D('',#1949,#1601,#1602);
#1299=AXIS2_PLACEMENT_3D('',#1951,#1604,#1605);
#1300=AXIS2_PLACEMENT_3D('',#1953,#1607,#1608);
#1301=AXIS2_PLACEMENT_3D('',#1955,#1610,#1611);
#1302=AXIS2_PLACEMENT_3D('',#1956,#1612,#1613);
#1303=DIRECTION('axis',(0.,0.,1.));
#1304=DIRECTION('refdir',(1.,0.,0.));
#1305=DIRECTION('center_axis',(0.,0.,1.));
#1306=DIRECTION('ref_axis',(1.,0.,0.));
#1307=DIRECTION('center_axis',(0.,0.,1.));
#1308=DIRECTION('ref_axis',(1.,0.,0.));
#1309=DIRECTION('center_axis',(0.,0.,1.));
#1310=DIRECTION('ref_axis',(1.,0.,0.));
#1311=DIRECTION('',(0.138606074346847,0.990347593602446,0.));
#1312=DIRECTION('',(-0.984708164789604,0.174212026555831,0.));
#1313=DIRECTION('',(-0.174212026555831,0.984708164789604,0.));
#1314=DIRECTION('',(-0.990347593602446,-0.138606074346847,0.));
#1315=DIRECTION('',(-0.469977040492661,0.882678639941944,0.));
#1316=DIRECTION('',(-0.899044899796058,-0.43785644696715,0.));
#1317=DIRECTION('',(-0.719737427183482,0.694246379833054,0.));
#1318=DIRECTION('',(-0.719737427183482,-0.694246379833054,0.));
#1319=DIRECTION('',(-0.899044899796058,0.43785644696715,0.));
#1320=DIRECTION('',(-0.469977040492661,-0.882678639941944,0.));
#1321=DIRECTION('',(-0.990347593602446,0.138606074346847,0.));
#1322=DIRECTION('',(-0.174212026555831,-0.984708164789604,0.));
#1323=DIRECTION('',(-0.984708164789604,-0.174212026555831,0.));
#1324=DIRECTION('',(0.138606074346847,-0.990347593602446,0.));
#1325=DIRECTION('',(-0.882678639941944,-0.469977040492661,0.));
#1326=DIRECTION('',(0.43785644696715,-0.899044899796058,0.));
#1327=DIRECTION('',(-0.694246379833054,-0.719737427183482,0.));
#1328=DIRECTION('',(0.694246379833054,-0.719737427183482,0.));
#1329=DIRECTION('',(-0.43785644696715,-0.899044899796058,0.));
#1330=DIRECTION('',(0.882678639941944,-0.469977040492661,0.));
#1331=DIRECTION('',(-0.138606074346847,-0.990347593602446,0.));
#1332=DIRECTION('',(0.984708164789604,-0.174212026555831,0.));
#1333=DIRECTION('',(0.174212026555831,-0.984708164789604,0.));
#1334=DIRECTION('',(0.990347593602446,0.138606074346847,0.));
#1335=DIRECTION('',(0.469977040492661,-0.882678639941944,0.));
#1336=DIRECTION('',(0.899044899796058,0.437856446967149,0.));
#1337=DIRECTION('',(0.719737427183482,-0.694246379833054,0.));
#1338=DIRECTION('',(0.719737427183482,0.694246379833054,0.));
#1339=DIRECTION('',(0.899044899796058,-0.437856446967149,0.));
#1340=DIRECTION('',(0.469977040492661,0.882678639941944,0.));
#1341=DIRECTION('',(0.990347593602446,-0.138606074346847,0.));
#1342=DIRECTION('',(0.174212026555831,0.984708164789604,0.));
#1343=DIRECTION('',(0.984708164789604,0.174212026555831,0.));
#1344=DIRECTION('',(-0.138606074346847,0.990347593602446,0.));
#1345=DIRECTION('',(0.882678639941944,0.469977040492661,0.));
#1346=DIRECTION('',(-0.43785644696715,0.899044899796058,0.));
#1347=DIRECTION('',(0.694246379833054,0.719737427183483,0.));
#1348=DIRECTION('',(-0.694246379833054,0.719737427183482,0.));
#1349=DIRECTION('',(0.437856446967149,0.899044899796058,0.));
#1350=DIRECTION('',(-0.882678639941944,0.469977040492661,0.));
#1351=DIRECTION('center_axis',(0.990347593602446,-0.138606074346847,0.));
#1352=DIRECTION('ref_axis',(0.138606074346847,0.990347593602446,0.));
#1353=DIRECTION('',(0.,0.,1.));
#1354=DIRECTION('',(0.138606074346848,0.990347593602446,0.));
#1355=DIRECTION('',(0.,0.,1.));
#1356=DIRECTION('center_axis',(-0.5,0.866025403784438,0.));
#1357=DIRECTION('ref_axis',(0.866025403784438,0.5,0.));
#1358=DIRECTION('',(-0.866025403784438,-0.5,0.));
#1359=DIRECTION('',(0.,0.,-1.));
#1360=DIRECTION('',(0.866025403784438,0.5,0.));
#1361=DIRECTION('',(0.,0.,-1.));
#1362=DIRECTION('center_axis',(0.,0.,-1.));
#1363=DIRECTION('ref_axis',(0.866025403784439,0.5,0.));
#1364=DIRECTION('center_axis',(0.,0.,1.));
#1365=DIRECTION('ref_axis',(1.,0.,0.));
#1366=DIRECTION('center_axis',(0.,0.,-1.));
#1367=DIRECTION('ref_axis',(1.,0.,0.));
#1368=DIRECTION('',(0.,0.,-1.));
#1369=DIRECTION('center_axis',(0.500000000000001,-0.866025403784438,0.));
#1370=DIRECTION('ref_axis',(-0.866025403784438,-0.500000000000001,0.));
#1371=DIRECTION('',(0.866025403784438,0.500000000000001,0.));
#1372=DIRECTION('',(-0.866025403784438,-0.500000000000001,0.));
#1373=DIRECTION('',(0.,0.,-1.));
#1374=DIRECTION('center_axis',(0.,0.,-1.));
#1375=DIRECTION('ref_axis',(-0.866025403784438,-0.5,0.));
#1376=DIRECTION('center_axis',(0.,0.,1.));
#1377=DIRECTION('ref_axis',(1.,0.,0.));
#1378=DIRECTION('center_axis',(0.,0.,-1.));
#1379=DIRECTION('ref_axis',(1.,0.,0.));
#1380=DIRECTION('',(0.,0.,-1.));
#1381=DIRECTION('center_axis',(0.,0.,-1.));
#1382=DIRECTION('ref_axis',(1.,0.,0.));
#1383=DIRECTION('center_axis',(0.,0.,-1.));
#1384=DIRECTION('ref_axis',(1.,0.,0.));
#1385=DIRECTION('center_axis',(0.,0.,-1.));
#1386=DIRECTION('ref_axis',(1.,0.,0.));
#1387=DIRECTION('',(0.,0.,-1.));
#1388=DIRECTION('center_axis',(0.,0.,-1.));
#1389=DIRECTION('ref_axis',(1.,0.,0.));
#1390=DIRECTION('center_axis',(0.,0.,1.));
#1391=DIRECTION('ref_axis',(1.,0.,0.));
#1392=DIRECTION('center_axis',(0.,0.,1.));
#1393=DIRECTION('ref_axis',(1.,0.,0.));
#1394=DIRECTION('center_axis',(0.,0.,1.));
#1395=DIRECTION('ref_axis',(1.,0.,0.));
#1396=DIRECTION('',(0.,0.,-1.));
#1397=DIRECTION('center_axis',(0.,0.,1.));
#1398=DIRECTION('ref_axis',(1.,0.,0.));
#1399=DIRECTION('center_axis',(0.,0.,1.));
#1400=DIRECTION('ref_axis',(1.,0.,0.));
#1401=DIRECTION('',(-3.70074341541719E-16,-1.,0.));
#1402=DIRECTION('',(0.707106781186547,-0.707106781186547,0.));
#1403=DIRECTION('',(1.,0.,0.));
#1404=DIRECTION('center_axis',(0.,0.,1.));
#1405=DIRECTION('ref_axis',(0.77138921583987,-0.636363636363637,0.));
#1406=DIRECTION('',(-1.,4.75809867696496E-16,0.));
#1407=DIRECTION('',(-0.707106781186548,-0.707106781186547,0.));
#1408=DIRECTION('center_axis',(0.,0.,1.));
#1409=DIRECTION('ref_axis',(1.,0.,0.));
#1410=DIRECTION('center_axis',(-1.,3.70074341541719E-16,0.));
#1411=DIRECTION('ref_axis',(-3.70074341541719E-16,-1.,0.));
#1412=DIRECTION('',(3.70074341541719E-16,1.,0.));
#1413=DIRECTION('',(0.,0.,1.));
#1414=DIRECTION('',(0.,0.,1.));
#1415=DIRECTION('center_axis',(-0.707106781186548,0.707106781186547,0.));
#1416=DIRECTION('ref_axis',(-0.707106781186547,-0.707106781186548,0.));
#1417=DIRECTION('',(0.707106781186547,0.707106781186548,0.));
#1418=DIRECTION('',(0.,0.,1.));
#1419=DIRECTION('center_axis',(3.1720657846433E-16,1.,0.));
#1420=DIRECTION('ref_axis',(-1.,3.1720657846433E-16,0.));
#1421=DIRECTION('',(1.,-3.1720657846433E-16,0.));
#1422=DIRECTION('',(0.,0.,1.));
#1423=DIRECTION('center_axis',(0.,-1.,0.));
#1424=DIRECTION('ref_axis',(1.,0.,0.));
#1425=DIRECTION('',(-1.,0.,0.));
#1426=DIRECTION('',(0.,0.,1.));
#1427=DIRECTION('',(0.,0.,1.));
#1428=DIRECTION('center_axis',(-0.707106781186548,-0.707106781186548,0.));
#1429=DIRECTION('ref_axis',(0.707106781186548,-0.707106781186548,0.));
#1430=DIRECTION('',(-0.707106781186548,0.707106781186548,0.));
#1431=DIRECTION('center_axis',(0.,0.,1.));
#1432=DIRECTION('ref_axis',(1.,0.,0.));
#1433=DIRECTION('center_axis',(0.,0.,1.));
#1434=DIRECTION('ref_axis',(1.,0.,0.));
#1435=DIRECTION('center_axis',(0.,0.,1.));
#1436=DIRECTION('ref_axis',(1.,0.,0.));
#1437=DIRECTION('center_axis',(0.,0.,1.));
#1438=DIRECTION('ref_axis',(1.,0.,0.));
#1439=DIRECTION('',(0.469977040492661,-0.882678639941944,0.));
#1440=DIRECTION('',(0.990347593602446,0.138606074346848,0.));
#1441=DIRECTION('',(0.174212026555831,-0.984708164789604,0.));
#1442=DIRECTION('',(0.984708164789605,-0.17421202655583,0.));
#1443=DIRECTION('',(-0.138606074346847,-0.990347593602446,0.));
#1444=DIRECTION('',(0.882678639941944,-0.469977040492661,0.));
#1445=DIRECTION('',(-0.43785644696715,-0.899044899796058,0.));
#1446=DIRECTION('',(0.694246379833055,-0.719737427183481,0.));
#1447=DIRECTION('',(-0.694246379833054,-0.719737427183483,0.));
#1448=DIRECTION('',(0.43785644696715,-0.899044899796058,0.));
#1449=DIRECTION('',(-0.882678639941944,-0.469977040492661,0.));
#1450=DIRECTION('',(0.138606074346848,-0.990347593602446,0.));
#1451=DIRECTION('',(-0.984708164789605,-0.17421202655583,0.));
#1452=DIRECTION('',(-0.174212026555829,-0.984708164789605,0.));
#1453=DIRECTION('',(-0.990347593602446,0.138606074346848,0.));
#1454=DIRECTION('',(-0.469977040492659,-0.882678639941945,0.));
#1455=DIRECTION('',(-0.899044899796058,0.43785644696715,0.));
#1456=DIRECTION('',(-0.719737427183482,-0.694246379833055,0.));
#1457=DIRECTION('',(-0.719737427183483,0.694246379833054,0.));
#1458=DIRECTION('',(-0.899044899796058,-0.43785644696715,0.));
#1459=DIRECTION('',(-0.469977040492661,0.882678639941944,0.));
#1460=DIRECTION('',(-0.990347593602446,-0.138606074346848,0.));
#1461=DIRECTION('',(-0.17421202655583,0.984708164789604,0.));
#1462=DIRECTION('',(-0.984708164789604,0.17421202655583,0.));
#1463=DIRECTION('',(-0.882678639941945,0.469977040492658,0.));
#1464=DIRECTION('',(0.437856446967149,0.899044899796058,0.));
#1465=DIRECTION('',(-0.694246379833056,0.719737427183481,0.));
#1466=DIRECTION('',(0.694246379833054,0.719737427183483,0.));
#1467=DIRECTION('',(-0.437856446967149,0.899044899796058,0.));
#1468=DIRECTION('',(0.882678639941944,0.469977040492661,0.));
#1469=DIRECTION('',(-0.138606074346847,0.990347593602446,0.));
#1470=DIRECTION('',(0.984708164789604,0.174212026555831,0.));
#1471=DIRECTION('',(0.174212026555829,0.984708164789605,0.));
#1472=DIRECTION('',(0.990347593602446,-0.138606074346847,0.));
#1473=DIRECTION('',(0.46997704049266,0.882678639941944,0.));
#1474=DIRECTION('',(0.899044899796058,-0.437856446967149,0.));
#1475=DIRECTION('',(0.719737427183482,0.694246379833055,0.));
#1476=DIRECTION('',(0.719737427183483,-0.694246379833054,0.));
#1477=DIRECTION('',(0.899044899796058,0.437856446967149,0.));
#1478=DIRECTION('center_axis',(0.,0.,1.));
#1479=DIRECTION('ref_axis',(1.,0.,0.));
#1480=DIRECTION('center_axis',(0.,0.,1.));
#1481=DIRECTION('ref_axis',(1.,0.,0.));
#1482=DIRECTION('center_axis',(0.,0.,1.));
#1483=DIRECTION('ref_axis',(1.,0.,0.));
#1484=DIRECTION('center_axis',(0.,0.,1.));
#1485=DIRECTION('ref_axis',(1.,0.,0.));
#1486=DIRECTION('',(0.,0.,-1.));
#1487=DIRECTION('center_axis',(0.,0.,1.));
#1488=DIRECTION('ref_axis',(1.,0.,0.));
#1489=DIRECTION('center_axis',(0.,0.,1.));
#1490=DIRECTION('ref_axis',(1.,0.,0.));
#1491=DIRECTION('center_axis',(0.,0.,1.));
#1492=DIRECTION('ref_axis',(1.,0.,0.));
#1493=DIRECTION('center_axis',(0.,0.,1.));
#1494=DIRECTION('ref_axis',(1.,0.,0.));
#1495=DIRECTION('',(0.,0.,-1.));
#1496=DIRECTION('center_axis',(-0.882678639941944,-0.469977040492661,0.));
#1497=DIRECTION('ref_axis',(0.469977040492661,-0.882678639941944,0.));
#1498=DIRECTION('',(0.,0.,1.));
#1499=DIRECTION('',(0.,0.,1.));
#1500=DIRECTION('center_axis',(0.437856446967149,-0.899044899796058,0.));
#1501=DIRECTION('ref_axis',(0.899044899796058,0.437856446967149,0.));
#1502=DIRECTION('',(0.,0.,1.));
#1503=DIRECTION('center_axis',(-0.694246379833054,-0.719737427183482,0.));
#1504=DIRECTION('ref_axis',(0.719737427183482,-0.694246379833054,0.));
#1505=DIRECTION('',(0.,0.,1.));
#1506=DIRECTION('center_axis',(0.694246379833054,-0.719737427183482,0.));
#1507=DIRECTION('ref_axis',(0.719737427183482,0.694246379833054,0.));
#1508=DIRECTION('',(0.,0.,1.));
#1509=DIRECTION('center_axis',(-0.437856446967149,-0.899044899796058,0.));
#1510=DIRECTION('ref_axis',(0.899044899796058,-0.437856446967149,0.));
#1511=DIRECTION('',(0.,0.,1.));
#1512=DIRECTION('center_axis',(0.882678639941944,-0.469977040492661,0.));
#1513=DIRECTION('ref_axis',(0.469977040492661,0.882678639941944,0.));
#1514=DIRECTION('',(0.,0.,1.));
#1515=DIRECTION('center_axis',(-0.138606074346847,-0.990347593602446,0.));
#1516=DIRECTION('ref_axis',(0.990347593602446,-0.138606074346847,0.));
#1517=DIRECTION('',(0.,0.,1.));
#1518=DIRECTION('center_axis',(0.984708164789604,-0.174212026555831,0.));
#1519=DIRECTION('ref_axis',(0.174212026555831,0.984708164789604,0.));
#1520=DIRECTION('',(0.,0.,1.));
#1521=DIRECTION('center_axis',(0.174212026555831,-0.984708164789604,0.));
#1522=DIRECTION('ref_axis',(0.984708164789604,0.174212026555831,0.));
#1523=DIRECTION('',(0.,0.,1.));
#1524=DIRECTION('center_axis',(0.990347593602446,0.138606074346847,0.));
#1525=DIRECTION('ref_axis',(-0.138606074346847,0.990347593602446,0.));
#1526=DIRECTION('',(0.,0.,1.));
#1527=DIRECTION('center_axis',(0.469977040492661,-0.882678639941944,0.));
#1528=DIRECTION('ref_axis',(0.882678639941944,0.469977040492661,0.));
#1529=DIRECTION('',(0.,0.,1.));
#1530=DIRECTION('center_axis',(0.899044899796058,0.43785644696715,0.));
#1531=DIRECTION('ref_axis',(-0.43785644696715,0.899044899796058,0.));
#1532=DIRECTION('',(0.,0.,1.));
#1533=DIRECTION('center_axis',(0.719737427183483,-0.694246379833054,0.));
#1534=DIRECTION('ref_axis',(0.694246379833054,0.719737427183483,0.));
#1535=DIRECTION('',(0.,0.,1.));
#1536=DIRECTION('center_axis',(0.719737427183482,0.694246379833054,0.));
#1537=DIRECTION('ref_axis',(-0.694246379833054,0.719737427183482,0.));
#1538=DIRECTION('',(0.,0.,1.));
#1539=DIRECTION('center_axis',(0.899044899796058,-0.437856446967149,0.));
#1540=DIRECTION('ref_axis',(0.437856446967149,0.899044899796058,0.));
#1541=DIRECTION('',(0.,0.,1.));
#1542=DIRECTION('center_axis',(0.469977040492661,0.882678639941944,0.));
#1543=DIRECTION('ref_axis',(-0.882678639941944,0.469977040492661,0.));
#1544=DIRECTION('center_axis',(0.174212026555831,0.984708164789604,0.));
#1545=DIRECTION('ref_axis',(-0.984708164789604,0.174212026555831,0.));
#1546=DIRECTION('',(0.,0.,1.));
#1547=DIRECTION('center_axis',(0.984708164789604,0.174212026555831,0.));
#1548=DIRECTION('ref_axis',(-0.174212026555831,0.984708164789604,0.));
#1549=DIRECTION('',(0.,0.,1.));
#1550=DIRECTION('center_axis',(-0.138606074346847,0.990347593602446,0.));
#1551=DIRECTION('ref_axis',(-0.990347593602446,-0.138606074346847,0.));
#1552=DIRECTION('',(0.,0.,1.));
#1553=DIRECTION('center_axis',(0.882678639941944,0.469977040492661,0.));
#1554=DIRECTION('ref_axis',(-0.469977040492661,0.882678639941944,0.));
#1555=DIRECTION('',(0.,0.,1.));
#1556=DIRECTION('center_axis',(-0.43785644696715,0.899044899796058,0.));
#1557=DIRECTION('ref_axis',(-0.899044899796058,-0.43785644696715,0.));
#1558=DIRECTION('',(0.,0.,1.));
#1559=DIRECTION('center_axis',(0.694246379833054,0.719737427183482,0.));
#1560=DIRECTION('ref_axis',(-0.719737427183482,0.694246379833054,0.));
#1561=DIRECTION('',(0.,0.,1.));
#1562=DIRECTION('center_axis',(-0.694246379833054,0.719737427183482,0.));
#1563=DIRECTION('ref_axis',(-0.719737427183482,-0.694246379833054,0.));
#1564=DIRECTION('',(0.,0.,1.));
#1565=DIRECTION('center_axis',(0.43785644696715,0.899044899796058,0.));
#1566=DIRECTION('ref_axis',(-0.899044899796058,0.43785644696715,0.));
#1567=DIRECTION('',(0.,0.,1.));
#1568=DIRECTION('center_axis',(-0.882678639941944,0.469977040492661,0.));
#1569=DIRECTION('ref_axis',(-0.469977040492661,-0.882678639941944,0.));
#1570=DIRECTION('',(0.,0.,1.));
#1571=DIRECTION('center_axis',(0.138606074346847,0.990347593602446,0.));
#1572=DIRECTION('ref_axis',(-0.990347593602446,0.138606074346847,0.));
#1573=DIRECTION('',(0.,0.,1.));
#1574=DIRECTION('center_axis',(-0.984708164789604,0.174212026555831,0.));
#1575=DIRECTION('ref_axis',(-0.174212026555831,-0.984708164789604,0.));
#1576=DIRECTION('',(0.,0.,1.));
#1577=DIRECTION('center_axis',(-0.174212026555831,0.984708164789604,0.));
#1578=DIRECTION('ref_axis',(-0.984708164789604,-0.174212026555831,0.));
#1579=DIRECTION('',(0.,0.,1.));
#1580=DIRECTION('center_axis',(-0.990347593602446,-0.138606074346847,0.));
#1581=DIRECTION('ref_axis',(0.138606074346847,-0.990347593602446,0.));
#1582=DIRECTION('',(0.,0.,1.));
#1583=DIRECTION('center_axis',(-0.46997704049266,0.882678639941944,0.));
#1584=DIRECTION('ref_axis',(-0.882678639941944,-0.469977040492661,0.));
#1585=DIRECTION('',(0.,0.,1.));
#1586=DIRECTION('center_axis',(-0.899044899796058,-0.43785644696715,0.));
#1587=DIRECTION('ref_axis',(0.43785644696715,-0.899044899796058,0.));
#1588=DIRECTION('',(0.,0.,1.));
#1589=DIRECTION('center_axis',(-0.719737427183482,0.694246379833054,0.));
#1590=DIRECTION('ref_axis',(-0.694246379833054,-0.719737427183482,0.));
#1591=DIRECTION('',(0.,0.,1.));
#1592=DIRECTION('center_axis',(-0.719737427183482,-0.694246379833054,0.));
#1593=DIRECTION('ref_axis',(0.694246379833054,-0.719737427183482,0.));
#1594=DIRECTION('',(0.,0.,1.));
#1595=DIRECTION('center_axis',(-0.899044899796058,0.43785644696715,0.));
#1596=DIRECTION('ref_axis',(-0.43785644696715,-0.899044899796058,0.));
#1597=DIRECTION('',(0.,0.,1.));
#1598=DIRECTION('center_axis',(-0.469977040492661,-0.882678639941944,0.));
#1599=DIRECTION('ref_axis',(0.882678639941944,-0.469977040492661,0.));
#1600=DIRECTION('',(0.,0.,1.));
#1601=DIRECTION('center_axis',(-0.990347593602446,0.138606074346847,0.));
#1602=DIRECTION('ref_axis',(-0.138606074346847,-0.990347593602446,0.));
#1603=DIRECTION('',(0.,0.,1.));
#1604=DIRECTION('center_axis',(-0.174212026555831,-0.984708164789604,0.));
#1605=DIRECTION('ref_axis',(0.984708164789604,-0.174212026555831,0.));
#1606=DIRECTION('',(0.,0.,1.));
#1607=DIRECTION('center_axis',(-0.984708164789604,-0.174212026555831,0.));
#1608=DIRECTION('ref_axis',(0.174212026555831,-0.984708164789604,0.));
#1609=DIRECTION('',(0.,0.,1.));
#1610=DIRECTION('center_axis',(0.138606074346847,-0.990347593602446,0.));
#1611=DIRECTION('ref_axis',(0.990347593602446,0.138606074346847,0.));
#1612=DIRECTION('center_axis',(0.,0.,1.));
#1613=DIRECTION('ref_axis',(1.,0.,0.));
#1614=DIRECTION('',(0.,0.,-1.));
#1615=CARTESIAN_POINT('',(0.,0.,0.));
#1616=CARTESIAN_POINT('Origin',(0.,0.,0.));
#1617=CARTESIAN_POINT('',(-3.875,-4.74550634669599E-16,0.));
#1618=CARTESIAN_POINT('Origin',(0.,0.,0.));
#1619=CARTESIAN_POINT('',(-2.23204953680429,-0.99887271877043,5.55111512312578E-16));
#1620=CARTESIAN_POINT('',(-2.13155044668374,-1.30066599133772,5.55111512312578E-16));
#1621=CARTESIAN_POINT('Origin',(-1.73205080756888,-1.,0.));
#1622=CARTESIAN_POINT('',(-2.1701880874108,-1.57673393927456,0.));
#1623=CARTESIAN_POINT('',(-2.1701880874108,-1.57673393927456,0.));
#1624=CARTESIAN_POINT('',(-1.66594357647551,-1.66594357647551,0.));
#1625=CARTESIAN_POINT('',(-2.1701880874108,-1.57673393927456,0.));
#1626=CARTESIAN_POINT('',(-1.57673393927456,-2.1701880874108,0.));
#1627=CARTESIAN_POINT('',(-1.57673393927456,-2.1701880874108,0.));
#1628=CARTESIAN_POINT('',(-1.06960161738637,-2.09921137098779,0.));
#1629=CARTESIAN_POINT('',(-1.57673393927456,-2.1701880874108,0.));
#1630=CARTESIAN_POINT('',(-0.828938087410797,-2.55120910496175,0.));
#1631=CARTESIAN_POINT('',(-0.828938087410797,-2.55120910496175,0.));
#1632=CARTESIAN_POINT('',(-0.368559599634785,-2.32699373044214,0.));
#1633=CARTESIAN_POINT('',(-0.828938087410797,-2.55120910496175,0.));
#1634=CARTESIAN_POINT('',(-3.28511503871278E-16,-2.6825,0.));
#1635=CARTESIAN_POINT('',(-3.28511503871278E-16,-2.6825,0.));
#1636=CARTESIAN_POINT('',(0.368559599634783,-2.32699373044214,0.));
#1637=CARTESIAN_POINT('',(-3.28511503871278E-16,-2.6825,0.));
#1638=CARTESIAN_POINT('',(0.828938087410796,-2.55120910496175,0.));
#1639=CARTESIAN_POINT('',(0.828938087410796,-2.55120910496175,0.));
#1640=CARTESIAN_POINT('',(1.06960161738637,-2.0992113709878,0.));
#1641=CARTESIAN_POINT('',(0.828938087410796,-2.55120910496175,0.));
#1642=CARTESIAN_POINT('',(1.57673393927456,-2.1701880874108,0.));
#1643=CARTESIAN_POINT('',(1.57673393927456,-2.1701880874108,0.));
#1644=CARTESIAN_POINT('',(1.6659435764755,-1.66594357647551,0.));
#1645=CARTESIAN_POINT('',(1.57673393927456,-2.1701880874108,0.));
#1646=CARTESIAN_POINT('',(2.1701880874108,-1.57673393927456,0.));
#1647=CARTESIAN_POINT('',(2.1701880874108,-1.57673393927456,0.));
#1648=CARTESIAN_POINT('',(2.09921137098779,-1.06960161738637,0.));
#1649=CARTESIAN_POINT('',(2.1701880874108,-1.57673393927456,0.));
#1650=CARTESIAN_POINT('',(2.55120910496175,-0.828938087410797,0.));
#1651=CARTESIAN_POINT('',(2.55120910496175,-0.828938087410797,0.));
#1652=CARTESIAN_POINT('',(2.32699373044214,-0.368559599634785,0.));
#1653=CARTESIAN_POINT('',(2.55120910496175,-0.828938087410797,0.));
#1654=CARTESIAN_POINT('',(2.6825,-5.95634652711397E-16,0.));
#1655=CARTESIAN_POINT('',(2.6825,-5.95634652711397E-16,0.));
#1656=CARTESIAN_POINT('',(2.32699373044214,0.368559599634783,0.));
#1657=CARTESIAN_POINT('',(2.6825,-5.95634652711397E-16,0.));
#1658=CARTESIAN_POINT('',(2.55120910496175,0.828938087410796,0.));
#1659=CARTESIAN_POINT('',(2.55120910496175,0.828938087410796,0.));
#1660=CARTESIAN_POINT('',(2.0992113709878,1.06960161738637,0.));
#1661=CARTESIAN_POINT('',(2.55120910496175,0.828938087410796,0.));
#1662=CARTESIAN_POINT('',(2.1701880874108,1.57673393927456,0.));
#1663=CARTESIAN_POINT('',(2.1701880874108,1.57673393927456,0.));
#1664=CARTESIAN_POINT('',(1.66594357647551,1.66594357647551,0.));
#1665=CARTESIAN_POINT('',(2.1701880874108,1.57673393927456,0.));
#1666=CARTESIAN_POINT('',(1.57673393927456,2.1701880874108,0.));
#1667=CARTESIAN_POINT('',(1.57673393927456,2.1701880874108,0.));
#1668=CARTESIAN_POINT('',(1.06960161738637,2.09921137098779,0.));
#1669=CARTESIAN_POINT('',(1.57673393927456,2.1701880874108,0.));
#1670=CARTESIAN_POINT('',(0.828938087410797,2.55120910496175,0.));
#1671=CARTESIAN_POINT('',(0.828938087410797,2.55120910496175,0.));
#1672=CARTESIAN_POINT('',(0.368559599634784,2.32699373044214,0.));
#1673=CARTESIAN_POINT('',(0.828938087410797,2.55120910496175,0.));
#1674=CARTESIAN_POINT('',(0.,2.6825,0.));
#1675=CARTESIAN_POINT('',(0.,2.6825,0.));
#1676=CARTESIAN_POINT('',(-0.368559599634783,2.32699373044214,0.));
#1677=CARTESIAN_POINT('',(0.,2.6825,0.));
#1678=CARTESIAN_POINT('',(-0.828938087410797,2.55120910496175,0.));
#1679=CARTESIAN_POINT('',(-0.828938087410797,2.55120910496175,0.));
#1680=CARTESIAN_POINT('',(-1.06960161738637,2.0992113709878,0.));
#1681=CARTESIAN_POINT('',(-0.828938087410797,2.55120910496175,0.));
#1682=CARTESIAN_POINT('',(-1.57673393927456,2.1701880874108,0.));
#1683=CARTESIAN_POINT('',(-1.57673393927456,2.1701880874108,0.));
#1684=CARTESIAN_POINT('',(-1.66594357647551,1.66594357647551,0.));
#1685=CARTESIAN_POINT('',(-1.57673393927456,2.1701880874108,0.));
#1686=CARTESIAN_POINT('',(-2.1701880874108,1.57673393927456,0.));
#1687=CARTESIAN_POINT('',(-2.1701880874108,1.57673393927456,0.));
#1688=CARTESIAN_POINT('',(-2.09921137098779,1.06960161738637,0.));
#1689=CARTESIAN_POINT('',(-2.1701880874108,1.57673393927456,0.));
#1690=CARTESIAN_POINT('',(-2.55120910496175,0.828938087410797,0.));
#1691=CARTESIAN_POINT('',(-2.55120910496175,0.828938087410797,0.));
#1692=CARTESIAN_POINT('',(-2.32699373044214,0.368559599634784,0.));
#1693=CARTESIAN_POINT('',(-2.55120910496175,0.828938087410797,0.));
#1694=CARTESIAN_POINT('',(-2.6825,-5.95634652711397E-16,0.));
#1695=CARTESIAN_POINT('',(-2.6825,-5.95634652711397E-16,0.));
#1696=CARTESIAN_POINT('',(-2.32699373044214,-0.368559599634783,0.));
#1697=CARTESIAN_POINT('',(-2.6825,-5.95634652711397E-16,0.));
#1698=CARTESIAN_POINT('',(-2.55120910496175,-0.828938087410797,0.));
#1699=CARTESIAN_POINT('',(-2.55120910496175,-0.828938087410797,0.));
#1700=CARTESIAN_POINT('',(-2.55120910496175,-0.828938087410797,0.));
#1701=CARTESIAN_POINT('Origin',(-2.1701880874108,-1.57673393927456,0.));
#1702=CARTESIAN_POINT('',(-2.13155044668374,-1.30066599133772,5.325));
#1703=CARTESIAN_POINT('',(-2.13155044668374,-1.30066599133772,3.15));
#1704=CARTESIAN_POINT('',(-2.1701880874108,-1.57673393927456,5.325));
#1705=CARTESIAN_POINT('',(-2.1701880874108,-1.57673393927456,5.325));
#1706=CARTESIAN_POINT('',(-2.1701880874108,-1.57673393927456,0.));
#1707=CARTESIAN_POINT('Origin',(-1.98205080756888,-0.566987298107781,8.15));
#1708=CARTESIAN_POINT('',(-1.28923048454134,-0.166987298107787,7.825));
#1709=CARTESIAN_POINT('',(-1.98205080756888,-0.566987298107781,7.825));
#1710=CARTESIAN_POINT('',(-0.630370113435804,0.213405914508371,7.825));
#1711=CARTESIAN_POINT('',(-1.98205080756888,-0.566987298107781,5.325));
#1712=CARTESIAN_POINT('',(-1.98205080756888,-0.566987298107781,8.15));
#1713=CARTESIAN_POINT('',(-1.28923048454134,-0.166987298107787,5.325));
#1714=CARTESIAN_POINT('',(-0.76961524227067,0.133012701892216,5.325));
#1715=CARTESIAN_POINT('',(-1.28923048454134,-0.166987298107787,8.15));
#1716=CARTESIAN_POINT('Origin',(0.,0.,8.15));
#1717=CARTESIAN_POINT('',(-0.78923048454134,-1.03301270189223,7.825));
#1718=CARTESIAN_POINT('Origin',(0.,0.,7.825));
#1719=CARTESIAN_POINT('',(-0.78923048454134,-1.03301270189223,5.325));
#1720=CARTESIAN_POINT('Origin',(0.,0.,5.325));
#1721=CARTESIAN_POINT('',(-0.78923048454134,-1.03301270189223,8.15));
#1722=CARTESIAN_POINT('Origin',(-0.78923048454134,-1.03301270189223,8.15));
#1723=CARTESIAN_POINT('',(-1.48205080756888,-1.43301270189222,7.825));
#1724=CARTESIAN_POINT('',(-0.476780274949573,-0.852619489276064,7.825));
#1725=CARTESIAN_POINT('',(-1.48205080756888,-1.43301270189222,5.325));
#1726=CARTESIAN_POINT('',(-0.616025403784439,-0.933012701892218,5.325));
#1727=CARTESIAN_POINT('',(-1.48205080756888,-1.43301270189222,8.15));
#1728=CARTESIAN_POINT('Origin',(-1.73205080756888,-1.,8.15));
#1729=CARTESIAN_POINT('Origin',(-1.73205080756888,-1.,7.825));
#1730=CARTESIAN_POINT('Origin',(-1.73205080756888,-1.,5.325));
#1731=CARTESIAN_POINT('',(-2.23204953680429,-0.99887271877043,5.325));
#1732=CARTESIAN_POINT('',(-2.23204953680429,-0.998872718770431,3.15));
#1733=CARTESIAN_POINT('Origin',(-1.73205080756888,-1.,5.325));
#1734=CARTESIAN_POINT('Origin',(0.,0.,10.825));
#1735=CARTESIAN_POINT('',(-3.25,-3.9801020972289E-16,10.825));
#1736=CARTESIAN_POINT('Origin',(0.,0.,10.825));
#1737=CARTESIAN_POINT('',(-3.25,-3.9801020972289E-16,9.825));
#1738=CARTESIAN_POINT('',(-3.25,3.9801020972289E-16,10.825));
#1739=CARTESIAN_POINT('Origin',(0.,0.,9.825));
#1740=CARTESIAN_POINT('Origin',(0.,0.,9.825));
#1741=CARTESIAN_POINT('',(-2.75,-3.36777869765522E-16,9.825));
#1742=CARTESIAN_POINT('Origin',(0.,0.,9.825));
#1743=CARTESIAN_POINT('Origin',(0.,0.,7.825));
#1744=CARTESIAN_POINT('',(-2.75,-3.36777869765522E-16,7.825));
#1745=CARTESIAN_POINT('',(-2.75,-3.36777869765522E-16,7.825));
#1746=CARTESIAN_POINT('Origin',(0.,0.,7.825));
#1747=CARTESIAN_POINT('Origin',(0.371320343559643,-1.66533453693773E-15,
10.825));
#1748=CARTESIAN_POINT('',(-4.75735931288071,1.5,10.825));
#1749=CARTESIAN_POINT('',(-4.75735931288071,-1.5,10.825));
#1750=CARTESIAN_POINT('',(-4.75735931288071,1.5,10.825));
#1751=CARTESIAN_POINT('',(-2.75735931288071,-3.5,10.825));
#1752=CARTESIAN_POINT('',(-4.75735931288071,-1.5,10.825));
#1753=CARTESIAN_POINT('',(4.24264068711928,-3.5,10.825));
#1754=CARTESIAN_POINT('',(-2.75735931288071,-3.5,10.825));
#1755=CARTESIAN_POINT('',(4.24264068711929,3.5,10.825));
#1756=CARTESIAN_POINT('Origin',(6.41847686111419E-16,-2.77555756156289E-16,
10.825));
#1757=CARTESIAN_POINT('',(-2.75735931288071,3.5,10.825));
#1758=CARTESIAN_POINT('',(4.24264068711929,3.5,10.825));
#1759=CARTESIAN_POINT('',(-2.75735931288071,3.5,10.825));
#1760=CARTESIAN_POINT('Origin',(0.371320343559644,-1.11022302462516E-15,
7.825));
#1761=CARTESIAN_POINT('Origin',(-4.75735931288071,1.5,5.825));
#1762=CARTESIAN_POINT('',(-4.75735931288071,-1.5,5.825));
#1763=CARTESIAN_POINT('',(-4.75735931288071,1.5,5.825));
#1764=CARTESIAN_POINT('',(-4.75735931288071,0.75,5.825));
#1765=CARTESIAN_POINT('',(-4.75735931288071,-1.5,5.825));
#1766=CARTESIAN_POINT('',(-4.75735931288071,1.5,5.825));
#1767=CARTESIAN_POINT('Origin',(-2.75735931288071,3.5,5.825));
#1768=CARTESIAN_POINT('',(-2.75735931288071,3.5,5.825));
#1769=CARTESIAN_POINT('',(-2.94301948466053,3.31433982822018,5.825));
#1770=CARTESIAN_POINT('',(-2.75735931288071,3.5,5.825));
#1771=CARTESIAN_POINT('Origin',(4.24264068711929,3.5,5.825));
#1772=CARTESIAN_POINT('',(4.24264068711929,3.5,5.825));
#1773=CARTESIAN_POINT('',(2.12132034355965,3.5,5.825));
#1774=CARTESIAN_POINT('',(4.24264068711929,3.5,5.825));
#1775=CARTESIAN_POINT('Origin',(-2.75735931288071,-3.5,5.825));
#1776=CARTESIAN_POINT('',(4.24264068711928,-3.5,5.825));
#1777=CARTESIAN_POINT('',(-2.75735931288071,-3.5,5.825));
#1778=CARTESIAN_POINT('',(-1.37867965644036,-3.5,5.825));
#1779=CARTESIAN_POINT('',(4.24264068711928,-3.5,5.825));
#1780=CARTESIAN_POINT('',(-2.75735931288071,-3.5,5.825));
#1781=CARTESIAN_POINT('Origin',(-4.75735931288071,-1.5,5.825));
#1782=CARTESIAN_POINT('',(-3.94301948466053,-2.31433982822018,5.825));
#1783=CARTESIAN_POINT('Origin',(0.,0.,5.825));
#1784=CARTESIAN_POINT('',(-5.5,-5.43451478832784E-16,5.825));
#1785=CARTESIAN_POINT('Origin',(3.46944695195361E-17,1.30104260698261E-16,
5.825));
#1786=CARTESIAN_POINT('Origin',(3.46944695195361E-17,1.30104260698261E-16,
5.825));
#1787=CARTESIAN_POINT('Origin',(0.,0.,5.325));
#1788=CARTESIAN_POINT('',(0.828938087410797,2.55120910496175,5.325));
#1789=CARTESIAN_POINT('',(1.06960161738637,2.09921137098779,5.325));
#1790=CARTESIAN_POINT('',(0.828938087410797,2.55120910496175,5.325));
#1791=CARTESIAN_POINT('',(1.57673393927456,2.1701880874108,5.325));
#1792=CARTESIAN_POINT('',(1.06960161738637,2.09921137098779,5.325));
#1793=CARTESIAN_POINT('',(1.66594357647551,1.66594357647551,5.325));
#1794=CARTESIAN_POINT('',(1.57673393927456,2.1701880874108,5.325));
#1795=CARTESIAN_POINT('',(2.1701880874108,1.57673393927456,5.325));
#1796=CARTESIAN_POINT('',(1.66594357647551,1.66594357647551,5.325));
#1797=CARTESIAN_POINT('',(2.0992113709878,1.06960161738637,5.325));
#1798=CARTESIAN_POINT('',(2.1701880874108,1.57673393927456,5.325));
#1799=CARTESIAN_POINT('',(2.55120910496175,0.828938087410796,5.325));
#1800=CARTESIAN_POINT('',(2.0992113709878,1.06960161738637,5.325));
#1801=CARTESIAN_POINT('',(2.32699373044214,0.368559599634783,5.325));
#1802=CARTESIAN_POINT('',(2.55120910496175,0.828938087410796,5.325));
#1803=CARTESIAN_POINT('',(2.6825,-5.55111512312578E-16,5.325));
#1804=CARTESIAN_POINT('',(2.32699373044214,0.368559599634783,5.325));
#1805=CARTESIAN_POINT('',(2.32699373044214,-0.368559599634785,5.325));
#1806=CARTESIAN_POINT('',(2.6825,-5.55111512312578E-16,5.325));
#1807=CARTESIAN_POINT('',(2.55120910496175,-0.828938087410797,5.325));
#1808=CARTESIAN_POINT('',(2.32699373044214,-0.368559599634785,5.325));
#1809=CARTESIAN_POINT('',(2.09921137098779,-1.06960161738637,5.325));
#1810=CARTESIAN_POINT('',(2.55120910496175,-0.828938087410797,5.325));
#1811=CARTESIAN_POINT('',(2.1701880874108,-1.57673393927456,5.325));
#1812=CARTESIAN_POINT('',(2.09921137098779,-1.06960161738637,5.325));
#1813=CARTESIAN_POINT('',(1.6659435764755,-1.66594357647551,5.325));
#1814=CARTESIAN_POINT('',(2.1701880874108,-1.57673393927456,5.325));
#1815=CARTESIAN_POINT('',(1.57673393927456,-2.1701880874108,5.325));
#1816=CARTESIAN_POINT('',(1.6659435764755,-1.66594357647551,5.325));
#1817=CARTESIAN_POINT('',(1.06960161738637,-2.0992113709878,5.325));
#1818=CARTESIAN_POINT('',(1.57673393927456,-2.1701880874108,5.325));
#1819=CARTESIAN_POINT('',(0.828938087410796,-2.55120910496175,5.325));
#1820=CARTESIAN_POINT('',(1.06960161738637,-2.0992113709878,5.325));
#1821=CARTESIAN_POINT('',(0.368559599634783,-2.32699373044214,5.325));
#1822=CARTESIAN_POINT('',(0.828938087410796,-2.55120910496175,5.325));
#1823=CARTESIAN_POINT('',(-2.77555756156289E-16,-2.6825,5.325));
#1824=CARTESIAN_POINT('',(0.368559599634783,-2.32699373044214,5.325));
#1825=CARTESIAN_POINT('',(-0.368559599634785,-2.32699373044214,5.325));
#1826=CARTESIAN_POINT('',(-2.77555756156289E-16,-2.6825,5.325));
#1827=CARTESIAN_POINT('',(-0.828938087410797,-2.55120910496175,5.325));
#1828=CARTESIAN_POINT('',(-0.368559599634785,-2.32699373044214,5.325));
#1829=CARTESIAN_POINT('',(-1.06960161738637,-2.09921137098779,5.325));
#1830=CARTESIAN_POINT('',(-0.828938087410797,-2.55120910496175,5.325));
#1831=CARTESIAN_POINT('',(-1.57673393927456,-2.1701880874108,5.325));
#1832=CARTESIAN_POINT('',(-1.06960161738637,-2.09921137098779,5.325));
#1833=CARTESIAN_POINT('',(-1.66594357647551,-1.66594357647551,5.325));
#1834=CARTESIAN_POINT('',(-1.57673393927456,-2.1701880874108,5.325));
#1835=CARTESIAN_POINT('',(-1.66594357647551,-1.66594357647551,5.325));
#1836=CARTESIAN_POINT('',(-2.55120910496175,-0.828938087410797,5.325));
#1837=CARTESIAN_POINT('',(-2.09921137098779,-1.06960161738637,5.325));
#1838=CARTESIAN_POINT('',(-2.32699373044214,-0.368559599634783,5.325));
#1839=CARTESIAN_POINT('',(-2.55120910496175,-0.828938087410797,5.325));
#1840=CARTESIAN_POINT('',(-2.6825,-5.55111512312578E-16,5.325));
#1841=CARTESIAN_POINT('',(-2.32699373044214,-0.368559599634783,5.325));
#1842=CARTESIAN_POINT('',(-2.32699373044214,0.368559599634784,5.325));
#1843=CARTESIAN_POINT('',(-2.6825,-5.55111512312578E-16,5.325));
#1844=CARTESIAN_POINT('',(-2.55120910496175,0.828938087410797,5.325));
#1845=CARTESIAN_POINT('',(-2.32699373044214,0.368559599634784,5.325));
#1846=CARTESIAN_POINT('',(-2.09921137098779,1.06960161738637,5.325));
#1847=CARTESIAN_POINT('',(-2.55120910496175,0.828938087410797,5.325));
#1848=CARTESIAN_POINT('',(-2.1701880874108,1.57673393927456,5.325));
#1849=CARTESIAN_POINT('',(-2.09921137098779,1.06960161738637,5.325));
#1850=CARTESIAN_POINT('',(-1.66594357647551,1.66594357647551,5.325));
#1851=CARTESIAN_POINT('',(-2.1701880874108,1.57673393927456,5.325));
#1852=CARTESIAN_POINT('',(-1.57673393927456,2.1701880874108,5.325));
#1853=CARTESIAN_POINT('',(-1.66594357647551,1.66594357647551,5.325));
#1854=CARTESIAN_POINT('',(-1.06960161738637,2.0992113709878,5.325));
#1855=CARTESIAN_POINT('',(-1.57673393927456,2.1701880874108,5.325));
#1856=CARTESIAN_POINT('',(-0.828938087410797,2.55120910496175,5.325));
#1857=CARTESIAN_POINT('',(-1.06960161738637,2.0992113709878,5.325));
#1858=CARTESIAN_POINT('',(-0.368559599634783,2.32699373044214,5.325));
#1859=CARTESIAN_POINT('',(-0.828938087410797,2.55120910496175,5.325));
#1860=CARTESIAN_POINT('',(0.,2.6825,5.325));
#1861=CARTESIAN_POINT('',(-0.368559599634783,2.32699373044214,5.325));
#1862=CARTESIAN_POINT('',(0.368559599634784,2.32699373044214,5.325));
#1863=CARTESIAN_POINT('',(0.,2.6825,5.325));
#1864=CARTESIAN_POINT('',(0.368559599634784,2.32699373044214,5.325));
#1865=CARTESIAN_POINT('Origin',(0.,0.,5.325));
#1866=CARTESIAN_POINT('',(-5.5,-5.43451478832784E-16,5.325));
#1867=CARTESIAN_POINT('Origin',(3.46944695195361E-17,1.30104260698261E-16,
5.325));
#1868=CARTESIAN_POINT('',(-4.,-5.55111512312578E-16,5.325));
#1869=CARTESIAN_POINT('Origin',(0.,0.,5.325));
#1870=CARTESIAN_POINT('Origin',(3.46944695195361E-17,1.30104260698261E-16,
5.325));
#1871=CARTESIAN_POINT('',(-5.5,-5.43451478832784E-16,5.325));
#1872=CARTESIAN_POINT('Origin',(0.,0.,3.));
#1873=CARTESIAN_POINT('',(-4.,-4.89858719658941E-16,3.));
#1874=CARTESIAN_POINT('Origin',(0.,0.,3.));
#1875=CARTESIAN_POINT('',(-3.875,-5.55111512312578E-16,3.));
#1876=CARTESIAN_POINT('Origin',(0.,0.,3.));
#1877=CARTESIAN_POINT('Origin',(0.,0.,3.));
#1878=CARTESIAN_POINT('',(-4.,-4.89858719658941E-16,3.));
#1879=CARTESIAN_POINT('Origin',(0.828938087410797,2.55120910496175,0.));
#1880=CARTESIAN_POINT('',(1.06960161738637,2.09921137098779,0.));
#1881=CARTESIAN_POINT('',(0.828938087410797,2.55120910496175,0.));
#1882=CARTESIAN_POINT('Origin',(0.368559599634784,2.32699373044214,0.));
#1883=CARTESIAN_POINT('',(0.368559599634784,2.32699373044214,0.));
#1884=CARTESIAN_POINT('Origin',(0.,2.6825,0.));
#1885=CARTESIAN_POINT('',(0.,2.6825,0.));
#1886=CARTESIAN_POINT('Origin',(-0.368559599634784,2.32699373044214,0.));
#1887=CARTESIAN_POINT('',(-0.368559599634783,2.32699373044214,0.));
#1888=CARTESIAN_POINT('Origin',(-0.828938087410797,2.55120910496175,0.));
#1889=CARTESIAN_POINT('',(-0.828938087410797,2.55120910496175,0.));
#1890=CARTESIAN_POINT('Origin',(-1.06960161738637,2.0992113709878,0.));
#1891=CARTESIAN_POINT('',(-1.06960161738637,2.0992113709878,0.));
#1892=CARTESIAN_POINT('Origin',(-1.57673393927456,2.1701880874108,0.));
#1893=CARTESIAN_POINT('',(-1.57673393927456,2.1701880874108,0.));
#1894=CARTESIAN_POINT('Origin',(-1.66594357647551,1.66594357647551,0.));
#1895=CARTESIAN_POINT('',(-1.66594357647551,1.66594357647551,0.));
#1896=CARTESIAN_POINT('Origin',(-2.1701880874108,1.57673393927456,0.));
#1897=CARTESIAN_POINT('',(-2.1701880874108,1.57673393927456,0.));
#1898=CARTESIAN_POINT('Origin',(-2.09921137098779,1.06960161738637,0.));
#1899=CARTESIAN_POINT('',(-2.09921137098779,1.06960161738637,0.));
#1900=CARTESIAN_POINT('Origin',(-2.55120910496175,0.828938087410797,0.));
#1901=CARTESIAN_POINT('',(-2.55120910496175,0.828938087410797,0.));
#1902=CARTESIAN_POINT('Origin',(-2.32699373044214,0.368559599634784,0.));
#1903=CARTESIAN_POINT('',(-2.32699373044214,0.368559599634784,0.));
#1904=CARTESIAN_POINT('Origin',(-2.6825,-5.95634652711397E-16,0.));
#1905=CARTESIAN_POINT('',(-2.6825,-5.95634652711397E-16,0.));
#1906=CARTESIAN_POINT('Origin',(-2.32699373044215,-0.368559599634784,0.));
#1907=CARTESIAN_POINT('',(-2.32699373044214,-0.368559599634783,0.));
#1908=CARTESIAN_POINT('Origin',(-2.55120910496175,-0.828938087410797,0.));
#1909=CARTESIAN_POINT('',(-2.55120910496175,-0.828938087410797,0.));
#1910=CARTESIAN_POINT('Origin',(-2.0992113709878,-1.06960161738637,0.));
#1911=CARTESIAN_POINT('Origin',(-1.66594357647551,-1.66594357647551,0.));
#1912=CARTESIAN_POINT('',(-1.66594357647551,-1.66594357647551,0.));
#1913=CARTESIAN_POINT('Origin',(-1.57673393927456,-2.1701880874108,0.));
#1914=CARTESIAN_POINT('',(-1.57673393927456,-2.1701880874108,0.));
#1915=CARTESIAN_POINT('Origin',(-1.06960161738637,-2.09921137098779,0.));
#1916=CARTESIAN_POINT('',(-1.06960161738637,-2.09921137098779,0.));
#1917=CARTESIAN_POINT('Origin',(-0.828938087410797,-2.55120910496175,0.));
#1918=CARTESIAN_POINT('',(-0.828938087410797,-2.55120910496175,0.));
#1919=CARTESIAN_POINT('Origin',(-0.368559599634785,-2.32699373044214,0.));
#1920=CARTESIAN_POINT('',(-0.368559599634785,-2.32699373044214,0.));
#1921=CARTESIAN_POINT('Origin',(-3.28511503871278E-16,-2.6825,0.));
#1922=CARTESIAN_POINT('',(-3.28511503871278E-16,-2.6825,0.));
#1923=CARTESIAN_POINT('Origin',(0.368559599634783,-2.32699373044214,0.));
#1924=CARTESIAN_POINT('',(0.368559599634783,-2.32699373044214,0.));
#1925=CARTESIAN_POINT('Origin',(0.828938087410796,-2.55120910496175,0.));
#1926=CARTESIAN_POINT('',(0.828938087410796,-2.55120910496175,0.));
#1927=CARTESIAN_POINT('Origin',(1.06960161738637,-2.0992113709878,0.));
#1928=CARTESIAN_POINT('',(1.06960161738637,-2.0992113709878,0.));
#1929=CARTESIAN_POINT('Origin',(1.57673393927456,-2.1701880874108,0.));
#1930=CARTESIAN_POINT('',(1.57673393927456,-2.1701880874108,0.));
#1931=CARTESIAN_POINT('Origin',(1.66594357647551,-1.66594357647551,0.));
#1932=CARTESIAN_POINT('',(1.6659435764755,-1.66594357647551,0.));
#1933=CARTESIAN_POINT('Origin',(2.1701880874108,-1.57673393927456,0.));
#1934=CARTESIAN_POINT('',(2.1701880874108,-1.57673393927456,0.));
#1935=CARTESIAN_POINT('Origin',(2.09921137098779,-1.06960161738637,0.));
#1936=CARTESIAN_POINT('',(2.09921137098779,-1.06960161738637,0.));
#1937=CARTESIAN_POINT('Origin',(2.55120910496175,-0.828938087410797,0.));
#1938=CARTESIAN_POINT('',(2.55120910496175,-0.828938087410797,0.));
#1939=CARTESIAN_POINT('Origin',(2.32699373044214,-0.368559599634785,0.));
#1940=CARTESIAN_POINT('',(2.32699373044214,-0.368559599634785,0.));
#1941=CARTESIAN_POINT('Origin',(2.6825,-5.95634652711397E-16,0.));
#1942=CARTESIAN_POINT('',(2.6825,-5.95634652711397E-16,0.));
#1943=CARTESIAN_POINT('Origin',(2.32699373044214,0.368559599634783,0.));
#1944=CARTESIAN_POINT('',(2.32699373044214,0.368559599634783,0.));
#1945=CARTESIAN_POINT('Origin',(2.55120910496175,0.828938087410796,0.));
#1946=CARTESIAN_POINT('',(2.55120910496175,0.828938087410796,0.));
#1947=CARTESIAN_POINT('Origin',(2.0992113709878,1.06960161738637,0.));
#1948=CARTESIAN_POINT('',(2.0992113709878,1.06960161738637,0.));
#1949=CARTESIAN_POINT('Origin',(2.1701880874108,1.57673393927456,0.));
#1950=CARTESIAN_POINT('',(2.1701880874108,1.57673393927456,0.));
#1951=CARTESIAN_POINT('Origin',(1.66594357647551,1.66594357647551,0.));
#1952=CARTESIAN_POINT('',(1.66594357647551,1.66594357647551,0.));
#1953=CARTESIAN_POINT('Origin',(1.57673393927456,2.1701880874108,0.));
#1954=CARTESIAN_POINT('',(1.57673393927456,2.1701880874108,0.));
#1955=CARTESIAN_POINT('Origin',(1.06960161738637,2.09921137098779,0.));
#1956=CARTESIAN_POINT('Origin',(0.,0.,0.));
#1957=CARTESIAN_POINT('',(-3.875,-4.74550634669599E-16,0.));
#1958=UNCERTAINTY_MEASURE_WITH_UNIT(LENGTH_MEASURE(0.01),#1962,
'DISTANCE_ACCURACY_VALUE',
'Maximum model space distance between geometric entities at asserted c
onnectivities');
#1959=UNCERTAINTY_MEASURE_WITH_UNIT(LENGTH_MEASURE(0.01),#1962,
'DISTANCE_ACCURACY_VALUE',
'Maximum model space distance between geometric entities at asserted c
onnectivities');
#1960=(
GEOMETRIC_REPRESENTATION_CONTEXT(3)
GLOBAL_UNCERTAINTY_ASSIGNED_CONTEXT((#1958))
GLOBAL_UNIT_ASSIGNED_CONTEXT((#1962,#1964,#1965))
REPRESENTATION_CONTEXT('','3D')
);
#1961=(
GEOMETRIC_REPRESENTATION_CONTEXT(3)
GLOBAL_UNCERTAINTY_ASSIGNED_CONTEXT((#1959))
GLOBAL_UNIT_ASSIGNED_CONTEXT((#1962,#1964,#1965))
REPRESENTATION_CONTEXT('','3D')
);
#1962=(
LENGTH_UNIT()
NAMED_UNIT(*)
SI_UNIT(.MILLI.,.METRE.)
);
#1963=(
LENGTH_UNIT()
NAMED_UNIT(*)
SI_UNIT($,.METRE.)
);
#1964=(
NAMED_UNIT(*)
PLANE_ANGLE_UNIT()
SI_UNIT($,.RADIAN.)
);
#1965=(
NAMED_UNIT(*)
SI_UNIT($,.STERADIAN.)
SOLID_ANGLE_UNIT()
);
#1966=SHAPE_DEFINITION_REPRESENTATION(#1967,#1968);
#1967=PRODUCT_DEFINITION_SHAPE('',$,#1970);
#1968=SHAPE_REPRESENTATION('',(#1222),#1960);
#1969=PRODUCT_DEFINITION_CONTEXT('part definition',#1974,'design');
#1970=PRODUCT_DEFINITION('TI1-300-002_SpanDriver',
'TI1-300-002_SpanDriver v9',#1971,#1969);
#1971=PRODUCT_DEFINITION_FORMATION('',$,#1976);
#1972=PRODUCT_RELATED_PRODUCT_CATEGORY('TI1-300-002_SpanDriver v9',
'TI1-300-002_SpanDriver v9',(#1976));
#1973=APPLICATION_PROTOCOL_DEFINITION('international standard',
'automotive_design',2009,#1974);
#1974=APPLICATION_CONTEXT(
'Core Data for Automotive Mechanical Design Process');
#1975=PRODUCT_CONTEXT('part definition',#1974,'mechanical');
#1976=PRODUCT('TI1-300-002_SpanDriver','TI1-300-002_SpanDriver v9',$,(#1975));
#1977=PRESENTATION_STYLE_ASSIGNMENT((#1978));
#1978=SURFACE_STYLE_USAGE(.BOTH.,#1979);
#1979=SURFACE_SIDE_STYLE('',(#1980));
#1980=SURFACE_STYLE_FILL_AREA(#1981);
#1981=FILL_AREA_STYLE('Steel - Satin',(#1982));
#1982=FILL_AREA_STYLE_COLOUR('Steel - Satin',#1983);
#1983=COLOUR_RGB('Steel - Satin',0.627450980392157,0.627450980392157,0.627450980392157);
ENDSEC;
END-ISO-10303-21;
