ISO-10303-21;
HEADER;
/* Generated by software containing ST-Developer
 * from STEP Tools, Inc. (www.steptools.com) 
 */

FILE_DESCRIPTION(
/* description */ (''),
/* implementation_level */ '2;1');

FILE_NAME(
/* name */ 
'C:/Users/Noah/3D Objects/ToolInterface/STEP/PinionGearExt.step',
/* time_stamp */ '2020-03-12T10:40:46-07:00',
/* author */ (''),
/* organization */ (''),
/* preprocessor_version */ 'ST-DEVELOPER v18',
/* originating_system */ 'Autodesk Translation Framework v8.12.0.6',
/* authorisation */ '');

FILE_SCHEMA (('AUTOMOTIVE_DESIGN { 1 0 10303 214 3 1 1 }'));
ENDSEC;

DATA;
#10=MECHANICAL_DESIGN_GEOMETRIC_PRESENTATION_REPRESENTATION('',(#13),#677);
#11=SHAPE_REPRESENTATION_RELATIONSHIP('SRR','None',#684,#12);
#12=ADVANCED_BREP_SHAPE_REPRESENTATION('',(#14),#676);
#13=STYLED_ITEM('',(#693),#14);
#14=MANIFOLD_SOLID_BREP('Body1',#390);
#15=CONICAL_SURFACE('',#420,3.75,0.785398163397448);
#16=B_SPLINE_CURVE_WITH_KNOTS('',3,(#613,#614,#615,#616),.UNSPECIFIED.,
 .F.,.F.,(4,4),(0.,0.073270909555048),.UNSPECIFIED.);
#17=B_SPLINE_CURVE_WITH_KNOTS('',3,(#622,#623,#624,#625),.UNSPECIFIED.,
 .F.,.F.,(4,4),(0.,0.0732709095550421),.UNSPECIFIED.);
#18=FACE_BOUND('',#70,.T.);
#19=FACE_BOUND('',#80,.T.);
#20=FACE_BOUND('',#87,.T.);
#21=PLANE('',#410);
#22=PLANE('',#411);
#23=PLANE('',#415);
#24=PLANE('',#416);
#25=PLANE('',#418);
#26=PLANE('',#419);
#27=PLANE('',#423);
#28=PLANE('',#424);
#29=PLANE('',#425);
#30=PLANE('',#426);
#31=PLANE('',#427);
#32=PLANE('',#428);
#33=PLANE('',#431);
#34=PLANE('',#432);
#35=PLANE('',#434);
#36=PLANE('',#436);
#37=PLANE('',#438);
#38=PLANE('',#443);
#39=FACE_OUTER_BOUND('',#63,.T.);
#40=FACE_OUTER_BOUND('',#64,.T.);
#41=FACE_OUTER_BOUND('',#65,.T.);
#42=FACE_OUTER_BOUND('',#66,.T.);
#43=FACE_OUTER_BOUND('',#67,.T.);
#44=FACE_OUTER_BOUND('',#68,.T.);
#45=FACE_OUTER_BOUND('',#69,.T.);
#46=FACE_OUTER_BOUND('',#71,.T.);
#47=FACE_OUTER_BOUND('',#72,.T.);
#48=FACE_OUTER_BOUND('',#73,.T.);
#49=FACE_OUTER_BOUND('',#74,.T.);
#50=FACE_OUTER_BOUND('',#75,.T.);
#51=FACE_OUTER_BOUND('',#76,.T.);
#52=FACE_OUTER_BOUND('',#77,.T.);
#53=FACE_OUTER_BOUND('',#78,.T.);
#54=FACE_OUTER_BOUND('',#79,.T.);
#55=FACE_OUTER_BOUND('',#81,.T.);
#56=FACE_OUTER_BOUND('',#82,.T.);
#57=FACE_OUTER_BOUND('',#83,.T.);
#58=FACE_OUTER_BOUND('',#84,.T.);
#59=FACE_OUTER_BOUND('',#85,.T.);
#60=FACE_OUTER_BOUND('',#86,.T.);
#61=FACE_OUTER_BOUND('',#88,.T.);
#62=FACE_OUTER_BOUND('',#89,.T.);
#63=EDGE_LOOP('',(#257,#258,#259,#260));
#64=EDGE_LOOP('',(#261,#262,#263,#264));
#65=EDGE_LOOP('',(#265,#266,#267,#268,#269,#270));
#66=EDGE_LOOP('',(#271,#272,#273,#274,#275,#276));
#67=EDGE_LOOP('',(#277,#278,#279,#280));
#68=EDGE_LOOP('',(#281,#282,#283,#284));
#69=EDGE_LOOP('',(#285,#286,#287,#288));
#70=EDGE_LOOP('',(#289));
#71=EDGE_LOOP('',(#290,#291,#292,#293));
#72=EDGE_LOOP('',(#294,#295,#296,#297));
#73=EDGE_LOOP('',(#298,#299,#300,#301));
#74=EDGE_LOOP('',(#302,#303,#304,#305));
#75=EDGE_LOOP('',(#306,#307,#308,#309));
#76=EDGE_LOOP('',(#310,#311,#312,#313));
#77=EDGE_LOOP('',(#314,#315,#316,#317));
#78=EDGE_LOOP('',(#318,#319,#320,#321));
#79=EDGE_LOOP('',(#322,#323,#324,#325,#326));
#80=EDGE_LOOP('',(#327));
#81=EDGE_LOOP('',(#328,#329,#330,#331));
#82=EDGE_LOOP('',(#332,#333,#334,#335));
#83=EDGE_LOOP('',(#336,#337));
#84=EDGE_LOOP('',(#338,#339));
#85=EDGE_LOOP('',(#340,#341));
#86=EDGE_LOOP('',(#342,#343,#344,#345));
#87=EDGE_LOOP('',(#346));
#88=EDGE_LOOP('',(#347,#348,#349,#350,#351,#352,#353,#354,#355,#356,#357));
#89=EDGE_LOOP('',(#358,#359,#360));
#90=LINE('',#566,#124);
#91=LINE('',#569,#125);
#92=LINE('',#573,#126);
#93=LINE('',#577,#127);
#94=LINE('',#581,#128);
#95=LINE('',#583,#129);
#96=LINE('',#584,#130);
#97=LINE('',#585,#131);
#98=LINE('',#588,#132);
#99=LINE('',#589,#133);
#100=LINE('',#591,#134);
#101=LINE('',#592,#135);
#102=LINE('',#603,#136);
#103=LINE('',#605,#137);
#104=LINE('',#607,#138);
#105=LINE('',#608,#139);
#106=LINE('',#611,#140);
#107=LINE('',#617,#141);
#108=LINE('',#629,#142);
#109=LINE('',#631,#143);
#110=LINE('',#632,#144);
#111=LINE('',#634,#145);
#112=LINE('',#635,#146);
#113=LINE('',#638,#147);
#114=LINE('',#640,#148);
#115=LINE('',#641,#149);
#116=LINE('',#644,#150);
#117=LINE('',#645,#151);
#118=LINE('',#648,#152);
#119=LINE('',#649,#153);
#120=LINE('',#654,#154);
#121=LINE('',#657,#155);
#122=LINE('',#658,#156);
#123=LINE('',#670,#157);
#124=VECTOR('',#450,10.);
#125=VECTOR('',#453,10.);
#126=VECTOR('',#456,10.);
#127=VECTOR('',#459,10.);
#128=VECTOR('',#464,10.);
#129=VECTOR('',#465,10.);
#130=VECTOR('',#466,10.);
#131=VECTOR('',#467,10.);
#132=VECTOR('',#470,10.);
#133=VECTOR('',#471,10.);
#134=VECTOR('',#472,10.);
#135=VECTOR('',#473,10.);
#136=VECTOR('',#488,10.);
#137=VECTOR('',#489,10.);
#138=VECTOR('',#490,10.);
#139=VECTOR('',#491,10.);
#140=VECTOR('',#494,10.);
#141=VECTOR('',#495,10.);
#142=VECTOR('',#504,10.);
#143=VECTOR('',#505,10.);
#144=VECTOR('',#506,10.);
#145=VECTOR('',#509,10.);
#146=VECTOR('',#510,10.);
#147=VECTOR('',#513,10.);
#148=VECTOR('',#514,10.);
#149=VECTOR('',#515,10.);
#150=VECTOR('',#518,10.);
#151=VECTOR('',#519,10.);
#152=VECTOR('',#522,10.);
#153=VECTOR('',#523,10.);
#154=VECTOR('',#530,1.5);
#155=VECTOR('',#533,10.);
#156=VECTOR('',#534,10.);
#157=VECTOR('',#553,4.);
#158=CIRCLE('',#405,4.9);
#159=CIRCLE('',#406,4.9);
#160=CIRCLE('',#408,4.4);
#161=CIRCLE('',#409,4.4);
#162=CIRCLE('',#413,3.);
#163=CIRCLE('',#414,3.);
#164=CIRCLE('',#417,1.5);
#165=CIRCLE('',#421,3.5);
#166=CIRCLE('',#422,4.);
#167=CIRCLE('',#429,1.5);
#168=CIRCLE('',#433,4.);
#169=CIRCLE('',#435,4.);
#170=CIRCLE('',#437,4.);
#171=CIRCLE('',#439,4.);
#172=CIRCLE('',#441,4.);
#173=CIRCLE('',#442,4.);
#174=VERTEX_POINT('',#562);
#175=VERTEX_POINT('',#563);
#176=VERTEX_POINT('',#565);
#177=VERTEX_POINT('',#567);
#178=VERTEX_POINT('',#571);
#179=VERTEX_POINT('',#572);
#180=VERTEX_POINT('',#574);
#181=VERTEX_POINT('',#576);
#182=VERTEX_POINT('',#580);
#183=VERTEX_POINT('',#582);
#184=VERTEX_POINT('',#587);
#185=VERTEX_POINT('',#590);
#186=VERTEX_POINT('',#598);
#187=VERTEX_POINT('',#601);
#188=VERTEX_POINT('',#602);
#189=VERTEX_POINT('',#604);
#190=VERTEX_POINT('',#606);
#191=VERTEX_POINT('',#610);
#192=VERTEX_POINT('',#612);
#193=VERTEX_POINT('',#619);
#194=VERTEX_POINT('',#621);
#195=VERTEX_POINT('',#628);
#196=VERTEX_POINT('',#630);
#197=VERTEX_POINT('',#637);
#198=VERTEX_POINT('',#639);
#199=VERTEX_POINT('',#643);
#200=VERTEX_POINT('',#647);
#201=VERTEX_POINT('',#651);
#202=VERTEX_POINT('',#656);
#203=VERTEX_POINT('',#666);
#204=VERTEX_POINT('',#669);
#205=EDGE_CURVE('',#174,#175,#158,.T.);
#206=EDGE_CURVE('',#174,#176,#90,.T.);
#207=EDGE_CURVE('',#177,#176,#159,.T.);
#208=EDGE_CURVE('',#175,#177,#91,.T.);
#209=EDGE_CURVE('',#178,#179,#92,.T.);
#210=EDGE_CURVE('',#179,#180,#160,.T.);
#211=EDGE_CURVE('',#180,#181,#93,.T.);
#212=EDGE_CURVE('',#178,#181,#161,.T.);
#213=EDGE_CURVE('',#182,#178,#94,.T.);
#214=EDGE_CURVE('',#182,#183,#95,.T.);
#215=EDGE_CURVE('',#183,#175,#96,.T.);
#216=EDGE_CURVE('',#179,#177,#97,.T.);
#217=EDGE_CURVE('',#181,#184,#98,.T.);
#218=EDGE_CURVE('',#176,#180,#99,.T.);
#219=EDGE_CURVE('',#185,#174,#100,.T.);
#220=EDGE_CURVE('',#184,#185,#101,.T.);
#221=EDGE_CURVE('',#184,#182,#162,.T.);
#222=EDGE_CURVE('',#183,#185,#163,.T.);
#223=EDGE_CURVE('',#186,#186,#164,.T.);
#224=EDGE_CURVE('',#187,#188,#102,.T.);
#225=EDGE_CURVE('',#188,#189,#103,.T.);
#226=EDGE_CURVE('',#189,#190,#104,.T.);
#227=EDGE_CURVE('',#187,#190,#105,.T.);
#228=EDGE_CURVE('',#188,#191,#106,.T.);
#229=EDGE_CURVE('',#191,#192,#16,.T.);
#230=EDGE_CURVE('',#192,#189,#107,.T.);
#231=EDGE_CURVE('',#191,#193,#165,.T.);
#232=EDGE_CURVE('',#193,#194,#17,.T.);
#233=EDGE_CURVE('',#194,#192,#166,.T.);
#234=EDGE_CURVE('',#195,#194,#108,.T.);
#235=EDGE_CURVE('',#193,#196,#109,.T.);
#236=EDGE_CURVE('',#196,#195,#110,.T.);
#237=EDGE_CURVE('',#190,#195,#111,.T.);
#238=EDGE_CURVE('',#196,#187,#112,.T.);
#239=EDGE_CURVE('',#197,#195,#113,.T.);
#240=EDGE_CURVE('',#198,#197,#114,.T.);
#241=EDGE_CURVE('',#198,#194,#115,.T.);
#242=EDGE_CURVE('',#199,#190,#116,.T.);
#243=EDGE_CURVE('',#197,#199,#117,.T.);
#244=EDGE_CURVE('',#200,#189,#118,.T.);
#245=EDGE_CURVE('',#199,#200,#119,.T.);
#246=EDGE_CURVE('',#201,#201,#167,.T.);
#247=EDGE_CURVE('',#201,#186,#120,.T.);
#248=EDGE_CURVE('',#202,#192,#121,.T.);
#249=EDGE_CURVE('',#200,#202,#122,.T.);
#250=EDGE_CURVE('',#197,#199,#168,.T.);
#251=EDGE_CURVE('',#198,#197,#169,.T.);
#252=EDGE_CURVE('',#199,#200,#170,.T.);
#253=EDGE_CURVE('',#203,#203,#171,.T.);
#254=EDGE_CURVE('',#203,#204,#123,.T.);
#255=EDGE_CURVE('',#204,#202,#172,.T.);
#256=EDGE_CURVE('',#200,#204,#173,.T.);
#257=ORIENTED_EDGE('',*,*,#205,.F.);
#258=ORIENTED_EDGE('',*,*,#206,.T.);
#259=ORIENTED_EDGE('',*,*,#207,.F.);
#260=ORIENTED_EDGE('',*,*,#208,.F.);
#261=ORIENTED_EDGE('',*,*,#209,.T.);
#262=ORIENTED_EDGE('',*,*,#210,.T.);
#263=ORIENTED_EDGE('',*,*,#211,.T.);
#264=ORIENTED_EDGE('',*,*,#212,.F.);
#265=ORIENTED_EDGE('',*,*,#213,.F.);
#266=ORIENTED_EDGE('',*,*,#214,.T.);
#267=ORIENTED_EDGE('',*,*,#215,.T.);
#268=ORIENTED_EDGE('',*,*,#208,.T.);
#269=ORIENTED_EDGE('',*,*,#216,.F.);
#270=ORIENTED_EDGE('',*,*,#209,.F.);
#271=ORIENTED_EDGE('',*,*,#217,.F.);
#272=ORIENTED_EDGE('',*,*,#211,.F.);
#273=ORIENTED_EDGE('',*,*,#218,.F.);
#274=ORIENTED_EDGE('',*,*,#206,.F.);
#275=ORIENTED_EDGE('',*,*,#219,.F.);
#276=ORIENTED_EDGE('',*,*,#220,.F.);
#277=ORIENTED_EDGE('',*,*,#221,.F.);
#278=ORIENTED_EDGE('',*,*,#220,.T.);
#279=ORIENTED_EDGE('',*,*,#222,.F.);
#280=ORIENTED_EDGE('',*,*,#214,.F.);
#281=ORIENTED_EDGE('',*,*,#222,.T.);
#282=ORIENTED_EDGE('',*,*,#219,.T.);
#283=ORIENTED_EDGE('',*,*,#205,.T.);
#284=ORIENTED_EDGE('',*,*,#215,.F.);
#285=ORIENTED_EDGE('',*,*,#217,.T.);
#286=ORIENTED_EDGE('',*,*,#221,.T.);
#287=ORIENTED_EDGE('',*,*,#213,.T.);
#288=ORIENTED_EDGE('',*,*,#212,.T.);
#289=ORIENTED_EDGE('',*,*,#223,.T.);
#290=ORIENTED_EDGE('',*,*,#224,.T.);
#291=ORIENTED_EDGE('',*,*,#225,.T.);
#292=ORIENTED_EDGE('',*,*,#226,.T.);
#293=ORIENTED_EDGE('',*,*,#227,.F.);
#294=ORIENTED_EDGE('',*,*,#228,.T.);
#295=ORIENTED_EDGE('',*,*,#229,.T.);
#296=ORIENTED_EDGE('',*,*,#230,.T.);
#297=ORIENTED_EDGE('',*,*,#225,.F.);
#298=ORIENTED_EDGE('',*,*,#231,.T.);
#299=ORIENTED_EDGE('',*,*,#232,.T.);
#300=ORIENTED_EDGE('',*,*,#233,.T.);
#301=ORIENTED_EDGE('',*,*,#229,.F.);
#302=ORIENTED_EDGE('',*,*,#234,.T.);
#303=ORIENTED_EDGE('',*,*,#232,.F.);
#304=ORIENTED_EDGE('',*,*,#235,.T.);
#305=ORIENTED_EDGE('',*,*,#236,.T.);
#306=ORIENTED_EDGE('',*,*,#237,.T.);
#307=ORIENTED_EDGE('',*,*,#236,.F.);
#308=ORIENTED_EDGE('',*,*,#238,.T.);
#309=ORIENTED_EDGE('',*,*,#227,.T.);
#310=ORIENTED_EDGE('',*,*,#234,.F.);
#311=ORIENTED_EDGE('',*,*,#239,.F.);
#312=ORIENTED_EDGE('',*,*,#240,.F.);
#313=ORIENTED_EDGE('',*,*,#241,.T.);
#314=ORIENTED_EDGE('',*,*,#237,.F.);
#315=ORIENTED_EDGE('',*,*,#242,.F.);
#316=ORIENTED_EDGE('',*,*,#243,.F.);
#317=ORIENTED_EDGE('',*,*,#239,.T.);
#318=ORIENTED_EDGE('',*,*,#226,.F.);
#319=ORIENTED_EDGE('',*,*,#244,.F.);
#320=ORIENTED_EDGE('',*,*,#245,.F.);
#321=ORIENTED_EDGE('',*,*,#242,.T.);
#322=ORIENTED_EDGE('',*,*,#224,.F.);
#323=ORIENTED_EDGE('',*,*,#238,.F.);
#324=ORIENTED_EDGE('',*,*,#235,.F.);
#325=ORIENTED_EDGE('',*,*,#231,.F.);
#326=ORIENTED_EDGE('',*,*,#228,.F.);
#327=ORIENTED_EDGE('',*,*,#246,.T.);
#328=ORIENTED_EDGE('',*,*,#246,.F.);
#329=ORIENTED_EDGE('',*,*,#247,.T.);
#330=ORIENTED_EDGE('',*,*,#223,.F.);
#331=ORIENTED_EDGE('',*,*,#247,.F.);
#332=ORIENTED_EDGE('',*,*,#230,.F.);
#333=ORIENTED_EDGE('',*,*,#248,.F.);
#334=ORIENTED_EDGE('',*,*,#249,.F.);
#335=ORIENTED_EDGE('',*,*,#244,.T.);
#336=ORIENTED_EDGE('',*,*,#243,.T.);
#337=ORIENTED_EDGE('',*,*,#250,.F.);
#338=ORIENTED_EDGE('',*,*,#240,.T.);
#339=ORIENTED_EDGE('',*,*,#251,.F.);
#340=ORIENTED_EDGE('',*,*,#245,.T.);
#341=ORIENTED_EDGE('',*,*,#252,.F.);
#342=ORIENTED_EDGE('',*,*,#210,.F.);
#343=ORIENTED_EDGE('',*,*,#216,.T.);
#344=ORIENTED_EDGE('',*,*,#207,.T.);
#345=ORIENTED_EDGE('',*,*,#218,.T.);
#346=ORIENTED_EDGE('',*,*,#253,.T.);
#347=ORIENTED_EDGE('',*,*,#253,.F.);
#348=ORIENTED_EDGE('',*,*,#254,.T.);
#349=ORIENTED_EDGE('',*,*,#255,.T.);
#350=ORIENTED_EDGE('',*,*,#248,.T.);
#351=ORIENTED_EDGE('',*,*,#233,.F.);
#352=ORIENTED_EDGE('',*,*,#241,.F.);
#353=ORIENTED_EDGE('',*,*,#251,.T.);
#354=ORIENTED_EDGE('',*,*,#250,.T.);
#355=ORIENTED_EDGE('',*,*,#252,.T.);
#356=ORIENTED_EDGE('',*,*,#256,.T.);
#357=ORIENTED_EDGE('',*,*,#254,.F.);
#358=ORIENTED_EDGE('',*,*,#249,.T.);
#359=ORIENTED_EDGE('',*,*,#255,.F.);
#360=ORIENTED_EDGE('',*,*,#256,.F.);
#361=CYLINDRICAL_SURFACE('',#404,4.9);
#362=CYLINDRICAL_SURFACE('',#407,4.4);
#363=CYLINDRICAL_SURFACE('',#412,3.);
#364=CYLINDRICAL_SURFACE('',#430,1.5);
#365=CYLINDRICAL_SURFACE('',#440,4.);
#366=ADVANCED_FACE('',(#39),#361,.T.);
#367=ADVANCED_FACE('',(#40),#362,.T.);
#368=ADVANCED_FACE('',(#41),#21,.T.);
#369=ADVANCED_FACE('',(#42),#22,.T.);
#370=ADVANCED_FACE('',(#43),#363,.F.);
#371=ADVANCED_FACE('',(#44),#23,.T.);
#372=ADVANCED_FACE('',(#45,#18),#24,.T.);
#373=ADVANCED_FACE('',(#46),#25,.T.);
#374=ADVANCED_FACE('',(#47),#26,.T.);
#375=ADVANCED_FACE('',(#48),#15,.T.);
#376=ADVANCED_FACE('',(#49),#27,.T.);
#377=ADVANCED_FACE('',(#50),#28,.T.);
#378=ADVANCED_FACE('',(#51),#29,.T.);
#379=ADVANCED_FACE('',(#52),#30,.T.);
#380=ADVANCED_FACE('',(#53),#31,.T.);
#381=ADVANCED_FACE('',(#54,#19),#32,.T.);
#382=ADVANCED_FACE('',(#55),#364,.F.);
#383=ADVANCED_FACE('',(#56),#33,.T.);
#384=ADVANCED_FACE('',(#57),#34,.F.);
#385=ADVANCED_FACE('',(#58),#35,.F.);
#386=ADVANCED_FACE('',(#59),#36,.F.);
#387=ADVANCED_FACE('',(#60,#20),#37,.F.);
#388=ADVANCED_FACE('',(#61),#365,.T.);
#389=ADVANCED_FACE('',(#62),#38,.F.);
#390=CLOSED_SHELL('',(#366,#367,#368,#369,#370,#371,#372,#373,#374,#375,
#376,#377,#378,#379,#380,#381,#382,#383,#384,#385,#386,#387,#388,#389));
#391=DERIVED_UNIT_ELEMENT(#393,1.);
#392=DERIVED_UNIT_ELEMENT(#679,3.);
#393=(
MASS_UNIT()
NAMED_UNIT(*)
SI_UNIT(.KILO.,.GRAM.)
);
#394=DERIVED_UNIT((#391,#392));
#395=MEASURE_REPRESENTATION_ITEM('density measure',
POSITIVE_RATIO_MEASURE(7850.),#394);
#396=PROPERTY_DEFINITION_REPRESENTATION(#401,#398);
#397=PROPERTY_DEFINITION_REPRESENTATION(#402,#399);
#398=REPRESENTATION('material name',(#400),#676);
#399=REPRESENTATION('density',(#395),#676);
#400=DESCRIPTIVE_REPRESENTATION_ITEM('Steel','Steel');
#401=PROPERTY_DEFINITION('material property','material name',#686);
#402=PROPERTY_DEFINITION('material property','density of part',#686);
#403=AXIS2_PLACEMENT_3D('placement',#560,#444,#445);
#404=AXIS2_PLACEMENT_3D('',#561,#446,#447);
#405=AXIS2_PLACEMENT_3D('',#564,#448,#449);
#406=AXIS2_PLACEMENT_3D('',#568,#451,#452);
#407=AXIS2_PLACEMENT_3D('',#570,#454,#455);
#408=AXIS2_PLACEMENT_3D('',#575,#457,#458);
#409=AXIS2_PLACEMENT_3D('',#578,#460,#461);
#410=AXIS2_PLACEMENT_3D('',#579,#462,#463);
#411=AXIS2_PLACEMENT_3D('',#586,#468,#469);
#412=AXIS2_PLACEMENT_3D('',#593,#474,#475);
#413=AXIS2_PLACEMENT_3D('',#594,#476,#477);
#414=AXIS2_PLACEMENT_3D('',#595,#478,#479);
#415=AXIS2_PLACEMENT_3D('',#596,#480,#481);
#416=AXIS2_PLACEMENT_3D('',#597,#482,#483);
#417=AXIS2_PLACEMENT_3D('',#599,#484,#485);
#418=AXIS2_PLACEMENT_3D('',#600,#486,#487);
#419=AXIS2_PLACEMENT_3D('',#609,#492,#493);
#420=AXIS2_PLACEMENT_3D('',#618,#496,#497);
#421=AXIS2_PLACEMENT_3D('',#620,#498,#499);
#422=AXIS2_PLACEMENT_3D('',#626,#500,#501);
#423=AXIS2_PLACEMENT_3D('',#627,#502,#503);
#424=AXIS2_PLACEMENT_3D('',#633,#507,#508);
#425=AXIS2_PLACEMENT_3D('',#636,#511,#512);
#426=AXIS2_PLACEMENT_3D('',#642,#516,#517);
#427=AXIS2_PLACEMENT_3D('',#646,#520,#521);
#428=AXIS2_PLACEMENT_3D('',#650,#524,#525);
#429=AXIS2_PLACEMENT_3D('',#652,#526,#527);
#430=AXIS2_PLACEMENT_3D('',#653,#528,#529);
#431=AXIS2_PLACEMENT_3D('',#655,#531,#532);
#432=AXIS2_PLACEMENT_3D('',#659,#535,#536);
#433=AXIS2_PLACEMENT_3D('',#660,#537,#538);
#434=AXIS2_PLACEMENT_3D('',#661,#539,#540);
#435=AXIS2_PLACEMENT_3D('',#662,#541,#542);
#436=AXIS2_PLACEMENT_3D('',#663,#543,#544);
#437=AXIS2_PLACEMENT_3D('',#664,#545,#546);
#438=AXIS2_PLACEMENT_3D('',#665,#547,#548);
#439=AXIS2_PLACEMENT_3D('',#667,#549,#550);
#440=AXIS2_PLACEMENT_3D('',#668,#551,#552);
#441=AXIS2_PLACEMENT_3D('',#671,#554,#555);
#442=AXIS2_PLACEMENT_3D('',#672,#556,#557);
#443=AXIS2_PLACEMENT_3D('',#673,#558,#559);
#444=DIRECTION('axis',(0.,0.,1.));
#445=DIRECTION('refdir',(1.,0.,0.));
#446=DIRECTION('center_axis',(0.,-1.,0.));
#447=DIRECTION('ref_axis',(-0.102040816326531,0.,0.994780212812567));
#448=DIRECTION('center_axis',(0.,1.,0.));
#449=DIRECTION('ref_axis',(-0.102040816326531,0.,0.994780212812567));
#450=DIRECTION('',(0.,-1.,0.));
#451=DIRECTION('center_axis',(0.,-1.,0.));
#452=DIRECTION('ref_axis',(-0.102040816326531,0.,0.994780212812567));
#453=DIRECTION('',(0.,-1.,0.));
#454=DIRECTION('center_axis',(0.,1.,0.));
#455=DIRECTION('ref_axis',(1.83697019872103E-16,0.,-1.));
#456=DIRECTION('',(0.,-1.,0.));
#457=DIRECTION('center_axis',(0.,1.,0.));
#458=DIRECTION('ref_axis',(-1.,0.,0.));
#459=DIRECTION('',(0.,1.,0.));
#460=DIRECTION('center_axis',(0.,1.,0.));
#461=DIRECTION('ref_axis',(-1.,0.,0.));
#462=DIRECTION('center_axis',(1.,0.,0.));
#463=DIRECTION('ref_axis',(0.,0.,-1.));
#464=DIRECTION('',(0.,0.,1.));
#465=DIRECTION('',(0.,1.,0.));
#466=DIRECTION('',(1.02098467297503E-14,0.,1.));
#467=DIRECTION('',(1.02098467297503E-14,0.,1.));
#468=DIRECTION('center_axis',(-1.,0.,0.));
#469=DIRECTION('ref_axis',(0.,0.,1.));
#470=DIRECTION('',(0.,0.,-1.));
#471=DIRECTION('',(0.,0.,-1.));
#472=DIRECTION('',(0.,0.,1.));
#473=DIRECTION('',(0.,1.,0.));
#474=DIRECTION('center_axis',(0.,1.,0.));
#475=DIRECTION('ref_axis',(-1.,0.,0.));
#476=DIRECTION('center_axis',(0.,1.,0.));
#477=DIRECTION('ref_axis',(-1.,0.,0.));
#478=DIRECTION('center_axis',(0.,-1.,0.));
#479=DIRECTION('ref_axis',(-1.,0.,0.));
#480=DIRECTION('center_axis',(0.,1.,0.));
#481=DIRECTION('ref_axis',(-1.,0.,0.));
#482=DIRECTION('center_axis',(0.,1.,0.));
#483=DIRECTION('ref_axis',(-1.,0.,0.));
#484=DIRECTION('center_axis',(0.,-1.,0.));
#485=DIRECTION('ref_axis',(1.,0.,0.));
#486=DIRECTION('center_axis',(-0.290930478050106,-0.707106781186547,-0.64448386864338));
#487=DIRECTION('ref_axis',(-0.911437827766147,0.,0.411437827766148));
#488=DIRECTION('',(-0.911437827766148,0.,0.411437827766148));
#489=DIRECTION('',(-0.64322386002837,0.64322386002837,-0.415362650921346));
#490=DIRECTION('',(0.911437827766148,0.,-0.411437827766148));
#491=DIRECTION('',(0.,0.673621926540534,-0.739076112510626));
#492=DIRECTION('center_axis',(-0.707106781186547,-0.707106781186548,1.48359792180544E-16));
#493=DIRECTION('ref_axis',(2.09812430212579E-16,0.,1.));
#494=DIRECTION('',(2.09812430212579E-16,0.,1.));
#495=DIRECTION('',(-2.09812430212579E-16,0.,-1.));
#496=DIRECTION('center_axis',(0.,1.,0.));
#497=DIRECTION('ref_axis',(1.,0.,0.));
#498=DIRECTION('center_axis',(0.,1.,0.));
#499=DIRECTION('ref_axis',(1.,0.,0.));
#500=DIRECTION('center_axis',(0.,-1.,0.));
#501=DIRECTION('ref_axis',(1.,0.,0.));
#502=DIRECTION('center_axis',(0.707106781186548,-0.707106781186548,0.));
#503=DIRECTION('ref_axis',(0.,0.,-1.));
#504=DIRECTION('',(0.,0.,1.));
#505=DIRECTION('',(0.,0.,-1.));
#506=DIRECTION('',(0.64322386002837,0.64322386002837,-0.415362650921346));
#507=DIRECTION('center_axis',(0.290930478050106,-0.707106781186547,-0.64448386864338));
#508=DIRECTION('ref_axis',(-0.911437827766148,0.,-0.411437827766148));
#509=DIRECTION('',(0.911437827766148,0.,0.411437827766148));
#510=DIRECTION('',(-0.911437827766148,0.,-0.411437827766148));
#511=DIRECTION('center_axis',(1.,0.,0.));
#512=DIRECTION('ref_axis',(0.,0.,1.));
#513=DIRECTION('',(0.,-1.,0.));
#514=DIRECTION('',(0.,0.,-1.));
#515=DIRECTION('',(0.,-1.,0.));
#516=DIRECTION('center_axis',(0.411437827766148,0.,-0.911437827766148));
#517=DIRECTION('ref_axis',(0.911437827766148,0.,0.411437827766148));
#518=DIRECTION('',(0.,-1.,0.));
#519=DIRECTION('',(-0.911437827766148,0.,-0.411437827766148));
#520=DIRECTION('center_axis',(-0.411437827766148,0.,-0.911437827766148));
#521=DIRECTION('ref_axis',(0.911437827766148,0.,-0.411437827766148));
#522=DIRECTION('',(0.,-1.,0.));
#523=DIRECTION('',(-0.911437827766148,0.,0.411437827766148));
#524=DIRECTION('center_axis',(0.,-1.,0.));
#525=DIRECTION('ref_axis',(1.,0.,0.));
#526=DIRECTION('center_axis',(0.,1.,0.));
#527=DIRECTION('ref_axis',(1.,0.,0.));
#528=DIRECTION('center_axis',(0.,1.,0.));
#529=DIRECTION('ref_axis',(1.,0.,0.));
#530=DIRECTION('',(0.,1.,0.));
#531=DIRECTION('center_axis',(-1.,0.,2.09812430212579E-16));
#532=DIRECTION('ref_axis',(-2.09812430212579E-16,0.,-1.));
#533=DIRECTION('',(0.,-1.,0.));
#534=DIRECTION('',(2.09812430212579E-16,0.,1.));
#535=DIRECTION('center_axis',(0.,1.,0.));
#536=DIRECTION('ref_axis',(1.,0.,0.));
#537=DIRECTION('center_axis',(0.,1.,0.));
#538=DIRECTION('ref_axis',(1.,0.,0.));
#539=DIRECTION('center_axis',(0.,1.,0.));
#540=DIRECTION('ref_axis',(1.,0.,0.));
#541=DIRECTION('center_axis',(0.,1.,0.));
#542=DIRECTION('ref_axis',(1.,0.,0.));
#543=DIRECTION('center_axis',(0.,1.,0.));
#544=DIRECTION('ref_axis',(1.,0.,0.));
#545=DIRECTION('center_axis',(0.,1.,0.));
#546=DIRECTION('ref_axis',(1.,0.,0.));
#547=DIRECTION('center_axis',(0.,1.,0.));
#548=DIRECTION('ref_axis',(-1.,0.,0.));
#549=DIRECTION('center_axis',(0.,1.,0.));
#550=DIRECTION('ref_axis',(1.,0.,0.));
#551=DIRECTION('center_axis',(0.,1.,0.));
#552=DIRECTION('ref_axis',(1.,0.,0.));
#553=DIRECTION('',(0.,-1.,0.));
#554=DIRECTION('center_axis',(0.,1.,0.));
#555=DIRECTION('ref_axis',(1.,0.,0.));
#556=DIRECTION('center_axis',(0.,1.,0.));
#557=DIRECTION('ref_axis',(1.,0.,0.));
#558=DIRECTION('center_axis',(0.,1.,0.));
#559=DIRECTION('ref_axis',(1.,0.,0.));
#560=CARTESIAN_POINT('',(0.,0.,0.));
#561=CARTESIAN_POINT('Origin',(1.07552855510562E-15,9.,-1.11022302462516E-14));
#562=CARTESIAN_POINT('',(-0.499999999999999,9.,4.87442304278157));
#563=CARTESIAN_POINT('',(0.500000000000002,9.,4.87442304278157));
#564=CARTESIAN_POINT('Origin',(1.07552855510562E-15,9.,-1.11022302462516E-14));
#565=CARTESIAN_POINT('',(-0.499999999999999,7.5,4.87442304278157));
#566=CARTESIAN_POINT('',(-0.499999999999999,9.,4.87442304278157));
#567=CARTESIAN_POINT('',(0.500000000000002,7.5,4.87442304278157));
#568=CARTESIAN_POINT('Origin',(1.07552855510562E-15,7.5,-1.11022302462516E-14));
#569=CARTESIAN_POINT('',(0.500000000000002,9.,4.87442304278157));
#570=CARTESIAN_POINT('Origin',(0.,7.5,0.));
#571=CARTESIAN_POINT('',(0.5,8.5,4.37149859887888));
#572=CARTESIAN_POINT('',(0.499999999999999,7.5,4.37149859887888));
#573=CARTESIAN_POINT('',(0.499999999999999,7.5,4.37149859887888));
#574=CARTESIAN_POINT('',(-0.499999999999999,7.5,4.37149859887888));
#575=CARTESIAN_POINT('Origin',(0.,7.5,0.));
#576=CARTESIAN_POINT('',(-0.5,8.5,4.37149859887888));
#577=CARTESIAN_POINT('',(-0.499999999999999,7.5,4.37149859887888));
#578=CARTESIAN_POINT('Origin',(0.,8.5,0.));
#579=CARTESIAN_POINT('Origin',(0.5,8.5,4.37149859887888));
#580=CARTESIAN_POINT('',(0.5,8.5,2.95803989154994));
#581=CARTESIAN_POINT('',(0.5,8.5,2.18574929943944));
#582=CARTESIAN_POINT('',(0.5,9.,2.95803989154994));
#583=CARTESIAN_POINT('',(0.5,8.5,2.95803989154994));
#584=CARTESIAN_POINT('',(0.499999999999999,9.,4.37149859887888));
#585=CARTESIAN_POINT('',(0.499999999999999,7.5,4.37149859887888));
#586=CARTESIAN_POINT('Origin',(-0.5,8.5,2.95803989154994));
#587=CARTESIAN_POINT('',(-0.5,8.5,2.95803989154994));
#588=CARTESIAN_POINT('',(-0.5,8.5,1.47901994577497));
#589=CARTESIAN_POINT('',(-0.499999999999999,7.5,4.37149859887888));
#590=CARTESIAN_POINT('',(-0.5,9.,2.95803989154994));
#591=CARTESIAN_POINT('',(-0.5,9.,2.95803989154994));
#592=CARTESIAN_POINT('',(-0.5,8.5,2.95803989154994));
#593=CARTESIAN_POINT('Origin',(0.,8.5,0.));
#594=CARTESIAN_POINT('Origin',(0.,8.5,0.));
#595=CARTESIAN_POINT('Origin',(0.,9.,0.));
#596=CARTESIAN_POINT('Origin',(-6.93889390390723E-17,9.,3.67901994577491));
#597=CARTESIAN_POINT('Origin',(0.,8.5,0.));
#598=CARTESIAN_POINT('',(-1.5,8.5,-1.83697019872103E-16));
#599=CARTESIAN_POINT('Origin',(0.,8.5,0.));
#600=CARTESIAN_POINT('Origin',(-2.14714054305846,-1.75,-2.75645402635691));
#601=CARTESIAN_POINT('',(-2.77555756156289E-16,-2.,-3.45141622964514));
#602=CARTESIAN_POINT('',(-2.5,-2.,-2.32287565553229));
#603=CARTESIAN_POINT('',(-2.04428108611693,-2.,-2.52859456941537));
#604=CARTESIAN_POINT('',(-3.,-1.5,-2.64575131106459));
#605=CARTESIAN_POINT('',(-2.5,-2.,-2.32287565553229));
#606=CARTESIAN_POINT('',(-2.77555756156289E-16,-1.5,-4.));
#607=CARTESIAN_POINT('',(-2.25,-1.5,-2.98431348329844));
#608=CARTESIAN_POINT('',(-2.77555756156289E-16,-2.,-3.45141622964514));
#609=CARTESIAN_POINT('Origin',(-2.75,-1.75,1.3228756555323));
#610=CARTESIAN_POINT('',(-2.5,-2.,2.44948974278318));
#611=CARTESIAN_POINT('',(-2.5,-2.,1.3228756555323));
#612=CARTESIAN_POINT('',(-3.,-1.5,2.64575131106459));
#613=CARTESIAN_POINT('Ctrl Pts',(-2.5,-2.,2.44948974278318));
#614=CARTESIAN_POINT('Ctrl Pts',(-2.66592593632013,-1.83407406367987,2.51722872262949));
#615=CARTESIAN_POINT('Ctrl Pts',(-2.83316035200227,-1.66683964799773,2.58269185143208));
#616=CARTESIAN_POINT('Ctrl Pts',(-3.,-1.5,2.64575131106459));
#617=CARTESIAN_POINT('',(-3.,-1.5,1.3228756555323));
#618=CARTESIAN_POINT('Origin',(0.,-1.75,0.));
#619=CARTESIAN_POINT('',(2.5,-2.,2.44948974278318));
#620=CARTESIAN_POINT('Origin',(0.,-2.,0.));
#621=CARTESIAN_POINT('',(3.,-1.5,2.64575131106459));
#622=CARTESIAN_POINT('Ctrl Pts',(2.5,-2.,2.44948974278318));
#623=CARTESIAN_POINT('Ctrl Pts',(2.66592593632012,-1.83407406367988,2.51722872262948));
#624=CARTESIAN_POINT('Ctrl Pts',(2.83316035200224,-1.66683964799776,2.58269185143207));
#625=CARTESIAN_POINT('Ctrl Pts',(3.,-1.5,2.64575131106459));
#626=CARTESIAN_POINT('Origin',(0.,-1.5,0.));
#627=CARTESIAN_POINT('Origin',(2.75,-1.75,-1.3228756555323));
#628=CARTESIAN_POINT('',(3.,-1.5,-2.64575131106459));
#629=CARTESIAN_POINT('',(3.,-1.5,-1.3228756555323));
#630=CARTESIAN_POINT('',(2.5,-2.,-2.32287565553229));
#631=CARTESIAN_POINT('',(2.5,-2.,-1.3228756555323));
#632=CARTESIAN_POINT('',(2.5,-2.,-2.3228756555323));
#633=CARTESIAN_POINT('Origin',(0.647140543058463,-1.75,-3.43357837082461));
#634=CARTESIAN_POINT('',(0.75,-1.5,-3.66143782776615));
#635=CARTESIAN_POINT('',(0.544281086116926,-2.,-3.20571891388307));
#636=CARTESIAN_POINT('Origin',(3.,0.,-2.64575131106459));
#637=CARTESIAN_POINT('',(3.,0.,-2.64575131106459));
#638=CARTESIAN_POINT('',(3.,0.,-2.64575131106459));
#639=CARTESIAN_POINT('',(3.,0.,2.64575131106459));
#640=CARTESIAN_POINT('',(3.,0.,-1.3228756555323));
#641=CARTESIAN_POINT('',(3.,0.,2.64575131106459));
#642=CARTESIAN_POINT('Origin',(-2.77555756156289E-16,0.,-4.));
#643=CARTESIAN_POINT('',(-2.77555756156289E-16,0.,-4.));
#644=CARTESIAN_POINT('',(-2.77555756156289E-16,0.,-4.));
#645=CARTESIAN_POINT('',(0.75,0.,-3.66143782776615));
#646=CARTESIAN_POINT('Origin',(-3.,0.,-2.64575131106459));
#647=CARTESIAN_POINT('',(-3.,0.,-2.64575131106459));
#648=CARTESIAN_POINT('',(-3.,0.,-2.64575131106459));
#649=CARTESIAN_POINT('',(-2.25,0.,-2.98431348329844));
#650=CARTESIAN_POINT('Origin',(-5.55111512312578E-16,-2.,0.));
#651=CARTESIAN_POINT('',(-1.5,-2.,-1.83697019872103E-16));
#652=CARTESIAN_POINT('Origin',(0.,-2.,0.));
#653=CARTESIAN_POINT('Origin',(0.,-2.,0.));
#654=CARTESIAN_POINT('',(-1.5,-2.,1.83697019872103E-16));
#655=CARTESIAN_POINT('Origin',(-3.,0.,2.64575131106459));
#656=CARTESIAN_POINT('',(-3.,0.,2.64575131106459));
#657=CARTESIAN_POINT('',(-3.,0.,2.64575131106459));
#658=CARTESIAN_POINT('',(-3.,0.,1.3228756555323));
#659=CARTESIAN_POINT('Origin',(0.,0.,0.));
#660=CARTESIAN_POINT('Origin',(0.,0.,0.));
#661=CARTESIAN_POINT('Origin',(0.,0.,0.));
#662=CARTESIAN_POINT('Origin',(0.,0.,0.));
#663=CARTESIAN_POINT('Origin',(0.,0.,0.));
#664=CARTESIAN_POINT('Origin',(0.,0.,0.));
#665=CARTESIAN_POINT('Origin',(0.,7.5,0.));
#666=CARTESIAN_POINT('',(-4.,7.5,4.89858719658941E-16));
#667=CARTESIAN_POINT('Origin',(0.,7.5,0.));
#668=CARTESIAN_POINT('Origin',(0.,0.,0.));
#669=CARTESIAN_POINT('',(-4.,0.,4.89858719658941E-16));
#670=CARTESIAN_POINT('',(-4.,0.,4.89858719658941E-16));
#671=CARTESIAN_POINT('Origin',(0.,0.,0.));
#672=CARTESIAN_POINT('Origin',(0.,0.,0.));
#673=CARTESIAN_POINT('Origin',(0.,0.,0.));
#674=UNCERTAINTY_MEASURE_WITH_UNIT(LENGTH_MEASURE(0.01),#678,
'DISTANCE_ACCURACY_VALUE',
'Maximum model space distance between geometric entities at asserted c
onnectivities');
#675=UNCERTAINTY_MEASURE_WITH_UNIT(LENGTH_MEASURE(0.01),#678,
'DISTANCE_ACCURACY_VALUE',
'Maximum model space distance between geometric entities at asserted c
onnectivities');
#676=(
GEOMETRIC_REPRESENTATION_CONTEXT(3)
GLOBAL_UNCERTAINTY_ASSIGNED_CONTEXT((#674))
GLOBAL_UNIT_ASSIGNED_CONTEXT((#678,#680,#681))
REPRESENTATION_CONTEXT('','3D')
);
#677=(
GEOMETRIC_REPRESENTATION_CONTEXT(3)
GLOBAL_UNCERTAINTY_ASSIGNED_CONTEXT((#675))
GLOBAL_UNIT_ASSIGNED_CONTEXT((#678,#680,#681))
REPRESENTATION_CONTEXT('','3D')
);
#678=(
LENGTH_UNIT()
NAMED_UNIT(*)
SI_UNIT(.MILLI.,.METRE.)
);
#679=(
LENGTH_UNIT()
NAMED_UNIT(*)
SI_UNIT($,.METRE.)
);
#680=(
NAMED_UNIT(*)
PLANE_ANGLE_UNIT()
SI_UNIT($,.RADIAN.)
);
#681=(
NAMED_UNIT(*)
SI_UNIT($,.STERADIAN.)
SOLID_ANGLE_UNIT()
);
#682=SHAPE_DEFINITION_REPRESENTATION(#683,#684);
#683=PRODUCT_DEFINITION_SHAPE('',$,#686);
#684=SHAPE_REPRESENTATION('',(#403),#676);
#685=PRODUCT_DEFINITION_CONTEXT('part definition',#690,'design');
#686=PRODUCT_DEFINITION('ParallelGripper_SpurGearPin',
'ParallelGripper_SpurGearPin v1',#687,#685);
#687=PRODUCT_DEFINITION_FORMATION('',$,#692);
#688=PRODUCT_RELATED_PRODUCT_CATEGORY('ParallelGripper_SpurGearPin v1',
'ParallelGripper_SpurGearPin v1',(#692));
#689=APPLICATION_PROTOCOL_DEFINITION('international standard',
'automotive_design',2009,#690);
#690=APPLICATION_CONTEXT(
'Core Data for Automotive Mechanical Design Process');
#691=PRODUCT_CONTEXT('part definition',#690,'mechanical');
#692=PRODUCT('ParallelGripper_SpurGearPin',
'ParallelGripper_SpurGearPin v1',$,(#691));
#693=PRESENTATION_STYLE_ASSIGNMENT((#694));
#694=SURFACE_STYLE_USAGE(.BOTH.,#695);
#695=SURFACE_SIDE_STYLE('',(#696));
#696=SURFACE_STYLE_FILL_AREA(#697);
#697=FILL_AREA_STYLE('Steel - Satin',(#698));
#698=FILL_AREA_STYLE_COLOUR('Steel - Satin',#699);
#699=COLOUR_RGB('Steel - Satin',0.627450980392157,0.627450980392157,0.627450980392157);
ENDSEC;
END-ISO-10303-21;
